<svg xmlns="http://www.w3.org/2000/svg" width="1440" height="900"><path d="M751,474L768,559L829,481Z" fill="#8a8a8a" stroke="#8a8a8a" stroke-width="1.51"/><path d="M768,559L853,595L829,481Z" fill="#838383" stroke="#838383" stroke-width="1.51"/><path d="M751,474L667,514L768,559Z" fill="#8e8e8e" stroke="#8e8e8e" stroke-width="1.51"/><path d="M829,481L755,394L751,474Z" fill="#919191" stroke="#919191" stroke-width="1.51"/><path d="M751,474L686,388L667,514Z" fill="#969696" stroke="#969696" stroke-width="1.51"/><path d="M768,559L776,644L853,595Z" fill="#7e7e7e" stroke="#7e7e7e" stroke-width="1.51"/><path d="M670,598L776,644L768,559Z" fill="#838383" stroke="#838383" stroke-width="1.51"/><path d="M829,481L871,403L755,394Z" fill="#919191" stroke="#919191" stroke-width="1.51"/><path d="M932,481L871,403L829,481Z" fill="#888888" stroke="#888888" stroke-width="1.51"/><path d="M667,514L670,598L768,559Z" fill="#8b8b8b" stroke="#8b8b8b" stroke-width="1.51"/><path d="M853,595L932,481L829,481Z" fill="#818181" stroke="#818181" stroke-width="1.51"/><path d="M755,394L686,388L751,474Z" fill="#999999" stroke="#999999" stroke-width="1.51"/><path d="M680,332L686,388L755,394Z" fill="#a1a1a1" stroke="#a1a1a1" stroke-width="1.51"/><path d="M776,644L854,662L853,595Z" fill="#787878" stroke="#787878" stroke-width="1.51"/><path d="M853,595L953,578L932,481Z" fill="#7a7a7a" stroke="#7a7a7a" stroke-width="1.51"/><path d="M933,684L953,578L853,595Z" fill="#737373" stroke="#737373" stroke-width="1.51"/><path d="M670,598L675,651L776,644Z" fill="#828282" stroke="#828282" stroke-width="1.51"/><path d="M776,644L851,750L854,662Z" fill="#727272" stroke="#727272" stroke-width="1.51"/><path d="M932,481L952,422L871,403Z" fill="#888888" stroke="#888888" stroke-width="1.51"/><path d="M1025,477L952,422L932,481Z" fill="#818181" stroke="#818181" stroke-width="1.51"/><path d="M850,304L766,315L755,394Z" fill="#9e9e9e" stroke="#9e9e9e" stroke-width="1.51"/><path d="M850,304L755,394L871,403Z" fill="#989898" stroke="#989898" stroke-width="1.51"/><path d="M670,598L597,590L675,651Z" fill="#898989" stroke="#898989" stroke-width="1.51"/><path d="M667,514L597,590L670,598Z" fill="#8f8f8f" stroke="#8f8f8f" stroke-width="1.51"/><path d="M574,482L597,590L667,514Z" fill="#969696" stroke="#969696" stroke-width="1.51"/><path d="M569,421L574,482L667,514Z" fill="#9e9e9e" stroke="#9e9e9e" stroke-width="1.51"/><path d="M766,315L680,332L755,394Z" fill="#a2a2a2" stroke="#a2a2a2" stroke-width="1.51"/><path d="M569,421L667,514L686,388Z" fill="#9e9e9e" stroke="#9e9e9e" stroke-width="1.51"/><path d="M944,337L850,304L871,403Z" fill="#959595" stroke="#959595" stroke-width="1.51"/><path d="M854,662L933,684L853,595Z" fill="#727272" stroke="#727272" stroke-width="1.51"/><path d="M851,750L933,684L854,662Z" fill="#6d6d6d" stroke="#6d6d6d" stroke-width="1.51"/><path d="M953,578L1025,477L932,481Z" fill="#7a7a7a" stroke="#7a7a7a" stroke-width="1.51"/><path d="M933,684L1006,582L953,578Z" fill="#6f6f6f" stroke="#6f6f6f" stroke-width="1.51"/><path d="M952,422L944,337L871,403Z" fill="#8d8d8d" stroke="#8d8d8d" stroke-width="1.51"/><path d="M1042,399L944,337L952,422Z" fill="#888888" stroke="#888888" stroke-width="1.51"/><path d="M610,314L569,421L686,388Z" fill="#a8a8a8" stroke="#a8a8a8" stroke-width="1.51"/><path d="M1006,582L1025,477L953,578Z" fill="#757575" stroke="#757575" stroke-width="1.51"/><path d="M675,651L743,751L776,644Z" fill="#7a7a7a" stroke="#7a7a7a" stroke-width="1.51"/><path d="M664,771L743,751L675,651Z" fill="#797979" stroke="#797979" stroke-width="1.51"/><path d="M743,751L851,750L776,644Z" fill="#727272" stroke="#727272" stroke-width="1.51"/><path d="M597,590L572,660L675,651Z" fill="#8a8a8a" stroke="#8a8a8a" stroke-width="1.51"/><path d="M515,587L572,660L597,590Z" fill="#919191" stroke="#919191" stroke-width="1.51"/><path d="M515,587L597,590L574,482Z" fill="#989898" stroke="#989898" stroke-width="1.51"/><path d="M680,332L610,314L686,388Z" fill="#a9a9a9" stroke="#a9a9a9" stroke-width="1.51"/><path d="M693,225L610,314L680,332Z" fill="#afafaf" stroke="#afafaf" stroke-width="1.51"/><path d="M693,225L680,332L766,315Z" fill="#aaaaaa" stroke="#aaaaaa" stroke-width="1.51"/><path d="M850,304L837,249L766,315Z" fill="#a2a2a2" stroke="#a2a2a2" stroke-width="1.51"/><path d="M927,213L837,249L850,304Z" fill="#a0a0a0" stroke="#a0a0a0" stroke-width="1.51"/><path d="M837,249L776,243L766,315Z" fill="#a6a6a6" stroke="#a6a6a6" stroke-width="1.51"/><path d="M1025,477L1042,399L952,422Z" fill="#818181" stroke="#818181" stroke-width="1.51"/><path d="M944,337L927,213L850,304Z" fill="#9b9b9b" stroke="#9b9b9b" stroke-width="1.51"/><path d="M1088,475L1042,399L1025,477Z" fill="#7b7b7b" stroke="#7b7b7b" stroke-width="1.51"/><path d="M500,484L515,587L574,482Z" fill="#9f9f9f" stroke="#9f9f9f" stroke-width="1.51"/><path d="M582,751L664,771L675,651Z" fill="#7d7d7d" stroke="#7d7d7d" stroke-width="1.51"/><path d="M743,751L742,823L851,750Z" fill="#6b6b6b" stroke="#6b6b6b" stroke-width="1.51"/><path d="M569,421L500,484L574,482Z" fill="#a4a4a4" stroke="#a4a4a4" stroke-width="1.51"/><path d="M490,414L500,484L569,421Z" fill="#a9a9a9" stroke="#a9a9a9" stroke-width="1.51"/><path d="M933,684L1037,662L1006,582Z" fill="#6a6a6a" stroke="#6a6a6a" stroke-width="1.51"/><path d="M1006,582L1088,475L1025,477Z" fill="#757575" stroke="#757575" stroke-width="1.51"/><path d="M1035,735L1037,662L933,684Z" fill="#646464" stroke="#646464" stroke-width="1.51"/><path d="M851,750L940,765L933,684Z" fill="#666666" stroke="#666666" stroke-width="1.51"/><path d="M916,824L940,765L851,750Z" fill="#606060" stroke="#606060" stroke-width="1.51"/><path d="M762,154L693,225L776,243Z" fill="#b0b0b0" stroke="#b0b0b0" stroke-width="1.51"/><path d="M776,243L693,225L766,315Z" fill="#ababab" stroke="#ababab" stroke-width="1.51"/><path d="M1127,579L1088,475L1006,582Z" fill="#6f6f6f" stroke="#6f6f6f" stroke-width="1.51"/><path d="M511,333L490,414L569,421Z" fill="#afafaf" stroke="#afafaf" stroke-width="1.51"/><path d="M511,333L569,421L610,314Z" fill="#b0b0b0" stroke="#b0b0b0" stroke-width="1.51"/><path d="M664,771L742,823L743,751Z" fill="#6f6f6f" stroke="#6f6f6f" stroke-width="1.51"/><path d="M664,771L688,860L742,823Z" fill="#6a6a6a" stroke="#6a6a6a" stroke-width="1.51"/><path d="M572,660L582,751L675,651Z" fill="#848484" stroke="#848484" stroke-width="1.51"/><path d="M522,756L582,751L572,660Z" fill="#848484" stroke="#848484" stroke-width="1.51"/><path d="M742,823L847,831L851,750Z" fill="#646464" stroke="#646464" stroke-width="1.51"/><path d="M1042,399L1043,307L944,337Z" fill="#8b8b8b" stroke="#8b8b8b" stroke-width="1.51"/><path d="M1124,327L1043,307L1042,399Z" fill="#868686" stroke="#868686" stroke-width="1.51"/><path d="M519,248L511,333L610,314Z" fill="#b9b9b9" stroke="#b9b9b9" stroke-width="1.51"/><path d="M1009,213L927,213L944,337Z" fill="#999999" stroke="#999999" stroke-width="1.51"/><path d="M837,249L762,154L776,243Z" fill="#aaaaaa" stroke="#aaaaaa" stroke-width="1.51"/><path d="M693,225L596,237L610,314Z" fill="#b5b5b5" stroke="#b5b5b5" stroke-width="1.51"/><path d="M1037,662L1127,579L1006,582Z" fill="#696969" stroke="#696969" stroke-width="1.51"/><path d="M940,765L1035,735L933,684Z" fill="#626262" stroke="#626262" stroke-width="1.51"/><path d="M1016,835L1035,735L940,765Z" fill="#595959" stroke="#595959" stroke-width="1.51"/><path d="M847,831L916,824L851,750Z" fill="#5f5f5f" stroke="#5f5f5f" stroke-width="1.51"/><path d="M515,587L495,684L572,660Z" fill="#919191" stroke="#919191" stroke-width="1.51"/><path d="M438,565L495,684L515,587Z" fill="#989898" stroke="#989898" stroke-width="1.51"/><path d="M438,565L515,587L500,484Z" fill="#9f9f9f" stroke="#9f9f9f" stroke-width="1.51"/><path d="M1088,475L1110,402L1042,399Z" fill="#7c7c7c" stroke="#7c7c7c" stroke-width="1.51"/><path d="M1187,497L1110,402L1088,475Z" fill="#747474" stroke="#747474" stroke-width="1.51"/><path d="M1108,680L1127,579L1037,662Z" fill="#626262" stroke="#626262" stroke-width="1.51"/><path d="M397,507L438,565L500,484Z" fill="#a5a5a5" stroke="#a5a5a5" stroke-width="1.51"/><path d="M430,405L500,484L490,414Z" fill="#adadad" stroke="#adadad" stroke-width="1.51"/><path d="M693,225L668,159L596,237Z" fill="#b8b8b8" stroke="#b8b8b8" stroke-width="1.51"/><path d="M861,137L762,154L837,249Z" fill="#acacac" stroke="#acacac" stroke-width="1.51"/><path d="M585,823L688,860L664,771Z" fill="#6e6e6e" stroke="#6e6e6e" stroke-width="1.51"/><path d="M495,684L522,756L572,660Z" fill="#898989" stroke="#898989" stroke-width="1.51"/><path d="M421,758L522,756L495,684Z" fill="#898989" stroke="#898989" stroke-width="1.51"/><path d="M742,823L759,928L847,831Z" fill="#5d5d5d" stroke="#5d5d5d" stroke-width="1.51"/><path d="M949,924L1016,835L916,824Z" fill="#4f4f4f" stroke="#4f4f4f" stroke-width="1.51"/><path d="M585,823L664,771L582,751Z" fill="#787878" stroke="#787878" stroke-width="1.51"/><path d="M1035,735L1108,680L1037,662Z" fill="#5f5f5f" stroke="#5f5f5f" stroke-width="1.51"/><path d="M762,154L668,159L693,225Z" fill="#b5b5b5" stroke="#b5b5b5" stroke-width="1.51"/><path d="M1043,307L1009,213L944,337Z" fill="#939393" stroke="#939393" stroke-width="1.51"/><path d="M927,213L861,137L837,249Z" fill="#a5a5a5" stroke="#a5a5a5" stroke-width="1.51"/><path d="M1122,244L1009,213L1043,307Z" fill="#919191" stroke="#919191" stroke-width="1.51"/><path d="M522,756L585,823L582,751Z" fill="#7c7c7c" stroke="#7c7c7c" stroke-width="1.51"/><path d="M511,333L430,405L490,414Z" fill="#b3b3b3" stroke="#b3b3b3" stroke-width="1.51"/><path d="M399,315L430,405L511,333Z" fill="#b9b9b9" stroke="#b9b9b9" stroke-width="1.51"/><path d="M519,248L610,314L596,237Z" fill="#b9b9b9" stroke="#b9b9b9" stroke-width="1.51"/><path d="M489,152L519,248L596,237Z" fill="#c2c2c2" stroke="#c2c2c2" stroke-width="1.51"/><path d="M952,162L861,137L927,213Z" fill="#a5a5a5" stroke="#a5a5a5" stroke-width="1.51"/><path d="M696,45L600,138L668,159Z" fill="#c0c0c0" stroke="#c0c0c0" stroke-width="1.51"/><path d="M1176,339L1124,327L1110,402Z" fill="#808080" stroke="#808080" stroke-width="1.51"/><path d="M1110,402L1124,327L1042,399Z" fill="#818181" stroke="#818181" stroke-width="1.51"/><path d="M1009,213L952,162L927,213Z" fill="#9e9e9e" stroke="#9e9e9e" stroke-width="1.51"/><path d="M430,405L397,507L500,484Z" fill="#ababab" stroke="#ababab" stroke-width="1.51"/><path d="M438,565L407,681L495,684Z" fill="#969696" stroke="#969696" stroke-width="1.51"/><path d="M1035,735L1127,767L1108,680Z" fill="#595959" stroke="#595959" stroke-width="1.51"/><path d="M916,824L1016,835L940,765Z" fill="#585858" stroke="#585858" stroke-width="1.51"/><path d="M949,924L916,824L847,831Z" fill="#535353" stroke="#535353" stroke-width="1.51"/><path d="M1127,579L1187,497L1088,475Z" fill="#6d6d6d" stroke="#6d6d6d" stroke-width="1.51"/><path d="M1192,579L1187,497L1127,579Z" fill="#656565" stroke="#656565" stroke-width="1.51"/><path d="M1179,652L1192,579L1127,579Z" fill="#616161" stroke="#616161" stroke-width="1.51"/><path d="M1179,652L1127,579L1108,680Z" fill="#5f5f5f" stroke="#5f5f5f" stroke-width="1.51"/><path d="M339,560L407,681L438,565Z" fill="#9e9e9e" stroke="#9e9e9e" stroke-width="1.51"/><path d="M522,756L490,854L585,823Z" fill="#797979" stroke="#797979" stroke-width="1.51"/><path d="M1204,739L1179,652L1108,680Z" fill="#575757" stroke="#575757" stroke-width="1.51"/><path d="M696,45L668,159L762,154Z" fill="#bababa" stroke="#bababa" stroke-width="1.51"/><path d="M668,159L600,138L596,237Z" fill="#bdbdbd" stroke="#bdbdbd" stroke-width="1.51"/><path d="M688,860L759,928L742,823Z" fill="#5f5f5f" stroke="#5f5f5f" stroke-width="1.51"/><path d="M673,918L759,928L688,860Z" fill="#5b5b5b" stroke="#5b5b5b" stroke-width="1.51"/><path d="M585,908L688,860L585,823Z" fill="#696969" stroke="#696969" stroke-width="1.51"/><path d="M585,908L673,918L688,860Z" fill="#616161" stroke="#616161" stroke-width="1.51"/><path d="M1209,413L1176,339L1110,402Z" fill="#7a7a7a" stroke="#7a7a7a" stroke-width="1.51"/><path d="M1124,327L1122,244L1043,307Z" fill="#8a8a8a" stroke="#8a8a8a" stroke-width="1.51"/><path d="M1009,213L1020,134L952,162Z" fill="#9e9e9e" stroke="#9e9e9e" stroke-width="1.51"/><path d="M1109,835L1127,767L1035,735Z" fill="#525252" stroke="#525252" stroke-width="1.51"/><path d="M759,928L828,935L847,831Z" fill="#555555" stroke="#555555" stroke-width="1.51"/><path d="M1176,339L1122,244L1124,327Z" fill="#868686" stroke="#868686" stroke-width="1.51"/><path d="M1262,393L1209,413L1291,474Z" fill="#6a6a6a" stroke="#6a6a6a" stroke-width="1.51"/><path d="M1187,497L1209,413L1110,402Z" fill="#727272" stroke="#727272" stroke-width="1.51"/><path d="M416,234L511,333L519,248Z" fill="#c1c1c1" stroke="#c1c1c1" stroke-width="1.51"/><path d="M416,234L399,315L511,333Z" fill="#c1c1c1" stroke="#c1c1c1" stroke-width="1.51"/><path d="M430,405L334,476L397,507Z" fill="#afafaf" stroke="#afafaf" stroke-width="1.51"/><path d="M407,681L421,758L495,684Z" fill="#8f8f8f" stroke="#8f8f8f" stroke-width="1.51"/><path d="M952,162L947,81L861,137Z" fill="#a8a8a8" stroke="#a8a8a8" stroke-width="1.51"/><path d="M861,137L832,54L762,154Z" fill="#b1b1b1" stroke="#b1b1b1" stroke-width="1.51"/><path d="M1089,140L1020,134L1009,213Z" fill="#9b9b9b" stroke="#9b9b9b" stroke-width="1.51"/><path d="M828,935L949,924L847,831Z" fill="#505050" stroke="#505050" stroke-width="1.51"/><path d="M1016,835L1109,835L1035,735Z" fill="#525252" stroke="#525252" stroke-width="1.51"/><path d="M490,854L585,908L585,823Z" fill="#6f6f6f" stroke="#6f6f6f" stroke-width="1.51"/><path d="M742,1025L828,935L759,928Z" fill="#4f4f4f" stroke="#4f4f4f" stroke-width="1.51"/><path d="M397,507L339,560L438,565Z" fill="#a5a5a5" stroke="#a5a5a5" stroke-width="1.51"/><path d="M320,771L412,824L421,758Z" fill="#878787" stroke="#878787" stroke-width="1.51"/><path d="M334,476L339,560L397,507Z" fill="#ababab" stroke="#ababab" stroke-width="1.51"/><path d="M421,758L490,854L522,756Z" fill="#818181" stroke="#818181" stroke-width="1.51"/><path d="M326,409L334,476L430,405Z" fill="#b5b5b5" stroke="#b5b5b5" stroke-width="1.51"/><path d="M1097,918L1109,835L1016,835Z" fill="#474747" stroke="#474747" stroke-width="1.51"/><path d="M1127,767L1204,739L1108,680Z" fill="#555555" stroke="#555555" stroke-width="1.51"/><path d="M1020,134L947,81L952,162Z" fill="#a3a3a3" stroke="#a3a3a3" stroke-width="1.51"/><path d="M947,81L832,54L861,137Z" fill="#aeaeae" stroke="#aeaeae" stroke-width="1.51"/><path d="M949,924L1009,914L1016,835Z" fill="#484848" stroke="#484848" stroke-width="1.51"/><path d="M342,338L326,409L430,405Z" fill="#bbbbbb" stroke="#bbbbbb" stroke-width="1.51"/><path d="M489,152L416,234L519,248Z" fill="#c7c7c7" stroke="#c7c7c7" stroke-width="1.51"/><path d="M600,138L489,152L596,237Z" fill="#c3c3c3" stroke="#c3c3c3" stroke-width="1.51"/><path d="M511,81L489,152L600,138Z" fill="#cacaca" stroke="#cacaca" stroke-width="1.51"/><path d="M832,54L773,41L762,154Z" fill="#b6b6b6" stroke="#b6b6b6" stroke-width="1.51"/><path d="M247,564L323,686L339,560Z" fill="#a4a4a4" stroke="#a4a4a4" stroke-width="1.51"/><path d="M342,338L430,405L399,315Z" fill="#bdbdbd" stroke="#bdbdbd" stroke-width="1.51"/><path d="M773,41L696,45L762,154Z" fill="#bababa" stroke="#bababa" stroke-width="1.51"/><path d="M1197,846L1204,739L1127,767Z" fill="#4a4a4a" stroke="#4a4a4a" stroke-width="1.51"/><path d="M1179,652L1266,587L1192,579Z" fill="#5b5b5b" stroke="#5b5b5b" stroke-width="1.51"/><path d="M1192,579L1266,587L1187,497Z" fill="#606060" stroke="#606060" stroke-width="1.51"/><path d="M339,214L342,338L399,315Z" fill="#c7c7c7" stroke="#c7c7c7" stroke-width="1.51"/><path d="M1122,244L1089,140L1009,213Z" fill="#959595" stroke="#959595" stroke-width="1.51"/><path d="M1020,134L1005,74L947,81Z" fill="#a3a3a3" stroke="#a3a3a3" stroke-width="1.51"/><path d="M1182,163L1089,140L1122,244Z" fill="#919191" stroke="#919191" stroke-width="1.51"/><path d="M1181,225L1122,244L1176,339Z" fill="#878787" stroke="#878787" stroke-width="1.51"/><path d="M1268,666L1266,587L1179,652Z" fill="#555555" stroke="#555555" stroke-width="1.51"/><path d="M1262,393L1176,339L1209,413Z" fill="#747474" stroke="#747474" stroke-width="1.51"/><path d="M1288,335L1181,225L1176,339Z" fill="#7e7e7e" stroke="#7e7e7e" stroke-width="1.51"/><path d="M947,81L858,-9L832,54Z" fill="#b1b1b1" stroke="#b1b1b1" stroke-width="1.51"/><path d="M832,54L858,-9L773,41Z" fill="#b7b7b7" stroke="#b7b7b7" stroke-width="1.51"/><path d="M1089,140L1005,74L1020,134Z" fill="#9e9e9e" stroke="#9e9e9e" stroke-width="1.51"/><path d="M421,758L412,824L490,854Z" fill="#7f7f7f" stroke="#7f7f7f" stroke-width="1.51"/><path d="M490,854L513,945L585,908Z" fill="#6a6a6a" stroke="#6a6a6a" stroke-width="1.51"/><path d="M323,686L421,758L407,681Z" fill="#929292" stroke="#929292" stroke-width="1.51"/><path d="M1291,474L1209,413L1187,497Z" fill="#696969" stroke="#696969" stroke-width="1.51"/><path d="M247,564L339,560L334,476Z" fill="#acacac" stroke="#acacac" stroke-width="1.51"/><path d="M339,560L323,686L407,681Z" fill="#9b9b9b" stroke="#9b9b9b" stroke-width="1.51"/><path d="M489,152L428,165L416,234Z" fill="#cbcbcb" stroke="#cbcbcb" stroke-width="1.51"/><path d="M416,234L339,214L399,315Z" fill="#c8c8c8" stroke="#c8c8c8" stroke-width="1.51"/><path d="M400,53L428,165L489,152Z" fill="#d1d1d1" stroke="#d1d1d1" stroke-width="1.51"/><path d="M696,45L572,57L600,138Z" fill="#c5c5c5" stroke="#c5c5c5" stroke-width="1.51"/><path d="M1266,587L1291,474L1187,497Z" fill="#606060" stroke="#606060" stroke-width="1.51"/><path d="M1266,587L1349,588L1291,474Z" fill="#575757" stroke="#575757" stroke-width="1.51"/><path d="M1204,739L1268,666L1179,652Z" fill="#525252" stroke="#525252" stroke-width="1.51"/><path d="M828,935L845,1015L949,924Z" fill="#494949" stroke="#494949" stroke-width="1.51"/><path d="M949,924L1041,1004L1009,914Z" fill="#414141" stroke="#414141" stroke-width="1.51"/><path d="M742,1025L845,1015L828,935Z" fill="#4a4a4a" stroke="#4a4a4a" stroke-width="1.51"/><path d="M742,1025L759,928L673,918Z" fill="#535353" stroke="#535353" stroke-width="1.51"/><path d="M572,57L511,81L600,138Z" fill="#cacaca" stroke="#cacaca" stroke-width="1.51"/><path d="M1204,739L1262,772L1268,666Z" fill="#4b4b4b" stroke="#4b4b4b" stroke-width="1.51"/><path d="M1109,835L1197,846L1127,767Z" fill="#484848" stroke="#484848" stroke-width="1.51"/><path d="M1009,914L1097,918L1016,835Z" fill="#454545" stroke="#454545" stroke-width="1.51"/><path d="M1041,1004L1097,918L1009,914Z" fill="#3d3d3d" stroke="#3d3d3d" stroke-width="1.51"/><path d="M670,1023L742,1025L673,918Z" fill="#525252" stroke="#525252" stroke-width="1.51"/><path d="M427,914L513,945L490,854Z" fill="#6e6e6e" stroke="#6e6e6e" stroke-width="1.51"/><path d="M670,1023L673,918L585,908Z" fill="#5b5b5b" stroke="#5b5b5b" stroke-width="1.51"/><path d="M753,-35L679,-15L696,45Z" fill="#c3c3c3" stroke="#c3c3c3" stroke-width="1.51"/><path d="M696,45L583,-5L572,57Z" fill="#c8c8c8" stroke="#c8c8c8" stroke-width="1.51"/><path d="M941,-47L858,-9L947,81Z" fill="#b0b0b0" stroke="#b0b0b0" stroke-width="1.51"/><path d="M572,1027L670,1023L585,908Z" fill="#5a5a5a" stroke="#5a5a5a" stroke-width="1.51"/><path d="M1089,140L1123,72L1005,74Z" fill="#9d9d9d" stroke="#9d9d9d" stroke-width="1.51"/><path d="M1005,74L941,-47L947,81Z" fill="#aaaaaa" stroke="#aaaaaa" stroke-width="1.51"/><path d="M1181,225L1182,163L1122,244Z" fill="#8c8c8c" stroke="#8c8c8c" stroke-width="1.51"/><path d="M1266,130L1182,163L1181,225Z" fill="#898989" stroke="#898989" stroke-width="1.51"/><path d="M1288,335L1176,339L1262,393Z" fill="#747474" stroke="#747474" stroke-width="1.51"/><path d="M1097,918L1197,846L1109,835Z" fill="#424242" stroke="#424242" stroke-width="1.51"/><path d="M1358,403L1288,335L1262,393Z" fill="#6a6a6a" stroke="#6a6a6a" stroke-width="1.51"/><path d="M412,824L427,914L490,854Z" fill="#767676" stroke="#767676" stroke-width="1.51"/><path d="M323,686L320,771L421,758Z" fill="#909090" stroke="#909090" stroke-width="1.51"/><path d="M233,741L320,771L323,686Z" fill="#949494" stroke="#949494" stroke-width="1.51"/><path d="M326,409L261,410L334,476Z" fill="#b9b9b9" stroke="#b9b9b9" stroke-width="1.51"/><path d="M342,338L261,410L326,409Z" fill="#bebebe" stroke="#bebebe" stroke-width="1.51"/><path d="M240,310L261,410L342,338Z" fill="#c4c4c4" stroke="#c4c4c4" stroke-width="1.51"/><path d="M753,-35L696,45L773,41Z" fill="#bfbfbf" stroke="#bfbfbf" stroke-width="1.51"/><path d="M572,57L486,-39L511,81Z" fill="#d2d2d2" stroke="#d2d2d2" stroke-width="1.51"/><path d="M428,165L339,214L416,234Z" fill="#cccccc" stroke="#cccccc" stroke-width="1.51"/><path d="M345,128L339,214L428,165Z" fill="#d1d1d1" stroke="#d1d1d1" stroke-width="1.51"/><path d="M513,945L572,1027L585,908Z" fill="#616161" stroke="#616161" stroke-width="1.51"/><path d="M333,846L427,914L412,824Z" fill="#7a7a7a" stroke="#7a7a7a" stroke-width="1.51"/><path d="M845,1015L931,1032L949,924Z" fill="#424242" stroke="#424242" stroke-width="1.51"/><path d="M742,1025L931,1032L845,1015Z" fill="#444444" stroke="#444444" stroke-width="1.51"/><path d="M492,1033L931,1032L742,1025Z" fill="#4c4c4c" stroke="#4c4c4c" stroke-width="1.51"/><path d="M1197,846L1262,772L1204,739Z" fill="#454545" stroke="#454545" stroke-width="1.51"/><path d="M1268,666L1349,588L1266,587Z" fill="#515151" stroke="#515151" stroke-width="1.51"/><path d="M233,497L247,564L334,476Z" fill="#b0b0b0" stroke="#b0b0b0" stroke-width="1.51"/><path d="M858,-9L753,-35L773,41Z" fill="#bcbcbc" stroke="#bcbcbc" stroke-width="1.51"/><path d="M1182,163L1123,72L1089,140Z" fill="#969696" stroke="#969696" stroke-width="1.51"/><path d="M261,410L233,497L334,476Z" fill="#b6b6b6" stroke="#b6b6b6" stroke-width="1.51"/><path d="M931,1032L1041,1004L949,924Z" fill="#3e3e3e" stroke="#3e3e3e" stroke-width="1.51"/><path d="M1186,937L1260,841L1197,846Z" fill="#383838" stroke="#383838" stroke-width="1.51"/><path d="M679,-15L583,-5L696,45Z" fill="#c7c7c7" stroke="#c7c7c7" stroke-width="1.51"/><path d="M400,53L345,128L428,165Z" fill="#d5d5d5" stroke="#d5d5d5" stroke-width="1.51"/><path d="M611,-108L583,-5L679,-15Z" fill="#cdcdcd" stroke="#cdcdcd" stroke-width="1.51"/><path d="M670,1023L572,1027L742,1025Z" fill="#515151" stroke="#515151" stroke-width="1.51"/><path d="M492,1033L572,1027L513,945Z" fill="#5e5e5e" stroke="#5e5e5e" stroke-width="1.51"/><path d="M320,771L333,846L412,824Z" fill="#848484" stroke="#848484" stroke-width="1.51"/><path d="M437,1008L492,1033L513,945Z" fill="#636363" stroke="#636363" stroke-width="1.51"/><path d="M261,826L333,846L320,771Z" fill="#878787" stroke="#878787" stroke-width="1.51"/><path d="M1386,651L1349,588L1268,666Z" fill="#4a4a4a" stroke="#4a4a4a" stroke-width="1.51"/><path d="M1291,474L1358,403L1262,393Z" fill="#656565" stroke="#656565" stroke-width="1.51"/><path d="M1349,588L1360,471L1291,474Z" fill="#585858" stroke="#585858" stroke-width="1.51"/><path d="M1370,745L1386,651L1268,666Z" fill="#444444" stroke="#444444" stroke-width="1.51"/><path d="M1197,846L1260,841L1262,772Z" fill="#3e3e3e" stroke="#3e3e3e" stroke-width="1.51"/><path d="M1186,937L1197,846L1097,918Z" fill="#3a3a3a" stroke="#3a3a3a" stroke-width="1.51"/><path d="M1288,335L1297,240L1181,225Z" fill="#7c7c7c" stroke="#7c7c7c" stroke-width="1.51"/><path d="M1182,163L1208,82L1123,72Z" fill="#939393" stroke="#939393" stroke-width="1.51"/><path d="M1382,317L1297,240L1288,335Z" fill="#717171" stroke="#717171" stroke-width="1.51"/><path d="M1039,-38L941,-47L1005,74Z" fill="#ababab" stroke="#ababab" stroke-width="1.51"/><path d="M858,-9L779,-101L753,-35Z" fill="#bdbdbd" stroke="#bdbdbd" stroke-width="1.51"/><path d="M1360,471L1358,403L1291,474Z" fill="#5e5e5e" stroke="#5e5e5e" stroke-width="1.51"/><path d="M339,214L240,310L342,338Z" fill="#cbcbcb" stroke="#cbcbcb" stroke-width="1.51"/><path d="M261,410L164,421L233,497Z" fill="#bbbbbb" stroke="#bbbbbb" stroke-width="1.51"/><path d="M177,599L231,686L247,564Z" fill="#a6a6a6" stroke="#a6a6a6" stroke-width="1.51"/><path d="M247,564L231,686L323,686Z" fill="#a0a0a0" stroke="#a0a0a0" stroke-width="1.51"/><path d="M1109,1013L1186,937L1097,918Z" fill="#373737" stroke="#373737" stroke-width="1.51"/><path d="M339,214L233,252L240,310Z" fill="#cfcfcf" stroke="#cfcfcf" stroke-width="1.51"/><path d="M400,53L489,152L511,81Z" fill="#d1d1d1" stroke="#d1d1d1" stroke-width="1.51"/><path d="M1041,1004L1109,1013L1097,918Z" fill="#373737" stroke="#373737" stroke-width="1.51"/><path d="M931,1032L1109,1013L1041,1004Z" fill="#373737" stroke="#373737" stroke-width="1.51"/><path d="M437,1008L513,945L427,914Z" fill="#696969" stroke="#696969" stroke-width="1.51"/><path d="M572,1027L492,1033L742,1025Z" fill="#555555" stroke="#555555" stroke-width="1.51"/><path d="M486,-39L400,53L511,81Z" fill="#d6d6d6" stroke="#d6d6d6" stroke-width="1.51"/><path d="M352,937L437,1008L427,914Z" fill="#6c6c6c" stroke="#6c6c6c" stroke-width="1.51"/><path d="M231,686L233,741L323,686Z" fill="#9a9a9a" stroke="#9a9a9a" stroke-width="1.51"/><path d="M1108,-4L1039,-38L1005,74Z" fill="#a5a5a5" stroke="#a5a5a5" stroke-width="1.51"/><path d="M1266,130L1208,82L1182,163Z" fill="#8c8c8c" stroke="#8c8c8c" stroke-width="1.51"/><path d="M1108,-4L1005,74L1123,72Z" fill="#a0a0a0" stroke="#a0a0a0" stroke-width="1.51"/><path d="M1204,-27L1108,-4L1123,72Z" fill="#9c9c9c" stroke="#9c9c9c" stroke-width="1.51"/><path d="M352,937L427,914L333,846Z" fill="#747474" stroke="#747474" stroke-width="1.51"/><path d="M244,927L352,937L333,846Z" fill="#777777" stroke="#777777" stroke-width="1.51"/><path d="M258,128L233,252L339,214Z" fill="#d5d5d5" stroke="#d5d5d5" stroke-width="1.51"/><path d="M143,485L177,599L233,497Z" fill="#b3b3b3" stroke="#b3b3b3" stroke-width="1.51"/><path d="M233,497L177,599L247,564Z" fill="#aeaeae" stroke="#aeaeae" stroke-width="1.51"/><path d="M258,128L339,214L345,128Z" fill="#d6d6d6" stroke="#d6d6d6" stroke-width="1.51"/><path d="M1208,82L1204,-27L1123,72Z" fill="#979797" stroke="#979797" stroke-width="1.51"/><path d="M1297,240L1266,130L1181,225Z" fill="#838383" stroke="#838383" stroke-width="1.51"/><path d="M1351,165L1266,130L1297,240Z" fill="#7e7e7e" stroke="#7e7e7e" stroke-width="1.51"/><path d="M753,-35L673,-120L679,-15Z" fill="#c6c6c6" stroke="#c6c6c6" stroke-width="1.51"/><path d="M583,-5L486,-39L572,57Z" fill="#d2d2d2" stroke="#d2d2d2" stroke-width="1.51"/><path d="M838,-107L779,-101L858,-9Z" fill="#bcbcbc" stroke="#bcbcbc" stroke-width="1.51"/><path d="M838,-107L858,-9L920,-112Z" fill="#b8b8b8" stroke="#b8b8b8" stroke-width="1.51"/><path d="M233,741L261,826L320,771Z" fill="#8f8f8f" stroke="#8f8f8f" stroke-width="1.51"/><path d="M1451,474L1446,423L1360,471Z" fill="#565656" stroke="#565656" stroke-width="1.51"/><path d="M1446,423L1382,317L1358,403Z" fill="#606060" stroke="#606060" stroke-width="1.51"/><path d="M1370,745L1268,666L1262,772Z" fill="#454545" stroke="#454545" stroke-width="1.51"/><path d="M164,421L261,410L240,310Z" fill="#c4c4c4" stroke="#c4c4c4" stroke-width="1.51"/><path d="M231,686L146,747L233,741Z" fill="#9a9a9a" stroke="#9a9a9a" stroke-width="1.51"/><path d="M233,741L158,843L261,826Z" fill="#8d8d8d" stroke="#8d8d8d" stroke-width="1.51"/><path d="M920,-112L858,-9L941,-47Z" fill="#b4b4b4" stroke="#b4b4b4" stroke-width="1.51"/><path d="M1358,403L1382,317L1288,335Z" fill="#696969" stroke="#696969" stroke-width="1.51"/><path d="M1446,423L1358,403L1360,471Z" fill="#5a5a5a" stroke="#5a5a5a" stroke-width="1.51"/><path d="M1366,821L1370,745L1262,772Z" fill="#3b3b3b" stroke="#3b3b3b" stroke-width="1.51"/><path d="M1186,937L1289,930L1260,841Z" fill="#313131" stroke="#313131" stroke-width="1.51"/><path d="M1109,1013L1191,990L1186,937Z" fill="#323232" stroke="#323232" stroke-width="1.51"/><path d="M515,-94L486,-39L583,-5Z" fill="#d6d6d6" stroke="#d6d6d6" stroke-width="1.51"/><path d="M1366,821L1262,772L1260,841Z" fill="#393939" stroke="#393939" stroke-width="1.51"/><path d="M147,328L164,421L240,310Z" fill="#c9c9c9" stroke="#c9c9c9" stroke-width="1.51"/><path d="M1009,-92L941,-47L1039,-38Z" fill="#adadad" stroke="#adadad" stroke-width="1.51"/><path d="M1009,-92L920,-112L941,-47Z" fill="#b2b2b2" stroke="#b2b2b2" stroke-width="1.51"/><path d="M920,-112L673,-120L838,-107Z" fill="#bfbfbf" stroke="#bfbfbf" stroke-width="1.51"/><path d="M838,-107L673,-120L779,-101Z" fill="#c3c3c3" stroke="#c3c3c3" stroke-width="1.51"/><path d="M779,-101L673,-120L753,-35Z" fill="#c5c5c5" stroke="#c5c5c5" stroke-width="1.51"/><path d="M1094,-98L1009,-92L1039,-38Z" fill="#a9a9a9" stroke="#a9a9a9" stroke-width="1.51"/><path d="M1094,-98L1039,-38L1108,-4Z" fill="#a5a5a5" stroke="#a5a5a5" stroke-width="1.51"/><path d="M177,599L163,665L231,686Z" fill="#a3a3a3" stroke="#a3a3a3" stroke-width="1.51"/><path d="M79,559L163,665L177,599Z" fill="#acacac" stroke="#acacac" stroke-width="1.51"/><path d="M673,-120L611,-108L679,-15Z" fill="#cccccc" stroke="#cccccc" stroke-width="1.51"/><path d="M412,-29L346,41L400,53Z" fill="#dcdcdc" stroke="#dcdcdc" stroke-width="1.51"/><path d="M400,53L346,41L345,128Z" fill="#d9d9d9" stroke="#d9d9d9" stroke-width="1.51"/><path d="M164,421L143,485L233,497Z" fill="#bababa" stroke="#bababa" stroke-width="1.51"/><path d="M1266,130L1264,71L1208,82Z" fill="#8b8b8b" stroke="#8b8b8b" stroke-width="1.51"/><path d="M1352,67L1264,71L1266,130Z" fill="#868686" stroke="#868686" stroke-width="1.51"/><path d="M176,236L147,328L240,310Z" fill="#d1d1d1" stroke="#d1d1d1" stroke-width="1.51"/><path d="M76,398L70,476L143,485Z" fill="#c0c0c0" stroke="#c0c0c0" stroke-width="1.51"/><path d="M346,41L258,128L345,128Z" fill="#dadada" stroke="#dadada" stroke-width="1.51"/><path d="M1191,990L1289,930L1186,937Z" fill="#2e2e2e" stroke="#2e2e2e" stroke-width="1.51"/><path d="M352,937L347,996L437,1008Z" fill="#6a6a6a" stroke="#6a6a6a" stroke-width="1.51"/><path d="M437,1008L347,996L492,1033Z" fill="#636363" stroke="#636363" stroke-width="1.51"/><path d="M244,927L347,996L352,937Z" fill="#717171" stroke="#717171" stroke-width="1.51"/><path d="M244,927L333,846L261,826Z" fill="#808080" stroke="#808080" stroke-width="1.51"/><path d="M1370,745L1449,647L1386,651Z" fill="#3f3f3f" stroke="#3f3f3f" stroke-width="1.51"/><path d="M1289,930L1366,821L1260,841Z" fill="#313131" stroke="#313131" stroke-width="1.51"/><path d="M346,41L242,42L258,128Z" fill="#dfdfdf" stroke="#dfdfdf" stroke-width="1.51"/><path d="M486,-39L412,-29L400,53Z" fill="#dbdbdb" stroke="#dbdbdb" stroke-width="1.51"/><path d="M428,-97L412,-29L486,-39Z" fill="#dddddd" stroke="#dddddd" stroke-width="1.51"/><path d="M1380,217L1351,165L1297,240Z" fill="#777777" stroke="#777777" stroke-width="1.51"/><path d="M1382,317L1380,217L1297,240Z" fill="#717171" stroke="#717171" stroke-width="1.51"/><path d="M428,-97L515,-94L611,-108Z" fill="#dadada" stroke="#dadada" stroke-width="1.51"/><path d="M611,-108L515,-94L583,-5Z" fill="#d3d3d3" stroke="#d3d3d3" stroke-width="1.51"/><path d="M1382,317L1448,228L1380,217Z" fill="#6d6d6d" stroke="#6d6d6d" stroke-width="1.51"/><path d="M1451,474L1360,471L1349,588Z" fill="#525252" stroke="#525252" stroke-width="1.51"/><path d="M1451,474L1349,588L1458,601Z" fill="#4b4b4b" stroke="#4b4b4b" stroke-width="1.51"/><path d="M1458,601L1349,588L1386,651Z" fill="#474747" stroke="#474747" stroke-width="1.51"/><path d="M176,236L240,310L233,252Z" fill="#d2d2d2" stroke="#d2d2d2" stroke-width="1.51"/><path d="M164,168L176,236L233,252Z" fill="#d7d7d7" stroke="#d7d7d7" stroke-width="1.51"/><path d="M1467,770L1449,647L1370,745Z" fill="#3a3a3a" stroke="#3a3a3a" stroke-width="1.51"/><path d="M1449,647L1458,601L1386,651Z" fill="#424242" stroke="#424242" stroke-width="1.51"/><path d="M1290,-19L1204,-27L1264,71Z" fill="#909090" stroke="#909090" stroke-width="1.51"/><path d="M1264,71L1204,-27L1208,82Z" fill="#919191" stroke="#919191" stroke-width="1.51"/><path d="M1009,-92L1094,-98L920,-112Z" fill="#aeaeae" stroke="#aeaeae" stroke-width="1.51"/><path d="M1204,-27L1094,-98L1108,-4Z" fill="#a0a0a0" stroke="#a0a0a0" stroke-width="1.51"/><path d="M163,665L146,747L231,686Z" fill="#9e9e9e" stroke="#9e9e9e" stroke-width="1.51"/><path d="M55,681L146,747L163,665Z" fill="#a2a2a2" stroke="#a2a2a2" stroke-width="1.51"/><path d="M158,843L244,927L261,826Z" fill="#828282" stroke="#828282" stroke-width="1.51"/><path d="M1446,423L1459,318L1382,317Z" fill="#616161" stroke="#616161" stroke-width="1.51"/><path d="M1466,147L1352,67L1351,165Z" fill="#787878" stroke="#787878" stroke-width="1.51"/><path d="M1557,397L1459,318L1446,423Z" fill="#595959" stroke="#595959" stroke-width="1.51"/><path d="M1531,493L1446,423L1451,474Z" fill="#505050" stroke="#505050" stroke-width="1.51"/><path d="M428,-97L333,-26L412,-29Z" fill="#e0e0e0" stroke="#e0e0e0" stroke-width="1.51"/><path d="M412,-29L333,-26L346,41Z" fill="#dfdfdf" stroke="#dfdfdf" stroke-width="1.51"/><path d="M258,128L164,168L233,252Z" fill="#d9d9d9" stroke="#d9d9d9" stroke-width="1.51"/><path d="M515,-94L428,-97L486,-39Z" fill="#dcdcdc" stroke="#dcdcdc" stroke-width="1.51"/><path d="M673,-120L428,-97L611,-108Z" fill="#d5d5d5" stroke="#d5d5d5" stroke-width="1.51"/><path d="M143,485L79,559L177,599Z" fill="#b3b3b3" stroke="#b3b3b3" stroke-width="1.51"/><path d="M70,476L79,559L143,485Z" fill="#bababa" stroke="#bababa" stroke-width="1.51"/><path d="M169,40L164,168L258,128Z" fill="#e0e0e0" stroke="#e0e0e0" stroke-width="1.51"/><path d="M78,220L55,321L147,328Z" fill="#d6d6d6" stroke="#d6d6d6" stroke-width="1.51"/><path d="M76,398L143,485L164,421Z" fill="#c1c1c1" stroke="#c1c1c1" stroke-width="1.51"/><path d="M146,747L158,843L233,741Z" fill="#949494" stroke="#949494" stroke-width="1.51"/><path d="M68,768L158,843L146,747Z" fill="#959595" stroke="#959595" stroke-width="1.51"/><path d="M76,398L164,421L147,328Z" fill="#c8c8c8" stroke="#c8c8c8" stroke-width="1.51"/><path d="M1204,-27L1204,-92L1094,-98Z" fill="#9f9f9f" stroke="#9f9f9f" stroke-width="1.51"/><path d="M1351,165L1352,67L1266,130Z" fill="#808080" stroke="#808080" stroke-width="1.51"/><path d="M1466,147L1351,165L1380,217Z" fill="#747474" stroke="#747474" stroke-width="1.51"/><path d="M169,40L242,42L174,-47Z" fill="#e8e8e8" stroke="#e8e8e8" stroke-width="1.51"/><path d="M333,-26L242,42L346,41Z" fill="#e2e2e2" stroke="#e2e2e2" stroke-width="1.51"/><path d="M1459,318L1448,228L1382,317Z" fill="#686868" stroke="#686868" stroke-width="1.51"/><path d="M55,321L76,398L147,328Z" fill="#cfcfcf" stroke="#cfcfcf" stroke-width="1.51"/><path d="M1289,930L1387,942L1366,821Z" fill="#282828" stroke="#282828" stroke-width="1.51"/><path d="M1366,821L1467,770L1370,745Z" fill="#343434" stroke="#343434" stroke-width="1.51"/><path d="M1191,990L1295,1026L1289,930Z" fill="#282828" stroke="#282828" stroke-width="1.51"/><path d="M1109,1013L1295,1026L1191,990Z" fill="#2b2b2b" stroke="#2b2b2b" stroke-width="1.51"/><path d="M931,1032L1295,1026L1109,1013Z" fill="#313131" stroke="#313131" stroke-width="1.51"/><path d="M1458,601L1531,493L1451,474Z" fill="#4a4a4a" stroke="#4a4a4a" stroke-width="1.51"/><path d="M1541,589L1531,493L1458,601Z" fill="#434343" stroke="#434343" stroke-width="1.51"/><path d="M1458,826L1467,770L1366,821Z" fill="#2e2e2e" stroke="#2e2e2e" stroke-width="1.51"/><path d="M1352,67L1290,-19L1264,71Z" fill="#888888" stroke="#888888" stroke-width="1.51"/><path d="M1094,-98L1262,-111L920,-112Z" fill="#a7a7a7" stroke="#a7a7a7" stroke-width="1.51"/><path d="M1262,-111L1204,-92L1204,-27Z" fill="#989898" stroke="#989898" stroke-width="1.51"/><path d="M1379,993L1387,942L1289,930Z" fill="#212121" stroke="#212121" stroke-width="1.51"/><path d="M1464,904L1458,826L1366,821Z" fill="#282828" stroke="#282828" stroke-width="1.51"/><path d="M1458,601L1449,647L1542,657Z" fill="#3e3e3e" stroke="#3e3e3e" stroke-width="1.51"/><path d="M1541,589L1458,601L1542,657Z" fill="#3d3d3d" stroke="#3d3d3d" stroke-width="1.51"/><path d="M1522,154L1466,147L1448,228Z" fill="#6d6d6d" stroke="#6d6d6d" stroke-width="1.51"/><path d="M165,935L226,1001L244,927Z" fill="#767676" stroke="#767676" stroke-width="1.51"/><path d="M244,927L226,1001L347,996Z" fill="#717171" stroke="#717171" stroke-width="1.51"/><path d="M347,996L226,1001L492,1033Z" fill="#686868" stroke="#686868" stroke-width="1.51"/><path d="M79,559L55,681L163,665Z" fill="#aaaaaa" stroke="#aaaaaa" stroke-width="1.51"/><path d="M158,843L165,935L244,927Z" fill="#7e7e7e" stroke="#7e7e7e" stroke-width="1.51"/><path d="M-6,656L55,681L79,559Z" fill="#adadad" stroke="#adadad" stroke-width="1.51"/><path d="M82,915L165,935L158,843Z" fill="#818181" stroke="#818181" stroke-width="1.51"/><path d="M70,476L-12,505L79,559Z" fill="#bbbbbb" stroke="#bbbbbb" stroke-width="1.51"/><path d="M-17,388L-12,505L70,476Z" fill="#c3c3c3" stroke="#c3c3c3" stroke-width="1.51"/><path d="M78,220L147,328L176,236Z" fill="#d6d6d6" stroke="#d6d6d6" stroke-width="1.51"/><path d="M78,220L176,236L164,168Z" fill="#dbdbdb" stroke="#dbdbdb" stroke-width="1.51"/><path d="M1542,657L1449,647L1530,742Z" fill="#373737" stroke="#373737" stroke-width="1.51"/><path d="M1387,942L1464,904L1366,821Z" fill="#242424" stroke="#242424" stroke-width="1.51"/><path d="M1295,1026L1379,993L1289,930Z" fill="#212121" stroke="#212121" stroke-width="1.51"/><path d="M55,681L68,768L146,747Z" fill="#9f9f9f" stroke="#9f9f9f" stroke-width="1.51"/><path d="M65,136L78,220L164,168Z" fill="#e0e0e0" stroke="#e0e0e0" stroke-width="1.51"/><path d="M1530,742L1449,647L1467,770Z" fill="#353535" stroke="#353535" stroke-width="1.51"/><path d="M1530,742L1467,770L1533,843Z" fill="#2c2c2c" stroke="#2c2c2c" stroke-width="1.51"/><path d="M1542,229L1448,228L1459,318Z" fill="#656565" stroke="#656565" stroke-width="1.51"/><path d="M1448,228L1466,147L1380,217Z" fill="#6f6f6f" stroke="#6f6f6f" stroke-width="1.51"/><path d="M1355,-40L1262,-111L1290,-19Z" fill="#8d8d8d" stroke="#8d8d8d" stroke-width="1.51"/><path d="M242,42L169,40L258,128Z" fill="#e2e2e2" stroke="#e2e2e2" stroke-width="1.51"/><path d="M244,-47L242,42L333,-26Z" fill="#e6e6e6" stroke="#e6e6e6" stroke-width="1.51"/><path d="M1533,843L1467,770L1458,826Z" fill="#292929" stroke="#292929" stroke-width="1.51"/><path d="M1542,657L1557,397L1541,589Z" fill="#424242" stroke="#424242" stroke-width="1.51"/><path d="M1541,589L1557,397L1531,493Z" fill="#484848" stroke="#484848" stroke-width="1.51"/><path d="M1531,493L1557,397L1446,423Z" fill="#505050" stroke="#505050" stroke-width="1.51"/><path d="M310,-108L244,-47L333,-26Z" fill="#e7e7e7" stroke="#e7e7e7" stroke-width="1.51"/><path d="M428,-97L310,-108L333,-26Z" fill="#e3e3e3" stroke="#e3e3e3" stroke-width="1.51"/><path d="M673,-120L310,-108L428,-97Z" fill="#dddddd" stroke="#dddddd" stroke-width="1.51"/><path d="M1290,-19L1262,-111L1204,-27Z" fill="#939393" stroke="#939393" stroke-width="1.51"/><path d="M1204,-92L1262,-111L1094,-98Z" fill="#9d9d9d" stroke="#9d9d9d" stroke-width="1.51"/><path d="M920,-112L1453,-129L673,-120Z" fill="#afafaf" stroke="#afafaf" stroke-width="1.51"/><path d="M1355,-40L1290,-19L1352,67Z" fill="#878787" stroke="#878787" stroke-width="1.51"/><path d="M1434,1010L1464,904L1387,942Z" fill="#1c1c1c" stroke="#1c1c1c" stroke-width="1.51"/><path d="M79,990L171,1001L165,935Z" fill="#777777" stroke="#777777" stroke-width="1.51"/><path d="M165,935L171,1001L226,1001Z" fill="#747474" stroke="#747474" stroke-width="1.51"/><path d="M226,1001L171,1001L492,1033Z" fill="#6b6b6b" stroke="#6b6b6b" stroke-width="1.51"/><path d="M1452,46L1355,-40L1352,67Z" fill="#7f7f7f" stroke="#7f7f7f" stroke-width="1.51"/><path d="M1557,397L1558,320L1459,318Z" fill="#5a5a5a" stroke="#5a5a5a" stroke-width="1.51"/><path d="M-17,388L70,476L76,398Z" fill="#c7c7c7" stroke="#c7c7c7" stroke-width="1.51"/><path d="M4,752L57,844L68,768Z" fill="#989898" stroke="#989898" stroke-width="1.51"/><path d="M-17,388L76,398L55,321Z" fill="#cecece" stroke="#cecece" stroke-width="1.51"/><path d="M68,768L57,844L158,843Z" fill="#919191" stroke="#919191" stroke-width="1.51"/><path d="M4,752L68,768L55,681Z" fill="#a0a0a0" stroke="#a0a0a0" stroke-width="1.51"/><path d="M1558,320L1542,229L1459,318Z" fill="#606060" stroke="#606060" stroke-width="1.51"/><path d="M1466,147L1452,46L1352,67Z" fill="#787878" stroke="#787878" stroke-width="1.51"/><path d="M-28,590L-6,656L79,559Z" fill="#b1b1b1" stroke="#b1b1b1" stroke-width="1.51"/><path d="M1541,70L1452,46L1466,147Z" fill="#737373" stroke="#737373" stroke-width="1.51"/><path d="M310,-108L256,-103L244,-47Z" fill="#e9e9e9" stroke="#e9e9e9" stroke-width="1.51"/><path d="M244,-47L174,-47L242,42Z" fill="#e8e8e8" stroke="#e8e8e8" stroke-width="1.51"/><path d="M57,844L82,915L158,843Z" fill="#888888" stroke="#888888" stroke-width="1.51"/><path d="M-12,505L-28,590L79,559Z" fill="#b7b7b7" stroke="#b7b7b7" stroke-width="1.51"/><path d="M-36,338L-17,388L55,321Z" fill="#d2d2d2" stroke="#d2d2d2" stroke-width="1.51"/><path d="M-36,338L55,321L-22,216Z" fill="#d9d9d9" stroke="#d9d9d9" stroke-width="1.51"/><path d="M169,40L65,136L164,168Z" fill="#e3e3e3" stroke="#e3e3e3" stroke-width="1.51"/><path d="M73,46L65,136L169,40Z" fill="#e8e8e8" stroke="#e8e8e8" stroke-width="1.51"/><path d="M1542,657L1561,992L1557,397Z" fill="#343434" stroke="#343434" stroke-width="1.51"/><path d="M1530,742L1533,843L1542,657Z" fill="#2f2f2f" stroke="#2f2f2f" stroke-width="1.51"/><path d="M1464,904L1533,843L1458,826Z" fill="#232323" stroke="#232323" stroke-width="1.51"/><path d="M1527,905L1533,843L1464,904Z" fill="#1e1e1e" stroke="#1e1e1e" stroke-width="1.51"/><path d="M1379,993L1434,1010L1387,942Z" fill="#1b1b1b" stroke="#1b1b1b" stroke-width="1.51"/><path d="M1295,1026L1434,1010L1379,993Z" fill="#1a1a1a" stroke="#1a1a1a" stroke-width="1.51"/><path d="M1542,229L1522,154L1448,228Z" fill="#696969" stroke="#696969" stroke-width="1.51"/><path d="M-95,560L-28,590L-12,505Z" fill="#b9b9b9" stroke="#b9b9b9" stroke-width="1.51"/><path d="M-24,906L79,990L82,915Z" fill="#7f7f7f" stroke="#7f7f7f" stroke-width="1.51"/><path d="M-6,656L4,752L55,681Z" fill="#a6a6a6" stroke="#a6a6a6" stroke-width="1.51"/><path d="M-99,766L4,752L-6,656Z" fill="#a4a4a4" stroke="#a4a4a4" stroke-width="1.51"/><path d="M256,-103L174,-47L244,-47Z" fill="#ebebeb" stroke="#ebebeb" stroke-width="1.51"/><path d="M1561,992L1527,905L1464,904Z" fill="#181818" stroke="#181818" stroke-width="1.51"/><path d="M-113,409L-95,508L-12,505Z" fill="#c4c4c4" stroke="#c4c4c4" stroke-width="1.51"/><path d="M-22,216L55,321L78,220Z" fill="#dcdcdc" stroke="#dcdcdc" stroke-width="1.51"/><path d="M1452,46L1439,-35L1355,-40Z" fill="#7f7f7f" stroke="#7f7f7f" stroke-width="1.51"/><path d="M1355,-40L1387,-106L1262,-111Z" fill="#8b8b8b" stroke="#8b8b8b" stroke-width="1.51"/><path d="M1559,-21L1439,-35L1452,46Z" fill="#797979" stroke="#797979" stroke-width="1.51"/><path d="M65,136L-22,216L78,220Z" fill="#e1e1e1" stroke="#e1e1e1" stroke-width="1.51"/><path d="M73,-14L73,46L169,40Z" fill="#ececec" stroke="#ececec" stroke-width="1.51"/><path d="M-5,857L82,915L57,844Z" fill="#898989" stroke="#898989" stroke-width="1.51"/><path d="M82,915L79,990L165,935Z" fill="#7c7c7c" stroke="#7c7c7c" stroke-width="1.51"/><path d="M1439,-35L1387,-106L1355,-40Z" fill="#838383" stroke="#838383" stroke-width="1.51"/><path d="M-20,128L-22,216L65,136Z" fill="#e5e5e5" stroke="#e5e5e5" stroke-width="1.51"/><path d="M4,752L-5,857L57,844Z" fill="#949494" stroke="#949494" stroke-width="1.51"/><path d="M-24,906L-5,857L-92,817Z" fill="#8e8e8e" stroke="#8e8e8e" stroke-width="1.51"/><path d="M1439,-35L1453,-129L1387,-106Z" fill="#828282" stroke="#828282" stroke-width="1.51"/><path d="M1522,154L1541,70L1466,147Z" fill="#6e6e6e" stroke="#6e6e6e" stroke-width="1.51"/><path d="M1542,229L1541,70L1522,154Z" fill="#6a6a6a" stroke="#6a6a6a" stroke-width="1.51"/><path d="M1559,-21L1541,70L1542,229Z" fill="#6d6d6d" stroke="#6d6d6d" stroke-width="1.51"/><path d="M-113,409L-12,505L-17,388Z" fill="#c8c8c8" stroke="#c8c8c8" stroke-width="1.51"/><path d="M-28,590L-123,676L-6,656Z" fill="#afafaf" stroke="#afafaf" stroke-width="1.51"/><path d="M-113,409L-17,388L-36,338Z" fill="#d0d0d0" stroke="#d0d0d0" stroke-width="1.51"/><path d="M-95,508L-95,560L-12,505Z" fill="#bebebe" stroke="#bebebe" stroke-width="1.51"/><path d="M51,-98L73,-14L174,-47Z" fill="#f1f1f1" stroke="#f1f1f1" stroke-width="1.51"/><path d="M174,-47L73,-14L169,40Z" fill="#ececec" stroke="#ececec" stroke-width="1.51"/><path d="M73,46L-20,128L65,136Z" fill="#e9e9e9" stroke="#e9e9e9" stroke-width="1.51"/><path d="M256,-103L156,-120L174,-47Z" fill="#eeeeee" stroke="#eeeeee" stroke-width="1.51"/><path d="M310,-108L156,-120L256,-103Z" fill="#ececec" stroke="#ececec" stroke-width="1.51"/><path d="M673,-120L156,-120L310,-108Z" fill="#e4e4e4" stroke="#e4e4e4" stroke-width="1.51"/><path d="M-31,61L-20,128L73,46Z" fill="#ebebeb" stroke="#ebebeb" stroke-width="1.51"/><path d="M-117,301L-113,409L-36,338Z" fill="#d5d5d5" stroke="#d5d5d5" stroke-width="1.51"/><path d="M-5,857L-24,906L82,915Z" fill="#878787" stroke="#878787" stroke-width="1.51"/><path d="M-92,817L-5,857L4,752Z" fill="#979797" stroke="#979797" stroke-width="1.51"/><path d="M-95,508L-123,676L-95,560Z" fill="#b8b8b8" stroke="#b8b8b8" stroke-width="1.51"/><path d="M-117,301L-36,338L-22,216Z" fill="#dcdcdc" stroke="#dcdcdc" stroke-width="1.51"/><path d="M1434,1010L1561,992L1464,904Z" fill="#171717" stroke="#171717" stroke-width="1.51"/><path d="M1527,905L1561,992L1533,843Z" fill="#181818" stroke="#181818" stroke-width="1.51"/><path d="M1533,843L1561,992L1542,657Z" fill="#232323" stroke="#232323" stroke-width="1.51"/><path d="M1557,397L1561,992L1558,320Z" fill="#3f3f3f" stroke="#3f3f3f" stroke-width="1.51"/><path d="M-123,676L-99,766L-6,656Z" fill="#a8a8a8" stroke="#a8a8a8" stroke-width="1.51"/><path d="M-123,676L-28,590L-95,560Z" fill="#b4b4b4" stroke="#b4b4b4" stroke-width="1.51"/><path d="M1524,-101L1453,-129L1439,-35Z" fill="#7e7e7e" stroke="#7e7e7e" stroke-width="1.51"/><path d="M1387,-106L1453,-129L1262,-111Z" fill="#888888" stroke="#888888" stroke-width="1.51"/><path d="M1262,-111L1453,-129L920,-112Z" fill="#9b9b9b" stroke="#9b9b9b" stroke-width="1.51"/><path d="M673,-120L-2,-122L156,-120Z" fill="#ebebeb" stroke="#ebebeb" stroke-width="1.51"/><path d="M-113,409L-123,676L-95,508Z" fill="#bebebe" stroke="#bebebe" stroke-width="1.51"/><path d="M-113,409L-122,249L-123,676Z" fill="#c9c9c9" stroke="#c9c9c9" stroke-width="1.51"/><path d="M-122,249L-117,301L-22,216Z" fill="#e0e0e0" stroke="#e0e0e0" stroke-width="1.51"/><path d="M-97,909L-92,817L-99,766Z" fill="#959595" stroke="#959595" stroke-width="1.51"/><path d="M-99,766L-92,817L4,752Z" fill="#9d9d9d" stroke="#9d9d9d" stroke-width="1.51"/><path d="M-111,149L-122,249L-22,216Z" fill="#e4e4e4" stroke="#e4e4e4" stroke-width="1.51"/><path d="M-1,-21L-31,61L73,46Z" fill="#efefef" stroke="#efefef" stroke-width="1.51"/><path d="M-1,-21L73,46L73,-14Z" fill="#f0f0f0" stroke="#f0f0f0" stroke-width="1.51"/><path d="M1541,70L1559,-21L1452,46Z" fill="#747474" stroke="#747474" stroke-width="1.51"/><path d="M1558,320L1559,-21L1542,229Z" fill="#676767" stroke="#676767" stroke-width="1.51"/><path d="M1561,992L1559,-21L1558,320Z" fill="#4d4d4d" stroke="#4d4d4d" stroke-width="1.51"/><path d="M-117,301L-122,249L-113,409Z" fill="#dadada" stroke="#dadada" stroke-width="1.51"/><path d="M-111,149L-22,216L-20,128Z" fill="#e7e7e7" stroke="#e7e7e7" stroke-width="1.51"/><path d="M-112,73L-111,149L-20,128Z" fill="#ececec" stroke="#ececec" stroke-width="1.51"/><path d="M51,-98L-1,-21L73,-14Z" fill="#f3f3f3" stroke="#f3f3f3" stroke-width="1.51"/><path d="M156,-120L51,-98L174,-47Z" fill="#f1f1f1" stroke="#f1f1f1" stroke-width="1.51"/><path d="M1559,-21L1524,-101L1439,-35Z" fill="#797979" stroke="#797979" stroke-width="1.51"/><path d="M-97,909L-31,1014L-24,906Z" fill="#828282" stroke="#828282" stroke-width="1.51"/><path d="M-24,906L-31,1014L79,990Z" fill="#7d7d7d" stroke="#7d7d7d" stroke-width="1.51"/><path d="M79,990L-31,1014L171,1001Z" fill="#777777" stroke="#777777" stroke-width="1.51"/><path d="M171,1001L-108,1030L492,1033Z" fill="#6f6f6f" stroke="#6f6f6f" stroke-width="1.51"/><path d="M-112,73L-20,128L-31,61Z" fill="#ededed" stroke="#ededed" stroke-width="1.51"/><path d="M-92,817L-97,909L-24,906Z" fill="#8c8c8c" stroke="#8c8c8c" stroke-width="1.51"/><path d="M-123,676L-97,909L-99,766Z" fill="#9d9d9d" stroke="#9d9d9d" stroke-width="1.51"/><path d="M-119,-30L-112,73L-31,61Z" fill="#f2f2f2" stroke="#f2f2f2" stroke-width="1.51"/><path d="M-111,149L-112,73L-122,249Z" fill="#eaeaea" stroke="#eaeaea" stroke-width="1.51"/><path d="M-119,-30L-31,61L-1,-21Z" fill="#f3f3f3" stroke="#f3f3f3" stroke-width="1.51"/><path d="M51,-98L-2,-122L-1,-21Z" fill="#f6f6f6" stroke="#f6f6f6" stroke-width="1.51"/><path d="M156,-120L-2,-122L51,-98Z" fill="#f5f5f5" stroke="#f5f5f5" stroke-width="1.51"/><path d="M1453,-129L-2,-122L673,-120Z" fill="#c9c9c9" stroke="#c9c9c9" stroke-width="1.51"/><path d="M-97,909L-108,1030L-31,1014Z" fill="#7d7d7d" stroke="#7d7d7d" stroke-width="1.51"/><path d="M-31,1014L-108,1030L171,1001Z" fill="#777777" stroke="#777777" stroke-width="1.51"/><path d="M-123,676L-108,1030L-97,909Z" fill="#8e8e8e" stroke="#8e8e8e" stroke-width="1.51"/><path d="M-81,-100L-119,-30L-1,-21Z" fill="#f7f7f7" stroke="#f7f7f7" stroke-width="1.51"/><path d="M-112,73L-119,-30L-122,249Z" fill="#efefef" stroke="#efefef" stroke-width="1.51"/><path d="M-2,-122L-81,-100L-1,-21Z" fill="#f7f7f7" stroke="#f7f7f7" stroke-width="1.51"/></svg>