<svg xmlns="http://www.w3.org/2000/svg" width="1440" height="900"><path d="M751,474L768,559L829,481Z" fill="#63a1cb" stroke="#63a1cb" stroke-width="1.51"/><path d="M768,559L853,595L829,481Z" fill="#579bc7" stroke="#579bc7" stroke-width="1.51"/><path d="M751,474L667,514L768,559Z" fill="#67a3cb" stroke="#67a3cb" stroke-width="1.51"/><path d="M829,481L755,394L751,474Z" fill="#6da5cd" stroke="#6da5cd" stroke-width="1.51"/><path d="M751,474L686,388L667,514Z" fill="#75a9cf" stroke="#75a9cf" stroke-width="1.51"/><path d="M768,559L776,644L853,595Z" fill="#4d98c5" stroke="#4d98c5" stroke-width="1.51"/><path d="M670,598L776,644L768,559Z" fill="#569bc7" stroke="#569bc7" stroke-width="1.51"/><path d="M829,481L871,403L755,394Z" fill="#6ca5cc" stroke="#6ca5cc" stroke-width="1.51"/><path d="M932,481L871,403L829,481Z" fill="#5f9fc9" stroke="#5f9fc9" stroke-width="1.51"/><path d="M667,514L670,598L768,559Z" fill="#64a1ca" stroke="#64a1ca" stroke-width="1.51"/><path d="M853,595L932,481L829,481Z" fill="#549ac6" stroke="#549ac6" stroke-width="1.51"/><path d="M755,394L686,388L751,474Z" fill="#78aad0" stroke="#78aad0" stroke-width="1.51"/><path d="M680,332L686,388L755,394Z" fill="#83aed3" stroke="#83aed3" stroke-width="1.51"/><path d="M776,644L854,662L853,595Z" fill="#4692c3" stroke="#4692c3" stroke-width="1.51"/><path d="M853,595L953,578L932,481Z" fill="#4795c4" stroke="#4795c4" stroke-width="1.51"/><path d="M933,684L953,578L853,595Z" fill="#398fc0" stroke="#398fc0" stroke-width="1.51"/><path d="M670,598L675,651L776,644Z" fill="#589ac6" stroke="#589ac6" stroke-width="1.51"/><path d="M776,644L851,750L854,662Z" fill="#428dc0" stroke="#428dc0" stroke-width="1.51"/><path d="M932,481L952,422L871,403Z" fill="#5e9ec8" stroke="#5e9ec8" stroke-width="1.51"/><path d="M1025,477L952,422L932,481Z" fill="#5599c6" stroke="#5599c6" stroke-width="1.51"/><path d="M850,304L766,315L755,394Z" fill="#80acd1" stroke="#80acd1" stroke-width="1.51"/><path d="M850,304L755,394L871,403Z" fill="#76a8cf" stroke="#76a8cf" stroke-width="1.51"/><path d="M670,598L597,590L675,651Z" fill="#629ec9" stroke="#629ec9" stroke-width="1.51"/><path d="M667,514L597,590L670,598Z" fill="#69a3cb" stroke="#69a3cb" stroke-width="1.51"/><path d="M574,482L597,590L667,514Z" fill="#74a7ce" stroke="#74a7ce" stroke-width="1.51"/><path d="M569,421L574,482L667,514Z" fill="#7facd1" stroke="#7facd1" stroke-width="1.51"/><path d="M766,315L680,332L755,394Z" fill="#85afd3" stroke="#85afd3" stroke-width="1.51"/><path d="M569,421L667,514L686,388Z" fill="#7fadd2" stroke="#7fadd2" stroke-width="1.51"/><path d="M944,337L850,304L871,403Z" fill="#72a5cd" stroke="#72a5cd" stroke-width="1.51"/><path d="M854,662L933,684L853,595Z" fill="#3c8ec0" stroke="#3c8ec0" stroke-width="1.51"/><path d="M851,750L933,684L854,662Z" fill="#3788bd" stroke="#3788bd" stroke-width="1.51"/><path d="M953,578L1025,477L932,481Z" fill="#4a95c3" stroke="#4a95c3" stroke-width="1.51"/><path d="M933,684L1006,582L953,578Z" fill="#338cbe" stroke="#338cbe" stroke-width="1.51"/><path d="M952,422L944,337L871,403Z" fill="#67a1ca" stroke="#67a1ca" stroke-width="1.51"/><path d="M1042,399L944,337L952,422Z" fill="#639dc9" stroke="#639dc9" stroke-width="1.51"/><path d="M610,314L569,421L686,388Z" fill="#8db2d4" stroke="#8db2d4" stroke-width="1.51"/><path d="M1006,582L1025,477L953,578Z" fill="#4090c1" stroke="#4090c1" stroke-width="1.51"/><path d="M675,651L743,751L776,644Z" fill="#5093c3" stroke="#5093c3" stroke-width="1.51"/><path d="M664,771L743,751L675,651Z" fill="#5290c2" stroke="#5290c2" stroke-width="1.51"/><path d="M743,751L851,750L776,644Z" fill="#458cbf" stroke="#458cbf" stroke-width="1.51"/><path d="M597,590L572,660L675,651Z" fill="#659ec9" stroke="#659ec9" stroke-width="1.51"/><path d="M515,587L572,660L597,590Z" fill="#6da3cc" stroke="#6da3cc" stroke-width="1.51"/><path d="M515,587L597,590L574,482Z" fill="#76a8cf" stroke="#76a8cf" stroke-width="1.51"/><path d="M680,332L610,314L686,388Z" fill="#8eb3d4" stroke="#8eb3d4" stroke-width="1.51"/><path d="M693,225L610,314L680,332Z" fill="#95b6d7" stroke="#95b6d7" stroke-width="1.51"/><path d="M693,225L680,332L766,315Z" fill="#90b4d5" stroke="#90b4d5" stroke-width="1.51"/><path d="M850,304L837,249L766,315Z" fill="#85aed2" stroke="#85aed2" stroke-width="1.51"/><path d="M927,213L837,249L850,304Z" fill="#84add1" stroke="#84add1" stroke-width="1.51"/><path d="M837,249L776,243L766,315Z" fill="#8ab0d4" stroke="#8ab0d4" stroke-width="1.51"/><path d="M1025,477L1042,399L952,422Z" fill="#5898c6" stroke="#5898c6" stroke-width="1.51"/><path d="M944,337L927,213L850,304Z" fill="#7ba9cf" stroke="#7ba9cf" stroke-width="1.51"/><path d="M1088,475L1042,399L1025,477Z" fill="#5294c3" stroke="#5294c3" stroke-width="1.51"/><path d="M500,484L515,587L574,482Z" fill="#80acd1" stroke="#80acd1" stroke-width="1.51"/><path d="M582,751L664,771L675,651Z" fill="#5a92c3" stroke="#5a92c3" stroke-width="1.51"/><path d="M743,751L742,823L851,750Z" fill="#4387bb" stroke="#4387bb" stroke-width="1.51"/><path d="M569,421L500,484L574,482Z" fill="#87b0d3" stroke="#87b0d3" stroke-width="1.51"/><path d="M490,414L500,484L569,421Z" fill="#8eb3d5" stroke="#8eb3d5" stroke-width="1.51"/><path d="M933,684L1037,662L1006,582Z" fill="#2e87bc" stroke="#2e87bc" stroke-width="1.51"/><path d="M1006,582L1088,475L1025,477Z" fill="#468fc1" stroke="#468fc1" stroke-width="1.51"/><path d="M1035,735L1037,662L933,684Z" fill="#2681b9" stroke="#2681b9" stroke-width="1.51"/><path d="M851,750L940,765L933,684Z" fill="#2d83ba" stroke="#2d83ba" stroke-width="1.51"/><path d="M916,824L940,765L851,750Z" fill="#2c80b6" stroke="#2c80b6" stroke-width="1.51"/><path d="M762,154L693,225L776,243Z" fill="#99b7d8" stroke="#99b7d8" stroke-width="1.51"/><path d="M776,243L693,225L766,315Z" fill="#91b4d5" stroke="#91b4d5" stroke-width="1.51"/><path d="M1127,579L1088,475L1006,582Z" fill="#3c8abe" stroke="#3c8abe" stroke-width="1.51"/><path d="M511,333L490,414L569,421Z" fill="#96b6d7" stroke="#96b6d7" stroke-width="1.51"/><path d="M511,333L569,421L610,314Z" fill="#97b6d7" stroke="#97b6d7" stroke-width="1.51"/><path d="M664,771L742,823L743,751Z" fill="#4c8abc" stroke="#4c8abc" stroke-width="1.51"/><path d="M664,771L688,860L742,823Z" fill="#4d88b8" stroke="#4d88b8" stroke-width="1.51"/><path d="M572,660L582,751L675,651Z" fill="#6198c6" stroke="#6198c6" stroke-width="1.51"/><path d="M522,756L582,751L572,660Z" fill="#6596c6" stroke="#6596c6" stroke-width="1.51"/><path d="M742,823L847,831L851,750Z" fill="#3d83b7" stroke="#3d83b7" stroke-width="1.51"/><path d="M1042,399L1043,307L944,337Z" fill="#699ec9" stroke="#699ec9" stroke-width="1.51"/><path d="M1124,327L1043,307L1042,399Z" fill="#6699c7" stroke="#6699c7" stroke-width="1.51"/><path d="M519,248L511,333L610,314Z" fill="#a2bbda" stroke="#a2bbda" stroke-width="1.51"/><path d="M1009,213L927,213L944,337Z" fill="#7ba7ce" stroke="#7ba7ce" stroke-width="1.51"/><path d="M837,249L762,154L776,243Z" fill="#92b4d6" stroke="#92b4d6" stroke-width="1.51"/><path d="M693,225L596,237L610,314Z" fill="#9db9d9" stroke="#9db9d9" stroke-width="1.51"/><path d="M1037,662L1127,579L1006,582Z" fill="#2c86bb" stroke="#2c86bb" stroke-width="1.51"/><path d="M940,765L1035,735L933,684Z" fill="#2480b9" stroke="#2480b9" stroke-width="1.51"/><path d="M1016,835L1035,735L940,765Z" fill="#1e79b2" stroke="#1e79b2" stroke-width="1.51"/><path d="M847,831L916,824L851,750Z" fill="#3280b4" stroke="#3280b4" stroke-width="1.51"/><path d="M515,587L495,684L572,660Z" fill="#70a1cb" stroke="#70a1cb" stroke-width="1.51"/><path d="M438,565L495,684L515,587Z" fill="#77a6ce" stroke="#77a6ce" stroke-width="1.51"/><path d="M438,565L515,587L500,484Z" fill="#81acd1" stroke="#81acd1" stroke-width="1.51"/><path d="M1088,475L1110,402L1042,399Z" fill="#5693c3" stroke="#5693c3" stroke-width="1.51"/><path d="M1187,497L1110,402L1088,475Z" fill="#4c8dc0" stroke="#4c8dc0" stroke-width="1.51"/><path d="M1108,680L1127,579L1037,662Z" fill="#2580b9" stroke="#2580b9" stroke-width="1.51"/><path d="M397,507L438,565L500,484Z" fill="#89b0d3" stroke="#89b0d3" stroke-width="1.51"/><path d="M430,405L500,484L490,414Z" fill="#94b5d6" stroke="#94b5d6" stroke-width="1.51"/><path d="M693,225L668,159L596,237Z" fill="#a3bcdb" stroke="#a3bcdb" stroke-width="1.51"/><path d="M861,137L762,154L837,249Z" fill="#95b5d6" stroke="#95b5d6" stroke-width="1.51"/><path d="M585,823L688,860L664,771Z" fill="#558aba" stroke="#558aba" stroke-width="1.51"/><path d="M495,684L522,756L572,660Z" fill="#6b9ac8" stroke="#6b9ac8" stroke-width="1.51"/><path d="M421,758L522,756L495,684Z" fill="#6f99c7" stroke="#6f99c7" stroke-width="1.51"/><path d="M742,823L759,928L847,831Z" fill="#4080b1" stroke="#4080b1" stroke-width="1.51"/><path d="M949,924L1016,835L916,824Z" fill="#2076aa" stroke="#2076aa" stroke-width="1.51"/><path d="M585,823L664,771L582,751Z" fill="#5b8fbf" stroke="#5b8fbf" stroke-width="1.51"/><path d="M1035,735L1108,680L1037,662Z" fill="#217db6" stroke="#217db6" stroke-width="1.51"/><path d="M762,154L668,159L693,225Z" fill="#a1bbda" stroke="#a1bbda" stroke-width="1.51"/><path d="M1043,307L1009,213L944,337Z" fill="#74a3cc" stroke="#74a3cc" stroke-width="1.51"/><path d="M927,213L861,137L837,249Z" fill="#8cb0d3" stroke="#8cb0d3" stroke-width="1.51"/><path d="M1122,244L1009,213L1043,307Z" fill="#76a0cb" stroke="#76a0cb" stroke-width="1.51"/><path d="M522,756L585,823L582,751Z" fill="#6291c1" stroke="#6291c1" stroke-width="1.51"/><path d="M511,333L430,405L490,414Z" fill="#9bb8d8" stroke="#9bb8d8" stroke-width="1.51"/><path d="M399,315L430,405L511,333Z" fill="#a4bcdb" stroke="#a4bcdb" stroke-width="1.51"/><path d="M519,248L610,314L596,237Z" fill="#a3bbda" stroke="#a3bbda" stroke-width="1.51"/><path d="M489,152L519,248L596,237Z" fill="#afc1dd" stroke="#afc1dd" stroke-width="1.51"/><path d="M952,162L861,137L927,213Z" fill="#8cb0d3" stroke="#8cb0d3" stroke-width="1.51"/><path d="M696,45L600,138L668,159Z" fill="#aec2de" stroke="#aec2de" stroke-width="1.51"/><path d="M1176,339L1124,327L1110,402Z" fill="#6093c4" stroke="#6093c4" stroke-width="1.51"/><path d="M1110,402L1124,327L1042,399Z" fill="#5f95c5" stroke="#5f95c5" stroke-width="1.51"/><path d="M1009,213L952,162L927,213Z" fill="#84abd0" stroke="#84abd0" stroke-width="1.51"/><path d="M430,405L397,507L500,484Z" fill="#92b4d6" stroke="#92b4d6" stroke-width="1.51"/><path d="M438,565L407,681L495,684Z" fill="#79a4cd" stroke="#79a4cd" stroke-width="1.51"/><path d="M1035,735L1127,767L1108,680Z" fill="#1777b4" stroke="#1777b4" stroke-width="1.51"/><path d="M916,824L1016,835L940,765Z" fill="#227ab0" stroke="#227ab0" stroke-width="1.51"/><path d="M949,924L916,824L847,831Z" fill="#2a79ac" stroke="#2a79ac" stroke-width="1.51"/><path d="M1127,579L1187,497L1088,475Z" fill="#3e88bd" stroke="#3e88bd" stroke-width="1.51"/><path d="M1192,579L1187,497L1127,579Z" fill="#3483b9" stroke="#3483b9" stroke-width="1.51"/><path d="M1179,652L1192,579L1127,579Z" fill="#247fb7" stroke="#247fb7" stroke-width="1.51"/><path d="M1179,652L1127,579L1108,680Z" fill="#217db7" stroke="#217db7" stroke-width="1.51"/><path d="M339,560L407,681L438,565Z" fill="#82abd1" stroke="#82abd1" stroke-width="1.51"/><path d="M522,756L490,854L585,823Z" fill="#648fbd" stroke="#648fbd" stroke-width="1.51"/><path d="M1204,739L1179,652L1108,680Z" fill="#1676b2" stroke="#1676b2" stroke-width="1.51"/><path d="M696,45L668,159L762,154Z" fill="#a8bfdc" stroke="#a8bfdc" stroke-width="1.51"/><path d="M668,159L600,138L596,237Z" fill="#abbfdc" stroke="#abbfdc" stroke-width="1.51"/><path d="M688,860L759,928L742,823Z" fill="#4782b1" stroke="#4782b1" stroke-width="1.51"/><path d="M673,918L759,928L688,860Z" fill="#4981ae" stroke="#4981ae" stroke-width="1.51"/><path d="M585,908L688,860L585,823Z" fill="#5788b5" stroke="#5788b5" stroke-width="1.51"/><path d="M585,908L673,918L688,860Z" fill="#5184b1" stroke="#5184b1" stroke-width="1.51"/><path d="M1209,413L1176,339L1110,402Z" fill="#5a90c1" stroke="#5a90c1" stroke-width="1.51"/><path d="M1124,327L1122,244L1043,307Z" fill="#6e9ac8" stroke="#6e9ac8" stroke-width="1.51"/><path d="M1009,213L1020,134L952,162Z" fill="#87aad0" stroke="#87aad0" stroke-width="1.51"/><path d="M1109,835L1127,767L1035,735Z" fill="#1272af" stroke="#1272af" stroke-width="1.51"/><path d="M759,928L828,935L847,831Z" fill="#3a7cab" stroke="#3a7cab" stroke-width="1.51"/><path d="M1176,339L1122,244L1124,327Z" fill="#6a96c6" stroke="#6a96c6" stroke-width="1.51"/><path d="M1262,393L1209,413L1291,474Z" fill="#4f88b8" stroke="#4f88b8" stroke-width="1.51"/><path d="M1187,497L1209,413L1110,402Z" fill="#4f8cbf" stroke="#4f8cbf" stroke-width="1.51"/><path d="M416,234L511,333L519,248Z" fill="#acc0dd" stroke="#acc0dd" stroke-width="1.51"/><path d="M416,234L399,315L511,333Z" fill="#adc0dc" stroke="#adc0dc" stroke-width="1.51"/><path d="M430,405L334,476L397,507Z" fill="#98b7d8" stroke="#98b7d8" stroke-width="1.51"/><path d="M407,681L421,758L495,684Z" fill="#749dca" stroke="#749dca" stroke-width="1.51"/><path d="M952,162L947,81L861,137Z" fill="#91b3d5" stroke="#91b3d5" stroke-width="1.51"/><path d="M861,137L832,54L762,154Z" fill="#9dbad9" stroke="#9dbad9" stroke-width="1.51"/><path d="M1089,140L1020,134L1009,213Z" fill="#85a7cf" stroke="#85a7cf" stroke-width="1.51"/><path d="M828,935L949,924L847,831Z" fill="#2f78a9" stroke="#2f78a9" stroke-width="1.51"/><path d="M1016,835L1109,835L1035,735Z" fill="#1773ad" stroke="#1773ad" stroke-width="1.51"/><path d="M490,854L585,908L585,823Z" fill="#5f8bb7" stroke="#5f8bb7" stroke-width="1.51"/><path d="M742,1025L828,935L759,928Z" fill="#3c76a1" stroke="#3c76a1" stroke-width="1.51"/><path d="M397,507L339,560L438,565Z" fill="#8bb0d4" stroke="#8bb0d4" stroke-width="1.51"/><path d="M320,771L412,824L421,758Z" fill="#7698c4" stroke="#7698c4" stroke-width="1.51"/><path d="M334,476L339,560L397,507Z" fill="#93b4d6" stroke="#93b4d6" stroke-width="1.51"/><path d="M421,758L490,854L522,756Z" fill="#6b94c1" stroke="#6b94c1" stroke-width="1.51"/><path d="M326,409L334,476L430,405Z" fill="#a0bbda" stroke="#a0bbda" stroke-width="1.51"/><path d="M1097,918L1109,835L1016,835Z" fill="#136da6" stroke="#136da6" stroke-width="1.51"/><path d="M1127,767L1204,739L1108,680Z" fill="#0e73b1" stroke="#0e73b1" stroke-width="1.51"/><path d="M1020,134L947,81L952,162Z" fill="#8daed3" stroke="#8daed3" stroke-width="1.51"/><path d="M947,81L832,54L861,137Z" fill="#99b7d8" stroke="#99b7d8" stroke-width="1.51"/><path d="M949,924L1009,914L1016,835Z" fill="#1d72a6" stroke="#1d72a6" stroke-width="1.51"/><path d="M342,338L326,409L430,405Z" fill="#a7bedb" stroke="#a7bedb" stroke-width="1.51"/><path d="M489,152L416,234L519,248Z" fill="#b6c4df" stroke="#b6c4df" stroke-width="1.51"/><path d="M600,138L489,152L596,237Z" fill="#b1c2de" stroke="#b1c2de" stroke-width="1.51"/><path d="M511,81L489,152L600,138Z" fill="#bac7e1" stroke="#bac7e1" stroke-width="1.51"/><path d="M832,54L773,41L762,154Z" fill="#a3bddb" stroke="#a3bddb" stroke-width="1.51"/><path d="M247,564L323,686L339,560Z" fill="#8bb0d3" stroke="#8bb0d3" stroke-width="1.51"/><path d="M342,338L430,405L399,315Z" fill="#a9bedc" stroke="#a9bedc" stroke-width="1.51"/><path d="M773,41L696,45L762,154Z" fill="#a8c0dc" stroke="#a8c0dc" stroke-width="1.51"/><path d="M1197,846L1204,739L1127,767Z" fill="#056caa" stroke="#056caa" stroke-width="1.51"/><path d="M1179,652L1266,587L1192,579Z" fill="#237cb2" stroke="#237cb2" stroke-width="1.51"/><path d="M1192,579L1266,587L1187,497Z" fill="#3380b5" stroke="#3380b5" stroke-width="1.51"/><path d="M339,214L342,338L399,315Z" fill="#b6c4df" stroke="#b6c4df" stroke-width="1.51"/><path d="M1122,244L1089,140L1009,213Z" fill="#7ea2cc" stroke="#7ea2cc" stroke-width="1.51"/><path d="M1020,134L1005,74L947,81Z" fill="#8fafd3" stroke="#8fafd3" stroke-width="1.51"/><path d="M1182,163L1089,140L1122,244Z" fill="#7e9ecb" stroke="#7e9ecb" stroke-width="1.51"/><path d="M1181,225L1122,244L1176,339Z" fill="#6f97c6" stroke="#6f97c6" stroke-width="1.51"/><path d="M1268,666L1266,587L1179,652Z" fill="#1f78af" stroke="#1f78af" stroke-width="1.51"/><path d="M1262,393L1176,339L1209,413Z" fill="#598cbd" stroke="#598cbd" stroke-width="1.51"/><path d="M1288,335L1181,225L1176,339Z" fill="#6892c0" stroke="#6892c0" stroke-width="1.51"/><path d="M947,81L858,-9L832,54Z" fill="#9ebbd9" stroke="#9ebbd9" stroke-width="1.51"/><path d="M832,54L858,-9L773,41Z" fill="#a5bfdc" stroke="#a5bfdc" stroke-width="1.51"/><path d="M1089,140L1005,74L1020,134Z" fill="#8baad1" stroke="#8baad1" stroke-width="1.51"/><path d="M421,758L412,824L490,854Z" fill="#6e93c0" stroke="#6e93c0" stroke-width="1.51"/><path d="M490,854L513,945L585,908Z" fill="#6089b3" stroke="#6089b3" stroke-width="1.51"/><path d="M323,686L421,758L407,681Z" fill="#7b9fcb" stroke="#7b9fcb" stroke-width="1.51"/><path d="M1291,474L1209,413L1187,497Z" fill="#4887b8" stroke="#4887b8" stroke-width="1.51"/><path d="M247,564L339,560L334,476Z" fill="#95b5d6" stroke="#95b5d6" stroke-width="1.51"/><path d="M339,560L323,686L407,681Z" fill="#83a8d0" stroke="#83a8d0" stroke-width="1.51"/><path d="M489,152L428,165L416,234Z" fill="#bcc7e1" stroke="#bcc7e1" stroke-width="1.51"/><path d="M416,234L339,214L399,315Z" fill="#b8c5df" stroke="#b8c5df" stroke-width="1.51"/><path d="M400,53L428,165L489,152Z" fill="#c4cce3" stroke="#c4cce3" stroke-width="1.51"/><path d="M696,45L572,57L600,138Z" fill="#b5c6e0" stroke="#b5c6e0" stroke-width="1.51"/><path d="M1266,587L1291,474L1187,497Z" fill="#3b81b4" stroke="#3b81b4" stroke-width="1.51"/><path d="M1266,587L1349,588L1291,474Z" fill="#327cae" stroke="#327cae" stroke-width="1.51"/><path d="M1204,739L1268,666L1179,652Z" fill="#1673ae" stroke="#1673ae" stroke-width="1.51"/><path d="M828,935L845,1015L949,924Z" fill="#2c719e" stroke="#2c719e" stroke-width="1.51"/><path d="M949,924L1041,1004L1009,914Z" fill="#1a6a9b" stroke="#1a6a9b" stroke-width="1.51"/><path d="M742,1025L845,1015L828,935Z" fill="#37719a" stroke="#37719a" stroke-width="1.51"/><path d="M742,1025L759,928L673,918Z" fill="#4479a4" stroke="#4479a4" stroke-width="1.51"/><path d="M572,57L511,81L600,138Z" fill="#bac8e1" stroke="#bac8e1" stroke-width="1.51"/><path d="M1204,739L1262,772L1268,666Z" fill="#0d6eaa" stroke="#0d6eaa" stroke-width="1.51"/><path d="M1109,835L1197,846L1127,767Z" fill="#076ca9" stroke="#076ca9" stroke-width="1.51"/><path d="M1009,914L1097,918L1016,835Z" fill="#176ea4" stroke="#176ea4" stroke-width="1.51"/><path d="M1041,1004L1097,918L1009,914Z" fill="#14679b" stroke="#14679b" stroke-width="1.51"/><path d="M670,1023L742,1025L673,918Z" fill="#46779e" stroke="#46779e" stroke-width="1.51"/><path d="M427,914L513,945L490,854Z" fill="#678bb4" stroke="#678bb4" stroke-width="1.51"/><path d="M670,1023L673,918L585,908Z" fill="#4f7ea7" stroke="#4f7ea7" stroke-width="1.51"/><path d="M753,-35L679,-15L696,45Z" fill="#b4c8e1" stroke="#b4c8e1" stroke-width="1.51"/><path d="M696,45L583,-5L572,57Z" fill="#bacae2" stroke="#bacae2" stroke-width="1.51"/><path d="M941,-47L858,-9L947,81Z" fill="#9dbbd9" stroke="#9dbbd9" stroke-width="1.51"/><path d="M572,1027L670,1023L585,908Z" fill="#527ba1" stroke="#527ba1" stroke-width="1.51"/><path d="M1089,140L1123,72L1005,74Z" fill="#8ba9d0" stroke="#8ba9d0" stroke-width="1.51"/><path d="M1005,74L941,-47L947,81Z" fill="#97b6d7" stroke="#97b6d7" stroke-width="1.51"/><path d="M1181,225L1182,163L1122,244Z" fill="#789bc8" stroke="#789bc8" stroke-width="1.51"/><path d="M1266,130L1182,163L1181,225Z" fill="#7c9ac5" stroke="#7c9ac5" stroke-width="1.51"/><path d="M1288,335L1176,339L1262,393Z" fill="#5d8dbb" stroke="#5d8dbb" stroke-width="1.51"/><path d="M1097,918L1197,846L1109,835Z" fill="#0869a3" stroke="#0869a3" stroke-width="1.51"/><path d="M1358,403L1288,335L1262,393Z" fill="#5789b6" stroke="#5789b6" stroke-width="1.51"/><path d="M412,824L427,914L490,854Z" fill="#6c90ba" stroke="#6c90ba" stroke-width="1.51"/><path d="M323,686L320,771L421,758Z" fill="#7c9eca" stroke="#7c9eca" stroke-width="1.51"/><path d="M233,741L320,771L323,686Z" fill="#83a1cc" stroke="#83a1cc" stroke-width="1.51"/><path d="M326,409L261,410L334,476Z" fill="#a5bddb" stroke="#a5bddb" stroke-width="1.51"/><path d="M342,338L261,410L326,409Z" fill="#acc0dd" stroke="#acc0dd" stroke-width="1.51"/><path d="M240,310L261,410L342,338Z" fill="#b4c4df" stroke="#b4c4df" stroke-width="1.51"/><path d="M753,-35L696,45L773,41Z" fill="#aec5df" stroke="#aec5df" stroke-width="1.51"/><path d="M572,57L486,-39L511,81Z" fill="#c4cee5" stroke="#c4cee5" stroke-width="1.51"/><path d="M428,165L339,214L416,234Z" fill="#bec8e2" stroke="#bec8e2" stroke-width="1.51"/><path d="M345,128L339,214L428,165Z" fill="#c5cbe3" stroke="#c5cbe3" stroke-width="1.51"/><path d="M513,945L572,1027L585,908Z" fill="#5980a7" stroke="#5980a7" stroke-width="1.51"/><path d="M333,846L427,914L412,824Z" fill="#7292bc" stroke="#7292bc" stroke-width="1.51"/><path d="M845,1015L931,1032L949,924Z" fill="#256b97" stroke="#256b97" stroke-width="1.51"/><path d="M742,1025L931,1032L845,1015Z" fill="#2f6b93" stroke="#2f6b93" stroke-width="1.51"/><path d="M492,1033L931,1032L742,1025Z" fill="#407196" stroke="#407196" stroke-width="1.51"/><path d="M1197,846L1262,772L1204,739Z" fill="#056aa6" stroke="#056aa6" stroke-width="1.51"/><path d="M1268,666L1349,588L1266,587Z" fill="#2077ac" stroke="#2077ac" stroke-width="1.51"/><path d="M233,497L247,564L334,476Z" fill="#9cb9d8" stroke="#9cb9d8" stroke-width="1.51"/><path d="M858,-9L753,-35L773,41Z" fill="#aac3de" stroke="#aac3de" stroke-width="1.51"/><path d="M1182,163L1123,72L1089,140Z" fill="#85a2cd" stroke="#85a2cd" stroke-width="1.51"/><path d="M261,410L233,497L334,476Z" fill="#a3bcdb" stroke="#a3bcdb" stroke-width="1.51"/><path d="M931,1032L1041,1004L949,924Z" fill="#1b6895" stroke="#1b6895" stroke-width="1.51"/><path d="M1186,937L1260,841L1197,846Z" fill="#04649d" stroke="#04649d" stroke-width="1.51"/><path d="M679,-15L583,-5L696,45Z" fill="#b8cae2" stroke="#b8cae2" stroke-width="1.51"/><path d="M400,53L345,128L428,165Z" fill="#c9cee5" stroke="#c9cee5" stroke-width="1.51"/><path d="M611,-108L583,-5L679,-15Z" fill="#bfcee4" stroke="#bfcee4" stroke-width="1.51"/><path d="M670,1023L572,1027L742,1025Z" fill="#487398" stroke="#487398" stroke-width="1.51"/><path d="M492,1033L572,1027L513,945Z" fill="#5a7da0" stroke="#5a7da0" stroke-width="1.51"/><path d="M320,771L333,846L412,824Z" fill="#7897c2" stroke="#7897c2" stroke-width="1.51"/><path d="M437,1008L492,1033L513,945Z" fill="#607fa2" stroke="#607fa2" stroke-width="1.51"/><path d="M261,826L333,846L320,771Z" fill="#7d99c3" stroke="#7d99c3" stroke-width="1.51"/><path d="M1386,651L1349,588L1268,666Z" fill="#1d73a7" stroke="#1d73a7" stroke-width="1.51"/><path d="M1291,474L1358,403L1262,393Z" fill="#4e85b4" stroke="#4e85b4" stroke-width="1.51"/><path d="M1349,588L1360,471L1291,474Z" fill="#3b7dae" stroke="#3b7dae" stroke-width="1.51"/><path d="M1370,745L1386,651L1268,666Z" fill="#146da4" stroke="#146da4" stroke-width="1.51"/><path d="M1197,846L1260,841L1262,772Z" fill="#0566a1" stroke="#0566a1" stroke-width="1.51"/><path d="M1186,937L1197,846L1097,918Z" fill="#05649e" stroke="#05649e" stroke-width="1.51"/><path d="M1288,335L1297,240L1181,225Z" fill="#6c91be" stroke="#6c91be" stroke-width="1.51"/><path d="M1182,163L1208,82L1123,72Z" fill="#86a1cb" stroke="#86a1cb" stroke-width="1.51"/><path d="M1382,317L1297,240L1288,335Z" fill="#658cb7" stroke="#658cb7" stroke-width="1.51"/><path d="M1039,-38L941,-47L1005,74Z" fill="#99b6d7" stroke="#99b6d7" stroke-width="1.51"/><path d="M858,-9L779,-101L753,-35Z" fill="#adc5e0" stroke="#adc5e0" stroke-width="1.51"/><path d="M1360,471L1358,403L1291,474Z" fill="#4882b0" stroke="#4882b0" stroke-width="1.51"/><path d="M339,214L240,310L342,338Z" fill="#bbc7e1" stroke="#bbc7e1" stroke-width="1.51"/><path d="M261,410L164,421L233,497Z" fill="#aac1dd" stroke="#aac1dd" stroke-width="1.51"/><path d="M177,599L231,686L247,564Z" fill="#91b2d4" stroke="#91b2d4" stroke-width="1.51"/><path d="M247,564L231,686L323,686Z" fill="#8bacd1" stroke="#8bacd1" stroke-width="1.51"/><path d="M1109,1013L1186,937L1097,918Z" fill="#086096" stroke="#086096" stroke-width="1.51"/><path d="M339,214L233,252L240,310Z" fill="#c2cae3" stroke="#c2cae3" stroke-width="1.51"/><path d="M400,53L489,152L511,81Z" fill="#c4cce4" stroke="#c4cce4" stroke-width="1.51"/><path d="M1041,1004L1109,1013L1097,918Z" fill="#0f6193" stroke="#0f6193" stroke-width="1.51"/><path d="M931,1032L1109,1013L1041,1004Z" fill="#15608e" stroke="#15608e" stroke-width="1.51"/><path d="M437,1008L513,945L427,914Z" fill="#6585aa" stroke="#6585aa" stroke-width="1.51"/><path d="M572,1027L492,1033L742,1025Z" fill="#4f769a" stroke="#4f769a" stroke-width="1.51"/><path d="M486,-39L400,53L511,81Z" fill="#cad1e6" stroke="#cad1e6" stroke-width="1.51"/><path d="M352,937L437,1008L427,914Z" fill="#6b88ac" stroke="#6b88ac" stroke-width="1.51"/><path d="M231,686L233,741L323,686Z" fill="#87a6ce" stroke="#87a6ce" stroke-width="1.51"/><path d="M1108,-4L1039,-38L1005,74Z" fill="#94b1d5" stroke="#94b1d5" stroke-width="1.51"/><path d="M1266,130L1208,82L1182,163Z" fill="#829dc6" stroke="#829dc6" stroke-width="1.51"/><path d="M1108,-4L1005,74L1123,72Z" fill="#90acd2" stroke="#90acd2" stroke-width="1.51"/><path d="M1204,-27L1108,-4L1123,72Z" fill="#90a8d1" stroke="#90a8d1" stroke-width="1.51"/><path d="M352,937L427,914L333,846Z" fill="#7290b7" stroke="#7290b7" stroke-width="1.51"/><path d="M244,927L352,937L333,846Z" fill="#7992b8" stroke="#7992b8" stroke-width="1.51"/><path d="M258,128L233,252L339,214Z" fill="#cacee4" stroke="#cacee4" stroke-width="1.51"/><path d="M143,485L177,599L233,497Z" fill="#9fbcda" stroke="#9fbcda" stroke-width="1.51"/><path d="M233,497L177,599L247,564Z" fill="#99b8d8" stroke="#99b8d8" stroke-width="1.51"/><path d="M258,128L339,214L345,128Z" fill="#cdcfe5" stroke="#cdcfe5" stroke-width="1.51"/><path d="M1208,82L1204,-27L1123,72Z" fill="#8ba4cd" stroke="#8ba4cd" stroke-width="1.51"/><path d="M1297,240L1266,130L1181,225Z" fill="#7796c1" stroke="#7796c1" stroke-width="1.51"/><path d="M1351,165L1266,130L1297,240Z" fill="#7894bd" stroke="#7894bd" stroke-width="1.51"/><path d="M753,-35L673,-120L679,-15Z" fill="#b8cce3" stroke="#b8cce3" stroke-width="1.51"/><path d="M583,-5L486,-39L572,57Z" fill="#c5cfe5" stroke="#c5cfe5" stroke-width="1.51"/><path d="M838,-107L779,-101L858,-9Z" fill="#acc5df" stroke="#acc5df" stroke-width="1.51"/><path d="M838,-107L858,-9L920,-112Z" fill="#a7c2dd" stroke="#a7c2dd" stroke-width="1.51"/><path d="M233,741L261,826L320,771Z" fill="#829ec8" stroke="#829ec8" stroke-width="1.51"/><path d="M1451,474L1446,423L1360,471Z" fill="#447ca6" stroke="#447ca6" stroke-width="1.51"/><path d="M1446,423L1382,317L1358,403Z" fill="#5482ac" stroke="#5482ac" stroke-width="1.51"/><path d="M1370,745L1268,666L1262,772Z" fill="#0c6ba5" stroke="#0c6ba5" stroke-width="1.51"/><path d="M164,421L261,410L240,310Z" fill="#b3c5e0" stroke="#b3c5e0" stroke-width="1.51"/><path d="M231,686L146,747L233,741Z" fill="#8aa6cf" stroke="#8aa6cf" stroke-width="1.51"/><path d="M233,741L158,843L261,826Z" fill="#849ec7" stroke="#849ec7" stroke-width="1.51"/><path d="M920,-112L858,-9L941,-47Z" fill="#a2bfdc" stroke="#a2bfdc" stroke-width="1.51"/><path d="M1358,403L1382,317L1288,335Z" fill="#5b88b4" stroke="#5b88b4" stroke-width="1.51"/><path d="M1446,423L1358,403L1360,471Z" fill="#4a80ab" stroke="#4a80ab" stroke-width="1.51"/><path d="M1366,821L1370,745L1262,772Z" fill="#04659e" stroke="#04659e" stroke-width="1.51"/><path d="M1186,937L1289,930L1260,841Z" fill="#046097" stroke="#046097" stroke-width="1.51"/><path d="M1109,1013L1191,990L1186,937Z" fill="#045b8f" stroke="#045b8f" stroke-width="1.51"/><path d="M515,-94L486,-39L583,-5Z" fill="#c9d3e8" stroke="#c9d3e8" stroke-width="1.51"/><path d="M1366,821L1262,772L1260,841Z" fill="#04649d" stroke="#04649d" stroke-width="1.51"/><path d="M147,328L164,421L240,310Z" fill="#bac9e2" stroke="#bac9e2" stroke-width="1.51"/><path d="M1009,-92L941,-47L1039,-38Z" fill="#9cb9d9" stroke="#9cb9d9" stroke-width="1.51"/><path d="M1009,-92L920,-112L941,-47Z" fill="#a0bdda" stroke="#a0bdda" stroke-width="1.51"/><path d="M920,-112L673,-120L838,-107Z" fill="#b0c8e1" stroke="#b0c8e1" stroke-width="1.51"/><path d="M838,-107L673,-120L779,-101Z" fill="#b4cae2" stroke="#b4cae2" stroke-width="1.51"/><path d="M779,-101L673,-120L753,-35Z" fill="#b6cbe3" stroke="#b6cbe3" stroke-width="1.51"/><path d="M1094,-98L1009,-92L1039,-38Z" fill="#9bb5d7" stroke="#9bb5d7" stroke-width="1.51"/><path d="M1094,-98L1039,-38L1108,-4Z" fill="#97b1d5" stroke="#97b1d5" stroke-width="1.51"/><path d="M177,599L163,665L231,686Z" fill="#90b0d3" stroke="#90b0d3" stroke-width="1.51"/><path d="M79,559L163,665L177,599Z" fill="#97b7d7" stroke="#97b7d7" stroke-width="1.51"/><path d="M673,-120L611,-108L679,-15Z" fill="#becfe5" stroke="#becfe5" stroke-width="1.51"/><path d="M412,-29L346,41L400,53Z" fill="#d2d5e8" stroke="#d2d5e8" stroke-width="1.51"/><path d="M400,53L346,41L345,128Z" fill="#d0d3e7" stroke="#d0d3e7" stroke-width="1.51"/><path d="M164,421L143,485L233,497Z" fill="#a9c1dd" stroke="#a9c1dd" stroke-width="1.51"/><path d="M1266,130L1264,71L1208,82Z" fill="#849dc5" stroke="#849dc5" stroke-width="1.51"/><path d="M1352,67L1264,71L1266,130Z" fill="#839bc2" stroke="#839bc2" stroke-width="1.51"/><path d="M176,236L147,328L240,310Z" fill="#c3cce4" stroke="#c3cce4" stroke-width="1.51"/><path d="M76,398L70,476L143,485Z" fill="#b0c6e0" stroke="#b0c6e0" stroke-width="1.51"/><path d="M346,41L258,128L345,128Z" fill="#d2d3e8" stroke="#d2d3e8" stroke-width="1.51"/><path d="M1191,990L1289,930L1186,937Z" fill="#045c90" stroke="#045c90" stroke-width="1.51"/><path d="M352,937L347,996L437,1008Z" fill="#6c85a8" stroke="#6c85a8" stroke-width="1.51"/><path d="M437,1008L347,996L492,1033Z" fill="#657fa1" stroke="#657fa1" stroke-width="1.51"/><path d="M244,927L347,996L352,937Z" fill="#748caf" stroke="#748caf" stroke-width="1.51"/><path d="M244,927L333,846L261,826Z" fill="#7d96bd" stroke="#7d96bd" stroke-width="1.51"/><path d="M1370,745L1449,647L1386,651Z" fill="#156a9e" stroke="#156a9e" stroke-width="1.51"/><path d="M1289,930L1366,821L1260,841Z" fill="#046096" stroke="#046096" stroke-width="1.51"/><path d="M346,41L242,42L258,128Z" fill="#d7d7e9" stroke="#d7d7e9" stroke-width="1.51"/><path d="M486,-39L412,-29L400,53Z" fill="#d0d5e9" stroke="#d0d5e9" stroke-width="1.51"/><path d="M428,-97L412,-29L486,-39Z" fill="#d2d7e9" stroke="#d2d7e9" stroke-width="1.51"/><path d="M1380,217L1351,165L1297,240Z" fill="#7391b9" stroke="#7391b9" stroke-width="1.51"/><path d="M1382,317L1380,217L1297,240Z" fill="#6b8db6" stroke="#6b8db6" stroke-width="1.51"/><path d="M428,-97L515,-94L611,-108Z" fill="#ced6e9" stroke="#ced6e9" stroke-width="1.51"/><path d="M611,-108L515,-94L583,-5Z" fill="#c7d2e6" stroke="#c7d2e6" stroke-width="1.51"/><path d="M1382,317L1448,228L1380,217Z" fill="#6989b0" stroke="#6989b0" stroke-width="1.51"/><path d="M1451,474L1360,471L1349,588Z" fill="#397aa8" stroke="#397aa8" stroke-width="1.51"/><path d="M1451,474L1349,588L1458,601Z" fill="#2e74a2" stroke="#2e74a2" stroke-width="1.51"/><path d="M1458,601L1349,588L1386,651Z" fill="#1f70a2" stroke="#1f70a2" stroke-width="1.51"/><path d="M176,236L240,310L233,252Z" fill="#c4cce4" stroke="#c4cce4" stroke-width="1.51"/><path d="M164,168L176,236L233,252Z" fill="#cdd1e6" stroke="#cdd1e6" stroke-width="1.51"/><path d="M1467,770L1449,647L1370,745Z" fill="#0c6398" stroke="#0c6398" stroke-width="1.51"/><path d="M1449,647L1458,601L1386,651Z" fill="#1b6c9c" stroke="#1b6c9c" stroke-width="1.51"/><path d="M1290,-19L1204,-27L1264,71Z" fill="#8ca3c8" stroke="#8ca3c8" stroke-width="1.51"/><path d="M1264,71L1204,-27L1208,82Z" fill="#8aa2c9" stroke="#8aa2c9" stroke-width="1.51"/><path d="M1009,-92L1094,-98L920,-112Z" fill="#9eb9da" stroke="#9eb9da" stroke-width="1.51"/><path d="M1204,-27L1094,-98L1108,-4Z" fill="#94acd3" stroke="#94acd3" stroke-width="1.51"/><path d="M163,665L146,747L231,686Z" fill="#8daad1" stroke="#8daad1" stroke-width="1.51"/><path d="M55,681L146,747L163,665Z" fill="#92add3" stroke="#92add3" stroke-width="1.51"/><path d="M158,843L244,927L261,826Z" fill="#8199c0" stroke="#8199c0" stroke-width="1.51"/><path d="M1446,423L1459,318L1382,317Z" fill="#5881aa" stroke="#5881aa" stroke-width="1.51"/><path d="M1466,147L1352,67L1351,165Z" fill="#7b92b7" stroke="#7b92b7" stroke-width="1.51"/><path d="M1557,397L1459,318L1446,423Z" fill="#507aa1" stroke="#507aa1" stroke-width="1.51"/><path d="M1531,493L1446,423L1451,474Z" fill="#40769f" stroke="#40769f" stroke-width="1.51"/><path d="M428,-97L333,-26L412,-29Z" fill="#d7d9eb" stroke="#d7d9eb" stroke-width="1.51"/><path d="M412,-29L333,-26L346,41Z" fill="#d7d8ea" stroke="#d7d8ea" stroke-width="1.51"/><path d="M258,128L164,168L233,252Z" fill="#d0d2e6" stroke="#d0d2e6" stroke-width="1.51"/><path d="M515,-94L428,-97L486,-39Z" fill="#d1d7e9" stroke="#d1d7e9" stroke-width="1.51"/><path d="M673,-120L428,-97L611,-108Z" fill="#c9d4e8" stroke="#c9d4e8" stroke-width="1.51"/><path d="M143,485L79,559L177,599Z" fill="#a0bcda" stroke="#a0bcda" stroke-width="1.51"/><path d="M70,476L79,559L143,485Z" fill="#a8c2dd" stroke="#a8c2dd" stroke-width="1.51"/><path d="M169,40L164,168L258,128Z" fill="#dad8ea" stroke="#dad8ea" stroke-width="1.51"/><path d="M78,220L55,321L147,328Z" fill="#c9d1e7" stroke="#c9d1e7" stroke-width="1.51"/><path d="M76,398L143,485L164,421Z" fill="#b1c6e0" stroke="#b1c6e0" stroke-width="1.51"/><path d="M146,747L158,843L233,741Z" fill="#88a2cb" stroke="#88a2cb" stroke-width="1.51"/><path d="M68,768L158,843L146,747Z" fill="#8ba4cb" stroke="#8ba4cb" stroke-width="1.51"/><path d="M76,398L164,421L147,328Z" fill="#b9c9e2" stroke="#b9c9e2" stroke-width="1.51"/><path d="M1204,-27L1204,-92L1094,-98Z" fill="#95abd2" stroke="#95abd2" stroke-width="1.51"/><path d="M1351,165L1352,67L1266,130Z" fill="#7f98be" stroke="#7f98be" stroke-width="1.51"/><path d="M1466,147L1351,165L1380,217Z" fill="#758fb4" stroke="#758fb4" stroke-width="1.51"/><path d="M169,40L242,42L174,-47Z" fill="#e2dfee" stroke="#e2dfee" stroke-width="1.51"/><path d="M333,-26L242,42L346,41Z" fill="#dad9eb" stroke="#dad9eb" stroke-width="1.51"/><path d="M1459,318L1448,228L1382,317Z" fill="#6285ab" stroke="#6285ab" stroke-width="1.51"/><path d="M55,321L76,398L147,328Z" fill="#c0cde4" stroke="#c0cde4" stroke-width="1.51"/><path d="M1289,930L1387,942L1366,821Z" fill="#045b8f" stroke="#045b8f" stroke-width="1.51"/><path d="M1366,821L1467,770L1370,745Z" fill="#056097" stroke="#056097" stroke-width="1.51"/><path d="M1191,990L1295,1026L1289,930Z" fill="#045688" stroke="#045688" stroke-width="1.51"/><path d="M1109,1013L1295,1026L1191,990Z" fill="#045687" stroke="#045687" stroke-width="1.51"/><path d="M931,1032L1295,1026L1109,1013Z" fill="#0a5a8a" stroke="#0a5a8a" stroke-width="1.51"/><path d="M1458,601L1531,493L1451,474Z" fill="#34719b" stroke="#34719b" stroke-width="1.51"/><path d="M1541,589L1531,493L1458,601Z" fill="#2a6c96" stroke="#2a6c96" stroke-width="1.51"/><path d="M1458,826L1467,770L1366,821Z" fill="#045c90" stroke="#045c90" stroke-width="1.51"/><path d="M1352,67L1290,-19L1264,71Z" fill="#879ec3" stroke="#879ec3" stroke-width="1.51"/><path d="M1094,-98L1262,-111L920,-112Z" fill="#9ab3d6" stroke="#9ab3d6" stroke-width="1.51"/><path d="M1262,-111L1204,-92L1204,-27Z" fill="#93a9cd" stroke="#93a9cd" stroke-width="1.51"/><path d="M1379,993L1387,942L1289,930Z" fill="#035585" stroke="#035585" stroke-width="1.51"/><path d="M1464,904L1458,826L1366,821Z" fill="#03598b" stroke="#03598b" stroke-width="1.51"/><path d="M1458,601L1449,647L1542,657Z" fill="#1b6895" stroke="#1b6895" stroke-width="1.51"/><path d="M1541,589L1458,601L1542,657Z" fill="#1c6792" stroke="#1c6792" stroke-width="1.51"/><path d="M1522,154L1466,147L1448,228Z" fill="#7087a9" stroke="#7087a9" stroke-width="1.51"/><path d="M165,935L226,1001L244,927Z" fill="#7c90b1" stroke="#7c90b1" stroke-width="1.51"/><path d="M244,927L226,1001L347,996Z" fill="#768bac" stroke="#768bac" stroke-width="1.51"/><path d="M347,996L226,1001L492,1033Z" fill="#6c83a3" stroke="#6c83a3" stroke-width="1.51"/><path d="M79,559L55,681L163,665Z" fill="#97b5d6" stroke="#97b5d6" stroke-width="1.51"/><path d="M158,843L165,935L244,927Z" fill="#8198bb" stroke="#8198bb" stroke-width="1.51"/><path d="M-6,656L55,681L79,559Z" fill="#9bb8d8" stroke="#9bb8d8" stroke-width="1.51"/><path d="M82,915L165,935L158,843Z" fill="#859bbd" stroke="#859bbd" stroke-width="1.51"/><path d="M70,476L-12,505L79,559Z" fill="#aac3de" stroke="#aac3de" stroke-width="1.51"/><path d="M-17,388L-12,505L70,476Z" fill="#b4c9e1" stroke="#b4c9e1" stroke-width="1.51"/><path d="M78,220L147,328L176,236Z" fill="#cbd1e7" stroke="#cbd1e7" stroke-width="1.51"/><path d="M78,220L176,236L164,168Z" fill="#d1d4e8" stroke="#d1d4e8" stroke-width="1.51"/><path d="M1542,657L1449,647L1530,742Z" fill="#136190" stroke="#136190" stroke-width="1.51"/><path d="M1387,942L1464,904L1366,821Z" fill="#045889" stroke="#045889" stroke-width="1.51"/><path d="M1295,1026L1379,993L1289,930Z" fill="#045382" stroke="#045382" stroke-width="1.51"/><path d="M55,681L68,768L146,747Z" fill="#91abd2" stroke="#91abd2" stroke-width="1.51"/><path d="M65,136L78,220L164,168Z" fill="#d9d8ea" stroke="#d9d8ea" stroke-width="1.51"/><path d="M1530,742L1449,647L1467,770Z" fill="#0c5f91" stroke="#0c5f91" stroke-width="1.51"/><path d="M1530,742L1467,770L1533,843Z" fill="#045788" stroke="#045788" stroke-width="1.51"/><path d="M1542,229L1448,228L1459,318Z" fill="#6482a5" stroke="#6482a5" stroke-width="1.51"/><path d="M1448,228L1466,147L1380,217Z" fill="#708aae" stroke="#708aae" stroke-width="1.51"/><path d="M1355,-40L1262,-111L1290,-19Z" fill="#8fa4c5" stroke="#8fa4c5" stroke-width="1.51"/><path d="M242,42L169,40L258,128Z" fill="#dbdaeb" stroke="#dbdaeb" stroke-width="1.51"/><path d="M244,-47L242,42L333,-26Z" fill="#dfdded" stroke="#dfdded" stroke-width="1.51"/><path d="M1533,843L1467,770L1458,826Z" fill="#045788" stroke="#045788" stroke-width="1.51"/><path d="M1542,657L1557,397L1541,589Z" fill="#2c6a91" stroke="#2c6a91" stroke-width="1.51"/><path d="M1541,589L1557,397L1531,493Z" fill="#386e95" stroke="#386e95" stroke-width="1.51"/><path d="M1531,493L1557,397L1446,423Z" fill="#44759b" stroke="#44759b" stroke-width="1.51"/><path d="M310,-108L244,-47L333,-26Z" fill="#e1deee" stroke="#e1deee" stroke-width="1.51"/><path d="M428,-97L310,-108L333,-26Z" fill="#dcddec" stroke="#dcddec" stroke-width="1.51"/><path d="M673,-120L310,-108L428,-97Z" fill="#d3d9eb" stroke="#d3d9eb" stroke-width="1.51"/><path d="M1290,-19L1262,-111L1204,-27Z" fill="#90a6ca" stroke="#90a6ca" stroke-width="1.51"/><path d="M1204,-92L1262,-111L1094,-98Z" fill="#95acd1" stroke="#95acd1" stroke-width="1.51"/><path d="M920,-112L1453,-129L673,-120Z" fill="#9fbada" stroke="#9fbada" stroke-width="1.51"/><path d="M1355,-40L1290,-19L1352,67Z" fill="#8a9fc2" stroke="#8a9fc2" stroke-width="1.51"/><path d="M1434,1010L1464,904L1387,942Z" fill="#034f7d" stroke="#034f7d" stroke-width="1.51"/><path d="M79,990L171,1001L165,935Z" fill="#7f91af" stroke="#7f91af" stroke-width="1.51"/><path d="M165,935L171,1001L226,1001Z" fill="#7b8ead" stroke="#7b8ead" stroke-width="1.51"/><path d="M226,1001L171,1001L492,1033Z" fill="#7185a4" stroke="#7185a4" stroke-width="1.51"/><path d="M1452,46L1355,-40L1352,67Z" fill="#859abb" stroke="#859abb" stroke-width="1.51"/><path d="M1557,397L1558,320L1459,318Z" fill="#54799d" stroke="#54799d" stroke-width="1.51"/><path d="M-17,388L70,476L76,398Z" fill="#b8cbe2" stroke="#b8cbe2" stroke-width="1.51"/><path d="M4,752L57,844L68,768Z" fill="#91a8cd" stroke="#91a8cd" stroke-width="1.51"/><path d="M-17,388L76,398L55,321Z" fill="#c0cfe4" stroke="#c0cfe4" stroke-width="1.51"/><path d="M68,768L57,844L158,843Z" fill="#8ca3c9" stroke="#8ca3c9" stroke-width="1.51"/><path d="M4,752L68,768L55,681Z" fill="#94acd3" stroke="#94acd3" stroke-width="1.51"/><path d="M1558,320L1542,229L1459,318Z" fill="#5e7da0" stroke="#5e7da0" stroke-width="1.51"/><path d="M1466,147L1452,46L1352,67Z" fill="#7d92b4" stroke="#7d92b4" stroke-width="1.51"/><path d="M-28,590L-6,656L79,559Z" fill="#9ebdda" stroke="#9ebdda" stroke-width="1.51"/><path d="M1541,70L1452,46L1466,147Z" fill="#7a8dab" stroke="#7a8dab" stroke-width="1.51"/><path d="M310,-108L256,-103L244,-47Z" fill="#e4e1ef" stroke="#e4e1ef" stroke-width="1.51"/><path d="M244,-47L174,-47L242,42Z" fill="#e3e0ee" stroke="#e3e0ee" stroke-width="1.51"/><path d="M57,844L82,915L158,843Z" fill="#899fc2" stroke="#899fc2" stroke-width="1.51"/><path d="M-12,505L-28,590L79,559Z" fill="#a6c1dd" stroke="#a6c1dd" stroke-width="1.51"/><path d="M-36,338L-17,388L55,321Z" fill="#c5d1e6" stroke="#c5d1e6" stroke-width="1.51"/><path d="M-36,338L55,321L-22,216Z" fill="#cdd5e9" stroke="#cdd5e9" stroke-width="1.51"/><path d="M169,40L65,136L164,168Z" fill="#dddbec" stroke="#dddbec" stroke-width="1.51"/><path d="M73,46L65,136L169,40Z" fill="#e3e0ee" stroke="#e3e0ee" stroke-width="1.51"/><path d="M1542,657L1561,992L1557,397Z" fill="#125d8a" stroke="#125d8a" stroke-width="1.51"/><path d="M1530,742L1533,843L1542,657Z" fill="#04578a" stroke="#04578a" stroke-width="1.51"/><path d="M1464,904L1533,843L1458,826Z" fill="#045483" stroke="#045483" stroke-width="1.51"/><path d="M1527,905L1533,843L1464,904Z" fill="#04507d" stroke="#04507d" stroke-width="1.51"/><path d="M1379,993L1434,1010L1387,942Z" fill="#034e7b" stroke="#034e7b" stroke-width="1.51"/><path d="M1295,1026L1434,1010L1379,993Z" fill="#044e7a" stroke="#044e7a" stroke-width="1.51"/><path d="M1542,229L1522,154L1448,228Z" fill="#6b84a5" stroke="#6b84a5" stroke-width="1.51"/><path d="M-95,560L-28,590L-12,505Z" fill="#a8c3de" stroke="#a8c3de" stroke-width="1.51"/><path d="M-24,906L79,990L82,915Z" fill="#879ab9" stroke="#879ab9" stroke-width="1.51"/><path d="M-6,656L4,752L55,681Z" fill="#97b2d5" stroke="#97b2d5" stroke-width="1.51"/><path d="M-99,766L4,752L-6,656Z" fill="#97b0d5" stroke="#97b0d5" stroke-width="1.51"/><path d="M256,-103L174,-47L244,-47Z" fill="#e6e2f0" stroke="#e6e2f0" stroke-width="1.51"/><path d="M1561,992L1527,905L1464,904Z" fill="#034a75" stroke="#034a75" stroke-width="1.51"/><path d="M-113,409L-95,508L-12,505Z" fill="#b6cbe3" stroke="#b6cbe3" stroke-width="1.51"/><path d="M-22,216L55,321L78,220Z" fill="#d1d6e9" stroke="#d1d6e9" stroke-width="1.51"/><path d="M1452,46L1439,-35L1355,-40Z" fill="#8799b8" stroke="#8799b8" stroke-width="1.51"/><path d="M1355,-40L1387,-106L1262,-111Z" fill="#8fa3c4" stroke="#8fa3c4" stroke-width="1.51"/><path d="M1559,-21L1439,-35L1452,46Z" fill="#8293af" stroke="#8293af" stroke-width="1.51"/><path d="M65,136L-22,216L78,220Z" fill="#dadaeb" stroke="#dadaeb" stroke-width="1.51"/><path d="M73,-14L73,46L169,40Z" fill="#e8e3f0" stroke="#e8e3f0" stroke-width="1.51"/><path d="M-5,857L82,915L57,844Z" fill="#8ca1c3" stroke="#8ca1c3" stroke-width="1.51"/><path d="M82,915L79,990L165,935Z" fill="#8396b5" stroke="#8396b5" stroke-width="1.51"/><path d="M1439,-35L1387,-106L1355,-40Z" fill="#8b9ebc" stroke="#8b9ebc" stroke-width="1.51"/><path d="M-20,128L-22,216L65,136Z" fill="#dfdded" stroke="#dfdded" stroke-width="1.51"/><path d="M4,752L-5,857L57,844Z" fill="#90a6ca" stroke="#90a6ca" stroke-width="1.51"/><path d="M-24,906L-5,857L-92,817Z" fill="#90a4c6" stroke="#90a4c6" stroke-width="1.51"/><path d="M1439,-35L1453,-129L1387,-106Z" fill="#8b9db9" stroke="#8b9db9" stroke-width="1.51"/><path d="M1522,154L1541,70L1466,147Z" fill="#7588a7" stroke="#7588a7" stroke-width="1.51"/><path d="M1542,229L1541,70L1522,154Z" fill="#7184a3" stroke="#7184a3" stroke-width="1.51"/><path d="M1559,-21L1541,70L1542,229Z" fill="#7687a3" stroke="#7687a3" stroke-width="1.51"/><path d="M-113,409L-12,505L-17,388Z" fill="#bacde4" stroke="#bacde4" stroke-width="1.51"/><path d="M-28,590L-123,676L-6,656Z" fill="#9ebbda" stroke="#9ebbda" stroke-width="1.51"/><path d="M-113,409L-17,388L-36,338Z" fill="#c3d1e6" stroke="#c3d1e6" stroke-width="1.51"/><path d="M-95,508L-95,560L-12,505Z" fill="#adc6e0" stroke="#adc6e0" stroke-width="1.51"/><path d="M51,-98L73,-14L174,-47Z" fill="#ede8f2" stroke="#ede8f2" stroke-width="1.51"/><path d="M174,-47L73,-14L169,40Z" fill="#e7e3f0" stroke="#e7e3f0" stroke-width="1.51"/><path d="M73,46L-20,128L65,136Z" fill="#e3e0ef" stroke="#e3e0ef" stroke-width="1.51"/><path d="M256,-103L156,-120L174,-47Z" fill="#e9e5f1" stroke="#e9e5f1" stroke-width="1.51"/><path d="M310,-108L156,-120L256,-103Z" fill="#e7e4f0" stroke="#e7e4f0" stroke-width="1.51"/><path d="M673,-120L156,-120L310,-108Z" fill="#dcdded" stroke="#dcdded" stroke-width="1.51"/><path d="M-31,61L-20,128L73,46Z" fill="#e7e3f0" stroke="#e7e3f0" stroke-width="1.51"/><path d="M-117,301L-113,409L-36,338Z" fill="#c9d4e8" stroke="#c9d4e8" stroke-width="1.51"/><path d="M-5,857L-24,906L82,915Z" fill="#8ca0c1" stroke="#8ca0c1" stroke-width="1.51"/><path d="M-92,817L-5,857L4,752Z" fill="#92a9cc" stroke="#92a9cc" stroke-width="1.51"/><path d="M-95,508L-123,676L-95,560Z" fill="#a7c2de" stroke="#a7c2de" stroke-width="1.51"/><path d="M-117,301L-36,338L-22,216Z" fill="#d1d8ea" stroke="#d1d8ea" stroke-width="1.51"/><path d="M1434,1010L1561,992L1464,904Z" fill="#034972" stroke="#034972" stroke-width="1.51"/><path d="M1527,905L1561,992L1533,843Z" fill="#034b75" stroke="#034b75" stroke-width="1.51"/><path d="M1533,843L1561,992L1542,657Z" fill="#03517f" stroke="#03517f" stroke-width="1.51"/><path d="M1557,397L1561,992L1558,320Z" fill="#26678f" stroke="#26678f" stroke-width="1.51"/><path d="M-123,676L-99,766L-6,656Z" fill="#9bb4d7" stroke="#9bb4d7" stroke-width="1.51"/><path d="M-123,676L-28,590L-95,560Z" fill="#a2bfdc" stroke="#a2bfdc" stroke-width="1.51"/><path d="M1524,-101L1453,-129L1439,-35Z" fill="#8898b3" stroke="#8898b3" stroke-width="1.51"/><path d="M1387,-106L1453,-129L1262,-111Z" fill="#90a3c2" stroke="#90a3c2" stroke-width="1.51"/><path d="M1262,-111L1453,-129L920,-112Z" fill="#96accf" stroke="#96accf" stroke-width="1.51"/><path d="M673,-120L-2,-122L156,-120Z" fill="#e6e2f0" stroke="#e6e2f0" stroke-width="1.51"/><path d="M-113,409L-123,676L-95,508Z" fill="#aec7e0" stroke="#aec7e0" stroke-width="1.51"/><path d="M-113,409L-122,249L-123,676Z" fill="#bccfe4" stroke="#bccfe4" stroke-width="1.51"/><path d="M-122,249L-117,301L-22,216Z" fill="#d6dbeb" stroke="#d6dbeb" stroke-width="1.51"/><path d="M-97,909L-92,817L-99,766Z" fill="#94a9cb" stroke="#94a9cb" stroke-width="1.51"/><path d="M-99,766L-92,817L4,752Z" fill="#95acd1" stroke="#95acd1" stroke-width="1.51"/><path d="M-111,149L-122,249L-22,216Z" fill="#dddeed" stroke="#dddeed" stroke-width="1.51"/><path d="M-1,-21L-31,61L73,46Z" fill="#ebe6f1" stroke="#ebe6f1" stroke-width="1.51"/><path d="M-1,-21L73,46L73,-14Z" fill="#ece7f2" stroke="#ece7f2" stroke-width="1.51"/><path d="M1541,70L1559,-21L1452,46Z" fill="#7d8ea9" stroke="#7d8ea9" stroke-width="1.51"/><path d="M1558,320L1559,-21L1542,229Z" fill="#6c819f" stroke="#6c819f" stroke-width="1.51"/><path d="M1561,992L1559,-21L1558,320Z" fill="#447196" stroke="#447196" stroke-width="1.51"/><path d="M-117,301L-122,249L-113,409Z" fill="#ced7e9" stroke="#ced7e9" stroke-width="1.51"/><path d="M-111,149L-22,216L-20,128Z" fill="#e1dfee" stroke="#e1dfee" stroke-width="1.51"/><path d="M-112,73L-111,149L-20,128Z" fill="#e7e3f0" stroke="#e7e3f0" stroke-width="1.51"/><path d="M51,-98L-1,-21L73,-14Z" fill="#f0eaf4" stroke="#f0eaf4" stroke-width="1.51"/><path d="M156,-120L51,-98L174,-47Z" fill="#eee8f3" stroke="#eee8f3" stroke-width="1.51"/><path d="M1559,-21L1524,-101L1439,-35Z" fill="#8493ad" stroke="#8493ad" stroke-width="1.51"/><path d="M-97,909L-31,1014L-24,906Z" fill="#8b9cba" stroke="#8b9cba" stroke-width="1.51"/><path d="M-24,906L-31,1014L79,990Z" fill="#8697b3" stroke="#8697b3" stroke-width="1.51"/><path d="M79,990L-31,1014L171,1001Z" fill="#8191ac" stroke="#8191ac" stroke-width="1.51"/><path d="M171,1001L-108,1030L492,1033Z" fill="#7889a5" stroke="#7889a5" stroke-width="1.51"/><path d="M-112,73L-20,128L-31,61Z" fill="#e9e5f1" stroke="#e9e5f1" stroke-width="1.51"/><path d="M-92,817L-97,909L-24,906Z" fill="#91a5c5" stroke="#91a5c5" stroke-width="1.51"/><path d="M-123,676L-97,909L-99,766Z" fill="#97add1" stroke="#97add1" stroke-width="1.51"/><path d="M-119,-30L-112,73L-31,61Z" fill="#efeaf4" stroke="#efeaf4" stroke-width="1.51"/><path d="M-111,149L-112,73L-122,249Z" fill="#e4e2ef" stroke="#e4e2ef" stroke-width="1.51"/><path d="M-119,-30L-31,61L-1,-21Z" fill="#f1ebf4" stroke="#f1ebf4" stroke-width="1.51"/><path d="M51,-98L-2,-122L-1,-21Z" fill="#f3edf5" stroke="#f3edf5" stroke-width="1.51"/><path d="M156,-120L-2,-122L51,-98Z" fill="#f3edf5" stroke="#f3edf5" stroke-width="1.51"/><path d="M1453,-129L-2,-122L673,-120Z" fill="#bbcee5" stroke="#bbcee5" stroke-width="1.51"/><path d="M-97,909L-108,1030L-31,1014Z" fill="#8998b2" stroke="#8998b2" stroke-width="1.51"/><path d="M-31,1014L-108,1030L171,1001Z" fill="#8292ab" stroke="#8292ab" stroke-width="1.51"/><path d="M-123,676L-108,1030L-97,909Z" fill="#93a6c6" stroke="#93a6c6" stroke-width="1.51"/><path d="M-81,-100L-119,-30L-1,-21Z" fill="#f5eef6" stroke="#f5eef6" stroke-width="1.51"/><path d="M-112,73L-119,-30L-122,249Z" fill="#ebe6f2" stroke="#ebe6f2" stroke-width="1.51"/><path d="M-2,-122L-81,-100L-1,-21Z" fill="#f5eef6" stroke="#f5eef6" stroke-width="1.51"/></svg>