<svg xmlns="http://www.w3.org/2000/svg" width="1440" height="900"><path d="M751,474L768,559L829,481Z" fill="#5fa5d1" stroke="#5fa5d1" stroke-width="1.51"/><path d="M768,559L853,595L829,481Z" fill="#569ecd" stroke="#569ecd" stroke-width="1.51"/><path d="M751,474L667,514L768,559Z" fill="#62a7d2" stroke="#62a7d2" stroke-width="1.51"/><path d="M829,481L755,394L751,474Z" fill="#66aad4" stroke="#66aad4" stroke-width="1.51"/><path d="M751,474L686,388L667,514Z" fill="#6daed6" stroke="#6daed6" stroke-width="1.51"/><path d="M768,559L776,644L853,595Z" fill="#519bcb" stroke="#519bcb" stroke-width="1.51"/><path d="M670,598L776,644L768,559Z" fill="#569fcd" stroke="#569fcd" stroke-width="1.51"/><path d="M829,481L871,403L755,394Z" fill="#67a9d4" stroke="#67a9d4" stroke-width="1.51"/><path d="M932,481L871,403L829,481Z" fill="#5da3cf" stroke="#5da3cf" stroke-width="1.51"/><path d="M667,514L670,598L768,559Z" fill="#60a5d1" stroke="#60a5d1" stroke-width="1.51"/><path d="M853,595L932,481L829,481Z" fill="#559dcd" stroke="#559dcd" stroke-width="1.51"/><path d="M755,394L686,388L751,474Z" fill="#70b0d7" stroke="#70b0d7" stroke-width="1.51"/><path d="M680,332L686,388L755,394Z" fill="#7bb6da" stroke="#7bb6da" stroke-width="1.51"/><path d="M776,644L854,662L853,595Z" fill="#4b95c8" stroke="#4b95c8" stroke-width="1.51"/><path d="M853,595L953,578L932,481Z" fill="#4c98ca" stroke="#4c98ca" stroke-width="1.51"/><path d="M933,684L953,578L853,595Z" fill="#4391c6" stroke="#4391c6" stroke-width="1.51"/><path d="M670,598L675,651L776,644Z" fill="#579dcd" stroke="#579dcd" stroke-width="1.51"/><path d="M776,644L851,750L854,662Z" fill="#478fc6" stroke="#478fc6" stroke-width="1.51"/><path d="M932,481L952,422L871,403Z" fill="#5ca2cf" stroke="#5ca2cf" stroke-width="1.51"/><path d="M1025,477L952,422L932,481Z" fill="#559ccc" stroke="#559ccc" stroke-width="1.51"/><path d="M850,304L766,315L755,394Z" fill="#7ab4d8" stroke="#7ab4d8" stroke-width="1.51"/><path d="M850,304L755,394L871,403Z" fill="#71aed5" stroke="#71aed5" stroke-width="1.51"/><path d="M670,598L597,590L675,651Z" fill="#61a3d0" stroke="#61a3d0" stroke-width="1.51"/><path d="M667,514L597,590L670,598Z" fill="#67a8d2" stroke="#67a8d2" stroke-width="1.51"/><path d="M574,482L597,590L667,514Z" fill="#6fadd5" stroke="#6fadd5" stroke-width="1.51"/><path d="M569,421L574,482L667,514Z" fill="#77b3d8" stroke="#77b3d8" stroke-width="1.51"/><path d="M766,315L680,332L755,394Z" fill="#7db6da" stroke="#7db6da" stroke-width="1.51"/><path d="M569,421L667,514L686,388Z" fill="#77b4d9" stroke="#77b4d9" stroke-width="1.51"/><path d="M944,337L850,304L871,403Z" fill="#6facd4" stroke="#6facd4" stroke-width="1.51"/><path d="M854,662L933,684L853,595Z" fill="#4490c6" stroke="#4490c6" stroke-width="1.51"/><path d="M851,750L933,684L854,662Z" fill="#408bc3" stroke="#408bc3" stroke-width="1.51"/><path d="M953,578L1025,477L932,481Z" fill="#4d97c9" stroke="#4d97c9" stroke-width="1.51"/><path d="M933,684L1006,582L953,578Z" fill="#3f8ec4" stroke="#3f8ec4" stroke-width="1.51"/><path d="M952,422L944,337L871,403Z" fill="#65a6d1" stroke="#65a6d1" stroke-width="1.51"/><path d="M1042,399L944,337L952,422Z" fill="#62a2cf" stroke="#62a2cf" stroke-width="1.51"/><path d="M610,314L569,421L686,388Z" fill="#85bcdb" stroke="#85bcdb" stroke-width="1.51"/><path d="M1006,582L1025,477L953,578Z" fill="#4792c6" stroke="#4792c6" stroke-width="1.51"/><path d="M675,651L743,751L776,644Z" fill="#5096c9" stroke="#5096c9" stroke-width="1.51"/><path d="M664,771L743,751L675,651Z" fill="#5293c8" stroke="#5293c8" stroke-width="1.51"/><path d="M743,751L851,750L776,644Z" fill="#488fc5" stroke="#488fc5" stroke-width="1.51"/><path d="M597,590L572,660L675,651Z" fill="#64a3cf" stroke="#64a3cf" stroke-width="1.51"/><path d="M515,587L572,660L597,590Z" fill="#6ca9d2" stroke="#6ca9d2" stroke-width="1.51"/><path d="M515,587L597,590L574,482Z" fill="#73aed5" stroke="#73aed5" stroke-width="1.51"/><path d="M680,332L610,314L686,388Z" fill="#85bbdc" stroke="#85bbdc" stroke-width="1.51"/><path d="M693,225L610,314L680,332Z" fill="#8ec0de" stroke="#8ec0de" stroke-width="1.51"/><path d="M693,225L680,332L766,315Z" fill="#88bddc" stroke="#88bddc" stroke-width="1.51"/><path d="M850,304L837,249L766,315Z" fill="#80b6d9" stroke="#80b6d9" stroke-width="1.51"/><path d="M927,213L837,249L850,304Z" fill="#80b4d8" stroke="#80b4d8" stroke-width="1.51"/><path d="M837,249L776,243L766,315Z" fill="#84b8db" stroke="#84b8db" stroke-width="1.51"/><path d="M1025,477L1042,399L952,422Z" fill="#579ccc" stroke="#579ccc" stroke-width="1.51"/><path d="M944,337L927,213L850,304Z" fill="#79b1d5" stroke="#79b1d5" stroke-width="1.51"/><path d="M1088,475L1042,399L1025,477Z" fill="#5197ca" stroke="#5197ca" stroke-width="1.51"/><path d="M500,484L515,587L574,482Z" fill="#7bb4d8" stroke="#7bb4d8" stroke-width="1.51"/><path d="M582,751L664,771L675,651Z" fill="#5a97c9" stroke="#5a97c9" stroke-width="1.51"/><path d="M743,751L742,823L851,750Z" fill="#4588c1" stroke="#4588c1" stroke-width="1.51"/><path d="M569,421L500,484L574,482Z" fill="#7fb8da" stroke="#7fb8da" stroke-width="1.51"/><path d="M490,414L500,484L569,421Z" fill="#86bcdc" stroke="#86bcdc" stroke-width="1.51"/><path d="M933,684L1037,662L1006,582Z" fill="#3b89c1" stroke="#3b89c1" stroke-width="1.51"/><path d="M1006,582L1088,475L1025,477Z" fill="#4a92c7" stroke="#4a92c7" stroke-width="1.51"/><path d="M1035,735L1037,662L933,684Z" fill="#3583bf" stroke="#3583bf" stroke-width="1.51"/><path d="M851,750L940,765L933,684Z" fill="#3985c0" stroke="#3985c0" stroke-width="1.51"/><path d="M916,824L940,765L851,750Z" fill="#3680bc" stroke="#3680bc" stroke-width="1.51"/><path d="M762,154L693,225L776,243Z" fill="#91bfdf" stroke="#91bfdf" stroke-width="1.51"/><path d="M776,243L693,225L766,315Z" fill="#89bcdc" stroke="#89bcdc" stroke-width="1.51"/><path d="M1127,579L1088,475L1006,582Z" fill="#428cc4" stroke="#428cc4" stroke-width="1.51"/><path d="M511,333L490,414L569,421Z" fill="#8ec0dd" stroke="#8ec0dd" stroke-width="1.51"/><path d="M511,333L569,421L610,314Z" fill="#8fc0de" stroke="#8fc0de" stroke-width="1.51"/><path d="M664,771L742,823L743,751Z" fill="#4b8cc3" stroke="#4b8cc3" stroke-width="1.51"/><path d="M664,771L688,860L742,823Z" fill="#4c89c0" stroke="#4c89c0" stroke-width="1.51"/><path d="M572,660L582,751L675,651Z" fill="#609dcc" stroke="#609dcc" stroke-width="1.51"/><path d="M522,756L582,751L572,660Z" fill="#659ccb" stroke="#659ccb" stroke-width="1.51"/><path d="M742,823L847,831L851,750Z" fill="#4083be" stroke="#4083be" stroke-width="1.51"/><path d="M1042,399L1043,307L944,337Z" fill="#67a3cf" stroke="#67a3cf" stroke-width="1.51"/><path d="M1124,327L1043,307L1042,399Z" fill="#659ecd" stroke="#659ecd" stroke-width="1.51"/><path d="M519,248L511,333L610,314Z" fill="#9ac7e0" stroke="#9ac7e0" stroke-width="1.51"/><path d="M1009,213L927,213L944,337Z" fill="#7aaed5" stroke="#7aaed5" stroke-width="1.51"/><path d="M837,249L762,154L776,243Z" fill="#8cbcdd" stroke="#8cbcdd" stroke-width="1.51"/><path d="M693,225L596,237L610,314Z" fill="#95c4e0" stroke="#95c4e0" stroke-width="1.51"/><path d="M1037,662L1127,579L1006,582Z" fill="#3a88c1" stroke="#3a88c1" stroke-width="1.51"/><path d="M940,765L1035,735L933,684Z" fill="#3481be" stroke="#3481be" stroke-width="1.51"/><path d="M1016,835L1035,735L940,765Z" fill="#2e7ab9" stroke="#2e7ab9" stroke-width="1.51"/><path d="M847,831L916,824L851,750Z" fill="#3980bc" stroke="#3980bc" stroke-width="1.51"/><path d="M515,587L495,684L572,660Z" fill="#6ea7d1" stroke="#6ea7d1" stroke-width="1.51"/><path d="M438,565L495,684L515,587Z" fill="#76add4" stroke="#76add4" stroke-width="1.51"/><path d="M438,565L515,587L500,484Z" fill="#7db4d7" stroke="#7db4d7" stroke-width="1.51"/><path d="M1088,475L1110,402L1042,399Z" fill="#5597ca" stroke="#5597ca" stroke-width="1.51"/><path d="M1187,497L1110,402L1088,475Z" fill="#4c90c6" stroke="#4c90c6" stroke-width="1.51"/><path d="M1108,680L1127,579L1037,662Z" fill="#3481be" stroke="#3481be" stroke-width="1.51"/><path d="M397,507L438,565L500,484Z" fill="#84b8da" stroke="#84b8da" stroke-width="1.51"/><path d="M430,405L500,484L490,414Z" fill="#8bbedd" stroke="#8bbedd" stroke-width="1.51"/><path d="M693,225L668,159L596,237Z" fill="#9ac5e1" stroke="#9ac5e1" stroke-width="1.51"/><path d="M861,137L762,154L837,249Z" fill="#8fbcde" stroke="#8fbcde" stroke-width="1.51"/><path d="M585,823L688,860L664,771Z" fill="#548cc2" stroke="#548cc2" stroke-width="1.51"/><path d="M495,684L522,756L572,660Z" fill="#6aa1ce" stroke="#6aa1ce" stroke-width="1.51"/><path d="M421,758L522,756L495,684Z" fill="#6d9fcd" stroke="#6d9fcd" stroke-width="1.51"/><path d="M742,823L759,928L847,831Z" fill="#407fba" stroke="#407fba" stroke-width="1.51"/><path d="M949,924L1016,835L916,824Z" fill="#2c74b3" stroke="#2c74b3" stroke-width="1.51"/><path d="M585,823L664,771L582,751Z" fill="#5a92c6" stroke="#5a92c6" stroke-width="1.51"/><path d="M1035,735L1108,680L1037,662Z" fill="#317ebc" stroke="#317ebc" stroke-width="1.51"/><path d="M762,154L668,159L693,225Z" fill="#98c3e2" stroke="#98c3e2" stroke-width="1.51"/><path d="M1043,307L1009,213L944,337Z" fill="#73a9d2" stroke="#73a9d2" stroke-width="1.51"/><path d="M927,213L861,137L837,249Z" fill="#88b7db" stroke="#88b7db" stroke-width="1.51"/><path d="M1122,244L1009,213L1043,307Z" fill="#75a6d1" stroke="#75a6d1" stroke-width="1.51"/><path d="M522,756L585,823L582,751Z" fill="#6196c8" stroke="#6196c8" stroke-width="1.51"/><path d="M511,333L430,405L490,414Z" fill="#93c3df" stroke="#93c3df" stroke-width="1.51"/><path d="M399,315L430,405L511,333Z" fill="#9bc7e1" stroke="#9bc7e1" stroke-width="1.51"/><path d="M519,248L610,314L596,237Z" fill="#9bc7e1" stroke="#9bc7e1" stroke-width="1.51"/><path d="M489,152L519,248L596,237Z" fill="#a6cde4" stroke="#a6cde4" stroke-width="1.51"/><path d="M952,162L861,137L927,213Z" fill="#89b6db" stroke="#89b6db" stroke-width="1.51"/><path d="M696,45L600,138L668,159Z" fill="#a4cae5" stroke="#a4cae5" stroke-width="1.51"/><path d="M1176,339L1124,327L1110,402Z" fill="#6098ca" stroke="#6098ca" stroke-width="1.51"/><path d="M1110,402L1124,327L1042,399Z" fill="#5e9acb" stroke="#5e9acb" stroke-width="1.51"/><path d="M1009,213L952,162L927,213Z" fill="#82b1d8" stroke="#82b1d8" stroke-width="1.51"/><path d="M430,405L397,507L500,484Z" fill="#8abddd" stroke="#8abddd" stroke-width="1.51"/><path d="M438,565L407,681L495,684Z" fill="#77abd3" stroke="#77abd3" stroke-width="1.51"/><path d="M1035,735L1127,767L1108,680Z" fill="#2a78b9" stroke="#2a78b9" stroke-width="1.51"/><path d="M916,824L1016,835L940,765Z" fill="#2f7ab8" stroke="#2f7ab8" stroke-width="1.51"/><path d="M949,924L916,824L847,831Z" fill="#3377b5" stroke="#3377b5" stroke-width="1.51"/><path d="M1127,579L1187,497L1088,475Z" fill="#438ac3" stroke="#438ac3" stroke-width="1.51"/><path d="M1192,579L1187,497L1127,579Z" fill="#3c84bf" stroke="#3c84bf" stroke-width="1.51"/><path d="M1179,652L1192,579L1127,579Z" fill="#3380bd" stroke="#3380bd" stroke-width="1.51"/><path d="M1179,652L1127,579L1108,680Z" fill="#317ebc" stroke="#317ebc" stroke-width="1.51"/><path d="M339,560L407,681L438,565Z" fill="#80b2d7" stroke="#80b2d7" stroke-width="1.51"/><path d="M522,756L490,854L585,823Z" fill="#6393c6" stroke="#6393c6" stroke-width="1.51"/><path d="M1204,739L1179,652L1108,680Z" fill="#2976b8" stroke="#2976b8" stroke-width="1.51"/><path d="M696,45L668,159L762,154Z" fill="#9fc6e4" stroke="#9fc6e4" stroke-width="1.51"/><path d="M668,159L600,138L596,237Z" fill="#a1c9e3" stroke="#a1c9e3" stroke-width="1.51"/><path d="M688,860L759,928L742,823Z" fill="#4581bb" stroke="#4581bb" stroke-width="1.51"/><path d="M673,918L759,928L688,860Z" fill="#477fb9" stroke="#477fb9" stroke-width="1.51"/><path d="M585,908L688,860L585,823Z" fill="#5588bf" stroke="#5588bf" stroke-width="1.51"/><path d="M585,908L673,918L688,860Z" fill="#5083bb" stroke="#5083bb" stroke-width="1.51"/><path d="M1209,413L1176,339L1110,402Z" fill="#5993c7" stroke="#5993c7" stroke-width="1.51"/><path d="M1124,327L1122,244L1043,307Z" fill="#6da1ce" stroke="#6da1ce" stroke-width="1.51"/><path d="M1009,213L1020,134L952,162Z" fill="#84b0d7" stroke="#84b0d7" stroke-width="1.51"/><path d="M1109,835L1127,767L1035,735Z" fill="#2572b5" stroke="#2572b5" stroke-width="1.51"/><path d="M759,928L828,935L847,831Z" fill="#3c79b6" stroke="#3c79b6" stroke-width="1.51"/><path d="M1176,339L1122,244L1124,327Z" fill="#699dcc" stroke="#699dcc" stroke-width="1.51"/><path d="M1262,393L1209,413L1291,474Z" fill="#4e89c0" stroke="#4e89c0" stroke-width="1.51"/><path d="M1187,497L1209,413L1110,402Z" fill="#4e8ec5" stroke="#4e8ec5" stroke-width="1.51"/><path d="M416,234L511,333L519,248Z" fill="#a4cde3" stroke="#a4cde3" stroke-width="1.51"/><path d="M416,234L399,315L511,333Z" fill="#a5cde3" stroke="#a5cde3" stroke-width="1.51"/><path d="M430,405L334,476L397,507Z" fill="#90bfdf" stroke="#90bfdf" stroke-width="1.51"/><path d="M407,681L421,758L495,684Z" fill="#73a4d0" stroke="#73a4d0" stroke-width="1.51"/><path d="M952,162L947,81L861,137Z" fill="#8db8dc" stroke="#8db8dc" stroke-width="1.51"/><path d="M861,137L832,54L762,154Z" fill="#96bfe0" stroke="#96bfe0" stroke-width="1.51"/><path d="M1089,140L1020,134L1009,213Z" fill="#83acd6" stroke="#83acd6" stroke-width="1.51"/><path d="M828,935L949,924L847,831Z" fill="#3475b4" stroke="#3475b4" stroke-width="1.51"/><path d="M1016,835L1109,835L1035,735Z" fill="#2873b5" stroke="#2873b5" stroke-width="1.51"/><path d="M490,854L585,908L585,823Z" fill="#5e8dc1" stroke="#5e8dc1" stroke-width="1.51"/><path d="M742,1025L828,935L759,928Z" fill="#3d74ad" stroke="#3d74ad" stroke-width="1.51"/><path d="M397,507L339,560L438,565Z" fill="#86b7da" stroke="#86b7da" stroke-width="1.51"/><path d="M320,771L412,824L421,758Z" fill="#749dcd" stroke="#749dcd" stroke-width="1.51"/><path d="M334,476L339,560L397,507Z" fill="#8ebcdd" stroke="#8ebcdd" stroke-width="1.51"/><path d="M421,758L490,854L522,756Z" fill="#6a99c9" stroke="#6a99c9" stroke-width="1.51"/><path d="M326,409L334,476L430,405Z" fill="#96c3e1" stroke="#96c3e1" stroke-width="1.51"/><path d="M1097,918L1109,835L1016,835Z" fill="#226baf" stroke="#226baf" stroke-width="1.51"/><path d="M1127,767L1204,739L1108,680Z" fill="#2574b6" stroke="#2574b6" stroke-width="1.51"/><path d="M1020,134L947,81L952,162Z" fill="#8bb4da" stroke="#8bb4da" stroke-width="1.51"/><path d="M947,81L832,54L861,137Z" fill="#94bcde" stroke="#94bcde" stroke-width="1.51"/><path d="M949,924L1009,914L1016,835Z" fill="#286eb0" stroke="#286eb0" stroke-width="1.51"/><path d="M342,338L326,409L430,405Z" fill="#9ec7e3" stroke="#9ec7e3" stroke-width="1.51"/><path d="M489,152L416,234L519,248Z" fill="#add0e6" stroke="#add0e6" stroke-width="1.51"/><path d="M600,138L489,152L596,237Z" fill="#a8cde5" stroke="#a8cde5" stroke-width="1.51"/><path d="M511,81L489,152L600,138Z" fill="#b1d2e8" stroke="#b1d2e8" stroke-width="1.51"/><path d="M832,54L773,41L762,154Z" fill="#9bc3e2" stroke="#9bc3e2" stroke-width="1.51"/><path d="M247,564L323,686L339,560Z" fill="#89b5da" stroke="#89b5da" stroke-width="1.51"/><path d="M342,338L430,405L399,315Z" fill="#a0c9e2" stroke="#a0c9e2" stroke-width="1.51"/><path d="M773,41L696,45L762,154Z" fill="#9fc6e4" stroke="#9fc6e4" stroke-width="1.51"/><path d="M1197,846L1204,739L1127,767Z" fill="#1e6bb1" stroke="#1e6bb1" stroke-width="1.51"/><path d="M1179,652L1266,587L1192,579Z" fill="#317cb9" stroke="#317cb9" stroke-width="1.51"/><path d="M1192,579L1266,587L1187,497Z" fill="#3a81bc" stroke="#3a81bc" stroke-width="1.51"/><path d="M339,214L342,338L399,315Z" fill="#add0e6" stroke="#add0e6" stroke-width="1.51"/><path d="M1122,244L1089,140L1009,213Z" fill="#7ca8d3" stroke="#7ca8d3" stroke-width="1.51"/><path d="M1020,134L1005,74L947,81Z" fill="#8cb4da" stroke="#8cb4da" stroke-width="1.51"/><path d="M1182,163L1089,140L1122,244Z" fill="#7ca4d2" stroke="#7ca4d2" stroke-width="1.51"/><path d="M1181,225L1122,244L1176,339Z" fill="#6d9dcc" stroke="#6d9dcc" stroke-width="1.51"/><path d="M1268,666L1266,587L1179,652Z" fill="#2d77b6" stroke="#2d77b6" stroke-width="1.51"/><path d="M1262,393L1176,339L1209,413Z" fill="#5890c5" stroke="#5890c5" stroke-width="1.51"/><path d="M1288,335L1181,225L1176,339Z" fill="#6797c8" stroke="#6797c8" stroke-width="1.51"/><path d="M947,81L858,-9L832,54Z" fill="#98bfe0" stroke="#98bfe0" stroke-width="1.51"/><path d="M832,54L858,-9L773,41Z" fill="#9dc4e2" stroke="#9dc4e2" stroke-width="1.51"/><path d="M1089,140L1005,74L1020,134Z" fill="#88afd8" stroke="#88afd8" stroke-width="1.51"/><path d="M421,758L412,824L490,854Z" fill="#6d97c8" stroke="#6d97c8" stroke-width="1.51"/><path d="M490,854L513,945L585,908Z" fill="#5f89be" stroke="#5f89be" stroke-width="1.51"/><path d="M323,686L421,758L407,681Z" fill="#79a5d2" stroke="#79a5d2" stroke-width="1.51"/><path d="M1291,474L1209,413L1187,497Z" fill="#4788c0" stroke="#4788c0" stroke-width="1.51"/><path d="M247,564L339,560L334,476Z" fill="#90bcde" stroke="#90bcde" stroke-width="1.51"/><path d="M339,560L323,686L407,681Z" fill="#81afd6" stroke="#81afd6" stroke-width="1.51"/><path d="M489,152L428,165L416,234Z" fill="#b3d3e8" stroke="#b3d3e8" stroke-width="1.51"/><path d="M416,234L339,214L399,315Z" fill="#afd1e7" stroke="#afd1e7" stroke-width="1.51"/><path d="M400,53L428,165L489,152Z" fill="#bad6ea" stroke="#bad6ea" stroke-width="1.51"/><path d="M696,45L572,57L600,138Z" fill="#abcee7" stroke="#abcee7" stroke-width="1.51"/><path d="M1266,587L1291,474L1187,497Z" fill="#3e81bc" stroke="#3e81bc" stroke-width="1.51"/><path d="M1266,587L1349,588L1291,474Z" fill="#387ab7" stroke="#387ab7" stroke-width="1.51"/><path d="M1204,739L1268,666L1179,652Z" fill="#2873b5" stroke="#2873b5" stroke-width="1.51"/><path d="M828,935L845,1015L949,924Z" fill="#336eaa" stroke="#336eaa" stroke-width="1.51"/><path d="M949,924L1041,1004L1009,914Z" fill="#2667a7" stroke="#2667a7" stroke-width="1.51"/><path d="M742,1025L845,1015L828,935Z" fill="#396ea7" stroke="#396ea7" stroke-width="1.51"/><path d="M742,1025L759,928L673,918Z" fill="#4277b0" stroke="#4277b0" stroke-width="1.51"/><path d="M572,57L511,81L600,138Z" fill="#b1d2e8" stroke="#b1d2e8" stroke-width="1.51"/><path d="M1204,739L1262,772L1268,666Z" fill="#216db1" stroke="#216db1" stroke-width="1.51"/><path d="M1109,835L1197,846L1127,767Z" fill="#1e6ab0" stroke="#1e6ab0" stroke-width="1.51"/><path d="M1009,914L1097,918L1016,835Z" fill="#246bae" stroke="#246bae" stroke-width="1.51"/><path d="M1041,1004L1097,918L1009,914Z" fill="#2264a5" stroke="#2264a5" stroke-width="1.51"/><path d="M670,1023L742,1025L673,918Z" fill="#4575ab" stroke="#4575ab" stroke-width="1.51"/><path d="M427,914L513,945L490,854Z" fill="#658cbf" stroke="#658cbf" stroke-width="1.51"/><path d="M670,1023L673,918L585,908Z" fill="#4e7db3" stroke="#4e7db3" stroke-width="1.51"/><path d="M753,-35L679,-15L696,45Z" fill="#a9cde7" stroke="#a9cde7" stroke-width="1.51"/><path d="M696,45L583,-5L572,57Z" fill="#afd1e8" stroke="#afd1e8" stroke-width="1.51"/><path d="M941,-47L858,-9L947,81Z" fill="#98bfdf" stroke="#98bfdf" stroke-width="1.51"/><path d="M572,1027L670,1023L585,908Z" fill="#517aae" stroke="#517aae" stroke-width="1.51"/><path d="M1089,140L1123,72L1005,74Z" fill="#88add7" stroke="#88add7" stroke-width="1.51"/><path d="M1005,74L941,-47L947,81Z" fill="#93b9dd" stroke="#93b9dd" stroke-width="1.51"/><path d="M1181,225L1182,163L1122,244Z" fill="#76a0cf" stroke="#76a0cf" stroke-width="1.51"/><path d="M1266,130L1182,163L1181,225Z" fill="#7a9ece" stroke="#7a9ece" stroke-width="1.51"/><path d="M1288,335L1176,339L1262,393Z" fill="#5c8fc4" stroke="#5c8fc4" stroke-width="1.51"/><path d="M1097,918L1197,846L1109,835Z" fill="#1b66ac" stroke="#1b66ac" stroke-width="1.51"/><path d="M1358,403L1288,335L1262,393Z" fill="#5689bf" stroke="#5689bf" stroke-width="1.51"/><path d="M412,824L427,914L490,854Z" fill="#6b91c4" stroke="#6b91c4" stroke-width="1.51"/><path d="M323,686L320,771L421,758Z" fill="#7aa3d1" stroke="#7aa3d1" stroke-width="1.51"/><path d="M233,741L320,771L323,686Z" fill="#80a6d3" stroke="#80a6d3" stroke-width="1.51"/><path d="M326,409L261,410L334,476Z" fill="#9cc5e3" stroke="#9cc5e3" stroke-width="1.51"/><path d="M342,338L261,410L326,409Z" fill="#a3c9e4" stroke="#a3c9e4" stroke-width="1.51"/><path d="M240,310L261,410L342,338Z" fill="#abcee6" stroke="#abcee6" stroke-width="1.51"/><path d="M753,-35L696,45L773,41Z" fill="#a4cae5" stroke="#a4cae5" stroke-width="1.51"/><path d="M572,57L486,-39L511,81Z" fill="#bad7ea" stroke="#bad7ea" stroke-width="1.51"/><path d="M428,165L339,214L416,234Z" fill="#b5d4e9" stroke="#b5d4e9" stroke-width="1.51"/><path d="M345,128L339,214L428,165Z" fill="#bcd6eb" stroke="#bcd6eb" stroke-width="1.51"/><path d="M513,945L572,1027L585,908Z" fill="#5980b3" stroke="#5980b3" stroke-width="1.51"/><path d="M333,846L427,914L412,824Z" fill="#7094c5" stroke="#7094c5" stroke-width="1.51"/><path d="M845,1015L931,1032L949,924Z" fill="#2e68a3" stroke="#2e68a3" stroke-width="1.51"/><path d="M742,1025L931,1032L845,1015Z" fill="#3468a0" stroke="#3468a0" stroke-width="1.51"/><path d="M492,1033L931,1032L742,1025Z" fill="#406fa3" stroke="#406fa3" stroke-width="1.51"/><path d="M1197,846L1262,772L1204,739Z" fill="#1c68ae" stroke="#1c68ae" stroke-width="1.51"/><path d="M1268,666L1349,588L1266,587Z" fill="#2d75b4" stroke="#2d75b4" stroke-width="1.51"/><path d="M233,497L247,564L334,476Z" fill="#95bfe0" stroke="#95bfe0" stroke-width="1.51"/><path d="M858,-9L753,-35L773,41Z" fill="#a2c7e4" stroke="#a2c7e4" stroke-width="1.51"/><path d="M1182,163L1123,72L1089,140Z" fill="#83a7d4" stroke="#83a7d4" stroke-width="1.51"/><path d="M261,410L233,497L334,476Z" fill="#9ac4e2" stroke="#9ac4e2" stroke-width="1.51"/><path d="M931,1032L1041,1004L949,924Z" fill="#2764a2" stroke="#2764a2" stroke-width="1.51"/><path d="M1186,937L1260,841L1197,846Z" fill="#165fa7" stroke="#165fa7" stroke-width="1.51"/><path d="M679,-15L583,-5L696,45Z" fill="#aed0e8" stroke="#aed0e8" stroke-width="1.51"/><path d="M400,53L345,128L428,165Z" fill="#bfd8ec" stroke="#bfd8ec" stroke-width="1.51"/><path d="M611,-108L583,-5L679,-15Z" fill="#b5d4ea" stroke="#b5d4ea" stroke-width="1.51"/><path d="M670,1023L572,1027L742,1025Z" fill="#4873a5" stroke="#4873a5" stroke-width="1.51"/><path d="M492,1033L572,1027L513,945Z" fill="#5a7dad" stroke="#5a7dad" stroke-width="1.51"/><path d="M320,771L333,846L412,824Z" fill="#769bcb" stroke="#769bcb" stroke-width="1.51"/><path d="M437,1008L492,1033L513,945Z" fill="#6081b0" stroke="#6081b0" stroke-width="1.51"/><path d="M261,826L333,846L320,771Z" fill="#7b9dcd" stroke="#7b9dcd" stroke-width="1.51"/><path d="M1386,651L1349,588L1268,666Z" fill="#2a70b1" stroke="#2a70b1" stroke-width="1.51"/><path d="M1291,474L1358,403L1262,393Z" fill="#4d85bd" stroke="#4d85bd" stroke-width="1.51"/><path d="M1349,588L1360,471L1291,474Z" fill="#3d7bb8" stroke="#3d7bb8" stroke-width="1.51"/><path d="M1370,745L1386,651L1268,666Z" fill="#226aad" stroke="#226aad" stroke-width="1.51"/><path d="M1197,846L1260,841L1262,772Z" fill="#1963aa" stroke="#1963aa" stroke-width="1.51"/><path d="M1186,937L1197,846L1097,918Z" fill="#1761a8" stroke="#1761a8" stroke-width="1.51"/><path d="M1288,335L1297,240L1181,225Z" fill="#6b95c7" stroke="#6b95c7" stroke-width="1.51"/><path d="M1182,163L1208,82L1123,72Z" fill="#83a4d2" stroke="#83a4d2" stroke-width="1.51"/><path d="M1382,317L1297,240L1288,335Z" fill="#648fc1" stroke="#648fc1" stroke-width="1.51"/><path d="M1039,-38L941,-47L1005,74Z" fill="#94b9dc" stroke="#94b9dc" stroke-width="1.51"/><path d="M858,-9L779,-101L753,-35Z" fill="#a6c9e5" stroke="#a6c9e5" stroke-width="1.51"/><path d="M1360,471L1358,403L1291,474Z" fill="#4681bb" stroke="#4681bb" stroke-width="1.51"/><path d="M339,214L240,310L342,338Z" fill="#b2d2e8" stroke="#b2d2e8" stroke-width="1.51"/><path d="M261,410L164,421L233,497Z" fill="#a0c7e5" stroke="#a0c7e5" stroke-width="1.51"/><path d="M177,599L231,686L247,564Z" fill="#8db7db" stroke="#8db7db" stroke-width="1.51"/><path d="M247,564L231,686L323,686Z" fill="#88b1d9" stroke="#88b1d9" stroke-width="1.51"/><path d="M1109,1013L1186,937L1097,918Z" fill="#195ca1" stroke="#195ca1" stroke-width="1.51"/><path d="M339,214L233,252L240,310Z" fill="#b9d5ea" stroke="#b9d5ea" stroke-width="1.51"/><path d="M400,53L489,152L511,81Z" fill="#bad7ea" stroke="#bad7ea" stroke-width="1.51"/><path d="M1041,1004L1109,1013L1097,918Z" fill="#1e5d9e" stroke="#1e5d9e" stroke-width="1.51"/><path d="M931,1032L1109,1013L1041,1004Z" fill="#235d9a" stroke="#235d9a" stroke-width="1.51"/><path d="M437,1008L513,945L427,914Z" fill="#6486b7" stroke="#6486b7" stroke-width="1.51"/><path d="M572,1027L492,1033L742,1025Z" fill="#5076a6" stroke="#5076a6" stroke-width="1.51"/><path d="M486,-39L400,53L511,81Z" fill="#bfdaec" stroke="#bfdaec" stroke-width="1.51"/><path d="M352,937L437,1008L427,914Z" fill="#6a88b9" stroke="#6a88b9" stroke-width="1.51"/><path d="M231,686L233,741L323,686Z" fill="#84aad5" stroke="#84aad5" stroke-width="1.51"/><path d="M1108,-4L1039,-38L1005,74Z" fill="#90b3da" stroke="#90b3da" stroke-width="1.51"/><path d="M1266,130L1208,82L1182,163Z" fill="#7fa0cf" stroke="#7fa0cf" stroke-width="1.51"/><path d="M1108,-4L1005,74L1123,72Z" fill="#8cafd8" stroke="#8cafd8" stroke-width="1.51"/><path d="M1204,-27L1108,-4L1123,72Z" fill="#8babd6" stroke="#8babd6" stroke-width="1.51"/><path d="M352,937L427,914L333,846Z" fill="#7090c3" stroke="#7090c3" stroke-width="1.51"/><path d="M244,927L352,937L333,846Z" fill="#7692c5" stroke="#7692c5" stroke-width="1.51"/><path d="M258,128L233,252L339,214Z" fill="#c0d8ec" stroke="#c0d8ec" stroke-width="1.51"/><path d="M143,485L177,599L233,497Z" fill="#99c1e1" stroke="#99c1e1" stroke-width="1.51"/><path d="M233,497L177,599L247,564Z" fill="#94bddf" stroke="#94bddf" stroke-width="1.51"/><path d="M258,128L339,214L345,128Z" fill="#c3daed" stroke="#c3daed" stroke-width="1.51"/><path d="M1208,82L1204,-27L1123,72Z" fill="#88a7d4" stroke="#88a7d4" stroke-width="1.51"/><path d="M1297,240L1266,130L1181,225Z" fill="#759aca" stroke="#759aca" stroke-width="1.51"/><path d="M1351,165L1266,130L1297,240Z" fill="#7696c7" stroke="#7696c7" stroke-width="1.51"/><path d="M753,-35L673,-120L679,-15Z" fill="#aed0e9" stroke="#aed0e9" stroke-width="1.51"/><path d="M583,-5L486,-39L572,57Z" fill="#b9d7eb" stroke="#b9d7eb" stroke-width="1.51"/><path d="M838,-107L779,-101L858,-9Z" fill="#a5c8e5" stroke="#a5c8e5" stroke-width="1.51"/><path d="M838,-107L858,-9L920,-112Z" fill="#a2c6e3" stroke="#a2c6e3" stroke-width="1.51"/><path d="M233,741L261,826L320,771Z" fill="#7fa1d1" stroke="#7fa1d1" stroke-width="1.51"/><path d="M1451,474L1446,423L1360,471Z" fill="#4379b2" stroke="#4379b2" stroke-width="1.51"/><path d="M1446,423L1382,317L1358,403Z" fill="#5282b8" stroke="#5282b8" stroke-width="1.51"/><path d="M1370,745L1268,666L1262,772Z" fill="#1e68ae" stroke="#1e68ae" stroke-width="1.51"/><path d="M164,421L261,410L240,310Z" fill="#aacde6" stroke="#aacde6" stroke-width="1.51"/><path d="M231,686L146,747L233,741Z" fill="#86aad5" stroke="#86aad5" stroke-width="1.51"/><path d="M233,741L158,843L261,826Z" fill="#81a0d0" stroke="#81a0d0" stroke-width="1.51"/><path d="M920,-112L858,-9L941,-47Z" fill="#9ec2e1" stroke="#9ec2e1" stroke-width="1.51"/><path d="M1358,403L1382,317L1288,335Z" fill="#5988be" stroke="#5988be" stroke-width="1.51"/><path d="M1446,423L1358,403L1360,471Z" fill="#487eb7" stroke="#487eb7" stroke-width="1.51"/><path d="M1366,821L1370,745L1262,772Z" fill="#1760a8" stroke="#1760a8" stroke-width="1.51"/><path d="M1186,937L1289,930L1260,841Z" fill="#115aa3" stroke="#115aa3" stroke-width="1.51"/><path d="M1109,1013L1191,990L1186,937Z" fill="#16579b" stroke="#16579b" stroke-width="1.51"/><path d="M515,-94L486,-39L583,-5Z" fill="#c0dbec" stroke="#c0dbec" stroke-width="1.51"/><path d="M1366,821L1262,772L1260,841Z" fill="#165fa7" stroke="#165fa7" stroke-width="1.51"/><path d="M147,328L164,421L240,310Z" fill="#b0d1e8" stroke="#b0d1e8" stroke-width="1.51"/><path d="M1009,-92L941,-47L1039,-38Z" fill="#99bbde" stroke="#99bbde" stroke-width="1.51"/><path d="M1009,-92L920,-112L941,-47Z" fill="#9dc0e0" stroke="#9dc0e0" stroke-width="1.51"/><path d="M920,-112L673,-120L838,-107Z" fill="#aacce6" stroke="#aacce6" stroke-width="1.51"/><path d="M838,-107L673,-120L779,-101Z" fill="#aecee8" stroke="#aecee8" stroke-width="1.51"/><path d="M779,-101L673,-120L753,-35Z" fill="#aecfe8" stroke="#aecfe8" stroke-width="1.51"/><path d="M1094,-98L1009,-92L1039,-38Z" fill="#98b8dc" stroke="#98b8dc" stroke-width="1.51"/><path d="M1094,-98L1039,-38L1108,-4Z" fill="#94b4da" stroke="#94b4da" stroke-width="1.51"/><path d="M177,599L163,665L231,686Z" fill="#8db3da" stroke="#8db3da" stroke-width="1.51"/><path d="M79,559L163,665L177,599Z" fill="#93bbdd" stroke="#93bbdd" stroke-width="1.51"/><path d="M673,-120L611,-108L679,-15Z" fill="#b5d4ea" stroke="#b5d4ea" stroke-width="1.51"/><path d="M412,-29L346,41L400,53Z" fill="#c7ddef" stroke="#c7ddef" stroke-width="1.51"/><path d="M400,53L346,41L345,128Z" fill="#c5dcee" stroke="#c5dcee" stroke-width="1.51"/><path d="M164,421L143,485L233,497Z" fill="#9fc7e4" stroke="#9fc7e4" stroke-width="1.51"/><path d="M1266,130L1264,71L1208,82Z" fill="#809fce" stroke="#809fce" stroke-width="1.51"/><path d="M1352,67L1264,71L1266,130Z" fill="#7f9bcb" stroke="#7f9bcb" stroke-width="1.51"/><path d="M176,236L147,328L240,310Z" fill="#b9d6ea" stroke="#b9d6ea" stroke-width="1.51"/><path d="M76,398L70,476L143,485Z" fill="#a6cbe6" stroke="#a6cbe6" stroke-width="1.51"/><path d="M346,41L258,128L345,128Z" fill="#c8dcef" stroke="#c8dcef" stroke-width="1.51"/><path d="M1191,990L1289,930L1186,937Z" fill="#13569c" stroke="#13569c" stroke-width="1.51"/><path d="M352,937L347,996L437,1008Z" fill="#6a86b5" stroke="#6a86b5" stroke-width="1.51"/><path d="M437,1008L347,996L492,1033Z" fill="#6480ae" stroke="#6480ae" stroke-width="1.51"/><path d="M244,927L347,996L352,937Z" fill="#728cbc" stroke="#728cbc" stroke-width="1.51"/><path d="M244,927L333,846L261,826Z" fill="#7a97c8" stroke="#7a97c8" stroke-width="1.51"/><path d="M1370,745L1449,647L1386,651Z" fill="#2265a8" stroke="#2265a8" stroke-width="1.51"/><path d="M1289,930L1366,821L1260,841Z" fill="#1259a3" stroke="#1259a3" stroke-width="1.51"/><path d="M346,41L242,42L258,128Z" fill="#cddff1" stroke="#cddff1" stroke-width="1.51"/><path d="M486,-39L412,-29L400,53Z" fill="#c5ddee" stroke="#c5ddee" stroke-width="1.51"/><path d="M428,-97L412,-29L486,-39Z" fill="#c9dfef" stroke="#c9dfef" stroke-width="1.51"/><path d="M1380,217L1351,165L1297,240Z" fill="#7092c4" stroke="#7092c4" stroke-width="1.51"/><path d="M1382,317L1380,217L1297,240Z" fill="#698ec1" stroke="#698ec1" stroke-width="1.51"/><path d="M428,-97L515,-94L611,-108Z" fill="#c5deee" stroke="#c5deee" stroke-width="1.51"/><path d="M611,-108L515,-94L583,-5Z" fill="#bdd9ec" stroke="#bdd9ec" stroke-width="1.51"/><path d="M1382,317L1448,228L1380,217Z" fill="#678abc" stroke="#678abc" stroke-width="1.51"/><path d="M1451,474L1360,471L1349,588Z" fill="#3b77b4" stroke="#3b77b4" stroke-width="1.51"/><path d="M1451,474L1349,588L1458,601Z" fill="#3471ad" stroke="#3471ad" stroke-width="1.51"/><path d="M1458,601L1349,588L1386,651Z" fill="#2a6dad" stroke="#2a6dad" stroke-width="1.51"/><path d="M176,236L240,310L233,252Z" fill="#bbd7eb" stroke="#bbd7eb" stroke-width="1.51"/><path d="M164,168L176,236L233,252Z" fill="#c2daed" stroke="#c2daed" stroke-width="1.51"/><path d="M1467,770L1449,647L1370,745Z" fill="#1c5fa3" stroke="#1c5fa3" stroke-width="1.51"/><path d="M1449,647L1458,601L1386,651Z" fill="#2868a7" stroke="#2868a7" stroke-width="1.51"/><path d="M1290,-19L1204,-27L1264,71Z" fill="#88a3d0" stroke="#88a3d0" stroke-width="1.51"/><path d="M1264,71L1204,-27L1208,82Z" fill="#86a3d0" stroke="#86a3d0" stroke-width="1.51"/><path d="M1009,-92L1094,-98L920,-112Z" fill="#9cbcde" stroke="#9cbcde" stroke-width="1.51"/><path d="M1204,-27L1094,-98L1108,-4Z" fill="#91afd8" stroke="#91afd8" stroke-width="1.51"/><path d="M163,665L146,747L231,686Z" fill="#8aaed7" stroke="#8aaed7" stroke-width="1.51"/><path d="M55,681L146,747L163,665Z" fill="#8eb0d8" stroke="#8eb0d8" stroke-width="1.51"/><path d="M158,843L244,927L261,826Z" fill="#7e99c9" stroke="#7e99c9" stroke-width="1.51"/><path d="M1446,423L1459,318L1382,317Z" fill="#5781b5" stroke="#5781b5" stroke-width="1.51"/><path d="M1466,147L1352,67L1351,165Z" fill="#7892c3" stroke="#7892c3" stroke-width="1.51"/><path d="M1557,397L1459,318L1446,423Z" fill="#5079ad" stroke="#5079ad" stroke-width="1.51"/><path d="M1531,493L1446,423L1451,474Z" fill="#4073ab" stroke="#4073ab" stroke-width="1.51"/><path d="M428,-97L333,-26L412,-29Z" fill="#cde1f0" stroke="#cde1f0" stroke-width="1.51"/><path d="M412,-29L333,-26L346,41Z" fill="#cbe0f0" stroke="#cbe0f0" stroke-width="1.51"/><path d="M258,128L164,168L233,252Z" fill="#c6dbef" stroke="#c6dbef" stroke-width="1.51"/><path d="M515,-94L428,-97L486,-39Z" fill="#c7dfef" stroke="#c7dfef" stroke-width="1.51"/><path d="M673,-120L428,-97L611,-108Z" fill="#c0dbed" stroke="#c0dbed" stroke-width="1.51"/><path d="M143,485L79,559L177,599Z" fill="#99c0e1" stroke="#99c0e1" stroke-width="1.51"/><path d="M70,476L79,559L143,485Z" fill="#a0c5e3" stroke="#a0c5e3" stroke-width="1.51"/><path d="M169,40L164,168L258,128Z" fill="#cee0f2" stroke="#cee0f2" stroke-width="1.51"/><path d="M78,220L55,321L147,328Z" fill="#bedaec" stroke="#bedaec" stroke-width="1.51"/><path d="M76,398L143,485L164,421Z" fill="#a7cce6" stroke="#a7cce6" stroke-width="1.51"/><path d="M146,747L158,843L233,741Z" fill="#85a5d2" stroke="#85a5d2" stroke-width="1.51"/><path d="M68,768L158,843L146,747Z" fill="#87a6d2" stroke="#87a6d2" stroke-width="1.51"/><path d="M76,398L164,421L147,328Z" fill="#afd0e8" stroke="#afd0e8" stroke-width="1.51"/><path d="M1204,-27L1204,-92L1094,-98Z" fill="#92aed7" stroke="#92aed7" stroke-width="1.51"/><path d="M1351,165L1352,67L1266,130Z" fill="#7b98c8" stroke="#7b98c8" stroke-width="1.51"/><path d="M1466,147L1351,165L1380,217Z" fill="#738ec0" stroke="#738ec0" stroke-width="1.51"/><path d="M169,40L242,42L174,-47Z" fill="#d6e5f4" stroke="#d6e5f4" stroke-width="1.51"/><path d="M333,-26L242,42L346,41Z" fill="#cfe1f2" stroke="#cfe1f2" stroke-width="1.51"/><path d="M1459,318L1448,228L1382,317Z" fill="#6286b8" stroke="#6286b8" stroke-width="1.51"/><path d="M55,321L76,398L147,328Z" fill="#b6d5e9" stroke="#b6d5e9" stroke-width="1.51"/><path d="M1289,930L1387,942L1366,821Z" fill="#0b539e" stroke="#0b539e" stroke-width="1.51"/><path d="M1366,821L1467,770L1370,745Z" fill="#155ba2" stroke="#155ba2" stroke-width="1.51"/><path d="M1191,990L1295,1026L1289,930Z" fill="#115095" stroke="#115095" stroke-width="1.51"/><path d="M1109,1013L1295,1026L1191,990Z" fill="#145194" stroke="#145194" stroke-width="1.51"/><path d="M931,1032L1295,1026L1109,1013Z" fill="#1a5696" stroke="#1a5696" stroke-width="1.51"/><path d="M1458,601L1531,493L1451,474Z" fill="#386ea7" stroke="#386ea7" stroke-width="1.51"/><path d="M1541,589L1531,493L1458,601Z" fill="#3168a2" stroke="#3168a2" stroke-width="1.51"/><path d="M1458,826L1467,770L1366,821Z" fill="#13569d" stroke="#13569d" stroke-width="1.51"/><path d="M1352,67L1290,-19L1264,71Z" fill="#839dcc" stroke="#839dcc" stroke-width="1.51"/><path d="M1094,-98L1262,-111L920,-112Z" fill="#99b6db" stroke="#99b6db" stroke-width="1.51"/><path d="M1262,-111L1204,-92L1204,-27Z" fill="#90a9d4" stroke="#90a9d4" stroke-width="1.51"/><path d="M1379,993L1387,942L1289,930Z" fill="#0a4c94" stroke="#0a4c94" stroke-width="1.51"/><path d="M1464,904L1458,826L1366,821Z" fill="#0e5199" stroke="#0e5199" stroke-width="1.51"/><path d="M1458,601L1449,647L1542,657Z" fill="#2763a2" stroke="#2763a2" stroke-width="1.51"/><path d="M1541,589L1458,601L1542,657Z" fill="#28639f" stroke="#28639f" stroke-width="1.51"/><path d="M1522,154L1466,147L1448,228Z" fill="#6f88b6" stroke="#6f88b6" stroke-width="1.51"/><path d="M165,935L226,1001L244,927Z" fill="#798fbe" stroke="#798fbe" stroke-width="1.51"/><path d="M244,927L226,1001L347,996Z" fill="#758aba" stroke="#758aba" stroke-width="1.51"/><path d="M347,996L226,1001L492,1033Z" fill="#6b83b1" stroke="#6b83b1" stroke-width="1.51"/><path d="M79,559L55,681L163,665Z" fill="#93b8dc" stroke="#93b8dc" stroke-width="1.51"/><path d="M158,843L165,935L244,927Z" fill="#7e96c7" stroke="#7e96c7" stroke-width="1.51"/><path d="M-6,656L55,681L79,559Z" fill="#97bbde" stroke="#97bbde" stroke-width="1.51"/><path d="M82,915L165,935L158,843Z" fill="#8198c9" stroke="#8198c9" stroke-width="1.51"/><path d="M70,476L-12,505L79,559Z" fill="#a2c7e4" stroke="#a2c7e4" stroke-width="1.51"/><path d="M-17,388L-12,505L70,476Z" fill="#aacee7" stroke="#aacee7" stroke-width="1.51"/><path d="M78,220L147,328L176,236Z" fill="#c0daec" stroke="#c0daec" stroke-width="1.51"/><path d="M78,220L176,236L164,168Z" fill="#c7ddef" stroke="#c7ddef" stroke-width="1.51"/><path d="M1542,657L1449,647L1530,742Z" fill="#215c9c" stroke="#215c9c" stroke-width="1.51"/><path d="M1387,942L1464,904L1366,821Z" fill="#0a4f98" stroke="#0a4f98" stroke-width="1.51"/><path d="M1295,1026L1379,993L1289,930Z" fill="#0d4b91" stroke="#0d4b91" stroke-width="1.51"/><path d="M55,681L68,768L146,747Z" fill="#8dadd7" stroke="#8dadd7" stroke-width="1.51"/><path d="M65,136L78,220L164,168Z" fill="#cde0f1" stroke="#cde0f1" stroke-width="1.51"/><path d="M1530,742L1449,647L1467,770Z" fill="#1c5b9d" stroke="#1c5b9d" stroke-width="1.51"/><path d="M1530,742L1467,770L1533,843Z" fill="#145295" stroke="#145295" stroke-width="1.51"/><path d="M1542,229L1448,228L1459,318Z" fill="#6483b3" stroke="#6483b3" stroke-width="1.51"/><path d="M1448,228L1466,147L1380,217Z" fill="#6e8abb" stroke="#6e8abb" stroke-width="1.51"/><path d="M1355,-40L1262,-111L1290,-19Z" fill="#8ca2cf" stroke="#8ca2cf" stroke-width="1.51"/><path d="M242,42L169,40L258,128Z" fill="#d0e1f2" stroke="#d0e1f2" stroke-width="1.51"/><path d="M244,-47L242,42L333,-26Z" fill="#d4e4f4" stroke="#d4e4f4" stroke-width="1.51"/><path d="M1533,843L1467,770L1458,826Z" fill="#125196" stroke="#125196" stroke-width="1.51"/><path d="M1542,657L1557,397L1541,589Z" fill="#32679f" stroke="#32679f" stroke-width="1.51"/><path d="M1541,589L1557,397L1531,493Z" fill="#3a6ba2" stroke="#3a6ba2" stroke-width="1.51"/><path d="M1531,493L1557,397L1446,423Z" fill="#4473a8" stroke="#4473a8" stroke-width="1.51"/><path d="M310,-108L244,-47L333,-26Z" fill="#d6e5f5" stroke="#d6e5f5" stroke-width="1.51"/><path d="M428,-97L310,-108L333,-26Z" fill="#d2e4f3" stroke="#d2e4f3" stroke-width="1.51"/><path d="M673,-120L310,-108L428,-97Z" fill="#cae1f0" stroke="#cae1f0" stroke-width="1.51"/><path d="M1290,-19L1262,-111L1204,-27Z" fill="#8da6d1" stroke="#8da6d1" stroke-width="1.51"/><path d="M1204,-92L1262,-111L1094,-98Z" fill="#94aed7" stroke="#94aed7" stroke-width="1.51"/><path d="M920,-112L1453,-129L673,-120Z" fill="#9ebddf" stroke="#9ebddf" stroke-width="1.51"/><path d="M1355,-40L1290,-19L1352,67Z" fill="#859ccb" stroke="#859ccb" stroke-width="1.51"/><path d="M1434,1010L1464,904L1387,942Z" fill="#09478d" stroke="#09478d" stroke-width="1.51"/><path d="M79,990L171,1001L165,935Z" fill="#7c8fbc" stroke="#7c8fbc" stroke-width="1.51"/><path d="M165,935L171,1001L226,1001Z" fill="#798cba" stroke="#798cba" stroke-width="1.51"/><path d="M226,1001L171,1001L492,1033Z" fill="#7085b2" stroke="#7085b2" stroke-width="1.51"/><path d="M1452,46L1355,-40L1352,67Z" fill="#8297c7" stroke="#8297c7" stroke-width="1.51"/><path d="M1557,397L1558,320L1459,318Z" fill="#5479aa" stroke="#5479aa" stroke-width="1.51"/><path d="M-17,388L70,476L76,398Z" fill="#aed0e8" stroke="#aed0e8" stroke-width="1.51"/><path d="M4,752L57,844L68,768Z" fill="#8ca8d4" stroke="#8ca8d4" stroke-width="1.51"/><path d="M-17,388L76,398L55,321Z" fill="#b6d5ea" stroke="#b6d5ea" stroke-width="1.51"/><path d="M68,768L57,844L158,843Z" fill="#88a3d0" stroke="#88a3d0" stroke-width="1.51"/><path d="M4,752L68,768L55,681Z" fill="#8fafd8" stroke="#8fafd8" stroke-width="1.51"/><path d="M1558,320L1542,229L1459,318Z" fill="#5e7ead" stroke="#5e7ead" stroke-width="1.51"/><path d="M1466,147L1452,46L1352,67Z" fill="#7b90c0" stroke="#7b90c0" stroke-width="1.51"/><path d="M-28,590L-6,656L79,559Z" fill="#9bbfe0" stroke="#9bbfe0" stroke-width="1.51"/><path d="M1541,70L1452,46L1466,147Z" fill="#788bb9" stroke="#788bb9" stroke-width="1.51"/><path d="M310,-108L256,-103L244,-47Z" fill="#dae8f6" stroke="#dae8f6" stroke-width="1.51"/><path d="M244,-47L174,-47L242,42Z" fill="#d7e6f5" stroke="#d7e6f5" stroke-width="1.51"/><path d="M57,844L82,915L158,843Z" fill="#859dcc" stroke="#859dcc" stroke-width="1.51"/><path d="M-12,505L-28,590L79,559Z" fill="#a0c4e2" stroke="#a0c4e2" stroke-width="1.51"/><path d="M-36,338L-17,388L55,321Z" fill="#bbd8eb" stroke="#bbd8eb" stroke-width="1.51"/><path d="M-36,338L55,321L-22,216Z" fill="#c4ddee" stroke="#c4ddee" stroke-width="1.51"/><path d="M169,40L65,136L164,168Z" fill="#d1e2f3" stroke="#d1e2f3" stroke-width="1.51"/><path d="M73,46L65,136L169,40Z" fill="#d7e6f5" stroke="#d7e6f5" stroke-width="1.51"/><path d="M1542,657L1561,992L1557,397Z" fill="#205997" stroke="#205997" stroke-width="1.51"/><path d="M1530,742L1533,843L1542,657Z" fill="#175495" stroke="#175495" stroke-width="1.51"/><path d="M1464,904L1533,843L1458,826Z" fill="#0e4d92" stroke="#0e4d92" stroke-width="1.51"/><path d="M1527,905L1533,843L1464,904Z" fill="#0b488d" stroke="#0b488d" stroke-width="1.51"/><path d="M1379,993L1434,1010L1387,942Z" fill="#09468b" stroke="#09468b" stroke-width="1.51"/><path d="M1295,1026L1434,1010L1379,993Z" fill="#09458a" stroke="#09458a" stroke-width="1.51"/><path d="M1542,229L1522,154L1448,228Z" fill="#6a84b3" stroke="#6a84b3" stroke-width="1.51"/><path d="M-95,560L-28,590L-12,505Z" fill="#a4c7e3" stroke="#a4c7e3" stroke-width="1.51"/><path d="M-24,906L79,990L82,915Z" fill="#8496c4" stroke="#8496c4" stroke-width="1.51"/><path d="M-6,656L4,752L55,681Z" fill="#94b4da" stroke="#94b4da" stroke-width="1.51"/><path d="M-99,766L4,752L-6,656Z" fill="#95b3da" stroke="#95b3da" stroke-width="1.51"/><path d="M256,-103L174,-47L244,-47Z" fill="#dbe9f6" stroke="#dbe9f6" stroke-width="1.51"/><path d="M1561,992L1527,905L1464,904Z" fill="#094286" stroke="#094286" stroke-width="1.51"/><path d="M-113,409L-95,508L-12,505Z" fill="#aecfe8" stroke="#aecfe8" stroke-width="1.51"/><path d="M-22,216L55,321L78,220Z" fill="#c7deee" stroke="#c7deee" stroke-width="1.51"/><path d="M1452,46L1439,-35L1355,-40Z" fill="#8396c4" stroke="#8396c4" stroke-width="1.51"/><path d="M1355,-40L1387,-106L1262,-111Z" fill="#8da1cd" stroke="#8da1cd" stroke-width="1.51"/><path d="M1559,-21L1439,-35L1452,46Z" fill="#7f90bb" stroke="#7f90bb" stroke-width="1.51"/><path d="M65,136L-22,216L78,220Z" fill="#cfe1f1" stroke="#cfe1f1" stroke-width="1.51"/><path d="M73,-14L73,46L169,40Z" fill="#dae9f6" stroke="#dae9f6" stroke-width="1.51"/><path d="M-5,857L82,915L57,844Z" fill="#889fcc" stroke="#889fcc" stroke-width="1.51"/><path d="M82,915L79,990L165,935Z" fill="#8093c1" stroke="#8093c1" stroke-width="1.51"/><path d="M1439,-35L1387,-106L1355,-40Z" fill="#889ac8" stroke="#889ac8" stroke-width="1.51"/><path d="M-20,128L-22,216L65,136Z" fill="#d4e5f4" stroke="#d4e5f4" stroke-width="1.51"/><path d="M4,752L-5,857L57,844Z" fill="#8ca6d2" stroke="#8ca6d2" stroke-width="1.51"/><path d="M-24,906L-5,857L-92,817Z" fill="#8ea3cf" stroke="#8ea3cf" stroke-width="1.51"/><path d="M1439,-35L1453,-129L1387,-106Z" fill="#8999c4" stroke="#8999c4" stroke-width="1.51"/><path d="M1522,154L1541,70L1466,147Z" fill="#7488b4" stroke="#7488b4" stroke-width="1.51"/><path d="M1542,229L1541,70L1522,154Z" fill="#7084b1" stroke="#7084b1" stroke-width="1.51"/><path d="M1559,-21L1541,70L1542,229Z" fill="#7585b1" stroke="#7585b1" stroke-width="1.51"/><path d="M-113,409L-12,505L-17,388Z" fill="#b1d2e9" stroke="#b1d2e9" stroke-width="1.51"/><path d="M-28,590L-123,676L-6,656Z" fill="#9cbddf" stroke="#9cbddf" stroke-width="1.51"/><path d="M-113,409L-17,388L-36,338Z" fill="#bad7eb" stroke="#bad7eb" stroke-width="1.51"/><path d="M-95,508L-95,560L-12,505Z" fill="#a8cae5" stroke="#a8cae5" stroke-width="1.51"/><path d="M51,-98L73,-14L174,-47Z" fill="#e1ecf8" stroke="#e1ecf8" stroke-width="1.51"/><path d="M174,-47L73,-14L169,40Z" fill="#dbe8f6" stroke="#dbe8f6" stroke-width="1.51"/><path d="M73,46L-20,128L65,136Z" fill="#d8e6f5" stroke="#d8e6f5" stroke-width="1.51"/><path d="M256,-103L156,-120L174,-47Z" fill="#deebf7" stroke="#deebf7" stroke-width="1.51"/><path d="M310,-108L156,-120L256,-103Z" fill="#deeaf7" stroke="#deeaf7" stroke-width="1.51"/><path d="M673,-120L156,-120L310,-108Z" fill="#d3e5f3" stroke="#d3e5f3" stroke-width="1.51"/><path d="M-31,61L-20,128L73,46Z" fill="#dce9f6" stroke="#dce9f6" stroke-width="1.51"/><path d="M-117,301L-113,409L-36,338Z" fill="#c1dced" stroke="#c1dced" stroke-width="1.51"/><path d="M-5,857L-24,906L82,915Z" fill="#889dcb" stroke="#889dcb" stroke-width="1.51"/><path d="M-92,817L-5,857L4,752Z" fill="#90a9d4" stroke="#90a9d4" stroke-width="1.51"/><path d="M-95,508L-123,676L-95,560Z" fill="#a4c6e3" stroke="#a4c6e3" stroke-width="1.51"/><path d="M-117,301L-36,338L-22,216Z" fill="#c8e0ef" stroke="#c8e0ef" stroke-width="1.51"/><path d="M1434,1010L1561,992L1464,904Z" fill="#094084" stroke="#094084" stroke-width="1.51"/><path d="M1527,905L1561,992L1533,843Z" fill="#084287" stroke="#084287" stroke-width="1.51"/><path d="M1533,843L1561,992L1542,657Z" fill="#104b8e" stroke="#104b8e" stroke-width="1.51"/><path d="M1557,397L1561,992L1558,320Z" fill="#2f649c" stroke="#2f649c" stroke-width="1.51"/><path d="M-123,676L-99,766L-6,656Z" fill="#99b7dc" stroke="#99b7dc" stroke-width="1.51"/><path d="M-123,676L-28,590L-95,560Z" fill="#a0c2e1" stroke="#a0c2e1" stroke-width="1.51"/><path d="M1524,-101L1453,-129L1439,-35Z" fill="#8795bf" stroke="#8795bf" stroke-width="1.51"/><path d="M1387,-106L1453,-129L1262,-111Z" fill="#8e9fcc" stroke="#8e9fcc" stroke-width="1.51"/><path d="M1262,-111L1453,-129L920,-112Z" fill="#94acd6" stroke="#94acd6" stroke-width="1.51"/><path d="M673,-120L-2,-122L156,-120Z" fill="#dce9f6" stroke="#dce9f6" stroke-width="1.51"/><path d="M-113,409L-123,676L-95,508Z" fill="#aacbe6" stroke="#aacbe6" stroke-width="1.51"/><path d="M-113,409L-122,249L-123,676Z" fill="#b4d3ea" stroke="#b4d3ea" stroke-width="1.51"/><path d="M-122,249L-117,301L-22,216Z" fill="#cde3f1" stroke="#cde3f1" stroke-width="1.51"/><path d="M-97,909L-92,817L-99,766Z" fill="#92a8d3" stroke="#92a8d3" stroke-width="1.51"/><path d="M-99,766L-92,817L4,752Z" fill="#94add7" stroke="#94add7" stroke-width="1.51"/><path d="M-111,149L-122,249L-22,216Z" fill="#d4e6f3" stroke="#d4e6f3" stroke-width="1.51"/><path d="M-1,-21L-31,61L73,46Z" fill="#dfebf7" stroke="#dfebf7" stroke-width="1.51"/><path d="M-1,-21L73,46L73,-14Z" fill="#dfebf8" stroke="#dfebf8" stroke-width="1.51"/><path d="M1541,70L1559,-21L1452,46Z" fill="#7b8bb6" stroke="#7b8bb6" stroke-width="1.51"/><path d="M1558,320L1559,-21L1542,229Z" fill="#6c81ae" stroke="#6c81ae" stroke-width="1.51"/><path d="M1561,992L1559,-21L1558,320Z" fill="#4370a2" stroke="#4370a2" stroke-width="1.51"/><path d="M-117,301L-122,249L-113,409Z" fill="#c6dfee" stroke="#c6dfee" stroke-width="1.51"/><path d="M-111,149L-22,216L-20,128Z" fill="#d7e6f4" stroke="#d7e6f4" stroke-width="1.51"/><path d="M-112,73L-111,149L-20,128Z" fill="#deeaf7" stroke="#deeaf7" stroke-width="1.51"/><path d="M51,-98L-1,-21L73,-14Z" fill="#e4eef9" stroke="#e4eef9" stroke-width="1.51"/><path d="M156,-120L51,-98L174,-47Z" fill="#e2edf8" stroke="#e2edf8" stroke-width="1.51"/><path d="M1559,-21L1524,-101L1439,-35Z" fill="#8290ba" stroke="#8290ba" stroke-width="1.51"/><path d="M-97,909L-31,1014L-24,906Z" fill="#8999c5" stroke="#8999c5" stroke-width="1.51"/><path d="M-24,906L-31,1014L79,990Z" fill="#8494bf" stroke="#8494bf" stroke-width="1.51"/><path d="M79,990L-31,1014L171,1001Z" fill="#7e8db8" stroke="#7e8db8" stroke-width="1.51"/><path d="M171,1001L-108,1030L492,1033Z" fill="#7687b3" stroke="#7687b3" stroke-width="1.51"/><path d="M-112,73L-20,128L-31,61Z" fill="#dfeaf7" stroke="#dfeaf7" stroke-width="1.51"/><path d="M-92,817L-97,909L-24,906Z" fill="#8fa2ce" stroke="#8fa2ce" stroke-width="1.51"/><path d="M-123,676L-97,909L-99,766Z" fill="#96aed7" stroke="#96aed7" stroke-width="1.51"/><path d="M-119,-30L-112,73L-31,61Z" fill="#e4eff9" stroke="#e4eff9" stroke-width="1.51"/><path d="M-111,149L-112,73L-122,249Z" fill="#dce9f6" stroke="#dce9f6" stroke-width="1.51"/><path d="M-119,-30L-31,61L-1,-21Z" fill="#e5effa" stroke="#e5effa" stroke-width="1.51"/><path d="M51,-98L-2,-122L-1,-21Z" fill="#e8f1fa" stroke="#e8f1fa" stroke-width="1.51"/><path d="M156,-120L-2,-122L51,-98Z" fill="#e7f1fa" stroke="#e7f1fa" stroke-width="1.51"/><path d="M1453,-129L-2,-122L673,-120Z" fill="#b3d3ea" stroke="#b3d3ea" stroke-width="1.51"/><path d="M-97,909L-108,1030L-31,1014Z" fill="#8895be" stroke="#8895be" stroke-width="1.51"/><path d="M-31,1014L-108,1030L171,1001Z" fill="#818eb7" stroke="#818eb7" stroke-width="1.51"/><path d="M-123,676L-108,1030L-97,909Z" fill="#91a4cf" stroke="#91a4cf" stroke-width="1.51"/><path d="M-81,-100L-119,-30L-1,-21Z" fill="#eaf2fa" stroke="#eaf2fa" stroke-width="1.51"/><path d="M-112,73L-119,-30L-122,249Z" fill="#e1ecf8" stroke="#e1ecf8" stroke-width="1.51"/><path d="M-2,-122L-81,-100L-1,-21Z" fill="#ebf2fb" stroke="#ebf2fb" stroke-width="1.51"/></svg>