<svg xmlns="http://www.w3.org/2000/svg" width="1440" height="900"><path d="M751,474L768,559L829,481Z" fill="#ebf5e8" stroke="#ebf5e8" stroke-width="1.51"/><path d="M768,559L853,595L829,481Z" fill="#e3f3df" stroke="#e3f3df" stroke-width="1.51"/><path d="M751,474L667,514L768,559Z" fill="#eff5ec" stroke="#eff5ec" stroke-width="1.51"/><path d="M829,481L755,394L751,474Z" fill="#f2f6f1" stroke="#f2f6f1" stroke-width="1.51"/><path d="M751,474L686,388L667,514Z" fill="#f5f5f5" stroke="#f5f5f5" stroke-width="1.51"/><path d="M768,559L776,644L853,595Z" fill="#dbf0d6" stroke="#dbf0d6" stroke-width="1.51"/><path d="M670,598L776,644L768,559Z" fill="#e1f1dc" stroke="#e1f1dc" stroke-width="1.51"/><path d="M829,481L871,403L755,394Z" fill="#edf2eb" stroke="#edf2eb" stroke-width="1.51"/><path d="M932,481L871,403L829,481Z" fill="#e9f4e6" stroke="#e9f4e6" stroke-width="1.51"/><path d="M667,514L670,598L768,559Z" fill="#e9f2e6" stroke="#e9f2e6" stroke-width="1.51"/><path d="M853,595L932,481L829,481Z" fill="#e2f2dc" stroke="#e2f2dc" stroke-width="1.51"/><path d="M755,394L686,388L751,474Z" fill="#f4f2f4" stroke="#f4f2f4" stroke-width="1.51"/><path d="M680,332L686,388L755,394Z" fill="#f2eaf2" stroke="#f2eaf2" stroke-width="1.51"/><path d="M776,644L854,662L853,595Z" fill="#d2eccc" stroke="#d2eccc" stroke-width="1.51"/><path d="M853,595L953,578L932,481Z" fill="#d9f0d3" stroke="#d9f0d3" stroke-width="1.51"/><path d="M933,684L953,578L853,595Z" fill="#ccebc6" stroke="#ccebc6" stroke-width="1.51"/><path d="M670,598L675,651L776,644Z" fill="#dbedd8" stroke="#dbedd8" stroke-width="1.51"/><path d="M776,644L851,750L854,662Z" fill="#c7e8c2" stroke="#c7e8c2" stroke-width="1.51"/><path d="M932,481L952,422L871,403Z" fill="#e4f0e0" stroke="#e4f0e0" stroke-width="1.51"/><path d="M1025,477L952,422L932,481Z" fill="#dcefd8" stroke="#dcefd8" stroke-width="1.51"/><path d="M850,304L766,315L755,394Z" fill="#eae5e9" stroke="#eae5e9" stroke-width="1.51"/><path d="M850,304L755,394L871,403Z" fill="#e9e9e7" stroke="#e9e9e7" stroke-width="1.51"/><path d="M670,598L597,590L675,651Z" fill="#dce9d9" stroke="#dce9d9" stroke-width="1.51"/><path d="M667,514L597,590L670,598Z" fill="#e5ece2" stroke="#e5ece2" stroke-width="1.51"/><path d="M574,482L597,590L667,514Z" fill="#e9eae7" stroke="#e9eae7" stroke-width="1.51"/><path d="M569,421L574,482L667,514Z" fill="#efeaef" stroke="#efeaef" stroke-width="1.51"/><path d="M766,315L680,332L755,394Z" fill="#efe7ef" stroke="#efe7ef" stroke-width="1.51"/><path d="M569,421L667,514L686,388Z" fill="#f3edf3" stroke="#f3edf3" stroke-width="1.51"/><path d="M944,337L850,304L871,403Z" fill="#e2e5df" stroke="#e2e5df" stroke-width="1.51"/><path d="M854,662L933,684L853,595Z" fill="#caeac4" stroke="#caeac4" stroke-width="1.51"/><path d="M851,750L933,684L854,662Z" fill="#bfe5b9" stroke="#bfe5b9" stroke-width="1.51"/><path d="M953,578L1025,477L932,481Z" fill="#d5edd0" stroke="#d5edd0" stroke-width="1.51"/><path d="M933,684L1006,582L953,578Z" fill="#c6e8bf" stroke="#c6e8bf" stroke-width="1.51"/><path d="M952,422L944,337L871,403Z" fill="#e0e9dd" stroke="#e0e9dd" stroke-width="1.51"/><path d="M1042,399L944,337L952,422Z" fill="#d8e5d4" stroke="#d8e5d4" stroke-width="1.51"/><path d="M610,314L569,421L686,388Z" fill="#eee2ee" stroke="#eee2ee" stroke-width="1.51"/><path d="M1006,582L1025,477L953,578Z" fill="#cdebc7" stroke="#cdebc7" stroke-width="1.51"/><path d="M675,651L743,751L776,644Z" fill="#d0eacc" stroke="#d0eacc" stroke-width="1.51"/><path d="M664,771L743,751L675,651Z" fill="#c4e1c1" stroke="#c4e1c1" stroke-width="1.51"/><path d="M743,751L851,750L776,644Z" fill="#c2e3be" stroke="#c2e3be" stroke-width="1.51"/><path d="M597,590L572,660L675,651Z" fill="#d7e4d3" stroke="#d7e4d3" stroke-width="1.51"/><path d="M515,587L572,660L597,590Z" fill="#d9e0d5" stroke="#d9e0d5" stroke-width="1.51"/><path d="M515,587L597,590L574,482Z" fill="#e3e4e1" stroke="#e3e4e1" stroke-width="1.51"/><path d="M680,332L610,314L686,388Z" fill="#ede1ee" stroke="#ede1ee" stroke-width="1.51"/><path d="M693,225L610,314L680,332Z" fill="#e7d8e9" stroke="#e7d8e9" stroke-width="1.51"/><path d="M693,225L680,332L766,315Z" fill="#e9ddeb" stroke="#e9ddeb" stroke-width="1.51"/><path d="M850,304L837,249L766,315Z" fill="#e1dbe2" stroke="#e1dbe2" stroke-width="1.51"/><path d="M927,213L837,249L850,304Z" fill="#d7d4d8" stroke="#d7d4d8" stroke-width="1.51"/><path d="M837,249L776,243L766,315Z" fill="#e0d8e2" stroke="#e0d8e2" stroke-width="1.51"/><path d="M1025,477L1042,399L952,422Z" fill="#d7ead3" stroke="#d7ead3" stroke-width="1.51"/><path d="M944,337L927,213L850,304Z" fill="#d8d9d7" stroke="#d8d9d7" stroke-width="1.51"/><path d="M1088,475L1042,399L1025,477Z" fill="#d1eacd" stroke="#d1eacd" stroke-width="1.51"/><path d="M500,484L515,587L574,482Z" fill="#e5e1e4" stroke="#e5e1e4" stroke-width="1.51"/><path d="M582,751L664,771L675,651Z" fill="#c2dcbf" stroke="#c2dcbf" stroke-width="1.51"/><path d="M743,751L742,823L851,750Z" fill="#b1d9af" stroke="#b1d9af" stroke-width="1.51"/><path d="M569,421L500,484L574,482Z" fill="#eee5ee" stroke="#eee5ee" stroke-width="1.51"/><path d="M490,414L500,484L569,421Z" fill="#ece0ed" stroke="#ece0ed" stroke-width="1.51"/><path d="M933,684L1037,662L1006,582Z" fill="#bce4b6" stroke="#bce4b6" stroke-width="1.51"/><path d="M1006,582L1088,475L1025,477Z" fill="#cbe9c6" stroke="#cbe9c6" stroke-width="1.51"/><path d="M1035,735L1037,662L933,684Z" fill="#afdfa9" stroke="#afdfa9" stroke-width="1.51"/><path d="M851,750L940,765L933,684Z" fill="#b1ddac" stroke="#b1ddac" stroke-width="1.51"/><path d="M916,824L940,765L851,750Z" fill="#a4d5a0" stroke="#a4d5a0" stroke-width="1.51"/><path d="M762,154L693,225L776,243Z" fill="#dbcde1" stroke="#dbcde1" stroke-width="1.51"/><path d="M776,243L693,225L766,315Z" fill="#e3d7e6" stroke="#e3d7e6" stroke-width="1.51"/><path d="M1127,579L1088,475L1006,582Z" fill="#c1e6bc" stroke="#c1e6bc" stroke-width="1.51"/><path d="M511,333L490,414L569,421Z" fill="#e9d9ea" stroke="#e9d9ea" stroke-width="1.51"/><path d="M511,333L569,421L610,314Z" fill="#ead9ea" stroke="#ead9ea" stroke-width="1.51"/><path d="M664,771L742,823L743,751Z" fill="#b4d9b3" stroke="#b4d9b3" stroke-width="1.51"/><path d="M664,771L688,860L742,823Z" fill="#a9d0a8" stroke="#a9d0a8" stroke-width="1.51"/><path d="M572,660L582,751L675,651Z" fill="#ccdfc7" stroke="#ccdfc7" stroke-width="1.51"/><path d="M522,756L582,751L572,660Z" fill="#bfd4bc" stroke="#bfd4bc" stroke-width="1.51"/><path d="M742,823L847,831L851,750Z" fill="#a6d3a4" stroke="#a6d3a4" stroke-width="1.51"/><path d="M1042,399L1043,307L944,337Z" fill="#d2decd" stroke="#d2decd" stroke-width="1.51"/><path d="M1124,327L1043,307L1042,399Z" fill="#c8dac4" stroke="#c8dac4" stroke-width="1.51"/><path d="M519,248L511,333L610,314Z" fill="#e2cee5" stroke="#e2cee5" stroke-width="1.51"/><path d="M1009,213L927,213L944,337Z" fill="#ccd0cc" stroke="#ccd0cc" stroke-width="1.51"/><path d="M837,249L762,154L776,243Z" fill="#d8cedc" stroke="#d8cedc" stroke-width="1.51"/><path d="M693,225L596,237L610,314Z" fill="#e0cee4" stroke="#e0cee4" stroke-width="1.51"/><path d="M1037,662L1127,579L1006,582Z" fill="#bae3b3" stroke="#bae3b3" stroke-width="1.51"/><path d="M940,765L1035,735L933,684Z" fill="#aadba4" stroke="#aadba4" stroke-width="1.51"/><path d="M1016,835L1035,735L940,765Z" fill="#96cf93" stroke="#96cf93" stroke-width="1.51"/><path d="M847,831L916,824L851,750Z" fill="#a0d29e" stroke="#a0d29e" stroke-width="1.51"/><path d="M515,587L495,684L572,660Z" fill="#d0d9cd" stroke="#d0d9cd" stroke-width="1.51"/><path d="M438,565L495,684L515,587Z" fill="#d2d6d1" stroke="#d2d6d1" stroke-width="1.51"/><path d="M438,565L515,587L500,484Z" fill="#dddbdd" stroke="#dddbdd" stroke-width="1.51"/><path d="M1088,475L1110,402L1042,399Z" fill="#cbe4c7" stroke="#cbe4c7" stroke-width="1.51"/><path d="M1187,497L1110,402L1088,475Z" fill="#c1e1be" stroke="#c1e1be" stroke-width="1.51"/><path d="M1108,680L1127,579L1037,662Z" fill="#acdca6" stroke="#acdca6" stroke-width="1.51"/><path d="M397,507L438,565L500,484Z" fill="#dcd5de" stroke="#dcd5de" stroke-width="1.51"/><path d="M430,405L500,484L490,414Z" fill="#e6d9e9" stroke="#e6d9e9" stroke-width="1.51"/><path d="M693,225L668,159L596,237Z" fill="#dac7e0" stroke="#dac7e0" stroke-width="1.51"/><path d="M861,137L762,154L837,249Z" fill="#d0c5d5" stroke="#d0c5d5" stroke-width="1.51"/><path d="M585,823L688,860L664,771Z" fill="#a7cba7" stroke="#a7cba7" stroke-width="1.51"/><path d="M495,684L522,756L572,660Z" fill="#c4d4c1" stroke="#c4d4c1" stroke-width="1.51"/><path d="M421,758L522,756L495,684Z" fill="#b5c8b4" stroke="#b5c8b4" stroke-width="1.51"/><path d="M742,823L759,928L847,831Z" fill="#9ac69b" stroke="#9ac69b" stroke-width="1.51"/><path d="M949,924L1016,835L916,824Z" fill="#86c086" stroke="#86c086" stroke-width="1.51"/><path d="M585,823L664,771L582,751Z" fill="#b0ceae" stroke="#b0ceae" stroke-width="1.51"/><path d="M1035,735L1108,680L1037,662Z" fill="#a7dca1" stroke="#a7dca1" stroke-width="1.51"/><path d="M762,154L668,159L693,225Z" fill="#d7c5de" stroke="#d7c5de" stroke-width="1.51"/><path d="M1043,307L1009,213L944,337Z" fill="#cbd4ca" stroke="#cbd4ca" stroke-width="1.51"/><path d="M927,213L861,137L837,249Z" fill="#cfc9d2" stroke="#cfc9d2" stroke-width="1.51"/><path d="M1122,244L1009,213L1043,307Z" fill="#becabe" stroke="#becabe" stroke-width="1.51"/><path d="M522,756L585,823L582,751Z" fill="#b0caae" stroke="#b0caae" stroke-width="1.51"/><path d="M511,333L430,405L490,414Z" fill="#e3d2e6" stroke="#e3d2e6" stroke-width="1.51"/><path d="M399,315L430,405L511,333Z" fill="#ddc9e2" stroke="#ddc9e2" stroke-width="1.51"/><path d="M519,248L610,314L596,237Z" fill="#dfcae3" stroke="#dfcae3" stroke-width="1.51"/><path d="M489,152L519,248L596,237Z" fill="#d3bcdb" stroke="#d3bcdb" stroke-width="1.51"/><path d="M952,162L861,137L927,213Z" fill="#c5c1c9" stroke="#c5c1c9" stroke-width="1.51"/><path d="M696,45L600,138L668,159Z" fill="#cab2d2" stroke="#cab2d2" stroke-width="1.51"/><path d="M1176,339L1124,327L1110,402Z" fill="#bbd3b8" stroke="#bbd3b8" stroke-width="1.51"/><path d="M1110,402L1124,327L1042,399Z" fill="#c5dcc2" stroke="#c5dcc2" stroke-width="1.51"/><path d="M1009,213L952,162L927,213Z" fill="#c3c4c5" stroke="#c3c4c5" stroke-width="1.51"/><path d="M430,405L397,507L500,484Z" fill="#e2d6e6" stroke="#e2d6e6" stroke-width="1.51"/><path d="M438,565L407,681L495,684Z" fill="#c8cec7" stroke="#c8cec7" stroke-width="1.51"/><path d="M1035,735L1127,767L1108,680Z" fill="#96d192" stroke="#96d192" stroke-width="1.51"/><path d="M916,824L1016,835L940,765Z" fill="#93cc91" stroke="#93cc91" stroke-width="1.51"/><path d="M949,924L916,824L847,831Z" fill="#8fc48e" stroke="#8fc48e" stroke-width="1.51"/><path d="M1127,579L1187,497L1088,475Z" fill="#b8deb4" stroke="#b8deb4" stroke-width="1.51"/><path d="M1192,579L1187,497L1127,579Z" fill="#add9a9" stroke="#add9a9" stroke-width="1.51"/><path d="M1179,652L1192,579L1127,579Z" fill="#a4d6a0" stroke="#a4d6a0" stroke-width="1.51"/><path d="M1179,652L1127,579L1108,680Z" fill="#a2d79e" stroke="#a2d79e" stroke-width="1.51"/><path d="M339,560L407,681L438,565Z" fill="#cacbcc" stroke="#cacbcc" stroke-width="1.51"/><path d="M522,756L490,854L585,823Z" fill="#a4c1a3" stroke="#a4c1a3" stroke-width="1.51"/><path d="M1204,739L1179,652L1108,680Z" fill="#92ce8e" stroke="#92ce8e" stroke-width="1.51"/><path d="M696,45L668,159L762,154Z" fill="#cdb8d5" stroke="#cdb8d5" stroke-width="1.51"/><path d="M668,159L600,138L596,237Z" fill="#d3bdda" stroke="#d3bdda" stroke-width="1.51"/><path d="M688,860L759,928L742,823Z" fill="#9cc69e" stroke="#9cc69e" stroke-width="1.51"/><path d="M673,918L759,928L688,860Z" fill="#96bd99" stroke="#96bd99" stroke-width="1.51"/><path d="M585,908L688,860L585,823Z" fill="#9bbe9c" stroke="#9bbe9c" stroke-width="1.51"/><path d="M585,908L673,918L688,860Z" fill="#95b998" stroke="#95b998" stroke-width="1.51"/><path d="M1209,413L1176,339L1110,402Z" fill="#b6d3b4" stroke="#b6d3b4" stroke-width="1.51"/><path d="M1124,327L1122,244L1043,307Z" fill="#bdcdbb" stroke="#bdcdbb" stroke-width="1.51"/><path d="M1009,213L1020,134L952,162Z" fill="#babcbd" stroke="#babcbd" stroke-width="1.51"/><path d="M1109,835L1127,767L1035,735Z" fill="#86c884" stroke="#86c884" stroke-width="1.51"/><path d="M759,928L828,935L847,831Z" fill="#8fbd91" stroke="#8fbd91" stroke-width="1.51"/><path d="M1176,339L1122,244L1124,327Z" fill="#b5cab3" stroke="#b5cab3" stroke-width="1.51"/><path d="M1262,393L1209,413L1291,474Z" fill="#a7cda7" stroke="#a7cda7" stroke-width="1.51"/><path d="M1187,497L1209,413L1110,402Z" fill="#b9dab6" stroke="#b9dab6" stroke-width="1.51"/><path d="M416,234L511,333L519,248Z" fill="#d7bfdd" stroke="#d7bfdd" stroke-width="1.51"/><path d="M416,234L399,315L511,333Z" fill="#d6bedd" stroke="#d6bedd" stroke-width="1.51"/><path d="M430,405L334,476L397,507Z" fill="#ddcfe2" stroke="#ddcfe2" stroke-width="1.51"/><path d="M407,681L421,758L495,684Z" fill="#b9c7b9" stroke="#b9c7b9" stroke-width="1.51"/><path d="M952,162L947,81L861,137Z" fill="#bdb7c2" stroke="#bdb7c2" stroke-width="1.51"/><path d="M861,137L832,54L762,154Z" fill="#c5b6cb" stroke="#c5b6cb" stroke-width="1.51"/><path d="M1089,140L1020,134L1009,213Z" fill="#b3b8b5" stroke="#b3b8b5" stroke-width="1.51"/><path d="M828,935L949,924L847,831Z" fill="#89bc8b" stroke="#89bc8b" stroke-width="1.51"/><path d="M1016,835L1109,835L1035,735Z" fill="#86c785" stroke="#86c785" stroke-width="1.51"/><path d="M490,854L585,908L585,823Z" fill="#9ab89b" stroke="#9ab89b" stroke-width="1.51"/><path d="M742,1025L828,935L759,928Z" fill="#85af89" stroke="#85af89" stroke-width="1.51"/><path d="M397,507L339,560L438,565Z" fill="#d4ced6" stroke="#d4ced6" stroke-width="1.51"/><path d="M320,771L412,824L421,758Z" fill="#9db2a0" stroke="#9db2a0" stroke-width="1.51"/><path d="M334,476L339,560L397,507Z" fill="#d3c9d8" stroke="#d3c9d8" stroke-width="1.51"/><path d="M421,758L490,854L522,756Z" fill="#a5bda5" stroke="#a5bda5" stroke-width="1.51"/><path d="M326,409L334,476L430,405Z" fill="#dac9e1" stroke="#dac9e1" stroke-width="1.51"/><path d="M1097,918L1109,835L1016,835Z" fill="#73b875" stroke="#73b875" stroke-width="1.51"/><path d="M1127,767L1204,739L1108,680Z" fill="#8aca87" stroke="#8aca87" stroke-width="1.51"/><path d="M1020,134L947,81L952,162Z" fill="#b6b3b9" stroke="#b6b3b9" stroke-width="1.51"/><path d="M947,81L832,54L861,137Z" fill="#bcb1c1" stroke="#bcb1c1" stroke-width="1.51"/><path d="M949,924L1009,914L1016,835Z" fill="#7ab77c" stroke="#7ab77c" stroke-width="1.51"/><path d="M342,338L326,409L430,405Z" fill="#d7c3de" stroke="#d7c3de" stroke-width="1.51"/><path d="M489,152L416,234L519,248Z" fill="#cdb3d7" stroke="#cdb3d7" stroke-width="1.51"/><path d="M600,138L489,152L596,237Z" fill="#cfb7d7" stroke="#cfb7d7" stroke-width="1.51"/><path d="M511,81L489,152L600,138Z" fill="#c4a7ce" stroke="#c4a7ce" stroke-width="1.51"/><path d="M832,54L773,41L762,154Z" fill="#c2b0ca" stroke="#c2b0ca" stroke-width="1.51"/><path d="M247,564L323,686L339,560Z" fill="#c0bcc3" stroke="#c0bcc3" stroke-width="1.51"/><path d="M342,338L430,405L399,315Z" fill="#d8c2de" stroke="#d8c2de" stroke-width="1.51"/><path d="M773,41L696,45L762,154Z" fill="#c5afcd" stroke="#c5afcd" stroke-width="1.51"/><path d="M1197,846L1204,739L1127,767Z" fill="#72bb73" stroke="#72bb73" stroke-width="1.51"/><path d="M1179,652L1266,587L1192,579Z" fill="#99d096" stroke="#99d096" stroke-width="1.51"/><path d="M1192,579L1266,587L1187,497Z" fill="#a2d3a0" stroke="#a2d3a0" stroke-width="1.51"/><path d="M339,214L342,338L399,315Z" fill="#cdb2d6" stroke="#cdb2d6" stroke-width="1.51"/><path d="M1122,244L1089,140L1009,213Z" fill="#b4beb5" stroke="#b4beb5" stroke-width="1.51"/><path d="M1020,134L1005,74L947,81Z" fill="#afacb3" stroke="#afacb3" stroke-width="1.51"/><path d="M1182,163L1089,140L1122,244Z" fill="#a6b3a8" stroke="#a6b3a8" stroke-width="1.51"/><path d="M1181,225L1122,244L1176,339Z" fill="#acc1ad" stroke="#acc1ad" stroke-width="1.51"/><path d="M1268,666L1266,587L1179,652Z" fill="#8dca8c" stroke="#8dca8c" stroke-width="1.51"/><path d="M1262,393L1176,339L1209,413Z" fill="#acccab" stroke="#acccab" stroke-width="1.51"/><path d="M1288,335L1181,225L1176,339Z" fill="#a6bfa5" stroke="#a6bfa5" stroke-width="1.51"/><path d="M947,81L858,-9L832,54Z" fill="#b6a3b9" stroke="#b6a3b9" stroke-width="1.51"/><path d="M832,54L858,-9L773,41Z" fill="#b9a0bd" stroke="#b9a0bd" stroke-width="1.51"/><path d="M1089,140L1005,74L1020,134Z" fill="#acadaf" stroke="#acadaf" stroke-width="1.51"/><path d="M421,758L412,824L490,854Z" fill="#9bb49d" stroke="#9bb49d" stroke-width="1.51"/><path d="M490,854L513,945L585,908Z" fill="#8eac91" stroke="#8eac91" stroke-width="1.51"/><path d="M323,686L421,758L407,681Z" fill="#b3bfb4" stroke="#b3bfb4" stroke-width="1.51"/><path d="M1291,474L1209,413L1187,497Z" fill="#abd3aa" stroke="#abd3aa" stroke-width="1.51"/><path d="M247,564L339,560L334,476Z" fill="#cbc0d0" stroke="#cbc0d0" stroke-width="1.51"/><path d="M339,560L323,686L407,681Z" fill="#bfc2c1" stroke="#bfc2c1" stroke-width="1.51"/><path d="M489,152L428,165L416,234Z" fill="#c5a9d0" stroke="#c5a9d0" stroke-width="1.51"/><path d="M416,234L339,214L399,315Z" fill="#caafd4" stroke="#caafd4" stroke-width="1.51"/><path d="M400,53L428,165L489,152Z" fill="#ba9bc7" stroke="#ba9bc7" stroke-width="1.51"/><path d="M696,45L572,57L600,138Z" fill="#c3a6cc" stroke="#c3a6cc" stroke-width="1.51"/><path d="M1266,587L1291,474L1187,497Z" fill="#a1cf9f" stroke="#a1cf9f" stroke-width="1.51"/><path d="M1266,587L1349,588L1291,474Z" fill="#93c593" stroke="#93c593" stroke-width="1.51"/><path d="M1204,739L1268,666L1179,652Z" fill="#87c886" stroke="#87c886" stroke-width="1.51"/><path d="M828,935L845,1015L949,924Z" fill="#7dae80" stroke="#7dae80" stroke-width="1.51"/><path d="M949,924L1041,1004L1009,914Z" fill="#6da971" stroke="#6da971" stroke-width="1.51"/><path d="M742,1025L845,1015L828,935Z" fill="#7fa882" stroke="#7fa882" stroke-width="1.51"/><path d="M742,1025L759,928L673,918Z" fill="#8bb18f" stroke="#8bb18f" stroke-width="1.51"/><path d="M572,57L511,81L600,138Z" fill="#c1a4ca" stroke="#c1a4ca" stroke-width="1.51"/><path d="M1204,739L1262,772L1268,666Z" fill="#75bd76" stroke="#75bd76" stroke-width="1.51"/><path d="M1109,835L1197,846L1127,767Z" fill="#6fb971" stroke="#6fb971" stroke-width="1.51"/><path d="M1009,914L1097,918L1016,835Z" fill="#73b475" stroke="#73b475" stroke-width="1.51"/><path d="M1041,1004L1097,918L1009,914Z" fill="#66a76a" stroke="#66a76a" stroke-width="1.51"/><path d="M670,1023L742,1025L673,918Z" fill="#86a78a" stroke="#86a78a" stroke-width="1.51"/><path d="M427,914L513,945L490,854Z" fill="#89a48e" stroke="#89a48e" stroke-width="1.51"/><path d="M670,1023L673,918L585,908Z" fill="#8aac8d" stroke="#8aac8d" stroke-width="1.51"/><path d="M753,-35L679,-15L696,45Z" fill="#bc98c1" stroke="#bc98c1" stroke-width="1.51"/><path d="M696,45L583,-5L572,57Z" fill="#bc98c3" stroke="#bc98c3" stroke-width="1.51"/><path d="M941,-47L858,-9L947,81Z" fill="#ae98af" stroke="#ae98af" stroke-width="1.51"/><path d="M572,1027L670,1023L585,908Z" fill="#83a087" stroke="#83a087" stroke-width="1.51"/><path d="M1089,140L1123,72L1005,74Z" fill="#a4a7a6" stroke="#a4a7a6" stroke-width="1.51"/><path d="M1005,74L941,-47L947,81Z" fill="#ab9dad" stroke="#ab9dad" stroke-width="1.51"/><path d="M1181,225L1182,163L1122,244Z" fill="#a4b5a7" stroke="#a4b5a7" stroke-width="1.51"/><path d="M1266,130L1182,163L1181,225Z" fill="#94a798" stroke="#94a798" stroke-width="1.51"/><path d="M1288,335L1176,339L1262,393Z" fill="#a6c6a4" stroke="#a6c6a4" stroke-width="1.51"/><path d="M1097,918L1197,846L1109,835Z" fill="#65af6a" stroke="#65af6a" stroke-width="1.51"/><path d="M1358,403L1288,335L1262,393Z" fill="#9cbf9e" stroke="#9cbf9e" stroke-width="1.51"/><path d="M412,824L427,914L490,854Z" fill="#8fa993" stroke="#8fa993" stroke-width="1.51"/><path d="M323,686L320,771L421,758Z" fill="#a7b6aa" stroke="#a7b6aa" stroke-width="1.51"/><path d="M233,741L320,771L323,686Z" fill="#a2ada5" stroke="#a2ada5" stroke-width="1.51"/><path d="M326,409L261,410L334,476Z" fill="#d4c0db" stroke="#d4c0db" stroke-width="1.51"/><path d="M342,338L261,410L326,409Z" fill="#d1bad8" stroke="#d1bad8" stroke-width="1.51"/><path d="M240,310L261,410L342,338Z" fill="#cbb1d3" stroke="#cbb1d3" stroke-width="1.51"/><path d="M753,-35L696,45L773,41Z" fill="#bd9ec3" stroke="#bd9ec3" stroke-width="1.51"/><path d="M572,57L486,-39L511,81Z" fill="#b68ebe" stroke="#b68ebe" stroke-width="1.51"/><path d="M428,165L339,214L416,234Z" fill="#c4a6d0" stroke="#c4a6d0" stroke-width="1.51"/><path d="M345,128L339,214L428,165Z" fill="#bb9cc8" stroke="#bb9cc8" stroke-width="1.51"/><path d="M513,945L572,1027L585,908Z" fill="#85a189" stroke="#85a189" stroke-width="1.51"/><path d="M333,846L427,914L412,824Z" fill="#8ba390" stroke="#8ba390" stroke-width="1.51"/><path d="M845,1015L931,1032L949,924Z" fill="#75a478" stroke="#75a478" stroke-width="1.51"/><path d="M742,1025L931,1032L845,1015Z" fill="#779f7a" stroke="#779f7a" stroke-width="1.51"/><path d="M492,1033L931,1032L742,1025Z" fill="#81a085" stroke="#81a085" stroke-width="1.51"/><path d="M1197,846L1262,772L1204,739Z" fill="#67b66b" stroke="#67b66b" stroke-width="1.51"/><path d="M1268,666L1349,588L1266,587Z" fill="#89c289" stroke="#89c289" stroke-width="1.51"/><path d="M233,497L247,564L334,476Z" fill="#cabbcf" stroke="#cabbcf" stroke-width="1.51"/><path d="M858,-9L753,-35L773,41Z" fill="#b798ba" stroke="#b798ba" stroke-width="1.51"/><path d="M1182,163L1123,72L1089,140Z" fill="#9da6a0" stroke="#9da6a0" stroke-width="1.51"/><path d="M261,410L233,497L334,476Z" fill="#d0bdd7" stroke="#d0bdd7" stroke-width="1.51"/><path d="M931,1032L1041,1004L949,924Z" fill="#6ca26f" stroke="#6ca26f" stroke-width="1.51"/><path d="M1186,937L1260,841L1197,846Z" fill="#51a35a" stroke="#51a35a" stroke-width="1.51"/><path d="M679,-15L583,-5L696,45Z" fill="#bb95c0" stroke="#bb95c0" stroke-width="1.51"/><path d="M400,53L345,128L428,165Z" fill="#b492c2" stroke="#b492c2" stroke-width="1.51"/><path d="M611,-108L583,-5L679,-15Z" fill="#b185b6" stroke="#b185b6" stroke-width="1.51"/><path d="M670,1023L572,1027L742,1025Z" fill="#809b84" stroke="#809b84" stroke-width="1.51"/><path d="M492,1033L572,1027L513,945Z" fill="#7d9481" stroke="#7d9481" stroke-width="1.51"/><path d="M320,771L333,846L412,824Z" fill="#92a896" stroke="#92a896" stroke-width="1.51"/><path d="M437,1008L492,1033L513,945Z" fill="#7a907f" stroke="#7a907f" stroke-width="1.51"/><path d="M261,826L333,846L320,771Z" fill="#8ca091" stroke="#8ca091" stroke-width="1.51"/><path d="M1386,651L1349,588L1268,666Z" fill="#7eba7f" stroke="#7eba7f" stroke-width="1.51"/><path d="M1291,474L1358,403L1262,393Z" fill="#9fc4a0" stroke="#9fc4a0" stroke-width="1.51"/><path d="M1349,588L1360,471L1291,474Z" fill="#94c295" stroke="#94c295" stroke-width="1.51"/><path d="M1370,745L1386,651L1268,666Z" fill="#71b474" stroke="#71b474" stroke-width="1.51"/><path d="M1197,846L1260,841L1262,772Z" fill="#59ac60" stroke="#59ac60" stroke-width="1.51"/><path d="M1186,937L1197,846L1097,918Z" fill="#57a45f" stroke="#57a45f" stroke-width="1.51"/><path d="M1288,335L1297,240L1181,225Z" fill="#99b49c" stroke="#99b49c" stroke-width="1.51"/><path d="M1182,163L1208,82L1123,72Z" fill="#929d96" stroke="#929d96" stroke-width="1.51"/><path d="M1382,317L1297,240L1288,335Z" fill="#92af95" stroke="#92af95" stroke-width="1.51"/><path d="M1039,-38L941,-47L1005,74Z" fill="#a291a2" stroke="#a291a2" stroke-width="1.51"/><path d="M858,-9L779,-101L753,-35Z" fill="#af8cb1" stroke="#af8cb1" stroke-width="1.51"/><path d="M1360,471L1358,403L1291,474Z" fill="#9bc39d" stroke="#9bc39d" stroke-width="1.51"/><path d="M339,214L240,310L342,338Z" fill="#c6aad0" stroke="#c6aad0" stroke-width="1.51"/><path d="M261,410L164,421L233,497Z" fill="#cab4d2" stroke="#cab4d2" stroke-width="1.51"/><path d="M177,599L231,686L247,564Z" fill="#b4aeb8" stroke="#b4aeb8" stroke-width="1.51"/><path d="M247,564L231,686L323,686Z" fill="#b4b4b7" stroke="#b4b4b7" stroke-width="1.51"/><path d="M1109,1013L1186,937L1097,918Z" fill="#549b5c" stroke="#549b5c" stroke-width="1.51"/><path d="M339,214L233,252L240,310Z" fill="#bd9ec9" stroke="#bd9ec9" stroke-width="1.51"/><path d="M400,53L489,152L511,81Z" fill="#b998c4" stroke="#b998c4" stroke-width="1.51"/><path d="M1041,1004L1109,1013L1097,918Z" fill="#5b9c61" stroke="#5b9c61" stroke-width="1.51"/><path d="M931,1032L1109,1013L1041,1004Z" fill="#609764" stroke="#609764" stroke-width="1.51"/><path d="M437,1008L513,945L427,914Z" fill="#7d9683" stroke="#7d9683" stroke-width="1.51"/><path d="M572,1027L492,1033L742,1025Z" fill="#7d9581" stroke="#7d9581" stroke-width="1.51"/><path d="M486,-39L400,53L511,81Z" fill="#b087ba" stroke="#b087ba" stroke-width="1.51"/><path d="M352,937L437,1008L427,914Z" fill="#799080" stroke="#799080" stroke-width="1.51"/><path d="M231,686L233,741L323,686Z" fill="#a7adaa" stroke="#a7adaa" stroke-width="1.51"/><path d="M1108,-4L1039,-38L1005,74Z" fill="#9c929d" stroke="#9c929d" stroke-width="1.51"/><path d="M1266,130L1208,82L1182,163Z" fill="#8c9c90" stroke="#8c9c90" stroke-width="1.51"/><path d="M1108,-4L1005,74L1123,72Z" fill="#9c9a9e" stroke="#9c9a9e" stroke-width="1.51"/><path d="M1204,-27L1108,-4L1123,72Z" fill="#8c888d" stroke="#8c888d" stroke-width="1.51"/><path d="M352,937L427,914L333,846Z" fill="#809887" stroke="#809887" stroke-width="1.51"/><path d="M244,927L352,937L333,846Z" fill="#798e81" stroke="#798e81" stroke-width="1.51"/><path d="M258,128L233,252L339,214Z" fill="#b593c3" stroke="#b593c3" stroke-width="1.51"/><path d="M143,485L177,599L233,497Z" fill="#beadc4" stroke="#beadc4" stroke-width="1.51"/><path d="M233,497L177,599L247,564Z" fill="#beb2c4" stroke="#beb2c4" stroke-width="1.51"/><path d="M258,128L339,214L345,128Z" fill="#b390c1" stroke="#b390c1" stroke-width="1.51"/><path d="M1208,82L1204,-27L1123,72Z" fill="#898d8c" stroke="#898d8c" stroke-width="1.51"/><path d="M1297,240L1266,130L1181,225Z" fill="#91a896" stroke="#91a896" stroke-width="1.51"/><path d="M1351,165L1266,130L1297,240Z" fill="#859b8c" stroke="#859b8c" stroke-width="1.51"/><path d="M753,-35L673,-120L679,-15Z" fill="#b189b5" stroke="#b189b5" stroke-width="1.51"/><path d="M583,-5L486,-39L572,57Z" fill="#b48abb" stroke="#b48abb" stroke-width="1.51"/><path d="M838,-107L779,-101L858,-9Z" fill="#a787a8" stroke="#a787a8" stroke-width="1.51"/><path d="M838,-107L858,-9L920,-112Z" fill="#a386a3" stroke="#a386a3" stroke-width="1.51"/><path d="M233,741L261,826L320,771Z" fill="#93a197" stroke="#93a197" stroke-width="1.51"/><path d="M1451,474L1446,423L1360,471Z" fill="#8db691" stroke="#8db691" stroke-width="1.51"/><path d="M1446,423L1382,317L1358,403Z" fill="#8eb091" stroke="#8eb091" stroke-width="1.51"/><path d="M1370,745L1268,666L1262,772Z" fill="#6bb46f" stroke="#6bb46f" stroke-width="1.51"/><path d="M164,421L261,410L240,310Z" fill="#c6abce" stroke="#c6abce" stroke-width="1.51"/><path d="M231,686L146,747L233,741Z" fill="#9aa19e" stroke="#9aa19e" stroke-width="1.51"/><path d="M233,741L158,843L261,826Z" fill="#86968c" stroke="#86968c" stroke-width="1.51"/><path d="M920,-112L858,-9L941,-47Z" fill="#a489a4" stroke="#a489a4" stroke-width="1.51"/><path d="M1358,403L1382,317L1288,335Z" fill="#95b597" stroke="#95b597" stroke-width="1.51"/><path d="M1446,423L1358,403L1360,471Z" fill="#92b895" stroke="#92b895" stroke-width="1.51"/><path d="M1366,821L1370,745L1262,772Z" fill="#56a55e" stroke="#56a55e" stroke-width="1.51"/><path d="M1186,937L1289,930L1260,841Z" fill="#439950" stroke="#439950" stroke-width="1.51"/><path d="M1109,1013L1191,990L1186,937Z" fill="#499253" stroke="#499253" stroke-width="1.51"/><path d="M515,-94L486,-39L583,-5Z" fill="#aa7ab0" stroke="#aa7ab0" stroke-width="1.51"/><path d="M1366,821L1262,772L1260,841Z" fill="#51a55a" stroke="#51a55a" stroke-width="1.51"/><path d="M147,328L164,421L240,310Z" fill="#c0a1c9" stroke="#c0a1c9" stroke-width="1.51"/><path d="M1009,-92L941,-47L1039,-38Z" fill="#988497" stroke="#988497" stroke-width="1.51"/><path d="M1009,-92L920,-112L941,-47Z" fill="#978196" stroke="#978196" stroke-width="1.51"/><path d="M920,-112L673,-120L838,-107Z" fill="#9e809f" stroke="#9e809f" stroke-width="1.51"/><path d="M838,-107L673,-120L779,-101Z" fill="#a281a5" stroke="#a281a5" stroke-width="1.51"/><path d="M779,-101L673,-120L753,-35Z" fill="#aa86ae" stroke="#aa86ae" stroke-width="1.51"/><path d="M1094,-98L1009,-92L1039,-38Z" fill="#8d7e8b" stroke="#8d7e8b" stroke-width="1.51"/><path d="M1094,-98L1039,-38L1108,-4Z" fill="#8f818e" stroke="#8f818e" stroke-width="1.51"/><path d="M177,599L163,665L231,686Z" fill="#aba7ae" stroke="#aba7ae" stroke-width="1.51"/><path d="M79,559L163,665L177,599Z" fill="#afa0b1" stroke="#afa0b1" stroke-width="1.51"/><path d="M673,-120L611,-108L679,-15Z" fill="#a981ad" stroke="#a981ad" stroke-width="1.51"/><path d="M412,-29L346,41L400,53Z" fill="#a67ab3" stroke="#a67ab3" stroke-width="1.51"/><path d="M400,53L346,41L345,128Z" fill="#aa85ba" stroke="#aa85ba" stroke-width="1.51"/><path d="M164,421L143,485L233,497Z" fill="#c4adcc" stroke="#c4adcc" stroke-width="1.51"/><path d="M1266,130L1264,71L1208,82Z" fill="#829288" stroke="#829288" stroke-width="1.51"/><path d="M1352,67L1264,71L1266,130Z" fill="#7a8981" stroke="#7a8981" stroke-width="1.51"/><path d="M176,236L147,328L240,310Z" fill="#b897c4" stroke="#b897c4" stroke-width="1.51"/><path d="M76,398L70,476L143,485Z" fill="#be9dc4" stroke="#be9dc4" stroke-width="1.51"/><path d="M346,41L258,128L345,128Z" fill="#a884b8" stroke="#a884b8" stroke-width="1.51"/><path d="M1191,990L1289,930L1186,937Z" fill="#3f904c" stroke="#3f904c" stroke-width="1.51"/><path d="M352,937L347,996L437,1008Z" fill="#73867b" stroke="#73867b" stroke-width="1.51"/><path d="M437,1008L347,996L492,1033Z" fill="#728579" stroke="#728579" stroke-width="1.51"/><path d="M244,927L347,996L352,937Z" fill="#708378" stroke="#708378" stroke-width="1.51"/><path d="M244,927L333,846L261,826Z" fill="#7e9185" stroke="#7e9185" stroke-width="1.51"/><path d="M1370,745L1449,647L1386,651Z" fill="#69ab6d" stroke="#69ab6d" stroke-width="1.51"/><path d="M1289,930L1366,821L1260,841Z" fill="#42984f" stroke="#42984f" stroke-width="1.51"/><path d="M346,41L242,42L258,128Z" fill="#a077b0" stroke="#a077b0" stroke-width="1.51"/><path d="M486,-39L412,-29L400,53Z" fill="#a778b1" stroke="#a778b1" stroke-width="1.51"/><path d="M428,-97L412,-29L486,-39Z" fill="#9f6da8" stroke="#9f6da8" stroke-width="1.51"/><path d="M1380,217L1351,165L1297,240Z" fill="#849b8a" stroke="#849b8a" stroke-width="1.51"/><path d="M1382,317L1380,217L1297,240Z" fill="#88a38d" stroke="#88a38d" stroke-width="1.51"/><path d="M428,-97L515,-94L611,-108Z" fill="#9c6fa2" stroke="#9c6fa2" stroke-width="1.51"/><path d="M611,-108L515,-94L583,-5Z" fill="#a87bad" stroke="#a87bad" stroke-width="1.51"/><path d="M1382,317L1448,228L1380,217Z" fill="#809a86" stroke="#809a86" stroke-width="1.51"/><path d="M1451,474L1360,471L1349,588Z" fill="#8bb98e" stroke="#8bb98e" stroke-width="1.51"/><path d="M1451,474L1349,588L1458,601Z" fill="#80b284" stroke="#80b284" stroke-width="1.51"/><path d="M1458,601L1349,588L1386,651Z" fill="#78b27b" stroke="#78b27b" stroke-width="1.51"/><path d="M176,236L240,310L233,252Z" fill="#b897c4" stroke="#b897c4" stroke-width="1.51"/><path d="M164,168L176,236L233,252Z" fill="#ae8abd" stroke="#ae8abd" stroke-width="1.51"/><path d="M1467,770L1449,647L1370,745Z" fill="#5aa161" stroke="#5aa161" stroke-width="1.51"/><path d="M1449,647L1458,601L1386,651Z" fill="#70aa74" stroke="#70aa74" stroke-width="1.51"/><path d="M1290,-19L1204,-27L1264,71Z" fill="#787a7a" stroke="#787a7a" stroke-width="1.51"/><path d="M1264,71L1204,-27L1208,82Z" fill="#808783" stroke="#808783" stroke-width="1.51"/><path d="M1009,-92L1094,-98L920,-112Z" fill="#8d7b8b" stroke="#8d7b8b" stroke-width="1.51"/><path d="M1204,-27L1094,-98L1108,-4Z" fill="#867c85" stroke="#867c85" stroke-width="1.51"/><path d="M163,665L146,747L231,686Z" fill="#a0a0a2" stroke="#a0a0a2" stroke-width="1.51"/><path d="M55,681L146,747L163,665Z" fill="#9b969c" stroke="#9b969c" stroke-width="1.51"/><path d="M158,843L244,927L261,826Z" fill="#79897f" stroke="#79897f" stroke-width="1.51"/><path d="M1446,423L1459,318L1382,317Z" fill="#88a78c" stroke="#88a78c" stroke-width="1.51"/><path d="M1466,147L1352,67L1351,165Z" fill="#708379" stroke="#708379" stroke-width="1.51"/><path d="M1557,397L1459,318L1446,423Z" fill="#83a087" stroke="#83a087" stroke-width="1.51"/><path d="M1531,493L1446,423L1451,474Z" fill="#87ab8a" stroke="#87ab8a" stroke-width="1.51"/><path d="M428,-97L333,-26L412,-29Z" fill="#9b67a5" stroke="#9b67a5" stroke-width="1.51"/><path d="M412,-29L333,-26L346,41Z" fill="#9f6fad" stroke="#9f6fad" stroke-width="1.51"/><path d="M258,128L164,168L233,252Z" fill="#ab87ba" stroke="#ab87ba" stroke-width="1.51"/><path d="M515,-94L428,-97L486,-39Z" fill="#9d6ea5" stroke="#9d6ea5" stroke-width="1.51"/><path d="M673,-120L428,-97L611,-108Z" fill="#9e74a3" stroke="#9e74a3" stroke-width="1.51"/><path d="M143,485L79,559L177,599Z" fill="#b7a2bb" stroke="#b7a2bb" stroke-width="1.51"/><path d="M70,476L79,559L143,485Z" fill="#b89cbc" stroke="#b89cbc" stroke-width="1.51"/><path d="M169,40L164,168L258,128Z" fill="#9d74ae" stroke="#9d74ae" stroke-width="1.51"/><path d="M78,220L55,321L147,328Z" fill="#b085b9" stroke="#b085b9" stroke-width="1.51"/><path d="M76,398L143,485L164,421Z" fill="#c1a1c7" stroke="#c1a1c7" stroke-width="1.51"/><path d="M146,747L158,843L233,741Z" fill="#8a938e" stroke="#8a938e" stroke-width="1.51"/><path d="M68,768L158,843L146,747Z" fill="#848786" stroke="#848786" stroke-width="1.51"/><path d="M76,398L164,421L147,328Z" fill="#bd9ac4" stroke="#bd9ac4" stroke-width="1.51"/><path d="M1204,-27L1204,-92L1094,-98Z" fill="#797279" stroke="#797279" stroke-width="1.51"/><path d="M1351,165L1352,67L1266,130Z" fill="#7a8b81" stroke="#7a8b81" stroke-width="1.51"/><path d="M1466,147L1351,165L1380,217Z" fill="#768c7e" stroke="#768c7e" stroke-width="1.51"/><path d="M169,40L242,42L174,-47Z" fill="#8e5a9d" stroke="#8e5a9d" stroke-width="1.51"/><path d="M333,-26L242,42L346,41Z" fill="#9c6daa" stroke="#9c6daa" stroke-width="1.51"/><path d="M1459,318L1448,228L1382,317Z" fill="#819c86" stroke="#819c86" stroke-width="1.51"/><path d="M55,321L76,398L147,328Z" fill="#b78ebe" stroke="#b78ebe" stroke-width="1.51"/><path d="M1289,930L1387,942L1366,821Z" fill="#338a44" stroke="#338a44" stroke-width="1.51"/><path d="M1366,821L1467,770L1370,745Z" fill="#4a9b55" stroke="#4a9b55" stroke-width="1.51"/><path d="M1191,990L1295,1026L1289,930Z" fill="#338543" stroke="#338543" stroke-width="1.51"/><path d="M1109,1013L1295,1026L1191,990Z" fill="#3d8649" stroke="#3d8649" stroke-width="1.51"/><path d="M931,1032L1295,1026L1109,1013Z" fill="#4f8e56" stroke="#4f8e56" stroke-width="1.51"/><path d="M1458,601L1531,493L1451,474Z" fill="#7fa982" stroke="#7fa982" stroke-width="1.51"/><path d="M1541,589L1531,493L1458,601Z" fill="#77a37a" stroke="#77a37a" stroke-width="1.51"/><path d="M1458,826L1467,770L1366,821Z" fill="#3e914c" stroke="#3e914c" stroke-width="1.51"/><path d="M1352,67L1290,-19L1264,71Z" fill="#737b78" stroke="#737b78" stroke-width="1.51"/><path d="M1094,-98L1262,-111L920,-112Z" fill="#7f757d" stroke="#7f757d" stroke-width="1.51"/><path d="M1262,-111L1204,-92L1204,-27Z" fill="#6e6b6e" stroke="#6e6b6e" stroke-width="1.51"/><path d="M1379,993L1387,942L1289,930Z" fill="#257c3b" stroke="#257c3b" stroke-width="1.51"/><path d="M1464,904L1458,826L1366,821Z" fill="#328744" stroke="#328744" stroke-width="1.51"/><path d="M1458,601L1449,647L1542,657Z" fill="#6ba26e" stroke="#6ba26e" stroke-width="1.51"/><path d="M1541,589L1458,601L1542,657Z" fill="#6c9e6f" stroke="#6c9e6f" stroke-width="1.51"/><path d="M1522,154L1466,147L1448,228Z" fill="#6d7f76" stroke="#6d7f76" stroke-width="1.51"/><path d="M165,935L226,1001L244,927Z" fill="#65746f" stroke="#65746f" stroke-width="1.51"/><path d="M244,927L226,1001L347,996Z" fill="#697872" stroke="#697872" stroke-width="1.51"/><path d="M347,996L226,1001L492,1033Z" fill="#6c7c75" stroke="#6c7c75" stroke-width="1.51"/><path d="M79,559L55,681L163,665Z" fill="#a696a7" stroke="#a696a7" stroke-width="1.51"/><path d="M158,843L165,935L244,927Z" fill="#6e7c76" stroke="#6e7c76" stroke-width="1.51"/><path d="M-6,656L55,681L79,559Z" fill="#a18ba1" stroke="#a18ba1" stroke-width="1.51"/><path d="M82,915L165,935L158,843Z" fill="#6b7370" stroke="#6b7370" stroke-width="1.51"/><path d="M70,476L-12,505L79,559Z" fill="#b392b5" stroke="#b392b5" stroke-width="1.51"/><path d="M-17,388L-12,505L70,476Z" fill="#b48eb9" stroke="#b48eb9" stroke-width="1.51"/><path d="M78,220L147,328L176,236Z" fill="#af87ba" stroke="#af87ba" stroke-width="1.51"/><path d="M78,220L176,236L164,168Z" fill="#a87eb5" stroke="#a87eb5" stroke-width="1.51"/><path d="M1542,657L1449,647L1530,742Z" fill="#5e9a63" stroke="#5e9a63" stroke-width="1.51"/><path d="M1387,942L1464,904L1366,821Z" fill="#2a833f" stroke="#2a833f" stroke-width="1.51"/><path d="M1295,1026L1379,993L1289,930Z" fill="#287b3c" stroke="#287b3c" stroke-width="1.51"/><path d="M55,681L68,768L146,747Z" fill="#8f8a90" stroke="#8f8a90" stroke-width="1.51"/><path d="M65,136L78,220L164,168Z" fill="#9e6fac" stroke="#9e6fac" stroke-width="1.51"/><path d="M1530,742L1449,647L1467,770Z" fill="#56985c" stroke="#56985c" stroke-width="1.51"/><path d="M1530,742L1467,770L1533,843Z" fill="#3e884a" stroke="#3e884a" stroke-width="1.51"/><path d="M1542,229L1448,228L1459,318Z" fill="#788e7e" stroke="#788e7e" stroke-width="1.51"/><path d="M1448,228L1466,147L1380,217Z" fill="#758b7e" stroke="#758b7e" stroke-width="1.51"/><path d="M1355,-40L1262,-111L1290,-19Z" fill="#666468" stroke="#666468" stroke-width="1.51"/><path d="M242,42L169,40L258,128Z" fill="#996eaa" stroke="#996eaa" stroke-width="1.51"/><path d="M244,-47L242,42L333,-26Z" fill="#9460a2" stroke="#9460a2" stroke-width="1.51"/><path d="M1533,843L1467,770L1458,826Z" fill="#368745" stroke="#368745" stroke-width="1.51"/><path d="M1542,657L1557,397L1541,589Z" fill="#759d78" stroke="#759d78" stroke-width="1.51"/><path d="M1541,589L1557,397L1531,493Z" fill="#7ca07f" stroke="#7ca07f" stroke-width="1.51"/><path d="M1531,493L1557,397L1446,423Z" fill="#84a487" stroke="#84a487" stroke-width="1.51"/><path d="M310,-108L244,-47L333,-26Z" fill="#8d5899" stroke="#8d5899" stroke-width="1.51"/><path d="M428,-97L310,-108L333,-26Z" fill="#905e9c" stroke="#905e9c" stroke-width="1.51"/><path d="M673,-120L310,-108L428,-97Z" fill="#95689d" stroke="#95689d" stroke-width="1.51"/><path d="M1290,-19L1262,-111L1204,-27Z" fill="#6e6c6f" stroke="#6e6c6f" stroke-width="1.51"/><path d="M1204,-92L1262,-111L1094,-98Z" fill="#6f6b6f" stroke="#6f6b6f" stroke-width="1.51"/><path d="M920,-112L1453,-129L673,-120Z" fill="#877885" stroke="#877885" stroke-width="1.51"/><path d="M1355,-40L1290,-19L1352,67Z" fill="#6b6d6f" stroke="#6b6d6f" stroke-width="1.51"/><path d="M1434,1010L1464,904L1387,942Z" fill="#177133" stroke="#177133" stroke-width="1.51"/><path d="M79,990L171,1001L165,935Z" fill="#5d6365" stroke="#5d6365" stroke-width="1.51"/><path d="M165,935L171,1001L226,1001Z" fill="#606a69" stroke="#606a69" stroke-width="1.51"/><path d="M226,1001L171,1001L492,1033Z" fill="#66736f" stroke="#66736f" stroke-width="1.51"/><path d="M1452,46L1355,-40L1352,67Z" fill="#656b6b" stroke="#656b6b" stroke-width="1.51"/><path d="M1557,397L1558,320L1459,318Z" fill="#7e9681" stroke="#7e9681" stroke-width="1.51"/><path d="M-17,388L70,476L76,398Z" fill="#b78ebc" stroke="#b78ebc" stroke-width="1.51"/><path d="M4,752L57,844L68,768Z" fill="#7d787d" stroke="#7d787d" stroke-width="1.51"/><path d="M-17,388L76,398L55,321Z" fill="#b386b8" stroke="#b386b8" stroke-width="1.51"/><path d="M68,768L57,844L158,843Z" fill="#797c7b" stroke="#797c7b" stroke-width="1.51"/><path d="M4,752L68,768L55,681Z" fill="#8b808a" stroke="#8b808a" stroke-width="1.51"/><path d="M1558,320L1542,229L1459,318Z" fill="#798d7e" stroke="#798d7e" stroke-width="1.51"/><path d="M1466,147L1452,46L1352,67Z" fill="#667570" stroke="#667570" stroke-width="1.51"/><path d="M-28,590L-6,656L79,559Z" fill="#a38aa3" stroke="#a38aa3" stroke-width="1.51"/><path d="M1541,70L1452,46L1466,147Z" fill="#606c69" stroke="#606c69" stroke-width="1.51"/><path d="M310,-108L256,-103L244,-47Z" fill="#845091" stroke="#845091" stroke-width="1.51"/><path d="M244,-47L174,-47L242,42Z" fill="#8c569b" stroke="#8c569b" stroke-width="1.51"/><path d="M57,844L82,915L158,843Z" fill="#6f7373" stroke="#6f7373" stroke-width="1.51"/><path d="M-12,505L-28,590L79,559Z" fill="#ab8bac" stroke="#ab8bac" stroke-width="1.51"/><path d="M-36,338L-17,388L55,321Z" fill="#ac7eb1" stroke="#ac7eb1" stroke-width="1.51"/><path d="M-36,338L55,321L-22,216Z" fill="#a474ac" stroke="#a474ac" stroke-width="1.51"/><path d="M169,40L65,136L164,168Z" fill="#9769a7" stroke="#9769a7" stroke-width="1.51"/><path d="M73,46L65,136L169,40Z" fill="#8d599d" stroke="#8d599d" stroke-width="1.51"/><path d="M1542,657L1561,992L1557,397Z" fill="#5a925e" stroke="#5a925e" stroke-width="1.51"/><path d="M1530,742L1533,843L1542,657Z" fill="#498a51" stroke="#498a51" stroke-width="1.51"/><path d="M1464,904L1533,843L1458,826Z" fill="#2b7d3e" stroke="#2b7d3e" stroke-width="1.51"/><path d="M1527,905L1533,843L1464,904Z" fill="#227337" stroke="#227337" stroke-width="1.51"/><path d="M1379,993L1434,1010L1387,942Z" fill="#186f33" stroke="#186f33" stroke-width="1.51"/><path d="M1295,1026L1434,1010L1379,993Z" fill="#1b6e33" stroke="#1b6e33" stroke-width="1.51"/><path d="M1542,229L1522,154L1448,228Z" fill="#6e8078" stroke="#6e8078" stroke-width="1.51"/><path d="M-95,560L-28,590L-12,505Z" fill="#a084a1" stroke="#a084a1" stroke-width="1.51"/><path d="M-24,906L79,990L82,915Z" fill="#5c5b60" stroke="#5c5b60" stroke-width="1.51"/><path d="M-6,656L4,752L55,681Z" fill="#928290" stroke="#928290" stroke-width="1.51"/><path d="M-99,766L4,752L-6,656Z" fill="#827881" stroke="#827881" stroke-width="1.51"/><path d="M256,-103L174,-47L244,-47Z" fill="#834c92" stroke="#834c92" stroke-width="1.51"/><path d="M1561,992L1527,905L1464,904Z" fill="#12672e" stroke="#12672e" stroke-width="1.51"/><path d="M-113,409L-95,508L-12,505Z" fill="#a482a7" stroke="#a482a7" stroke-width="1.51"/><path d="M-22,216L55,321L78,220Z" fill="#a572ae" stroke="#a572ae" stroke-width="1.51"/><path d="M1452,46L1439,-35L1355,-40Z" fill="#5d5e62" stroke="#5d5e62" stroke-width="1.51"/><path d="M1355,-40L1387,-106L1262,-111Z" fill="#5b5b5d" stroke="#5b5b5d" stroke-width="1.51"/><path d="M1559,-21L1439,-35L1452,46Z" fill="#57555d" stroke="#57555d" stroke-width="1.51"/><path d="M65,136L-22,216L78,220Z" fill="#9b67a8" stroke="#9b67a8" stroke-width="1.51"/><path d="M73,-14L73,46L169,40Z" fill="#874c96" stroke="#874c96" stroke-width="1.51"/><path d="M-5,857L82,915L57,844Z" fill="#69686c" stroke="#69686c" stroke-width="1.51"/><path d="M82,915L79,990L165,935Z" fill="#5f6465" stroke="#5f6465" stroke-width="1.51"/><path d="M1439,-35L1387,-106L1355,-40Z" fill="#58575b" stroke="#58575b" stroke-width="1.51"/><path d="M-20,128L-22,216L65,136Z" fill="#915c9e" stroke="#915c9e" stroke-width="1.51"/><path d="M4,752L-5,857L57,844Z" fill="#737073" stroke="#737073" stroke-width="1.51"/><path d="M-24,906L-5,857L-92,817Z" fill="#606061" stroke="#606061" stroke-width="1.51"/><path d="M1439,-35L1453,-129L1387,-106Z" fill="#4d4d51" stroke="#4d4d51" stroke-width="1.51"/><path d="M1522,154L1541,70L1466,147Z" fill="#636f6c" stroke="#636f6c" stroke-width="1.51"/><path d="M1542,229L1541,70L1522,154Z" fill="#64716d" stroke="#64716d" stroke-width="1.51"/><path d="M1559,-21L1541,70L1542,229Z" fill="#5b6365" stroke="#5b6365" stroke-width="1.51"/><path d="M-113,409L-12,505L-17,388Z" fill="#aa84ae" stroke="#aa84ae" stroke-width="1.51"/><path d="M-28,590L-123,676L-6,656Z" fill="#917e8f" stroke="#917e8f" stroke-width="1.51"/><path d="M-113,409L-17,388L-36,338Z" fill="#a47ba9" stroke="#a47ba9" stroke-width="1.51"/><path d="M-95,508L-95,560L-12,505Z" fill="#a082a1" stroke="#a082a1" stroke-width="1.51"/><path d="M51,-98L73,-14L174,-47Z" fill="#793786" stroke="#793786" stroke-width="1.51"/><path d="M174,-47L73,-14L169,40Z" fill="#864a94" stroke="#864a94" stroke-width="1.51"/><path d="M73,46L-20,128L65,136Z" fill="#8b549a" stroke="#8b549a" stroke-width="1.51"/><path d="M256,-103L156,-120L174,-47Z" fill="#7a4488" stroke="#7a4488" stroke-width="1.51"/><path d="M310,-108L156,-120L256,-103Z" fill="#7a4788" stroke="#7a4788" stroke-width="1.51"/><path d="M673,-120L156,-120L310,-108Z" fill="#8a5b94" stroke="#8a5b94" stroke-width="1.51"/><path d="M-31,61L-20,128L73,46Z" fill="#834992" stroke="#834992" stroke-width="1.51"/><path d="M-117,301L-113,409L-36,338Z" fill="#9d73a1" stroke="#9d73a1" stroke-width="1.51"/><path d="M-5,857L-24,906L82,915Z" fill="#626065" stroke="#626065" stroke-width="1.51"/><path d="M-92,817L-5,857L4,752Z" fill="#6d6b6c" stroke="#6d6b6c" stroke-width="1.51"/><path d="M-95,508L-123,676L-95,560Z" fill="#937b92" stroke="#937b92" stroke-width="1.51"/><path d="M-117,301L-36,338L-22,216Z" fill="#9a6ca1" stroke="#9a6ca1" stroke-width="1.51"/><path d="M1434,1010L1561,992L1464,904Z" fill="#11652c" stroke="#11652c" stroke-width="1.51"/><path d="M1527,905L1561,992L1533,843Z" fill="#176930" stroke="#176930" stroke-width="1.51"/><path d="M1533,843L1561,992L1542,657Z" fill="#2d793d" stroke="#2d793d" stroke-width="1.51"/><path d="M1557,397L1561,992L1558,320Z" fill="#719a73" stroke="#719a73" stroke-width="1.51"/><path d="M-123,676L-99,766L-6,656Z" fill="#82767f" stroke="#82767f" stroke-width="1.51"/><path d="M-123,676L-28,590L-95,560Z" fill="#927d90" stroke="#927d90" stroke-width="1.51"/><path d="M1524,-101L1453,-129L1439,-35Z" fill="#49464d" stroke="#49464d" stroke-width="1.51"/><path d="M1387,-106L1453,-129L1262,-111Z" fill="#4f5152" stroke="#4f5152" stroke-width="1.51"/><path d="M1262,-111L1453,-129L920,-112Z" fill="#676666" stroke="#676666" stroke-width="1.51"/><path d="M673,-120L-2,-122L156,-120Z" fill="#7d4b89" stroke="#7d4b89" stroke-width="1.51"/><path d="M-113,409L-123,676L-95,508Z" fill="#987c98" stroke="#987c98" stroke-width="1.51"/><path d="M-113,409L-122,249L-123,676Z" fill="#9e7ca2" stroke="#9e7ca2" stroke-width="1.51"/><path d="M-122,249L-117,301L-22,216Z" fill="#906399" stroke="#906399" stroke-width="1.51"/><path d="M-97,909L-92,817L-99,766Z" fill="#5d5f5e" stroke="#5d5f5e" stroke-width="1.51"/><path d="M-99,766L-92,817L4,752Z" fill="#706c6f" stroke="#706c6f" stroke-width="1.51"/><path d="M-111,149L-122,249L-22,216Z" fill="#895a94" stroke="#895a94" stroke-width="1.51"/><path d="M-1,-21L-31,61L73,46Z" fill="#7d3b8b" stroke="#7d3b8b" stroke-width="1.51"/><path d="M-1,-21L73,46L73,-14Z" fill="#7e3a8b" stroke="#7e3a8b" stroke-width="1.51"/><path d="M1541,70L1559,-21L1452,46Z" fill="#57585e" stroke="#57585e" stroke-width="1.51"/><path d="M1558,320L1559,-21L1542,229Z" fill="#66736f" stroke="#66736f" stroke-width="1.51"/><path d="M1561,992L1559,-21L1558,320Z" fill="#7f9b83" stroke="#7f9b83" stroke-width="1.51"/><path d="M-117,301L-122,249L-113,409Z" fill="#956b9a" stroke="#956b9a" stroke-width="1.51"/><path d="M-111,149L-22,216L-20,128Z" fill="#885694" stroke="#885694" stroke-width="1.51"/><path d="M-112,73L-111,149L-20,128Z" fill="#7b4888" stroke="#7b4888" stroke-width="1.51"/><path d="M51,-98L-1,-21L73,-14Z" fill="#752b82" stroke="#752b82" stroke-width="1.51"/><path d="M156,-120L51,-98L174,-47Z" fill="#733681" stroke="#733681" stroke-width="1.51"/><path d="M1559,-21L1524,-101L1439,-35Z" fill="#4d4752" stroke="#4d4752" stroke-width="1.51"/><path d="M-97,909L-31,1014L-24,906Z" fill="#4e4d52" stroke="#4e4d52" stroke-width="1.51"/><path d="M-24,906L-31,1014L79,990Z" fill="#534e57" stroke="#534e57" stroke-width="1.51"/><path d="M79,990L-31,1014L171,1001Z" fill="#54515a" stroke="#54515a" stroke-width="1.51"/><path d="M171,1001L-108,1030L492,1033Z" fill="#5a6163" stroke="#5a6163" stroke-width="1.51"/><path d="M-112,73L-20,128L-31,61Z" fill="#7a4588" stroke="#7a4588" stroke-width="1.51"/><path d="M-92,817L-97,909L-24,906Z" fill="#585859" stroke="#585859" stroke-width="1.51"/><path d="M-123,676L-97,909L-99,766Z" fill="#676566" stroke="#676566" stroke-width="1.51"/><path d="M-119,-30L-112,73L-31,61Z" fill="#6d327b" stroke="#6d327b" stroke-width="1.51"/><path d="M-111,149L-112,73L-122,249Z" fill="#7d4c88" stroke="#7d4c88" stroke-width="1.51"/><path d="M-119,-30L-31,61L-1,-21Z" fill="#6f2d7c" stroke="#6f2d7c" stroke-width="1.51"/><path d="M51,-98L-2,-122L-1,-21Z" fill="#692176" stroke="#692176" stroke-width="1.51"/><path d="M156,-120L-2,-122L51,-98Z" fill="#682675" stroke="#682675" stroke-width="1.51"/><path d="M1453,-129L-2,-122L673,-120Z" fill="#a17ea5" stroke="#a17ea5" stroke-width="1.51"/><path d="M-97,909L-108,1030L-31,1014Z" fill="#444248" stroke="#444248" stroke-width="1.51"/><path d="M-31,1014L-108,1030L171,1001Z" fill="#4d4651" stroke="#4d4651" stroke-width="1.51"/><path d="M-123,676L-108,1030L-97,909Z" fill="#525454" stroke="#525454" stroke-width="1.51"/><path d="M-81,-100L-119,-30L-1,-21Z" fill="#621c6f" stroke="#621c6f" stroke-width="1.51"/><path d="M-112,73L-119,-30L-122,249Z" fill="#723f7f" stroke="#723f7f" stroke-width="1.51"/><path d="M-2,-122L-81,-100L-1,-21Z" fill="#621c6e" stroke="#621c6e" stroke-width="1.51"/></svg>