<svg xmlns="http://www.w3.org/2000/svg" width="1440" height="900"><path d="M751,474L768,559L829,481Z" fill="#fa8230" stroke="#fa8230" stroke-width="1.51"/><path d="M768,559L853,595L829,481Z" fill="#f77a28" stroke="#f77a28" stroke-width="1.51"/><path d="M751,474L667,514L768,559Z" fill="#fb8534" stroke="#fb8534" stroke-width="1.51"/><path d="M829,481L755,394L751,474Z" fill="#fc8937" stroke="#fc8937" stroke-width="1.51"/><path d="M751,474L686,388L667,514Z" fill="#fd8e3d" stroke="#fd8e3d" stroke-width="1.51"/><path d="M768,559L776,644L853,595Z" fill="#f57522" stroke="#f57522" stroke-width="1.51"/><path d="M670,598L776,644L768,559Z" fill="#f77a28" stroke="#f77a28" stroke-width="1.51"/><path d="M829,481L871,403L755,394Z" fill="#fb8838" stroke="#fb8838" stroke-width="1.51"/><path d="M932,481L871,403L829,481Z" fill="#f9802e" stroke="#f9802e" stroke-width="1.51"/><path d="M667,514L670,598L768,559Z" fill="#f98231" stroke="#f98231" stroke-width="1.51"/><path d="M853,595L932,481L829,481Z" fill="#f77926" stroke="#f77926" stroke-width="1.51"/><path d="M755,394L686,388L751,474Z" fill="#fd9040" stroke="#fd9040" stroke-width="1.51"/><path d="M680,332L686,388L755,394Z" fill="#fe974a" stroke="#fe974a" stroke-width="1.51"/><path d="M776,644L854,662L853,595Z" fill="#f26f1d" stroke="#f26f1d" stroke-width="1.51"/><path d="M853,595L953,578L932,481Z" fill="#f4711e" stroke="#f4711e" stroke-width="1.51"/><path d="M933,684L953,578L853,595Z" fill="#f06915" stroke="#f06915" stroke-width="1.51"/><path d="M670,598L675,651L776,644Z" fill="#f57929" stroke="#f57929" stroke-width="1.51"/><path d="M776,644L851,750L854,662Z" fill="#ee6a1a" stroke="#ee6a1a" stroke-width="1.51"/><path d="M932,481L952,422L871,403Z" fill="#f87e2e" stroke="#f87e2e" stroke-width="1.51"/><path d="M1025,477L952,422L932,481Z" fill="#f57827" stroke="#f57827" stroke-width="1.51"/><path d="M850,304L766,315L755,394Z" fill="#fc9448" stroke="#fc9448" stroke-width="1.51"/><path d="M850,304L755,394L871,403Z" fill="#fb8e41" stroke="#fb8e41" stroke-width="1.51"/><path d="M670,598L597,590L675,651Z" fill="#f78032" stroke="#f78032" stroke-width="1.51"/><path d="M667,514L597,590L670,598Z" fill="#f98537" stroke="#f98537" stroke-width="1.51"/><path d="M574,482L597,590L667,514Z" fill="#fb8d3f" stroke="#fb8d3f" stroke-width="1.51"/><path d="M569,421L574,482L667,514Z" fill="#fd9447" stroke="#fd9447" stroke-width="1.51"/><path d="M766,315L680,332L755,394Z" fill="#fd984b" stroke="#fd984b" stroke-width="1.51"/><path d="M569,421L667,514L686,388Z" fill="#fe9447" stroke="#fe9447" stroke-width="1.51"/><path d="M944,337L850,304L871,403Z" fill="#fa8b3f" stroke="#fa8b3f" stroke-width="1.51"/><path d="M854,662L933,684L853,595Z" fill="#ef6917" stroke="#ef6917" stroke-width="1.51"/><path d="M851,750L933,684L854,662Z" fill="#eb6415" stroke="#eb6415" stroke-width="1.51"/><path d="M953,578L1025,477L932,481Z" fill="#f37220" stroke="#f37220" stroke-width="1.51"/><path d="M933,684L1006,582L953,578Z" fill="#ee6611" stroke="#ee6611" stroke-width="1.51"/><path d="M952,422L944,337L871,403Z" fill="#f98435" stroke="#f98435" stroke-width="1.51"/><path d="M1042,399L944,337L952,422Z" fill="#f68033" stroke="#f68033" stroke-width="1.51"/><path d="M610,314L569,421L686,388Z" fill="#fe9d53" stroke="#fe9d53" stroke-width="1.51"/><path d="M1006,582L1025,477L953,578Z" fill="#f16c1a" stroke="#f16c1a" stroke-width="1.51"/><path d="M675,651L743,751L776,644Z" fill="#f07224" stroke="#f07224" stroke-width="1.51"/><path d="M664,771L743,751L675,651Z" fill="#ee7127" stroke="#ee7127" stroke-width="1.51"/><path d="M743,751L851,750L776,644Z" fill="#ec6a1d" stroke="#ec6a1d" stroke-width="1.51"/><path d="M597,590L572,660L675,651Z" fill="#f68034" stroke="#f68034" stroke-width="1.51"/><path d="M515,587L572,660L597,590Z" fill="#f7873c" stroke="#f7873c" stroke-width="1.51"/><path d="M515,587L597,590L574,482Z" fill="#fa8d42" stroke="#fa8d42" stroke-width="1.51"/><path d="M680,332L610,314L686,388Z" fill="#fd9e54" stroke="#fd9e54" stroke-width="1.51"/><path d="M693,225L610,314L680,332Z" fill="#fda35c" stroke="#fda35c" stroke-width="1.51"/><path d="M693,225L680,332L766,315Z" fill="#fe9f56" stroke="#fe9f56" stroke-width="1.51"/><path d="M850,304L837,249L766,315Z" fill="#fc974e" stroke="#fc974e" stroke-width="1.51"/><path d="M927,213L837,249L850,304Z" fill="#fb9750" stroke="#fb9750" stroke-width="1.51"/><path d="M837,249L776,243L766,315Z" fill="#fd9b54" stroke="#fd9b54" stroke-width="1.51"/><path d="M1025,477L1042,399L952,422Z" fill="#f3792a" stroke="#f3792a" stroke-width="1.51"/><path d="M944,337L927,213L850,304Z" fill="#fa9048" stroke="#fa9048" stroke-width="1.51"/><path d="M1088,475L1042,399L1025,477Z" fill="#f17325" stroke="#f17325" stroke-width="1.51"/><path d="M500,484L515,587L574,482Z" fill="#fb9449" stroke="#fb9449" stroke-width="1.51"/><path d="M582,751L664,771L675,651Z" fill="#ee752d" stroke="#ee752d" stroke-width="1.51"/><path d="M743,751L742,823L851,750Z" fill="#e6651c" stroke="#e6651c" stroke-width="1.51"/><path d="M569,421L500,484L574,482Z" fill="#fd994e" stroke="#fd994e" stroke-width="1.51"/><path d="M490,414L500,484L569,421Z" fill="#fd9e54" stroke="#fd9e54" stroke-width="1.51"/><path d="M933,684L1037,662L1006,582Z" fill="#ea610e" stroke="#ea610e" stroke-width="1.51"/><path d="M1006,582L1088,475L1025,477Z" fill="#ef6d1d" stroke="#ef6d1d" stroke-width="1.51"/><path d="M1035,735L1037,662L933,684Z" fill="#e65a0a" stroke="#e65a0a" stroke-width="1.51"/><path d="M851,750L940,765L933,684Z" fill="#e85d0f" stroke="#e85d0f" stroke-width="1.51"/><path d="M916,824L940,765L851,750Z" fill="#e25a0f" stroke="#e25a0f" stroke-width="1.51"/><path d="M762,154L693,225L776,243Z" fill="#ffa663" stroke="#ffa663" stroke-width="1.51"/><path d="M776,243L693,225L766,315Z" fill="#fea059" stroke="#fea059" stroke-width="1.51"/><path d="M1127,579L1088,475L1006,582Z" fill="#ec6617" stroke="#ec6617" stroke-width="1.51"/><path d="M511,333L490,414L569,421Z" fill="#fea35b" stroke="#fea35b" stroke-width="1.51"/><path d="M511,333L569,421L610,314Z" fill="#fea45c" stroke="#fea45c" stroke-width="1.51"/><path d="M664,771L742,823L743,751Z" fill="#e66a22" stroke="#e66a22" stroke-width="1.51"/><path d="M664,771L688,860L742,823Z" fill="#e06924" stroke="#e06924" stroke-width="1.51"/><path d="M572,660L582,751L675,651Z" fill="#f27c32" stroke="#f27c32" stroke-width="1.51"/><path d="M522,756L582,751L572,660Z" fill="#ef7c36" stroke="#ef7c36" stroke-width="1.51"/><path d="M742,823L847,831L851,750Z" fill="#e06118" stroke="#e06118" stroke-width="1.51"/><path d="M1042,399L1043,307L944,337Z" fill="#f58238" stroke="#f58238" stroke-width="1.51"/><path d="M1124,327L1043,307L1042,399Z" fill="#f17e37" stroke="#f17e37" stroke-width="1.51"/><path d="M519,248L511,333L610,314Z" fill="#fdab67" stroke="#fdab67" stroke-width="1.51"/><path d="M1009,213L927,213L944,337Z" fill="#f8904a" stroke="#f8904a" stroke-width="1.51"/><path d="M837,249L762,154L776,243Z" fill="#fda25d" stroke="#fda25d" stroke-width="1.51"/><path d="M693,225L596,237L610,314Z" fill="#fea965" stroke="#fea965" stroke-width="1.51"/><path d="M1037,662L1127,579L1006,582Z" fill="#ea600d" stroke="#ea600d" stroke-width="1.51"/><path d="M940,765L1035,735L933,684Z" fill="#e55909" stroke="#e55909" stroke-width="1.51"/><path d="M1016,835L1035,735L940,765Z" fill="#dd5307" stroke="#dd5307" stroke-width="1.51"/><path d="M847,831L916,824L851,750Z" fill="#de5b12" stroke="#de5b12" stroke-width="1.51"/><path d="M515,587L495,684L572,660Z" fill="#f5873e" stroke="#f5873e" stroke-width="1.51"/><path d="M438,565L495,684L515,587Z" fill="#f88d45" stroke="#f88d45" stroke-width="1.51"/><path d="M438,565L515,587L500,484Z" fill="#fb954c" stroke="#fb954c" stroke-width="1.51"/><path d="M1088,475L1110,402L1042,399Z" fill="#f07429" stroke="#f07429" stroke-width="1.51"/><path d="M1187,497L1110,402L1088,475Z" fill="#ec6d22" stroke="#ec6d22" stroke-width="1.51"/><path d="M1108,680L1127,579L1037,662Z" fill="#e65a09" stroke="#e65a09" stroke-width="1.51"/><path d="M397,507L438,565L500,484Z" fill="#fd9b54" stroke="#fd9b54" stroke-width="1.51"/><path d="M430,405L500,484L490,414Z" fill="#fea25a" stroke="#fea25a" stroke-width="1.51"/><path d="M693,225L668,159L596,237Z" fill="#ffae6c" stroke="#ffae6c" stroke-width="1.51"/><path d="M861,137L762,154L837,249Z" fill="#fea462" stroke="#fea462" stroke-width="1.51"/><path d="M585,823L688,860L664,771Z" fill="#e16e2a" stroke="#e16e2a" stroke-width="1.51"/><path d="M495,684L522,756L572,660Z" fill="#f1813b" stroke="#f1813b" stroke-width="1.51"/><path d="M421,758L522,756L495,684Z" fill="#ef823f" stroke="#ef823f" stroke-width="1.51"/><path d="M742,823L759,928L847,831Z" fill="#d75f1b" stroke="#d75f1b" stroke-width="1.51"/><path d="M949,924L1016,835L916,824Z" fill="#d15009" stroke="#d15009" stroke-width="1.51"/><path d="M585,823L664,771L582,751Z" fill="#e8732f" stroke="#e8732f" stroke-width="1.51"/><path d="M1035,735L1108,680L1037,662Z" fill="#e35607" stroke="#e35607" stroke-width="1.51"/><path d="M762,154L668,159L693,225Z" fill="#ffac6b" stroke="#ffac6b" stroke-width="1.51"/><path d="M1043,307L1009,213L944,337Z" fill="#f68a43" stroke="#f68a43" stroke-width="1.51"/><path d="M927,213L861,137L837,249Z" fill="#fc9c5a" stroke="#fc9c5a" stroke-width="1.51"/><path d="M1122,244L1009,213L1043,307Z" fill="#f38946" stroke="#f38946" stroke-width="1.51"/><path d="M522,756L585,823L582,751Z" fill="#e97734" stroke="#e97734" stroke-width="1.51"/><path d="M511,333L430,405L490,414Z" fill="#fea762" stroke="#fea762" stroke-width="1.51"/><path d="M399,315L430,405L511,333Z" fill="#fead6b" stroke="#fead6b" stroke-width="1.51"/><path d="M519,248L610,314L596,237Z" fill="#feac6a" stroke="#feac6a" stroke-width="1.51"/><path d="M489,152L519,248L596,237Z" fill="#feb577" stroke="#feb577" stroke-width="1.51"/><path d="M952,162L861,137L927,213Z" fill="#fb9d5c" stroke="#fb9d5c" stroke-width="1.51"/><path d="M696,45L600,138L668,159Z" fill="#ffb67c" stroke="#ffb67c" stroke-width="1.51"/><path d="M1176,339L1124,327L1110,402Z" fill="#ee7833" stroke="#ee7833" stroke-width="1.51"/><path d="M1110,402L1124,327L1042,399Z" fill="#f07930" stroke="#f07930" stroke-width="1.51"/><path d="M1009,213L952,162L927,213Z" fill="#fa9655" stroke="#fa9655" stroke-width="1.51"/><path d="M430,405L397,507L500,484Z" fill="#fea15a" stroke="#fea15a" stroke-width="1.51"/><path d="M438,565L407,681L495,684Z" fill="#f68d48" stroke="#f68d48" stroke-width="1.51"/><path d="M1035,735L1127,767L1108,680Z" fill="#df5004" stroke="#df5004" stroke-width="1.51"/><path d="M916,824L1016,835L940,765Z" fill="#da5409" stroke="#da5409" stroke-width="1.51"/><path d="M949,924L916,824L847,831Z" fill="#d4550e" stroke="#d4550e" stroke-width="1.51"/><path d="M1127,579L1187,497L1088,475Z" fill="#ea6519" stroke="#ea6519" stroke-width="1.51"/><path d="M1192,579L1187,497L1127,579Z" fill="#e55f13" stroke="#e55f13" stroke-width="1.51"/><path d="M1179,652L1192,579L1127,579Z" fill="#e45809" stroke="#e45809" stroke-width="1.51"/><path d="M1179,652L1127,579L1108,680Z" fill="#e35608" stroke="#e35608" stroke-width="1.51"/><path d="M339,560L407,681L438,565Z" fill="#fa9551" stroke="#fa9551" stroke-width="1.51"/><path d="M522,756L490,854L585,823Z" fill="#e37737" stroke="#e37737" stroke-width="1.51"/><path d="M1204,739L1179,652L1108,680Z" fill="#dc4f04" stroke="#dc4f04" stroke-width="1.51"/><path d="M696,45L668,159L762,154Z" fill="#ffb275" stroke="#ffb275" stroke-width="1.51"/><path d="M668,159L600,138L596,237Z" fill="#ffb375" stroke="#ffb375" stroke-width="1.51"/><path d="M688,860L759,928L742,823Z" fill="#d7631f" stroke="#d7631f" stroke-width="1.51"/><path d="M673,918L759,928L688,860Z" fill="#d26322" stroke="#d26322" stroke-width="1.51"/><path d="M585,908L688,860L585,823Z" fill="#d96d2c" stroke="#d96d2c" stroke-width="1.51"/><path d="M585,908L673,918L688,860Z" fill="#d36829" stroke="#d36829" stroke-width="1.51"/><path d="M1209,413L1176,339L1110,402Z" fill="#eb732d" stroke="#eb732d" stroke-width="1.51"/><path d="M1124,327L1122,244L1043,307Z" fill="#f0823e" stroke="#f0823e" stroke-width="1.51"/><path d="M1009,213L1020,134L952,162Z" fill="#f89758" stroke="#f89758" stroke-width="1.51"/><path d="M1109,835L1127,767L1035,735Z" fill="#d84c03" stroke="#d84c03" stroke-width="1.51"/><path d="M759,928L828,935L847,831Z" fill="#d05b18" stroke="#d05b18" stroke-width="1.51"/><path d="M1176,339L1122,244L1124,327Z" fill="#ee7e3b" stroke="#ee7e3b" stroke-width="1.51"/><path d="M1262,393L1209,413L1291,474Z" fill="#df6a25" stroke="#df6a25" stroke-width="1.51"/><path d="M1187,497L1209,413L1110,402Z" fill="#ea6d24" stroke="#ea6d24" stroke-width="1.51"/><path d="M416,234L511,333L519,248Z" fill="#fdb373" stroke="#fdb373" stroke-width="1.51"/><path d="M416,234L399,315L511,333Z" fill="#feb474" stroke="#feb474" stroke-width="1.51"/><path d="M430,405L334,476L397,507Z" fill="#ffa562" stroke="#ffa562" stroke-width="1.51"/><path d="M407,681L421,758L495,684Z" fill="#f28746" stroke="#f28746" stroke-width="1.51"/><path d="M952,162L947,81L861,137Z" fill="#fca163" stroke="#fca163" stroke-width="1.51"/><path d="M861,137L832,54L762,154Z" fill="#ffaa6c" stroke="#ffaa6c" stroke-width="1.51"/><path d="M1089,140L1020,134L1009,213Z" fill="#f69558" stroke="#f69558" stroke-width="1.51"/><path d="M828,935L949,924L847,831Z" fill="#ce5511" stroke="#ce5511" stroke-width="1.51"/><path d="M1016,835L1109,835L1035,735Z" fill="#d64d05" stroke="#d64d05" stroke-width="1.51"/><path d="M490,854L585,908L585,823Z" fill="#da7234" stroke="#da7234" stroke-width="1.51"/><path d="M742,1025L828,935L759,928Z" fill="#c85a1b" stroke="#c85a1b" stroke-width="1.51"/><path d="M397,507L339,560L438,565Z" fill="#fc9c58" stroke="#fc9c58" stroke-width="1.51"/><path d="M320,771L412,824L421,758Z" fill="#ea854a" stroke="#ea854a" stroke-width="1.51"/><path d="M334,476L339,560L397,507Z" fill="#fda25f" stroke="#fda25f" stroke-width="1.51"/><path d="M421,758L490,854L522,756Z" fill="#e77d3e" stroke="#e77d3e" stroke-width="1.51"/><path d="M326,409L334,476L430,405Z" fill="#ffab69" stroke="#ffab69" stroke-width="1.51"/><path d="M1097,918L1109,835L1016,835Z" fill="#cb4705" stroke="#cb4705" stroke-width="1.51"/><path d="M1127,767L1204,739L1108,680Z" fill="#dc4b02" stroke="#dc4b02" stroke-width="1.51"/><path d="M1020,134L947,81L952,162Z" fill="#fa9d60" stroke="#fa9d60" stroke-width="1.51"/><path d="M947,81L832,54L861,137Z" fill="#fea66b" stroke="#fea66b" stroke-width="1.51"/><path d="M949,924L1009,914L1016,835Z" fill="#ca4c07" stroke="#ca4c07" stroke-width="1.51"/><path d="M342,338L326,409L430,405Z" fill="#ffb070" stroke="#ffb070" stroke-width="1.51"/><path d="M489,152L416,234L519,248Z" fill="#feba7f" stroke="#feba7f" stroke-width="1.51"/><path d="M600,138L489,152L596,237Z" fill="#feb87b" stroke="#feb87b" stroke-width="1.51"/><path d="M511,81L489,152L600,138Z" fill="#febf87" stroke="#febf87" stroke-width="1.51"/><path d="M832,54L773,41L762,154Z" fill="#ffae73" stroke="#ffae73" stroke-width="1.51"/><path d="M247,564L323,686L339,560Z" fill="#fb9d5c" stroke="#fb9d5c" stroke-width="1.51"/><path d="M342,338L430,405L399,315Z" fill="#ffb172" stroke="#ffb172" stroke-width="1.51"/><path d="M773,41L696,45L762,154Z" fill="#ffb278" stroke="#ffb278" stroke-width="1.51"/><path d="M1197,846L1204,739L1127,767Z" fill="#d04502" stroke="#d04502" stroke-width="1.51"/><path d="M1179,652L1266,587L1192,579Z" fill="#dd5609" stroke="#dd5609" stroke-width="1.51"/><path d="M1192,579L1266,587L1187,497Z" fill="#df5c13" stroke="#df5c13" stroke-width="1.51"/><path d="M339,214L342,338L399,315Z" fill="#febb7f" stroke="#febb7f" stroke-width="1.51"/><path d="M1122,244L1089,140L1009,213Z" fill="#f48e50" stroke="#f48e50" stroke-width="1.51"/><path d="M1020,134L1005,74L947,81Z" fill="#fa9e64" stroke="#fa9e64" stroke-width="1.51"/><path d="M1182,163L1089,140L1122,244Z" fill="#f18c51" stroke="#f18c51" stroke-width="1.51"/><path d="M1181,225L1122,244L1176,339Z" fill="#ed8141" stroke="#ed8141" stroke-width="1.51"/><path d="M1268,666L1266,587L1179,652Z" fill="#d85208" stroke="#d85208" stroke-width="1.51"/><path d="M1262,393L1176,339L1209,413Z" fill="#e5712d" stroke="#e5712d" stroke-width="1.51"/><path d="M1288,335L1181,225L1176,339Z" fill="#e57a3a" stroke="#e57a3a" stroke-width="1.51"/><path d="M947,81L858,-9L832,54Z" fill="#ffaa72" stroke="#ffaa72" stroke-width="1.51"/><path d="M832,54L858,-9L773,41Z" fill="#ffb079" stroke="#ffb079" stroke-width="1.51"/><path d="M1089,140L1005,74L1020,134Z" fill="#f8995f" stroke="#f8995f" stroke-width="1.51"/><path d="M421,758L412,824L490,854Z" fill="#e47e42" stroke="#e47e42" stroke-width="1.51"/><path d="M490,854L513,945L585,908Z" fill="#d27136" stroke="#d27136" stroke-width="1.51"/><path d="M323,686L421,758L407,681Z" fill="#f38c4d" stroke="#f38c4d" stroke-width="1.51"/><path d="M1291,474L1209,413L1187,497Z" fill="#e26620" stroke="#e26620" stroke-width="1.51"/><path d="M247,564L339,560L334,476Z" fill="#fda464" stroke="#fda464" stroke-width="1.51"/><path d="M339,560L323,686L407,681Z" fill="#f89454" stroke="#f89454" stroke-width="1.51"/><path d="M489,152L428,165L416,234Z" fill="#fec087" stroke="#fec087" stroke-width="1.51"/><path d="M416,234L339,214L399,315Z" fill="#febd82" stroke="#febd82" stroke-width="1.51"/><path d="M400,53L428,165L489,152Z" fill="#fec692" stroke="#fec692" stroke-width="1.51"/><path d="M696,45L572,57L600,138Z" fill="#ffbb84" stroke="#ffbb84" stroke-width="1.51"/><path d="M1266,587L1291,474L1187,497Z" fill="#dd5f18" stroke="#dd5f18" stroke-width="1.51"/><path d="M1266,587L1349,588L1291,474Z" fill="#d55913" stroke="#d55913" stroke-width="1.51"/><path d="M1204,739L1268,666L1179,652Z" fill="#d64d05" stroke="#d64d05" stroke-width="1.51"/><path d="M828,935L845,1015L949,924Z" fill="#c65212" stroke="#c65212" stroke-width="1.51"/><path d="M949,924L1041,1004L1009,914Z" fill="#c24908" stroke="#c24908" stroke-width="1.51"/><path d="M742,1025L845,1015L828,935Z" fill="#c35518" stroke="#c35518" stroke-width="1.51"/><path d="M742,1025L759,928L673,918Z" fill="#ca5e1f" stroke="#ca5e1f" stroke-width="1.51"/><path d="M572,57L511,81L600,138Z" fill="#ffbf88" stroke="#ffbf88" stroke-width="1.51"/><path d="M1204,739L1262,772L1268,666Z" fill="#d04703" stroke="#d04703" stroke-width="1.51"/><path d="M1109,835L1197,846L1127,767Z" fill="#ce4402" stroke="#ce4402" stroke-width="1.51"/><path d="M1009,914L1097,918L1016,835Z" fill="#c84806" stroke="#c84806" stroke-width="1.51"/><path d="M1041,1004L1097,918L1009,914Z" fill="#bf4506" stroke="#bf4506" stroke-width="1.51"/><path d="M670,1023L742,1025L673,918Z" fill="#c65f23" stroke="#c65f23" stroke-width="1.51"/><path d="M427,914L513,945L490,854Z" fill="#d3753c" stroke="#d3753c" stroke-width="1.51"/><path d="M670,1023L673,918L585,908Z" fill="#cc6529" stroke="#cc6529" stroke-width="1.51"/><path d="M753,-35L679,-15L696,45Z" fill="#ffbb86" stroke="#ffbb86" stroke-width="1.51"/><path d="M696,45L583,-5L572,57Z" fill="#ffbf8b" stroke="#ffbf8b" stroke-width="1.51"/><path d="M941,-47L858,-9L947,81Z" fill="#ffaa74" stroke="#ffaa74" stroke-width="1.51"/><path d="M572,1027L670,1023L585,908Z" fill="#c7662c" stroke="#c7662c" stroke-width="1.51"/><path d="M1089,140L1123,72L1005,74Z" fill="#f69961" stroke="#f69961" stroke-width="1.51"/><path d="M1005,74L941,-47L947,81Z" fill="#fda46d" stroke="#fda46d" stroke-width="1.51"/><path d="M1181,225L1182,163L1122,244Z" fill="#ee874b" stroke="#ee874b" stroke-width="1.51"/><path d="M1266,130L1182,163L1181,225Z" fill="#e98951" stroke="#e98951" stroke-width="1.51"/><path d="M1288,335L1176,339L1262,393Z" fill="#e27231" stroke="#e27231" stroke-width="1.51"/><path d="M1097,918L1197,846L1109,835Z" fill="#c64203" stroke="#c64203" stroke-width="1.51"/><path d="M1358,403L1288,335L1262,393Z" fill="#da6d2d" stroke="#da6d2d" stroke-width="1.51"/><path d="M412,824L427,914L490,854Z" fill="#db7b41" stroke="#db7b41" stroke-width="1.51"/><path d="M323,686L320,771L421,758Z" fill="#f18b4f" stroke="#f18b4f" stroke-width="1.51"/><path d="M233,741L320,771L323,686Z" fill="#f29157" stroke="#f29157" stroke-width="1.51"/><path d="M326,409L261,410L334,476Z" fill="#ffaf70" stroke="#ffaf70" stroke-width="1.51"/><path d="M342,338L261,410L326,409Z" fill="#ffb476" stroke="#ffb476" stroke-width="1.51"/><path d="M240,310L261,410L342,338Z" fill="#ffba7f" stroke="#ffba7f" stroke-width="1.51"/><path d="M753,-35L696,45L773,41Z" fill="#ffb781" stroke="#ffb781" stroke-width="1.51"/><path d="M572,57L486,-39L511,81Z" fill="#ffc695" stroke="#ffc695" stroke-width="1.51"/><path d="M428,165L339,214L416,234Z" fill="#fec18a" stroke="#fec18a" stroke-width="1.51"/><path d="M345,128L339,214L428,165Z" fill="#fec793" stroke="#fec793" stroke-width="1.51"/><path d="M513,945L572,1027L585,908Z" fill="#ca6b32" stroke="#ca6b32" stroke-width="1.51"/><path d="M333,846L427,914L412,824Z" fill="#dc7f47" stroke="#dc7f47" stroke-width="1.51"/><path d="M845,1015L931,1032L949,924Z" fill="#c04d0d" stroke="#c04d0d" stroke-width="1.51"/><path d="M742,1025L931,1032L845,1015Z" fill="#be5115" stroke="#be5115" stroke-width="1.51"/><path d="M492,1033L931,1032L742,1025Z" fill="#c05a1f" stroke="#c05a1f" stroke-width="1.51"/><path d="M1197,846L1262,772L1204,739Z" fill="#cb4302" stroke="#cb4302" stroke-width="1.51"/><path d="M1268,666L1349,588L1266,587Z" fill="#d3510a" stroke="#d3510a" stroke-width="1.51"/><path d="M233,497L247,564L334,476Z" fill="#fea96a" stroke="#fea96a" stroke-width="1.51"/><path d="M858,-9L753,-35L773,41Z" fill="#ffb47f" stroke="#ffb47f" stroke-width="1.51"/><path d="M1182,163L1123,72L1089,140Z" fill="#f2925b" stroke="#f2925b" stroke-width="1.51"/><path d="M261,410L233,497L334,476Z" fill="#ffae6f" stroke="#ffae6f" stroke-width="1.51"/><path d="M931,1032L1041,1004L949,924Z" fill="#bd4809" stroke="#bd4809" stroke-width="1.51"/><path d="M1186,937L1260,841L1197,846Z" fill="#bd3e03" stroke="#bd3e03" stroke-width="1.51"/><path d="M679,-15L583,-5L696,45Z" fill="#ffbe8a" stroke="#ffbe8a" stroke-width="1.51"/><path d="M400,53L345,128L428,165Z" fill="#feca99" stroke="#feca99" stroke-width="1.51"/><path d="M611,-108L583,-5L679,-15Z" fill="#ffc393" stroke="#ffc393" stroke-width="1.51"/><path d="M670,1023L572,1027L742,1025Z" fill="#c15f26" stroke="#c15f26" stroke-width="1.51"/><path d="M492,1033L572,1027L513,945Z" fill="#c56b34" stroke="#c56b34" stroke-width="1.51"/><path d="M320,771L333,846L412,824Z" fill="#e5854d" stroke="#e5854d" stroke-width="1.51"/><path d="M437,1008L492,1033L513,945Z" fill="#c66f3a" stroke="#c66f3a" stroke-width="1.51"/><path d="M261,826L333,846L320,771Z" fill="#e58953" stroke="#e58953" stroke-width="1.51"/><path d="M1386,651L1349,588L1268,666Z" fill="#cd4d08" stroke="#cd4d08" stroke-width="1.51"/><path d="M1291,474L1358,403L1262,393Z" fill="#d96826" stroke="#d96826" stroke-width="1.51"/><path d="M1349,588L1360,471L1291,474Z" fill="#d35c18" stroke="#d35c18" stroke-width="1.51"/><path d="M1370,745L1386,651L1268,666Z" fill="#c74705" stroke="#c74705" stroke-width="1.51"/><path d="M1197,846L1260,841L1262,772Z" fill="#c34002" stroke="#c34002" stroke-width="1.51"/><path d="M1186,937L1197,846L1097,918Z" fill="#bf3e02" stroke="#bf3e02" stroke-width="1.51"/><path d="M1288,335L1297,240L1181,225Z" fill="#e17c40" stroke="#e17c40" stroke-width="1.51"/><path d="M1182,163L1208,82L1123,72Z" fill="#ef915c" stroke="#ef915c" stroke-width="1.51"/><path d="M1382,317L1297,240L1288,335Z" fill="#d87539" stroke="#d87539" stroke-width="1.51"/><path d="M1039,-38L941,-47L1005,74Z" fill="#fca572" stroke="#fca572" stroke-width="1.51"/><path d="M858,-9L779,-101L753,-35Z" fill="#ffb684" stroke="#ffb684" stroke-width="1.51"/><path d="M1360,471L1358,403L1291,474Z" fill="#d56320" stroke="#d56320" stroke-width="1.51"/><path d="M339,214L240,310L342,338Z" fill="#febf86" stroke="#febf86" stroke-width="1.51"/><path d="M261,410L164,421L233,497Z" fill="#ffb377" stroke="#ffb377" stroke-width="1.51"/><path d="M177,599L231,686L247,564Z" fill="#fca065" stroke="#fca065" stroke-width="1.51"/><path d="M247,564L231,686L323,686Z" fill="#f99b5e" stroke="#f99b5e" stroke-width="1.51"/><path d="M1109,1013L1186,937L1097,918Z" fill="#b93e03" stroke="#b93e03" stroke-width="1.51"/><path d="M339,214L233,252L240,310Z" fill="#fec590" stroke="#fec590" stroke-width="1.51"/><path d="M400,53L489,152L511,81Z" fill="#fec692" stroke="#fec692" stroke-width="1.51"/><path d="M1041,1004L1109,1013L1097,918Z" fill="#b94005" stroke="#b94005" stroke-width="1.51"/><path d="M931,1032L1109,1013L1041,1004Z" fill="#b74207" stroke="#b74207" stroke-width="1.51"/><path d="M437,1008L513,945L427,914Z" fill="#cc733d" stroke="#cc733d" stroke-width="1.51"/><path d="M572,1027L492,1033L742,1025Z" fill="#c1642c" stroke="#c1642c" stroke-width="1.51"/><path d="M486,-39L400,53L511,81Z" fill="#ffca9c" stroke="#ffca9c" stroke-width="1.51"/><path d="M352,937L437,1008L427,914Z" fill="#cd7844" stroke="#cd7844" stroke-width="1.51"/><path d="M231,686L233,741L323,686Z" fill="#f5955c" stroke="#f5955c" stroke-width="1.51"/><path d="M1108,-4L1039,-38L1005,74Z" fill="#f9a06e" stroke="#f9a06e" stroke-width="1.51"/><path d="M1266,130L1208,82L1182,163Z" fill="#e98d59" stroke="#e98d59" stroke-width="1.51"/><path d="M1108,-4L1005,74L1123,72Z" fill="#f79c67" stroke="#f79c67" stroke-width="1.51"/><path d="M1204,-27L1108,-4L1123,72Z" fill="#f5996a" stroke="#f5996a" stroke-width="1.51"/><path d="M352,937L427,914L333,846Z" fill="#d67e49" stroke="#d67e49" stroke-width="1.51"/><path d="M244,927L352,937L333,846Z" fill="#d58250" stroke="#d58250" stroke-width="1.51"/><path d="M258,128L233,252L339,214Z" fill="#fecb9a" stroke="#fecb9a" stroke-width="1.51"/><path d="M143,485L177,599L233,497Z" fill="#ffac71" stroke="#ffac71" stroke-width="1.51"/><path d="M233,497L177,599L247,564Z" fill="#fea76b" stroke="#fea76b" stroke-width="1.51"/><path d="M258,128L339,214L345,128Z" fill="#fdcd9d" stroke="#fdcd9d" stroke-width="1.51"/><path d="M1208,82L1204,-27L1123,72Z" fill="#f09565" stroke="#f09565" stroke-width="1.51"/><path d="M1297,240L1266,130L1181,225Z" fill="#e4844c" stroke="#e4844c" stroke-width="1.51"/><path d="M1351,165L1266,130L1297,240Z" fill="#dd834f" stroke="#dd834f" stroke-width="1.51"/><path d="M753,-35L673,-120L679,-15Z" fill="#ffbe8c" stroke="#ffbe8c" stroke-width="1.51"/><path d="M583,-5L486,-39L572,57Z" fill="#ffc697" stroke="#ffc697" stroke-width="1.51"/><path d="M838,-107L779,-101L858,-9Z" fill="#ffb583" stroke="#ffb583" stroke-width="1.51"/><path d="M838,-107L858,-9L920,-112Z" fill="#ffb180" stroke="#ffb180" stroke-width="1.51"/><path d="M233,741L261,826L320,771Z" fill="#ec8e58" stroke="#ec8e58" stroke-width="1.51"/><path d="M1451,474L1446,423L1360,471Z" fill="#cc5f20" stroke="#cc5f20" stroke-width="1.51"/><path d="M1446,423L1382,317L1358,403Z" fill="#d0682b" stroke="#d0682b" stroke-width="1.51"/><path d="M1370,745L1268,666L1262,772Z" fill="#c94503" stroke="#c94503" stroke-width="1.51"/><path d="M164,421L261,410L240,310Z" fill="#ffba80" stroke="#ffba80" stroke-width="1.51"/><path d="M231,686L146,747L233,741Z" fill="#f49660" stroke="#f49660" stroke-width="1.51"/><path d="M233,741L158,843L261,826Z" fill="#e98f5c" stroke="#e98f5c" stroke-width="1.51"/><path d="M920,-112L858,-9L941,-47Z" fill="#ffae7b" stroke="#ffae7b" stroke-width="1.51"/><path d="M1358,403L1382,317L1288,335Z" fill="#d66e30" stroke="#d66e30" stroke-width="1.51"/><path d="M1446,423L1358,403L1360,471Z" fill="#cf6323" stroke="#cf6323" stroke-width="1.51"/><path d="M1366,821L1370,745L1262,772Z" fill="#bf3f03" stroke="#bf3f03" stroke-width="1.51"/><path d="M1186,937L1289,930L1260,841Z" fill="#b43b03" stroke="#b43b03" stroke-width="1.51"/><path d="M1109,1013L1191,990L1186,937Z" fill="#b43a03" stroke="#b43a03" stroke-width="1.51"/><path d="M515,-94L486,-39L583,-5Z" fill="#ffca9e" stroke="#ffca9e" stroke-width="1.51"/><path d="M1366,821L1262,772L1260,841Z" fill="#be3e03" stroke="#be3e03" stroke-width="1.51"/><path d="M147,328L164,421L240,310Z" fill="#ffbf89" stroke="#ffbf89" stroke-width="1.51"/><path d="M1009,-92L941,-47L1039,-38Z" fill="#fea777" stroke="#fea777" stroke-width="1.51"/><path d="M1009,-92L920,-112L941,-47Z" fill="#ffab7a" stroke="#ffab7a" stroke-width="1.51"/><path d="M920,-112L673,-120L838,-107Z" fill="#ffb888" stroke="#ffb888" stroke-width="1.51"/><path d="M838,-107L673,-120L779,-101Z" fill="#ffbb8c" stroke="#ffbb8c" stroke-width="1.51"/><path d="M779,-101L673,-120L753,-35Z" fill="#ffbd8c" stroke="#ffbd8c" stroke-width="1.51"/><path d="M1094,-98L1009,-92L1039,-38Z" fill="#fca476" stroke="#fca476" stroke-width="1.51"/><path d="M1094,-98L1039,-38L1108,-4Z" fill="#f9a172" stroke="#f9a172" stroke-width="1.51"/><path d="M177,599L163,665L231,686Z" fill="#fa9e66" stroke="#fa9e66" stroke-width="1.51"/><path d="M79,559L163,665L177,599Z" fill="#fea56d" stroke="#fea56d" stroke-width="1.51"/><path d="M673,-120L611,-108L679,-15Z" fill="#ffc294" stroke="#ffc294" stroke-width="1.51"/><path d="M412,-29L346,41L400,53Z" fill="#ffd1a8" stroke="#ffd1a8" stroke-width="1.51"/><path d="M400,53L346,41L345,128Z" fill="#fecfa3" stroke="#fecfa3" stroke-width="1.51"/><path d="M164,421L143,485L233,497Z" fill="#ffb279" stroke="#ffb279" stroke-width="1.51"/><path d="M1266,130L1264,71L1208,82Z" fill="#e68e5c" stroke="#e68e5c" stroke-width="1.51"/><path d="M1352,67L1264,71L1266,130Z" fill="#e08b5c" stroke="#e08b5c" stroke-width="1.51"/><path d="M176,236L147,328L240,310Z" fill="#ffc592" stroke="#ffc592" stroke-width="1.51"/><path d="M76,398L70,476L143,485Z" fill="#ffb882" stroke="#ffb882" stroke-width="1.51"/><path d="M346,41L258,128L345,128Z" fill="#fed1a5" stroke="#fed1a5" stroke-width="1.51"/><path d="M1191,990L1289,930L1186,937Z" fill="#b03903" stroke="#b03903" stroke-width="1.51"/><path d="M352,937L347,996L437,1008Z" fill="#ca7847" stroke="#ca7847" stroke-width="1.51"/><path d="M437,1008L347,996L492,1033Z" fill="#c57240" stroke="#c57240" stroke-width="1.51"/><path d="M244,927L347,996L352,937Z" fill="#ce7f4f" stroke="#ce7f4f" stroke-width="1.51"/><path d="M244,927L333,846L261,826Z" fill="#dc8755" stroke="#dc8755" stroke-width="1.51"/><path d="M1370,745L1449,647L1386,651Z" fill="#c14605" stroke="#c14605" stroke-width="1.51"/><path d="M1289,930L1366,821L1260,841Z" fill="#b43b03" stroke="#b43b03" stroke-width="1.51"/><path d="M346,41L242,42L258,128Z" fill="#fed6ad" stroke="#fed6ad" stroke-width="1.51"/><path d="M486,-39L412,-29L400,53Z" fill="#ffcfa5" stroke="#ffcfa5" stroke-width="1.51"/><path d="M428,-97L412,-29L486,-39Z" fill="#ffd1a9" stroke="#ffd1a9" stroke-width="1.51"/><path d="M1380,217L1351,165L1297,240Z" fill="#d87e49" stroke="#d87e49" stroke-width="1.51"/><path d="M1382,317L1380,217L1297,240Z" fill="#d57840" stroke="#d57840" stroke-width="1.51"/><path d="M428,-97L515,-94L611,-108Z" fill="#ffcea3" stroke="#ffcea3" stroke-width="1.51"/><path d="M611,-108L515,-94L583,-5Z" fill="#ffc89b" stroke="#ffc89b" stroke-width="1.51"/><path d="M1382,317L1448,228L1380,217Z" fill="#d0763f" stroke="#d0763f" stroke-width="1.51"/><path d="M1451,474L1360,471L1349,588Z" fill="#cd5a18" stroke="#cd5a18" stroke-width="1.51"/><path d="M1451,474L1349,588L1458,601Z" fill="#c85312" stroke="#c85312" stroke-width="1.51"/><path d="M1458,601L1349,588L1386,651Z" fill="#c74d09" stroke="#c74d09" stroke-width="1.51"/><path d="M176,236L240,310L233,252Z" fill="#ffc694" stroke="#ffc694" stroke-width="1.51"/><path d="M164,168L176,236L233,252Z" fill="#ffcd9f" stroke="#ffcd9f" stroke-width="1.51"/><path d="M1467,770L1449,647L1370,745Z" fill="#bc4004" stroke="#bc4004" stroke-width="1.51"/><path d="M1449,647L1458,601L1386,651Z" fill="#c24a09" stroke="#c24a09" stroke-width="1.51"/><path d="M1290,-19L1204,-27L1264,71Z" fill="#e89468" stroke="#e89468" stroke-width="1.51"/><path d="M1264,71L1204,-27L1208,82Z" fill="#ea9264" stroke="#ea9264" stroke-width="1.51"/><path d="M1009,-92L1094,-98L920,-112Z" fill="#fea97a" stroke="#fea97a" stroke-width="1.51"/><path d="M1204,-27L1094,-98L1108,-4Z" fill="#f69d70" stroke="#f69d70" stroke-width="1.51"/><path d="M163,665L146,747L231,686Z" fill="#f69a64" stroke="#f69a64" stroke-width="1.51"/><path d="M55,681L146,747L163,665Z" fill="#f89d6a" stroke="#f89d6a" stroke-width="1.51"/><path d="M158,843L244,927L261,826Z" fill="#de8a5b" stroke="#de8a5b" stroke-width="1.51"/><path d="M1446,423L1459,318L1382,317Z" fill="#cd6a30" stroke="#cd6a30" stroke-width="1.51"/><path d="M1466,147L1352,67L1351,165Z" fill="#d48455" stroke="#d48455" stroke-width="1.51"/><path d="M1557,397L1459,318L1446,423Z" fill="#c7652b" stroke="#c7652b" stroke-width="1.51"/><path d="M1531,493L1446,423L1451,474Z" fill="#c65c1e" stroke="#c65c1e" stroke-width="1.51"/><path d="M428,-97L333,-26L412,-29Z" fill="#ffd5af" stroke="#ffd5af" stroke-width="1.51"/><path d="M412,-29L333,-26L346,41Z" fill="#ffd5ae" stroke="#ffd5ae" stroke-width="1.51"/><path d="M258,128L164,168L233,252Z" fill="#fecfa2" stroke="#fecfa2" stroke-width="1.51"/><path d="M515,-94L428,-97L486,-39Z" fill="#ffcfa7" stroke="#ffcfa7" stroke-width="1.51"/><path d="M673,-120L428,-97L611,-108Z" fill="#ffca9f" stroke="#ffca9f" stroke-width="1.51"/><path d="M143,485L79,559L177,599Z" fill="#ffac74" stroke="#ffac74" stroke-width="1.51"/><path d="M70,476L79,559L143,485Z" fill="#ffb27c" stroke="#ffb27c" stroke-width="1.51"/><path d="M169,40L164,168L258,128Z" fill="#fed7b0" stroke="#fed7b0" stroke-width="1.51"/><path d="M78,220L55,321L147,328Z" fill="#ffca9c" stroke="#ffca9c" stroke-width="1.51"/><path d="M76,398L143,485L164,421Z" fill="#ffb882" stroke="#ffb882" stroke-width="1.51"/><path d="M146,747L158,843L233,741Z" fill="#ef9361" stroke="#ef9361" stroke-width="1.51"/><path d="M68,768L158,843L146,747Z" fill="#ed9566" stroke="#ed9566" stroke-width="1.51"/><path d="M76,398L164,421L147,328Z" fill="#ffbe89" stroke="#ffbe89" stroke-width="1.51"/><path d="M1204,-27L1204,-92L1094,-98Z" fill="#f49c72" stroke="#f49c72" stroke-width="1.51"/><path d="M1351,165L1352,67L1266,130Z" fill="#dc8857" stroke="#dc8857" stroke-width="1.51"/><path d="M1466,147L1351,165L1380,217Z" fill="#d27f4d" stroke="#d27f4d" stroke-width="1.51"/><path d="M169,40L242,42L174,-47Z" fill="#fedebf" stroke="#fedebf" stroke-width="1.51"/><path d="M333,-26L242,42L346,41Z" fill="#fed8b2" stroke="#fed8b2" stroke-width="1.51"/><path d="M1459,318L1448,228L1382,317Z" fill="#cd723a" stroke="#cd723a" stroke-width="1.51"/><path d="M55,321L76,398L147,328Z" fill="#ffc393" stroke="#ffc393" stroke-width="1.51"/><path d="M1289,930L1387,942L1366,821Z" fill="#a93703" stroke="#a93703" stroke-width="1.51"/><path d="M1366,821L1467,770L1370,745Z" fill="#b83c02" stroke="#b83c02" stroke-width="1.51"/><path d="M1191,990L1295,1026L1289,930Z" fill="#a93603" stroke="#a93603" stroke-width="1.51"/><path d="M1109,1013L1295,1026L1191,990Z" fill="#ab3703" stroke="#ab3703" stroke-width="1.51"/><path d="M931,1032L1295,1026L1109,1013Z" fill="#b13c04" stroke="#b13c04" stroke-width="1.51"/><path d="M1458,601L1531,493L1451,474Z" fill="#c45516" stroke="#c45516" stroke-width="1.51"/><path d="M1541,589L1531,493L1458,601Z" fill="#bf4f11" stroke="#bf4f11" stroke-width="1.51"/><path d="M1458,826L1467,770L1366,821Z" fill="#b13a03" stroke="#b13a03" stroke-width="1.51"/><path d="M1352,67L1290,-19L1264,71Z" fill="#e08f63" stroke="#e08f63" stroke-width="1.51"/><path d="M1094,-98L1262,-111L920,-112Z" fill="#faa378" stroke="#faa378" stroke-width="1.51"/><path d="M1262,-111L1204,-92L1204,-27Z" fill="#ed9971" stroke="#ed9971" stroke-width="1.51"/><path d="M1379,993L1387,942L1289,930Z" fill="#a13404" stroke="#a13404" stroke-width="1.51"/><path d="M1464,904L1458,826L1366,821Z" fill="#a93704" stroke="#a93704" stroke-width="1.51"/><path d="M1458,601L1449,647L1542,657Z" fill="#be4709" stroke="#be4709" stroke-width="1.51"/><path d="M1541,589L1458,601L1542,657Z" fill="#bc4809" stroke="#bc4809" stroke-width="1.51"/><path d="M1522,154L1466,147L1448,228Z" fill="#cb7c4c" stroke="#cb7c4c" stroke-width="1.51"/><path d="M165,935L226,1001L244,927Z" fill="#d08459" stroke="#d08459" stroke-width="1.51"/><path d="M244,927L226,1001L347,996Z" fill="#cc8053" stroke="#cc8053" stroke-width="1.51"/><path d="M347,996L226,1001L492,1033Z" fill="#c67749" stroke="#c67749" stroke-width="1.51"/><path d="M79,559L55,681L163,665Z" fill="#fda46f" stroke="#fda46f" stroke-width="1.51"/><path d="M158,843L165,935L244,927Z" fill="#d8895c" stroke="#d8895c" stroke-width="1.51"/><path d="M-6,656L55,681L79,559Z" fill="#fea774" stroke="#fea774" stroke-width="1.51"/><path d="M82,915L165,935L158,843Z" fill="#d98c62" stroke="#d98c62" stroke-width="1.51"/><path d="M70,476L-12,505L79,559Z" fill="#ffb480" stroke="#ffb480" stroke-width="1.51"/><path d="M-17,388L-12,505L70,476Z" fill="#ffbb88" stroke="#ffbb88" stroke-width="1.51"/><path d="M78,220L147,328L176,236Z" fill="#ffcb9d" stroke="#ffcb9d" stroke-width="1.51"/><path d="M78,220L176,236L164,168Z" fill="#ffd0a6" stroke="#ffd0a6" stroke-width="1.51"/><path d="M1542,657L1449,647L1530,742Z" fill="#b84206" stroke="#b84206" stroke-width="1.51"/><path d="M1387,942L1464,904L1366,821Z" fill="#a53503" stroke="#a53503" stroke-width="1.51"/><path d="M1295,1026L1379,993L1289,930Z" fill="#a13404" stroke="#a13404" stroke-width="1.51"/><path d="M55,681L68,768L146,747Z" fill="#f69b6b" stroke="#f69b6b" stroke-width="1.51"/><path d="M65,136L78,220L164,168Z" fill="#fed6b0" stroke="#fed6b0" stroke-width="1.51"/><path d="M1530,742L1449,647L1467,770Z" fill="#b73e04" stroke="#b73e04" stroke-width="1.51"/><path d="M1530,742L1467,770L1533,843Z" fill="#ac3803" stroke="#ac3803" stroke-width="1.51"/><path d="M1542,229L1448,228L1459,318Z" fill="#c9723e" stroke="#c9723e" stroke-width="1.51"/><path d="M1448,228L1466,147L1380,217Z" fill="#ce7c4a" stroke="#ce7c4a" stroke-width="1.51"/><path d="M1355,-40L1262,-111L1290,-19Z" fill="#e3946e" stroke="#e3946e" stroke-width="1.51"/><path d="M242,42L169,40L258,128Z" fill="#fed9b3" stroke="#fed9b3" stroke-width="1.51"/><path d="M244,-47L242,42L333,-26Z" fill="#fedcba" stroke="#fedcba" stroke-width="1.51"/><path d="M1533,843L1467,770L1458,826Z" fill="#aa3703" stroke="#aa3703" stroke-width="1.51"/><path d="M1542,657L1557,397L1541,589Z" fill="#bd4f12" stroke="#bd4f12" stroke-width="1.51"/><path d="M1541,589L1557,397L1531,493Z" fill="#bf561a" stroke="#bf561a" stroke-width="1.51"/><path d="M1531,493L1557,397L1446,423Z" fill="#c45d21" stroke="#c45d21" stroke-width="1.51"/><path d="M310,-108L244,-47L333,-26Z" fill="#ffddbc" stroke="#ffddbc" stroke-width="1.51"/><path d="M428,-97L310,-108L333,-26Z" fill="#ffd9b6" stroke="#ffd9b6" stroke-width="1.51"/><path d="M673,-120L310,-108L428,-97Z" fill="#ffd1aa" stroke="#ffd1aa" stroke-width="1.51"/><path d="M1290,-19L1262,-111L1204,-27Z" fill="#e9976e" stroke="#e9976e" stroke-width="1.51"/><path d="M1204,-92L1262,-111L1094,-98Z" fill="#f39d74" stroke="#f39d74" stroke-width="1.51"/><path d="M920,-112L1453,-129L673,-120Z" fill="#fea97b" stroke="#fea97b" stroke-width="1.51"/><path d="M1355,-40L1290,-19L1352,67Z" fill="#dd9067" stroke="#dd9067" stroke-width="1.51"/><path d="M1434,1010L1464,904L1387,942Z" fill="#9a3104" stroke="#9a3104" stroke-width="1.51"/><path d="M79,990L171,1001L165,935Z" fill="#ce8660" stroke="#ce8660" stroke-width="1.51"/><path d="M165,935L171,1001L226,1001Z" fill="#cc835b" stroke="#cc835b" stroke-width="1.51"/><path d="M226,1001L171,1001L492,1033Z" fill="#c67c50" stroke="#c67c50" stroke-width="1.51"/><path d="M1452,46L1355,-40L1352,67Z" fill="#d78c63" stroke="#d78c63" stroke-width="1.51"/><path d="M1557,397L1558,320L1459,318Z" fill="#c36730" stroke="#c36730" stroke-width="1.51"/><path d="M-17,388L70,476L76,398Z" fill="#ffbe8b" stroke="#ffbe8b" stroke-width="1.51"/><path d="M4,752L57,844L68,768Z" fill="#ef986d" stroke="#ef986d" stroke-width="1.51"/><path d="M-17,388L76,398L55,321Z" fill="#ffc394" stroke="#ffc394" stroke-width="1.51"/><path d="M68,768L57,844L158,843Z" fill="#e89468" stroke="#e89468" stroke-width="1.51"/><path d="M4,752L68,768L55,681Z" fill="#f69d6f" stroke="#f69d6f" stroke-width="1.51"/><path d="M1558,320L1542,229L1459,318Z" fill="#c46d39" stroke="#c46d39" stroke-width="1.51"/><path d="M1466,147L1452,46L1352,67Z" fill="#d2855b" stroke="#d2855b" stroke-width="1.51"/><path d="M-28,590L-6,656L79,559Z" fill="#ffab78" stroke="#ffab78" stroke-width="1.51"/><path d="M1541,70L1452,46L1466,147Z" fill="#cb8359" stroke="#cb8359" stroke-width="1.51"/><path d="M310,-108L256,-103L244,-47Z" fill="#ffe0c2" stroke="#ffe0c2" stroke-width="1.51"/><path d="M244,-47L174,-47L242,42Z" fill="#fedfc0" stroke="#fedfc0" stroke-width="1.51"/><path d="M57,844L82,915L158,843Z" fill="#df8f66" stroke="#df8f66" stroke-width="1.51"/><path d="M-12,505L-28,590L79,559Z" fill="#ffb07d" stroke="#ffb07d" stroke-width="1.51"/><path d="M-36,338L-17,388L55,321Z" fill="#ffc79a" stroke="#ffc79a" stroke-width="1.51"/><path d="M-36,338L55,321L-22,216Z" fill="#ffcda3" stroke="#ffcda3" stroke-width="1.51"/><path d="M169,40L65,136L164,168Z" fill="#fedab7" stroke="#fedab7" stroke-width="1.51"/><path d="M73,46L65,136L169,40Z" fill="#fedfbf" stroke="#fedfbf" stroke-width="1.51"/><path d="M1542,657L1561,992L1557,397Z" fill="#b34006" stroke="#b34006" stroke-width="1.51"/><path d="M1530,742L1533,843L1542,657Z" fill="#b03903" stroke="#b03903" stroke-width="1.51"/><path d="M1464,904L1533,843L1458,826Z" fill="#a33404" stroke="#a33404" stroke-width="1.51"/><path d="M1527,905L1533,843L1464,904Z" fill="#9c3204" stroke="#9c3204" stroke-width="1.51"/><path d="M1379,993L1434,1010L1387,942Z" fill="#993104" stroke="#993104" stroke-width="1.51"/><path d="M1295,1026L1434,1010L1379,993Z" fill="#983004" stroke="#983004" stroke-width="1.51"/><path d="M1542,229L1522,154L1448,228Z" fill="#c77748" stroke="#c77748" stroke-width="1.51"/><path d="M-95,560L-28,590L-12,505Z" fill="#ffb281" stroke="#ffb281" stroke-width="1.51"/><path d="M-24,906L79,990L82,915Z" fill="#d58d69" stroke="#d58d69" stroke-width="1.51"/><path d="M-6,656L4,752L55,681Z" fill="#f9a272" stroke="#f9a272" stroke-width="1.51"/><path d="M-99,766L4,752L-6,656Z" fill="#f8a074" stroke="#f8a074" stroke-width="1.51"/><path d="M256,-103L174,-47L244,-47Z" fill="#ffe1c4" stroke="#ffe1c4" stroke-width="1.51"/><path d="M1561,992L1527,905L1464,904Z" fill="#942f04" stroke="#942f04" stroke-width="1.51"/><path d="M-113,409L-95,508L-12,505Z" fill="#ffbc8c" stroke="#ffbc8c" stroke-width="1.51"/><path d="M-22,216L55,321L78,220Z" fill="#ffd0a7" stroke="#ffd0a7" stroke-width="1.51"/><path d="M1452,46L1439,-35L1355,-40Z" fill="#d48d67" stroke="#d48d67" stroke-width="1.51"/><path d="M1355,-40L1387,-106L1262,-111Z" fill="#df9470" stroke="#df9470" stroke-width="1.51"/><path d="M1559,-21L1439,-35L1452,46Z" fill="#ce8966" stroke="#ce8966" stroke-width="1.51"/><path d="M65,136L-22,216L78,220Z" fill="#ffd7b2" stroke="#ffd7b2" stroke-width="1.51"/><path d="M73,-14L73,46L169,40Z" fill="#fee3c6" stroke="#fee3c6" stroke-width="1.51"/><path d="M-5,857L82,915L57,844Z" fill="#df926a" stroke="#df926a" stroke-width="1.51"/><path d="M82,915L79,990L165,935Z" fill="#d38a63" stroke="#d38a63" stroke-width="1.51"/><path d="M1439,-35L1387,-106L1355,-40Z" fill="#d8906c" stroke="#d8906c" stroke-width="1.51"/><path d="M-20,128L-22,216L65,136Z" fill="#fedbba" stroke="#fedbba" stroke-width="1.51"/><path d="M4,752L-5,857L57,844Z" fill="#ea976d" stroke="#ea976d" stroke-width="1.51"/><path d="M-24,906L-5,857L-92,817Z" fill="#e39570" stroke="#e39570" stroke-width="1.51"/><path d="M1439,-35L1453,-129L1387,-106Z" fill="#d5906f" stroke="#d5906f" stroke-width="1.51"/><path d="M1522,154L1541,70L1466,147Z" fill="#c87f54" stroke="#c87f54" stroke-width="1.51"/><path d="M1542,229L1541,70L1522,154Z" fill="#c57c50" stroke="#c57c50" stroke-width="1.51"/><path d="M1559,-21L1541,70L1542,229Z" fill="#c57f58" stroke="#c57f58" stroke-width="1.51"/><path d="M-113,409L-12,505L-17,388Z" fill="#ffc08f" stroke="#ffc08f" stroke-width="1.51"/><path d="M-28,590L-123,676L-6,656Z" fill="#ffa97a" stroke="#ffa97a" stroke-width="1.51"/><path d="M-113,409L-17,388L-36,338Z" fill="#ffc698" stroke="#ffc698" stroke-width="1.51"/><path d="M-95,508L-95,560L-12,505Z" fill="#ffb686" stroke="#ffb686" stroke-width="1.51"/><path d="M51,-98L73,-14L174,-47Z" fill="#fee7cf" stroke="#fee7cf" stroke-width="1.51"/><path d="M174,-47L73,-14L169,40Z" fill="#fee2c7" stroke="#fee2c7" stroke-width="1.51"/><path d="M73,46L-20,128L65,136Z" fill="#fedfc0" stroke="#fedfc0" stroke-width="1.51"/><path d="M256,-103L156,-120L174,-47Z" fill="#ffe4ca" stroke="#ffe4ca" stroke-width="1.51"/><path d="M310,-108L156,-120L256,-103Z" fill="#ffe3c7" stroke="#ffe3c7" stroke-width="1.51"/><path d="M673,-120L156,-120L310,-108Z" fill="#ffd9b7" stroke="#ffd9b7" stroke-width="1.51"/><path d="M-31,61L-20,128L73,46Z" fill="#fee2c6" stroke="#fee2c6" stroke-width="1.51"/><path d="M-117,301L-113,409L-36,338Z" fill="#ffca9f" stroke="#ffca9f" stroke-width="1.51"/><path d="M-5,857L-24,906L82,915Z" fill="#dc916b" stroke="#dc916b" stroke-width="1.51"/><path d="M-92,817L-5,857L4,752Z" fill="#ec9971" stroke="#ec9971" stroke-width="1.51"/><path d="M-95,508L-123,676L-95,560Z" fill="#ffb182" stroke="#ffb182" stroke-width="1.51"/><path d="M-117,301L-36,338L-22,216Z" fill="#ffd0a7" stroke="#ffd0a7" stroke-width="1.51"/><path d="M1434,1010L1561,992L1464,904Z" fill="#922f04" stroke="#922f04" stroke-width="1.51"/><path d="M1527,905L1561,992L1533,843Z" fill="#952f04" stroke="#952f04" stroke-width="1.51"/><path d="M1533,843L1561,992L1542,657Z" fill="#a23403" stroke="#a23403" stroke-width="1.51"/><path d="M1557,397L1561,992L1558,320Z" fill="#ba4c0f" stroke="#ba4c0f" stroke-width="1.51"/><path d="M-123,676L-99,766L-6,656Z" fill="#fba478" stroke="#fba478" stroke-width="1.51"/><path d="M-123,676L-28,590L-95,560Z" fill="#ffad7e" stroke="#ffad7e" stroke-width="1.51"/><path d="M1524,-101L1453,-129L1439,-35Z" fill="#d08d6d" stroke="#d08d6d" stroke-width="1.51"/><path d="M1387,-106L1453,-129L1262,-111Z" fill="#db9371" stroke="#db9371" stroke-width="1.51"/><path d="M1262,-111L1453,-129L920,-112Z" fill="#f09c75" stroke="#f09c75" stroke-width="1.51"/><path d="M673,-120L-2,-122L156,-120Z" fill="#ffe1c4" stroke="#ffe1c4" stroke-width="1.51"/><path d="M-113,409L-123,676L-95,508Z" fill="#ffb788" stroke="#ffb788" stroke-width="1.51"/><path d="M-113,409L-122,249L-123,676Z" fill="#ffc193" stroke="#ffc193" stroke-width="1.51"/><path d="M-122,249L-117,301L-22,216Z" fill="#ffd4ae" stroke="#ffd4ae" stroke-width="1.51"/><path d="M-97,909L-92,817L-99,766Z" fill="#e99a74" stroke="#e99a74" stroke-width="1.51"/><path d="M-99,766L-92,817L4,752Z" fill="#f29c73" stroke="#f29c73" stroke-width="1.51"/><path d="M-111,149L-122,249L-22,216Z" fill="#ffdab8" stroke="#ffdab8" stroke-width="1.51"/><path d="M-1,-21L-31,61L73,46Z" fill="#fee5cd" stroke="#fee5cd" stroke-width="1.51"/><path d="M-1,-21L73,46L73,-14Z" fill="#fee6ce" stroke="#fee6ce" stroke-width="1.51"/><path d="M1541,70L1559,-21L1452,46Z" fill="#ca8561" stroke="#ca8561" stroke-width="1.51"/><path d="M1558,320L1559,-21L1542,229Z" fill="#c3784c" stroke="#c3784c" stroke-width="1.51"/><path d="M1561,992L1559,-21L1558,320Z" fill="#bf5c22" stroke="#bf5c22" stroke-width="1.51"/><path d="M-117,301L-122,249L-113,409Z" fill="#ffcea5" stroke="#ffcea5" stroke-width="1.51"/><path d="M-111,149L-22,216L-20,128Z" fill="#ffddbd" stroke="#ffddbd" stroke-width="1.51"/><path d="M-112,73L-111,149L-20,128Z" fill="#ffe2c6" stroke="#ffe2c6" stroke-width="1.51"/><path d="M51,-98L-1,-21L73,-14Z" fill="#fee9d4" stroke="#fee9d4" stroke-width="1.51"/><path d="M156,-120L51,-98L174,-47Z" fill="#ffe7d0" stroke="#ffe7d0" stroke-width="1.51"/><path d="M1559,-21L1524,-101L1439,-35Z" fill="#cc8a6a" stroke="#cc8a6a" stroke-width="1.51"/><path d="M-97,909L-31,1014L-24,906Z" fill="#d58f6e" stroke="#d58f6e" stroke-width="1.51"/><path d="M-24,906L-31,1014L79,990Z" fill="#d18c6a" stroke="#d18c6a" stroke-width="1.51"/><path d="M79,990L-31,1014L171,1001Z" fill="#cb8865" stroke="#cb8865" stroke-width="1.51"/><path d="M171,1001L-108,1030L492,1033Z" fill="#c6815a" stroke="#c6815a" stroke-width="1.51"/><path d="M-112,73L-20,128L-31,61Z" fill="#ffe4c9" stroke="#ffe4c9" stroke-width="1.51"/><path d="M-92,817L-97,909L-24,906Z" fill="#e09571" stroke="#e09571" stroke-width="1.51"/><path d="M-123,676L-97,909L-99,766Z" fill="#f19d76" stroke="#f19d76" stroke-width="1.51"/><path d="M-119,-30L-112,73L-31,61Z" fill="#ffe8d3" stroke="#ffe8d3" stroke-width="1.51"/><path d="M-111,149L-112,73L-122,249Z" fill="#ffe0c3" stroke="#ffe0c3" stroke-width="1.51"/><path d="M-119,-30L-31,61L-1,-21Z" fill="#ffe9d5" stroke="#ffe9d5" stroke-width="1.51"/><path d="M51,-98L-2,-122L-1,-21Z" fill="#ffecd9" stroke="#ffecd9" stroke-width="1.51"/><path d="M156,-120L-2,-122L51,-98Z" fill="#ffebd8" stroke="#ffebd8" stroke-width="1.51"/><path d="M1453,-129L-2,-122L673,-120Z" fill="#ffc192" stroke="#ffc192" stroke-width="1.51"/><path d="M-97,909L-108,1030L-31,1014Z" fill="#d08e6f" stroke="#d08e6f" stroke-width="1.51"/><path d="M-31,1014L-108,1030L171,1001Z" fill="#ca8969" stroke="#ca8969" stroke-width="1.51"/><path d="M-123,676L-108,1030L-97,909Z" fill="#e29774" stroke="#e29774" stroke-width="1.51"/><path d="M-81,-100L-119,-30L-1,-21Z" fill="#ffeddc" stroke="#ffeddc" stroke-width="1.51"/><path d="M-112,73L-119,-30L-122,249Z" fill="#ffe5cc" stroke="#ffe5cc" stroke-width="1.51"/><path d="M-2,-122L-81,-100L-1,-21Z" fill="#ffeddc" stroke="#ffeddc" stroke-width="1.51"/></svg>