<svg xmlns="http://www.w3.org/2000/svg" width="1440" height="900"><path d="M751,474L768,559L829,481Z" fill="#e356a3" stroke="#e356a3" stroke-width="1.51"/><path d="M768,559L853,595L829,481Z" fill="#e44a9b" stroke="#e44a9b" stroke-width="1.51"/><path d="M751,474L667,514L768,559Z" fill="#e15aa6" stroke="#e15aa6" stroke-width="1.51"/><path d="M829,481L755,394L751,474Z" fill="#e15fab" stroke="#e15fab" stroke-width="1.51"/><path d="M751,474L686,388L667,514Z" fill="#df66b0" stroke="#df66b0" stroke-width="1.51"/><path d="M768,559L776,644L853,595Z" fill="#e54196" stroke="#e54196" stroke-width="1.51"/><path d="M670,598L776,644L768,559Z" fill="#e44a9b" stroke="#e44a9b" stroke-width="1.51"/><path d="M829,481L871,403L755,394Z" fill="#e05fa9" stroke="#e05fa9" stroke-width="1.51"/><path d="M932,481L871,403L829,481Z" fill="#e252a1" stroke="#e252a1" stroke-width="1.51"/><path d="M667,514L670,598L768,559Z" fill="#e257a3" stroke="#e257a3" stroke-width="1.51"/><path d="M853,595L932,481L829,481Z" fill="#e44799" stroke="#e44799" stroke-width="1.51"/><path d="M755,394L686,388L751,474Z" fill="#de6ab1" stroke="#de6ab1" stroke-width="1.51"/><path d="M680,332L686,388L755,394Z" fill="#da74b6" stroke="#da74b6" stroke-width="1.51"/><path d="M776,644L854,662L853,595Z" fill="#e33b8e" stroke="#e33b8e" stroke-width="1.51"/><path d="M853,595L953,578L932,481Z" fill="#e63a92" stroke="#e63a92" stroke-width="1.51"/><path d="M933,684L953,578L853,595Z" fill="#e52d89" stroke="#e52d89" stroke-width="1.51"/><path d="M670,598L675,651L776,644Z" fill="#e14c98" stroke="#e14c98" stroke-width="1.51"/><path d="M776,644L851,750L854,662Z" fill="#df3885" stroke="#df3885" stroke-width="1.51"/><path d="M932,481L952,422L871,403Z" fill="#e3519f" stroke="#e3519f" stroke-width="1.51"/><path d="M1025,477L952,422L932,481Z" fill="#e24997" stroke="#e24997" stroke-width="1.51"/><path d="M850,304L766,315L755,394Z" fill="#da71b2" stroke="#da71b2" stroke-width="1.51"/><path d="M850,304L755,394L871,403Z" fill="#dd69ad" stroke="#dd69ad" stroke-width="1.51"/><path d="M670,598L597,590L675,651Z" fill="#e1569f" stroke="#e1569f" stroke-width="1.51"/><path d="M667,514L597,590L670,598Z" fill="#e05da5" stroke="#e05da5" stroke-width="1.51"/><path d="M574,482L597,590L667,514Z" fill="#dd67ab" stroke="#dd67ab" stroke-width="1.51"/><path d="M569,421L574,482L667,514Z" fill="#db70b3" stroke="#db70b3" stroke-width="1.51"/><path d="M766,315L680,332L755,394Z" fill="#d975b7" stroke="#d975b7" stroke-width="1.51"/><path d="M569,421L667,514L686,388Z" fill="#db70b4" stroke="#db70b4" stroke-width="1.51"/><path d="M944,337L850,304L871,403Z" fill="#dd66a8" stroke="#dd66a8" stroke-width="1.51"/><path d="M854,662L933,684L853,595Z" fill="#e33187" stroke="#e33187" stroke-width="1.51"/><path d="M851,750L933,684L854,662Z" fill="#df2e7e" stroke="#df2e7e" stroke-width="1.51"/><path d="M953,578L1025,477L932,481Z" fill="#e33f91" stroke="#e33f91" stroke-width="1.51"/><path d="M933,684L1006,582L953,578Z" fill="#e52784" stroke="#e52784" stroke-width="1.51"/><path d="M952,422L944,337L871,403Z" fill="#e15ba2" stroke="#e15ba2" stroke-width="1.51"/><path d="M1042,399L944,337L952,422Z" fill="#de589c" stroke="#de589c" stroke-width="1.51"/><path d="M610,314L569,421L686,388Z" fill="#d67dba" stroke="#d67dba" stroke-width="1.51"/><path d="M1006,582L1025,477L953,578Z" fill="#e3358a" stroke="#e3358a" stroke-width="1.51"/><path d="M675,651L743,751L776,644Z" fill="#de468d" stroke="#de468d" stroke-width="1.51"/><path d="M664,771L743,751L675,651Z" fill="#da4988" stroke="#da4988" stroke-width="1.51"/><path d="M743,751L851,750L776,644Z" fill="#dc3c82" stroke="#dc3c82" stroke-width="1.51"/><path d="M597,590L572,660L675,651Z" fill="#de599c" stroke="#de599c" stroke-width="1.51"/><path d="M515,587L572,660L597,590Z" fill="#dd62a3" stroke="#dd62a3" stroke-width="1.51"/><path d="M515,587L597,590L574,482Z" fill="#dc69ab" stroke="#dc69ab" stroke-width="1.51"/><path d="M680,332L610,314L686,388Z" fill="#d67ebb" stroke="#d67ebb" stroke-width="1.51"/><path d="M693,225L610,314L680,332Z" fill="#d385bf" stroke="#d385bf" stroke-width="1.51"/><path d="M693,225L680,332L766,315Z" fill="#d580bc" stroke="#d580bc" stroke-width="1.51"/><path d="M850,304L837,249L766,315Z" fill="#d976b3" stroke="#d976b3" stroke-width="1.51"/><path d="M927,213L837,249L850,304Z" fill="#dc76b0" stroke="#dc76b0" stroke-width="1.51"/><path d="M837,249L776,243L766,315Z" fill="#d97bb7" stroke="#d97bb7" stroke-width="1.51"/><path d="M1025,477L1042,399L952,422Z" fill="#df4d95" stroke="#df4d95" stroke-width="1.51"/><path d="M944,337L927,213L850,304Z" fill="#db6eab" stroke="#db6eab" stroke-width="1.51"/><path d="M1088,475L1042,399L1025,477Z" fill="#de478e" stroke="#de478e" stroke-width="1.51"/><path d="M500,484L515,587L574,482Z" fill="#d972b1" stroke="#d972b1" stroke-width="1.51"/><path d="M582,751L664,771L675,651Z" fill="#d8518a" stroke="#d8518a" stroke-width="1.51"/><path d="M743,751L742,823L851,750Z" fill="#d53a7b" stroke="#d53a7b" stroke-width="1.51"/><path d="M569,421L500,484L574,482Z" fill="#d877b7" stroke="#d877b7" stroke-width="1.51"/><path d="M490,414L500,484L569,421Z" fill="#d57ebb" stroke="#d57ebb" stroke-width="1.51"/><path d="M933,684L1037,662L1006,582Z" fill="#e0237b" stroke="#e0237b" stroke-width="1.51"/><path d="M1006,582L1088,475L1025,477Z" fill="#e03c88" stroke="#e03c88" stroke-width="1.51"/><path d="M1035,735L1037,662L933,684Z" fill="#dc2072" stroke="#dc2072" stroke-width="1.51"/><path d="M851,750L940,765L933,684Z" fill="#dc2676" stroke="#dc2676" stroke-width="1.51"/><path d="M916,824L940,765L851,750Z" fill="#d52571" stroke="#d52571" stroke-width="1.51"/><path d="M762,154L693,225L776,243Z" fill="#da87bf" stroke="#da87bf" stroke-width="1.51"/><path d="M776,243L693,225L766,315Z" fill="#d881bc" stroke="#d881bc" stroke-width="1.51"/><path d="M1127,579L1088,475L1006,582Z" fill="#de3280" stroke="#de3280" stroke-width="1.51"/><path d="M511,333L490,414L569,421Z" fill="#d185bf" stroke="#d185bf" stroke-width="1.51"/><path d="M511,333L569,421L610,314Z" fill="#d186bf" stroke="#d186bf" stroke-width="1.51"/><path d="M664,771L742,823L743,751Z" fill="#d34380" stroke="#d34380" stroke-width="1.51"/><path d="M664,771L688,860L742,823Z" fill="#cb437e" stroke="#cb437e" stroke-width="1.51"/><path d="M572,660L582,751L675,651Z" fill="#da5893" stroke="#da5893" stroke-width="1.51"/><path d="M522,756L582,751L572,660Z" fill="#d55c8f" stroke="#d55c8f" stroke-width="1.51"/><path d="M742,823L847,831L851,750Z" fill="#d03476" stroke="#d03476" stroke-width="1.51"/><path d="M1042,399L1043,307L944,337Z" fill="#db5e9b" stroke="#db5e9b" stroke-width="1.51"/><path d="M1124,327L1043,307L1042,399Z" fill="#d85c93" stroke="#d85c93" stroke-width="1.51"/><path d="M519,248L511,333L610,314Z" fill="#cc90c4" stroke="#cc90c4" stroke-width="1.51"/><path d="M1009,213L927,213L944,337Z" fill="#dc6fa8" stroke="#dc6fa8" stroke-width="1.51"/><path d="M837,249L762,154L776,243Z" fill="#db82ba" stroke="#db82ba" stroke-width="1.51"/><path d="M693,225L596,237L610,314Z" fill="#d28cc2" stroke="#d28cc2" stroke-width="1.51"/><path d="M1037,662L1127,579L1006,582Z" fill="#e0237a" stroke="#e0237a" stroke-width="1.51"/><path d="M940,765L1035,735L933,684Z" fill="#db1e70" stroke="#db1e70" stroke-width="1.51"/><path d="M1016,835L1035,735L940,765Z" fill="#d31a67" stroke="#d31a67" stroke-width="1.51"/><path d="M847,831L916,824L851,750Z" fill="#d12a72" stroke="#d12a72" stroke-width="1.51"/><path d="M515,587L495,684L572,660Z" fill="#da649f" stroke="#da649f" stroke-width="1.51"/><path d="M438,565L495,684L515,587Z" fill="#dc6ba7" stroke="#dc6ba7" stroke-width="1.51"/><path d="M438,565L515,587L500,484Z" fill="#da73b0" stroke="#da73b0" stroke-width="1.51"/><path d="M1088,475L1110,402L1042,399Z" fill="#dc4c8d" stroke="#dc4c8d" stroke-width="1.51"/><path d="M1187,497L1110,402L1088,475Z" fill="#da4384" stroke="#da4384" stroke-width="1.51"/><path d="M1108,680L1127,579L1037,662Z" fill="#db1e70" stroke="#db1e70" stroke-width="1.51"/><path d="M397,507L438,565L500,484Z" fill="#da7ab5" stroke="#da7ab5" stroke-width="1.51"/><path d="M430,405L500,484L490,414Z" fill="#d583be" stroke="#d583be" stroke-width="1.51"/><path d="M693,225L668,159L596,237Z" fill="#d690c5" stroke="#d690c5" stroke-width="1.51"/><path d="M861,137L762,154L837,249Z" fill="#de84ba" stroke="#de84ba" stroke-width="1.51"/><path d="M585,823L688,860L664,771Z" fill="#ca4b81" stroke="#ca4b81" stroke-width="1.51"/><path d="M495,684L522,756L572,660Z" fill="#d66195" stroke="#d66195" stroke-width="1.51"/><path d="M421,758L522,756L495,684Z" fill="#d36491" stroke="#d36491" stroke-width="1.51"/><path d="M742,823L759,928L847,831Z" fill="#c53575" stroke="#c53575" stroke-width="1.51"/><path d="M949,924L1016,835L916,824Z" fill="#c51765" stroke="#c51765" stroke-width="1.51"/><path d="M585,823L664,771L582,751Z" fill="#cf5285" stroke="#cf5285" stroke-width="1.51"/><path d="M1035,735L1108,680L1037,662Z" fill="#d91c6b" stroke="#d91c6b" stroke-width="1.51"/><path d="M762,154L668,159L693,225Z" fill="#da8ec3" stroke="#da8ec3" stroke-width="1.51"/><path d="M1043,307L1009,213L944,337Z" fill="#d969a1" stroke="#d969a1" stroke-width="1.51"/><path d="M927,213L861,137L837,249Z" fill="#de7db3" stroke="#de7db3" stroke-width="1.51"/><path d="M1122,244L1009,213L1043,307Z" fill="#d86b9b" stroke="#d86b9b" stroke-width="1.51"/><path d="M522,756L585,823L582,751Z" fill="#cf5888" stroke="#cf5888" stroke-width="1.51"/><path d="M511,333L430,405L490,414Z" fill="#d08ac1" stroke="#d08ac1" stroke-width="1.51"/><path d="M399,315L430,405L511,333Z" fill="#cf92c5" stroke="#cf92c5" stroke-width="1.51"/><path d="M519,248L610,314L596,237Z" fill="#cf91c5" stroke="#cf91c5" stroke-width="1.51"/><path d="M489,152L519,248L596,237Z" fill="#ce9ccb" stroke="#ce9ccb" stroke-width="1.51"/><path d="M952,162L861,137L927,213Z" fill="#e17db2" stroke="#e17db2" stroke-width="1.51"/><path d="M696,45L600,138L668,159Z" fill="#da9dcb" stroke="#da9dcb" stroke-width="1.51"/><path d="M1176,339L1124,327L1110,402Z" fill="#d5588a" stroke="#d5588a" stroke-width="1.51"/><path d="M1110,402L1124,327L1042,399Z" fill="#d8568e" stroke="#d8568e" stroke-width="1.51"/><path d="M1009,213L952,162L927,213Z" fill="#e076aa" stroke="#e076aa" stroke-width="1.51"/><path d="M430,405L397,507L500,484Z" fill="#d882bc" stroke="#d882bc" stroke-width="1.51"/><path d="M438,565L407,681L495,684Z" fill="#db6da2" stroke="#db6da2" stroke-width="1.51"/><path d="M1035,735L1127,767L1108,680Z" fill="#d41861" stroke="#d41861" stroke-width="1.51"/><path d="M916,824L1016,835L940,765Z" fill="#d01a69" stroke="#d01a69" stroke-width="1.51"/><path d="M949,924L916,824L847,831Z" fill="#c6206b" stroke="#c6206b" stroke-width="1.51"/><path d="M1127,579L1187,497L1088,475Z" fill="#da377c" stroke="#da377c" stroke-width="1.51"/><path d="M1192,579L1187,497L1127,579Z" fill="#d82d75" stroke="#d82d75" stroke-width="1.51"/><path d="M1179,652L1192,579L1127,579Z" fill="#d91e6f" stroke="#d91e6f" stroke-width="1.51"/><path d="M1179,652L1127,579L1108,680Z" fill="#d91c6b" stroke="#d91c6b" stroke-width="1.51"/><path d="M339,560L407,681L438,565Z" fill="#e074ad" stroke="#e074ad" stroke-width="1.51"/><path d="M522,756L490,854L585,823Z" fill="#c75a87" stroke="#c75a87" stroke-width="1.51"/><path d="M1204,739L1179,652L1108,680Z" fill="#d21760" stroke="#d21760" stroke-width="1.51"/><path d="M696,45L668,159L762,154Z" fill="#dd96c7" stroke="#dd96c7" stroke-width="1.51"/><path d="M668,159L600,138L596,237Z" fill="#d598c8" stroke="#d598c8" stroke-width="1.51"/><path d="M688,860L759,928L742,823Z" fill="#c33c79" stroke="#c33c79" stroke-width="1.51"/><path d="M673,918L759,928L688,860Z" fill="#bd3d78" stroke="#bd3d78" stroke-width="1.51"/><path d="M585,908L688,860L585,823Z" fill="#c14c7f" stroke="#c14c7f" stroke-width="1.51"/><path d="M585,908L673,918L688,860Z" fill="#bc467b" stroke="#bc467b" stroke-width="1.51"/><path d="M1209,413L1176,339L1110,402Z" fill="#d45186" stroke="#d45186" stroke-width="1.51"/><path d="M1124,327L1122,244L1043,307Z" fill="#d46594" stroke="#d46594" stroke-width="1.51"/><path d="M1009,213L1020,134L952,162Z" fill="#df79a8" stroke="#df79a8" stroke-width="1.51"/><path d="M1109,835L1127,767L1035,735Z" fill="#cc145c" stroke="#cc145c" stroke-width="1.51"/><path d="M759,928L828,935L847,831Z" fill="#bf2f70" stroke="#bf2f70" stroke-width="1.51"/><path d="M1176,339L1122,244L1124,327Z" fill="#d2618e" stroke="#d2618e" stroke-width="1.51"/><path d="M1262,393L1209,413L1291,474Z" fill="#ca457f" stroke="#ca457f" stroke-width="1.51"/><path d="M1187,497L1209,413L1110,402Z" fill="#d64682" stroke="#d64682" stroke-width="1.51"/><path d="M416,234L511,333L519,248Z" fill="#cb9aca" stroke="#cb9aca" stroke-width="1.51"/><path d="M416,234L399,315L511,333Z" fill="#cb9aca" stroke="#cb9aca" stroke-width="1.51"/><path d="M430,405L334,476L397,507Z" fill="#d987bf" stroke="#d987bf" stroke-width="1.51"/><path d="M407,681L421,758L495,684Z" fill="#d76a97" stroke="#d76a97" stroke-width="1.51"/><path d="M952,162L947,81L861,137Z" fill="#e582b4" stroke="#e582b4" stroke-width="1.51"/><path d="M861,137L832,54L762,154Z" fill="#e28dbe" stroke="#e28dbe" stroke-width="1.51"/><path d="M1089,140L1020,134L1009,213Z" fill="#dd78a3" stroke="#dd78a3" stroke-width="1.51"/><path d="M828,935L949,924L847,831Z" fill="#bf246b" stroke="#bf246b" stroke-width="1.51"/><path d="M1016,835L1109,835L1035,735Z" fill="#cb155e" stroke="#cb155e" stroke-width="1.51"/><path d="M490,854L585,908L585,823Z" fill="#bf5482" stroke="#bf5482" stroke-width="1.51"/><path d="M742,1025L828,935L759,928Z" fill="#b4326b" stroke="#b4326b" stroke-width="1.51"/><path d="M397,507L339,560L438,565Z" fill="#dd7cb4" stroke="#dd7cb4" stroke-width="1.51"/><path d="M320,771L412,824L421,758Z" fill="#cf6b8f" stroke="#cf6b8f" stroke-width="1.51"/><path d="M334,476L339,560L397,507Z" fill="#dd83ba" stroke="#dd83ba" stroke-width="1.51"/><path d="M421,758L490,854L522,756Z" fill="#cb628b" stroke="#cb628b" stroke-width="1.51"/><path d="M326,409L334,476L430,405Z" fill="#d88ec3" stroke="#d88ec3" stroke-width="1.51"/><path d="M1097,918L1109,835L1016,835Z" fill="#be1058" stroke="#be1058" stroke-width="1.51"/><path d="M1127,767L1204,739L1108,680Z" fill="#d1155a" stroke="#d1155a" stroke-width="1.51"/><path d="M1020,134L947,81L952,162Z" fill="#e380ae" stroke="#e380ae" stroke-width="1.51"/><path d="M947,81L832,54L861,137Z" fill="#e68bba" stroke="#e68bba" stroke-width="1.51"/><path d="M949,924L1009,914L1016,835Z" fill="#be1460" stroke="#be1460" stroke-width="1.51"/><path d="M342,338L326,409L430,405Z" fill="#d494c6" stroke="#d494c6" stroke-width="1.51"/><path d="M489,152L416,234L519,248Z" fill="#cea1ce" stroke="#cea1ce" stroke-width="1.51"/><path d="M600,138L489,152L596,237Z" fill="#d19ecb" stroke="#d19ecb" stroke-width="1.51"/><path d="M511,81L489,152L600,138Z" fill="#d2a7d0" stroke="#d2a7d0" stroke-width="1.51"/><path d="M832,54L773,41L762,154Z" fill="#e394c3" stroke="#e394c3" stroke-width="1.51"/><path d="M247,564L323,686L339,560Z" fill="#e37cb0" stroke="#e37cb0" stroke-width="1.51"/><path d="M342,338L430,405L399,315Z" fill="#d196c8" stroke="#d196c8" stroke-width="1.51"/><path d="M773,41L696,45L762,154Z" fill="#e298c7" stroke="#e298c7" stroke-width="1.51"/><path d="M1197,846L1204,739L1127,767Z" fill="#c50f53" stroke="#c50f53" stroke-width="1.51"/><path d="M1179,652L1266,587L1192,579Z" fill="#d31b6c" stroke="#d31b6c" stroke-width="1.51"/><path d="M1192,579L1266,587L1187,497Z" fill="#d22b72" stroke="#d22b72" stroke-width="1.51"/><path d="M339,214L342,338L399,315Z" fill="#cea2ce" stroke="#cea2ce" stroke-width="1.51"/><path d="M1122,244L1089,140L1009,213Z" fill="#da719d" stroke="#da719d" stroke-width="1.51"/><path d="M1020,134L1005,74L947,81Z" fill="#e583ad" stroke="#e583ad" stroke-width="1.51"/><path d="M1182,163L1089,140L1122,244Z" fill="#d97296" stroke="#d97296" stroke-width="1.51"/><path d="M1181,225L1122,244L1176,339Z" fill="#d2658e" stroke="#d2658e" stroke-width="1.51"/><path d="M1268,666L1266,587L1179,652Z" fill="#cd1866" stroke="#cd1866" stroke-width="1.51"/><path d="M1262,393L1176,339L1209,413Z" fill="#cd5083" stroke="#cd5083" stroke-width="1.51"/><path d="M1288,335L1181,225L1176,339Z" fill="#c95e89" stroke="#c95e89" stroke-width="1.51"/><path d="M947,81L858,-9L832,54Z" fill="#e992be" stroke="#e992be" stroke-width="1.51"/><path d="M832,54L858,-9L773,41Z" fill="#e898c4" stroke="#e898c4" stroke-width="1.51"/><path d="M1089,140L1005,74L1020,134Z" fill="#e17ea6" stroke="#e17ea6" stroke-width="1.51"/><path d="M421,758L412,824L490,854Z" fill="#c8638b" stroke="#c8638b" stroke-width="1.51"/><path d="M490,854L513,945L585,908Z" fill="#b65580" stroke="#b65580" stroke-width="1.51"/><path d="M323,686L421,758L407,681Z" fill="#d96f9a" stroke="#d96f9a" stroke-width="1.51"/><path d="M1291,474L1209,413L1187,497Z" fill="#cf3f7c" stroke="#cf3f7c" stroke-width="1.51"/><path d="M247,564L339,560L334,476Z" fill="#df85b9" stroke="#df85b9" stroke-width="1.51"/><path d="M339,560L323,686L407,681Z" fill="#de75a7" stroke="#de75a7" stroke-width="1.51"/><path d="M489,152L428,165L416,234Z" fill="#cfa7d0" stroke="#cfa7d0" stroke-width="1.51"/><path d="M416,234L339,214L399,315Z" fill="#cea4cf" stroke="#cea4cf" stroke-width="1.51"/><path d="M400,53L428,165L489,152Z" fill="#d2afd5" stroke="#d2afd5" stroke-width="1.51"/><path d="M696,45L572,57L600,138Z" fill="#dba4ce" stroke="#dba4ce" stroke-width="1.51"/><path d="M1266,587L1291,474L1187,497Z" fill="#cd3274" stroke="#cd3274" stroke-width="1.51"/><path d="M1266,587L1349,588L1291,474Z" fill="#c7296f" stroke="#c7296f" stroke-width="1.51"/><path d="M1204,739L1268,666L1179,652Z" fill="#cb155e" stroke="#cb155e" stroke-width="1.51"/><path d="M828,935L845,1015L949,924Z" fill="#b52264" stroke="#b52264" stroke-width="1.51"/><path d="M949,924L1041,1004L1009,914Z" fill="#b41258" stroke="#b41258" stroke-width="1.51"/><path d="M742,1025L845,1015L828,935Z" fill="#af2d65" stroke="#af2d65" stroke-width="1.51"/><path d="M742,1025L759,928L673,918Z" fill="#b33970" stroke="#b33970" stroke-width="1.51"/><path d="M572,57L511,81L600,138Z" fill="#d6a9d1" stroke="#d6a9d1" stroke-width="1.51"/><path d="M1204,739L1262,772L1268,666Z" fill="#c41056" stroke="#c41056" stroke-width="1.51"/><path d="M1109,835L1197,846L1127,767Z" fill="#c30f53" stroke="#c30f53" stroke-width="1.51"/><path d="M1009,914L1097,918L1016,835Z" fill="#bc115a" stroke="#bc115a" stroke-width="1.51"/><path d="M1041,1004L1097,918L1009,914Z" fill="#b10f53" stroke="#b10f53" stroke-width="1.51"/><path d="M670,1023L742,1025L673,918Z" fill="#ad3b6d" stroke="#ad3b6d" stroke-width="1.51"/><path d="M427,914L513,945L490,854Z" fill="#b65a83" stroke="#b65a83" stroke-width="1.51"/><path d="M670,1023L673,918L585,908Z" fill="#b24475" stroke="#b24475" stroke-width="1.51"/><path d="M753,-35L679,-15L696,45Z" fill="#e6a6d0" stroke="#e6a6d0" stroke-width="1.51"/><path d="M696,45L583,-5L572,57Z" fill="#deabd2" stroke="#deabd2" stroke-width="1.51"/><path d="M941,-47L858,-9L947,81Z" fill="#ed93bc" stroke="#ed93bc" stroke-width="1.51"/><path d="M572,1027L670,1023L585,908Z" fill="#ab4771" stroke="#ab4771" stroke-width="1.51"/><path d="M1089,140L1123,72L1005,74Z" fill="#e180a3" stroke="#e180a3" stroke-width="1.51"/><path d="M1005,74L941,-47L947,81Z" fill="#ea8cb4" stroke="#ea8cb4" stroke-width="1.51"/><path d="M1181,225L1182,163L1122,244Z" fill="#d56d91" stroke="#d56d91" stroke-width="1.51"/><path d="M1266,130L1182,163L1181,225Z" fill="#d06f91" stroke="#d06f91" stroke-width="1.51"/><path d="M1288,335L1176,339L1262,393Z" fill="#c85484" stroke="#c85484" stroke-width="1.51"/><path d="M1097,918L1197,846L1109,835Z" fill="#ba0c51" stroke="#ba0c51" stroke-width="1.51"/><path d="M1358,403L1288,335L1262,393Z" fill="#c14d80" stroke="#c14d80" stroke-width="1.51"/><path d="M412,824L427,914L490,854Z" fill="#be6087" stroke="#be6087" stroke-width="1.51"/><path d="M323,686L320,771L421,758Z" fill="#d77095" stroke="#d77095" stroke-width="1.51"/><path d="M233,741L320,771L323,686Z" fill="#da7699" stroke="#da7699" stroke-width="1.51"/><path d="M326,409L261,410L334,476Z" fill="#da92c5" stroke="#da92c5" stroke-width="1.51"/><path d="M342,338L261,410L326,409Z" fill="#d699c9" stroke="#d699c9" stroke-width="1.51"/><path d="M240,310L261,410L342,338Z" fill="#d4a0cd" stroke="#d4a0cd" stroke-width="1.51"/><path d="M753,-35L696,45L773,41Z" fill="#e6a2cc" stroke="#e6a2cc" stroke-width="1.51"/><path d="M572,57L486,-39L511,81Z" fill="#d7b4d7" stroke="#d7b4d7" stroke-width="1.51"/><path d="M428,165L339,214L416,234Z" fill="#d0a9d2" stroke="#d0a9d2" stroke-width="1.51"/><path d="M345,128L339,214L428,165Z" fill="#d2b0d5" stroke="#d2b0d5" stroke-width="1.51"/><path d="M513,945L572,1027L585,908Z" fill="#ad4f77" stroke="#ad4f77" stroke-width="1.51"/><path d="M333,846L427,914L412,824Z" fill="#c16489" stroke="#c16489" stroke-width="1.51"/><path d="M845,1015L931,1032L949,924Z" fill="#b01b5c" stroke="#b01b5c" stroke-width="1.51"/><path d="M742,1025L931,1032L845,1015Z" fill="#aa265d" stroke="#aa265d" stroke-width="1.51"/><path d="M492,1033L931,1032L742,1025Z" fill="#a73666" stroke="#a73666" stroke-width="1.51"/><path d="M1197,846L1262,772L1204,739Z" fill="#bf0d51" stroke="#bf0d51" stroke-width="1.51"/><path d="M1268,666L1349,588L1266,587Z" fill="#c71867" stroke="#c71867" stroke-width="1.51"/><path d="M233,497L247,564L334,476Z" fill="#e08bbe" stroke="#e08bbe" stroke-width="1.51"/><path d="M858,-9L753,-35L773,41Z" fill="#ea9fc8" stroke="#ea9fc8" stroke-width="1.51"/><path d="M1182,163L1123,72L1089,140Z" fill="#dc7a99" stroke="#dc7a99" stroke-width="1.51"/><path d="M261,410L233,497L334,476Z" fill="#dd91c4" stroke="#dd91c4" stroke-width="1.51"/><path d="M931,1032L1041,1004L949,924Z" fill="#af1256" stroke="#af1256" stroke-width="1.51"/><path d="M1186,937L1260,841L1197,846Z" fill="#b0074b" stroke="#b0074b" stroke-width="1.51"/><path d="M679,-15L583,-5L696,45Z" fill="#e2abd2" stroke="#e2abd2" stroke-width="1.51"/><path d="M400,53L345,128L428,165Z" fill="#d4b4d7" stroke="#d4b4d7" stroke-width="1.51"/><path d="M611,-108L583,-5L679,-15Z" fill="#e3b1d6" stroke="#e3b1d6" stroke-width="1.51"/><path d="M670,1023L572,1027L742,1025Z" fill="#a63e6a" stroke="#a63e6a" stroke-width="1.51"/><path d="M492,1033L572,1027L513,945Z" fill="#a65073" stroke="#a65073" stroke-width="1.51"/><path d="M320,771L333,846L412,824Z" fill="#cb6b8e" stroke="#cb6b8e" stroke-width="1.51"/><path d="M437,1008L492,1033L513,945Z" fill="#a65576" stroke="#a65576" stroke-width="1.51"/><path d="M261,826L333,846L320,771Z" fill="#cd7090" stroke="#cd7090" stroke-width="1.51"/><path d="M1386,651L1349,588L1268,666Z" fill="#c11461" stroke="#c11461" stroke-width="1.51"/><path d="M1291,474L1358,403L1262,393Z" fill="#c4437c" stroke="#c4437c" stroke-width="1.51"/><path d="M1349,588L1360,471L1291,474Z" fill="#c23071" stroke="#c23071" stroke-width="1.51"/><path d="M1370,745L1386,651L1268,666Z" fill="#bc1058" stroke="#bc1058" stroke-width="1.51"/><path d="M1197,846L1260,841L1262,772Z" fill="#b7094d" stroke="#b7094d" stroke-width="1.51"/><path d="M1186,937L1197,846L1097,918Z" fill="#b2084c" stroke="#b2084c" stroke-width="1.51"/><path d="M1288,335L1297,240L1181,225Z" fill="#c56189" stroke="#c56189" stroke-width="1.51"/><path d="M1182,163L1208,82L1123,72Z" fill="#d97a97" stroke="#d97a97" stroke-width="1.51"/><path d="M1382,317L1297,240L1288,335Z" fill="#bb5a84" stroke="#bb5a84" stroke-width="1.51"/><path d="M1039,-38L941,-47L1005,74Z" fill="#ec90b3" stroke="#ec90b3" stroke-width="1.51"/><path d="M858,-9L779,-101L753,-35Z" fill="#eca2c9" stroke="#eca2c9" stroke-width="1.51"/><path d="M1360,471L1358,403L1291,474Z" fill="#c13d79" stroke="#c13d79" stroke-width="1.51"/><path d="M339,214L240,310L342,338Z" fill="#cfa7d0" stroke="#cfa7d0" stroke-width="1.51"/><path d="M261,410L164,421L233,497Z" fill="#df99c9" stroke="#df99c9" stroke-width="1.51"/><path d="M177,599L231,686L247,564Z" fill="#e684b2" stroke="#e684b2" stroke-width="1.51"/><path d="M247,564L231,686L323,686Z" fill="#e17eaa" stroke="#e17eaa" stroke-width="1.51"/><path d="M1109,1013L1186,937L1097,918Z" fill="#ab0948" stroke="#ab0948" stroke-width="1.51"/><path d="M339,214L233,252L240,310Z" fill="#d1add4" stroke="#d1add4" stroke-width="1.51"/><path d="M400,53L489,152L511,81Z" fill="#d3b0d5" stroke="#d3b0d5" stroke-width="1.51"/><path d="M1041,1004L1109,1013L1097,918Z" fill="#aa0c4b" stroke="#aa0c4b" stroke-width="1.51"/><path d="M931,1032L1109,1013L1041,1004Z" fill="#a70e4c" stroke="#a70e4c" stroke-width="1.51"/><path d="M437,1008L513,945L427,914Z" fill="#ae597c" stroke="#ae597c" stroke-width="1.51"/><path d="M572,1027L492,1033L742,1025Z" fill="#a3466c" stroke="#a3466c" stroke-width="1.51"/><path d="M486,-39L400,53L511,81Z" fill="#d7b9da" stroke="#d7b9da" stroke-width="1.51"/><path d="M352,937L437,1008L427,914Z" fill="#b05e7f" stroke="#b05e7f" stroke-width="1.51"/><path d="M231,686L233,741L323,686Z" fill="#dd7b9f" stroke="#dd7b9f" stroke-width="1.51"/><path d="M1108,-4L1039,-38L1005,74Z" fill="#e88cab" stroke="#e88cab" stroke-width="1.51"/><path d="M1266,130L1208,82L1182,163Z" fill="#d27593" stroke="#d27593" stroke-width="1.51"/><path d="M1108,-4L1005,74L1123,72Z" fill="#e486a5" stroke="#e486a5" stroke-width="1.51"/><path d="M1204,-27L1108,-4L1123,72Z" fill="#e3889f" stroke="#e3889f" stroke-width="1.51"/><path d="M352,937L427,914L333,846Z" fill="#bb6488" stroke="#bb6488" stroke-width="1.51"/><path d="M244,927L352,937L333,846Z" fill="#bb698a" stroke="#bb698a" stroke-width="1.51"/><path d="M258,128L233,252L339,214Z" fill="#d3b4d7" stroke="#d3b4d7" stroke-width="1.51"/><path d="M143,485L177,599L233,497Z" fill="#e592bf" stroke="#e592bf" stroke-width="1.51"/><path d="M233,497L177,599L247,564Z" fill="#e58bbb" stroke="#e58bbb" stroke-width="1.51"/><path d="M258,128L339,214L345,128Z" fill="#d3b6d8" stroke="#d3b6d8" stroke-width="1.51"/><path d="M1208,82L1204,-27L1123,72Z" fill="#dd839b" stroke="#dd839b" stroke-width="1.51"/><path d="M1297,240L1266,130L1181,225Z" fill="#ca6b8d" stroke="#ca6b8d" stroke-width="1.51"/><path d="M1351,165L1266,130L1297,240Z" fill="#c36a8c" stroke="#c36a8c" stroke-width="1.51"/><path d="M753,-35L673,-120L679,-15Z" fill="#e8abd2" stroke="#e8abd2" stroke-width="1.51"/><path d="M583,-5L486,-39L572,57Z" fill="#dbb6d8" stroke="#dbb6d8" stroke-width="1.51"/><path d="M838,-107L779,-101L858,-9Z" fill="#efa1c8" stroke="#efa1c8" stroke-width="1.51"/><path d="M838,-107L858,-9L920,-112Z" fill="#f09dc3" stroke="#f09dc3" stroke-width="1.51"/><path d="M233,741L261,826L320,771Z" fill="#d47594" stroke="#d47594" stroke-width="1.51"/><path d="M1451,474L1446,423L1360,471Z" fill="#b63971" stroke="#b63971" stroke-width="1.51"/><path d="M1446,423L1382,317L1358,403Z" fill="#b64979" stroke="#b64979" stroke-width="1.51"/><path d="M1370,745L1268,666L1262,772Z" fill="#bd0e53" stroke="#bd0e53" stroke-width="1.51"/><path d="M164,421L261,410L240,310Z" fill="#d9a1cd" stroke="#d9a1cd" stroke-width="1.51"/><path d="M231,686L146,747L233,741Z" fill="#e07f9e" stroke="#e07f9e" stroke-width="1.51"/><path d="M233,741L158,843L261,826Z" fill="#d27995" stroke="#d27995" stroke-width="1.51"/><path d="M920,-112L858,-9L941,-47Z" fill="#f099bf" stroke="#f099bf" stroke-width="1.51"/><path d="M1358,403L1382,317L1288,335Z" fill="#bb507f" stroke="#bb507f" stroke-width="1.51"/><path d="M1446,423L1358,403L1360,471Z" fill="#b93e77" stroke="#b93e77" stroke-width="1.51"/><path d="M1366,821L1370,745L1262,772Z" fill="#b2084c" stroke="#b2084c" stroke-width="1.51"/><path d="M1186,937L1289,930L1260,841Z" fill="#a70448" stroke="#a70448" stroke-width="1.51"/><path d="M1109,1013L1191,990L1186,937Z" fill="#a40742" stroke="#a40742" stroke-width="1.51"/><path d="M515,-94L486,-39L583,-5Z" fill="#dcbadb" stroke="#dcbadb" stroke-width="1.51"/><path d="M1366,821L1262,772L1260,841Z" fill="#b1074c" stroke="#b1074c" stroke-width="1.51"/><path d="M147,328L164,421L240,310Z" fill="#d9a8d1" stroke="#d9a8d1" stroke-width="1.51"/><path d="M1009,-92L941,-47L1039,-38Z" fill="#ef94b5" stroke="#ef94b5" stroke-width="1.51"/><path d="M1009,-92L920,-112L941,-47Z" fill="#f297bb" stroke="#f297bb" stroke-width="1.51"/><path d="M920,-112L673,-120L838,-107Z" fill="#f0a5ca" stroke="#f0a5ca" stroke-width="1.51"/><path d="M838,-107L673,-120L779,-101Z" fill="#eea8ce" stroke="#eea8ce" stroke-width="1.51"/><path d="M779,-101L673,-120L753,-35Z" fill="#eca9d0" stroke="#eca9d0" stroke-width="1.51"/><path d="M1094,-98L1009,-92L1039,-38Z" fill="#ed93af" stroke="#ed93af" stroke-width="1.51"/><path d="M1094,-98L1039,-38L1108,-4Z" fill="#ea8faa" stroke="#ea8faa" stroke-width="1.51"/><path d="M177,599L163,665L231,686Z" fill="#e585ac" stroke="#e585ac" stroke-width="1.51"/><path d="M79,559L163,665L177,599Z" fill="#ea8cb7" stroke="#ea8cb7" stroke-width="1.51"/><path d="M673,-120L611,-108L679,-15Z" fill="#e7b1d5" stroke="#e7b1d5" stroke-width="1.51"/><path d="M412,-29L346,41L400,53Z" fill="#dac1de" stroke="#dac1de" stroke-width="1.51"/><path d="M400,53L346,41L345,128Z" fill="#d7bcdb" stroke="#d7bcdb" stroke-width="1.51"/><path d="M164,421L143,485L233,497Z" fill="#e299c7" stroke="#e299c7" stroke-width="1.51"/><path d="M1266,130L1264,71L1208,82Z" fill="#d07894" stroke="#d07894" stroke-width="1.51"/><path d="M1352,67L1264,71L1266,130Z" fill="#ca7691" stroke="#ca7691" stroke-width="1.51"/><path d="M176,236L147,328L240,310Z" fill="#d4b0d6" stroke="#d4b0d6" stroke-width="1.51"/><path d="M76,398L70,476L143,485Z" fill="#e5a3ce" stroke="#e5a3ce" stroke-width="1.51"/><path d="M346,41L258,128L345,128Z" fill="#d7bddc" stroke="#d7bddc" stroke-width="1.51"/><path d="M1191,990L1289,930L1186,937Z" fill="#a20543" stroke="#a20543" stroke-width="1.51"/><path d="M352,937L347,996L437,1008Z" fill="#ac5e7c" stroke="#ac5e7c" stroke-width="1.51"/><path d="M437,1008L347,996L492,1033Z" fill="#a55976" stroke="#a55976" stroke-width="1.51"/><path d="M244,927L347,996L352,937Z" fill="#b36583" stroke="#b36583" stroke-width="1.51"/><path d="M244,927L333,846L261,826Z" fill="#c46f8e" stroke="#c46f8e" stroke-width="1.51"/><path d="M1370,745L1449,647L1386,651Z" fill="#b40f55" stroke="#b40f55" stroke-width="1.51"/><path d="M1289,930L1366,821L1260,841Z" fill="#a60448" stroke="#a60448" stroke-width="1.51"/><path d="M346,41L242,42L258,128Z" fill="#dac3e0" stroke="#dac3e0" stroke-width="1.51"/><path d="M486,-39L412,-29L400,53Z" fill="#dac0de" stroke="#dac0de" stroke-width="1.51"/><path d="M428,-97L412,-29L486,-39Z" fill="#dcc3df" stroke="#dcc3df" stroke-width="1.51"/><path d="M1380,217L1351,165L1297,240Z" fill="#bd6488" stroke="#bd6488" stroke-width="1.51"/><path d="M1382,317L1380,217L1297,240Z" fill="#b95e85" stroke="#b95e85" stroke-width="1.51"/><path d="M428,-97L515,-94L611,-108Z" fill="#dfbfdd" stroke="#dfbfdd" stroke-width="1.51"/><path d="M611,-108L515,-94L583,-5Z" fill="#e1b8d9" stroke="#e1b8d9" stroke-width="1.51"/><path d="M1382,317L1448,228L1380,217Z" fill="#b35c81" stroke="#b35c81" stroke-width="1.51"/><path d="M1451,474L1360,471L1349,588Z" fill="#bc2f6e" stroke="#bc2f6e" stroke-width="1.51"/><path d="M1451,474L1349,588L1458,601Z" fill="#b82466" stroke="#b82466" stroke-width="1.51"/><path d="M1458,601L1349,588L1386,651Z" fill="#ba1461" stroke="#ba1461" stroke-width="1.51"/><path d="M176,236L240,310L233,252Z" fill="#d3b1d6" stroke="#d3b1d6" stroke-width="1.51"/><path d="M164,168L176,236L233,252Z" fill="#d6b9da" stroke="#d6b9da" stroke-width="1.51"/><path d="M1467,770L1449,647L1370,745Z" fill="#ae0a4d" stroke="#ae0a4d" stroke-width="1.51"/><path d="M1449,647L1458,601L1386,651Z" fill="#b5135a" stroke="#b5135a" stroke-width="1.51"/><path d="M1290,-19L1204,-27L1264,71Z" fill="#d68399" stroke="#d68399" stroke-width="1.51"/><path d="M1264,71L1204,-27L1208,82Z" fill="#d78098" stroke="#d78098" stroke-width="1.51"/><path d="M1009,-92L1094,-98L920,-112Z" fill="#f096b4" stroke="#f096b4" stroke-width="1.51"/><path d="M1204,-27L1094,-98L1108,-4Z" fill="#e78da2" stroke="#e78da2" stroke-width="1.51"/><path d="M163,665L146,747L231,686Z" fill="#e283a4" stroke="#e283a4" stroke-width="1.51"/><path d="M55,681L146,747L163,665Z" fill="#e589a6" stroke="#e589a6" stroke-width="1.51"/><path d="M158,843L244,927L261,826Z" fill="#c77490" stroke="#c77490" stroke-width="1.51"/><path d="M1446,423L1459,318L1382,317Z" fill="#b14d78" stroke="#b14d78" stroke-width="1.51"/><path d="M1466,147L1352,67L1351,165Z" fill="#bb6d8a" stroke="#bb6d8a" stroke-width="1.51"/><path d="M1557,397L1459,318L1446,423Z" fill="#ab4571" stroke="#ab4571" stroke-width="1.51"/><path d="M1531,493L1446,423L1451,474Z" fill="#b0366c" stroke="#b0366c" stroke-width="1.51"/><path d="M428,-97L333,-26L412,-29Z" fill="#dec7e1" stroke="#dec7e1" stroke-width="1.51"/><path d="M412,-29L333,-26L346,41Z" fill="#dcc6e1" stroke="#dcc6e1" stroke-width="1.51"/><path d="M258,128L164,168L233,252Z" fill="#d6bbdb" stroke="#d6bbdb" stroke-width="1.51"/><path d="M515,-94L428,-97L486,-39Z" fill="#dec1de" stroke="#dec1de" stroke-width="1.51"/><path d="M673,-120L428,-97L611,-108Z" fill="#e3bbdb" stroke="#e3bbdb" stroke-width="1.51"/><path d="M143,485L79,559L177,599Z" fill="#e994bf" stroke="#e994bf" stroke-width="1.51"/><path d="M70,476L79,559L143,485Z" fill="#e99cc7" stroke="#e99cc7" stroke-width="1.51"/><path d="M169,40L164,168L258,128Z" fill="#dbc6e1" stroke="#dbc6e1" stroke-width="1.51"/><path d="M78,220L55,321L147,328Z" fill="#d8b9da" stroke="#d8b9da" stroke-width="1.51"/><path d="M76,398L143,485L164,421Z" fill="#e2a3ce" stroke="#e2a3ce" stroke-width="1.51"/><path d="M146,747L158,843L233,741Z" fill="#da7e98" stroke="#da7e98" stroke-width="1.51"/><path d="M68,768L158,843L146,747Z" fill="#db839a" stroke="#db839a" stroke-width="1.51"/><path d="M76,398L164,421L147,328Z" fill="#deaad1" stroke="#deaad1" stroke-width="1.51"/><path d="M1204,-27L1204,-92L1094,-98Z" fill="#e68ea0" stroke="#e68ea0" stroke-width="1.51"/><path d="M1351,165L1352,67L1266,130Z" fill="#c4718f" stroke="#c4718f" stroke-width="1.51"/><path d="M1466,147L1351,165L1380,217Z" fill="#b76686" stroke="#b76686" stroke-width="1.51"/><path d="M169,40L242,42L174,-47Z" fill="#e1d3e8" stroke="#e1d3e8" stroke-width="1.51"/><path d="M333,-26L242,42L346,41Z" fill="#dcc8e2" stroke="#dcc8e2" stroke-width="1.51"/><path d="M1459,318L1448,228L1382,317Z" fill="#ae577c" stroke="#ae577c" stroke-width="1.51"/><path d="M55,321L76,398L147,328Z" fill="#dcb2d6" stroke="#dcb2d6" stroke-width="1.51"/><path d="M1289,930L1387,942L1366,821Z" fill="#9b0144" stroke="#9b0144" stroke-width="1.51"/><path d="M1366,821L1467,770L1370,745Z" fill="#aa0648" stroke="#aa0648" stroke-width="1.51"/><path d="M1191,990L1295,1026L1289,930Z" fill="#98033e" stroke="#98033e" stroke-width="1.51"/><path d="M1109,1013L1295,1026L1191,990Z" fill="#9b053d" stroke="#9b053d" stroke-width="1.51"/><path d="M931,1032L1295,1026L1109,1013Z" fill="#a10941" stroke="#a10941" stroke-width="1.51"/><path d="M1458,601L1531,493L1451,474Z" fill="#b12a64" stroke="#b12a64" stroke-width="1.51"/><path d="M1541,589L1531,493L1458,601Z" fill="#ad205d" stroke="#ad205d" stroke-width="1.51"/><path d="M1458,826L1467,770L1366,821Z" fill="#a20443" stroke="#a20443" stroke-width="1.51"/><path d="M1352,67L1290,-19L1264,71Z" fill="#cd7c95" stroke="#cd7c95" stroke-width="1.51"/><path d="M1094,-98L1262,-111L920,-112Z" fill="#ed93aa" stroke="#ed93aa" stroke-width="1.51"/><path d="M1262,-111L1204,-92L1204,-27Z" fill="#df8b9e" stroke="#df8b9e" stroke-width="1.51"/><path d="M1379,993L1387,942L1289,930Z" fill="#91003d" stroke="#91003d" stroke-width="1.51"/><path d="M1464,904L1458,826L1366,821Z" fill="#9a0241" stroke="#9a0241" stroke-width="1.51"/><path d="M1458,601L1449,647L1542,657Z" fill="#af1155" stroke="#af1155" stroke-width="1.51"/><path d="M1541,589L1458,601L1542,657Z" fill="#ad1356" stroke="#ad1356" stroke-width="1.51"/><path d="M1522,154L1466,147L1448,228Z" fill="#ae637e" stroke="#ae637e" stroke-width="1.51"/><path d="M165,935L226,1001L244,927Z" fill="#b76f87" stroke="#b76f87" stroke-width="1.51"/><path d="M244,927L226,1001L347,996Z" fill="#b16882" stroke="#b16882" stroke-width="1.51"/><path d="M347,996L226,1001L492,1033Z" fill="#a85f79" stroke="#a85f79" stroke-width="1.51"/><path d="M79,559L55,681L163,665Z" fill="#eb8eb3" stroke="#eb8eb3" stroke-width="1.51"/><path d="M158,843L165,935L244,927Z" fill="#c2748f" stroke="#c2748f" stroke-width="1.51"/><path d="M-6,656L55,681L79,559Z" fill="#ed93b6" stroke="#ed93b6" stroke-width="1.51"/><path d="M82,915L165,935L158,843Z" fill="#c57992" stroke="#c57992" stroke-width="1.51"/><path d="M70,476L-12,505L79,559Z" fill="#eb9fc7" stroke="#eb9fc7" stroke-width="1.51"/><path d="M-17,388L-12,505L70,476Z" fill="#e9a7d0" stroke="#e9a7d0" stroke-width="1.51"/><path d="M78,220L147,328L176,236Z" fill="#d7b9da" stroke="#d7b9da" stroke-width="1.51"/><path d="M78,220L176,236L164,168Z" fill="#d9bfdd" stroke="#d9bfdd" stroke-width="1.51"/><path d="M1542,657L1449,647L1530,742Z" fill="#a80d4b" stroke="#a80d4b" stroke-width="1.51"/><path d="M1387,942L1464,904L1366,821Z" fill="#960040" stroke="#960040" stroke-width="1.51"/><path d="M1295,1026L1379,993L1289,930Z" fill="#90013b" stroke="#90013b" stroke-width="1.51"/><path d="M55,681L68,768L146,747Z" fill="#e58aa2" stroke="#e58aa2" stroke-width="1.51"/><path d="M65,136L78,220L164,168Z" fill="#dbc6e1" stroke="#dbc6e1" stroke-width="1.51"/><path d="M1530,742L1449,647L1467,770Z" fill="#a80a48" stroke="#a80a48" stroke-width="1.51"/><path d="M1530,742L1467,770L1533,843Z" fill="#9c053e" stroke="#9c053e" stroke-width="1.51"/><path d="M1542,229L1448,228L1459,318Z" fill="#aa5879" stroke="#aa5879" stroke-width="1.51"/><path d="M1448,228L1466,147L1380,217Z" fill="#b26281" stroke="#b26281" stroke-width="1.51"/><path d="M1355,-40L1262,-111L1290,-19Z" fill="#d38699" stroke="#d38699" stroke-width="1.51"/><path d="M242,42L169,40L258,128Z" fill="#dcc9e2" stroke="#dcc9e2" stroke-width="1.51"/><path d="M244,-47L242,42L333,-26Z" fill="#dfcfe5" stroke="#dfcfe5" stroke-width="1.51"/><path d="M1533,843L1467,770L1458,826Z" fill="#9a043e" stroke="#9a043e" stroke-width="1.51"/><path d="M1542,657L1557,397L1541,589Z" fill="#a9235b" stroke="#a9235b" stroke-width="1.51"/><path d="M1541,589L1557,397L1531,493Z" fill="#a92e62" stroke="#a92e62" stroke-width="1.51"/><path d="M1531,493L1557,397L1446,423Z" fill="#ab3a6b" stroke="#ab3a6b" stroke-width="1.51"/><path d="M310,-108L244,-47L333,-26Z" fill="#e1d0e6" stroke="#e1d0e6" stroke-width="1.51"/><path d="M428,-97L310,-108L333,-26Z" fill="#e0cbe4" stroke="#e0cbe4" stroke-width="1.51"/><path d="M673,-120L310,-108L428,-97Z" fill="#dfc4e0" stroke="#dfc4e0" stroke-width="1.51"/><path d="M1290,-19L1262,-111L1204,-27Z" fill="#d9889b" stroke="#d9889b" stroke-width="1.51"/><path d="M1204,-92L1262,-111L1094,-98Z" fill="#e58ea0" stroke="#e58ea0" stroke-width="1.51"/><path d="M920,-112L1453,-129L673,-120Z" fill="#f197b5" stroke="#f197b5" stroke-width="1.51"/><path d="M1355,-40L1290,-19L1352,67Z" fill="#cb8095" stroke="#cb8095" stroke-width="1.51"/><path d="M1434,1010L1464,904L1387,942Z" fill="#890038" stroke="#890038" stroke-width="1.51"/><path d="M79,990L171,1001L165,935Z" fill="#b77487" stroke="#b77487" stroke-width="1.51"/><path d="M165,935L171,1001L226,1001Z" fill="#b47085" stroke="#b47085" stroke-width="1.51"/><path d="M226,1001L171,1001L492,1033Z" fill="#aa647b" stroke="#aa647b" stroke-width="1.51"/><path d="M1452,46L1355,-40L1352,67Z" fill="#c37b90" stroke="#c37b90" stroke-width="1.51"/><path d="M1557,397L1558,320L1459,318Z" fill="#a54a70" stroke="#a54a70" stroke-width="1.51"/><path d="M-17,388L70,476L76,398Z" fill="#e5abd2" stroke="#e5abd2" stroke-width="1.51"/><path d="M4,752L57,844L68,768Z" fill="#de899c" stroke="#de899c" stroke-width="1.51"/><path d="M-17,388L76,398L55,321Z" fill="#e1b2d6" stroke="#e1b2d6" stroke-width="1.51"/><path d="M68,768L57,844L158,843Z" fill="#d68399" stroke="#d68399" stroke-width="1.51"/><path d="M4,752L68,768L55,681Z" fill="#e78da2" stroke="#e78da2" stroke-width="1.51"/><path d="M1558,320L1542,229L1459,318Z" fill="#a45373" stroke="#a45373" stroke-width="1.51"/><path d="M1466,147L1452,46L1352,67Z" fill="#ba7188" stroke="#ba7188" stroke-width="1.51"/><path d="M-28,590L-6,656L79,559Z" fill="#f195bd" stroke="#f195bd" stroke-width="1.51"/><path d="M1541,70L1452,46L1466,147Z" fill="#b36e82" stroke="#b36e82" stroke-width="1.51"/><path d="M310,-108L256,-103L244,-47Z" fill="#e3d3e8" stroke="#e3d3e8" stroke-width="1.51"/><path d="M244,-47L174,-47L242,42Z" fill="#e1d4e8" stroke="#e1d4e8" stroke-width="1.51"/><path d="M57,844L82,915L158,843Z" fill="#cd7f95" stroke="#cd7f95" stroke-width="1.51"/><path d="M-12,505L-28,590L79,559Z" fill="#ee9cc3" stroke="#ee9cc3" stroke-width="1.51"/><path d="M-36,338L-17,388L55,321Z" fill="#e0b7d8" stroke="#e0b7d8" stroke-width="1.51"/><path d="M-36,338L55,321L-22,216Z" fill="#dcbedd" stroke="#dcbedd" stroke-width="1.51"/><path d="M169,40L65,136L164,168Z" fill="#ddcce4" stroke="#ddcce4" stroke-width="1.51"/><path d="M73,46L65,136L169,40Z" fill="#e1d3e8" stroke="#e1d3e8" stroke-width="1.51"/><path d="M1542,657L1561,992L1557,397Z" fill="#a30c47" stroke="#a30c47" stroke-width="1.51"/><path d="M1530,742L1533,843L1542,657Z" fill="#9f073f" stroke="#9f073f" stroke-width="1.51"/><path d="M1464,904L1533,843L1458,826Z" fill="#92023c" stroke="#92023c" stroke-width="1.51"/><path d="M1527,905L1533,843L1464,904Z" fill="#8b0138" stroke="#8b0138" stroke-width="1.51"/><path d="M1379,993L1434,1010L1387,942Z" fill="#870036" stroke="#870036" stroke-width="1.51"/><path d="M1295,1026L1434,1010L1379,993Z" fill="#860036" stroke="#860036" stroke-width="1.51"/><path d="M1542,229L1522,154L1448,228Z" fill="#a95e7a" stroke="#a95e7a" stroke-width="1.51"/><path d="M-95,560L-28,590L-12,505Z" fill="#f19ec4" stroke="#f19ec4" stroke-width="1.51"/><path d="M-24,906L79,990L82,915Z" fill="#c27e90" stroke="#c27e90" stroke-width="1.51"/><path d="M-6,656L4,752L55,681Z" fill="#ea90ab" stroke="#ea90ab" stroke-width="1.51"/><path d="M-99,766L4,752L-6,656Z" fill="#ea90a6" stroke="#ea90a6" stroke-width="1.51"/><path d="M256,-103L174,-47L244,-47Z" fill="#e4d7e9" stroke="#e4d7e9" stroke-width="1.51"/><path d="M1561,992L1527,905L1464,904Z" fill="#820033" stroke="#820033" stroke-width="1.51"/><path d="M-113,409L-95,508L-12,505Z" fill="#eea9cf" stroke="#eea9cf" stroke-width="1.51"/><path d="M-22,216L55,321L78,220Z" fill="#dcc1df" stroke="#dcc1df" stroke-width="1.51"/><path d="M1452,46L1439,-35L1355,-40Z" fill="#c27d8f" stroke="#c27d8f" stroke-width="1.51"/><path d="M1355,-40L1387,-106L1262,-111Z" fill="#d08598" stroke="#d08598" stroke-width="1.51"/><path d="M1559,-21L1439,-35L1452,46Z" fill="#b97988" stroke="#b97988" stroke-width="1.51"/><path d="M65,136L-22,216L78,220Z" fill="#ddc9e2" stroke="#ddc9e2" stroke-width="1.51"/><path d="M73,-14L73,46L169,40Z" fill="#e4daeb" stroke="#e4daeb" stroke-width="1.51"/><path d="M-5,857L82,915L57,844Z" fill="#ce8297" stroke="#ce8297" stroke-width="1.51"/><path d="M82,915L79,990L165,935Z" fill="#be798c" stroke="#be798c" stroke-width="1.51"/><path d="M1439,-35L1387,-106L1355,-40Z" fill="#c78194" stroke="#c78194" stroke-width="1.51"/><path d="M-20,128L-22,216L65,136Z" fill="#e0cee5" stroke="#e0cee5" stroke-width="1.51"/><path d="M4,752L-5,857L57,844Z" fill="#d9889b" stroke="#d9889b" stroke-width="1.51"/><path d="M-24,906L-5,857L-92,817Z" fill="#d38799" stroke="#d38799" stroke-width="1.51"/><path d="M1439,-35L1453,-129L1387,-106Z" fill="#c48191" stroke="#c48191" stroke-width="1.51"/><path d="M1522,154L1541,70L1466,147Z" fill="#ad687e" stroke="#ad687e" stroke-width="1.51"/><path d="M1542,229L1541,70L1522,154Z" fill="#a8637a" stroke="#a8637a" stroke-width="1.51"/><path d="M1559,-21L1541,70L1542,229Z" fill="#ab6a7d" stroke="#ab6a7d" stroke-width="1.51"/><path d="M-113,409L-12,505L-17,388Z" fill="#eaadd3" stroke="#eaadd3" stroke-width="1.51"/><path d="M-28,590L-123,676L-6,656Z" fill="#f196b6" stroke="#f196b6" stroke-width="1.51"/><path d="M-113,409L-17,388L-36,338Z" fill="#e5b5d8" stroke="#e5b5d8" stroke-width="1.51"/><path d="M-95,508L-95,560L-12,505Z" fill="#f0a3c8" stroke="#f0a3c8" stroke-width="1.51"/><path d="M51,-98L73,-14L174,-47Z" fill="#e9e1ef" stroke="#e9e1ef" stroke-width="1.51"/><path d="M174,-47L73,-14L169,40Z" fill="#e4dbec" stroke="#e4dbec" stroke-width="1.51"/><path d="M73,46L-20,128L65,136Z" fill="#e2d4e8" stroke="#e2d4e8" stroke-width="1.51"/><path d="M256,-103L156,-120L174,-47Z" fill="#e6dbec" stroke="#e6dbec" stroke-width="1.51"/><path d="M310,-108L156,-120L256,-103Z" fill="#e5d8ea" stroke="#e5d8ea" stroke-width="1.51"/><path d="M673,-120L156,-120L310,-108Z" fill="#e2cce4" stroke="#e2cce4" stroke-width="1.51"/><path d="M-31,61L-20,128L73,46Z" fill="#e5d9eb" stroke="#e5d9eb" stroke-width="1.51"/><path d="M-117,301L-113,409L-36,338Z" fill="#e3bbda" stroke="#e3bbda" stroke-width="1.51"/><path d="M-5,857L-24,906L82,915Z" fill="#cb8296" stroke="#cb8296" stroke-width="1.51"/><path d="M-92,817L-5,857L4,752Z" fill="#de8a9d" stroke="#de8a9d" stroke-width="1.51"/><path d="M-95,508L-123,676L-95,560Z" fill="#f49dc2" stroke="#f49dc2" stroke-width="1.51"/><path d="M-117,301L-36,338L-22,216Z" fill="#dec1df" stroke="#dec1df" stroke-width="1.51"/><path d="M1434,1010L1561,992L1464,904Z" fill="#800031" stroke="#800031" stroke-width="1.51"/><path d="M1527,905L1561,992L1533,843Z" fill="#830033" stroke="#830033" stroke-width="1.51"/><path d="M1533,843L1561,992L1542,657Z" fill="#900338" stroke="#900338" stroke-width="1.51"/><path d="M1557,397L1561,992L1558,320Z" fill="#a81d58" stroke="#a81d58" stroke-width="1.51"/><path d="M-123,676L-99,766L-6,656Z" fill="#ee94ac" stroke="#ee94ac" stroke-width="1.51"/><path d="M-123,676L-28,590L-95,560Z" fill="#f499bd" stroke="#f499bd" stroke-width="1.51"/><path d="M1524,-101L1453,-129L1439,-35Z" fill="#bf7f8c" stroke="#bf7f8c" stroke-width="1.51"/><path d="M1387,-106L1453,-129L1262,-111Z" fill="#cd8697" stroke="#cd8697" stroke-width="1.51"/><path d="M1262,-111L1453,-129L920,-112Z" fill="#e28ea0" stroke="#e28ea0" stroke-width="1.51"/><path d="M673,-120L-2,-122L156,-120Z" fill="#e4d5e9" stroke="#e4d5e9" stroke-width="1.51"/><path d="M-113,409L-123,676L-95,508Z" fill="#f2a3c8" stroke="#f2a3c8" stroke-width="1.51"/><path d="M-113,409L-122,249L-123,676Z" fill="#edafd4" stroke="#edafd4" stroke-width="1.51"/><path d="M-122,249L-117,301L-22,216Z" fill="#e0c7e1" stroke="#e0c7e1" stroke-width="1.51"/><path d="M-97,909L-92,817L-99,766Z" fill="#db8c9d" stroke="#db8c9d" stroke-width="1.51"/><path d="M-99,766L-92,817L4,752Z" fill="#e58ea0" stroke="#e58ea0" stroke-width="1.51"/><path d="M-111,149L-122,249L-22,216Z" fill="#e2cde4" stroke="#e2cde4" stroke-width="1.51"/><path d="M-1,-21L-31,61L73,46Z" fill="#e7dfee" stroke="#e7dfee" stroke-width="1.51"/><path d="M-1,-21L73,46L73,-14Z" fill="#e7e1ef" stroke="#e7e1ef" stroke-width="1.51"/><path d="M1541,70L1559,-21L1452,46Z" fill="#b37483" stroke="#b37483" stroke-width="1.51"/><path d="M1558,320L1559,-21L1542,229Z" fill="#a56077" stroke="#a56077" stroke-width="1.51"/><path d="M1561,992L1559,-21L1558,320Z" fill="#a53a67" stroke="#a53a67" stroke-width="1.51"/><path d="M-117,301L-122,249L-113,409Z" fill="#e2c0de" stroke="#e2c0de" stroke-width="1.51"/><path d="M-111,149L-22,216L-20,128Z" fill="#e2d0e6" stroke="#e2d0e6" stroke-width="1.51"/><path d="M-112,73L-111,149L-20,128Z" fill="#e5d7ea" stroke="#e5d7ea" stroke-width="1.51"/><path d="M51,-98L-1,-21L73,-14Z" fill="#eae5f1" stroke="#eae5f1" stroke-width="1.51"/><path d="M156,-120L51,-98L174,-47Z" fill="#e9e1ef" stroke="#e9e1ef" stroke-width="1.51"/><path d="M1559,-21L1524,-101L1439,-35Z" fill="#b97b87" stroke="#b97b87" stroke-width="1.51"/><path d="M-97,909L-31,1014L-24,906Z" fill="#c58291" stroke="#c58291" stroke-width="1.51"/><path d="M-24,906L-31,1014L79,990Z" fill="#be7d8c" stroke="#be7d8c" stroke-width="1.51"/><path d="M79,990L-31,1014L171,1001Z" fill="#b67886" stroke="#b67886" stroke-width="1.51"/><path d="M171,1001L-108,1030L492,1033Z" fill="#ad6d7f" stroke="#ad6d7f" stroke-width="1.51"/><path d="M-112,73L-20,128L-31,61Z" fill="#e6daeb" stroke="#e6daeb" stroke-width="1.51"/><path d="M-92,817L-97,909L-24,906Z" fill="#d18799" stroke="#d18799" stroke-width="1.51"/><path d="M-123,676L-97,909L-99,766Z" fill="#e590a0" stroke="#e590a0" stroke-width="1.51"/><path d="M-119,-30L-112,73L-31,61Z" fill="#ebe3f0" stroke="#ebe3f0" stroke-width="1.51"/><path d="M-111,149L-112,73L-122,249Z" fill="#e4d4e8" stroke="#e4d4e8" stroke-width="1.51"/><path d="M-119,-30L-31,61L-1,-21Z" fill="#ebe5f1" stroke="#ebe5f1" stroke-width="1.51"/><path d="M51,-98L-2,-122L-1,-21Z" fill="#ede8f3" stroke="#ede8f3" stroke-width="1.51"/><path d="M156,-120L-2,-122L51,-98Z" fill="#ede8f2" stroke="#ede8f2" stroke-width="1.51"/><path d="M1453,-129L-2,-122L673,-120Z" fill="#ecaed4" stroke="#ecaed4" stroke-width="1.51"/><path d="M-97,909L-108,1030L-31,1014Z" fill="#be808b" stroke="#be808b" stroke-width="1.51"/><path d="M-31,1014L-108,1030L171,1001Z" fill="#b67a85" stroke="#b67a85" stroke-width="1.51"/><path d="M-123,676L-108,1030L-97,909Z" fill="#d4899a" stroke="#d4899a" stroke-width="1.51"/><path d="M-81,-100L-119,-30L-1,-21Z" fill="#eeeaf3" stroke="#eeeaf3" stroke-width="1.51"/><path d="M-112,73L-119,-30L-122,249Z" fill="#e8dcec" stroke="#e8dcec" stroke-width="1.51"/><path d="M-2,-122L-81,-100L-1,-21Z" fill="#efeaf4" stroke="#efeaf4" stroke-width="1.51"/></svg>