<svg xmlns="http://www.w3.org/2000/svg" width="1440" height="900"><path d="M751,474L768,559L829,481Z" fill="#ebebf3" stroke="#ebebf3" stroke-width="1.51"/><path d="M768,559L853,595L829,481Z" fill="#e3e3ef" stroke="#e3e3ef" stroke-width="1.51"/><path d="M751,474L667,514L768,559Z" fill="#eeeef4" stroke="#eeeef4" stroke-width="1.51"/><path d="M829,481L755,394L751,474Z" fill="#f2f2f5" stroke="#f2f2f5" stroke-width="1.51"/><path d="M751,474L686,388L667,514Z" fill="#f7f4f3" stroke="#f7f4f3" stroke-width="1.51"/><path d="M768,559L776,644L853,595Z" fill="#dcdcec" stroke="#dcdcec" stroke-width="1.51"/><path d="M670,598L776,644L768,559Z" fill="#e1e1ee" stroke="#e1e1ee" stroke-width="1.51"/><path d="M829,481L871,403L755,394Z" fill="#efeced" stroke="#efeced" stroke-width="1.51"/><path d="M932,481L871,403L829,481Z" fill="#e8e9f2" stroke="#e8e9f2" stroke-width="1.51"/><path d="M667,514L670,598L768,559Z" fill="#eae9ee" stroke="#eae9ee" stroke-width="1.51"/><path d="M853,595L932,481L829,481Z" fill="#e0e2ee" stroke="#e0e2ee" stroke-width="1.51"/><path d="M755,394L686,388L751,474Z" fill="#f8f3ee" stroke="#f8f3ee" stroke-width="1.51"/><path d="M680,332L686,388L755,394Z" fill="#fbeedf" stroke="#fbeedf" stroke-width="1.51"/><path d="M776,644L854,662L853,595Z" fill="#d4d3e7" stroke="#d4d3e7" stroke-width="1.51"/><path d="M853,595L953,578L932,481Z" fill="#d8daeb" stroke="#d8daeb" stroke-width="1.51"/><path d="M933,684L953,578L853,595Z" fill="#cecde4" stroke="#cecde4" stroke-width="1.51"/><path d="M670,598L675,651L776,644Z" fill="#dfdbe9" stroke="#dfdbe9" stroke-width="1.51"/><path d="M776,644L851,750L854,662Z" fill="#ccc9e1" stroke="#ccc9e1" stroke-width="1.51"/><path d="M932,481L952,422L871,403Z" fill="#e5e3eb" stroke="#e5e3eb" stroke-width="1.51"/><path d="M1025,477L952,422L932,481Z" fill="#ddddeb" stroke="#ddddeb" stroke-width="1.51"/><path d="M850,304L766,315L755,394Z" fill="#f5e6d6" stroke="#f5e6d6" stroke-width="1.51"/><path d="M850,304L755,394L871,403Z" fill="#f1e6dd" stroke="#f1e6dd" stroke-width="1.51"/><path d="M670,598L597,590L675,651Z" fill="#e3dbdf" stroke="#e3dbdf" stroke-width="1.51"/><path d="M667,514L597,590L670,598Z" fill="#eae4e3" stroke="#eae4e3" stroke-width="1.51"/><path d="M574,482L597,590L667,514Z" fill="#f0e6df" stroke="#f0e6df" stroke-width="1.51"/><path d="M569,421L574,482L667,514Z" fill="#f8ece0" stroke="#f8ece0" stroke-width="1.51"/><path d="M766,315L680,332L755,394Z" fill="#faecdb" stroke="#faecdb" stroke-width="1.51"/><path d="M569,421L667,514L686,388Z" fill="#faf0e5" stroke="#faf0e5" stroke-width="1.51"/><path d="M944,337L850,304L871,403Z" fill="#ecdfd6" stroke="#ecdfd6" stroke-width="1.51"/><path d="M854,662L933,684L853,595Z" fill="#cdcce3" stroke="#cdcce3" stroke-width="1.51"/><path d="M851,750L933,684L854,662Z" fill="#c4c2de" stroke="#c4c2de" stroke-width="1.51"/><path d="M953,578L1025,477L932,481Z" fill="#d7d6e9" stroke="#d7d6e9" stroke-width="1.51"/><path d="M933,684L1006,582L953,578Z" fill="#c9c7e2" stroke="#c9c7e2" stroke-width="1.51"/><path d="M952,422L944,337L871,403Z" fill="#e7dede" stroke="#e7dede" stroke-width="1.51"/><path d="M1042,399L944,337L952,422Z" fill="#e1d6d9" stroke="#e1d6d9" stroke-width="1.51"/><path d="M610,314L569,421L686,388Z" fill="#fce9d0" stroke="#fce9d0" stroke-width="1.51"/><path d="M1006,582L1025,477L953,578Z" fill="#d0cfe5" stroke="#d0cfe5" stroke-width="1.51"/><path d="M675,651L743,751L776,644Z" fill="#d5d1e5" stroke="#d5d1e5" stroke-width="1.51"/><path d="M664,771L743,751L675,651Z" fill="#cfc7db" stroke="#cfc7db" stroke-width="1.51"/><path d="M743,751L851,750L776,644Z" fill="#c9c5de" stroke="#c9c5de" stroke-width="1.51"/><path d="M597,590L572,660L675,651Z" fill="#e1d5d7" stroke="#e1d5d7" stroke-width="1.51"/><path d="M515,587L572,660L597,590Z" fill="#e6d6cf" stroke="#e6d6cf" stroke-width="1.51"/><path d="M515,587L597,590L574,482Z" fill="#efe0d5" stroke="#efe0d5" stroke-width="1.51"/><path d="M680,332L610,314L686,388Z" fill="#fde9cf" stroke="#fde9cf" stroke-width="1.51"/><path d="M693,225L610,314L680,332Z" fill="#fee1be" stroke="#fee1be" stroke-width="1.51"/><path d="M693,225L680,332L766,315Z" fill="#fde4c8" stroke="#fde4c8" stroke-width="1.51"/><path d="M850,304L837,249L766,315Z" fill="#f5ddc5" stroke="#f5ddc5" stroke-width="1.51"/><path d="M927,213L837,249L850,304Z" fill="#f2d3b8" stroke="#f2d3b8" stroke-width="1.51"/><path d="M837,249L776,243L766,315Z" fill="#f8dbbf" stroke="#f8dbbf" stroke-width="1.51"/><path d="M1025,477L1042,399L952,422Z" fill="#dcd7e5" stroke="#dcd7e5" stroke-width="1.51"/><path d="M944,337L927,213L850,304Z" fill="#edd3c1" stroke="#edd3c1" stroke-width="1.51"/><path d="M1088,475L1042,399L1025,477Z" fill="#d6d2e6" stroke="#d6d2e6" stroke-width="1.51"/><path d="M500,484L515,587L574,482Z" fill="#f4e1cf" stroke="#f4e1cf" stroke-width="1.51"/><path d="M582,751L664,771L675,651Z" fill="#d1c3d1" stroke="#d1c3d1" stroke-width="1.51"/><path d="M743,751L742,823L851,750Z" fill="#beb7d5" stroke="#beb7d5" stroke-width="1.51"/><path d="M569,421L500,484L574,482Z" fill="#faead6" stroke="#faead6" stroke-width="1.51"/><path d="M490,414L500,484L569,421Z" fill="#fde7cd" stroke="#fde7cd" stroke-width="1.51"/><path d="M933,684L1037,662L1006,582Z" fill="#c1bedc" stroke="#c1bedc" stroke-width="1.51"/><path d="M1006,582L1088,475L1025,477Z" fill="#cfcde4" stroke="#cfcde4" stroke-width="1.51"/><path d="M1035,735L1037,662L933,684Z" fill="#b8b3d6" stroke="#b8b3d6" stroke-width="1.51"/><path d="M851,750L940,765L933,684Z" fill="#bbb7d7" stroke="#bbb7d7" stroke-width="1.51"/><path d="M916,824L940,765L851,750Z" fill="#b2acd0" stroke="#b2acd0" stroke-width="1.51"/><path d="M762,154L693,225L776,243Z" fill="#fdd5ac" stroke="#fdd5ac" stroke-width="1.51"/><path d="M776,243L693,225L766,315Z" fill="#fcdebe" stroke="#fcdebe" stroke-width="1.51"/><path d="M1127,579L1088,475L1006,582Z" fill="#c7c4df" stroke="#c7c4df" stroke-width="1.51"/><path d="M511,333L490,414L569,421Z" fill="#fee2c0" stroke="#fee2c0" stroke-width="1.51"/><path d="M511,333L569,421L610,314Z" fill="#fee3c0" stroke="#fee3c0" stroke-width="1.51"/><path d="M664,771L742,823L743,751Z" fill="#c2bad6" stroke="#c2bad6" stroke-width="1.51"/><path d="M664,771L688,860L742,823Z" fill="#bbb0cc" stroke="#bbb0cc" stroke-width="1.51"/><path d="M572,660L582,751L675,651Z" fill="#d9cad0" stroke="#d9cad0" stroke-width="1.51"/><path d="M522,756L582,751L572,660Z" fill="#d3bfc2" stroke="#d3bfc2" stroke-width="1.51"/><path d="M742,823L847,831L851,750Z" fill="#b5aed0" stroke="#b5aed0" stroke-width="1.51"/><path d="M1042,399L1043,307L944,337Z" fill="#dfcecd" stroke="#dfcecd" stroke-width="1.51"/><path d="M1124,327L1043,307L1042,399Z" fill="#d9c6c8" stroke="#d9c6c8" stroke-width="1.51"/><path d="M519,248L511,333L610,314Z" fill="#ffdbab" stroke="#ffdbab" stroke-width="1.51"/><path d="M1009,213L927,213L944,337Z" fill="#e8c7b3" stroke="#e8c7b3" stroke-width="1.51"/><path d="M837,249L762,154L776,243Z" fill="#f9d2ad" stroke="#f9d2ad" stroke-width="1.51"/><path d="M693,225L596,237L610,314Z" fill="#ffdaae" stroke="#ffdaae" stroke-width="1.51"/><path d="M1037,662L1127,579L1006,582Z" fill="#c0bcdb" stroke="#c0bcdb" stroke-width="1.51"/><path d="M940,765L1035,735L933,684Z" fill="#b5afd3" stroke="#b5afd3" stroke-width="1.51"/><path d="M1016,835L1035,735L940,765Z" fill="#a7a0c9" stroke="#a7a0c9" stroke-width="1.51"/><path d="M847,831L916,824L851,750Z" fill="#b0aacd" stroke="#b0aacd" stroke-width="1.51"/><path d="M515,587L495,684L572,660Z" fill="#e2ccc5" stroke="#e2ccc5" stroke-width="1.51"/><path d="M438,565L495,684L515,587Z" fill="#e8cdbd" stroke="#e8cdbd" stroke-width="1.51"/><path d="M438,565L515,587L500,484Z" fill="#f2d8c3" stroke="#f2d8c3" stroke-width="1.51"/><path d="M1088,475L1110,402L1042,399Z" fill="#d4cbdd" stroke="#d4cbdd" stroke-width="1.51"/><path d="M1187,497L1110,402L1088,475Z" fill="#cac4dd" stroke="#cac4dd" stroke-width="1.51"/><path d="M1108,680L1127,579L1037,662Z" fill="#b6b1d4" stroke="#b6b1d4" stroke-width="1.51"/><path d="M397,507L438,565L500,484Z" fill="#f6d7ba" stroke="#f6d7ba" stroke-width="1.51"/><path d="M430,405L500,484L490,414Z" fill="#fee1c1" stroke="#fee1c1" stroke-width="1.51"/><path d="M693,225L668,159L596,237Z" fill="#ffd3a0" stroke="#ffd3a0" stroke-width="1.51"/><path d="M861,137L762,154L837,249Z" fill="#f5c8a2" stroke="#f5c8a2" stroke-width="1.51"/><path d="M585,823L688,860L664,771Z" fill="#bdacc3" stroke="#bdacc3" stroke-width="1.51"/><path d="M495,684L522,756L572,660Z" fill="#d9c1bf" stroke="#d9c1bf" stroke-width="1.51"/><path d="M421,758L522,756L495,684Z" fill="#d3b3af" stroke="#d3b3af" stroke-width="1.51"/><path d="M742,823L759,928L847,831Z" fill="#ae9ec8" stroke="#ae9ec8" stroke-width="1.51"/><path d="M949,924L1016,835L916,824Z" fill="#9c8cbf" stroke="#9c8cbf" stroke-width="1.51"/><path d="M585,823L664,771L582,751Z" fill="#c6b3c3" stroke="#c6b3c3" stroke-width="1.51"/><path d="M1035,735L1108,680L1037,662Z" fill="#b2abd2" stroke="#b2abd2" stroke-width="1.51"/><path d="M762,154L668,159L693,225Z" fill="#fdcfa2" stroke="#fdcfa2" stroke-width="1.51"/><path d="M1043,307L1009,213L944,337Z" fill="#e3c7bb" stroke="#e3c7bb" stroke-width="1.51"/><path d="M927,213L861,137L837,249Z" fill="#f1c8a6" stroke="#f1c8a6" stroke-width="1.51"/><path d="M1122,244L1009,213L1043,307Z" fill="#debaac" stroke="#debaac" stroke-width="1.51"/><path d="M522,756L585,823L582,751Z" fill="#c8b1bb" stroke="#c8b1bb" stroke-width="1.51"/><path d="M511,333L430,405L490,414Z" fill="#feddb3" stroke="#feddb3" stroke-width="1.51"/><path d="M399,315L430,405L511,333Z" fill="#ffd6a4" stroke="#ffd6a4" stroke-width="1.51"/><path d="M519,248L610,314L596,237Z" fill="#ffd7a5" stroke="#ffd7a5" stroke-width="1.51"/><path d="M489,152L519,248L596,237Z" fill="#ffcb8b" stroke="#ffcb8b" stroke-width="1.51"/><path d="M952,162L861,137L927,213Z" fill="#ecbd9c" stroke="#ecbd9c" stroke-width="1.51"/><path d="M696,45L600,138L668,159Z" fill="#f7bd86" stroke="#f7bd86" stroke-width="1.51"/><path d="M1176,339L1124,327L1110,402Z" fill="#cebcc4" stroke="#cebcc4" stroke-width="1.51"/><path d="M1110,402L1124,327L1042,399Z" fill="#d4c5ce" stroke="#d4c5ce" stroke-width="1.51"/><path d="M1009,213L952,162L927,213Z" fill="#e8bda0" stroke="#e8bda0" stroke-width="1.51"/><path d="M430,405L397,507L500,484Z" fill="#fdddbc" stroke="#fdddbc" stroke-width="1.51"/><path d="M438,565L407,681L495,684Z" fill="#e4c3b2" stroke="#e4c3b2" stroke-width="1.51"/><path d="M1035,735L1127,767L1108,680Z" fill="#a79eca" stroke="#a79eca" stroke-width="1.51"/><path d="M916,824L1016,835L940,765Z" fill="#a69ec8" stroke="#a69ec8" stroke-width="1.51"/><path d="M949,924L916,824L847,831Z" fill="#a395c3" stroke="#a395c3" stroke-width="1.51"/><path d="M1127,579L1187,497L1088,475Z" fill="#c2bdd9" stroke="#c2bdd9" stroke-width="1.51"/><path d="M1192,579L1187,497L1127,579Z" fill="#b8b3d4" stroke="#b8b3d4" stroke-width="1.51"/><path d="M1179,652L1192,579L1127,579Z" fill="#b1abd0" stroke="#b1abd0" stroke-width="1.51"/><path d="M1179,652L1127,579L1108,680Z" fill="#b0a9cf" stroke="#b0a9cf" stroke-width="1.51"/><path d="M339,560L407,681L438,565Z" fill="#ecc5aa" stroke="#ecc5aa" stroke-width="1.51"/><path d="M522,756L490,854L585,823Z" fill="#c2a7af" stroke="#c2a7af" stroke-width="1.51"/><path d="M1204,739L1179,652L1108,680Z" fill="#a49bc7" stroke="#a49bc7" stroke-width="1.51"/><path d="M696,45L668,159L762,154Z" fill="#f8c291" stroke="#f8c291" stroke-width="1.51"/><path d="M668,159L600,138L596,237Z" fill="#fdca92" stroke="#fdca92" stroke-width="1.51"/><path d="M688,860L759,928L742,823Z" fill="#b19fc8" stroke="#b19fc8" stroke-width="1.51"/><path d="M673,918L759,928L688,860Z" fill="#ad95c2" stroke="#ad95c2" stroke-width="1.51"/><path d="M585,908L688,860L585,823Z" fill="#b79cb8" stroke="#b79cb8" stroke-width="1.51"/><path d="M585,908L673,918L688,860Z" fill="#b093b8" stroke="#b093b8" stroke-width="1.51"/><path d="M1209,413L1176,339L1110,402Z" fill="#c9b9c9" stroke="#c9b9c9" stroke-width="1.51"/><path d="M1124,327L1122,244L1043,307Z" fill="#d7bab5" stroke="#d7bab5" stroke-width="1.51"/><path d="M1009,213L1020,134L952,162Z" fill="#e3b296" stroke="#e3b296" stroke-width="1.51"/><path d="M1109,835L1127,767L1035,735Z" fill="#9c92c2" stroke="#9c92c2" stroke-width="1.51"/><path d="M759,928L828,935L847,831Z" fill="#a590c2" stroke="#a590c2" stroke-width="1.51"/><path d="M1176,339L1122,244L1124,327Z" fill="#d0b4b4" stroke="#d0b4b4" stroke-width="1.51"/><path d="M1262,393L1209,413L1291,474Z" fill="#bbadca" stroke="#bbadca" stroke-width="1.51"/><path d="M1187,497L1209,413L1110,402Z" fill="#c6bed6" stroke="#c6bed6" stroke-width="1.51"/><path d="M416,234L511,333L519,248Z" fill="#ffcf93" stroke="#ffcf93" stroke-width="1.51"/><path d="M416,234L399,315L511,333Z" fill="#ffce91" stroke="#ffce91" stroke-width="1.51"/><path d="M430,405L334,476L397,507Z" fill="#fed7af" stroke="#fed7af" stroke-width="1.51"/><path d="M407,681L421,758L495,684Z" fill="#d9b5a9" stroke="#d9b5a9" stroke-width="1.51"/><path d="M952,162L947,81L861,137Z" fill="#e7b38f" stroke="#e7b38f" stroke-width="1.51"/><path d="M861,137L832,54L762,154Z" fill="#efb98f" stroke="#efb98f" stroke-width="1.51"/><path d="M1089,140L1020,134L1009,213Z" fill="#deaa91" stroke="#deaa91" stroke-width="1.51"/><path d="M828,935L949,924L847,831Z" fill="#9f8bbf" stroke="#9f8bbf" stroke-width="1.51"/><path d="M1016,835L1109,835L1035,735Z" fill="#9d93c1" stroke="#9d93c1" stroke-width="1.51"/><path d="M490,854L585,908L585,823Z" fill="#b998ad" stroke="#b998ad" stroke-width="1.51"/><path d="M742,1025L828,935L759,928Z" fill="#9c82b5" stroke="#9c82b5" stroke-width="1.51"/><path d="M397,507L339,560L438,565Z" fill="#f4cead" stroke="#f4cead" stroke-width="1.51"/><path d="M320,771L412,824L421,758Z" fill="#ca9c91" stroke="#ca9c91" stroke-width="1.51"/><path d="M334,476L339,560L397,507Z" fill="#f7cca7" stroke="#f7cca7" stroke-width="1.51"/><path d="M421,758L490,854L522,756Z" fill="#c8a6a6" stroke="#c8a6a6" stroke-width="1.51"/><path d="M326,409L334,476L430,405Z" fill="#ffd4a5" stroke="#ffd4a5" stroke-width="1.51"/><path d="M1097,918L1109,835L1016,835Z" fill="#907db6" stroke="#907db6" stroke-width="1.51"/><path d="M1127,767L1204,739L1108,680Z" fill="#9f95c3" stroke="#9f95c3" stroke-width="1.51"/><path d="M1020,134L947,81L952,162Z" fill="#e1ab8b" stroke="#e1ab8b" stroke-width="1.51"/><path d="M947,81L832,54L861,137Z" fill="#e8af87" stroke="#e8af87" stroke-width="1.51"/><path d="M949,924L1009,914L1016,835Z" fill="#947fb9" stroke="#947fb9" stroke-width="1.51"/><path d="M342,338L326,409L430,405Z" fill="#ffcf9a" stroke="#ffcf9a" stroke-width="1.51"/><path d="M489,152L416,234L519,248Z" fill="#fec47c" stroke="#fec47c" stroke-width="1.51"/><path d="M600,138L489,152L596,237Z" fill="#fcc586" stroke="#fcc586" stroke-width="1.51"/><path d="M511,81L489,152L600,138Z" fill="#f7b771" stroke="#f7b771" stroke-width="1.51"/><path d="M832,54L773,41L762,154Z" fill="#efb588" stroke="#efb588" stroke-width="1.51"/><path d="M247,564L323,686L339,560Z" fill="#e8b796" stroke="#e8b796" stroke-width="1.51"/><path d="M342,338L430,405L399,315Z" fill="#ffd097" stroke="#ffd097" stroke-width="1.51"/><path d="M773,41L696,45L762,154Z" fill="#f2b889" stroke="#f2b889" stroke-width="1.51"/><path d="M1197,846L1204,739L1127,767Z" fill="#8f83b7" stroke="#8f83b7" stroke-width="1.51"/><path d="M1179,652L1266,587L1192,579Z" fill="#aaa3cb" stroke="#aaa3cb" stroke-width="1.51"/><path d="M1192,579L1266,587L1187,497Z" fill="#b1abcf" stroke="#b1abcf" stroke-width="1.51"/><path d="M339,214L342,338L399,315Z" fill="#fec37c" stroke="#fec37c" stroke-width="1.51"/><path d="M1122,244L1089,140L1009,213Z" fill="#dcae99" stroke="#dcae99" stroke-width="1.51"/><path d="M1020,134L1005,74L947,81Z" fill="#dda282" stroke="#dda282" stroke-width="1.51"/><path d="M1182,163L1089,140L1122,244Z" fill="#d2a08f" stroke="#d2a08f" stroke-width="1.51"/><path d="M1181,225L1122,244L1176,339Z" fill="#cfaba7" stroke="#cfaba7" stroke-width="1.51"/><path d="M1268,666L1266,587L1179,652Z" fill="#a299c5" stroke="#a299c5" stroke-width="1.51"/><path d="M1262,393L1176,339L1209,413Z" fill="#c2b0c2" stroke="#c2b0c2" stroke-width="1.51"/><path d="M1288,335L1181,225L1176,339Z" fill="#c6a7ab" stroke="#c6a7ab" stroke-width="1.51"/><path d="M947,81L858,-9L832,54Z" fill="#e0a682" stroke="#e0a682" stroke-width="1.51"/><path d="M832,54L858,-9L773,41Z" fill="#e2a983" stroke="#e2a983" stroke-width="1.51"/><path d="M1089,140L1005,74L1020,134Z" fill="#d9a084" stroke="#d9a084" stroke-width="1.51"/><path d="M421,758L412,824L490,854Z" fill="#c49b9a" stroke="#c49b9a" stroke-width="1.51"/><path d="M490,854L513,945L585,908Z" fill="#b289a1" stroke="#b289a1" stroke-width="1.51"/><path d="M323,686L421,758L407,681Z" fill="#daae9d" stroke="#daae9d" stroke-width="1.51"/><path d="M1291,474L1209,413L1187,497Z" fill="#bbb3d2" stroke="#bbb3d2" stroke-width="1.51"/><path d="M247,564L339,560L334,476Z" fill="#f2c39c" stroke="#f2c39c" stroke-width="1.51"/><path d="M339,560L323,686L407,681Z" fill="#e5b89d" stroke="#e5b89d" stroke-width="1.51"/><path d="M489,152L428,165L416,234Z" fill="#fcba6d" stroke="#fcba6d" stroke-width="1.51"/><path d="M416,234L339,214L399,315Z" fill="#fec076" stroke="#fec076" stroke-width="1.51"/><path d="M400,53L428,165L489,152Z" fill="#f5ac5a" stroke="#f5ac5a" stroke-width="1.51"/><path d="M696,45L572,57L600,138Z" fill="#f3b477" stroke="#f3b477" stroke-width="1.51"/><path d="M1266,587L1291,474L1187,497Z" fill="#b1a9cd" stroke="#b1a9cd" stroke-width="1.51"/><path d="M1266,587L1349,588L1291,474Z" fill="#a799c6" stroke="#a799c6" stroke-width="1.51"/><path d="M1204,739L1268,666L1179,652Z" fill="#9d93c2" stroke="#9d93c2" stroke-width="1.51"/><path d="M828,935L845,1015L949,924Z" fill="#957bb3" stroke="#957bb3" stroke-width="1.51"/><path d="M949,924L1041,1004L1009,914Z" fill="#896fae" stroke="#896fae" stroke-width="1.51"/><path d="M742,1025L845,1015L828,935Z" fill="#957bac" stroke="#957bac" stroke-width="1.51"/><path d="M742,1025L759,928L673,918Z" fill="#a287b9" stroke="#a287b9" stroke-width="1.51"/><path d="M572,57L511,81L600,138Z" fill="#f4b36e" stroke="#f4b36e" stroke-width="1.51"/><path d="M1204,739L1262,772L1268,666Z" fill="#9185b9" stroke="#9185b9" stroke-width="1.51"/><path d="M1109,835L1197,846L1127,767Z" fill="#8d81b6" stroke="#8d81b6" stroke-width="1.51"/><path d="M1009,914L1097,918L1016,835Z" fill="#8f7ab5" stroke="#8f7ab5" stroke-width="1.51"/><path d="M1041,1004L1097,918L1009,914Z" fill="#8468ab" stroke="#8468ab" stroke-width="1.51"/><path d="M670,1023L742,1025L673,918Z" fill="#9e80ac" stroke="#9e80ac" stroke-width="1.51"/><path d="M427,914L513,945L490,854Z" fill="#b38296" stroke="#b38296" stroke-width="1.51"/><path d="M670,1023L673,918L585,908Z" fill="#a784ae" stroke="#a784ae" stroke-width="1.51"/><path d="M753,-35L679,-15L696,45Z" fill="#e5ab81" stroke="#e5ab81" stroke-width="1.51"/><path d="M696,45L583,-5L572,57Z" fill="#eaab73" stroke="#eaab73" stroke-width="1.51"/><path d="M941,-47L858,-9L947,81Z" fill="#d69c7e" stroke="#d69c7e" stroke-width="1.51"/><path d="M572,1027L670,1023L585,908Z" fill="#a17b9e" stroke="#a17b9e" stroke-width="1.51"/><path d="M1089,140L1123,72L1005,74Z" fill="#d4977d" stroke="#d4977d" stroke-width="1.51"/><path d="M1005,74L941,-47L947,81Z" fill="#d69a7d" stroke="#d69a7d" stroke-width="1.51"/><path d="M1181,225L1182,163L1122,244Z" fill="#d0a194" stroke="#d0a194" stroke-width="1.51"/><path d="M1266,130L1182,163L1181,225Z" fill="#c69184" stroke="#c69184" stroke-width="1.51"/><path d="M1288,335L1176,339L1262,393Z" fill="#bfa9b8" stroke="#bfa9b8" stroke-width="1.51"/><path d="M1097,918L1197,846L1109,835Z" fill="#8673af" stroke="#8673af" stroke-width="1.51"/><path d="M1358,403L1288,335L1262,393Z" fill="#b89db8" stroke="#b89db8" stroke-width="1.51"/><path d="M412,824L427,914L490,854Z" fill="#bb8b94" stroke="#bb8b94" stroke-width="1.51"/><path d="M323,686L320,771L421,758Z" fill="#d3a392" stroke="#d3a392" stroke-width="1.51"/><path d="M233,741L320,771L323,686Z" fill="#d19a86" stroke="#d19a86" stroke-width="1.51"/><path d="M326,409L261,410L334,476Z" fill="#fcca9a" stroke="#fcca9a" stroke-width="1.51"/><path d="M342,338L261,410L326,409Z" fill="#fcc78e" stroke="#fcc78e" stroke-width="1.51"/><path d="M240,310L261,410L342,338Z" fill="#f9bf80" stroke="#f9bf80" stroke-width="1.51"/><path d="M753,-35L696,45L773,41Z" fill="#e7ad84" stroke="#e7ad84" stroke-width="1.51"/><path d="M572,57L486,-39L511,81Z" fill="#e9a460" stroke="#e9a460" stroke-width="1.51"/><path d="M428,165L339,214L416,234Z" fill="#fdb967" stroke="#fdb967" stroke-width="1.51"/><path d="M345,128L339,214L428,165Z" fill="#f8ae57" stroke="#f8ae57" stroke-width="1.51"/><path d="M513,945L572,1027L585,908Z" fill="#a77c9c" stroke="#a77c9c" stroke-width="1.51"/><path d="M333,846L427,914L412,824Z" fill="#bc8689" stroke="#bc8689" stroke-width="1.51"/><path d="M845,1015L931,1032L949,924Z" fill="#8c73a9" stroke="#8c73a9" stroke-width="1.51"/><path d="M742,1025L931,1032L845,1015Z" fill="#8c73a2" stroke="#8c73a2" stroke-width="1.51"/><path d="M492,1033L931,1032L742,1025Z" fill="#957ba5" stroke="#957ba5" stroke-width="1.51"/><path d="M1197,846L1262,772L1204,739Z" fill="#887bb2" stroke="#887bb2" stroke-width="1.51"/><path d="M1268,666L1349,588L1266,587Z" fill="#9f91c1" stroke="#9f91c1" stroke-width="1.51"/><path d="M233,497L247,564L334,476Z" fill="#f2bf96" stroke="#f2bf96" stroke-width="1.51"/><path d="M858,-9L753,-35L773,41Z" fill="#dfa581" stroke="#dfa581" stroke-width="1.51"/><path d="M1182,163L1123,72L1089,140Z" fill="#ce937f" stroke="#ce937f" stroke-width="1.51"/><path d="M261,410L233,497L334,476Z" fill="#f8c698" stroke="#f8c698" stroke-width="1.51"/><path d="M931,1032L1041,1004L949,924Z" fill="#856ba5" stroke="#856ba5" stroke-width="1.51"/><path d="M1186,937L1260,841L1197,846Z" fill="#7964a6" stroke="#7964a6" stroke-width="1.51"/><path d="M679,-15L583,-5L696,45Z" fill="#e6a978" stroke="#e6a978" stroke-width="1.51"/><path d="M400,53L345,128L428,165Z" fill="#f3a54c" stroke="#f3a54c" stroke-width="1.51"/><path d="M611,-108L583,-5L679,-15Z" fill="#dc9e6f" stroke="#dc9e6f" stroke-width="1.51"/><path d="M670,1023L572,1027L742,1025Z" fill="#97779c" stroke="#97779c" stroke-width="1.51"/><path d="M492,1033L572,1027L513,945Z" fill="#a0728a" stroke="#a0728a" stroke-width="1.51"/><path d="M320,771L333,846L412,824Z" fill="#c49187" stroke="#c49187" stroke-width="1.51"/><path d="M437,1008L492,1033L513,945Z" fill="#a26e82" stroke="#a26e82" stroke-width="1.51"/><path d="M261,826L333,846L320,771Z" fill="#c1897e" stroke="#c1897e" stroke-width="1.51"/><path d="M1386,651L1349,588L1268,666Z" fill="#9784bb" stroke="#9784bb" stroke-width="1.51"/><path d="M1291,474L1358,403L1262,393Z" fill="#b5a2c4" stroke="#b5a2c4" stroke-width="1.51"/><path d="M1349,588L1360,471L1291,474Z" fill="#a896c4" stroke="#a896c4" stroke-width="1.51"/><path d="M1370,745L1386,651L1268,666Z" fill="#8e78b5" stroke="#8e78b5" stroke-width="1.51"/><path d="M1197,846L1260,841L1262,772Z" fill="#7f70ab" stroke="#7f70ab" stroke-width="1.51"/><path d="M1186,937L1197,846L1097,918Z" fill="#7d64a7" stroke="#7d64a7" stroke-width="1.51"/><path d="M1288,335L1297,240L1181,225Z" fill="#c19a9c" stroke="#c19a9c" stroke-width="1.51"/><path d="M1182,163L1208,82L1123,72Z" fill="#c68876" stroke="#c68876" stroke-width="1.51"/><path d="M1382,317L1297,240L1288,335Z" fill="#b98fa0" stroke="#b98fa0" stroke-width="1.51"/><path d="M1039,-38L941,-47L1005,74Z" fill="#cb8f77" stroke="#cb8f77" stroke-width="1.51"/><path d="M858,-9L779,-101L753,-35Z" fill="#d59d7d" stroke="#d59d7d" stroke-width="1.51"/><path d="M1360,471L1358,403L1291,474Z" fill="#b09dc7" stroke="#b09dc7" stroke-width="1.51"/><path d="M339,214L240,310L342,338Z" fill="#faba71" stroke="#faba71" stroke-width="1.51"/><path d="M261,410L164,421L233,497Z" fill="#f6be8c" stroke="#f6be8c" stroke-width="1.51"/><path d="M177,599L231,686L247,564Z" fill="#e1a785" stroke="#e1a785" stroke-width="1.51"/><path d="M247,564L231,686L323,686Z" fill="#e0a98c" stroke="#e0a98c" stroke-width="1.51"/><path d="M1109,1013L1186,937L1097,918Z" fill="#775aa0" stroke="#775aa0" stroke-width="1.51"/><path d="M339,214L233,252L240,310Z" fill="#f7b060" stroke="#f7b060" stroke-width="1.51"/><path d="M400,53L489,152L511,81Z" fill="#f3a959" stroke="#f3a959" stroke-width="1.51"/><path d="M1041,1004L1109,1013L1097,918Z" fill="#7a5e9f" stroke="#7a5e9f" stroke-width="1.51"/><path d="M931,1032L1109,1013L1041,1004Z" fill="#7a5f99" stroke="#7a5f99" stroke-width="1.51"/><path d="M437,1008L513,945L427,914Z" fill="#aa7288" stroke="#aa7288" stroke-width="1.51"/><path d="M572,1027L492,1033L742,1025Z" fill="#997391" stroke="#997391" stroke-width="1.51"/><path d="M486,-39L400,53L511,81Z" fill="#e79e53" stroke="#e79e53" stroke-width="1.51"/><path d="M352,937L437,1008L427,914Z" fill="#ab6d7d" stroke="#ab6d7d" stroke-width="1.51"/><path d="M231,686L233,741L323,686Z" fill="#d59d85" stroke="#d59d85" stroke-width="1.51"/><path d="M1108,-4L1039,-38L1005,74Z" fill="#c78b75" stroke="#c78b75" stroke-width="1.51"/><path d="M1266,130L1208,82L1182,163Z" fill="#c18576" stroke="#c18576" stroke-width="1.51"/><path d="M1108,-4L1005,74L1123,72Z" fill="#cb8d76" stroke="#cb8d76" stroke-width="1.51"/><path d="M1204,-27L1108,-4L1123,72Z" fill="#bb7c6d" stroke="#bb7c6d" stroke-width="1.51"/><path d="M352,937L427,914L333,846Z" fill="#b5777f" stroke="#b5777f" stroke-width="1.51"/><path d="M244,927L352,937L333,846Z" fill="#b16d73" stroke="#b16d73" stroke-width="1.51"/><path d="M258,128L233,252L339,214Z" fill="#f4a64c" stroke="#f4a64c" stroke-width="1.51"/><path d="M143,485L177,599L233,497Z" fill="#eab086" stroke="#eab086" stroke-width="1.51"/><path d="M233,497L177,599L247,564Z" fill="#eab28a" stroke="#eab28a" stroke-width="1.51"/><path d="M258,128L339,214L345,128Z" fill="#f3a348" stroke="#f3a348" stroke-width="1.51"/><path d="M1208,82L1204,-27L1123,72Z" fill="#bb7b6c" stroke="#bb7b6c" stroke-width="1.51"/><path d="M1297,240L1266,130L1181,225Z" fill="#c39087" stroke="#c39087" stroke-width="1.51"/><path d="M1351,165L1266,130L1297,240Z" fill="#ba7e7d" stroke="#ba7e7d" stroke-width="1.51"/><path d="M753,-35L673,-120L679,-15Z" fill="#d9a17c" stroke="#d9a17c" stroke-width="1.51"/><path d="M583,-5L486,-39L572,57Z" fill="#e4a264" stroke="#e4a264" stroke-width="1.51"/><path d="M838,-107L779,-101L858,-9Z" fill="#cd987c" stroke="#cd987c" stroke-width="1.51"/><path d="M838,-107L858,-9L920,-112Z" fill="#c9947a" stroke="#c9947a" stroke-width="1.51"/><path d="M233,741L261,826L320,771Z" fill="#c68c7c" stroke="#c68c7c" stroke-width="1.51"/><path d="M1451,474L1446,423L1360,471Z" fill="#a58abd" stroke="#a58abd" stroke-width="1.51"/><path d="M1446,423L1382,317L1358,403Z" fill="#ac88b0" stroke="#ac88b0" stroke-width="1.51"/><path d="M1370,745L1268,666L1262,772Z" fill="#8a78b3" stroke="#8a78b3" stroke-width="1.51"/><path d="M164,421L261,410L240,310Z" fill="#f6b87b" stroke="#f6b87b" stroke-width="1.51"/><path d="M231,686L146,747L233,741Z" fill="#cd8f77" stroke="#cd8f77" stroke-width="1.51"/><path d="M233,741L158,843L261,826Z" fill="#be7e6f" stroke="#be7e6f" stroke-width="1.51"/><path d="M920,-112L858,-9L941,-47Z" fill="#ca937a" stroke="#ca937a" stroke-width="1.51"/><path d="M1358,403L1382,317L1288,335Z" fill="#b392ad" stroke="#b392ad" stroke-width="1.51"/><path d="M1446,423L1358,403L1360,471Z" fill="#ab8fbd" stroke="#ab8fbd" stroke-width="1.51"/><path d="M1366,821L1370,745L1262,772Z" fill="#7c66a7" stroke="#7c66a7" stroke-width="1.51"/><path d="M1186,937L1289,930L1260,841Z" fill="#6f569e" stroke="#6f569e" stroke-width="1.51"/><path d="M1109,1013L1191,990L1186,937Z" fill="#6e5296" stroke="#6e5296" stroke-width="1.51"/><path d="M515,-94L486,-39L583,-5Z" fill="#da975c" stroke="#da975c" stroke-width="1.51"/><path d="M1366,821L1262,772L1260,841Z" fill="#7a67a6" stroke="#7a67a6" stroke-width="1.51"/><path d="M147,328L164,421L240,310Z" fill="#f1b070" stroke="#f1b070" stroke-width="1.51"/><path d="M1009,-92L941,-47L1039,-38Z" fill="#bf8774" stroke="#bf8774" stroke-width="1.51"/><path d="M1009,-92L920,-112L941,-47Z" fill="#be8975" stroke="#be8975" stroke-width="1.51"/><path d="M920,-112L673,-120L838,-107Z" fill="#c5947a" stroke="#c5947a" stroke-width="1.51"/><path d="M838,-107L673,-120L779,-101Z" fill="#c9987c" stroke="#c9987c" stroke-width="1.51"/><path d="M779,-101L673,-120L753,-35Z" fill="#d19d7d" stroke="#d19d7d" stroke-width="1.51"/><path d="M1094,-98L1009,-92L1039,-38Z" fill="#b67e70" stroke="#b67e70" stroke-width="1.51"/><path d="M1094,-98L1039,-38L1108,-4Z" fill="#b97d6f" stroke="#b97d6f" stroke-width="1.51"/><path d="M177,599L163,665L231,686Z" fill="#d99d7e" stroke="#d99d7e" stroke-width="1.51"/><path d="M79,559L163,665L177,599Z" fill="#d99f7e" stroke="#d99f7e" stroke-width="1.51"/><path d="M673,-120L611,-108L679,-15Z" fill="#d39b72" stroke="#d39b72" stroke-width="1.51"/><path d="M412,-29L346,41L400,53Z" fill="#e3933e" stroke="#e3933e" stroke-width="1.51"/><path d="M400,53L346,41L345,128Z" fill="#ec993c" stroke="#ec993c" stroke-width="1.51"/><path d="M164,421L143,485L233,497Z" fill="#f0b788" stroke="#f0b788" stroke-width="1.51"/><path d="M1266,130L1264,71L1208,82Z" fill="#ba796c" stroke="#ba796c" stroke-width="1.51"/><path d="M1352,67L1264,71L1266,130Z" fill="#b46d66" stroke="#b46d66" stroke-width="1.51"/><path d="M176,236L147,328L240,310Z" fill="#f0a95d" stroke="#f0a95d" stroke-width="1.51"/><path d="M76,398L70,476L143,485Z" fill="#e7ae84" stroke="#e7ae84" stroke-width="1.51"/><path d="M346,41L258,128L345,128Z" fill="#ec9636" stroke="#ec9636" stroke-width="1.51"/><path d="M1191,990L1289,930L1186,937Z" fill="#6a4d97" stroke="#6a4d97" stroke-width="1.51"/><path d="M352,937L347,996L437,1008Z" fill="#a66570" stroke="#a66570" stroke-width="1.51"/><path d="M437,1008L347,996L492,1033Z" fill="#9f6572" stroke="#9f6572" stroke-width="1.51"/><path d="M244,927L347,996L352,937Z" fill="#a8606b" stroke="#a8606b" stroke-width="1.51"/><path d="M244,927L333,846L261,826Z" fill="#b67472" stroke="#b67472" stroke-width="1.51"/><path d="M1370,745L1449,647L1386,651Z" fill="#876daf" stroke="#876daf" stroke-width="1.51"/><path d="M1289,930L1366,821L1260,841Z" fill="#6f559e" stroke="#6f559e" stroke-width="1.51"/><path d="M346,41L242,42L258,128Z" fill="#e48b2a" stroke="#e48b2a" stroke-width="1.51"/><path d="M486,-39L412,-29L400,53Z" fill="#e09348" stroke="#e09348" stroke-width="1.51"/><path d="M428,-97L412,-29L486,-39Z" fill="#d68c48" stroke="#d68c48" stroke-width="1.51"/><path d="M1380,217L1351,165L1297,240Z" fill="#b87c81" stroke="#b87c81" stroke-width="1.51"/><path d="M1382,317L1380,217L1297,240Z" fill="#b68190" stroke="#b68190" stroke-width="1.51"/><path d="M428,-97L515,-94L611,-108Z" fill="#cd8e58" stroke="#cd8e58" stroke-width="1.51"/><path d="M611,-108L515,-94L583,-5Z" fill="#d59764" stroke="#d59764" stroke-width="1.51"/><path d="M1382,317L1448,228L1380,217Z" fill="#b0768b" stroke="#b0768b" stroke-width="1.51"/><path d="M1451,474L1360,471L1349,588Z" fill="#a28abf" stroke="#a28abf" stroke-width="1.51"/><path d="M1451,474L1349,588L1458,601Z" fill="#997fb9" stroke="#997fb9" stroke-width="1.51"/><path d="M1458,601L1349,588L1386,651Z" fill="#9379b6" stroke="#9379b6" stroke-width="1.51"/><path d="M176,236L240,310L233,252Z" fill="#f3a957" stroke="#f3a957" stroke-width="1.51"/><path d="M164,168L176,236L233,252Z" fill="#ee9d43" stroke="#ee9d43" stroke-width="1.51"/><path d="M1467,770L1449,647L1370,745Z" fill="#7c60a5" stroke="#7c60a5" stroke-width="1.51"/><path d="M1449,647L1458,601L1386,651Z" fill="#8b71af" stroke="#8b71af" stroke-width="1.51"/><path d="M1290,-19L1204,-27L1264,71Z" fill="#ab6963" stroke="#ab6963" stroke-width="1.51"/><path d="M1264,71L1204,-27L1208,82Z" fill="#b47468" stroke="#b47468" stroke-width="1.51"/><path d="M1009,-92L1094,-98L920,-112Z" fill="#b58071" stroke="#b58071" stroke-width="1.51"/><path d="M1204,-27L1094,-98L1108,-4Z" fill="#b2756a" stroke="#b2756a" stroke-width="1.51"/><path d="M163,665L146,747L231,686Z" fill="#d09279" stroke="#d09279" stroke-width="1.51"/><path d="M55,681L146,747L163,665Z" fill="#c98b75" stroke="#c98b75" stroke-width="1.51"/><path d="M158,843L244,927L261,826Z" fill="#b36b67" stroke="#b36b67" stroke-width="1.51"/><path d="M1446,423L1459,318L1382,317Z" fill="#a980a4" stroke="#a980a4" stroke-width="1.51"/><path d="M1466,147L1352,67L1351,165Z" fill="#ab5f68" stroke="#ab5f68" stroke-width="1.51"/><path d="M1557,397L1459,318L1446,423Z" fill="#a07b9f" stroke="#a07b9f" stroke-width="1.51"/><path d="M1531,493L1446,423L1451,474Z" fill="#9d82b2" stroke="#9d82b2" stroke-width="1.51"/><path d="M428,-97L333,-26L412,-29Z" fill="#d6873c" stroke="#d6873c" stroke-width="1.51"/><path d="M412,-29L333,-26L346,41Z" fill="#dd8b37" stroke="#dd8b37" stroke-width="1.51"/><path d="M258,128L164,168L233,252Z" fill="#ed9a3b" stroke="#ed9a3b" stroke-width="1.51"/><path d="M515,-94L428,-97L486,-39Z" fill="#d18d4f" stroke="#d18d4f" stroke-width="1.51"/><path d="M673,-120L428,-97L611,-108Z" fill="#cc9263" stroke="#cc9263" stroke-width="1.51"/><path d="M143,485L79,559L177,599Z" fill="#e1a882" stroke="#e1a882" stroke-width="1.51"/><path d="M70,476L79,559L143,485Z" fill="#e1a782" stroke="#e1a782" stroke-width="1.51"/><path d="M169,40L164,168L258,128Z" fill="#e3871f" stroke="#e3871f" stroke-width="1.51"/><path d="M78,220L55,321L147,328Z" fill="#e49d57" stroke="#e49d57" stroke-width="1.51"/><path d="M76,398L143,485L164,421Z" fill="#ecb182" stroke="#ecb182" stroke-width="1.51"/><path d="M146,747L158,843L233,741Z" fill="#bf7f6e" stroke="#bf7f6e" stroke-width="1.51"/><path d="M68,768L158,843L146,747Z" fill="#b6766a" stroke="#b6766a" stroke-width="1.51"/><path d="M76,398L164,421L147,328Z" fill="#ebac74" stroke="#ebac74" stroke-width="1.51"/><path d="M1204,-27L1204,-92L1094,-98Z" fill="#a66c66" stroke="#a66c66" stroke-width="1.51"/><path d="M1351,165L1352,67L1266,130Z" fill="#b36d6c" stroke="#b36d6c" stroke-width="1.51"/><path d="M1466,147L1351,165L1380,217Z" fill="#ae6874" stroke="#ae6874" stroke-width="1.51"/><path d="M169,40L242,42L174,-47Z" fill="#d1740f" stroke="#d1740f" stroke-width="1.51"/><path d="M333,-26L242,42L346,41Z" fill="#dc862c" stroke="#dc862c" stroke-width="1.51"/><path d="M1459,318L1448,228L1382,317Z" fill="#ab7791" stroke="#ab7791" stroke-width="1.51"/><path d="M55,321L76,398L147,328Z" fill="#e5a56a" stroke="#e5a56a" stroke-width="1.51"/><path d="M1289,930L1387,942L1366,821Z" fill="#644294" stroke="#644294" stroke-width="1.51"/><path d="M1366,821L1467,770L1370,745Z" fill="#7457a0" stroke="#7457a0" stroke-width="1.51"/><path d="M1191,990L1295,1026L1289,930Z" fill="#60418b" stroke="#60418b" stroke-width="1.51"/><path d="M1109,1013L1295,1026L1191,990Z" fill="#64488a" stroke="#64488a" stroke-width="1.51"/><path d="M931,1032L1295,1026L1109,1013Z" fill="#6e5290" stroke="#6e5290" stroke-width="1.51"/><path d="M1458,601L1531,493L1451,474Z" fill="#957bae" stroke="#957bae" stroke-width="1.51"/><path d="M1541,589L1531,493L1458,601Z" fill="#8c73a6" stroke="#8c73a6" stroke-width="1.51"/><path d="M1458,826L1467,770L1366,821Z" fill="#6b4d97" stroke="#6b4d97" stroke-width="1.51"/><path d="M1352,67L1290,-19L1264,71Z" fill="#aa6361" stroke="#aa6361" stroke-width="1.51"/><path d="M1094,-98L1262,-111L920,-112Z" fill="#a9736b" stroke="#a9736b" stroke-width="1.51"/><path d="M1262,-111L1204,-92L1204,-27Z" fill="#9d6260" stroke="#9d6260" stroke-width="1.51"/><path d="M1379,993L1387,942L1289,930Z" fill="#593188" stroke="#593188" stroke-width="1.51"/><path d="M1464,904L1458,826L1366,821Z" fill="#624091" stroke="#624091" stroke-width="1.51"/><path d="M1458,601L1449,647L1542,657Z" fill="#846aa5" stroke="#846aa5" stroke-width="1.51"/><path d="M1541,589L1458,601L1542,657Z" fill="#8469a1" stroke="#8469a1" stroke-width="1.51"/><path d="M1522,154L1466,147L1448,228Z" fill="#a25e66" stroke="#a25e66" stroke-width="1.51"/><path d="M165,935L226,1001L244,927Z" fill="#a14f59" stroke="#a14f59" stroke-width="1.51"/><path d="M244,927L226,1001L347,996Z" fill="#a1565f" stroke="#a1565f" stroke-width="1.51"/><path d="M347,996L226,1001L492,1033Z" fill="#9e5d64" stroke="#9e5d64" stroke-width="1.51"/><path d="M79,559L55,681L163,665Z" fill="#d0947a" stroke="#d0947a" stroke-width="1.51"/><path d="M158,843L165,935L244,927Z" fill="#a95b5f" stroke="#a95b5f" stroke-width="1.51"/><path d="M-6,656L55,681L79,559Z" fill="#c98e77" stroke="#c98e77" stroke-width="1.51"/><path d="M82,915L165,935L158,843Z" fill="#a3565d" stroke="#a3565d" stroke-width="1.51"/><path d="M70,476L-12,505L79,559Z" fill="#daa17f" stroke="#daa17f" stroke-width="1.51"/><path d="M-17,388L-12,505L70,476Z" fill="#dba37f" stroke="#dba37f" stroke-width="1.51"/><path d="M78,220L147,328L176,236Z" fill="#e89d4f" stroke="#e89d4f" stroke-width="1.51"/><path d="M78,220L176,236L164,168Z" fill="#e7953d" stroke="#e7953d" stroke-width="1.51"/><path d="M1542,657L1449,647L1530,742Z" fill="#7a5f9b" stroke="#7a5f9b" stroke-width="1.51"/><path d="M1387,942L1464,904L1366,821Z" fill="#5e378f" stroke="#5e378f" stroke-width="1.51"/><path d="M1295,1026L1379,993L1289,930Z" fill="#583484" stroke="#583484" stroke-width="1.51"/><path d="M55,681L68,768L146,747Z" fill="#bd7f6f" stroke="#bd7f6f" stroke-width="1.51"/><path d="M65,136L78,220L164,168Z" fill="#de8931" stroke="#de8931" stroke-width="1.51"/><path d="M1530,742L1449,647L1467,770Z" fill="#765a9b" stroke="#765a9b" stroke-width="1.51"/><path d="M1530,742L1467,770L1533,843Z" fill="#65498c" stroke="#65498c" stroke-width="1.51"/><path d="M1542,229L1448,228L1459,318Z" fill="#a46c7e" stroke="#a46c7e" stroke-width="1.51"/><path d="M1448,228L1466,147L1380,217Z" fill="#ab6775" stroke="#ab6775" stroke-width="1.51"/><path d="M1355,-40L1262,-111L1290,-19Z" fill="#98535a" stroke="#98535a" stroke-width="1.51"/><path d="M242,42L169,40L258,128Z" fill="#df821a" stroke="#df821a" stroke-width="1.51"/><path d="M244,-47L242,42L333,-26Z" fill="#d57c23" stroke="#d57c23" stroke-width="1.51"/><path d="M1533,843L1467,770L1458,826Z" fill="#62458c" stroke="#62458c" stroke-width="1.51"/><path d="M1542,657L1557,397L1541,589Z" fill="#8970a0" stroke="#8970a0" stroke-width="1.51"/><path d="M1541,589L1557,397L1531,493Z" fill="#9077a4" stroke="#9077a4" stroke-width="1.51"/><path d="M1531,493L1557,397L1446,423Z" fill="#9a7ea9" stroke="#9a7ea9" stroke-width="1.51"/><path d="M310,-108L244,-47L333,-26Z" fill="#cc7727" stroke="#cc7727" stroke-width="1.51"/><path d="M428,-97L310,-108L333,-26Z" fill="#cd7f33" stroke="#cd7f33" stroke-width="1.51"/><path d="M673,-120L310,-108L428,-97Z" fill="#ca884d" stroke="#ca884d" stroke-width="1.51"/><path d="M1290,-19L1262,-111L1204,-27Z" fill="#9f5f5f" stroke="#9f5f5f" stroke-width="1.51"/><path d="M1204,-92L1262,-111L1094,-98Z" fill="#9d6562" stroke="#9d6562" stroke-width="1.51"/><path d="M920,-112L1453,-129L673,-120Z" fill="#af7c70" stroke="#af7c70" stroke-width="1.51"/><path d="M1355,-40L1290,-19L1352,67Z" fill="#9f565c" stroke="#9f565c" stroke-width="1.51"/><path d="M1434,1010L1464,904L1387,942Z" fill="#4f2280" stroke="#4f2280" stroke-width="1.51"/><path d="M79,990L171,1001L165,935Z" fill="#93434e" stroke="#93434e" stroke-width="1.51"/><path d="M165,935L171,1001L226,1001Z" fill="#994850" stroke="#994850" stroke-width="1.51"/><path d="M226,1001L171,1001L492,1033Z" fill="#9a5359" stroke="#9a5359" stroke-width="1.51"/><path d="M1452,46L1355,-40L1352,67Z" fill="#9c4d59" stroke="#9c4d59" stroke-width="1.51"/><path d="M1557,397L1558,320L1459,318Z" fill="#9c7490" stroke="#9c7490" stroke-width="1.51"/><path d="M-17,388L70,476L76,398Z" fill="#e1a479" stroke="#e1a479" stroke-width="1.51"/><path d="M4,752L57,844L68,768Z" fill="#ac6c65" stroke="#ac6c65" stroke-width="1.51"/><path d="M-17,388L76,398L55,321Z" fill="#dfa06c" stroke="#dfa06c" stroke-width="1.51"/><path d="M68,768L57,844L158,843Z" fill="#ac6b64" stroke="#ac6b64" stroke-width="1.51"/><path d="M4,752L68,768L55,681Z" fill="#b7796c" stroke="#b7796c" stroke-width="1.51"/><path d="M1558,320L1542,229L1459,318Z" fill="#9e6d80" stroke="#9e6d80" stroke-width="1.51"/><path d="M1466,147L1452,46L1352,67Z" fill="#a3505a" stroke="#a3505a" stroke-width="1.51"/><path d="M-28,590L-6,656L79,559Z" fill="#ca9178" stroke="#ca9178" stroke-width="1.51"/><path d="M1541,70L1452,46L1466,147Z" fill="#99494f" stroke="#99494f" stroke-width="1.51"/><path d="M310,-108L256,-103L244,-47Z" fill="#c47020" stroke="#c47020" stroke-width="1.51"/><path d="M244,-47L174,-47L242,42Z" fill="#ce7314" stroke="#ce7314" stroke-width="1.51"/><path d="M57,844L82,915L158,843Z" fill="#a45b5e" stroke="#a45b5e" stroke-width="1.51"/><path d="M-12,505L-28,590L79,559Z" fill="#d0997b" stroke="#d0997b" stroke-width="1.51"/><path d="M-36,338L-17,388L55,321Z" fill="#d89a66" stroke="#d89a66" stroke-width="1.51"/><path d="M-36,338L55,321L-22,216Z" fill="#d79254" stroke="#d79254" stroke-width="1.51"/><path d="M169,40L65,136L164,168Z" fill="#db7f1d" stroke="#db7f1d" stroke-width="1.51"/><path d="M73,46L65,136L169,40Z" fill="#d0730f" stroke="#d0730f" stroke-width="1.51"/><path d="M1542,657L1561,992L1557,397Z" fill="#745a93" stroke="#745a93" stroke-width="1.51"/><path d="M1530,742L1533,843L1542,657Z" fill="#6a4e8d" stroke="#6a4e8d" stroke-width="1.51"/><path d="M1464,904L1533,843L1458,826Z" fill="#5a3786" stroke="#5a3786" stroke-width="1.51"/><path d="M1527,905L1533,843L1464,904Z" fill="#532d7e" stroke="#532d7e" stroke-width="1.51"/><path d="M1379,993L1434,1010L1387,942Z" fill="#4d227c" stroke="#4d227c" stroke-width="1.51"/><path d="M1295,1026L1434,1010L1379,993Z" fill="#4d2579" stroke="#4d2579" stroke-width="1.51"/><path d="M1542,229L1522,154L1448,228Z" fill="#a16169" stroke="#a16169" stroke-width="1.51"/><path d="M-95,560L-28,590L-12,505Z" fill="#c6937a" stroke="#c6937a" stroke-width="1.51"/><path d="M-24,906L79,990L82,915Z" fill="#903e52" stroke="#903e52" stroke-width="1.51"/><path d="M-6,656L4,752L55,681Z" fill="#bb7f70" stroke="#bb7f70" stroke-width="1.51"/><path d="M-99,766L4,752L-6,656Z" fill="#ad736b" stroke="#ad736b" stroke-width="1.51"/><path d="M256,-103L174,-47L244,-47Z" fill="#c46c15" stroke="#c46c15" stroke-width="1.51"/><path d="M1561,992L1527,905L1464,904Z" fill="#481b75" stroke="#481b75" stroke-width="1.51"/><path d="M-113,409L-95,508L-12,505Z" fill="#cb997c" stroke="#cb997c" stroke-width="1.51"/><path d="M-22,216L55,321L78,220Z" fill="#dc9048" stroke="#dc9048" stroke-width="1.51"/><path d="M1452,46L1439,-35L1355,-40Z" fill="#924053" stroke="#924053" stroke-width="1.51"/><path d="M1355,-40L1387,-106L1262,-111Z" fill="#8d4856" stroke="#8d4856" stroke-width="1.51"/><path d="M1559,-21L1439,-35L1452,46Z" fill="#893a48" stroke="#893a48" stroke-width="1.51"/><path d="M65,136L-22,216L78,220Z" fill="#d88533" stroke="#d88533" stroke-width="1.51"/><path d="M73,-14L73,46L169,40Z" fill="#c86b0c" stroke="#c86b0c" stroke-width="1.51"/><path d="M-5,857L82,915L57,844Z" fill="#9c535a" stroke="#9c535a" stroke-width="1.51"/><path d="M82,915L79,990L165,935Z" fill="#964453" stroke="#964453" stroke-width="1.51"/><path d="M1439,-35L1387,-106L1355,-40Z" fill="#8b3e52" stroke="#8b3e52" stroke-width="1.51"/><path d="M-20,128L-22,216L65,136Z" fill="#cf7b29" stroke="#cf7b29" stroke-width="1.51"/><path d="M4,752L-5,857L57,844Z" fill="#a26260" stroke="#a26260" stroke-width="1.51"/><path d="M-24,906L-5,857L-92,817Z" fill="#925059" stroke="#925059" stroke-width="1.51"/><path d="M1439,-35L1453,-129L1387,-106Z" fill="#80354c" stroke="#80354c" stroke-width="1.51"/><path d="M1522,154L1541,70L1466,147Z" fill="#994e54" stroke="#994e54" stroke-width="1.51"/><path d="M1542,229L1541,70L1522,154Z" fill="#985156" stroke="#985156" stroke-width="1.51"/><path d="M1559,-21L1541,70L1542,229Z" fill="#904346" stroke="#904346" stroke-width="1.51"/><path d="M-113,409L-12,505L-17,388Z" fill="#d29d79" stroke="#d29d79" stroke-width="1.51"/><path d="M-28,590L-123,676L-6,656Z" fill="#b88373" stroke="#b88373" stroke-width="1.51"/><path d="M-113,409L-17,388L-36,338Z" fill="#d0976b" stroke="#d0976b" stroke-width="1.51"/><path d="M-95,508L-95,560L-12,505Z" fill="#c6947a" stroke="#c6947a" stroke-width="1.51"/><path d="M51,-98L73,-14L174,-47Z" fill="#b85e09" stroke="#b85e09" stroke-width="1.51"/><path d="M174,-47L73,-14L169,40Z" fill="#c66a0c" stroke="#c66a0c" stroke-width="1.51"/><path d="M73,46L-20,128L65,136Z" fill="#cd7215" stroke="#cd7215" stroke-width="1.51"/><path d="M256,-103L156,-120L174,-47Z" fill="#bb650d" stroke="#bb650d" stroke-width="1.51"/><path d="M310,-108L156,-120L256,-103Z" fill="#bc6919" stroke="#bc6919" stroke-width="1.51"/><path d="M673,-120L156,-120L310,-108Z" fill="#c67d37" stroke="#c67d37" stroke-width="1.51"/><path d="M-31,61L-20,128L73,46Z" fill="#c4690c" stroke="#c4690c" stroke-width="1.51"/><path d="M-117,301L-113,409L-36,338Z" fill="#ca9163" stroke="#ca9163" stroke-width="1.51"/><path d="M-5,857L-24,906L82,915Z" fill="#954a57" stroke="#954a57" stroke-width="1.51"/><path d="M-92,817L-5,857L4,752Z" fill="#9d615f" stroke="#9d615f" stroke-width="1.51"/><path d="M-95,508L-123,676L-95,560Z" fill="#b98976" stroke="#b98976" stroke-width="1.51"/><path d="M-117,301L-36,338L-22,216Z" fill="#cd8b51" stroke="#cd8b51" stroke-width="1.51"/><path d="M1434,1010L1561,992L1464,904Z" fill="#461971" stroke="#461971" stroke-width="1.51"/><path d="M1527,905L1561,992L1533,843Z" fill="#492074" stroke="#492074" stroke-width="1.51"/><path d="M1533,843L1561,992L1542,657Z" fill="#58397f" stroke="#58397f" stroke-width="1.51"/><path d="M1557,397L1561,992L1558,320Z" fill="#856c9d" stroke="#856c9d" stroke-width="1.51"/><path d="M-123,676L-99,766L-6,656Z" fill="#ab756d" stroke="#ab756d" stroke-width="1.51"/><path d="M-123,676L-28,590L-95,560Z" fill="#b88674" stroke="#b88674" stroke-width="1.51"/><path d="M1524,-101L1453,-129L1439,-35Z" fill="#7a3045" stroke="#7a3045" stroke-width="1.51"/><path d="M1387,-106L1453,-129L1262,-111Z" fill="#833e52" stroke="#833e52" stroke-width="1.51"/><path d="M1262,-111L1453,-129L920,-112Z" fill="#965f5f" stroke="#965f5f" stroke-width="1.51"/><path d="M673,-120L-2,-122L156,-120Z" fill="#bc6d21" stroke="#bc6d21" stroke-width="1.51"/><path d="M-113,409L-123,676L-95,508Z" fill="#be8f78" stroke="#be8f78" stroke-width="1.51"/><path d="M-113,409L-122,249L-123,676Z" fill="#c6977a" stroke="#c6977a" stroke-width="1.51"/><path d="M-122,249L-117,301L-22,216Z" fill="#c88446" stroke="#c88446" stroke-width="1.51"/><path d="M-97,909L-92,817L-99,766Z" fill="#8e555b" stroke="#8e555b" stroke-width="1.51"/><path d="M-99,766L-92,817L4,752Z" fill="#9d6562" stroke="#9d6562" stroke-width="1.51"/><path d="M-111,149L-122,249L-22,216Z" fill="#c67c35" stroke="#c67c35" stroke-width="1.51"/><path d="M-1,-21L-31,61L73,46Z" fill="#bc6109" stroke="#bc6109" stroke-width="1.51"/><path d="M-1,-21L73,46L73,-14Z" fill="#bc6108" stroke="#bc6108" stroke-width="1.51"/><path d="M1541,70L1559,-21L1452,46Z" fill="#8b3c45" stroke="#8b3c45" stroke-width="1.51"/><path d="M1558,320L1559,-21L1542,229Z" fill="#985559" stroke="#985559" stroke-width="1.51"/><path d="M1561,992L1559,-21L1558,320Z" fill="#94779d" stroke="#94779d" stroke-width="1.51"/><path d="M-117,301L-122,249L-113,409Z" fill="#c58b5a" stroke="#c58b5a" stroke-width="1.51"/><path d="M-111,149L-22,216L-20,128Z" fill="#c77629" stroke="#c77629" stroke-width="1.51"/><path d="M-112,73L-111,149L-20,128Z" fill="#bc6919" stroke="#bc6919" stroke-width="1.51"/><path d="M51,-98L-1,-21L73,-14Z" fill="#b25806" stroke="#b25806" stroke-width="1.51"/><path d="M156,-120L51,-98L174,-47Z" fill="#b35d0a" stroke="#b35d0a" stroke-width="1.51"/><path d="M1559,-21L1524,-101L1439,-35Z" fill="#7d3041" stroke="#7d3041" stroke-width="1.51"/><path d="M-97,909L-31,1014L-24,906Z" fill="#81354d" stroke="#81354d" stroke-width="1.51"/><path d="M-24,906L-31,1014L79,990Z" fill="#843549" stroke="#843549" stroke-width="1.51"/><path d="M79,990L-31,1014L171,1001Z" fill="#863844" stroke="#863844" stroke-width="1.51"/><path d="M171,1001L-108,1030L492,1033Z" fill="#904145" stroke="#904145" stroke-width="1.51"/><path d="M-112,73L-20,128L-31,61Z" fill="#bc660e" stroke="#bc660e" stroke-width="1.51"/><path d="M-92,817L-97,909L-24,906Z" fill="#8a4856" stroke="#8a4856" stroke-width="1.51"/><path d="M-123,676L-97,909L-99,766Z" fill="#956060" stroke="#956060" stroke-width="1.51"/><path d="M-119,-30L-112,73L-31,61Z" fill="#ae5a0b" stroke="#ae5a0b" stroke-width="1.51"/><path d="M-111,149L-112,73L-122,249Z" fill="#bb6f26" stroke="#bb6f26" stroke-width="1.51"/><path d="M-119,-30L-31,61L-1,-21Z" fill="#ae5708" stroke="#ae5708" stroke-width="1.51"/><path d="M51,-98L-2,-122L-1,-21Z" fill="#a75107" stroke="#a75107" stroke-width="1.51"/><path d="M156,-120L-2,-122L51,-98Z" fill="#a65309" stroke="#a65309" stroke-width="1.51"/><path d="M1453,-129L-2,-122L673,-120Z" fill="#c9987a" stroke="#c9987a" stroke-width="1.51"/><path d="M-97,909L-108,1030L-31,1014Z" fill="#742d43" stroke="#742d43" stroke-width="1.51"/><path d="M-31,1014L-108,1030L171,1001Z" fill="#7b2f3e" stroke="#7b2f3e" stroke-width="1.51"/><path d="M-123,676L-108,1030L-97,909Z" fill="#854755" stroke="#854755" stroke-width="1.51"/><path d="M-81,-100L-119,-30L-1,-21Z" fill="#a14e08" stroke="#a14e08" stroke-width="1.51"/><path d="M-112,73L-119,-30L-122,249Z" fill="#b46212" stroke="#b46212" stroke-width="1.51"/><path d="M-2,-122L-81,-100L-1,-21Z" fill="#a04d07" stroke="#a04d07" stroke-width="1.51"/></svg>