<svg xmlns="http://www.w3.org/2000/svg" width="1440" height="900"><path d="M751,474L768,559L829,481Z" fill="#f88153" stroke="#f88153" stroke-width="1.51"/><path d="M768,559L853,595L829,481Z" fill="#f5784f" stroke="#f5784f" stroke-width="1.51"/><path d="M751,474L667,514L768,559Z" fill="#fa8455" stroke="#fa8455" stroke-width="1.51"/><path d="M829,481L755,394L751,474Z" fill="#fb8856" stroke="#fb8856" stroke-width="1.51"/><path d="M751,474L686,388L667,514Z" fill="#fc8e5a" stroke="#fc8e5a" stroke-width="1.51"/><path d="M768,559L776,644L853,595Z" fill="#f3734d" stroke="#f3734d" stroke-width="1.51"/><path d="M670,598L776,644L768,559Z" fill="#f57850" stroke="#f57850" stroke-width="1.51"/><path d="M829,481L871,403L755,394Z" fill="#fa8858" stroke="#fa8858" stroke-width="1.51"/><path d="M932,481L871,403L829,481Z" fill="#f87e52" stroke="#f87e52" stroke-width="1.51"/><path d="M667,514L670,598L768,559Z" fill="#f88155" stroke="#f88155" stroke-width="1.51"/><path d="M853,595L932,481L829,481Z" fill="#f5764f" stroke="#f5764f" stroke-width="1.51"/><path d="M755,394L686,388L751,474Z" fill="#fc915d" stroke="#fc915d" stroke-width="1.51"/><path d="M680,332L686,388L755,394Z" fill="#fd9b65" stroke="#fd9b65" stroke-width="1.51"/><path d="M776,644L854,662L853,595Z" fill="#f06b47" stroke="#f06b47" stroke-width="1.51"/><path d="M853,595L953,578L932,481Z" fill="#f26f4c" stroke="#f26f4c" stroke-width="1.51"/><path d="M933,684L953,578L853,595Z" fill="#ee6446" stroke="#ee6446" stroke-width="1.51"/><path d="M670,598L675,651L776,644Z" fill="#f3774e" stroke="#f3774e" stroke-width="1.51"/><path d="M776,644L851,750L854,662Z" fill="#ec6340" stroke="#ec6340" stroke-width="1.51"/><path d="M932,481L952,422L871,403Z" fill="#f67e53" stroke="#f67e53" stroke-width="1.51"/><path d="M1025,477L952,422L932,481Z" fill="#f3754d" stroke="#f3754d" stroke-width="1.51"/><path d="M850,304L766,315L755,394Z" fill="#fb9866" stroke="#fb9866" stroke-width="1.51"/><path d="M850,304L755,394L871,403Z" fill="#fa9160" stroke="#fa9160" stroke-width="1.51"/><path d="M670,598L597,590L675,651Z" fill="#f68056" stroke="#f68056" stroke-width="1.51"/><path d="M667,514L597,590L670,598Z" fill="#f8865a" stroke="#f8865a" stroke-width="1.51"/><path d="M574,482L597,590L667,514Z" fill="#f98f5f" stroke="#f98f5f" stroke-width="1.51"/><path d="M569,421L574,482L667,514Z" fill="#fc9763" stroke="#fc9763" stroke-width="1.51"/><path d="M766,315L680,332L755,394Z" fill="#fc9c67" stroke="#fc9c67" stroke-width="1.51"/><path d="M569,421L667,514L686,388Z" fill="#fd9762" stroke="#fd9762" stroke-width="1.51"/><path d="M944,337L850,304L871,403Z" fill="#f88e61" stroke="#f88e61" stroke-width="1.51"/><path d="M854,662L933,684L853,595Z" fill="#ee6444" stroke="#ee6444" stroke-width="1.51"/><path d="M851,750L933,684L854,662Z" fill="#ea5b3d" stroke="#ea5b3d" stroke-width="1.51"/><path d="M953,578L1025,477L932,481Z" fill="#f16e4a" stroke="#f16e4a" stroke-width="1.51"/><path d="M933,684L1006,582L953,578Z" fill="#ed6043" stroke="#ed6043" stroke-width="1.51"/><path d="M952,422L944,337L871,403Z" fill="#f7855a" stroke="#f7855a" stroke-width="1.51"/><path d="M1042,399L944,337L952,422Z" fill="#f48055" stroke="#f48055" stroke-width="1.51"/><path d="M610,314L569,421L686,388Z" fill="#fda36d" stroke="#fda36d" stroke-width="1.51"/><path d="M1006,582L1025,477L953,578Z" fill="#ef6645" stroke="#ef6645" stroke-width="1.51"/><path d="M675,651L743,751L776,644Z" fill="#f06d45" stroke="#f06d45" stroke-width="1.51"/><path d="M664,771L743,751L675,651Z" fill="#ed6b42" stroke="#ed6b42" stroke-width="1.51"/><path d="M743,751L851,750L776,644Z" fill="#eb623e" stroke="#eb623e" stroke-width="1.51"/><path d="M597,590L572,660L675,651Z" fill="#f48156" stroke="#f48156" stroke-width="1.51"/><path d="M515,587L572,660L597,590Z" fill="#f68a5e" stroke="#f68a5e" stroke-width="1.51"/><path d="M515,587L597,590L574,482Z" fill="#f99162" stroke="#f99162" stroke-width="1.51"/><path d="M680,332L610,314L686,388Z" fill="#fda46e" stroke="#fda46e" stroke-width="1.51"/><path d="M693,225L610,314L680,332Z" fill="#fdab75" stroke="#fdab75" stroke-width="1.51"/><path d="M693,225L680,332L766,315Z" fill="#fda66f" stroke="#fda66f" stroke-width="1.51"/><path d="M850,304L837,249L766,315Z" fill="#fb9d6b" stroke="#fb9d6b" stroke-width="1.51"/><path d="M927,213L837,249L850,304Z" fill="#fa9b6b" stroke="#fa9b6b" stroke-width="1.51"/><path d="M837,249L776,243L766,315Z" fill="#fca16e" stroke="#fca16e" stroke-width="1.51"/><path d="M1025,477L1042,399L952,422Z" fill="#f2754c" stroke="#f2754c" stroke-width="1.51"/><path d="M944,337L927,213L850,304Z" fill="#f99567" stroke="#f99567" stroke-width="1.51"/><path d="M1088,475L1042,399L1025,477Z" fill="#f06e45" stroke="#f06e45" stroke-width="1.51"/><path d="M500,484L515,587L574,482Z" fill="#fa9a68" stroke="#fa9a68" stroke-width="1.51"/><path d="M582,751L664,771L675,651Z" fill="#ee7147" stroke="#ee7147" stroke-width="1.51"/><path d="M743,751L742,823L851,750Z" fill="#e65b37" stroke="#e65b37" stroke-width="1.51"/><path d="M569,421L500,484L574,482Z" fill="#fd9e69" stroke="#fd9e69" stroke-width="1.51"/><path d="M490,414L500,484L569,421Z" fill="#fda46e" stroke="#fda46e" stroke-width="1.51"/><path d="M933,684L1037,662L1006,582Z" fill="#e9593d" stroke="#e9593d" stroke-width="1.51"/><path d="M1006,582L1088,475L1025,477Z" fill="#ee6643" stroke="#ee6643" stroke-width="1.51"/><path d="M1035,735L1037,662L933,684Z" fill="#e54f35" stroke="#e54f35" stroke-width="1.51"/><path d="M851,750L940,765L933,684Z" fill="#e65337" stroke="#e65337" stroke-width="1.51"/><path d="M916,824L940,765L851,750Z" fill="#e14e32" stroke="#e14e32" stroke-width="1.51"/><path d="M762,154L693,225L776,243Z" fill="#feaa75" stroke="#feaa75" stroke-width="1.51"/><path d="M776,243L693,225L766,315Z" fill="#fda670" stroke="#fda670" stroke-width="1.51"/><path d="M1127,579L1088,475L1006,582Z" fill="#ea5e3e" stroke="#ea5e3e" stroke-width="1.51"/><path d="M511,333L490,414L569,421Z" fill="#fdac75" stroke="#fdac75" stroke-width="1.51"/><path d="M511,333L569,421L610,314Z" fill="#fdad76" stroke="#fdad76" stroke-width="1.51"/><path d="M664,771L742,823L743,751Z" fill="#e76139" stroke="#e76139" stroke-width="1.51"/><path d="M664,771L688,860L742,823Z" fill="#e36037" stroke="#e36037" stroke-width="1.51"/><path d="M572,660L582,751L675,651Z" fill="#f17a4f" stroke="#f17a4f" stroke-width="1.51"/><path d="M522,756L582,751L572,660Z" fill="#ef7b4f" stroke="#ef7b4f" stroke-width="1.51"/><path d="M742,823L847,831L851,750Z" fill="#e25533" stroke="#e25533" stroke-width="1.51"/><path d="M1042,399L1043,307L944,337Z" fill="#f48357" stroke="#f48357" stroke-width="1.51"/><path d="M1124,327L1043,307L1042,399Z" fill="#f07d52" stroke="#f07d52" stroke-width="1.51"/><path d="M519,248L511,333L610,314Z" fill="#fdb77f" stroke="#fdb77f" stroke-width="1.51"/><path d="M1009,213L927,213L944,337Z" fill="#f79366" stroke="#f79366" stroke-width="1.51"/><path d="M837,249L762,154L776,243Z" fill="#fca572" stroke="#fca572" stroke-width="1.51"/><path d="M693,225L596,237L610,314Z" fill="#fdb17a" stroke="#fdb17a" stroke-width="1.51"/><path d="M1037,662L1127,579L1006,582Z" fill="#e8573b" stroke="#e8573b" stroke-width="1.51"/><path d="M940,765L1035,735L933,684Z" fill="#e34d34" stroke="#e34d34" stroke-width="1.51"/><path d="M1016,835L1035,735L940,765Z" fill="#dd432b" stroke="#dd432b" stroke-width="1.51"/><path d="M847,831L916,824L851,750Z" fill="#e04f31" stroke="#e04f31" stroke-width="1.51"/><path d="M515,587L495,684L572,660Z" fill="#f5895d" stroke="#f5895d" stroke-width="1.51"/><path d="M438,565L495,684L515,587Z" fill="#f79165" stroke="#f79165" stroke-width="1.51"/><path d="M438,565L515,587L500,484Z" fill="#fa9a69" stroke="#fa9a69" stroke-width="1.51"/><path d="M1088,475L1110,402L1042,399Z" fill="#ef6f46" stroke="#ef6f46" stroke-width="1.51"/><path d="M1187,497L1110,402L1088,475Z" fill="#eb643d" stroke="#eb643d" stroke-width="1.51"/><path d="M1108,680L1127,579L1037,662Z" fill="#e44d34" stroke="#e44d34" stroke-width="1.51"/><path d="M397,507L438,565L500,484Z" fill="#fb9f6d" stroke="#fb9f6d" stroke-width="1.51"/><path d="M430,405L500,484L490,414Z" fill="#fda972" stroke="#fda972" stroke-width="1.51"/><path d="M693,225L668,159L596,237Z" fill="#feb37d" stroke="#feb37d" stroke-width="1.51"/><path d="M861,137L762,154L837,249Z" fill="#fca674" stroke="#fca674" stroke-width="1.51"/><path d="M585,823L688,860L664,771Z" fill="#e4663c" stroke="#e4663c" stroke-width="1.51"/><path d="M495,684L522,756L572,660Z" fill="#f18155" stroke="#f18155" stroke-width="1.51"/><path d="M421,758L522,756L495,684Z" fill="#ef8154" stroke="#ef8154" stroke-width="1.51"/><path d="M742,823L759,928L847,831Z" fill="#db532f" stroke="#db532f" stroke-width="1.51"/><path d="M949,924L1016,835L916,824Z" fill="#d53f27" stroke="#d53f27" stroke-width="1.51"/><path d="M585,823L664,771L582,751Z" fill="#e96e43" stroke="#e96e43" stroke-width="1.51"/><path d="M1035,735L1108,680L1037,662Z" fill="#e2482f" stroke="#e2482f" stroke-width="1.51"/><path d="M762,154L668,159L693,225Z" fill="#feb079" stroke="#feb079" stroke-width="1.51"/><path d="M1043,307L1009,213L944,337Z" fill="#f58c60" stroke="#f58c60" stroke-width="1.51"/><path d="M927,213L861,137L837,249Z" fill="#fa9f70" stroke="#fa9f70" stroke-width="1.51"/><path d="M1122,244L1009,213L1043,307Z" fill="#f3895d" stroke="#f3895d" stroke-width="1.51"/><path d="M522,756L585,823L582,751Z" fill="#ea7448" stroke="#ea7448" stroke-width="1.51"/><path d="M511,333L430,405L490,414Z" fill="#fdb079" stroke="#fdb079" stroke-width="1.51"/><path d="M399,315L430,405L511,333Z" fill="#fdb780" stroke="#fdb780" stroke-width="1.51"/><path d="M519,248L610,314L596,237Z" fill="#fdb680" stroke="#fdb680" stroke-width="1.51"/><path d="M489,152L519,248L596,237Z" fill="#fdbf88" stroke="#fdbf88" stroke-width="1.51"/><path d="M952,162L861,137L927,213Z" fill="#f99e71" stroke="#f99e71" stroke-width="1.51"/><path d="M696,45L600,138L668,159Z" fill="#ffba86" stroke="#ffba86" stroke-width="1.51"/><path d="M1176,339L1124,327L1110,402Z" fill="#ed754a" stroke="#ed754a" stroke-width="1.51"/><path d="M1110,402L1124,327L1042,399Z" fill="#ef764b" stroke="#ef764b" stroke-width="1.51"/><path d="M1009,213L952,162L927,213Z" fill="#f8986b" stroke="#f8986b" stroke-width="1.51"/><path d="M430,405L397,507L500,484Z" fill="#fda671" stroke="#fda671" stroke-width="1.51"/><path d="M438,565L407,681L495,684Z" fill="#f69063" stroke="#f69063" stroke-width="1.51"/><path d="M1035,735L1127,767L1108,680Z" fill="#dd3e29" stroke="#dd3e29" stroke-width="1.51"/><path d="M916,824L1016,835L940,765Z" fill="#dc452c" stroke="#dc452c" stroke-width="1.51"/><path d="M949,924L916,824L847,831Z" fill="#d8462a" stroke="#d8462a" stroke-width="1.51"/><path d="M1127,579L1187,497L1088,475Z" fill="#e85b39" stroke="#e85b39" stroke-width="1.51"/><path d="M1192,579L1187,497L1127,579Z" fill="#e45335" stroke="#e45335" stroke-width="1.51"/><path d="M1179,652L1192,579L1127,579Z" fill="#e24b32" stroke="#e24b32" stroke-width="1.51"/><path d="M1179,652L1127,579L1108,680Z" fill="#e24830" stroke="#e24830" stroke-width="1.51"/><path d="M339,560L407,681L438,565Z" fill="#f9986b" stroke="#f9986b" stroke-width="1.51"/><path d="M522,756L490,854L585,823Z" fill="#e67447" stroke="#e67447" stroke-width="1.51"/><path d="M1204,739L1179,652L1108,680Z" fill="#db3c27" stroke="#db3c27" stroke-width="1.51"/><path d="M696,45L668,159L762,154Z" fill="#ffb480" stroke="#ffb480" stroke-width="1.51"/><path d="M668,159L600,138L596,237Z" fill="#feb982" stroke="#feb982" stroke-width="1.51"/><path d="M688,860L759,928L742,823Z" fill="#dc572f" stroke="#dc572f" stroke-width="1.51"/><path d="M673,918L759,928L688,860Z" fill="#d9572e" stroke="#d9572e" stroke-width="1.51"/><path d="M585,908L688,860L585,823Z" fill="#df653a" stroke="#df653a" stroke-width="1.51"/><path d="M585,908L673,918L688,860Z" fill="#db5f34" stroke="#db5f34" stroke-width="1.51"/><path d="M1209,413L1176,339L1110,402Z" fill="#eb6d43" stroke="#eb6d43" stroke-width="1.51"/><path d="M1124,327L1122,244L1043,307Z" fill="#f08256" stroke="#f08256" stroke-width="1.51"/><path d="M1009,213L1020,134L952,162Z" fill="#f7976a" stroke="#f7976a" stroke-width="1.51"/><path d="M1109,835L1127,767L1035,735Z" fill="#d83623" stroke="#d83623" stroke-width="1.51"/><path d="M759,928L828,935L847,831Z" fill="#d64d2a" stroke="#d64d2a" stroke-width="1.51"/><path d="M1176,339L1122,244L1124,327Z" fill="#ee7d50" stroke="#ee7d50" stroke-width="1.51"/><path d="M1262,393L1209,413L1291,474Z" fill="#e36138" stroke="#e36138" stroke-width="1.51"/><path d="M1187,497L1209,413L1110,402Z" fill="#e9643c" stroke="#e9643c" stroke-width="1.51"/><path d="M416,234L511,333L519,248Z" fill="#fdbf88" stroke="#fdbf88" stroke-width="1.51"/><path d="M416,234L399,315L511,333Z" fill="#fdbf88" stroke="#fdbf88" stroke-width="1.51"/><path d="M430,405L334,476L397,507Z" fill="#fdaa75" stroke="#fdaa75" stroke-width="1.51"/><path d="M407,681L421,758L495,684Z" fill="#f1865a" stroke="#f1865a" stroke-width="1.51"/><path d="M952,162L947,81L861,137Z" fill="#faa175" stroke="#faa175" stroke-width="1.51"/><path d="M861,137L832,54L762,154Z" fill="#fcab7b" stroke="#fcab7b" stroke-width="1.51"/><path d="M1089,140L1020,134L1009,213Z" fill="#f59466" stroke="#f59466" stroke-width="1.51"/><path d="M828,935L949,924L847,831Z" fill="#d54628" stroke="#d54628" stroke-width="1.51"/><path d="M1016,835L1109,835L1035,735Z" fill="#d73924" stroke="#d73924" stroke-width="1.51"/><path d="M490,854L585,908L585,823Z" fill="#e06d41" stroke="#e06d41" stroke-width="1.51"/><path d="M742,1025L828,935L759,928Z" fill="#cc4d2a" stroke="#cc4d2a" stroke-width="1.51"/><path d="M397,507L339,560L438,565Z" fill="#fba06f" stroke="#fba06f" stroke-width="1.51"/><path d="M320,771L412,824L421,758Z" fill="#eb8153" stroke="#eb8153" stroke-width="1.51"/><path d="M334,476L339,560L397,507Z" fill="#fca573" stroke="#fca573" stroke-width="1.51"/><path d="M421,758L490,854L522,756Z" fill="#ea7a4e" stroke="#ea7a4e" stroke-width="1.51"/><path d="M326,409L334,476L430,405Z" fill="#feaf7a" stroke="#feaf7a" stroke-width="1.51"/><path d="M1097,918L1109,835L1016,835Z" fill="#cf2f1c" stroke="#cf2f1c" stroke-width="1.51"/><path d="M1127,767L1204,739L1108,680Z" fill="#da3623" stroke="#da3623" stroke-width="1.51"/><path d="M1020,134L947,81L952,162Z" fill="#f89d71" stroke="#f89d71" stroke-width="1.51"/><path d="M947,81L832,54L861,137Z" fill="#fca77c" stroke="#fca77c" stroke-width="1.51"/><path d="M949,924L1009,914L1016,835Z" fill="#d03821" stroke="#d03821" stroke-width="1.51"/><path d="M342,338L326,409L430,405Z" fill="#feb680" stroke="#feb680" stroke-width="1.51"/><path d="M489,152L416,234L519,248Z" fill="#fdc48d" stroke="#fdc48d" stroke-width="1.51"/><path d="M600,138L489,152L596,237Z" fill="#fdbf88" stroke="#fdbf88" stroke-width="1.51"/><path d="M511,81L489,152L600,138Z" fill="#fec691" stroke="#fec691" stroke-width="1.51"/><path d="M832,54L773,41L762,154Z" fill="#feb081" stroke="#feb081" stroke-width="1.51"/><path d="M247,564L323,686L339,560Z" fill="#f99d70" stroke="#f99d70" stroke-width="1.51"/><path d="M342,338L430,405L399,315Z" fill="#fdba83" stroke="#fdba83" stroke-width="1.51"/><path d="M773,41L696,45L762,154Z" fill="#ffb483" stroke="#ffb483" stroke-width="1.51"/><path d="M1197,846L1204,739L1127,767Z" fill="#d12b1b" stroke="#d12b1b" stroke-width="1.51"/><path d="M1179,652L1266,587L1192,579Z" fill="#de482f" stroke="#de482f" stroke-width="1.51"/><path d="M1192,579L1266,587L1187,497Z" fill="#e05031" stroke="#e05031" stroke-width="1.51"/><path d="M339,214L342,338L399,315Z" fill="#fdc58d" stroke="#fdc58d" stroke-width="1.51"/><path d="M1122,244L1089,140L1009,213Z" fill="#f38d60" stroke="#f38d60" stroke-width="1.51"/><path d="M1020,134L1005,74L947,81Z" fill="#f89d73" stroke="#f89d73" stroke-width="1.51"/><path d="M1182,163L1089,140L1122,244Z" fill="#f0885b" stroke="#f0885b" stroke-width="1.51"/><path d="M1181,225L1122,244L1176,339Z" fill="#ee7f52" stroke="#ee7f52" stroke-width="1.51"/><path d="M1268,666L1266,587L1179,652Z" fill="#da4129" stroke="#da4129" stroke-width="1.51"/><path d="M1262,393L1176,339L1209,413Z" fill="#e76b40" stroke="#e76b40" stroke-width="1.51"/><path d="M1288,335L1181,225L1176,339Z" fill="#e8784b" stroke="#e8784b" stroke-width="1.51"/><path d="M947,81L858,-9L832,54Z" fill="#fdab82" stroke="#fdab82" stroke-width="1.51"/><path d="M832,54L858,-9L773,41Z" fill="#feb187" stroke="#feb187" stroke-width="1.51"/><path d="M1089,140L1005,74L1020,134Z" fill="#f5976c" stroke="#f5976c" stroke-width="1.51"/><path d="M421,758L412,824L490,854Z" fill="#e77b4e" stroke="#e77b4e" stroke-width="1.51"/><path d="M490,854L513,945L585,908Z" fill="#dc6c3f" stroke="#dc6c3f" stroke-width="1.51"/><path d="M323,686L421,758L407,681Z" fill="#f28a5d" stroke="#f28a5d" stroke-width="1.51"/><path d="M1291,474L1209,413L1187,497Z" fill="#e45c36" stroke="#e45c36" stroke-width="1.51"/><path d="M247,564L339,560L334,476Z" fill="#fca675" stroke="#fca675" stroke-width="1.51"/><path d="M339,560L323,686L407,681Z" fill="#f69568" stroke="#f69568" stroke-width="1.51"/><path d="M489,152L428,165L416,234Z" fill="#fdc891" stroke="#fdc891" stroke-width="1.51"/><path d="M416,234L339,214L399,315Z" fill="#fdc68f" stroke="#fdc68f" stroke-width="1.51"/><path d="M400,53L428,165L489,152Z" fill="#fdcd98" stroke="#fdcd98" stroke-width="1.51"/><path d="M696,45L572,57L600,138Z" fill="#ffc08e" stroke="#ffc08e" stroke-width="1.51"/><path d="M1266,587L1291,474L1187,497Z" fill="#df5331" stroke="#df5331" stroke-width="1.51"/><path d="M1266,587L1349,588L1291,474Z" fill="#da4b2c" stroke="#da4b2c" stroke-width="1.51"/><path d="M1204,739L1268,666L1179,652Z" fill="#d73924" stroke="#d73924" stroke-width="1.51"/><path d="M828,935L845,1015L949,924Z" fill="#ca4327" stroke="#ca4327" stroke-width="1.51"/><path d="M949,924L1041,1004L1009,914Z" fill="#c6341f" stroke="#c6341f" stroke-width="1.51"/><path d="M742,1025L845,1015L828,935Z" fill="#c64929" stroke="#c64929" stroke-width="1.51"/><path d="M742,1025L759,928L673,918Z" fill="#cf522c" stroke="#cf522c" stroke-width="1.51"/><path d="M572,57L511,81L600,138Z" fill="#fec592" stroke="#fec592" stroke-width="1.51"/><path d="M1204,739L1262,772L1268,666Z" fill="#d22f1c" stroke="#d22f1c" stroke-width="1.51"/><path d="M1109,835L1197,846L1127,767Z" fill="#d02a19" stroke="#d02a19" stroke-width="1.51"/><path d="M1009,914L1097,918L1016,835Z" fill="#cd311d" stroke="#cd311d" stroke-width="1.51"/><path d="M1041,1004L1097,918L1009,914Z" fill="#c32e1b" stroke="#c32e1b" stroke-width="1.51"/><path d="M670,1023L742,1025L673,918Z" fill="#c9542f" stroke="#c9542f" stroke-width="1.51"/><path d="M427,914L513,945L490,854Z" fill="#dc7043" stroke="#dc7043" stroke-width="1.51"/><path d="M670,1023L673,918L585,908Z" fill="#d25d34" stroke="#d25d34" stroke-width="1.51"/><path d="M753,-35L679,-15L696,45Z" fill="#ffbc90" stroke="#ffbc90" stroke-width="1.51"/><path d="M696,45L583,-5L572,57Z" fill="#ffc395" stroke="#ffc395" stroke-width="1.51"/><path d="M941,-47L858,-9L947,81Z" fill="#fca986" stroke="#fca986" stroke-width="1.51"/><path d="M572,1027L670,1023L585,908Z" fill="#cb5e37" stroke="#cb5e37" stroke-width="1.51"/><path d="M1089,140L1123,72L1005,74Z" fill="#f5956b" stroke="#f5956b" stroke-width="1.51"/><path d="M1005,74L941,-47L947,81Z" fill="#faa37e" stroke="#faa37e" stroke-width="1.51"/><path d="M1181,225L1182,163L1122,244Z" fill="#ee8456" stroke="#ee8456" stroke-width="1.51"/><path d="M1266,130L1182,163L1181,225Z" fill="#eb8456" stroke="#eb8456" stroke-width="1.51"/><path d="M1288,335L1176,339L1262,393Z" fill="#e56d42" stroke="#e56d42" stroke-width="1.51"/><path d="M1097,918L1197,846L1109,835Z" fill="#ca2515" stroke="#ca2515" stroke-width="1.51"/><path d="M1358,403L1288,335L1262,393Z" fill="#e0663b" stroke="#e0663b" stroke-width="1.51"/><path d="M412,824L427,914L490,854Z" fill="#e17648" stroke="#e17648" stroke-width="1.51"/><path d="M323,686L320,771L421,758Z" fill="#f0875a" stroke="#f0875a" stroke-width="1.51"/><path d="M233,741L320,771L323,686Z" fill="#f18c5f" stroke="#f18c5f" stroke-width="1.51"/><path d="M326,409L261,410L334,476Z" fill="#feb37d" stroke="#feb37d" stroke-width="1.51"/><path d="M342,338L261,410L326,409Z" fill="#feba83" stroke="#feba83" stroke-width="1.51"/><path d="M240,310L261,410L342,338Z" fill="#fec089" stroke="#fec089" stroke-width="1.51"/><path d="M753,-35L696,45L773,41Z" fill="#ffb88b" stroke="#ffb88b" stroke-width="1.51"/><path d="M572,57L486,-39L511,81Z" fill="#ffcd9f" stroke="#ffcd9f" stroke-width="1.51"/><path d="M428,165L339,214L416,234Z" fill="#fdca92" stroke="#fdca92" stroke-width="1.51"/><path d="M345,128L339,214L428,165Z" fill="#fdcd97" stroke="#fdcd97" stroke-width="1.51"/><path d="M513,945L572,1027L585,908Z" fill="#d1663c" stroke="#d1663c" stroke-width="1.51"/><path d="M333,846L427,914L412,824Z" fill="#e2794c" stroke="#e2794c" stroke-width="1.51"/><path d="M845,1015L931,1032L949,924Z" fill="#c33e26" stroke="#c33e26" stroke-width="1.51"/><path d="M742,1025L931,1032L845,1015Z" fill="#bf4428" stroke="#bf4428" stroke-width="1.51"/><path d="M492,1033L931,1032L742,1025Z" fill="#c14f2c" stroke="#c14f2c" stroke-width="1.51"/><path d="M1197,846L1262,772L1204,739Z" fill="#cd2718" stroke="#cd2718" stroke-width="1.51"/><path d="M1268,666L1349,588L1266,587Z" fill="#d64129" stroke="#d64129" stroke-width="1.51"/><path d="M233,497L247,564L334,476Z" fill="#fdab79" stroke="#fdab79" stroke-width="1.51"/><path d="M858,-9L753,-35L773,41Z" fill="#ffb58c" stroke="#ffb58c" stroke-width="1.51"/><path d="M1182,163L1123,72L1089,140Z" fill="#f18d61" stroke="#f18d61" stroke-width="1.51"/><path d="M261,410L233,497L334,476Z" fill="#feb07b" stroke="#feb07b" stroke-width="1.51"/><path d="M931,1032L1041,1004L949,924Z" fill="#c03621" stroke="#c03621" stroke-width="1.51"/><path d="M1186,937L1260,841L1197,846Z" fill="#c31b0e" stroke="#c31b0e" stroke-width="1.51"/><path d="M679,-15L583,-5L696,45Z" fill="#ffc195" stroke="#ffc195" stroke-width="1.51"/><path d="M400,53L345,128L428,165Z" fill="#fdd09c" stroke="#fdd09c" stroke-width="1.51"/><path d="M611,-108L583,-5L679,-15Z" fill="#ffc79e" stroke="#ffc79e" stroke-width="1.51"/><path d="M670,1023L572,1027L742,1025Z" fill="#c35632" stroke="#c35632" stroke-width="1.51"/><path d="M492,1033L572,1027L513,945Z" fill="#ca673e" stroke="#ca673e" stroke-width="1.51"/><path d="M320,771L333,846L412,824Z" fill="#e88052" stroke="#e88052" stroke-width="1.51"/><path d="M437,1008L492,1033L513,945Z" fill="#cb6b42" stroke="#cb6b42" stroke-width="1.51"/><path d="M261,826L333,846L320,771Z" fill="#e88355" stroke="#e88355" stroke-width="1.51"/><path d="M1386,651L1349,588L1268,666Z" fill="#d23a23" stroke="#d23a23" stroke-width="1.51"/><path d="M1291,474L1358,403L1262,393Z" fill="#df5e35" stroke="#df5e35" stroke-width="1.51"/><path d="M1349,588L1360,471L1291,474Z" fill="#d94f2c" stroke="#d94f2c" stroke-width="1.51"/><path d="M1370,745L1386,651L1268,666Z" fill="#cd2f1b" stroke="#cd2f1b" stroke-width="1.51"/><path d="M1197,846L1260,841L1262,772Z" fill="#c72113" stroke="#c72113" stroke-width="1.51"/><path d="M1186,937L1197,846L1097,918Z" fill="#c51d10" stroke="#c51d10" stroke-width="1.51"/><path d="M1288,335L1297,240L1181,225Z" fill="#e6784b" stroke="#e6784b" stroke-width="1.51"/><path d="M1182,163L1208,82L1123,72Z" fill="#f08b60" stroke="#f08b60" stroke-width="1.51"/><path d="M1382,317L1297,240L1288,335Z" fill="#e07244" stroke="#e07244" stroke-width="1.51"/><path d="M1039,-38L941,-47L1005,74Z" fill="#faa380" stroke="#faa380" stroke-width="1.51"/><path d="M858,-9L779,-101L753,-35Z" fill="#ffb691" stroke="#ffb691" stroke-width="1.51"/><path d="M1360,471L1358,403L1291,474Z" fill="#db572f" stroke="#db572f" stroke-width="1.51"/><path d="M339,214L240,310L342,338Z" fill="#fdc891" stroke="#fdc891" stroke-width="1.51"/><path d="M261,410L164,421L233,497Z" fill="#ffb582" stroke="#ffb582" stroke-width="1.51"/><path d="M177,599L231,686L247,564Z" fill="#fa9f76" stroke="#fa9f76" stroke-width="1.51"/><path d="M247,564L231,686L323,686Z" fill="#f7996d" stroke="#f7996d" stroke-width="1.51"/><path d="M1109,1013L1186,937L1097,918Z" fill="#bd2012" stroke="#bd2012" stroke-width="1.51"/><path d="M339,214L233,252L240,310Z" fill="#fdcc96" stroke="#fdcc96" stroke-width="1.51"/><path d="M400,53L489,152L511,81Z" fill="#fecd9a" stroke="#fecd9a" stroke-width="1.51"/><path d="M1041,1004L1109,1013L1097,918Z" fill="#bc2717" stroke="#bc2717" stroke-width="1.51"/><path d="M931,1032L1109,1013L1041,1004Z" fill="#b82e1c" stroke="#b82e1c" stroke-width="1.51"/><path d="M437,1008L513,945L427,914Z" fill="#d36f43" stroke="#d36f43" stroke-width="1.51"/><path d="M572,1027L492,1033L742,1025Z" fill="#c45d37" stroke="#c45d37" stroke-width="1.51"/><path d="M486,-39L400,53L511,81Z" fill="#fed1a3" stroke="#fed1a3" stroke-width="1.51"/><path d="M352,937L437,1008L427,914Z" fill="#d47246" stroke="#d47246" stroke-width="1.51"/><path d="M231,686L233,741L323,686Z" fill="#f39165" stroke="#f39165" stroke-width="1.51"/><path d="M1108,-4L1039,-38L1005,74Z" fill="#f89c78" stroke="#f89c78" stroke-width="1.51"/><path d="M1266,130L1208,82L1182,163Z" fill="#eb875a" stroke="#eb875a" stroke-width="1.51"/><path d="M1108,-4L1005,74L1123,72Z" fill="#f59771" stroke="#f59771" stroke-width="1.51"/><path d="M1204,-27L1108,-4L1123,72Z" fill="#f3936e" stroke="#f3936e" stroke-width="1.51"/><path d="M352,937L427,914L333,846Z" fill="#de7749" stroke="#de7749" stroke-width="1.51"/><path d="M244,927L352,937L333,846Z" fill="#de7b4c" stroke="#de7b4c" stroke-width="1.51"/><path d="M258,128L233,252L339,214Z" fill="#fdd19a" stroke="#fdd19a" stroke-width="1.51"/><path d="M143,485L177,599L233,497Z" fill="#fead80" stroke="#fead80" stroke-width="1.51"/><path d="M233,497L177,599L247,564Z" fill="#fca77b" stroke="#fca77b" stroke-width="1.51"/><path d="M258,128L339,214L345,128Z" fill="#fdd29b" stroke="#fdd29b" stroke-width="1.51"/><path d="M1208,82L1204,-27L1123,72Z" fill="#f18f68" stroke="#f18f68" stroke-width="1.51"/><path d="M1297,240L1266,130L1181,225Z" fill="#e77f51" stroke="#e77f51" stroke-width="1.51"/><path d="M1351,165L1266,130L1297,240Z" fill="#e37d4f" stroke="#e37d4f" stroke-width="1.51"/><path d="M753,-35L673,-120L679,-15Z" fill="#ffbf98" stroke="#ffbf98" stroke-width="1.51"/><path d="M583,-5L486,-39L572,57Z" fill="#ffcca0" stroke="#ffcca0" stroke-width="1.51"/><path d="M838,-107L779,-101L858,-9Z" fill="#ffb593" stroke="#ffb593" stroke-width="1.51"/><path d="M838,-107L858,-9L920,-112Z" fill="#ffb191" stroke="#ffb191" stroke-width="1.51"/><path d="M233,741L261,826L320,771Z" fill="#ed885b" stroke="#ed885b" stroke-width="1.51"/><path d="M1451,474L1446,423L1360,471Z" fill="#d2522c" stroke="#d2522c" stroke-width="1.51"/><path d="M1446,423L1382,317L1358,403Z" fill="#d76036" stroke="#d76036" stroke-width="1.51"/><path d="M1370,745L1268,666L1262,772Z" fill="#cd2a18" stroke="#cd2a18" stroke-width="1.51"/><path d="M164,421L261,410L240,310Z" fill="#ffbf8c" stroke="#ffbf8c" stroke-width="1.51"/><path d="M231,686L146,747L233,741Z" fill="#f39168" stroke="#f39168" stroke-width="1.51"/><path d="M233,741L158,843L261,826Z" fill="#ec885e" stroke="#ec885e" stroke-width="1.51"/><path d="M920,-112L858,-9L941,-47Z" fill="#feae8d" stroke="#feae8d" stroke-width="1.51"/><path d="M1358,403L1382,317L1288,335Z" fill="#dd683c" stroke="#dd683c" stroke-width="1.51"/><path d="M1446,423L1358,403L1360,471Z" fill="#d6582f" stroke="#d6582f" stroke-width="1.51"/><path d="M1366,821L1370,745L1262,772Z" fill="#c51d0f" stroke="#c51d0f" stroke-width="1.51"/><path d="M1186,937L1289,930L1260,841Z" fill="#bd1308" stroke="#bd1308" stroke-width="1.51"/><path d="M1109,1013L1191,990L1186,937Z" fill="#b61a10" stroke="#b61a10" stroke-width="1.51"/><path d="M515,-94L486,-39L583,-5Z" fill="#ffd1a8" stroke="#ffd1a8" stroke-width="1.51"/><path d="M1366,821L1262,772L1260,841Z" fill="#c41c0f" stroke="#c41c0f" stroke-width="1.51"/><path d="M147,328L164,421L240,310Z" fill="#ffc593" stroke="#ffc593" stroke-width="1.51"/><path d="M1009,-92L941,-47L1039,-38Z" fill="#fba586" stroke="#fba586" stroke-width="1.51"/><path d="M1009,-92L920,-112L941,-47Z" fill="#fdab8d" stroke="#fdab8d" stroke-width="1.51"/><path d="M920,-112L673,-120L838,-107Z" fill="#ffb998" stroke="#ffb998" stroke-width="1.51"/><path d="M838,-107L673,-120L779,-101Z" fill="#ffbc9a" stroke="#ffbc9a" stroke-width="1.51"/><path d="M779,-101L673,-120L753,-35Z" fill="#ffbd98" stroke="#ffbd98" stroke-width="1.51"/><path d="M1094,-98L1009,-92L1039,-38Z" fill="#faa183" stroke="#faa183" stroke-width="1.51"/><path d="M1094,-98L1039,-38L1108,-4Z" fill="#f89c7c" stroke="#f89c7c" stroke-width="1.51"/><path d="M177,599L163,665L231,686Z" fill="#f89d74" stroke="#f89d74" stroke-width="1.51"/><path d="M79,559L163,665L177,599Z" fill="#fba57f" stroke="#fba57f" stroke-width="1.51"/><path d="M673,-120L611,-108L679,-15Z" fill="#ffc69f" stroke="#ffc69f" stroke-width="1.51"/><path d="M412,-29L346,41L400,53Z" fill="#fed7a9" stroke="#fed7a9" stroke-width="1.51"/><path d="M400,53L346,41L345,128Z" fill="#fed4a3" stroke="#fed4a3" stroke-width="1.51"/><path d="M164,421L143,485L233,497Z" fill="#ffb484" stroke="#ffb484" stroke-width="1.51"/><path d="M1266,130L1264,71L1208,82Z" fill="#ea875d" stroke="#ea875d" stroke-width="1.51"/><path d="M1352,67L1264,71L1266,130Z" fill="#e6845a" stroke="#e6845a" stroke-width="1.51"/><path d="M176,236L147,328L240,310Z" fill="#fecc9b" stroke="#fecc9b" stroke-width="1.51"/><path d="M76,398L70,476L143,485Z" fill="#ffba8d" stroke="#ffba8d" stroke-width="1.51"/><path d="M346,41L258,128L345,128Z" fill="#fed5a3" stroke="#fed5a3" stroke-width="1.51"/><path d="M1191,990L1289,930L1186,937Z" fill="#b6150b" stroke="#b6150b" stroke-width="1.51"/><path d="M352,937L347,996L437,1008Z" fill="#cf7247" stroke="#cf7247" stroke-width="1.51"/><path d="M437,1008L347,996L492,1033Z" fill="#c86d44" stroke="#c86d44" stroke-width="1.51"/><path d="M244,927L347,996L352,937Z" fill="#d5774b" stroke="#d5774b" stroke-width="1.51"/><path d="M244,927L333,846L261,826Z" fill="#e38052" stroke="#e38052" stroke-width="1.51"/><path d="M1370,745L1449,647L1386,651Z" fill="#c72e1a" stroke="#c72e1a" stroke-width="1.51"/><path d="M1289,930L1366,821L1260,841Z" fill="#bc1308" stroke="#bc1308" stroke-width="1.51"/><path d="M346,41L242,42L258,128Z" fill="#fed9a9" stroke="#fed9a9" stroke-width="1.51"/><path d="M486,-39L412,-29L400,53Z" fill="#fed5aa" stroke="#fed5aa" stroke-width="1.51"/><path d="M428,-97L412,-29L486,-39Z" fill="#ffd7af" stroke="#ffd7af" stroke-width="1.51"/><path d="M1380,217L1351,165L1297,240Z" fill="#e0784a" stroke="#e0784a" stroke-width="1.51"/><path d="M1382,317L1380,217L1297,240Z" fill="#de7346" stroke="#de7346" stroke-width="1.51"/><path d="M428,-97L515,-94L611,-108Z" fill="#ffd5af" stroke="#ffd5af" stroke-width="1.51"/><path d="M611,-108L515,-94L583,-5Z" fill="#ffcda7" stroke="#ffcda7" stroke-width="1.51"/><path d="M1382,317L1448,228L1380,217Z" fill="#d87145" stroke="#d87145" stroke-width="1.51"/><path d="M1451,474L1360,471L1349,588Z" fill="#d34c29" stroke="#d34c29" stroke-width="1.51"/><path d="M1451,474L1349,588L1458,601Z" fill="#cd4427" stroke="#cd4427" stroke-width="1.51"/><path d="M1458,601L1349,588L1386,651Z" fill="#cd3b24" stroke="#cd3b24" stroke-width="1.51"/><path d="M176,236L240,310L233,252Z" fill="#fece9b" stroke="#fece9b" stroke-width="1.51"/><path d="M164,168L176,236L233,252Z" fill="#fed2a1" stroke="#fed2a1" stroke-width="1.51"/><path d="M1467,770L1449,647L1370,745Z" fill="#c02515" stroke="#c02515" stroke-width="1.51"/><path d="M1449,647L1458,601L1386,651Z" fill="#c63721" stroke="#c63721" stroke-width="1.51"/><path d="M1290,-19L1204,-27L1264,71Z" fill="#eb8c68" stroke="#eb8c68" stroke-width="1.51"/><path d="M1264,71L1204,-27L1208,82Z" fill="#ed8c65" stroke="#ed8c65" stroke-width="1.51"/><path d="M1009,-92L1094,-98L920,-112Z" fill="#fba689" stroke="#fba689" stroke-width="1.51"/><path d="M1204,-27L1094,-98L1108,-4Z" fill="#f59776" stroke="#f59776" stroke-width="1.51"/><path d="M163,665L146,747L231,686Z" fill="#f5966d" stroke="#f5966d" stroke-width="1.51"/><path d="M55,681L146,747L163,665Z" fill="#f69973" stroke="#f69973" stroke-width="1.51"/><path d="M158,843L244,927L261,826Z" fill="#e48257" stroke="#e48257" stroke-width="1.51"/><path d="M1446,423L1459,318L1382,317Z" fill="#d36439" stroke="#d36439" stroke-width="1.51"/><path d="M1466,147L1352,67L1351,165Z" fill="#dc7d50" stroke="#dc7d50" stroke-width="1.51"/><path d="M1557,397L1459,318L1446,423Z" fill="#cb5d36" stroke="#cb5d36" stroke-width="1.51"/><path d="M1531,493L1446,423L1451,474Z" fill="#ca502b" stroke="#ca502b" stroke-width="1.51"/><path d="M428,-97L333,-26L412,-29Z" fill="#ffdab2" stroke="#ffdab2" stroke-width="1.51"/><path d="M412,-29L333,-26L346,41Z" fill="#fed9ae" stroke="#fed9ae" stroke-width="1.51"/><path d="M258,128L164,168L233,252Z" fill="#fed4a1" stroke="#fed4a1" stroke-width="1.51"/><path d="M515,-94L428,-97L486,-39Z" fill="#ffd6b0" stroke="#ffd6b0" stroke-width="1.51"/><path d="M673,-120L428,-97L611,-108Z" fill="#ffcfab" stroke="#ffcfab" stroke-width="1.51"/><path d="M143,485L79,559L177,599Z" fill="#fdac84" stroke="#fdac84" stroke-width="1.51"/><path d="M70,476L79,559L143,485Z" fill="#ffb38a" stroke="#ffb38a" stroke-width="1.51"/><path d="M169,40L164,168L258,128Z" fill="#fedaac" stroke="#fedaac" stroke-width="1.51"/><path d="M78,220L55,321L147,328Z" fill="#ffd1a5" stroke="#ffd1a5" stroke-width="1.51"/><path d="M76,398L143,485L164,421Z" fill="#ffbb8c" stroke="#ffbb8c" stroke-width="1.51"/><path d="M146,747L158,843L233,741Z" fill="#ef8c64" stroke="#ef8c64" stroke-width="1.51"/><path d="M68,768L158,843L146,747Z" fill="#ef8e68" stroke="#ef8e68" stroke-width="1.51"/><path d="M76,398L164,421L147,328Z" fill="#ffc394" stroke="#ffc394" stroke-width="1.51"/><path d="M1204,-27L1204,-92L1094,-98Z" fill="#f49676" stroke="#f49676" stroke-width="1.51"/><path d="M1351,165L1352,67L1266,130Z" fill="#e28154" stroke="#e28154" stroke-width="1.51"/><path d="M1466,147L1351,165L1380,217Z" fill="#da784b" stroke="#da784b" stroke-width="1.51"/><path d="M169,40L242,42L174,-47Z" fill="#fee1ba" stroke="#fee1ba" stroke-width="1.51"/><path d="M333,-26L242,42L346,41Z" fill="#fedbaf" stroke="#fedbaf" stroke-width="1.51"/><path d="M1459,318L1448,228L1382,317Z" fill="#d46d42" stroke="#d46d42" stroke-width="1.51"/><path d="M55,321L76,398L147,328Z" fill="#ffc99d" stroke="#ffc99d" stroke-width="1.51"/><path d="M1289,930L1387,942L1366,821Z" fill="#b50502" stroke="#b50502" stroke-width="1.51"/><path d="M1366,821L1467,770L1370,745Z" fill="#be190d" stroke="#be190d" stroke-width="1.51"/><path d="M1191,990L1295,1026L1289,930Z" fill="#ae1008" stroke="#ae1008" stroke-width="1.51"/><path d="M1109,1013L1295,1026L1191,990Z" fill="#ae160d" stroke="#ae160d" stroke-width="1.51"/><path d="M931,1032L1295,1026L1109,1013Z" fill="#b22214" stroke="#b22214" stroke-width="1.51"/><path d="M1458,601L1531,493L1451,474Z" fill="#c74729" stroke="#c74729" stroke-width="1.51"/><path d="M1541,589L1531,493L1458,601Z" fill="#c14026" stroke="#c14026" stroke-width="1.51"/><path d="M1458,826L1467,770L1366,821Z" fill="#b7140b" stroke="#b7140b" stroke-width="1.51"/><path d="M1352,67L1290,-19L1264,71Z" fill="#e78760" stroke="#e78760" stroke-width="1.51"/><path d="M1094,-98L1262,-111L920,-112Z" fill="#f89e82" stroke="#f89e82" stroke-width="1.51"/><path d="M1262,-111L1204,-92L1204,-27Z" fill="#f09273" stroke="#f09273" stroke-width="1.51"/><path d="M1379,993L1387,942L1289,930Z" fill="#ab0202" stroke="#ab0202" stroke-width="1.51"/><path d="M1464,904L1458,826L1366,821Z" fill="#b20c06" stroke="#b20c06" stroke-width="1.51"/><path d="M1458,601L1449,647L1542,657Z" fill="#c03520" stroke="#c03520" stroke-width="1.51"/><path d="M1541,589L1458,601L1542,657Z" fill="#be3823" stroke="#be3823" stroke-width="1.51"/><path d="M1522,154L1466,147L1448,228Z" fill="#cf754a" stroke="#cf754a" stroke-width="1.51"/><path d="M165,935L226,1001L244,927Z" fill="#d67c54" stroke="#d67c54" stroke-width="1.51"/><path d="M244,927L226,1001L347,996Z" fill="#d1784e" stroke="#d1784e" stroke-width="1.51"/><path d="M347,996L226,1001L492,1033Z" fill="#ca7148" stroke="#ca7148" stroke-width="1.51"/><path d="M79,559L55,681L163,665Z" fill="#faa27f" stroke="#faa27f" stroke-width="1.51"/><path d="M158,843L165,935L244,927Z" fill="#e08156" stroke="#e08156" stroke-width="1.51"/><path d="M-6,656L55,681L79,559Z" fill="#fba584" stroke="#fba584" stroke-width="1.51"/><path d="M82,915L165,935L158,843Z" fill="#e2835c" stroke="#e2835c" stroke-width="1.51"/><path d="M70,476L-12,505L79,559Z" fill="#ffb48d" stroke="#ffb48d" stroke-width="1.51"/><path d="M-17,388L-12,505L70,476Z" fill="#ffbc94" stroke="#ffbc94" stroke-width="1.51"/><path d="M78,220L147,328L176,236Z" fill="#fed1a3" stroke="#fed1a3" stroke-width="1.51"/><path d="M78,220L176,236L164,168Z" fill="#fed6a7" stroke="#fed6a7" stroke-width="1.51"/><path d="M1542,657L1449,647L1530,742Z" fill="#b92b1a" stroke="#b92b1a" stroke-width="1.51"/><path d="M1387,942L1464,904L1366,821Z" fill="#b00302" stroke="#b00302" stroke-width="1.51"/><path d="M1295,1026L1379,993L1289,930Z" fill="#a90704" stroke="#a90704" stroke-width="1.51"/><path d="M55,681L68,768L146,747Z" fill="#f49572" stroke="#f49572" stroke-width="1.51"/><path d="M65,136L78,220L164,168Z" fill="#fedaad" stroke="#fedaad" stroke-width="1.51"/><path d="M1530,742L1449,647L1467,770Z" fill="#b92415" stroke="#b92415" stroke-width="1.51"/><path d="M1530,742L1467,770L1533,843Z" fill="#af160d" stroke="#af160d" stroke-width="1.51"/><path d="M1542,229L1448,228L1459,318Z" fill="#ce6e44" stroke="#ce6e44" stroke-width="1.51"/><path d="M1448,228L1466,147L1380,217Z" fill="#d57549" stroke="#d57549" stroke-width="1.51"/><path d="M1355,-40L1262,-111L1290,-19Z" fill="#e98c6c" stroke="#e98c6c" stroke-width="1.51"/><path d="M242,42L169,40L258,128Z" fill="#fedcaf" stroke="#fedcaf" stroke-width="1.51"/><path d="M244,-47L242,42L333,-26Z" fill="#fedfb5" stroke="#fedfb5" stroke-width="1.51"/><path d="M1533,843L1467,770L1458,826Z" fill="#af120a" stroke="#af120a" stroke-width="1.51"/><path d="M1542,657L1557,397L1541,589Z" fill="#bd4227" stroke="#bd4227" stroke-width="1.51"/><path d="M1541,589L1557,397L1531,493Z" fill="#c04a2a" stroke="#c04a2a" stroke-width="1.51"/><path d="M1531,493L1557,397L1446,423Z" fill="#c6532e" stroke="#c6532e" stroke-width="1.51"/><path d="M310,-108L244,-47L333,-26Z" fill="#ffe0b9" stroke="#ffe0b9" stroke-width="1.51"/><path d="M428,-97L310,-108L333,-26Z" fill="#ffddb7" stroke="#ffddb7" stroke-width="1.51"/><path d="M673,-120L310,-108L428,-97Z" fill="#ffd8b4" stroke="#ffd8b4" stroke-width="1.51"/><path d="M1290,-19L1262,-111L1204,-27Z" fill="#ed8f6f" stroke="#ed8f6f" stroke-width="1.51"/><path d="M1204,-92L1262,-111L1094,-98Z" fill="#f39678" stroke="#f39678" stroke-width="1.51"/><path d="M920,-112L1453,-129L673,-120Z" fill="#fca78b" stroke="#fca78b" stroke-width="1.51"/><path d="M1355,-40L1290,-19L1352,67Z" fill="#e58863" stroke="#e58863" stroke-width="1.51"/><path d="M1434,1010L1464,904L1387,942Z" fill="#a30001" stroke="#a30001" stroke-width="1.51"/><path d="M79,990L171,1001L165,935Z" fill="#d47e5a" stroke="#d47e5a" stroke-width="1.51"/><path d="M165,935L171,1001L226,1001Z" fill="#d27c56" stroke="#d27c56" stroke-width="1.51"/><path d="M226,1001L171,1001L492,1033Z" fill="#ca754b" stroke="#ca754b" stroke-width="1.51"/><path d="M1452,46L1355,-40L1352,67Z" fill="#df835d" stroke="#df835d" stroke-width="1.51"/><path d="M1557,397L1558,320L1459,318Z" fill="#c7613a" stroke="#c7613a" stroke-width="1.51"/><path d="M-17,388L70,476L76,398Z" fill="#ffc096" stroke="#ffc096" stroke-width="1.51"/><path d="M4,752L57,844L68,768Z" fill="#f0916f" stroke="#f0916f" stroke-width="1.51"/><path d="M-17,388L76,398L55,321Z" fill="#ffc89e" stroke="#ffc89e" stroke-width="1.51"/><path d="M68,768L57,844L158,843Z" fill="#ec8c68" stroke="#ec8c68" stroke-width="1.51"/><path d="M4,752L68,768L55,681Z" fill="#f59775" stroke="#f59775" stroke-width="1.51"/><path d="M1558,320L1542,229L1459,318Z" fill="#c86a41" stroke="#c86a41" stroke-width="1.51"/><path d="M1466,147L1452,46L1352,67Z" fill="#d97d55" stroke="#d97d55" stroke-width="1.51"/><path d="M-28,590L-6,656L79,559Z" fill="#fdab8a" stroke="#fdab8a" stroke-width="1.51"/><path d="M1541,70L1452,46L1466,147Z" fill="#d07b54" stroke="#d07b54" stroke-width="1.51"/><path d="M310,-108L256,-103L244,-47Z" fill="#ffe3be" stroke="#ffe3be" stroke-width="1.51"/><path d="M244,-47L174,-47L242,42Z" fill="#fee1bb" stroke="#fee1bb" stroke-width="1.51"/><path d="M57,844L82,915L158,843Z" fill="#e68862" stroke="#e68862" stroke-width="1.51"/><path d="M-12,505L-28,590L79,559Z" fill="#feb18e" stroke="#feb18e" stroke-width="1.51"/><path d="M-36,338L-17,388L55,321Z" fill="#ffcca4" stroke="#ffcca4" stroke-width="1.51"/><path d="M-36,338L55,321L-22,216Z" fill="#ffd4ac" stroke="#ffd4ac" stroke-width="1.51"/><path d="M169,40L65,136L164,168Z" fill="#feddb1" stroke="#feddb1" stroke-width="1.51"/><path d="M73,46L65,136L169,40Z" fill="#fee1ba" stroke="#fee1ba" stroke-width="1.51"/><path d="M1542,657L1561,992L1557,397Z" fill="#b42a1a" stroke="#b42a1a" stroke-width="1.51"/><path d="M1530,742L1533,843L1542,657Z" fill="#b01c11" stroke="#b01c11" stroke-width="1.51"/><path d="M1464,904L1533,843L1458,826Z" fill="#aa0a05" stroke="#aa0a05" stroke-width="1.51"/><path d="M1527,905L1533,843L1464,904Z" fill="#a40403" stroke="#a40403" stroke-width="1.51"/><path d="M1379,993L1434,1010L1387,942Z" fill="#a10001" stroke="#a10001" stroke-width="1.51"/><path d="M1295,1026L1434,1010L1379,993Z" fill="#a00001" stroke="#a00001" stroke-width="1.51"/><path d="M1542,229L1522,154L1448,228Z" fill="#cc7248" stroke="#cc7248" stroke-width="1.51"/><path d="M-95,560L-28,590L-12,505Z" fill="#ffb392" stroke="#ffb392" stroke-width="1.51"/><path d="M-24,906L79,990L82,915Z" fill="#dc8562" stroke="#dc8562" stroke-width="1.51"/><path d="M-6,656L4,752L55,681Z" fill="#f79d7c" stroke="#f79d7c" stroke-width="1.51"/><path d="M-99,766L4,752L-6,656Z" fill="#f79b7d" stroke="#f79b7d" stroke-width="1.51"/><path d="M256,-103L174,-47L244,-47Z" fill="#ffe4c0" stroke="#ffe4c0" stroke-width="1.51"/><path d="M1561,992L1527,905L1464,904Z" fill="#9b0001" stroke="#9b0001" stroke-width="1.51"/><path d="M-113,409L-95,508L-12,505Z" fill="#ffbd99" stroke="#ffbd99" stroke-width="1.51"/><path d="M-22,216L55,321L78,220Z" fill="#ffd6ad" stroke="#ffd6ad" stroke-width="1.51"/><path d="M1452,46L1439,-35L1355,-40Z" fill="#dc8461" stroke="#dc8461" stroke-width="1.51"/><path d="M1355,-40L1387,-106L1262,-111Z" fill="#e78c6c" stroke="#e78c6c" stroke-width="1.51"/><path d="M1559,-21L1439,-35L1452,46Z" fill="#d38160" stroke="#d38160" stroke-width="1.51"/><path d="M65,136L-22,216L78,220Z" fill="#fedbb2" stroke="#fedbb2" stroke-width="1.51"/><path d="M73,-14L73,46L169,40Z" fill="#fee4c1" stroke="#fee4c1" stroke-width="1.51"/><path d="M-5,857L82,915L57,844Z" fill="#e68a67" stroke="#e68a67" stroke-width="1.51"/><path d="M82,915L79,990L165,935Z" fill="#da825d" stroke="#da825d" stroke-width="1.51"/><path d="M1439,-35L1387,-106L1355,-40Z" fill="#e18867" stroke="#e18867" stroke-width="1.51"/><path d="M-20,128L-22,216L65,136Z" fill="#ffdfb7" stroke="#ffdfb7" stroke-width="1.51"/><path d="M4,752L-5,857L57,844Z" fill="#ed8f6e" stroke="#ed8f6e" stroke-width="1.51"/><path d="M-24,906L-5,857L-92,817Z" fill="#e98d6e" stroke="#e98d6e" stroke-width="1.51"/><path d="M1439,-35L1453,-129L1387,-106Z" fill="#dd886a" stroke="#dd886a" stroke-width="1.51"/><path d="M1522,154L1541,70L1466,147Z" fill="#cc774f" stroke="#cc774f" stroke-width="1.51"/><path d="M1542,229L1541,70L1522,154Z" fill="#c8744b" stroke="#c8744b" stroke-width="1.51"/><path d="M1559,-21L1541,70L1542,229Z" fill="#c87853" stroke="#c87853" stroke-width="1.51"/><path d="M-113,409L-12,505L-17,388Z" fill="#ffc19b" stroke="#ffc19b" stroke-width="1.51"/><path d="M-28,590L-123,676L-6,656Z" fill="#fca88a" stroke="#fca88a" stroke-width="1.51"/><path d="M-113,409L-17,388L-36,338Z" fill="#ffcaa4" stroke="#ffcaa4" stroke-width="1.51"/><path d="M-95,508L-95,560L-12,505Z" fill="#ffb796" stroke="#ffb796" stroke-width="1.51"/><path d="M51,-98L73,-14L174,-47Z" fill="#ffe9cb" stroke="#ffe9cb" stroke-width="1.51"/><path d="M174,-47L73,-14L169,40Z" fill="#fee5c2" stroke="#fee5c2" stroke-width="1.51"/><path d="M73,46L-20,128L65,136Z" fill="#fee2bb" stroke="#fee2bb" stroke-width="1.51"/><path d="M256,-103L156,-120L174,-47Z" fill="#ffe7c6" stroke="#ffe7c6" stroke-width="1.51"/><path d="M310,-108L156,-120L256,-103Z" fill="#ffe5c4" stroke="#ffe5c4" stroke-width="1.51"/><path d="M673,-120L156,-120L310,-108Z" fill="#ffdebb" stroke="#ffdebb" stroke-width="1.51"/><path d="M-31,61L-20,128L73,46Z" fill="#ffe4c2" stroke="#ffe4c2" stroke-width="1.51"/><path d="M-117,301L-113,409L-36,338Z" fill="#ffcfab" stroke="#ffcfab" stroke-width="1.51"/><path d="M-5,857L-24,906L82,915Z" fill="#e58966" stroke="#e58966" stroke-width="1.51"/><path d="M-92,817L-5,857L4,752Z" fill="#ef9272" stroke="#ef9272" stroke-width="1.51"/><path d="M-95,508L-123,676L-95,560Z" fill="#ffb195" stroke="#ffb195" stroke-width="1.51"/><path d="M-117,301L-36,338L-22,216Z" fill="#ffd7b2" stroke="#ffd7b2" stroke-width="1.51"/><path d="M1434,1010L1561,992L1464,904Z" fill="#990001" stroke="#990001" stroke-width="1.51"/><path d="M1527,905L1561,992L1533,843Z" fill="#9c0001" stroke="#9c0001" stroke-width="1.51"/><path d="M1533,843L1561,992L1542,657Z" fill="#a50f08" stroke="#a50f08" stroke-width="1.51"/><path d="M1557,397L1561,992L1558,320Z" fill="#bb3e25" stroke="#bb3e25" stroke-width="1.51"/><path d="M-123,676L-99,766L-6,656Z" fill="#f9a083" stroke="#f9a083" stroke-width="1.51"/><path d="M-123,676L-28,590L-95,560Z" fill="#fead91" stroke="#fead91" stroke-width="1.51"/><path d="M1524,-101L1453,-129L1439,-35Z" fill="#d78569" stroke="#d78569" stroke-width="1.51"/><path d="M1387,-106L1453,-129L1262,-111Z" fill="#e58b6e" stroke="#e58b6e" stroke-width="1.51"/><path d="M1262,-111L1453,-129L920,-112Z" fill="#f19579" stroke="#f19579" stroke-width="1.51"/><path d="M673,-120L-2,-122L156,-120Z" fill="#ffe4c2" stroke="#ffe4c2" stroke-width="1.51"/><path d="M-113,409L-123,676L-95,508Z" fill="#ffb799" stroke="#ffb799" stroke-width="1.51"/><path d="M-113,409L-122,249L-123,676Z" fill="#ffc2a0" stroke="#ffc2a0" stroke-width="1.51"/><path d="M-122,249L-117,301L-22,216Z" fill="#ffdab6" stroke="#ffdab6" stroke-width="1.51"/><path d="M-97,909L-92,817L-99,766Z" fill="#ed9275" stroke="#ed9275" stroke-width="1.51"/><path d="M-99,766L-92,817L4,752Z" fill="#f39578" stroke="#f39578" stroke-width="1.51"/><path d="M-111,149L-122,249L-22,216Z" fill="#ffdfbb" stroke="#ffdfbb" stroke-width="1.51"/><path d="M-1,-21L-31,61L73,46Z" fill="#fee8c8" stroke="#fee8c8" stroke-width="1.51"/><path d="M-1,-21L73,46L73,-14Z" fill="#fee8c9" stroke="#fee8c9" stroke-width="1.51"/><path d="M1541,70L1559,-21L1452,46Z" fill="#ce7d5b" stroke="#ce7d5b" stroke-width="1.51"/><path d="M1558,320L1559,-21L1542,229Z" fill="#c57249" stroke="#c57249" stroke-width="1.51"/><path d="M1561,992L1559,-21L1558,320Z" fill="#c0522e" stroke="#c0522e" stroke-width="1.51"/><path d="M-117,301L-122,249L-113,409Z" fill="#ffd5b2" stroke="#ffd5b2" stroke-width="1.51"/><path d="M-111,149L-22,216L-20,128Z" fill="#ffe1bb" stroke="#ffe1bb" stroke-width="1.51"/><path d="M-112,73L-111,149L-20,128Z" fill="#ffe5c4" stroke="#ffe5c4" stroke-width="1.51"/><path d="M51,-98L-1,-21L73,-14Z" fill="#feebcf" stroke="#feebcf" stroke-width="1.51"/><path d="M156,-120L51,-98L174,-47Z" fill="#ffe9cc" stroke="#ffe9cc" stroke-width="1.51"/><path d="M1559,-21L1524,-101L1439,-35Z" fill="#d18265" stroke="#d18265" stroke-width="1.51"/><path d="M-97,909L-31,1014L-24,906Z" fill="#dd876a" stroke="#dd876a" stroke-width="1.51"/><path d="M-24,906L-31,1014L79,990Z" fill="#d78365" stroke="#d78365" stroke-width="1.51"/><path d="M79,990L-31,1014L171,1001Z" fill="#cf805f" stroke="#cf805f" stroke-width="1.51"/><path d="M171,1001L-108,1030L492,1033Z" fill="#ca7955" stroke="#ca7955" stroke-width="1.51"/><path d="M-112,73L-20,128L-31,61Z" fill="#ffe6c6" stroke="#ffe6c6" stroke-width="1.51"/><path d="M-92,817L-97,909L-24,906Z" fill="#e88d6f" stroke="#e88d6f" stroke-width="1.51"/><path d="M-123,676L-97,909L-99,766Z" fill="#f3967b" stroke="#f3967b" stroke-width="1.51"/><path d="M-119,-30L-112,73L-31,61Z" fill="#ffebd0" stroke="#ffebd0" stroke-width="1.51"/><path d="M-111,149L-112,73L-122,249Z" fill="#ffe3c1" stroke="#ffe3c1" stroke-width="1.51"/><path d="M-119,-30L-31,61L-1,-21Z" fill="#ffebd1" stroke="#ffebd1" stroke-width="1.51"/><path d="M51,-98L-2,-122L-1,-21Z" fill="#ffeed5" stroke="#ffeed5" stroke-width="1.51"/><path d="M156,-120L-2,-122L51,-98Z" fill="#ffedd5" stroke="#ffedd5" stroke-width="1.51"/><path d="M1453,-129L-2,-122L673,-120Z" fill="#ffc29f" stroke="#ffc29f" stroke-width="1.51"/><path d="M-97,909L-108,1030L-31,1014Z" fill="#d5856b" stroke="#d5856b" stroke-width="1.51"/><path d="M-31,1014L-108,1030L171,1001Z" fill="#ce8164" stroke="#ce8164" stroke-width="1.51"/><path d="M-123,676L-108,1030L-97,909Z" fill="#e98f72" stroke="#e98f72" stroke-width="1.51"/><path d="M-81,-100L-119,-30L-1,-21Z" fill="#ffefd9" stroke="#ffefd9" stroke-width="1.51"/><path d="M-112,73L-119,-30L-122,249Z" fill="#ffe8ca" stroke="#ffe8ca" stroke-width="1.51"/><path d="M-2,-122L-81,-100L-1,-21Z" fill="#fff0d9" stroke="#fff0d9" stroke-width="1.51"/></svg>