<svg xmlns="http://www.w3.org/2000/svg" width="1440" height="900"><path d="M751,474L768,559L829,481Z" fill="#f2f2f2" stroke="#f2f2f2" stroke-width="1.51"/><path d="M768,559L853,595L829,481Z" fill="#eaeaea" stroke="#eaeaea" stroke-width="1.51"/><path d="M751,474L667,514L768,559Z" fill="#f5f5f5" stroke="#f5f5f5" stroke-width="1.51"/><path d="M829,481L755,394L751,474Z" fill="#f9f9f9" stroke="#f9f9f9" stroke-width="1.51"/><path d="M751,474L686,388L667,514Z" fill="#fefcfb" stroke="#fefcfb" stroke-width="1.51"/><path d="M768,559L776,644L853,595Z" fill="#e4e4e4" stroke="#e4e4e4" stroke-width="1.51"/><path d="M670,598L776,644L768,559Z" fill="#e9e9e9" stroke="#e9e9e9" stroke-width="1.51"/><path d="M829,481L871,403L755,394Z" fill="#f6f2f0" stroke="#f6f2f0" stroke-width="1.51"/><path d="M932,481L871,403L829,481Z" fill="#f0f0f0" stroke="#f0f0f0" stroke-width="1.51"/><path d="M667,514L670,598L768,559Z" fill="#f1efee" stroke="#f1efee" stroke-width="1.51"/><path d="M853,595L932,481L829,481Z" fill="#e8e8e8" stroke="#e8e8e8" stroke-width="1.51"/><path d="M755,394L686,388L751,474Z" fill="#fef9f6" stroke="#fef9f6" stroke-width="1.51"/><path d="M680,332L686,388L755,394Z" fill="#fff2ea" stroke="#fff2ea" stroke-width="1.51"/><path d="M776,644L854,662L853,595Z" fill="#dcdcdc" stroke="#dcdcdc" stroke-width="1.51"/><path d="M853,595L953,578L932,481Z" fill="#e0e0e0" stroke="#e0e0e0" stroke-width="1.51"/><path d="M933,684L953,578L853,595Z" fill="#d6d6d6" stroke="#d6d6d6" stroke-width="1.51"/><path d="M670,598L675,651L776,644Z" fill="#e6e4e4" stroke="#e6e4e4" stroke-width="1.51"/><path d="M776,644L851,750L854,662Z" fill="#d4d4d4" stroke="#d4d4d4" stroke-width="1.51"/><path d="M932,481L952,422L871,403Z" fill="#eceae9" stroke="#eceae9" stroke-width="1.51"/><path d="M1025,477L952,422L932,481Z" fill="#e5e5e5" stroke="#e5e5e5" stroke-width="1.51"/><path d="M850,304L766,315L755,394Z" fill="#f8e8de" stroke="#f8e8de" stroke-width="1.51"/><path d="M850,304L755,394L871,403Z" fill="#f5e9e2" stroke="#f5e9e2" stroke-width="1.51"/><path d="M670,598L597,590L675,651Z" fill="#e9e1dd" stroke="#e9e1dd" stroke-width="1.51"/><path d="M667,514L597,590L670,598Z" fill="#f0e8e4" stroke="#f0e8e4" stroke-width="1.51"/><path d="M574,482L597,590L667,514Z" fill="#f5eae4" stroke="#f5eae4" stroke-width="1.51"/><path d="M569,421L574,482L667,514Z" fill="#fcf0e9" stroke="#fcf0e9" stroke-width="1.51"/><path d="M766,315L680,332L755,394Z" fill="#feeee6" stroke="#feeee6" stroke-width="1.51"/><path d="M569,421L667,514L686,388Z" fill="#fff5f0" stroke="#fff5f0" stroke-width="1.51"/><path d="M944,337L850,304L871,403Z" fill="#f0e1d9" stroke="#f0e1d9" stroke-width="1.51"/><path d="M854,662L933,684L853,595Z" fill="#d5d5d5" stroke="#d5d5d5" stroke-width="1.51"/><path d="M851,750L933,684L854,662Z" fill="#cccccc" stroke="#cccccc" stroke-width="1.51"/><path d="M953,578L1025,477L932,481Z" fill="#dfdfdf" stroke="#dfdfdf" stroke-width="1.51"/><path d="M933,684L1006,582L953,578Z" fill="#d1d1d1" stroke="#d1d1d1" stroke-width="1.51"/><path d="M952,422L944,337L871,403Z" fill="#ece2de" stroke="#ece2de" stroke-width="1.51"/><path d="M1042,399L944,337L952,422Z" fill="#e6dcd7" stroke="#e6dcd7" stroke-width="1.51"/><path d="M610,314L569,421L686,388Z" fill="#ffe9dd" stroke="#ffe9dd" stroke-width="1.51"/><path d="M1006,582L1025,477L953,578Z" fill="#d7d7d7" stroke="#d7d7d7" stroke-width="1.51"/><path d="M675,651L743,751L776,644Z" fill="#dddddd" stroke="#dddddd" stroke-width="1.51"/><path d="M664,771L743,751L675,651Z" fill="#d5d2d0" stroke="#d5d2d0" stroke-width="1.51"/><path d="M743,751L851,750L776,644Z" fill="#d1d1d1" stroke="#d1d1d1" stroke-width="1.51"/><path d="M597,590L572,660L675,651Z" fill="#e6dad4" stroke="#e6dad4" stroke-width="1.51"/><path d="M515,587L572,660L597,590Z" fill="#e8d9d0" stroke="#e8d9d0" stroke-width="1.51"/><path d="M515,587L597,590L574,482Z" fill="#f2e2d8" stroke="#f2e2d8" stroke-width="1.51"/><path d="M680,332L610,314L686,388Z" fill="#ffe9dc" stroke="#ffe9dc" stroke-width="1.51"/><path d="M693,225L610,314L680,332Z" fill="#fedece" stroke="#fedece" stroke-width="1.51"/><path d="M693,225L680,332L766,315Z" fill="#fee4d7" stroke="#fee4d7" stroke-width="1.51"/><path d="M850,304L837,249L766,315Z" fill="#f6dbce" stroke="#f6dbce" stroke-width="1.51"/><path d="M927,213L837,249L850,304Z" fill="#f1cfc0" stroke="#f1cfc0" stroke-width="1.51"/><path d="M837,249L776,243L766,315Z" fill="#f8d9cb" stroke="#f8d9cb" stroke-width="1.51"/><path d="M1025,477L1042,399L952,422Z" fill="#e3e0df" stroke="#e3e0df" stroke-width="1.51"/><path d="M944,337L927,213L850,304Z" fill="#eed2c5" stroke="#eed2c5" stroke-width="1.51"/><path d="M1088,475L1042,399L1025,477Z" fill="#dedede" stroke="#dedede" stroke-width="1.51"/><path d="M500,484L515,587L574,482Z" fill="#f6e2d7" stroke="#f6e2d7" stroke-width="1.51"/><path d="M582,751L664,771L675,651Z" fill="#d5cdc8" stroke="#d5cdc8" stroke-width="1.51"/><path d="M743,751L742,823L851,750Z" fill="#c4c4c4" stroke="#c4c4c4" stroke-width="1.51"/><path d="M569,421L500,484L574,482Z" fill="#fdebe1" stroke="#fdebe1" stroke-width="1.51"/><path d="M490,414L500,484L569,421Z" fill="#fee7db" stroke="#fee7db" stroke-width="1.51"/><path d="M933,684L1037,662L1006,582Z" fill="#c9c9c9" stroke="#c9c9c9" stroke-width="1.51"/><path d="M1006,582L1088,475L1025,477Z" fill="#d7d7d7" stroke="#d7d7d7" stroke-width="1.51"/><path d="M1035,735L1037,662L933,684Z" fill="#c0c0c0" stroke="#c0c0c0" stroke-width="1.51"/><path d="M851,750L940,765L933,684Z" fill="#c2c2c2" stroke="#c2c2c2" stroke-width="1.51"/><path d="M916,824L940,765L851,750Z" fill="#b9b9b9" stroke="#b9b9b9" stroke-width="1.51"/><path d="M762,154L693,225L776,243Z" fill="#fbd0bd" stroke="#fbd0bd" stroke-width="1.51"/><path d="M776,243L693,225L766,315Z" fill="#fcdbcc" stroke="#fcdbcc" stroke-width="1.51"/><path d="M1127,579L1088,475L1006,582Z" fill="#cfcfcf" stroke="#cfcfcf" stroke-width="1.51"/><path d="M511,333L490,414L569,421Z" fill="#fee0d0" stroke="#fee0d0" stroke-width="1.51"/><path d="M511,333L569,421L610,314Z" fill="#fee0cf" stroke="#fee0cf" stroke-width="1.51"/><path d="M664,771L742,823L743,751Z" fill="#c8c8c8" stroke="#c8c8c8" stroke-width="1.51"/><path d="M664,771L688,860L742,823Z" fill="#c0bdbc" stroke="#c0bdbc" stroke-width="1.51"/><path d="M572,660L582,751L675,651Z" fill="#dcd1cb" stroke="#dcd1cb" stroke-width="1.51"/><path d="M522,756L582,751L572,660Z" fill="#d5c5bc" stroke="#d5c5bc" stroke-width="1.51"/><path d="M742,823L847,831L851,750Z" fill="#bcbcbc" stroke="#bcbcbc" stroke-width="1.51"/><path d="M1042,399L1043,307L944,337Z" fill="#e2d3cb" stroke="#e2d3cb" stroke-width="1.51"/><path d="M1124,327L1043,307L1042,399Z" fill="#dcccc4" stroke="#dcccc4" stroke-width="1.51"/><path d="M519,248L511,333L610,314Z" fill="#fdd4be" stroke="#fdd4be" stroke-width="1.51"/><path d="M1009,213L927,213L944,337Z" fill="#e7c6b6" stroke="#e7c6b6" stroke-width="1.51"/><path d="M837,249L762,154L776,243Z" fill="#f7cdbb" stroke="#f7cdbb" stroke-width="1.51"/><path d="M693,225L596,237L610,314Z" fill="#fdd4c0" stroke="#fdd4c0" stroke-width="1.51"/><path d="M1037,662L1127,579L1006,582Z" fill="#c8c8c8" stroke="#c8c8c8" stroke-width="1.51"/><path d="M940,765L1035,735L933,684Z" fill="#bcbcbc" stroke="#bcbcbc" stroke-width="1.51"/><path d="M1016,835L1035,735L940,765Z" fill="#afafaf" stroke="#afafaf" stroke-width="1.51"/><path d="M847,831L916,824L851,750Z" fill="#b7b7b7" stroke="#b7b7b7" stroke-width="1.51"/><path d="M515,587L495,684L572,660Z" fill="#e3cfc4" stroke="#e3cfc4" stroke-width="1.51"/><path d="M438,565L495,684L515,587Z" fill="#e8cdc0" stroke="#e8cdc0" stroke-width="1.51"/><path d="M438,565L515,587L500,484Z" fill="#f3d7ca" stroke="#f3d7ca" stroke-width="1.51"/><path d="M1088,475L1110,402L1042,399Z" fill="#dad7d4" stroke="#dad7d4" stroke-width="1.51"/><path d="M1187,497L1110,402L1088,475Z" fill="#d1d1d1" stroke="#d1d1d1" stroke-width="1.51"/><path d="M1108,680L1127,579L1037,662Z" fill="#bebebe" stroke="#bebebe" stroke-width="1.51"/><path d="M397,507L438,565L500,484Z" fill="#f5d4c5" stroke="#f5d4c5" stroke-width="1.51"/><path d="M430,405L500,484L490,414Z" fill="#fedfd0" stroke="#fedfd0" stroke-width="1.51"/><path d="M693,225L668,159L596,237Z" fill="#fccab4" stroke="#fccab4" stroke-width="1.51"/><path d="M861,137L762,154L837,249Z" fill="#f2c1b0" stroke="#f2c1b0" stroke-width="1.51"/><path d="M585,823L688,860L664,771Z" fill="#c0b8b4" stroke="#c0b8b4" stroke-width="1.51"/><path d="M495,684L522,756L572,660Z" fill="#dac6bc" stroke="#dac6bc" stroke-width="1.51"/><path d="M421,758L522,756L495,684Z" fill="#d2b7aa" stroke="#d2b7aa" stroke-width="1.51"/><path d="M742,823L759,928L847,831Z" fill="#afafaf" stroke="#afafaf" stroke-width="1.51"/><path d="M949,924L1016,835L916,824Z" fill="#9f9f9f" stroke="#9f9f9f" stroke-width="1.51"/><path d="M585,823L664,771L582,751Z" fill="#c8bdb7" stroke="#c8bdb7" stroke-width="1.51"/><path d="M1035,735L1108,680L1037,662Z" fill="#bababa" stroke="#bababa" stroke-width="1.51"/><path d="M762,154L668,159L693,225Z" fill="#fbc8b6" stroke="#fbc8b6" stroke-width="1.51"/><path d="M1043,307L1009,213L944,337Z" fill="#e3c9bc" stroke="#e3c9bc" stroke-width="1.51"/><path d="M927,213L861,137L837,249Z" fill="#efc2b0" stroke="#efc2b0" stroke-width="1.51"/><path d="M1122,244L1009,213L1043,307Z" fill="#dcbbac" stroke="#dcbbac" stroke-width="1.51"/><path d="M522,756L585,823L582,751Z" fill="#c9b9b1" stroke="#c9b9b1" stroke-width="1.51"/><path d="M511,333L430,405L490,414Z" fill="#fed8c5" stroke="#fed8c5" stroke-width="1.51"/><path d="M399,315L430,405L511,333Z" fill="#fcceb7" stroke="#fcceb7" stroke-width="1.51"/><path d="M519,248L610,314L596,237Z" fill="#fdd0b9" stroke="#fdd0b9" stroke-width="1.51"/><path d="M489,152L519,248L596,237Z" fill="#f9bfa3" stroke="#f9bfa3" stroke-width="1.51"/><path d="M952,162L861,137L927,213Z" fill="#e8b6a5" stroke="#e8b6a5" stroke-width="1.51"/><path d="M696,45L600,138L668,159Z" fill="#f3b19e" stroke="#f3b19e" stroke-width="1.51"/><path d="M1176,339L1124,327L1110,402Z" fill="#d1c4bc" stroke="#d1c4bc" stroke-width="1.51"/><path d="M1110,402L1124,327L1042,399Z" fill="#d8cdc7" stroke="#d8cdc7" stroke-width="1.51"/><path d="M1009,213L952,162L927,213Z" fill="#e4b7a6" stroke="#e4b7a6" stroke-width="1.51"/><path d="M430,405L397,507L500,484Z" fill="#fcdacb" stroke="#fcdacb" stroke-width="1.51"/><path d="M438,565L407,681L495,684Z" fill="#e3c3b4" stroke="#e3c3b4" stroke-width="1.51"/><path d="M1035,735L1127,767L1108,680Z" fill="#afafaf" stroke="#afafaf" stroke-width="1.51"/><path d="M916,824L1016,835L940,765Z" fill="#adadad" stroke="#adadad" stroke-width="1.51"/><path d="M949,924L916,824L847,831Z" fill="#a5a5a5" stroke="#a5a5a5" stroke-width="1.51"/><path d="M1127,579L1187,497L1088,475Z" fill="#c9c9c9" stroke="#c9c9c9" stroke-width="1.51"/><path d="M1192,579L1187,497L1127,579Z" fill="#bfbfbf" stroke="#bfbfbf" stroke-width="1.51"/><path d="M1179,652L1192,579L1127,579Z" fill="#b9b9b9" stroke="#b9b9b9" stroke-width="1.51"/><path d="M1179,652L1127,579L1108,680Z" fill="#b7b7b7" stroke="#b7b7b7" stroke-width="1.51"/><path d="M339,560L407,681L438,565Z" fill="#e9c1b0" stroke="#e9c1b0" stroke-width="1.51"/><path d="M522,756L490,854L585,823Z" fill="#c2aea4" stroke="#c2aea4" stroke-width="1.51"/><path d="M1204,739L1179,652L1108,680Z" fill="#ababab" stroke="#ababab" stroke-width="1.51"/><path d="M696,45L668,159L762,154Z" fill="#f6b8a8" stroke="#f6b8a8" stroke-width="1.51"/><path d="M668,159L600,138L596,237Z" fill="#f9bfa8" stroke="#f9bfa8" stroke-width="1.51"/><path d="M688,860L759,928L742,823Z" fill="#b1b1b1" stroke="#b1b1b1" stroke-width="1.51"/><path d="M673,918L759,928L688,860Z" fill="#aaa8a8" stroke="#aaa8a8" stroke-width="1.51"/><path d="M585,908L688,860L585,823Z" fill="#b4aaa4" stroke="#b4aaa4" stroke-width="1.51"/><path d="M585,908L673,918L688,860Z" fill="#aca5a1" stroke="#aca5a1" stroke-width="1.51"/><path d="M1209,413L1176,339L1110,402Z" fill="#cdc3be" stroke="#cdc3be" stroke-width="1.51"/><path d="M1124,327L1122,244L1043,307Z" fill="#d7beb2" stroke="#d7beb2" stroke-width="1.51"/><path d="M1009,213L1020,134L952,162Z" fill="#dfae9d" stroke="#dfae9d" stroke-width="1.51"/><path d="M1109,835L1127,767L1035,735Z" fill="#a4a4a4" stroke="#a4a4a4" stroke-width="1.51"/><path d="M759,928L828,935L847,831Z" fill="#a3a3a3" stroke="#a3a3a3" stroke-width="1.51"/><path d="M1176,339L1122,244L1124,327Z" fill="#d0b9ae" stroke="#d0b9ae" stroke-width="1.51"/><path d="M1262,393L1209,413L1291,474Z" fill="#bfbbb9" stroke="#bfbbb9" stroke-width="1.51"/><path d="M1187,497L1209,413L1110,402Z" fill="#cccac9" stroke="#cccac9" stroke-width="1.51"/><path d="M416,234L511,333L519,248Z" fill="#fbc4a9" stroke="#fbc4a9" stroke-width="1.51"/><path d="M416,234L399,315L511,333Z" fill="#fac2a8" stroke="#fac2a8" stroke-width="1.51"/><path d="M430,405L334,476L397,507Z" fill="#fcd2c0" stroke="#fcd2c0" stroke-width="1.51"/><path d="M407,681L421,758L495,684Z" fill="#d8b7a8" stroke="#d8b7a8" stroke-width="1.51"/><path d="M952,162L947,81L861,137Z" fill="#e3a99a" stroke="#e3a99a" stroke-width="1.51"/><path d="M861,137L832,54L762,154Z" fill="#ecafa0" stroke="#ecafa0" stroke-width="1.51"/><path d="M1089,140L1020,134L1009,213Z" fill="#d9a696" stroke="#d9a696" stroke-width="1.51"/><path d="M828,935L949,924L847,831Z" fill="#9e9e9e" stroke="#9e9e9e" stroke-width="1.51"/><path d="M1016,835L1109,835L1035,735Z" fill="#a4a4a4" stroke="#a4a4a4" stroke-width="1.51"/><path d="M490,854L585,908L585,823Z" fill="#b4a49b" stroke="#b4a49b" stroke-width="1.51"/><path d="M742,1025L828,935L759,928Z" fill="#959595" stroke="#959595" stroke-width="1.51"/><path d="M397,507L339,560L438,565Z" fill="#f1c9b7" stroke="#f1c9b7" stroke-width="1.51"/><path d="M320,771L412,824L421,758Z" fill="#c69e8d" stroke="#c69e8d" stroke-width="1.51"/><path d="M334,476L339,560L397,507Z" fill="#f4c6b4" stroke="#f4c6b4" stroke-width="1.51"/><path d="M421,758L490,854L522,756Z" fill="#c6ab9e" stroke="#c6ab9e" stroke-width="1.51"/><path d="M326,409L334,476L430,405Z" fill="#fccdb9" stroke="#fccdb9" stroke-width="1.51"/><path d="M1097,918L1109,835L1016,835Z" fill="#929292" stroke="#929292" stroke-width="1.51"/><path d="M1127,767L1204,739L1108,680Z" fill="#a6a6a6" stroke="#a6a6a6" stroke-width="1.51"/><path d="M1020,134L947,81L952,162Z" fill="#dda394" stroke="#dda394" stroke-width="1.51"/><path d="M947,81L832,54L861,137Z" fill="#e4a395" stroke="#e4a395" stroke-width="1.51"/><path d="M949,924L1009,914L1016,835Z" fill="#949494" stroke="#949494" stroke-width="1.51"/><path d="M342,338L326,409L430,405Z" fill="#fbc6af" stroke="#fbc6af" stroke-width="1.51"/><path d="M489,152L416,234L519,248Z" fill="#f7b597" stroke="#f7b597" stroke-width="1.51"/><path d="M600,138L489,152L596,237Z" fill="#f7b89f" stroke="#f7b89f" stroke-width="1.51"/><path d="M511,81L489,152L600,138Z" fill="#f1a68e" stroke="#f1a68e" stroke-width="1.51"/><path d="M832,54L773,41L762,154Z" fill="#eca99c" stroke="#eca99c" stroke-width="1.51"/><path d="M247,564L323,686L339,560Z" fill="#e4b0a0" stroke="#e4b0a0" stroke-width="1.51"/><path d="M342,338L430,405L399,315Z" fill="#fbc6ac" stroke="#fbc6ac" stroke-width="1.51"/><path d="M773,41L696,45L762,154Z" fill="#f0ad9f" stroke="#f0ad9f" stroke-width="1.51"/><path d="M1197,846L1204,739L1127,767Z" fill="#969696" stroke="#969696" stroke-width="1.51"/><path d="M1179,652L1266,587L1192,579Z" fill="#b1b1b1" stroke="#b1b1b1" stroke-width="1.51"/><path d="M1192,579L1266,587L1187,497Z" fill="#b8b8b8" stroke="#b8b8b8" stroke-width="1.51"/><path d="M339,214L342,338L399,315Z" fill="#f7b496" stroke="#f7b496" stroke-width="1.51"/><path d="M1122,244L1089,140L1009,213Z" fill="#d8ad9b" stroke="#d8ad9b" stroke-width="1.51"/><path d="M1020,134L1005,74L947,81Z" fill="#d9998c" stroke="#d9998c" stroke-width="1.51"/><path d="M1182,163L1089,140L1122,244Z" fill="#cd9f8e" stroke="#cd9f8e" stroke-width="1.51"/><path d="M1181,225L1122,244L1176,339Z" fill="#cdafa1" stroke="#cdafa1" stroke-width="1.51"/><path d="M1268,666L1266,587L1179,652Z" fill="#a9a9a9" stroke="#a9a9a9" stroke-width="1.51"/><path d="M1262,393L1176,339L1209,413Z" fill="#c5bbb6" stroke="#c5bbb6" stroke-width="1.51"/><path d="M1288,335L1181,225L1176,339Z" fill="#c5aea2" stroke="#c5aea2" stroke-width="1.51"/><path d="M947,81L858,-9L832,54Z" fill="#de988d" stroke="#de988d" stroke-width="1.51"/><path d="M832,54L858,-9L773,41Z" fill="#e29a90" stroke="#e29a90" stroke-width="1.51"/><path d="M1089,140L1005,74L1020,134Z" fill="#d59a8b" stroke="#d59a8b" stroke-width="1.51"/><path d="M421,758L412,824L490,854Z" fill="#c0a092" stroke="#c0a092" stroke-width="1.51"/><path d="M490,854L513,945L585,908Z" fill="#a9968c" stroke="#a9968c" stroke-width="1.51"/><path d="M323,686L421,758L407,681Z" fill="#d7ae9d" stroke="#d7ae9d" stroke-width="1.51"/><path d="M1291,474L1209,413L1187,497Z" fill="#c1c1c1" stroke="#c1c1c1" stroke-width="1.51"/><path d="M247,564L339,560L334,476Z" fill="#efbaaa" stroke="#efbaaa" stroke-width="1.51"/><path d="M339,560L323,686L407,681Z" fill="#e1b4a2" stroke="#e1b4a2" stroke-width="1.51"/><path d="M489,152L428,165L416,234Z" fill="#f4a98a" stroke="#f4a98a" stroke-width="1.51"/><path d="M416,234L339,214L399,315Z" fill="#f7b191" stroke="#f7b191" stroke-width="1.51"/><path d="M400,53L428,165L489,152Z" fill="#ee977b" stroke="#ee977b" stroke-width="1.51"/><path d="M696,45L572,57L600,138Z" fill="#efa592" stroke="#efa592" stroke-width="1.51"/><path d="M1266,587L1291,474L1187,497Z" fill="#b7b7b7" stroke="#b7b7b7" stroke-width="1.51"/><path d="M1266,587L1349,588L1291,474Z" fill="#a9a9a9" stroke="#a9a9a9" stroke-width="1.51"/><path d="M1204,739L1268,666L1179,652Z" fill="#a4a4a4" stroke="#a4a4a4" stroke-width="1.51"/><path d="M828,935L845,1015L949,924Z" fill="#8e8e8e" stroke="#8e8e8e" stroke-width="1.51"/><path d="M949,924L1041,1004L1009,914Z" fill="#858585" stroke="#858585" stroke-width="1.51"/><path d="M742,1025L845,1015L828,935Z" fill="#8c8c8c" stroke="#8c8c8c" stroke-width="1.51"/><path d="M742,1025L759,928L673,918Z" fill="#9b9b9b" stroke="#9b9b9b" stroke-width="1.51"/><path d="M572,57L511,81L600,138Z" fill="#eea18b" stroke="#eea18b" stroke-width="1.51"/><path d="M1204,739L1262,772L1268,666Z" fill="#989898" stroke="#989898" stroke-width="1.51"/><path d="M1109,835L1197,846L1127,767Z" fill="#939393" stroke="#939393" stroke-width="1.51"/><path d="M1009,914L1097,918L1016,835Z" fill="#8f8f8f" stroke="#8f8f8f" stroke-width="1.51"/><path d="M1041,1004L1097,918L1009,914Z" fill="#818181" stroke="#818181" stroke-width="1.51"/><path d="M670,1023L742,1025L673,918Z" fill="#939190" stroke="#939190" stroke-width="1.51"/><path d="M427,914L513,945L490,854Z" fill="#a88e82" stroke="#a88e82" stroke-width="1.51"/><path d="M670,1023L673,918L585,908Z" fill="#9d9692" stroke="#9d9692" stroke-width="1.51"/><path d="M753,-35L679,-15L696,45Z" fill="#e89a91" stroke="#e89a91" stroke-width="1.51"/><path d="M696,45L583,-5L572,57Z" fill="#e99889" stroke="#e99889" stroke-width="1.51"/><path d="M941,-47L858,-9L947,81Z" fill="#d78d84" stroke="#d78d84" stroke-width="1.51"/><path d="M572,1027L670,1023L585,908Z" fill="#948a84" stroke="#948a84" stroke-width="1.51"/><path d="M1089,140L1123,72L1005,74Z" fill="#cf9083" stroke="#cf9083" stroke-width="1.51"/><path d="M1005,74L941,-47L947,81Z" fill="#d48e84" stroke="#d48e84" stroke-width="1.51"/><path d="M1181,225L1182,163L1122,244Z" fill="#cba290" stroke="#cba290" stroke-width="1.51"/><path d="M1266,130L1182,163L1181,225Z" fill="#c09181" stroke="#c09181" stroke-width="1.51"/><path d="M1288,335L1176,339L1262,393Z" fill="#c1b3ac" stroke="#c1b3ac" stroke-width="1.51"/><path d="M1097,918L1197,846L1109,835Z" fill="#888888" stroke="#888888" stroke-width="1.51"/><path d="M1358,403L1288,335L1262,393Z" fill="#b6aba5" stroke="#b6aba5" stroke-width="1.51"/><path d="M412,824L427,914L490,854Z" fill="#b39385" stroke="#b39385" stroke-width="1.51"/><path d="M323,686L320,771L421,758Z" fill="#cea291" stroke="#cea291" stroke-width="1.51"/><path d="M233,741L320,771L323,686Z" fill="#cb9888" stroke="#cb9888" stroke-width="1.51"/><path d="M326,409L261,410L334,476Z" fill="#f9c2b0" stroke="#f9c2b0" stroke-width="1.51"/><path d="M342,338L261,410L326,409Z" fill="#f7bca6" stroke="#f7bca6" stroke-width="1.51"/><path d="M240,310L261,410L342,338Z" fill="#f5b19a" stroke="#f5b19a" stroke-width="1.51"/><path d="M753,-35L696,45L773,41Z" fill="#e89e95" stroke="#e89e95" stroke-width="1.51"/><path d="M572,57L486,-39L511,81Z" fill="#e58e7a" stroke="#e58e7a" stroke-width="1.51"/><path d="M428,165L339,214L416,234Z" fill="#f5a785" stroke="#f5a785" stroke-width="1.51"/><path d="M345,128L339,214L428,165Z" fill="#ef9a78" stroke="#ef9a78" stroke-width="1.51"/><path d="M513,945L572,1027L585,908Z" fill="#9a8b82" stroke="#9a8b82" stroke-width="1.51"/><path d="M333,846L427,914L412,824Z" fill="#b28c7c" stroke="#b28c7c" stroke-width="1.51"/><path d="M845,1015L931,1032L949,924Z" fill="#838383" stroke="#838383" stroke-width="1.51"/><path d="M742,1025L931,1032L845,1015Z" fill="#818181" stroke="#818181" stroke-width="1.51"/><path d="M492,1033L931,1032L742,1025Z" fill="#898989" stroke="#898989" stroke-width="1.51"/><path d="M1197,846L1262,772L1204,739Z" fill="#8f8f8f" stroke="#8f8f8f" stroke-width="1.51"/><path d="M1268,666L1349,588L1266,587Z" fill="#a2a2a2" stroke="#a2a2a2" stroke-width="1.51"/><path d="M233,497L247,564L334,476Z" fill="#efb6a6" stroke="#efb6a6" stroke-width="1.51"/><path d="M858,-9L753,-35L773,41Z" fill="#e1968d" stroke="#e1968d" stroke-width="1.51"/><path d="M1182,163L1123,72L1089,140Z" fill="#c89081" stroke="#c89081" stroke-width="1.51"/><path d="M261,410L233,497L334,476Z" fill="#f6bdad" stroke="#f6bdad" stroke-width="1.51"/><path d="M931,1032L1041,1004L949,924Z" fill="#7e7e7e" stroke="#7e7e7e" stroke-width="1.51"/><path d="M1186,937L1260,841L1197,846Z" fill="#7b7b7b" stroke="#7b7b7b" stroke-width="1.51"/><path d="M679,-15L583,-5L696,45Z" fill="#e7978a" stroke="#e7978a" stroke-width="1.51"/><path d="M400,53L345,128L428,165Z" fill="#ea8e70" stroke="#ea8e70" stroke-width="1.51"/><path d="M611,-108L583,-5L679,-15Z" fill="#de897f" stroke="#de897f" stroke-width="1.51"/><path d="M670,1023L572,1027L742,1025Z" fill="#8a8582" stroke="#8a8582" stroke-width="1.51"/><path d="M492,1033L572,1027L513,945Z" fill="#8f7c72" stroke="#8f7c72" stroke-width="1.51"/><path d="M320,771L333,846L412,824Z" fill="#be9382" stroke="#be9382" stroke-width="1.51"/><path d="M437,1008L492,1033L513,945Z" fill="#91786c" stroke="#91786c" stroke-width="1.51"/><path d="M261,826L333,846L320,771Z" fill="#ba8979" stroke="#ba8979" stroke-width="1.51"/><path d="M1386,651L1349,588L1268,666Z" fill="#979797" stroke="#979797" stroke-width="1.51"/><path d="M1291,474L1358,403L1262,393Z" fill="#b5b1af" stroke="#b5b1af" stroke-width="1.51"/><path d="M1349,588L1360,471L1291,474Z" fill="#a8a8a8" stroke="#a8a8a8" stroke-width="1.51"/><path d="M1370,745L1386,651L1268,666Z" fill="#8e8e8e" stroke="#8e8e8e" stroke-width="1.51"/><path d="M1197,846L1260,841L1262,772Z" fill="#858585" stroke="#858585" stroke-width="1.51"/><path d="M1186,937L1197,846L1097,918Z" fill="#7c7c7c" stroke="#7c7c7c" stroke-width="1.51"/><path d="M1288,335L1297,240L1181,225Z" fill="#bda092" stroke="#bda092" stroke-width="1.51"/><path d="M1182,163L1208,82L1123,72Z" fill="#c08578" stroke="#c08578" stroke-width="1.51"/><path d="M1382,317L1297,240L1288,335Z" fill="#b19a8f" stroke="#b19a8f" stroke-width="1.51"/><path d="M1039,-38L941,-47L1005,74Z" fill="#cc827a" stroke="#cc827a" stroke-width="1.51"/><path d="M858,-9L779,-101L753,-35Z" fill="#d88c87" stroke="#d88c87" stroke-width="1.51"/><path d="M1360,471L1358,403L1291,474Z" fill="#afafaf" stroke="#afafaf" stroke-width="1.51"/><path d="M339,214L240,310L342,338Z" fill="#f3aa8d" stroke="#f3aa8d" stroke-width="1.51"/><path d="M261,410L164,421L233,497Z" fill="#f3b2a3" stroke="#f3b2a3" stroke-width="1.51"/><path d="M177,599L231,686L247,564Z" fill="#dd9e90" stroke="#dd9e90" stroke-width="1.51"/><path d="M247,564L231,686L323,686Z" fill="#dba293" stroke="#dba293" stroke-width="1.51"/><path d="M1109,1013L1186,937L1097,918Z" fill="#737373" stroke="#737373" stroke-width="1.51"/><path d="M339,214L233,252L240,310Z" fill="#ef9c7f" stroke="#ef9c7f" stroke-width="1.51"/><path d="M400,53L489,152L511,81Z" fill="#eb947a" stroke="#eb947a" stroke-width="1.51"/><path d="M1041,1004L1109,1013L1097,918Z" fill="#747474" stroke="#747474" stroke-width="1.51"/><path d="M931,1032L1109,1013L1041,1004Z" fill="#717171" stroke="#717171" stroke-width="1.51"/><path d="M437,1008L513,945L427,914Z" fill="#9a7e71" stroke="#9a7e71" stroke-width="1.51"/><path d="M572,1027L492,1033L742,1025Z" fill="#897e78" stroke="#897e78" stroke-width="1.51"/><path d="M486,-39L400,53L511,81Z" fill="#e3846f" stroke="#e3846f" stroke-width="1.51"/><path d="M352,937L437,1008L427,914Z" fill="#9a7868" stroke="#9a7868" stroke-width="1.51"/><path d="M231,686L233,741L323,686Z" fill="#d09889" stroke="#d09889" stroke-width="1.51"/><path d="M1108,-4L1039,-38L1005,74Z" fill="#c87f77" stroke="#c87f77" stroke-width="1.51"/><path d="M1266,130L1208,82L1182,163Z" fill="#bb8375" stroke="#bb8375" stroke-width="1.51"/><path d="M1108,-4L1005,74L1123,72Z" fill="#c8847a" stroke="#c8847a" stroke-width="1.51"/><path d="M1204,-27L1108,-4L1123,72Z" fill="#b9736b" stroke="#b9736b" stroke-width="1.51"/><path d="M352,937L427,914L333,846Z" fill="#a7806f" stroke="#a7806f" stroke-width="1.51"/><path d="M244,927L352,937L333,846Z" fill="#a27465" stroke="#a27465" stroke-width="1.51"/><path d="M258,128L233,252L339,214Z" fill="#eb8f70" stroke="#eb8f70" stroke-width="1.51"/><path d="M143,485L177,599L233,497Z" fill="#e7a497" stroke="#e7a497" stroke-width="1.51"/><path d="M233,497L177,599L247,564Z" fill="#e6a698" stroke="#e6a698" stroke-width="1.51"/><path d="M258,128L339,214L345,128Z" fill="#e98b6d" stroke="#e98b6d" stroke-width="1.51"/><path d="M1208,82L1204,-27L1123,72Z" fill="#b7756b" stroke="#b7756b" stroke-width="1.51"/><path d="M1297,240L1266,130L1181,225Z" fill="#bd9281" stroke="#bd9281" stroke-width="1.51"/><path d="M1351,165L1266,130L1297,240Z" fill="#b08373" stroke="#b08373" stroke-width="1.51"/><path d="M753,-35L673,-120L679,-15Z" fill="#db8f8a" stroke="#db8f8a" stroke-width="1.51"/><path d="M583,-5L486,-39L572,57Z" fill="#e38b7a" stroke="#e38b7a" stroke-width="1.51"/><path d="M838,-107L779,-101L858,-9Z" fill="#cc8683" stroke="#cc8683" stroke-width="1.51"/><path d="M838,-107L858,-9L920,-112Z" fill="#c7827f" stroke="#c7827f" stroke-width="1.51"/><path d="M233,741L261,826L320,771Z" fill="#c08a7c" stroke="#c08a7c" stroke-width="1.51"/><path d="M1451,474L1446,423L1360,471Z" fill="#9f9f9f" stroke="#9f9f9f" stroke-width="1.51"/><path d="M1446,423L1382,317L1358,403Z" fill="#a49b95" stroke="#a49b95" stroke-width="1.51"/><path d="M1370,745L1268,666L1262,772Z" fill="#8e8e8e" stroke="#8e8e8e" stroke-width="1.51"/><path d="M164,421L261,410L240,310Z" fill="#f2a996" stroke="#f2a996" stroke-width="1.51"/><path d="M231,686L146,747L233,741Z" fill="#c7897c" stroke="#c7897c" stroke-width="1.51"/><path d="M233,741L158,843L261,826Z" fill="#b77b6e" stroke="#b77b6e" stroke-width="1.51"/><path d="M920,-112L858,-9L941,-47Z" fill="#cb817d" stroke="#cb817d" stroke-width="1.51"/><path d="M1358,403L1382,317L1288,335Z" fill="#aea098" stroke="#aea098" stroke-width="1.51"/><path d="M1446,423L1358,403L1360,471Z" fill="#a5a3a2" stroke="#a5a3a2" stroke-width="1.51"/><path d="M1366,821L1370,745L1262,772Z" fill="#7e7e7e" stroke="#7e7e7e" stroke-width="1.51"/><path d="M1186,937L1289,930L1260,841Z" fill="#707070" stroke="#707070" stroke-width="1.51"/><path d="M1109,1013L1191,990L1186,937Z" fill="#696969" stroke="#696969" stroke-width="1.51"/><path d="M515,-94L486,-39L583,-5Z" fill="#d97e70" stroke="#d97e70" stroke-width="1.51"/><path d="M1366,821L1262,772L1260,841Z" fill="#7d7d7d" stroke="#7d7d7d" stroke-width="1.51"/><path d="M147,328L164,421L240,310Z" fill="#ed9f8b" stroke="#ed9f8b" stroke-width="1.51"/><path d="M1009,-92L941,-47L1039,-38Z" fill="#bf7874" stroke="#bf7874" stroke-width="1.51"/><path d="M1009,-92L920,-112L941,-47Z" fill="#bb7876" stroke="#bb7876" stroke-width="1.51"/><path d="M920,-112L673,-120L838,-107Z" fill="#bf8181" stroke="#bf8181" stroke-width="1.51"/><path d="M838,-107L673,-120L779,-101Z" fill="#c58685" stroke="#c58685" stroke-width="1.51"/><path d="M779,-101L673,-120L753,-35Z" fill="#d08b89" stroke="#d08b89" stroke-width="1.51"/><path d="M1094,-98L1009,-92L1039,-38Z" fill="#b4706e" stroke="#b4706e" stroke-width="1.51"/><path d="M1094,-98L1039,-38L1108,-4Z" fill="#ba706c" stroke="#ba706c" stroke-width="1.51"/><path d="M177,599L163,665L231,686Z" fill="#d59487" stroke="#d59487" stroke-width="1.51"/><path d="M79,559L163,665L177,599Z" fill="#d79287" stroke="#d79287" stroke-width="1.51"/><path d="M673,-120L611,-108L679,-15Z" fill="#d18680" stroke="#d18680" stroke-width="1.51"/><path d="M412,-29L346,41L400,53Z" fill="#de765f" stroke="#de765f" stroke-width="1.51"/><path d="M400,53L346,41L345,128Z" fill="#e37e63" stroke="#e37e63" stroke-width="1.51"/><path d="M164,421L143,485L233,497Z" fill="#eeaa9d" stroke="#eeaa9d" stroke-width="1.51"/><path d="M1266,130L1264,71L1208,82Z" fill="#b3776a" stroke="#b3776a" stroke-width="1.51"/><path d="M1352,67L1264,71L1266,130Z" fill="#aa6d61" stroke="#aa6d61" stroke-width="1.51"/><path d="M176,236L147,328L240,310Z" fill="#ea937c" stroke="#ea937c" stroke-width="1.51"/><path d="M76,398L70,476L143,485Z" fill="#e99f95" stroke="#e99f95" stroke-width="1.51"/><path d="M346,41L258,128L345,128Z" fill="#e27b61" stroke="#e27b61" stroke-width="1.51"/><path d="M1191,990L1289,930L1186,937Z" fill="#676767" stroke="#676767" stroke-width="1.51"/><path d="M352,937L347,996L437,1008Z" fill="#926d5d" stroke="#926d5d" stroke-width="1.51"/><path d="M437,1008L347,996L492,1033Z" fill="#8b6c5e" stroke="#8b6c5e" stroke-width="1.51"/><path d="M244,927L347,996L352,937Z" fill="#956859" stroke="#956859" stroke-width="1.51"/><path d="M244,927L333,846L261,826Z" fill="#aa7869" stroke="#aa7869" stroke-width="1.51"/><path d="M1370,745L1449,647L1386,651Z" fill="#848484" stroke="#848484" stroke-width="1.51"/><path d="M1289,930L1366,821L1260,841Z" fill="#6f6f6f" stroke="#6f6f6f" stroke-width="1.51"/><path d="M346,41L242,42L258,128Z" fill="#db6d56" stroke="#db6d56" stroke-width="1.51"/><path d="M486,-39L412,-29L400,53Z" fill="#dc7764" stroke="#dc7764" stroke-width="1.51"/><path d="M428,-97L412,-29L486,-39Z" fill="#d16f60" stroke="#d16f60" stroke-width="1.51"/><path d="M1380,217L1351,165L1297,240Z" fill="#ab8473" stroke="#ab8473" stroke-width="1.51"/><path d="M1382,317L1380,217L1297,240Z" fill="#ab8c7e" stroke="#ab8c7e" stroke-width="1.51"/><path d="M428,-97L515,-94L611,-108Z" fill="#c5756b" stroke="#c5756b" stroke-width="1.51"/><path d="M611,-108L515,-94L583,-5Z" fill="#d28075" stroke="#d28075" stroke-width="1.51"/><path d="M1382,317L1448,228L1380,217Z" fill="#a28375" stroke="#a28375" stroke-width="1.51"/><path d="M1451,474L1360,471L1349,588Z" fill="#9e9e9e" stroke="#9e9e9e" stroke-width="1.51"/><path d="M1451,474L1349,588L1458,601Z" fill="#939393" stroke="#939393" stroke-width="1.51"/><path d="M1458,601L1349,588L1386,651Z" fill="#8f8f8f" stroke="#8f8f8f" stroke-width="1.51"/><path d="M176,236L240,310L233,252Z" fill="#eb9379" stroke="#eb9379" stroke-width="1.51"/><path d="M164,168L176,236L233,252Z" fill="#e68469" stroke="#e68469" stroke-width="1.51"/><path d="M1467,770L1449,647L1370,745Z" fill="#787878" stroke="#787878" stroke-width="1.51"/><path d="M1449,647L1458,601L1386,651Z" fill="#868686" stroke="#868686" stroke-width="1.51"/><path d="M1290,-19L1204,-27L1264,71Z" fill="#a7635b" stroke="#a7635b" stroke-width="1.51"/><path d="M1264,71L1204,-27L1208,82Z" fill="#b06e65" stroke="#b06e65" stroke-width="1.51"/><path d="M1009,-92L1094,-98L920,-112Z" fill="#b07170" stroke="#b07170" stroke-width="1.51"/><path d="M1204,-27L1094,-98L1108,-4Z" fill="#b26964" stroke="#b26964" stroke-width="1.51"/><path d="M163,665L146,747L231,686Z" fill="#cc8a7e" stroke="#cc8a7e" stroke-width="1.51"/><path d="M55,681L146,747L163,665Z" fill="#c78178" stroke="#c78178" stroke-width="1.51"/><path d="M158,843L244,927L261,826Z" fill="#a76d60" stroke="#a76d60" stroke-width="1.51"/><path d="M1446,423L1459,318L1382,317Z" fill="#9e9189" stroke="#9e9189" stroke-width="1.51"/><path d="M1466,147L1352,67L1351,165Z" fill="#9b6759" stroke="#9b6759" stroke-width="1.51"/><path d="M1557,397L1459,318L1446,423Z" fill="#948a85" stroke="#948a85" stroke-width="1.51"/><path d="M1531,493L1446,423L1451,474Z" fill="#949494" stroke="#949494" stroke-width="1.51"/><path d="M428,-97L333,-26L412,-29Z" fill="#d06756" stroke="#d06756" stroke-width="1.51"/><path d="M412,-29L333,-26L346,41Z" fill="#d86c57" stroke="#d86c57" stroke-width="1.51"/><path d="M258,128L164,168L233,252Z" fill="#e47f64" stroke="#e47f64" stroke-width="1.51"/><path d="M515,-94L428,-97L486,-39Z" fill="#cc7164" stroke="#cc7164" stroke-width="1.51"/><path d="M673,-120L428,-97L611,-108Z" fill="#c57b73" stroke="#c57b73" stroke-width="1.51"/><path d="M143,485L79,559L177,599Z" fill="#e0998f" stroke="#e0998f" stroke-width="1.51"/><path d="M70,476L79,559L143,485Z" fill="#e2988f" stroke="#e2988f" stroke-width="1.51"/><path d="M169,40L164,168L258,128Z" fill="#d96752" stroke="#d96752" stroke-width="1.51"/><path d="M78,220L55,321L147,328Z" fill="#e18471" stroke="#e18471" stroke-width="1.51"/><path d="M76,398L143,485L164,421Z" fill="#eca296" stroke="#eca296" stroke-width="1.51"/><path d="M146,747L158,843L233,741Z" fill="#ba7a6e" stroke="#ba7a6e" stroke-width="1.51"/><path d="M68,768L158,843L146,747Z" fill="#b37066" stroke="#b37066" stroke-width="1.51"/><path d="M76,398L164,421L147,328Z" fill="#ea9a8b" stroke="#ea9a8b" stroke-width="1.51"/><path d="M1204,-27L1204,-92L1094,-98Z" fill="#a3615e" stroke="#a3615e" stroke-width="1.51"/><path d="M1351,165L1352,67L1266,130Z" fill="#a77163" stroke="#a77163" stroke-width="1.51"/><path d="M1466,147L1351,165L1380,217Z" fill="#9e7263" stroke="#9e7263" stroke-width="1.51"/><path d="M169,40L242,42L174,-47Z" fill="#cb4c41" stroke="#cb4c41" stroke-width="1.51"/><path d="M333,-26L242,42L346,41Z" fill="#d66652" stroke="#d66652" stroke-width="1.51"/><path d="M1459,318L1448,228L1382,317Z" fill="#9d8579" stroke="#9d8579" stroke-width="1.51"/><path d="M55,321L76,398L147,328Z" fill="#e59080" stroke="#e59080" stroke-width="1.51"/><path d="M1289,930L1387,942L1366,821Z" fill="#606060" stroke="#606060" stroke-width="1.51"/><path d="M1366,821L1467,770L1370,745Z" fill="#727272" stroke="#727272" stroke-width="1.51"/><path d="M1191,990L1295,1026L1289,930Z" fill="#5b5b5b" stroke="#5b5b5b" stroke-width="1.51"/><path d="M1109,1013L1295,1026L1191,990Z" fill="#5d5d5d" stroke="#5d5d5d" stroke-width="1.51"/><path d="M931,1032L1295,1026L1109,1013Z" fill="#656565" stroke="#656565" stroke-width="1.51"/><path d="M1458,601L1531,493L1451,474Z" fill="#8d8d8d" stroke="#8d8d8d" stroke-width="1.51"/><path d="M1541,589L1531,493L1458,601Z" fill="#838383" stroke="#838383" stroke-width="1.51"/><path d="M1458,826L1467,770L1366,821Z" fill="#686868" stroke="#686868" stroke-width="1.51"/><path d="M1352,67L1290,-19L1264,71Z" fill="#a26158" stroke="#a26158" stroke-width="1.51"/><path d="M1094,-98L1262,-111L920,-112Z" fill="#a36766" stroke="#a36766" stroke-width="1.51"/><path d="M1262,-111L1204,-92L1204,-27Z" fill="#995857" stroke="#995857" stroke-width="1.51"/><path d="M1379,993L1387,942L1289,930Z" fill="#525252" stroke="#525252" stroke-width="1.51"/><path d="M1464,904L1458,826L1366,821Z" fill="#5d5d5d" stroke="#5d5d5d" stroke-width="1.51"/><path d="M1458,601L1449,647L1542,657Z" fill="#7d7d7d" stroke="#7d7d7d" stroke-width="1.51"/><path d="M1541,589L1458,601L1542,657Z" fill="#7b7b7b" stroke="#7b7b7b" stroke-width="1.51"/><path d="M1522,154L1466,147L1448,228Z" fill="#8f6455" stroke="#8f6455" stroke-width="1.51"/><path d="M165,935L226,1001L244,927Z" fill="#8e564a" stroke="#8e564a" stroke-width="1.51"/><path d="M244,927L226,1001L347,996Z" fill="#8d5c4e" stroke="#8d5c4e" stroke-width="1.51"/><path d="M347,996L226,1001L492,1033Z" fill="#896253" stroke="#896253" stroke-width="1.51"/><path d="M79,559L55,681L163,665Z" fill="#d0887f" stroke="#d0887f" stroke-width="1.51"/><path d="M158,843L165,935L244,927Z" fill="#9a5f53" stroke="#9a5f53" stroke-width="1.51"/><path d="M-6,656L55,681L79,559Z" fill="#cb7f79" stroke="#cb7f79" stroke-width="1.51"/><path d="M82,915L165,935L158,843Z" fill="#97574f" stroke="#97574f" stroke-width="1.51"/><path d="M70,476L-12,505L79,559Z" fill="#dd8f88" stroke="#dd8f88" stroke-width="1.51"/><path d="M-17,388L-12,505L70,476Z" fill="#df928c" stroke="#df928c" stroke-width="1.51"/><path d="M78,220L147,328L176,236Z" fill="#e3846e" stroke="#e3846e" stroke-width="1.51"/><path d="M78,220L176,236L164,168Z" fill="#e07960" stroke="#e07960" stroke-width="1.51"/><path d="M1542,657L1449,647L1530,742Z" fill="#727272" stroke="#727272" stroke-width="1.51"/><path d="M1387,942L1464,904L1366,821Z" fill="#585858" stroke="#585858" stroke-width="1.51"/><path d="M1295,1026L1379,993L1289,930Z" fill="#505050" stroke="#505050" stroke-width="1.51"/><path d="M55,681L68,768L146,747Z" fill="#bc766e" stroke="#bc766e" stroke-width="1.51"/><path d="M65,136L78,220L164,168Z" fill="#d86955" stroke="#d86955" stroke-width="1.51"/><path d="M1530,742L1449,647L1467,770Z" fill="#707070" stroke="#707070" stroke-width="1.51"/><path d="M1530,742L1467,770L1533,843Z" fill="#5e5e5e" stroke="#5e5e5e" stroke-width="1.51"/><path d="M1542,229L1448,228L1459,318Z" fill="#937668" stroke="#937668" stroke-width="1.51"/><path d="M1448,228L1466,147L1380,217Z" fill="#9a7262" stroke="#9a7262" stroke-width="1.51"/><path d="M1355,-40L1262,-111L1290,-19Z" fill="#914e4c" stroke="#914e4c" stroke-width="1.51"/><path d="M242,42L169,40L258,128Z" fill="#d6614d" stroke="#d6614d" stroke-width="1.51"/><path d="M244,-47L242,42L333,-26Z" fill="#cf5749" stroke="#cf5749" stroke-width="1.51"/><path d="M1533,843L1467,770L1458,826Z" fill="#5d5d5d" stroke="#5d5d5d" stroke-width="1.51"/><path d="M1542,657L1557,397L1541,589Z" fill="#7e7e7e" stroke="#7e7e7e" stroke-width="1.51"/><path d="M1541,589L1557,397L1531,493Z" fill="#858585" stroke="#858585" stroke-width="1.51"/><path d="M1531,493L1557,397L1446,423Z" fill="#8f8d8c" stroke="#8f8d8c" stroke-width="1.51"/><path d="M310,-108L244,-47L333,-26Z" fill="#c55347" stroke="#c55347" stroke-width="1.51"/><path d="M428,-97L310,-108L333,-26Z" fill="#c55d4f" stroke="#c55d4f" stroke-width="1.51"/><path d="M673,-120L310,-108L428,-97Z" fill="#c16c62" stroke="#c16c62" stroke-width="1.51"/><path d="M1290,-19L1262,-111L1204,-27Z" fill="#9c5754" stroke="#9c5754" stroke-width="1.51"/><path d="M1204,-92L1262,-111L1094,-98Z" fill="#975a5a" stroke="#975a5a" stroke-width="1.51"/><path d="M920,-112L1453,-129L673,-120Z" fill="#a86d6e" stroke="#a86d6e" stroke-width="1.51"/><path d="M1355,-40L1290,-19L1352,67Z" fill="#97544e" stroke="#97544e" stroke-width="1.51"/><path d="M1434,1010L1464,904L1387,942Z" fill="#464646" stroke="#464646" stroke-width="1.51"/><path d="M79,990L171,1001L165,935Z" fill="#83463e" stroke="#83463e" stroke-width="1.51"/><path d="M165,935L171,1001L226,1001Z" fill="#864c42" stroke="#864c42" stroke-width="1.51"/><path d="M226,1001L171,1001L492,1033Z" fill="#855749" stroke="#855749" stroke-width="1.51"/><path d="M1452,46L1355,-40L1352,67Z" fill="#905048" stroke="#905048" stroke-width="1.51"/><path d="M1557,397L1558,320L1459,318Z" fill="#8d7f77" stroke="#8d7f77" stroke-width="1.51"/><path d="M-17,388L70,476L76,398Z" fill="#e49289" stroke="#e49289" stroke-width="1.51"/><path d="M4,752L57,844L68,768Z" fill="#ab635e" stroke="#ab635e" stroke-width="1.51"/><path d="M-17,388L76,398L55,321Z" fill="#e18a7e" stroke="#e18a7e" stroke-width="1.51"/><path d="M68,768L57,844L158,843Z" fill="#a9645d" stroke="#a9645d" stroke-width="1.51"/><path d="M4,752L68,768L55,681Z" fill="#b86e68" stroke="#b86e68" stroke-width="1.51"/><path d="M1558,320L1542,229L1459,318Z" fill="#8d766a" stroke="#8d766a" stroke-width="1.51"/><path d="M1466,147L1452,46L1352,67Z" fill="#90574b" stroke="#90574b" stroke-width="1.51"/><path d="M-28,590L-6,656L79,559Z" fill="#cc807b" stroke="#cc807b" stroke-width="1.51"/><path d="M1541,70L1452,46L1466,147Z" fill="#854d42" stroke="#854d42" stroke-width="1.51"/><path d="M310,-108L256,-103L244,-47Z" fill="#ba4b42" stroke="#ba4b42" stroke-width="1.51"/><path d="M244,-47L174,-47L242,42Z" fill="#c84a40" stroke="#c84a40" stroke-width="1.51"/><path d="M57,844L82,915L158,843Z" fill="#9c5952" stroke="#9c5952" stroke-width="1.51"/><path d="M-12,505L-28,590L79,559Z" fill="#d38781" stroke="#d38781" stroke-width="1.51"/><path d="M-36,338L-17,388L55,321Z" fill="#d88377" stroke="#d88377" stroke-width="1.51"/><path d="M-36,338L55,321L-22,216Z" fill="#d47769" stroke="#d47769" stroke-width="1.51"/><path d="M169,40L65,136L164,168Z" fill="#d35d4c" stroke="#d35d4c" stroke-width="1.51"/><path d="M73,46L65,136L169,40Z" fill="#ca4c41" stroke="#ca4c41" stroke-width="1.51"/><path d="M1542,657L1561,992L1557,397Z" fill="#6a6a6a" stroke="#6a6a6a" stroke-width="1.51"/><path d="M1530,742L1533,843L1542,657Z" fill="#626262" stroke="#626262" stroke-width="1.51"/><path d="M1464,904L1533,843L1458,826Z" fill="#535353" stroke="#535353" stroke-width="1.51"/><path d="M1527,905L1533,843L1464,904Z" fill="#494949" stroke="#494949" stroke-width="1.51"/><path d="M1379,993L1434,1010L1387,942Z" fill="#444444" stroke="#444444" stroke-width="1.51"/><path d="M1295,1026L1434,1010L1379,993Z" fill="#434343" stroke="#434343" stroke-width="1.51"/><path d="M1542,229L1522,154L1448,228Z" fill="#8d6757" stroke="#8d6757" stroke-width="1.51"/><path d="M-95,560L-28,590L-12,505Z" fill="#c4817f" stroke="#c4817f" stroke-width="1.51"/><path d="M-24,906L79,990L82,915Z" fill="#85413d" stroke="#85413d" stroke-width="1.51"/><path d="M-6,656L4,752L55,681Z" fill="#bc726d" stroke="#bc726d" stroke-width="1.51"/><path d="M-99,766L4,752L-6,656Z" fill="#aa6866" stroke="#aa6866" stroke-width="1.51"/><path d="M256,-103L174,-47L244,-47Z" fill="#bc433d" stroke="#bc433d" stroke-width="1.51"/><path d="M1561,992L1527,905L1464,904Z" fill="#3d3d3d" stroke="#3d3d3d" stroke-width="1.51"/><path d="M-113,409L-95,508L-12,505Z" fill="#c78786" stroke="#c78786" stroke-width="1.51"/><path d="M-22,216L55,321L78,220Z" fill="#d97261" stroke="#d97261" stroke-width="1.51"/><path d="M1452,46L1439,-35L1355,-40Z" fill="#86443f" stroke="#86443f" stroke-width="1.51"/><path d="M1355,-40L1387,-106L1262,-111Z" fill="#824545" stroke="#824545" stroke-width="1.51"/><path d="M1559,-21L1439,-35L1452,46Z" fill="#7a3a35" stroke="#7a3a35" stroke-width="1.51"/><path d="M65,136L-22,216L78,220Z" fill="#d46352" stroke="#d46352" stroke-width="1.51"/><path d="M73,-14L73,46L169,40Z" fill="#c33f3a" stroke="#c33f3a" stroke-width="1.51"/><path d="M-5,857L82,915L57,844Z" fill="#96504b" stroke="#96504b" stroke-width="1.51"/><path d="M82,915L79,990L165,935Z" fill="#874841" stroke="#874841" stroke-width="1.51"/><path d="M1439,-35L1387,-106L1355,-40Z" fill="#7f3f3d" stroke="#7f3f3d" stroke-width="1.51"/><path d="M-20,128L-22,216L65,136Z" fill="#c9574a" stroke="#c9574a" stroke-width="1.51"/><path d="M4,752L-5,857L57,844Z" fill="#a15a56" stroke="#a15a56" stroke-width="1.51"/><path d="M-24,906L-5,857L-92,817Z" fill="#884a49" stroke="#884a49" stroke-width="1.51"/><path d="M1439,-35L1453,-129L1387,-106Z" fill="#6f3637" stroke="#6f3637" stroke-width="1.51"/><path d="M1522,154L1541,70L1466,147Z" fill="#855246" stroke="#855246" stroke-width="1.51"/><path d="M1542,229L1541,70L1522,154Z" fill="#835547" stroke="#835547" stroke-width="1.51"/><path d="M1559,-21L1541,70L1542,229Z" fill="#7a4439" stroke="#7a4439" stroke-width="1.51"/><path d="M-113,409L-12,505L-17,388Z" fill="#d08a87" stroke="#d08a87" stroke-width="1.51"/><path d="M-28,590L-123,676L-6,656Z" fill="#b57472" stroke="#b57472" stroke-width="1.51"/><path d="M-113,409L-17,388L-36,338Z" fill="#cc827b" stroke="#cc827b" stroke-width="1.51"/><path d="M-95,508L-95,560L-12,505Z" fill="#c28281" stroke="#c28281" stroke-width="1.51"/><path d="M51,-98L73,-14L174,-47Z" fill="#b32a30" stroke="#b32a30" stroke-width="1.51"/><path d="M174,-47L73,-14L169,40Z" fill="#c23c39" stroke="#c23c39" stroke-width="1.51"/><path d="M73,46L-20,128L65,136Z" fill="#c74940" stroke="#c74940" stroke-width="1.51"/><path d="M256,-103L156,-120L174,-47Z" fill="#b13a38" stroke="#b13a38" stroke-width="1.51"/><path d="M310,-108L156,-120L256,-103Z" fill="#af413d" stroke="#af413d" stroke-width="1.51"/><path d="M673,-120L156,-120L310,-108Z" fill="#b95d51" stroke="#b95d51" stroke-width="1.51"/><path d="M-31,61L-20,128L73,46Z" fill="#be3d3a" stroke="#be3d3a" stroke-width="1.51"/><path d="M-117,301L-113,409L-36,338Z" fill="#c27a73" stroke="#c27a73" stroke-width="1.51"/><path d="M-5,857L-24,906L82,915Z" fill="#8d4844" stroke="#8d4844" stroke-width="1.51"/><path d="M-92,817L-5,857L4,752Z" fill="#985756" stroke="#985756" stroke-width="1.51"/><path d="M-95,508L-123,676L-95,560Z" fill="#b27778" stroke="#b27778" stroke-width="1.51"/><path d="M-117,301L-36,338L-22,216Z" fill="#c67065" stroke="#c67065" stroke-width="1.51"/><path d="M1434,1010L1561,992L1464,904Z" fill="#3a3a3a" stroke="#3a3a3a" stroke-width="1.51"/><path d="M1527,905L1561,992L1533,843Z" fill="#3d3d3d" stroke="#3d3d3d" stroke-width="1.51"/><path d="M1533,843L1561,992L1542,657Z" fill="#4f4f4f" stroke="#4f4f4f" stroke-width="1.51"/><path d="M1557,397L1561,992L1558,320Z" fill="#797979" stroke="#797979" stroke-width="1.51"/><path d="M-123,676L-99,766L-6,656Z" fill="#a66969" stroke="#a66969" stroke-width="1.51"/><path d="M-123,676L-28,590L-95,560Z" fill="#b37575" stroke="#b37575" stroke-width="1.51"/><path d="M1524,-101L1453,-129L1439,-35Z" fill="#682f30" stroke="#682f30" stroke-width="1.51"/><path d="M1387,-106L1453,-129L1262,-111Z" fill="#733c3e" stroke="#733c3e" stroke-width="1.51"/><path d="M1262,-111L1453,-129L920,-112Z" fill="#8d5556" stroke="#8d5556" stroke-width="1.51"/><path d="M673,-120L-2,-122L156,-120Z" fill="#af4842" stroke="#af4842" stroke-width="1.51"/><path d="M-113,409L-123,676L-95,508Z" fill="#b77d7e" stroke="#b77d7e" stroke-width="1.51"/><path d="M-113,409L-122,249L-123,676Z" fill="#be8486" stroke="#be8486" stroke-width="1.51"/><path d="M-122,249L-117,301L-22,216Z" fill="#bd675c" stroke="#bd675c" stroke-width="1.51"/><path d="M-97,909L-92,817L-99,766Z" fill="#834c4e" stroke="#834c4e" stroke-width="1.51"/><path d="M-99,766L-92,817L4,752Z" fill="#975a5a" stroke="#975a5a" stroke-width="1.51"/><path d="M-111,149L-122,249L-22,216Z" fill="#ba5c4f" stroke="#ba5c4f" stroke-width="1.51"/><path d="M-1,-21L-31,61L73,46Z" fill="#b82f33" stroke="#b82f33" stroke-width="1.51"/><path d="M-1,-21L73,46L73,-14Z" fill="#ba2c32" stroke="#ba2c32" stroke-width="1.51"/><path d="M1541,70L1559,-21L1452,46Z" fill="#793c35" stroke="#793c35" stroke-width="1.51"/><path d="M1558,320L1559,-21L1542,229Z" fill="#825849" stroke="#825849" stroke-width="1.51"/><path d="M1561,992L1559,-21L1558,320Z" fill="#878483" stroke="#878483" stroke-width="1.51"/><path d="M-117,301L-122,249L-113,409Z" fill="#ba726c" stroke="#ba726c" stroke-width="1.51"/><path d="M-111,149L-22,216L-20,128Z" fill="#bd5348" stroke="#bd5348" stroke-width="1.51"/><path d="M-112,73L-111,149L-20,128Z" fill="#b0423d" stroke="#b0423d" stroke-width="1.51"/><path d="M51,-98L-1,-21L73,-14Z" fill="#b01b2b" stroke="#b01b2b" stroke-width="1.51"/><path d="M156,-120L51,-98L174,-47Z" fill="#ab2c32" stroke="#ab2c32" stroke-width="1.51"/><path d="M1559,-21L1524,-101L1439,-35Z" fill="#6d2e2d" stroke="#6d2e2d" stroke-width="1.51"/><path d="M-97,909L-31,1014L-24,906Z" fill="#713737" stroke="#713737" stroke-width="1.51"/><path d="M-24,906L-31,1014L79,990Z" fill="#763534" stroke="#763534" stroke-width="1.51"/><path d="M79,990L-31,1014L171,1001Z" fill="#753631" stroke="#753631" stroke-width="1.51"/><path d="M171,1001L-108,1030L492,1033Z" fill="#7a4238" stroke="#7a4238" stroke-width="1.51"/><path d="M-112,73L-20,128L-31,61Z" fill="#b13b38" stroke="#b13b38" stroke-width="1.51"/><path d="M-92,817L-97,909L-24,906Z" fill="#7d4444" stroke="#7d4444" stroke-width="1.51"/><path d="M-123,676L-97,909L-99,766Z" fill="#8c5557" stroke="#8c5557" stroke-width="1.51"/><path d="M-119,-30L-112,73L-31,61Z" fill="#a22930" stroke="#a22930" stroke-width="1.51"/><path d="M-111,149L-112,73L-122,249Z" fill="#ad4b44" stroke="#ad4b44" stroke-width="1.51"/><path d="M-119,-30L-31,61L-1,-21Z" fill="#a6222d" stroke="#a6222d" stroke-width="1.51"/><path d="M51,-98L-2,-122L-1,-21Z" fill="#a01229" stroke="#a01229" stroke-width="1.51"/><path d="M156,-120L-2,-122L51,-98Z" fill="#9d1c2a" stroke="#9d1c2a" stroke-width="1.51"/><path d="M1453,-129L-2,-122L673,-120Z" fill="#c38686" stroke="#c38686" stroke-width="1.51"/><path d="M-97,909L-108,1030L-31,1014Z" fill="#602b2d" stroke="#602b2d" stroke-width="1.51"/><path d="M-31,1014L-108,1030L171,1001Z" fill="#6b2b2a" stroke="#6b2b2a" stroke-width="1.51"/><path d="M-123,676L-108,1030L-97,909Z" fill="#764244" stroke="#764244" stroke-width="1.51"/><path d="M-81,-100L-119,-30L-1,-21Z" fill="#970f27" stroke="#970f27" stroke-width="1.51"/><path d="M-112,73L-119,-30L-122,249Z" fill="#a43938" stroke="#a43938" stroke-width="1.51"/><path d="M-2,-122L-81,-100L-1,-21Z" fill="#960e27" stroke="#960e27" stroke-width="1.51"/></svg>