<svg xmlns="http://www.w3.org/2000/svg" width="1440" height="900"><path d="M751,474L768,559L829,481Z" fill="#38a9c3" stroke="#38a9c3" stroke-width="1.51"/><path d="M768,559L853,595L829,481Z" fill="#31a2c2" stroke="#31a2c2" stroke-width="1.51"/><path d="M751,474L667,514L768,559Z" fill="#3badc3" stroke="#3badc3" stroke-width="1.51"/><path d="M829,481L755,394L751,474Z" fill="#3eb1c4" stroke="#3eb1c4" stroke-width="1.51"/><path d="M751,474L686,388L667,514Z" fill="#44b6c4" stroke="#44b6c4" stroke-width="1.51"/><path d="M768,559L776,644L853,595Z" fill="#2c9cc2" stroke="#2c9cc2" stroke-width="1.51"/><path d="M670,598L776,644L768,559Z" fill="#31a2c2" stroke="#31a2c2" stroke-width="1.51"/><path d="M829,481L871,403L755,394Z" fill="#42afc3" stroke="#42afc3" stroke-width="1.51"/><path d="M932,481L871,403L829,481Z" fill="#36a8c3" stroke="#36a8c3" stroke-width="1.51"/><path d="M667,514L670,598L768,559Z" fill="#3baac2" stroke="#3baac2" stroke-width="1.51"/><path d="M853,595L932,481L829,481Z" fill="#30a0c2" stroke="#30a0c2" stroke-width="1.51"/><path d="M755,394L686,388L751,474Z" fill="#49b7c3" stroke="#49b7c3" stroke-width="1.51"/><path d="M680,332L686,388L755,394Z" fill="#57bcc1" stroke="#57bcc1" stroke-width="1.51"/><path d="M776,644L854,662L853,595Z" fill="#2b94bf" stroke="#2b94bf" stroke-width="1.51"/><path d="M853,595L953,578L932,481Z" fill="#2899c1" stroke="#2899c1" stroke-width="1.51"/><path d="M933,684L953,578L853,595Z" fill="#2190bf" stroke="#2190bf" stroke-width="1.51"/><path d="M670,598L675,651L776,644Z" fill="#379fbf" stroke="#379fbf" stroke-width="1.51"/><path d="M776,644L851,750L854,662Z" fill="#2d8bbb" stroke="#2d8bbb" stroke-width="1.51"/><path d="M932,481L952,422L871,403Z" fill="#39a6c2" stroke="#39a6c2" stroke-width="1.51"/><path d="M1025,477L952,422L932,481Z" fill="#339ec0" stroke="#339ec0" stroke-width="1.51"/><path d="M850,304L766,315L755,394Z" fill="#59b8c0" stroke="#59b8c0" stroke-width="1.51"/><path d="M850,304L755,394L871,403Z" fill="#51b3c1" stroke="#51b3c1" stroke-width="1.51"/><path d="M670,598L597,590L675,651Z" fill="#43a5c0" stroke="#43a5c0" stroke-width="1.51"/><path d="M667,514L597,590L670,598Z" fill="#46abc1" stroke="#46abc1" stroke-width="1.51"/><path d="M574,482L597,590L667,514Z" fill="#4fb2c1" stroke="#4fb2c1" stroke-width="1.51"/><path d="M569,421L574,482L667,514Z" fill="#54b9c1" stroke="#54b9c1" stroke-width="1.51"/><path d="M766,315L680,332L755,394Z" fill="#5abdc1" stroke="#5abdc1" stroke-width="1.51"/><path d="M569,421L667,514L686,388Z" fill="#52bac2" stroke="#52bac2" stroke-width="1.51"/><path d="M944,337L850,304L871,403Z" fill="#52afc0" stroke="#52afc0" stroke-width="1.51"/><path d="M854,662L933,684L853,595Z" fill="#278dbd" stroke="#278dbd" stroke-width="1.51"/><path d="M851,750L933,684L854,662Z" fill="#2885b9" stroke="#2885b9" stroke-width="1.51"/><path d="M953,578L1025,477L932,481Z" fill="#2d98bf" stroke="#2d98bf" stroke-width="1.51"/><path d="M933,684L1006,582L953,578Z" fill="#208bbe" stroke="#208bbe" stroke-width="1.51"/><path d="M952,422L944,337L871,403Z" fill="#47a9c0" stroke="#47a9c0" stroke-width="1.51"/><path d="M1042,399L944,337L952,422Z" fill="#47a3be" stroke="#47a3be" stroke-width="1.51"/><path d="M610,314L569,421L686,388Z" fill="#63c0c0" stroke="#63c0c0" stroke-width="1.51"/><path d="M1006,582L1025,477L953,578Z" fill="#2890be" stroke="#2890be" stroke-width="1.51"/><path d="M675,651L743,751L776,644Z" fill="#3594bc" stroke="#3594bc" stroke-width="1.51"/><path d="M664,771L743,751L675,651Z" fill="#3c8fb8" stroke="#3c8fb8" stroke-width="1.51"/><path d="M743,751L851,750L776,644Z" fill="#3189b9" stroke="#3189b9" stroke-width="1.51"/><path d="M597,590L572,660L675,651Z" fill="#4aa3be" stroke="#4aa3be" stroke-width="1.51"/><path d="M515,587L572,660L597,590Z" fill="#52a9be" stroke="#52a9be" stroke-width="1.51"/><path d="M515,587L597,590L574,482Z" fill="#55b2c0" stroke="#55b2c0" stroke-width="1.51"/><path d="M680,332L610,314L686,388Z" fill="#64c1c0" stroke="#64c1c0" stroke-width="1.51"/><path d="M693,225L610,314L680,332Z" fill="#6fc5bf" stroke="#6fc5bf" stroke-width="1.51"/><path d="M693,225L680,332L766,315Z" fill="#68c2c0" stroke="#68c2c0" stroke-width="1.51"/><path d="M850,304L837,249L766,315Z" fill="#63babf" stroke="#63babf" stroke-width="1.51"/><path d="M927,213L837,249L850,304Z" fill="#6cb8be" stroke="#6cb8be" stroke-width="1.51"/><path d="M837,249L776,243L766,315Z" fill="#6bbdbf" stroke="#6bbdbf" stroke-width="1.51"/><path d="M1025,477L1042,399L952,422Z" fill="#3b9cbe" stroke="#3b9cbe" stroke-width="1.51"/><path d="M944,337L927,213L850,304Z" fill="#61b2be" stroke="#61b2be" stroke-width="1.51"/><path d="M1088,475L1042,399L1025,477Z" fill="#3695bc" stroke="#3695bc" stroke-width="1.51"/><path d="M500,484L515,587L574,482Z" fill="#5cb7bf" stroke="#5cb7bf" stroke-width="1.51"/><path d="M582,751L664,771L675,651Z" fill="#4691b7" stroke="#4691b7" stroke-width="1.51"/><path d="M743,751L742,823L851,750Z" fill="#3581b4" stroke="#3581b4" stroke-width="1.51"/><path d="M569,421L500,484L574,482Z" fill="#5ebdc1" stroke="#5ebdc1" stroke-width="1.51"/><path d="M490,414L500,484L569,421Z" fill="#64c1c0" stroke="#64c1c0" stroke-width="1.51"/><path d="M933,684L1037,662L1006,582Z" fill="#2183b9" stroke="#2183b9" stroke-width="1.51"/><path d="M1006,582L1088,475L1025,477Z" fill="#2f8fbc" stroke="#2f8fbc" stroke-width="1.51"/><path d="M1035,735L1037,662L933,684Z" fill="#2379b5" stroke="#2379b5" stroke-width="1.51"/><path d="M851,750L940,765L933,684Z" fill="#267db6" stroke="#267db6" stroke-width="1.51"/><path d="M916,824L940,765L851,750Z" fill="#2977b3" stroke="#2977b3" stroke-width="1.51"/><path d="M762,154L693,225L776,243Z" fill="#7fc8be" stroke="#7fc8be" stroke-width="1.51"/><path d="M776,243L693,225L766,315Z" fill="#70c3bf" stroke="#70c3bf" stroke-width="1.51"/><path d="M1127,579L1088,475L1006,582Z" fill="#2a87ba" stroke="#2a87ba" stroke-width="1.51"/><path d="M511,333L490,414L569,421Z" fill="#6dc5bf" stroke="#6dc5bf" stroke-width="1.51"/><path d="M511,333L569,421L610,314Z" fill="#6ec5bf" stroke="#6ec5bf" stroke-width="1.51"/><path d="M664,771L742,823L743,751Z" fill="#3a85b4" stroke="#3a85b4" stroke-width="1.51"/><path d="M664,771L688,860L742,823Z" fill="#4081b1" stroke="#4081b1" stroke-width="1.51"/><path d="M572,660L582,751L675,651Z" fill="#4b9ab9" stroke="#4b9ab9" stroke-width="1.51"/><path d="M522,756L582,751L572,660Z" fill="#5396b6" stroke="#5396b6" stroke-width="1.51"/><path d="M742,823L847,831L851,750Z" fill="#337bb2" stroke="#337bb2" stroke-width="1.51"/><path d="M1042,399L1043,307L944,337Z" fill="#50a1bb" stroke="#50a1bb" stroke-width="1.51"/><path d="M1124,327L1043,307L1042,399Z" fill="#529ab8" stroke="#529ab8" stroke-width="1.51"/><path d="M519,248L511,333L610,314Z" fill="#7acabc" stroke="#7acabc" stroke-width="1.51"/><path d="M1009,213L927,213L944,337Z" fill="#69afbc" stroke="#69afbc" stroke-width="1.51"/><path d="M837,249L762,154L776,243Z" fill="#7bc3be" stroke="#7bc3be" stroke-width="1.51"/><path d="M693,225L596,237L610,314Z" fill="#7cc9bd" stroke="#7cc9bd" stroke-width="1.51"/><path d="M1037,662L1127,579L1006,582Z" fill="#2281b9" stroke="#2281b9" stroke-width="1.51"/><path d="M940,765L1035,735L933,684Z" fill="#2377b4" stroke="#2377b4" stroke-width="1.51"/><path d="M1016,835L1035,735L940,765Z" fill="#256caf" stroke="#256caf" stroke-width="1.51"/><path d="M847,831L916,824L851,750Z" fill="#2e75b1" stroke="#2e75b1" stroke-width="1.51"/><path d="M515,587L495,684L572,660Z" fill="#58a5bb" stroke="#58a5bb" stroke-width="1.51"/><path d="M438,565L495,684L515,587Z" fill="#60aebd" stroke="#60aebd" stroke-width="1.51"/><path d="M438,565L515,587L500,484Z" fill="#63b7be" stroke="#63b7be" stroke-width="1.51"/><path d="M1088,475L1110,402L1042,399Z" fill="#3e94ba" stroke="#3e94ba" stroke-width="1.51"/><path d="M1187,497L1110,402L1088,475Z" fill="#378bb8" stroke="#378bb8" stroke-width="1.51"/><path d="M1108,680L1127,579L1037,662Z" fill="#2378b5" stroke="#2378b5" stroke-width="1.51"/><path d="M397,507L438,565L500,484Z" fill="#6dbdbe" stroke="#6dbdbe" stroke-width="1.51"/><path d="M430,405L500,484L490,414Z" fill="#6ec4bf" stroke="#6ec4bf" stroke-width="1.51"/><path d="M693,225L668,159L596,237Z" fill="#88cdbc" stroke="#88cdbc" stroke-width="1.51"/><path d="M861,137L762,154L837,249Z" fill="#83c3bd" stroke="#83c3bd" stroke-width="1.51"/><path d="M585,823L688,860L664,771Z" fill="#4883b1" stroke="#4883b1" stroke-width="1.51"/><path d="M495,684L522,756L572,660Z" fill="#579bb7" stroke="#579bb7" stroke-width="1.51"/><path d="M421,758L522,756L495,684Z" fill="#6099b3" stroke="#6099b3" stroke-width="1.51"/><path d="M742,823L759,928L847,831Z" fill="#3874af" stroke="#3874af" stroke-width="1.51"/><path d="M949,924L1016,835L916,824Z" fill="#2a65ac" stroke="#2a65ac" stroke-width="1.51"/><path d="M585,823L664,771L582,751Z" fill="#4c8ab3" stroke="#4c8ab3" stroke-width="1.51"/><path d="M1035,735L1108,680L1037,662Z" fill="#2372b2" stroke="#2372b2" stroke-width="1.51"/><path d="M762,154L668,159L693,225Z" fill="#89cdbd" stroke="#89cdbd" stroke-width="1.51"/><path d="M1043,307L1009,213L944,337Z" fill="#5fa7ba" stroke="#5fa7ba" stroke-width="1.51"/><path d="M927,213L861,137L837,249Z" fill="#7cbcbd" stroke="#7cbcbd" stroke-width="1.51"/><path d="M1122,244L1009,213L1043,307Z" fill="#68a3b6" stroke="#68a3b6" stroke-width="1.51"/><path d="M522,756L585,823L582,751Z" fill="#538db2" stroke="#538db2" stroke-width="1.51"/><path d="M511,333L430,405L490,414Z" fill="#76c8bd" stroke="#76c8bd" stroke-width="1.51"/><path d="M399,315L430,405L511,333Z" fill="#82ccbc" stroke="#82ccbc" stroke-width="1.51"/><path d="M519,248L610,314L596,237Z" fill="#80ccbc" stroke="#80ccbc" stroke-width="1.51"/><path d="M489,152L519,248L596,237Z" fill="#92d3ba" stroke="#92d3ba" stroke-width="1.51"/><path d="M952,162L861,137L927,213Z" fill="#82bcbc" stroke="#82bcbc" stroke-width="1.51"/><path d="M696,45L600,138L668,159Z" fill="#9bd4bb" stroke="#9bd4bb" stroke-width="1.51"/><path d="M1176,339L1124,327L1110,402Z" fill="#4f92b5" stroke="#4f92b5" stroke-width="1.51"/><path d="M1110,402L1124,327L1042,399Z" fill="#4b95b8" stroke="#4b95b8" stroke-width="1.51"/><path d="M1009,213L952,162L927,213Z" fill="#7ab4bb" stroke="#7ab4bb" stroke-width="1.51"/><path d="M430,405L397,507L500,484Z" fill="#71c3bf" stroke="#71c3bf" stroke-width="1.51"/><path d="M438,565L407,681L495,684Z" fill="#68aaba" stroke="#68aaba" stroke-width="1.51"/><path d="M1035,735L1127,767L1108,680Z" fill="#2369ae" stroke="#2369ae" stroke-width="1.51"/><path d="M916,824L1016,835L940,765Z" fill="#276db0" stroke="#276db0" stroke-width="1.51"/><path d="M949,924L916,824L847,831Z" fill="#2d6aae" stroke="#2d6aae" stroke-width="1.51"/><path d="M1127,579L1187,497L1088,475Z" fill="#3083b6" stroke="#3083b6" stroke-width="1.51"/><path d="M1192,579L1187,497L1127,579Z" fill="#2c7cb4" stroke="#2c7cb4" stroke-width="1.51"/><path d="M1179,652L1192,579L1127,579Z" fill="#2475b4" stroke="#2475b4" stroke-width="1.51"/><path d="M1179,652L1127,579L1108,680Z" fill="#2373b2" stroke="#2373b2" stroke-width="1.51"/><path d="M339,560L407,681L438,565Z" fill="#73b5bd" stroke="#73b5bd" stroke-width="1.51"/><path d="M522,756L490,854L585,823Z" fill="#588aaf" stroke="#588aaf" stroke-width="1.51"/><path d="M1204,739L1179,652L1108,680Z" fill="#2467ad" stroke="#2467ad" stroke-width="1.51"/><path d="M696,45L668,159L762,154Z" fill="#95d1bc" stroke="#95d1bc" stroke-width="1.51"/><path d="M668,159L600,138L596,237Z" fill="#92d1bb" stroke="#92d1bb" stroke-width="1.51"/><path d="M688,860L759,928L742,823Z" fill="#3d77ae" stroke="#3d77ae" stroke-width="1.51"/><path d="M673,918L759,928L688,860Z" fill="#4174ac" stroke="#4174ac" stroke-width="1.51"/><path d="M585,908L688,860L585,823Z" fill="#4d7ead" stroke="#4d7ead" stroke-width="1.51"/><path d="M585,908L673,918L688,860Z" fill="#4a78ac" stroke="#4a78ac" stroke-width="1.51"/><path d="M1209,413L1176,339L1110,402Z" fill="#498cb4" stroke="#498cb4" stroke-width="1.51"/><path d="M1124,327L1122,244L1043,307Z" fill="#5d9bb5" stroke="#5d9bb5" stroke-width="1.51"/><path d="M1009,213L1020,134L952,162Z" fill="#80b2b9" stroke="#80b2b9" stroke-width="1.51"/><path d="M1109,835L1127,767L1035,735Z" fill="#2461aa" stroke="#2461aa" stroke-width="1.51"/><path d="M759,928L828,935L847,831Z" fill="#376dac" stroke="#376dac" stroke-width="1.51"/><path d="M1176,339L1122,244L1124,327Z" fill="#5a95b3" stroke="#5a95b3" stroke-width="1.51"/><path d="M1262,393L1209,413L1291,474Z" fill="#4280b2" stroke="#4280b2" stroke-width="1.51"/><path d="M1187,497L1209,413L1110,402Z" fill="#3c88b5" stroke="#3c88b5" stroke-width="1.51"/><path d="M416,234L511,333L519,248Z" fill="#8ad1ba" stroke="#8ad1ba" stroke-width="1.51"/><path d="M416,234L399,315L511,333Z" fill="#8cd1ba" stroke="#8cd1ba" stroke-width="1.51"/><path d="M430,405L334,476L397,507Z" fill="#7cc7be" stroke="#7cc7be" stroke-width="1.51"/><path d="M407,681L421,758L495,684Z" fill="#689fb5" stroke="#689fb5" stroke-width="1.51"/><path d="M952,162L947,81L861,137Z" fill="#8abebb" stroke="#8abebb" stroke-width="1.51"/><path d="M861,137L832,54L762,154Z" fill="#90c8bc" stroke="#90c8bc" stroke-width="1.51"/><path d="M1089,140L1020,134L1009,213Z" fill="#82adb7" stroke="#82adb7" stroke-width="1.51"/><path d="M828,935L949,924L847,831Z" fill="#3268ab" stroke="#3268ab" stroke-width="1.51"/><path d="M1016,835L1109,835L1035,735Z" fill="#2662aa" stroke="#2662aa" stroke-width="1.51"/><path d="M490,854L585,908L585,823Z" fill="#5782ad" stroke="#5782ad" stroke-width="1.51"/><path d="M742,1025L828,935L759,928Z" fill="#34699f" stroke="#34699f" stroke-width="1.51"/><path d="M397,507L339,560L438,565Z" fill="#77bdbe" stroke="#77bdbe" stroke-width="1.51"/><path d="M320,771L412,824L421,758Z" fill="#7395af" stroke="#7395af" stroke-width="1.51"/><path d="M334,476L339,560L397,507Z" fill="#7fc2bd" stroke="#7fc2bd" stroke-width="1.51"/><path d="M421,758L490,854L522,756Z" fill="#6190b0" stroke="#6190b0" stroke-width="1.51"/><path d="M326,409L334,476L430,405Z" fill="#85ccbd" stroke="#85ccbd" stroke-width="1.51"/><path d="M1097,918L1109,835L1016,835Z" fill="#2758a5" stroke="#2758a5" stroke-width="1.51"/><path d="M1127,767L1204,739L1108,680Z" fill="#2362ab" stroke="#2362ab" stroke-width="1.51"/><path d="M1020,134L947,81L952,162Z" fill="#8ab8ba" stroke="#8ab8ba" stroke-width="1.51"/><path d="M947,81L832,54L861,137Z" fill="#92c3bb" stroke="#92c3bb" stroke-width="1.51"/><path d="M949,924L1009,914L1016,835Z" fill="#2a5ea8" stroke="#2a5ea8" stroke-width="1.51"/><path d="M342,338L326,409L430,405Z" fill="#8ccfbc" stroke="#8ccfbc" stroke-width="1.51"/><path d="M489,152L416,234L519,248Z" fill="#9bd7b9" stroke="#9bd7b9" stroke-width="1.51"/><path d="M600,138L489,152L596,237Z" fill="#99d5ba" stroke="#99d5ba" stroke-width="1.51"/><path d="M511,81L489,152L600,138Z" fill="#a5dab8" stroke="#a5dab8" stroke-width="1.51"/><path d="M832,54L773,41L762,154Z" fill="#96ccbc" stroke="#96ccbc" stroke-width="1.51"/><path d="M247,564L323,686L339,560Z" fill="#84babc" stroke="#84babc" stroke-width="1.51"/><path d="M342,338L430,405L399,315Z" fill="#8cd0bb" stroke="#8cd0bb" stroke-width="1.51"/><path d="M773,41L696,45L762,154Z" fill="#99d1bc" stroke="#99d1bc" stroke-width="1.51"/><path d="M1197,846L1204,739L1127,767Z" fill="#2457a5" stroke="#2457a5" stroke-width="1.51"/><path d="M1179,652L1266,587L1192,579Z" fill="#2770b1" stroke="#2770b1" stroke-width="1.51"/><path d="M1192,579L1266,587L1187,497Z" fill="#2e76b2" stroke="#2e76b2" stroke-width="1.51"/><path d="M339,214L342,338L399,315Z" fill="#9bd7b9" stroke="#9bd7b9" stroke-width="1.51"/><path d="M1122,244L1089,140L1009,213Z" fill="#78a5b5" stroke="#78a5b5" stroke-width="1.51"/><path d="M1020,134L1005,74L947,81Z" fill="#8eb7b8" stroke="#8eb7b8" stroke-width="1.51"/><path d="M1182,163L1089,140L1122,244Z" fill="#7ba0b2" stroke="#7ba0b2" stroke-width="1.51"/><path d="M1181,225L1122,244L1176,339Z" fill="#6495b2" stroke="#6495b2" stroke-width="1.51"/><path d="M1268,666L1266,587L1179,652Z" fill="#2769ae" stroke="#2769ae" stroke-width="1.51"/><path d="M1262,393L1176,339L1209,413Z" fill="#4b87b2" stroke="#4b87b2" stroke-width="1.51"/><path d="M1288,335L1181,225L1176,339Z" fill="#5c8db0" stroke="#5c8db0" stroke-width="1.51"/><path d="M947,81L858,-9L832,54Z" fill="#99c6bb" stroke="#99c6bb" stroke-width="1.51"/><path d="M832,54L858,-9L773,41Z" fill="#9dccbb" stroke="#9dccbb" stroke-width="1.51"/><path d="M1089,140L1005,74L1020,134Z" fill="#8ab0b6" stroke="#8ab0b6" stroke-width="1.51"/><path d="M421,758L412,824L490,854Z" fill="#698fae" stroke="#698fae" stroke-width="1.51"/><path d="M490,854L513,945L585,908Z" fill="#5a7ca9" stroke="#5a7ca9" stroke-width="1.51"/><path d="M323,686L421,758L407,681Z" fill="#73a3b4" stroke="#73a3b4" stroke-width="1.51"/><path d="M1291,474L1209,413L1187,497Z" fill="#3980b3" stroke="#3980b3" stroke-width="1.51"/><path d="M247,564L339,560L334,476Z" fill="#87c3bc" stroke="#87c3bc" stroke-width="1.51"/><path d="M339,560L323,686L407,681Z" fill="#7ab0b9" stroke="#7ab0b9" stroke-width="1.51"/><path d="M489,152L428,165L416,234Z" fill="#a6dbb8" stroke="#a6dbb8" stroke-width="1.51"/><path d="M416,234L339,214L399,315Z" fill="#a0d8b8" stroke="#a0d8b8" stroke-width="1.51"/><path d="M400,53L428,165L489,152Z" fill="#b3e0b7" stroke="#b3e0b7" stroke-width="1.51"/><path d="M696,45L572,57L600,138Z" fill="#a3d8ba" stroke="#a3d8ba" stroke-width="1.51"/><path d="M1266,587L1291,474L1187,497Z" fill="#3378b1" stroke="#3378b1" stroke-width="1.51"/><path d="M1266,587L1349,588L1291,474Z" fill="#316eae" stroke="#316eae" stroke-width="1.51"/><path d="M1204,739L1268,666L1179,652Z" fill="#2662ab" stroke="#2662ab" stroke-width="1.51"/><path d="M828,935L845,1015L949,924Z" fill="#2c629f" stroke="#2c629f" stroke-width="1.51"/><path d="M949,924L1041,1004L1009,914Z" fill="#26579d" stroke="#26579d" stroke-width="1.51"/><path d="M742,1025L845,1015L828,935Z" fill="#2e6499" stroke="#2e6499" stroke-width="1.51"/><path d="M742,1025L759,928L673,918Z" fill="#386ea1" stroke="#386ea1" stroke-width="1.51"/><path d="M572,57L511,81L600,138Z" fill="#a7dbb8" stroke="#a7dbb8" stroke-width="1.51"/><path d="M1204,739L1262,772L1268,666Z" fill="#2659a6" stroke="#2659a6" stroke-width="1.51"/><path d="M1109,835L1197,846L1127,767Z" fill="#2557a5" stroke="#2557a5" stroke-width="1.51"/><path d="M1009,914L1097,918L1016,835Z" fill="#2958a5" stroke="#2958a5" stroke-width="1.51"/><path d="M1041,1004L1097,918L1009,914Z" fill="#25519b" stroke="#25519b" stroke-width="1.51"/><path d="M670,1023L742,1025L673,918Z" fill="#3a6d9a" stroke="#3a6d9a" stroke-width="1.51"/><path d="M427,914L513,945L490,854Z" fill="#637fa9" stroke="#637fa9" stroke-width="1.51"/><path d="M670,1023L673,918L585,908Z" fill="#4673a1" stroke="#4673a1" stroke-width="1.51"/><path d="M753,-35L679,-15L696,45Z" fill="#a7d7bc" stroke="#a7d7bc" stroke-width="1.51"/><path d="M696,45L583,-5L572,57Z" fill="#aadaba" stroke="#aadaba" stroke-width="1.51"/><path d="M941,-47L858,-9L947,81Z" fill="#9cc4ba" stroke="#9cc4ba" stroke-width="1.51"/><path d="M572,1027L670,1023L585,908Z" fill="#477199" stroke="#477199" stroke-width="1.51"/><path d="M1089,140L1123,72L1005,74Z" fill="#8cadb4" stroke="#8cadb4" stroke-width="1.51"/><path d="M1005,74L941,-47L947,81Z" fill="#97bdb9" stroke="#97bdb9" stroke-width="1.51"/><path d="M1181,225L1182,163L1122,244Z" fill="#749ab1" stroke="#749ab1" stroke-width="1.51"/><path d="M1266,130L1182,163L1181,225Z" fill="#7e98ae" stroke="#7e98ae" stroke-width="1.51"/><path d="M1288,335L1176,339L1262,393Z" fill="#5287b0" stroke="#5287b0" stroke-width="1.51"/><path d="M1097,918L1197,846L1109,835Z" fill="#2651a2" stroke="#2651a2" stroke-width="1.51"/><path d="M1358,403L1288,335L1262,393Z" fill="#4e7fae" stroke="#4e7fae" stroke-width="1.51"/><path d="M412,824L427,914L490,854Z" fill="#6987ab" stroke="#6987ab" stroke-width="1.51"/><path d="M323,686L320,771L421,758Z" fill="#789fb2" stroke="#789fb2" stroke-width="1.51"/><path d="M233,741L320,771L323,686Z" fill="#84a4b1" stroke="#84a4b1" stroke-width="1.51"/><path d="M326,409L261,410L334,476Z" fill="#8fd0bd" stroke="#8fd0bd" stroke-width="1.51"/><path d="M342,338L261,410L326,409Z" fill="#95d3bb" stroke="#95d3bb" stroke-width="1.51"/><path d="M240,310L261,410L342,338Z" fill="#9ed7b9" stroke="#9ed7b9" stroke-width="1.51"/><path d="M753,-35L696,45L773,41Z" fill="#a2d3bc" stroke="#a2d3bc" stroke-width="1.51"/><path d="M572,57L486,-39L511,81Z" fill="#b3dfb7" stroke="#b3dfb7" stroke-width="1.51"/><path d="M428,165L339,214L416,234Z" fill="#aadcb8" stroke="#aadcb8" stroke-width="1.51"/><path d="M345,128L339,214L428,165Z" fill="#b6e1b6" stroke="#b6e1b6" stroke-width="1.51"/><path d="M513,945L572,1027L585,908Z" fill="#51769e" stroke="#51769e" stroke-width="1.51"/><path d="M333,846L427,914L412,824Z" fill="#728aab" stroke="#728aab" stroke-width="1.51"/><path d="M845,1015L931,1032L949,924Z" fill="#255d98" stroke="#255d98" stroke-width="1.51"/><path d="M742,1025L931,1032L845,1015Z" fill="#275f92" stroke="#275f92" stroke-width="1.51"/><path d="M492,1033L931,1032L742,1025Z" fill="#306892" stroke="#306892" stroke-width="1.51"/><path d="M1197,846L1262,772L1204,739Z" fill="#2553a3" stroke="#2553a3" stroke-width="1.51"/><path d="M1268,666L1349,588L1266,587Z" fill="#2a68ad" stroke="#2a68ad" stroke-width="1.51"/><path d="M233,497L247,564L334,476Z" fill="#8ec8bc" stroke="#8ec8bc" stroke-width="1.51"/><path d="M858,-9L753,-35L773,41Z" fill="#a2d0bb" stroke="#a2d0bb" stroke-width="1.51"/><path d="M1182,163L1123,72L1089,140Z" fill="#87a4b1" stroke="#87a4b1" stroke-width="1.51"/><path d="M261,410L233,497L334,476Z" fill="#90cebd" stroke="#90cebd" stroke-width="1.51"/><path d="M931,1032L1041,1004L949,924Z" fill="#225696" stroke="#225696" stroke-width="1.51"/><path d="M1186,937L1260,841L1197,846Z" fill="#26479d" stroke="#26479d" stroke-width="1.51"/><path d="M679,-15L583,-5L696,45Z" fill="#aadaba" stroke="#aadaba" stroke-width="1.51"/><path d="M400,53L345,128L428,165Z" fill="#bbe4b6" stroke="#bbe4b6" stroke-width="1.51"/><path d="M611,-108L583,-5L679,-15Z" fill="#b1ddbe" stroke="#b1ddbe" stroke-width="1.51"/><path d="M670,1023L572,1027L742,1025Z" fill="#3b6a92" stroke="#3b6a92" stroke-width="1.51"/><path d="M492,1033L572,1027L513,945Z" fill="#4f7394" stroke="#4f7394" stroke-width="1.51"/><path d="M320,771L333,846L412,824Z" fill="#7893ad" stroke="#7893ad" stroke-width="1.51"/><path d="M437,1008L492,1033L513,945Z" fill="#587695" stroke="#587695" stroke-width="1.51"/><path d="M261,826L333,846L320,771Z" fill="#8196ad" stroke="#8196ad" stroke-width="1.51"/><path d="M1386,651L1349,588L1268,666Z" fill="#2a60a9" stroke="#2a60a9" stroke-width="1.51"/><path d="M1291,474L1358,403L1262,393Z" fill="#447caf" stroke="#447caf" stroke-width="1.51"/><path d="M1349,588L1360,471L1291,474Z" fill="#3770ad" stroke="#3770ad" stroke-width="1.51"/><path d="M1370,745L1386,651L1268,666Z" fill="#2957a4" stroke="#2957a4" stroke-width="1.51"/><path d="M1197,846L1260,841L1262,772Z" fill="#264ca0" stroke="#264ca0" stroke-width="1.51"/><path d="M1186,937L1197,846L1097,918Z" fill="#26499e" stroke="#26499e" stroke-width="1.51"/><path d="M1288,335L1297,240L1181,225Z" fill="#668cad" stroke="#668cad" stroke-width="1.51"/><path d="M1182,163L1208,82L1123,72Z" fill="#8aa0af" stroke="#8aa0af" stroke-width="1.51"/><path d="M1382,317L1297,240L1288,335Z" fill="#5e82ab" stroke="#5e82ab" stroke-width="1.51"/><path d="M1039,-38L941,-47L1005,74Z" fill="#9cbbb7" stroke="#9cbbb7" stroke-width="1.51"/><path d="M858,-9L779,-101L753,-35Z" fill="#a4d1c1" stroke="#a4d1c1" stroke-width="1.51"/><path d="M1360,471L1358,403L1291,474Z" fill="#3e77ae" stroke="#3e77ae" stroke-width="1.51"/><path d="M339,214L240,310L342,338Z" fill="#a4dbb8" stroke="#a4dbb8" stroke-width="1.51"/><path d="M261,410L164,421L233,497Z" fill="#98d2bc" stroke="#98d2bc" stroke-width="1.51"/><path d="M177,599L231,686L247,564Z" fill="#8ebbba" stroke="#8ebbba" stroke-width="1.51"/><path d="M247,564L231,686L323,686Z" fill="#88b4b8" stroke="#88b4b8" stroke-width="1.51"/><path d="M1109,1013L1186,937L1097,918Z" fill="#214794" stroke="#214794" stroke-width="1.51"/><path d="M339,214L233,252L240,310Z" fill="#b0dfb7" stroke="#b0dfb7" stroke-width="1.51"/><path d="M400,53L489,152L511,81Z" fill="#b2e0b7" stroke="#b2e0b7" stroke-width="1.51"/><path d="M1041,1004L1109,1013L1097,918Z" fill="#204a93" stroke="#204a93" stroke-width="1.51"/><path d="M931,1032L1109,1013L1041,1004Z" fill="#1e4e8e" stroke="#1e4e8e" stroke-width="1.51"/><path d="M437,1008L513,945L427,914Z" fill="#607b9e" stroke="#607b9e" stroke-width="1.51"/><path d="M572,1027L492,1033L742,1025Z" fill="#436d90" stroke="#436d90" stroke-width="1.51"/><path d="M486,-39L400,53L511,81Z" fill="#bbe3b6" stroke="#bbe3b6" stroke-width="1.51"/><path d="M352,937L437,1008L427,914Z" fill="#6a7e9e" stroke="#6a7e9e" stroke-width="1.51"/><path d="M231,686L233,741L323,686Z" fill="#88aab4" stroke="#88aab4" stroke-width="1.51"/><path d="M1108,-4L1039,-38L1005,74Z" fill="#98b4b4" stroke="#98b4b4" stroke-width="1.51"/><path d="M1266,130L1208,82L1182,163Z" fill="#879aad" stroke="#879aad" stroke-width="1.51"/><path d="M1108,-4L1005,74L1123,72Z" fill="#93aeb3" stroke="#93aeb3" stroke-width="1.51"/><path d="M1204,-27L1108,-4L1123,72Z" fill="#96a7b0" stroke="#96a7b0" stroke-width="1.51"/><path d="M352,937L427,914L333,846Z" fill="#7685a8" stroke="#7685a8" stroke-width="1.51"/><path d="M244,927L352,937L333,846Z" fill="#8088a7" stroke="#8088a7" stroke-width="1.51"/><path d="M258,128L233,252L339,214Z" fill="#bde5b6" stroke="#bde5b6" stroke-width="1.51"/><path d="M143,485L177,599L233,497Z" fill="#96c9bc" stroke="#96c9bc" stroke-width="1.51"/><path d="M233,497L177,599L247,564Z" fill="#91c4bb" stroke="#91c4bb" stroke-width="1.51"/><path d="M258,128L339,214L345,128Z" fill="#c1e7b5" stroke="#c1e7b5" stroke-width="1.51"/><path d="M1208,82L1204,-27L1123,72Z" fill="#92a2af" stroke="#92a2af" stroke-width="1.51"/><path d="M1297,240L1266,130L1181,225Z" fill="#7892ad" stroke="#7892ad" stroke-width="1.51"/><path d="M1351,165L1266,130L1297,240Z" fill="#7d8eaa" stroke="#7d8eaa" stroke-width="1.51"/><path d="M753,-35L673,-120L679,-15Z" fill="#aad9c2" stroke="#aad9c2" stroke-width="1.51"/><path d="M583,-5L486,-39L572,57Z" fill="#b5dfb8" stroke="#b5dfb8" stroke-width="1.51"/><path d="M838,-107L779,-101L858,-9Z" fill="#a4cfc4" stroke="#a4cfc4" stroke-width="1.51"/><path d="M838,-107L858,-9L920,-112Z" fill="#a3cac4" stroke="#a3cac4" stroke-width="1.51"/><path d="M233,741L261,826L320,771Z" fill="#859dae" stroke="#859dae" stroke-width="1.51"/><path d="M1451,474L1446,423L1360,471Z" fill="#3a70a5" stroke="#3a70a5" stroke-width="1.51"/><path d="M1446,423L1382,317L1358,403Z" fill="#4c76a7" stroke="#4c76a7" stroke-width="1.51"/><path d="M1370,745L1268,666L1262,772Z" fill="#2654a3" stroke="#2654a3" stroke-width="1.51"/><path d="M164,421L261,410L240,310Z" fill="#a0d7ba" stroke="#a0d7ba" stroke-width="1.51"/><path d="M231,686L146,747L233,741Z" fill="#8da8b2" stroke="#8da8b2" stroke-width="1.51"/><path d="M233,741L158,843L261,826Z" fill="#8b9bad" stroke="#8b9bad" stroke-width="1.51"/><path d="M920,-112L858,-9L941,-47Z" fill="#a0c7c1" stroke="#a0c7c1" stroke-width="1.51"/><path d="M1358,403L1382,317L1288,335Z" fill="#547dab" stroke="#547dab" stroke-width="1.51"/><path d="M1446,423L1358,403L1360,471Z" fill="#4174a9" stroke="#4174a9" stroke-width="1.51"/><path d="M1366,821L1370,745L1262,772Z" fill="#26499e" stroke="#26499e" stroke-width="1.51"/><path d="M1186,937L1289,930L1260,841Z" fill="#26409a" stroke="#26409a" stroke-width="1.51"/><path d="M1109,1013L1191,990L1186,937Z" fill="#1f428e" stroke="#1f428e" stroke-width="1.51"/><path d="M515,-94L486,-39L583,-5Z" fill="#bae2bc" stroke="#bae2bc" stroke-width="1.51"/><path d="M1366,821L1262,772L1260,841Z" fill="#26489e" stroke="#26489e" stroke-width="1.51"/><path d="M147,328L164,421L240,310Z" fill="#a8dab9" stroke="#a8dab9" stroke-width="1.51"/><path d="M1009,-92L941,-47L1039,-38Z" fill="#9ebdbe" stroke="#9ebdbe" stroke-width="1.51"/><path d="M1009,-92L920,-112L941,-47Z" fill="#a0c2c3" stroke="#a0c2c3" stroke-width="1.51"/><path d="M920,-112L673,-120L838,-107Z" fill="#a7d1c9" stroke="#a7d1c9" stroke-width="1.51"/><path d="M838,-107L673,-120L779,-101Z" fill="#a9d5c9" stroke="#a9d5c9" stroke-width="1.51"/><path d="M779,-101L673,-120L753,-35Z" fill="#a9d7c6" stroke="#a9d7c6" stroke-width="1.51"/><path d="M1094,-98L1009,-92L1039,-38Z" fill="#9eb6be" stroke="#9eb6be" stroke-width="1.51"/><path d="M1094,-98L1039,-38L1108,-4Z" fill="#9cb1b8" stroke="#9cb1b8" stroke-width="1.51"/><path d="M177,599L163,665L231,686Z" fill="#90b6b7" stroke="#90b6b7" stroke-width="1.51"/><path d="M79,559L163,665L177,599Z" fill="#96bfba" stroke="#96bfba" stroke-width="1.51"/><path d="M673,-120L611,-108L679,-15Z" fill="#b0dcc4" stroke="#b0dcc4" stroke-width="1.51"/><path d="M412,-29L346,41L400,53Z" fill="#c8e8b5" stroke="#c8e8b5" stroke-width="1.51"/><path d="M400,53L346,41L345,128Z" fill="#c5e7b5" stroke="#c5e7b5" stroke-width="1.51"/><path d="M164,421L143,485L233,497Z" fill="#9ad1bc" stroke="#9ad1bc" stroke-width="1.51"/><path d="M1266,130L1264,71L1208,82Z" fill="#8b99ac" stroke="#8b99ac" stroke-width="1.51"/><path d="M1352,67L1264,71L1266,130Z" fill="#8c94aa" stroke="#8c94aa" stroke-width="1.51"/><path d="M176,236L147,328L240,310Z" fill="#b1dfb7" stroke="#b1dfb7" stroke-width="1.51"/><path d="M76,398L70,476L143,485Z" fill="#a3d5bc" stroke="#a3d5bc" stroke-width="1.51"/><path d="M346,41L258,128L345,128Z" fill="#c9e9b4" stroke="#c9e9b4" stroke-width="1.51"/><path d="M1191,990L1289,930L1186,937Z" fill="#213e91" stroke="#213e91" stroke-width="1.51"/><path d="M352,937L347,996L437,1008Z" fill="#6b7d97" stroke="#6b7d97" stroke-width="1.51"/><path d="M437,1008L347,996L492,1033Z" fill="#5f7791" stroke="#5f7791" stroke-width="1.51"/><path d="M244,927L347,996L352,937Z" fill="#79839d" stroke="#79839d" stroke-width="1.51"/><path d="M244,927L333,846L261,826Z" fill="#8590a9" stroke="#8590a9" stroke-width="1.51"/><path d="M1370,745L1449,647L1386,651Z" fill="#27539e" stroke="#27539e" stroke-width="1.51"/><path d="M1289,930L1366,821L1260,841Z" fill="#263f99" stroke="#263f99" stroke-width="1.51"/><path d="M346,41L242,42L258,128Z" fill="#d2edb4" stroke="#d2edb4" stroke-width="1.51"/><path d="M486,-39L412,-29L400,53Z" fill="#c5e7b5" stroke="#c5e7b5" stroke-width="1.51"/><path d="M428,-97L412,-29L486,-39Z" fill="#c6e8bc" stroke="#c6e8bc" stroke-width="1.51"/><path d="M1380,217L1351,165L1297,240Z" fill="#7588a9" stroke="#7588a9" stroke-width="1.51"/><path d="M1382,317L1380,217L1297,240Z" fill="#6883a9" stroke="#6883a9" stroke-width="1.51"/><path d="M428,-97L515,-94L611,-108Z" fill="#bee4c3" stroke="#bee4c3" stroke-width="1.51"/><path d="M611,-108L515,-94L583,-5Z" fill="#b7e0c0" stroke="#b7e0c0" stroke-width="1.51"/><path d="M1382,317L1448,228L1380,217Z" fill="#677fa3" stroke="#677fa3" stroke-width="1.51"/><path d="M1451,474L1360,471L1349,588Z" fill="#376ba9" stroke="#376ba9" stroke-width="1.51"/><path d="M1451,474L1349,588L1458,601Z" fill="#2e64a3" stroke="#2e64a3" stroke-width="1.51"/><path d="M1458,601L1349,588L1386,651Z" fill="#295ea4" stroke="#295ea4" stroke-width="1.51"/><path d="M176,236L240,310L233,252Z" fill="#b4e0b7" stroke="#b4e0b7" stroke-width="1.51"/><path d="M164,168L176,236L233,252Z" fill="#c0e6b5" stroke="#c0e6b5" stroke-width="1.51"/><path d="M1467,770L1449,647L1370,745Z" fill="#234b98" stroke="#234b98" stroke-width="1.51"/><path d="M1449,647L1458,601L1386,651Z" fill="#26599e" stroke="#26599e" stroke-width="1.51"/><path d="M1290,-19L1204,-27L1264,71Z" fill="#969cab" stroke="#969cab" stroke-width="1.51"/><path d="M1264,71L1204,-27L1208,82Z" fill="#929dac" stroke="#929dac" stroke-width="1.51"/><path d="M1009,-92L1094,-98L920,-112Z" fill="#a0bcc3" stroke="#a0bcc3" stroke-width="1.51"/><path d="M1204,-27L1094,-98L1108,-4Z" fill="#9baab5" stroke="#9baab5" stroke-width="1.51"/><path d="M163,665L146,747L231,686Z" fill="#8fadb4" stroke="#8fadb4" stroke-width="1.51"/><path d="M55,681L146,747L163,665Z" fill="#95afb4" stroke="#95afb4" stroke-width="1.51"/><path d="M158,843L244,927L261,826Z" fill="#8a92a9" stroke="#8a92a9" stroke-width="1.51"/><path d="M1446,423L1459,318L1382,317Z" fill="#4f76a1" stroke="#4f76a1" stroke-width="1.51"/><path d="M1466,147L1352,67L1351,165Z" fill="#8489a4" stroke="#8489a4" stroke-width="1.51"/><path d="M1557,397L1459,318L1446,423Z" fill="#457099" stroke="#457099" stroke-width="1.51"/><path d="M1531,493L1446,423L1451,474Z" fill="#356b9c" stroke="#356b9c" stroke-width="1.51"/><path d="M428,-97L333,-26L412,-29Z" fill="#ceebbb" stroke="#ceebbb" stroke-width="1.51"/><path d="M412,-29L333,-26L346,41Z" fill="#cfebb4" stroke="#cfebb4" stroke-width="1.51"/><path d="M258,128L164,168L233,252Z" fill="#c6e8b5" stroke="#c6e8b5" stroke-width="1.51"/><path d="M515,-94L428,-97L486,-39Z" fill="#c2e6bf" stroke="#c2e6bf" stroke-width="1.51"/><path d="M673,-120L428,-97L611,-108Z" fill="#b9e1c6" stroke="#b9e1c6" stroke-width="1.51"/><path d="M143,485L79,559L177,599Z" fill="#9ac8bb" stroke="#9ac8bb" stroke-width="1.51"/><path d="M70,476L79,559L143,485Z" fill="#a0cebb" stroke="#a0cebb" stroke-width="1.51"/><path d="M169,40L164,168L258,128Z" fill="#d4eeb3" stroke="#d4eeb3" stroke-width="1.51"/><path d="M78,220L55,321L147,328Z" fill="#bae3b6" stroke="#bae3b6" stroke-width="1.51"/><path d="M76,398L143,485L164,421Z" fill="#a2d6bb" stroke="#a2d6bb" stroke-width="1.51"/><path d="M146,747L158,843L233,741Z" fill="#8ea0af" stroke="#8ea0af" stroke-width="1.51"/><path d="M68,768L158,843L146,747Z" fill="#93a0ae" stroke="#93a0ae" stroke-width="1.51"/><path d="M76,398L164,421L147,328Z" fill="#a9daba" stroke="#a9daba" stroke-width="1.51"/><path d="M1204,-27L1204,-92L1094,-98Z" fill="#9ba7b7" stroke="#9ba7b7" stroke-width="1.51"/><path d="M1351,165L1352,67L1266,130Z" fill="#8790a8" stroke="#8790a8" stroke-width="1.51"/><path d="M1466,147L1351,165L1380,217Z" fill="#7a86a2" stroke="#7a86a2" stroke-width="1.51"/><path d="M169,40L242,42L174,-47Z" fill="#e1f2b2" stroke="#e1f2b2" stroke-width="1.51"/><path d="M333,-26L242,42L346,41Z" fill="#d4eeb3" stroke="#d4eeb3" stroke-width="1.51"/><path d="M1459,318L1448,228L1382,317Z" fill="#5c7aa0" stroke="#5c7aa0" stroke-width="1.51"/><path d="M55,321L76,398L147,328Z" fill="#b1deb8" stroke="#b1deb8" stroke-width="1.51"/><path d="M1289,930L1387,942L1366,821Z" fill="#253795" stroke="#253795" stroke-width="1.51"/><path d="M1366,821L1467,770L1370,745Z" fill="#244497" stroke="#244497" stroke-width="1.51"/><path d="M1191,990L1295,1026L1289,930Z" fill="#1e3989" stroke="#1e3989" stroke-width="1.51"/><path d="M1109,1013L1295,1026L1191,990Z" fill="#1b3c86" stroke="#1b3c86" stroke-width="1.51"/><path d="M931,1032L1295,1026L1109,1013Z" fill="#1b4387" stroke="#1b4387" stroke-width="1.51"/><path d="M1458,601L1531,493L1451,474Z" fill="#2d649b" stroke="#2d649b" stroke-width="1.51"/><path d="M1541,589L1531,493L1458,601Z" fill="#265e96" stroke="#265e96" stroke-width="1.51"/><path d="M1458,826L1467,770L1366,821Z" fill="#223e91" stroke="#223e91" stroke-width="1.51"/><path d="M1352,67L1290,-19L1264,71Z" fill="#9295a9" stroke="#9295a9" stroke-width="1.51"/><path d="M1094,-98L1262,-111L920,-112Z" fill="#9eb1bf" stroke="#9eb1bf" stroke-width="1.51"/><path d="M1262,-111L1204,-92L1204,-27Z" fill="#9ba1b5" stroke="#9ba1b5" stroke-width="1.51"/><path d="M1379,993L1387,942L1289,930Z" fill="#20318a" stroke="#20318a" stroke-width="1.51"/><path d="M1464,904L1458,826L1366,821Z" fill="#22388e" stroke="#22388e" stroke-width="1.51"/><path d="M1458,601L1449,647L1542,657Z" fill="#225596" stroke="#225596" stroke-width="1.51"/><path d="M1541,589L1458,601L1542,657Z" fill="#205694" stroke="#205694" stroke-width="1.51"/><path d="M1522,154L1466,147L1448,228Z" fill="#738097" stroke="#738097" stroke-width="1.51"/><path d="M165,935L226,1001L244,927Z" fill="#84879c" stroke="#84879c" stroke-width="1.51"/><path d="M244,927L226,1001L347,996Z" fill="#7c8398" stroke="#7c8398" stroke-width="1.51"/><path d="M347,996L226,1001L492,1033Z" fill="#6b7c91" stroke="#6b7c91" stroke-width="1.51"/><path d="M79,559L55,681L163,665Z" fill="#99bbb8" stroke="#99bbb8" stroke-width="1.51"/><path d="M158,843L165,935L244,927Z" fill="#8c8da7" stroke="#8c8da7" stroke-width="1.51"/><path d="M-6,656L55,681L79,559Z" fill="#9dbdba" stroke="#9dbdba" stroke-width="1.51"/><path d="M82,915L165,935L158,843Z" fill="#918fa7" stroke="#918fa7" stroke-width="1.51"/><path d="M70,476L-12,505L79,559Z" fill="#a3cfbd" stroke="#a3cfbd" stroke-width="1.51"/><path d="M-17,388L-12,505L70,476Z" fill="#a7d7c1" stroke="#a7d7c1" stroke-width="1.51"/><path d="M78,220L147,328L176,236Z" fill="#bce4b6" stroke="#bce4b6" stroke-width="1.51"/><path d="M78,220L176,236L164,168Z" fill="#c7e8b5" stroke="#c7e8b5" stroke-width="1.51"/><path d="M1542,657L1449,647L1530,742Z" fill="#1f4c8f" stroke="#1f4c8f" stroke-width="1.51"/><path d="M1387,942L1464,904L1366,821Z" fill="#23348f" stroke="#23348f" stroke-width="1.51"/><path d="M1295,1026L1379,993L1289,930Z" fill="#1e3286" stroke="#1e3286" stroke-width="1.51"/><path d="M55,681L68,768L146,747Z" fill="#97aab1" stroke="#97aab1" stroke-width="1.51"/><path d="M65,136L78,220L164,168Z" fill="#d2edb3" stroke="#d2edb3" stroke-width="1.51"/><path d="M1530,742L1449,647L1467,770Z" fill="#1f4890" stroke="#1f4890" stroke-width="1.51"/><path d="M1530,742L1467,770L1533,843Z" fill="#1c3c88" stroke="#1c3c88" stroke-width="1.51"/><path d="M1542,229L1448,228L1459,318Z" fill="#5f7997" stroke="#5f7997" stroke-width="1.51"/><path d="M1448,228L1466,147L1380,217Z" fill="#72819e" stroke="#72819e" stroke-width="1.51"/><path d="M1355,-40L1262,-111L1290,-19Z" fill="#9998af" stroke="#9998af" stroke-width="1.51"/><path d="M242,42L169,40L258,128Z" fill="#d7f0b3" stroke="#d7f0b3" stroke-width="1.51"/><path d="M244,-47L242,42L333,-26Z" fill="#dcf1b4" stroke="#dcf1b4" stroke-width="1.51"/><path d="M1533,843L1467,770L1458,826Z" fill="#1e3a89" stroke="#1e3a89" stroke-width="1.51"/><path d="M1542,657L1557,397L1541,589Z" fill="#255d91" stroke="#255d91" stroke-width="1.51"/><path d="M1541,589L1557,397L1531,493Z" fill="#2c6392" stroke="#2c6392" stroke-width="1.51"/><path d="M1531,493L1557,397L1446,423Z" fill="#366b97" stroke="#366b97" stroke-width="1.51"/><path d="M310,-108L244,-47L333,-26Z" fill="#ddf2ba" stroke="#ddf2ba" stroke-width="1.51"/><path d="M428,-97L310,-108L333,-26Z" fill="#d4eebd" stroke="#d4eebd" stroke-width="1.51"/><path d="M673,-120L310,-108L428,-97Z" fill="#c5e7c4" stroke="#c5e7c4" stroke-width="1.51"/><path d="M1290,-19L1262,-111L1204,-27Z" fill="#9a9db1" stroke="#9a9db1" stroke-width="1.51"/><path d="M1204,-92L1262,-111L1094,-98Z" fill="#9ca5ba" stroke="#9ca5ba" stroke-width="1.51"/><path d="M920,-112L1453,-129L673,-120Z" fill="#a0bbc5" stroke="#a0bbc5" stroke-width="1.51"/><path d="M1355,-40L1290,-19L1352,67Z" fill="#9693a7" stroke="#9693a7" stroke-width="1.51"/><path d="M1434,1010L1464,904L1387,942Z" fill="#1c2c81" stroke="#1c2c81" stroke-width="1.51"/><path d="M79,990L171,1001L165,935Z" fill="#888797" stroke="#888797" stroke-width="1.51"/><path d="M165,935L171,1001L226,1001Z" fill="#838596" stroke="#838596" stroke-width="1.51"/><path d="M226,1001L171,1001L492,1033Z" fill="#747f90" stroke="#747f90" stroke-width="1.51"/><path d="M1452,46L1355,-40L1352,67Z" fill="#928da4" stroke="#928da4" stroke-width="1.51"/><path d="M1557,397L1558,320L1459,318Z" fill="#497093" stroke="#497093" stroke-width="1.51"/><path d="M-17,388L70,476L76,398Z" fill="#aad9bd" stroke="#aad9bd" stroke-width="1.51"/><path d="M4,752L57,844L68,768Z" fill="#99a2af" stroke="#99a2af" stroke-width="1.51"/><path d="M-17,388L76,398L55,321Z" fill="#b2ddbc" stroke="#b2ddbc" stroke-width="1.51"/><path d="M68,768L57,844L158,843Z" fill="#969cab" stroke="#969cab" stroke-width="1.51"/><path d="M4,752L68,768L55,681Z" fill="#9aabb4" stroke="#9aabb4" stroke-width="1.51"/><path d="M1558,320L1542,229L1459,318Z" fill="#547592" stroke="#547592" stroke-width="1.51"/><path d="M1466,147L1452,46L1352,67Z" fill="#87889e" stroke="#87889e" stroke-width="1.51"/><path d="M-28,590L-6,656L79,559Z" fill="#9fc4c0" stroke="#9fc4c0" stroke-width="1.51"/><path d="M1541,70L1452,46L1466,147Z" fill="#808495" stroke="#808495" stroke-width="1.51"/><path d="M310,-108L256,-103L244,-47Z" fill="#e1f3bd" stroke="#e1f3bd" stroke-width="1.51"/><path d="M244,-47L174,-47L242,42Z" fill="#e1f4b4" stroke="#e1f4b4" stroke-width="1.51"/><path d="M57,844L82,915L158,843Z" fill="#9594a8" stroke="#9594a8" stroke-width="1.51"/><path d="M-12,505L-28,590L79,559Z" fill="#a2cac0" stroke="#a2cac0" stroke-width="1.51"/><path d="M-36,338L-17,388L55,321Z" fill="#b6dfbe" stroke="#b6dfbe" stroke-width="1.51"/><path d="M-36,338L55,321L-22,216Z" fill="#bee4bd" stroke="#bee4bd" stroke-width="1.51"/><path d="M169,40L65,136L164,168Z" fill="#d9f0b3" stroke="#d9f0b3" stroke-width="1.51"/><path d="M73,46L65,136L169,40Z" fill="#e1f3b2" stroke="#e1f3b2" stroke-width="1.51"/><path d="M1542,657L1561,992L1557,397Z" fill="#1b4988" stroke="#1b4988" stroke-width="1.51"/><path d="M1530,742L1533,843L1542,657Z" fill="#1a4086" stroke="#1a4086" stroke-width="1.51"/><path d="M1464,904L1533,843L1458,826Z" fill="#1e3486" stroke="#1e3486" stroke-width="1.51"/><path d="M1527,905L1533,843L1464,904Z" fill="#1c2f81" stroke="#1c2f81" stroke-width="1.51"/><path d="M1379,993L1434,1010L1387,942Z" fill="#1c2c7f" stroke="#1c2c7f" stroke-width="1.51"/><path d="M1295,1026L1434,1010L1379,993Z" fill="#1b2c7e" stroke="#1b2c7e" stroke-width="1.51"/><path d="M1542,229L1522,154L1448,228Z" fill="#6b7c94" stroke="#6b7c94" stroke-width="1.51"/><path d="M-95,560L-28,590L-12,505Z" fill="#a3cbc5" stroke="#a3cbc5" stroke-width="1.51"/><path d="M-24,906L79,990L82,915Z" fill="#938da1" stroke="#938da1" stroke-width="1.51"/><path d="M-6,656L4,752L55,681Z" fill="#9cb2b8" stroke="#9cb2b8" stroke-width="1.51"/><path d="M-99,766L4,752L-6,656Z" fill="#9cadba" stroke="#9cadba" stroke-width="1.51"/><path d="M256,-103L174,-47L244,-47Z" fill="#e4f4ba" stroke="#e4f4ba" stroke-width="1.51"/><path d="M1561,992L1527,905L1464,904Z" fill="#182979" stroke="#182979" stroke-width="1.51"/><path d="M-113,409L-95,508L-12,505Z" fill="#a9d6c8" stroke="#a9d6c8" stroke-width="1.51"/><path d="M-22,216L55,321L78,220Z" fill="#c5e7b8" stroke="#c5e7b8" stroke-width="1.51"/><path d="M1452,46L1439,-35L1355,-40Z" fill="#938da0" stroke="#938da0" stroke-width="1.51"/><path d="M1355,-40L1387,-106L1262,-111Z" fill="#9b95b2" stroke="#9b95b2" stroke-width="1.51"/><path d="M1559,-21L1439,-35L1452,46Z" fill="#8c8895" stroke="#8c8895" stroke-width="1.51"/><path d="M65,136L-22,216L78,220Z" fill="#d3edb7" stroke="#d3edb7" stroke-width="1.51"/><path d="M73,-14L73,46L169,40Z" fill="#e7f5b2" stroke="#e7f5b2" stroke-width="1.51"/><path d="M-5,857L82,915L57,844Z" fill="#9895aa" stroke="#9895aa" stroke-width="1.51"/><path d="M82,915L79,990L165,935Z" fill="#8e8a9d" stroke="#8e8a9d" stroke-width="1.51"/><path d="M1439,-35L1387,-106L1355,-40Z" fill="#978fa9" stroke="#978fa9" stroke-width="1.51"/><path d="M-20,128L-22,216L65,136Z" fill="#dbf1b9" stroke="#dbf1b9" stroke-width="1.51"/><path d="M4,752L-5,857L57,844Z" fill="#9a9eb0" stroke="#9a9eb0" stroke-width="1.51"/><path d="M-24,906L-5,857L-92,817Z" fill="#9b98b3" stroke="#9b98b3" stroke-width="1.51"/><path d="M1439,-35L1453,-129L1387,-106Z" fill="#958ea8" stroke="#958ea8" stroke-width="1.51"/><path d="M1522,154L1541,70L1466,147Z" fill="#7a8192" stroke="#7a8192" stroke-width="1.51"/><path d="M1542,229L1541,70L1522,154Z" fill="#747e8e" stroke="#747e8e" stroke-width="1.51"/><path d="M1559,-21L1541,70L1542,229Z" fill="#7a808c" stroke="#7a808c" stroke-width="1.51"/><path d="M-113,409L-12,505L-17,388Z" fill="#acdac6" stroke="#acdac6" stroke-width="1.51"/><path d="M-28,590L-123,676L-6,656Z" fill="#a0bdc3" stroke="#a0bdc3" stroke-width="1.51"/><path d="M-113,409L-17,388L-36,338Z" fill="#b4dec5" stroke="#b4dec5" stroke-width="1.51"/><path d="M-95,508L-95,560L-12,505Z" fill="#a6d0c7" stroke="#a6d0c7" stroke-width="1.51"/><path d="M51,-98L73,-14L174,-47Z" fill="#eef8b7" stroke="#eef8b7" stroke-width="1.51"/><path d="M174,-47L73,-14L169,40Z" fill="#e7f5b2" stroke="#e7f5b2" stroke-width="1.51"/><path d="M73,46L-20,128L65,136Z" fill="#e1f3b5" stroke="#e1f3b5" stroke-width="1.51"/><path d="M256,-103L156,-120L174,-47Z" fill="#e8f6bd" stroke="#e8f6bd" stroke-width="1.51"/><path d="M310,-108L156,-120L256,-103Z" fill="#e5f5c0" stroke="#e5f5c0" stroke-width="1.51"/><path d="M673,-120L156,-120L310,-108Z" fill="#d3edc3" stroke="#d3edc3" stroke-width="1.51"/><path d="M-31,61L-20,128L73,46Z" fill="#e6f5b8" stroke="#e6f5b8" stroke-width="1.51"/><path d="M-117,301L-113,409L-36,338Z" fill="#b9e1c7" stroke="#b9e1c7" stroke-width="1.51"/><path d="M-5,857L-24,906L82,915Z" fill="#9992ab" stroke="#9992ab" stroke-width="1.51"/><path d="M-92,817L-5,857L4,752Z" fill="#9ba0b5" stroke="#9ba0b5" stroke-width="1.51"/><path d="M-95,508L-123,676L-95,560Z" fill="#a4c9cb" stroke="#a4c9cb" stroke-width="1.51"/><path d="M-117,301L-36,338L-22,216Z" fill="#c2e6c2" stroke="#c2e6c2" stroke-width="1.51"/><path d="M1434,1010L1561,992L1464,904Z" fill="#172876" stroke="#172876" stroke-width="1.51"/><path d="M1527,905L1561,992L1533,843Z" fill="#192a7a" stroke="#192a7a" stroke-width="1.51"/><path d="M1533,843L1561,992L1542,657Z" fill="#1a347f" stroke="#1a347f" stroke-width="1.51"/><path d="M1557,397L1561,992L1558,320Z" fill="#225a8f" stroke="#225a8f" stroke-width="1.51"/><path d="M-123,676L-99,766L-6,656Z" fill="#9eb3c0" stroke="#9eb3c0" stroke-width="1.51"/><path d="M-123,676L-28,590L-95,560Z" fill="#a1c4c8" stroke="#a1c4c8" stroke-width="1.51"/><path d="M1524,-101L1453,-129L1439,-35Z" fill="#918ba0" stroke="#918ba0" stroke-width="1.51"/><path d="M1387,-106L1453,-129L1262,-111Z" fill="#9b92b4" stroke="#9b92b4" stroke-width="1.51"/><path d="M1262,-111L1453,-129L920,-112Z" fill="#9da3ba" stroke="#9da3ba" stroke-width="1.51"/><path d="M673,-120L-2,-122L156,-120Z" fill="#e2f4c2" stroke="#e2f4c2" stroke-width="1.51"/><path d="M-113,409L-123,676L-95,508Z" fill="#a7cfcb" stroke="#a7cfcb" stroke-width="1.51"/><path d="M-113,409L-122,249L-123,676Z" fill="#addacc" stroke="#addacc" stroke-width="1.51"/><path d="M-122,249L-117,301L-22,216Z" fill="#c9e9c3" stroke="#c9e9c3" stroke-width="1.51"/><path d="M-97,909L-92,817L-99,766Z" fill="#9d9db9" stroke="#9d9db9" stroke-width="1.51"/><path d="M-99,766L-92,817L4,752Z" fill="#9ca5ba" stroke="#9ca5ba" stroke-width="1.51"/><path d="M-111,149L-122,249L-22,216Z" fill="#d4eec2" stroke="#d4eec2" stroke-width="1.51"/><path d="M-1,-21L-31,61L73,46Z" fill="#ecf8b7" stroke="#ecf8b7" stroke-width="1.51"/><path d="M-1,-21L73,46L73,-14Z" fill="#edf8b3" stroke="#edf8b3" stroke-width="1.51"/><path d="M1541,70L1559,-21L1452,46Z" fill="#858590" stroke="#858590" stroke-width="1.51"/><path d="M1558,320L1559,-21L1542,229Z" fill="#6d7b8b" stroke="#6d7b8b" stroke-width="1.51"/><path d="M1561,992L1559,-21L1558,320Z" fill="#346890" stroke="#346890" stroke-width="1.51"/><path d="M-117,301L-122,249L-113,409Z" fill="#bee4c8" stroke="#bee4c8" stroke-width="1.51"/><path d="M-111,149L-22,216L-20,128Z" fill="#dcf1be" stroke="#dcf1be" stroke-width="1.51"/><path d="M-112,73L-111,149L-20,128Z" fill="#e5f5c0" stroke="#e5f5c0" stroke-width="1.51"/><path d="M51,-98L-1,-21L73,-14Z" fill="#f1faba" stroke="#f1faba" stroke-width="1.51"/><path d="M156,-120L51,-98L174,-47Z" fill="#eef8bc" stroke="#eef8bc" stroke-width="1.51"/><path d="M1559,-21L1524,-101L1439,-35Z" fill="#8c8797" stroke="#8c8797" stroke-width="1.51"/><path d="M-97,909L-31,1014L-24,906Z" fill="#958ea8" stroke="#958ea8" stroke-width="1.51"/><path d="M-24,906L-31,1014L79,990Z" fill="#908b9d" stroke="#908b9d" stroke-width="1.51"/><path d="M79,990L-31,1014L171,1001Z" fill="#8a8691" stroke="#8a8691" stroke-width="1.51"/><path d="M171,1001L-108,1030L492,1033Z" fill="#7d818e" stroke="#7d818e" stroke-width="1.51"/><path d="M-112,73L-20,128L-31,61Z" fill="#e7f6bd" stroke="#e7f6bd" stroke-width="1.51"/><path d="M-92,817L-97,909L-24,906Z" fill="#9b96b3" stroke="#9b96b3" stroke-width="1.51"/><path d="M-123,676L-97,909L-99,766Z" fill="#9da5bd" stroke="#9da5bd" stroke-width="1.51"/><path d="M-119,-30L-112,73L-31,61Z" fill="#eff9c0" stroke="#eff9c0" stroke-width="1.51"/><path d="M-111,149L-112,73L-122,249Z" fill="#e0f3c4" stroke="#e0f3c4" stroke-width="1.51"/><path d="M-119,-30L-31,61L-1,-21Z" fill="#f1fabd" stroke="#f1fabd" stroke-width="1.51"/><path d="M51,-98L-2,-122L-1,-21Z" fill="#f4fbc0" stroke="#f4fbc0" stroke-width="1.51"/><path d="M156,-120L-2,-122L51,-98Z" fill="#f4fbc0" stroke="#f4fbc0" stroke-width="1.51"/><path d="M1453,-129L-2,-122L673,-120Z" fill="#acdacb" stroke="#acdacb" stroke-width="1.51"/><path d="M-97,909L-108,1030L-31,1014Z" fill="#918aa1" stroke="#918aa1" stroke-width="1.51"/><path d="M-31,1014L-108,1030L171,1001Z" fill="#8a8693" stroke="#8a8693" stroke-width="1.51"/><path d="M-123,676L-108,1030L-97,909Z" fill="#9c97b8" stroke="#9c97b8" stroke-width="1.51"/><path d="M-81,-100L-119,-30L-1,-21Z" fill="#f6fcc4" stroke="#f6fcc4" stroke-width="1.51"/><path d="M-112,73L-119,-30L-122,249Z" fill="#e9f6c3" stroke="#e9f6c3" stroke-width="1.51"/><path d="M-2,-122L-81,-100L-1,-21Z" fill="#f6fbc4" stroke="#f6fbc4" stroke-width="1.51"/></svg>