<svg xmlns="http://www.w3.org/2000/svg" width="1440" height="900"><path d="M751,474L768,559L829,481Z" fill="#9490c4" stroke="#9490c4" stroke-width="1.51"/><path d="M768,559L853,595L829,481Z" fill="#8e8ac0" stroke="#8e8ac0" stroke-width="1.51"/><path d="M751,474L667,514L768,559Z" fill="#9793c5" stroke="#9793c5" stroke-width="1.51"/><path d="M829,481L755,394L751,474Z" fill="#9a96c6" stroke="#9a96c6" stroke-width="1.51"/><path d="M751,474L686,388L667,514Z" fill="#9f9ac8" stroke="#9f9ac8" stroke-width="1.51"/><path d="M768,559L776,644L853,595Z" fill="#8a86bf" stroke="#8a86bf" stroke-width="1.51"/><path d="M670,598L776,644L768,559Z" fill="#8e8ac1" stroke="#8e8ac1" stroke-width="1.51"/><path d="M829,481L871,403L755,394Z" fill="#9a96c7" stroke="#9a96c7" stroke-width="1.51"/><path d="M932,481L871,403L829,481Z" fill="#938fc3" stroke="#938fc3" stroke-width="1.51"/><path d="M667,514L670,598L768,559Z" fill="#9591c4" stroke="#9591c4" stroke-width="1.51"/><path d="M853,595L932,481L829,481Z" fill="#8d89c0" stroke="#8d89c0" stroke-width="1.51"/><path d="M755,394L686,388L751,474Z" fill="#a09dc9" stroke="#a09dc9" stroke-width="1.51"/><path d="M680,332L686,388L755,394Z" fill="#a7a4cd" stroke="#a7a4cd" stroke-width="1.51"/><path d="M776,644L854,662L853,595Z" fill="#857fbb" stroke="#857fbb" stroke-width="1.51"/><path d="M853,595L953,578L932,481Z" fill="#8783be" stroke="#8783be" stroke-width="1.51"/><path d="M933,684L953,578L853,595Z" fill="#817cb9" stroke="#817cb9" stroke-width="1.51"/><path d="M670,598L675,651L776,644Z" fill="#8e88bf" stroke="#8e88bf" stroke-width="1.51"/><path d="M776,644L851,750L854,662Z" fill="#8277b7" stroke="#8277b7" stroke-width="1.51"/><path d="M932,481L952,422L871,403Z" fill="#928ec3" stroke="#928ec3" stroke-width="1.51"/><path d="M1025,477L952,422L932,481Z" fill="#8d87bf" stroke="#8d87bf" stroke-width="1.51"/><path d="M850,304L766,315L755,394Z" fill="#a4a2cd" stroke="#a4a2cd" stroke-width="1.51"/><path d="M850,304L755,394L871,403Z" fill="#9f9cca" stroke="#9f9cca" stroke-width="1.51"/><path d="M670,598L597,590L675,651Z" fill="#9390c4" stroke="#9390c4" stroke-width="1.51"/><path d="M667,514L597,590L670,598Z" fill="#9894c6" stroke="#9894c6" stroke-width="1.51"/><path d="M574,482L597,590L667,514Z" fill="#9e9bca" stroke="#9e9bca" stroke-width="1.51"/><path d="M569,421L574,482L667,514Z" fill="#a4a1cc" stroke="#a4a1cc" stroke-width="1.51"/><path d="M766,315L680,332L755,394Z" fill="#a7a5ce" stroke="#a7a5ce" stroke-width="1.51"/><path d="M569,421L667,514L686,388Z" fill="#a5a1cc" stroke="#a5a1cc" stroke-width="1.51"/><path d="M944,337L850,304L871,403Z" fill="#9d9ac9" stroke="#9d9ac9" stroke-width="1.51"/><path d="M854,662L933,684L853,595Z" fill="#817ab8" stroke="#817ab8" stroke-width="1.51"/><path d="M851,750L933,684L854,662Z" fill="#7d73b4" stroke="#7d73b4" stroke-width="1.51"/><path d="M953,578L1025,477L932,481Z" fill="#8882bc" stroke="#8882bc" stroke-width="1.51"/><path d="M933,684L1006,582L953,578Z" fill="#7e78b8" stroke="#7e78b8" stroke-width="1.51"/><path d="M952,422L944,337L871,403Z" fill="#9693c6" stroke="#9693c6" stroke-width="1.51"/><path d="M1042,399L944,337L952,422Z" fill="#948ec3" stroke="#948ec3" stroke-width="1.51"/><path d="M610,314L569,421L686,388Z" fill="#acaad1" stroke="#acaad1" stroke-width="1.51"/><path d="M1006,582L1025,477L953,578Z" fill="#837cba" stroke="#837cba" stroke-width="1.51"/><path d="M675,651L743,751L776,644Z" fill="#897ebb" stroke="#897ebb" stroke-width="1.51"/><path d="M664,771L743,751L675,651Z" fill="#887bb9" stroke="#887bb9" stroke-width="1.51"/><path d="M743,751L851,750L776,644Z" fill="#8276b6" stroke="#8276b6" stroke-width="1.51"/><path d="M597,590L572,660L675,651Z" fill="#948fc4" stroke="#948fc4" stroke-width="1.51"/><path d="M515,587L572,660L597,590Z" fill="#9997c8" stroke="#9997c8" stroke-width="1.51"/><path d="M515,587L597,590L574,482Z" fill="#9f9cca" stroke="#9f9cca" stroke-width="1.51"/><path d="M680,332L610,314L686,388Z" fill="#adabd2" stroke="#adabd2" stroke-width="1.51"/><path d="M693,225L610,314L680,332Z" fill="#b2b1d5" stroke="#b2b1d5" stroke-width="1.51"/><path d="M693,225L680,332L766,315Z" fill="#afadd3" stroke="#afadd3" stroke-width="1.51"/><path d="M850,304L837,249L766,315Z" fill="#a8a6cf" stroke="#a8a6cf" stroke-width="1.51"/><path d="M927,213L837,249L850,304Z" fill="#a7a5cf" stroke="#a7a5cf" stroke-width="1.51"/><path d="M837,249L776,243L766,315Z" fill="#aba9d1" stroke="#aba9d1" stroke-width="1.51"/><path d="M1025,477L1042,399L952,422Z" fill="#8d86bf" stroke="#8d86bf" stroke-width="1.51"/><path d="M944,337L927,213L850,304Z" fill="#a2a0cd" stroke="#a2a0cd" stroke-width="1.51"/><path d="M1088,475L1042,399L1025,477Z" fill="#8a7fbb" stroke="#8a7fbb" stroke-width="1.51"/><path d="M500,484L515,587L574,482Z" fill="#a5a3ce" stroke="#a5a3ce" stroke-width="1.51"/><path d="M582,751L664,771L675,651Z" fill="#8c7fbb" stroke="#8c7fbb" stroke-width="1.51"/><path d="M743,751L742,823L851,750Z" fill="#7f6eb2" stroke="#7f6eb2" stroke-width="1.51"/><path d="M569,421L500,484L574,482Z" fill="#a9a7cf" stroke="#a9a7cf" stroke-width="1.51"/><path d="M490,414L500,484L569,421Z" fill="#adabd2" stroke="#adabd2" stroke-width="1.51"/><path d="M933,684L1037,662L1006,582Z" fill="#7b71b4" stroke="#7b71b4" stroke-width="1.51"/><path d="M1006,582L1088,475L1025,477Z" fill="#847bb9" stroke="#847bb9" stroke-width="1.51"/><path d="M1035,735L1037,662L933,684Z" fill="#7769b0" stroke="#7769b0" stroke-width="1.51"/><path d="M851,750L940,765L933,684Z" fill="#796cb1" stroke="#796cb1" stroke-width="1.51"/><path d="M916,824L940,765L851,750Z" fill="#7665ad" stroke="#7665ad" stroke-width="1.51"/><path d="M762,154L693,225L776,243Z" fill="#b4b2d5" stroke="#b4b2d5" stroke-width="1.51"/><path d="M776,243L693,225L766,315Z" fill="#afadd3" stroke="#afadd3" stroke-width="1.51"/><path d="M1127,579L1088,475L1006,582Z" fill="#7f74b5" stroke="#7f74b5" stroke-width="1.51"/><path d="M511,333L490,414L569,421Z" fill="#b1b1d5" stroke="#b1b1d5" stroke-width="1.51"/><path d="M511,333L569,421L610,314Z" fill="#b2b1d5" stroke="#b2b1d5" stroke-width="1.51"/><path d="M664,771L742,823L743,751Z" fill="#8371b4" stroke="#8371b4" stroke-width="1.51"/><path d="M664,771L688,860L742,823Z" fill="#826eb2" stroke="#826eb2" stroke-width="1.51"/><path d="M572,660L582,751L675,651Z" fill="#9187c0" stroke="#9187c0" stroke-width="1.51"/><path d="M522,756L582,751L572,660Z" fill="#9286c0" stroke="#9286c0" stroke-width="1.51"/><path d="M742,823L847,831L851,750Z" fill="#7b68b0" stroke="#7b68b0" stroke-width="1.51"/><path d="M1042,399L1043,307L944,337Z" fill="#968fc4" stroke="#968fc4" stroke-width="1.51"/><path d="M1124,327L1043,307L1042,399Z" fill="#9389c1" stroke="#9389c1" stroke-width="1.51"/><path d="M519,248L511,333L610,314Z" fill="#b9b9da" stroke="#b9b9da" stroke-width="1.51"/><path d="M1009,213L927,213L944,337Z" fill="#a29ecc" stroke="#a29ecc" stroke-width="1.51"/><path d="M837,249L762,154L776,243Z" fill="#b1aed3" stroke="#b1aed3" stroke-width="1.51"/><path d="M693,225L596,237L610,314Z" fill="#b7b6d8" stroke="#b7b6d8" stroke-width="1.51"/><path d="M1037,662L1127,579L1006,582Z" fill="#7a6fb3" stroke="#7a6fb3" stroke-width="1.51"/><path d="M940,765L1035,735L933,684Z" fill="#7667af" stroke="#7667af" stroke-width="1.51"/><path d="M1016,835L1035,735L940,765Z" fill="#705eaa" stroke="#705eaa" stroke-width="1.51"/><path d="M847,831L916,824L851,750Z" fill="#7765ad" stroke="#7765ad" stroke-width="1.51"/><path d="M515,587L495,684L572,660Z" fill="#9a94c7" stroke="#9a94c7" stroke-width="1.51"/><path d="M438,565L495,684L515,587Z" fill="#9f9ccb" stroke="#9f9ccb" stroke-width="1.51"/><path d="M438,565L515,587L500,484Z" fill="#a5a4ce" stroke="#a5a4ce" stroke-width="1.51"/><path d="M1088,475L1110,402L1042,399Z" fill="#8b80bb" stroke="#8b80bb" stroke-width="1.51"/><path d="M1187,497L1110,402L1088,475Z" fill="#8577b7" stroke="#8577b7" stroke-width="1.51"/><path d="M1108,680L1127,579L1037,662Z" fill="#7667af" stroke="#7667af" stroke-width="1.51"/><path d="M397,507L438,565L500,484Z" fill="#aaa9d1" stroke="#aaa9d1" stroke-width="1.51"/><path d="M430,405L500,484L490,414Z" fill="#b0afd4" stroke="#b0afd4" stroke-width="1.51"/><path d="M693,225L668,159L596,237Z" fill="#babad9" stroke="#babad9" stroke-width="1.51"/><path d="M861,137L762,154L837,249Z" fill="#b2afd5" stroke="#b2afd5" stroke-width="1.51"/><path d="M585,823L688,860L664,771Z" fill="#8672b5" stroke="#8672b5" stroke-width="1.51"/><path d="M495,684L522,756L572,660Z" fill="#958cc3" stroke="#958cc3" stroke-width="1.51"/><path d="M421,758L522,756L495,684Z" fill="#978ac2" stroke="#978ac2" stroke-width="1.51"/><path d="M742,823L759,928L847,831Z" fill="#7962ad" stroke="#7962ad" stroke-width="1.51"/><path d="M949,924L1016,835L916,824Z" fill="#6d56a6" stroke="#6d56a6" stroke-width="1.51"/><path d="M585,823L664,771L582,751Z" fill="#8a7ab9" stroke="#8a7ab9" stroke-width="1.51"/><path d="M1035,735L1108,680L1037,662Z" fill="#7463ad" stroke="#7463ad" stroke-width="1.51"/><path d="M762,154L668,159L693,225Z" fill="#bab8d8" stroke="#bab8d8" stroke-width="1.51"/><path d="M1043,307L1009,213L944,337Z" fill="#9d97c8" stroke="#9d97c8" stroke-width="1.51"/><path d="M927,213L861,137L837,249Z" fill="#adaad2" stroke="#adaad2" stroke-width="1.51"/><path d="M1122,244L1009,213L1043,307Z" fill="#9d93c7" stroke="#9d93c7" stroke-width="1.51"/><path d="M522,756L585,823L582,751Z" fill="#8e7ebb" stroke="#8e7ebb" stroke-width="1.51"/><path d="M511,333L430,405L490,414Z" fill="#b5b5d7" stroke="#b5b5d7" stroke-width="1.51"/><path d="M399,315L430,405L511,333Z" fill="#bbbbda" stroke="#bbbbda" stroke-width="1.51"/><path d="M519,248L610,314L596,237Z" fill="#babada" stroke="#babada" stroke-width="1.51"/><path d="M489,152L519,248L596,237Z" fill="#c2c2df" stroke="#c2c2df" stroke-width="1.51"/><path d="M952,162L861,137L927,213Z" fill="#acaad2" stroke="#acaad2" stroke-width="1.51"/><path d="M696,45L600,138L668,159Z" fill="#c3c1dd" stroke="#c3c1dd" stroke-width="1.51"/><path d="M1176,339L1124,327L1110,402Z" fill="#8f81bd" stroke="#8f81bd" stroke-width="1.51"/><path d="M1110,402L1124,327L1042,399Z" fill="#8f83be" stroke="#8f83be" stroke-width="1.51"/><path d="M1009,213L952,162L927,213Z" fill="#a7a3cf" stroke="#a7a3cf" stroke-width="1.51"/><path d="M430,405L397,507L500,484Z" fill="#b0aed3" stroke="#b0aed3" stroke-width="1.51"/><path d="M438,565L407,681L495,684Z" fill="#9f9aca" stroke="#9f9aca" stroke-width="1.51"/><path d="M1035,735L1127,767L1108,680Z" fill="#705ba9" stroke="#705ba9" stroke-width="1.51"/><path d="M916,824L1016,835L940,765Z" fill="#715eaa" stroke="#715eaa" stroke-width="1.51"/><path d="M949,924L916,824L847,831Z" fill="#715ba9" stroke="#715ba9" stroke-width="1.51"/><path d="M1127,579L1187,497L1088,475Z" fill="#7f71b4" stroke="#7f71b4" stroke-width="1.51"/><path d="M1192,579L1187,497L1127,579Z" fill="#796ab0" stroke="#796ab0" stroke-width="1.51"/><path d="M1179,652L1192,579L1127,579Z" fill="#7565ae" stroke="#7565ae" stroke-width="1.51"/><path d="M1179,652L1127,579L1108,680Z" fill="#7463ac" stroke="#7463ac" stroke-width="1.51"/><path d="M339,560L407,681L438,565Z" fill="#a6a4cf" stroke="#a6a4cf" stroke-width="1.51"/><path d="M522,756L490,854L585,823Z" fill="#8e7bba" stroke="#8e7bba" stroke-width="1.51"/><path d="M1204,739L1179,652L1108,680Z" fill="#6e59a7" stroke="#6e59a7" stroke-width="1.51"/><path d="M696,45L668,159L762,154Z" fill="#bfbcdb" stroke="#bfbcdb" stroke-width="1.51"/><path d="M668,159L600,138L596,237Z" fill="#c0bfdc" stroke="#c0bfdc" stroke-width="1.51"/><path d="M688,860L759,928L742,823Z" fill="#7c65ad" stroke="#7c65ad" stroke-width="1.51"/><path d="M673,918L759,928L688,860Z" fill="#7c62ac" stroke="#7c62ac" stroke-width="1.51"/><path d="M585,908L688,860L585,823Z" fill="#856eb3" stroke="#856eb3" stroke-width="1.51"/><path d="M585,908L673,918L688,860Z" fill="#8067b0" stroke="#8067b0" stroke-width="1.51"/><path d="M1209,413L1176,339L1110,402Z" fill="#8b7bba" stroke="#8b7bba" stroke-width="1.51"/><path d="M1124,327L1122,244L1043,307Z" fill="#978cc3" stroke="#978cc3" stroke-width="1.51"/><path d="M1009,213L1020,134L952,162Z" fill="#a8a2cf" stroke="#a8a2cf" stroke-width="1.51"/><path d="M1109,835L1127,767L1035,735Z" fill="#6c54a4" stroke="#6c54a4" stroke-width="1.51"/><path d="M759,928L828,935L847,831Z" fill="#755ca9" stroke="#755ca9" stroke-width="1.51"/><path d="M1176,339L1122,244L1124,327Z" fill="#9486c0" stroke="#9486c0" stroke-width="1.51"/><path d="M1262,393L1209,413L1291,474Z" fill="#836eb3" stroke="#836eb3" stroke-width="1.51"/><path d="M1187,497L1209,413L1110,402Z" fill="#8575b6" stroke="#8575b6" stroke-width="1.51"/><path d="M416,234L511,333L519,248Z" fill="#c0c1df" stroke="#c0c1df" stroke-width="1.51"/><path d="M416,234L399,315L511,333Z" fill="#c1c1de" stroke="#c1c1de" stroke-width="1.51"/><path d="M430,405L334,476L397,507Z" fill="#b4b2d5" stroke="#b4b2d5" stroke-width="1.51"/><path d="M407,681L421,758L495,684Z" fill="#9c90c5" stroke="#9c90c5" stroke-width="1.51"/><path d="M952,162L947,81L861,137Z" fill="#b0add4" stroke="#b0add4" stroke-width="1.51"/><path d="M861,137L832,54L762,154Z" fill="#b8b5d7" stroke="#b8b5d7" stroke-width="1.51"/><path d="M1089,140L1020,134L1009,213Z" fill="#a79ecc" stroke="#a79ecc" stroke-width="1.51"/><path d="M828,935L949,924L847,831Z" fill="#7058a7" stroke="#7058a7" stroke-width="1.51"/><path d="M1016,835L1109,835L1035,735Z" fill="#6c55a5" stroke="#6c55a5" stroke-width="1.51"/><path d="M490,854L585,908L585,823Z" fill="#8973b6" stroke="#8973b6" stroke-width="1.51"/><path d="M742,1025L828,935L759,928Z" fill="#7357a6" stroke="#7357a6" stroke-width="1.51"/><path d="M397,507L339,560L438,565Z" fill="#aca9d1" stroke="#aca9d1" stroke-width="1.51"/><path d="M320,771L412,824L421,758Z" fill="#9b89c2" stroke="#9b89c2" stroke-width="1.51"/><path d="M334,476L339,560L397,507Z" fill="#b1afd4" stroke="#b1afd4" stroke-width="1.51"/><path d="M421,758L490,854L522,756Z" fill="#9382be" stroke="#9382be" stroke-width="1.51"/><path d="M326,409L334,476L430,405Z" fill="#b9b7d8" stroke="#b9b7d8" stroke-width="1.51"/><path d="M1097,918L1109,835L1016,835Z" fill="#664aa0" stroke="#664aa0" stroke-width="1.51"/><path d="M1127,767L1204,739L1108,680Z" fill="#6d55a6" stroke="#6d55a6" stroke-width="1.51"/><path d="M1020,134L947,81L952,162Z" fill="#ada8d1" stroke="#ada8d1" stroke-width="1.51"/><path d="M947,81L832,54L861,137Z" fill="#b5b1d7" stroke="#b5b1d7" stroke-width="1.51"/><path d="M949,924L1009,914L1016,835Z" fill="#6a4fa3" stroke="#6a4fa3" stroke-width="1.51"/><path d="M342,338L326,409L430,405Z" fill="#bdbcdb" stroke="#bdbcdb" stroke-width="1.51"/><path d="M489,152L416,234L519,248Z" fill="#c6c7e1" stroke="#c6c7e1" stroke-width="1.51"/><path d="M600,138L489,152L596,237Z" fill="#c4c4e0" stroke="#c4c4e0" stroke-width="1.51"/><path d="M511,81L489,152L600,138Z" fill="#cacae3" stroke="#cacae3" stroke-width="1.51"/><path d="M832,54L773,41L762,154Z" fill="#bcb9d9" stroke="#bcb9d9" stroke-width="1.51"/><path d="M247,564L323,686L339,560Z" fill="#aca9d2" stroke="#aca9d2" stroke-width="1.51"/><path d="M342,338L430,405L399,315Z" fill="#bebedc" stroke="#bebedc" stroke-width="1.51"/><path d="M773,41L696,45L762,154Z" fill="#bfbcda" stroke="#bfbcda" stroke-width="1.51"/><path d="M1197,846L1204,739L1127,767Z" fill="#674ba0" stroke="#674ba0" stroke-width="1.51"/><path d="M1179,652L1266,587L1192,579Z" fill="#7261ab" stroke="#7261ab" stroke-width="1.51"/><path d="M1192,579L1266,587L1187,497Z" fill="#7765ae" stroke="#7765ae" stroke-width="1.51"/><path d="M339,214L342,338L399,315Z" fill="#c7c7e1" stroke="#c7c7e1" stroke-width="1.51"/><path d="M1122,244L1089,140L1009,213Z" fill="#a197c8" stroke="#a197c8" stroke-width="1.51"/><path d="M1020,134L1005,74L947,81Z" fill="#aea7d1" stroke="#aea7d1" stroke-width="1.51"/><path d="M1182,163L1089,140L1122,244Z" fill="#a092c6" stroke="#a092c6" stroke-width="1.51"/><path d="M1181,225L1122,244L1176,339Z" fill="#9688c0" stroke="#9688c0" stroke-width="1.51"/><path d="M1268,666L1266,587L1179,652Z" fill="#6f5aa8" stroke="#6f5aa8" stroke-width="1.51"/><path d="M1262,393L1176,339L1209,413Z" fill="#8977b7" stroke="#8977b7" stroke-width="1.51"/><path d="M1288,335L1181,225L1176,339Z" fill="#9180bd" stroke="#9180bd" stroke-width="1.51"/><path d="M947,81L858,-9L832,54Z" fill="#b9b5d8" stroke="#b9b5d8" stroke-width="1.51"/><path d="M832,54L858,-9L773,41Z" fill="#bdb9da" stroke="#bdb9da" stroke-width="1.51"/><path d="M1089,140L1005,74L1020,134Z" fill="#aaa1ce" stroke="#aaa1ce" stroke-width="1.51"/><path d="M421,758L412,824L490,854Z" fill="#9581be" stroke="#9581be" stroke-width="1.51"/><path d="M490,854L513,945L585,908Z" fill="#886fb5" stroke="#886fb5" stroke-width="1.51"/><path d="M323,686L421,758L407,681Z" fill="#a094c7" stroke="#a094c7" stroke-width="1.51"/><path d="M1291,474L1209,413L1187,497Z" fill="#806db2" stroke="#806db2" stroke-width="1.51"/><path d="M247,564L339,560L334,476Z" fill="#b3b0d5" stroke="#b3b0d5" stroke-width="1.51"/><path d="M339,560L323,686L407,681Z" fill="#a6a0cd" stroke="#a6a0cd" stroke-width="1.51"/><path d="M489,152L428,165L416,234Z" fill="#cbcce4" stroke="#cbcce4" stroke-width="1.51"/><path d="M416,234L339,214L399,315Z" fill="#c9c9e2" stroke="#c9c9e2" stroke-width="1.51"/><path d="M400,53L428,165L489,152Z" fill="#d1d1e7" stroke="#d1d1e7" stroke-width="1.51"/><path d="M696,45L572,57L600,138Z" fill="#c7c6e0" stroke="#c7c6e0" stroke-width="1.51"/><path d="M1266,587L1291,474L1187,497Z" fill="#7966ae" stroke="#7966ae" stroke-width="1.51"/><path d="M1266,587L1349,588L1291,474Z" fill="#745eaa" stroke="#745eaa" stroke-width="1.51"/><path d="M1204,739L1268,666L1179,652Z" fill="#6c55a5" stroke="#6c55a5" stroke-width="1.51"/><path d="M828,935L845,1015L949,924Z" fill="#6d52a3" stroke="#6d52a3" stroke-width="1.51"/><path d="M949,924L1041,1004L1009,914Z" fill="#65489e" stroke="#65489e" stroke-width="1.51"/><path d="M742,1025L845,1015L828,935Z" fill="#6f53a3" stroke="#6f53a3" stroke-width="1.51"/><path d="M742,1025L759,928L673,918Z" fill="#775ba9" stroke="#775ba9" stroke-width="1.51"/><path d="M572,57L511,81L600,138Z" fill="#cbcae3" stroke="#cbcae3" stroke-width="1.51"/><path d="M1204,739L1262,772L1268,666Z" fill="#684da0" stroke="#684da0" stroke-width="1.51"/><path d="M1109,835L1197,846L1127,767Z" fill="#664aa0" stroke="#664aa0" stroke-width="1.51"/><path d="M1009,914L1097,918L1016,835Z" fill="#674aa0" stroke="#674aa0" stroke-width="1.51"/><path d="M1041,1004L1097,918L1009,914Z" fill="#63439c" stroke="#63439c" stroke-width="1.51"/><path d="M670,1023L742,1025L673,918Z" fill="#775ba8" stroke="#775ba8" stroke-width="1.51"/><path d="M427,914L513,945L490,854Z" fill="#8c73b7" stroke="#8c73b7" stroke-width="1.51"/><path d="M670,1023L673,918L585,908Z" fill="#7e62ac" stroke="#7e62ac" stroke-width="1.51"/><path d="M753,-35L679,-15L696,45Z" fill="#c7c4df" stroke="#c7c4df" stroke-width="1.51"/><path d="M696,45L583,-5L572,57Z" fill="#cbc9e2" stroke="#cbc9e2" stroke-width="1.51"/><path d="M941,-47L858,-9L947,81Z" fill="#b8b4d7" stroke="#b8b4d7" stroke-width="1.51"/><path d="M572,1027L670,1023L585,908Z" fill="#7e62ab" stroke="#7e62ab" stroke-width="1.51"/><path d="M1089,140L1123,72L1005,74Z" fill="#aa9fcd" stroke="#aa9fcd" stroke-width="1.51"/><path d="M1005,74L941,-47L947,81Z" fill="#b3aed5" stroke="#b3aed5" stroke-width="1.51"/><path d="M1181,225L1182,163L1122,244Z" fill="#9c8dc4" stroke="#9c8dc4" stroke-width="1.51"/><path d="M1266,130L1182,163L1181,225Z" fill="#9e8bc4" stroke="#9e8bc4" stroke-width="1.51"/><path d="M1288,335L1176,339L1262,393Z" fill="#8a77b8" stroke="#8a77b8" stroke-width="1.51"/><path d="M1097,918L1197,846L1109,835Z" fill="#63449d" stroke="#63449d" stroke-width="1.51"/><path d="M1358,403L1288,335L1262,393Z" fill="#856fb4" stroke="#856fb4" stroke-width="1.51"/><path d="M412,824L427,914L490,854Z" fill="#917aba" stroke="#917aba" stroke-width="1.51"/><path d="M323,686L320,771L421,758Z" fill="#9f91c6" stroke="#9f91c6" stroke-width="1.51"/><path d="M233,741L320,771L323,686Z" fill="#a496c8" stroke="#a496c8" stroke-width="1.51"/><path d="M326,409L261,410L334,476Z" fill="#bcbada" stroke="#bcbada" stroke-width="1.51"/><path d="M342,338L261,410L326,409Z" fill="#c1c0dc" stroke="#c1c0dc" stroke-width="1.51"/><path d="M240,310L261,410L342,338Z" fill="#c6c5e0" stroke="#c6c5e0" stroke-width="1.51"/><path d="M753,-35L696,45L773,41Z" fill="#c3c0dd" stroke="#c3c0dd" stroke-width="1.51"/><path d="M572,57L486,-39L511,81Z" fill="#d1d1e6" stroke="#d1d1e6" stroke-width="1.51"/><path d="M428,165L339,214L416,234Z" fill="#cdcde5" stroke="#cdcde5" stroke-width="1.51"/><path d="M345,128L339,214L428,165Z" fill="#d2d2e7" stroke="#d2d2e7" stroke-width="1.51"/><path d="M513,945L572,1027L585,908Z" fill="#8368af" stroke="#8368af" stroke-width="1.51"/><path d="M333,846L427,914L412,824Z" fill="#957ebd" stroke="#957ebd" stroke-width="1.51"/><path d="M845,1015L931,1032L949,924Z" fill="#684da0" stroke="#684da0" stroke-width="1.51"/><path d="M742,1025L931,1032L845,1015Z" fill="#6b4ea0" stroke="#6b4ea0" stroke-width="1.51"/><path d="M492,1033L931,1032L742,1025Z" fill="#7355a4" stroke="#7355a4" stroke-width="1.51"/><path d="M1197,846L1262,772L1204,739Z" fill="#64469e" stroke="#64469e" stroke-width="1.51"/><path d="M1268,666L1349,588L1266,587Z" fill="#6e58a7" stroke="#6e58a7" stroke-width="1.51"/><path d="M233,497L247,564L334,476Z" fill="#b7b4d7" stroke="#b7b4d7" stroke-width="1.51"/><path d="M858,-9L753,-35L773,41Z" fill="#c1bddc" stroke="#c1bddc" stroke-width="1.51"/><path d="M1182,163L1123,72L1089,140Z" fill="#a597c9" stroke="#a597c9" stroke-width="1.51"/><path d="M261,410L233,497L334,476Z" fill="#bbb9d9" stroke="#bbb9d9" stroke-width="1.51"/><path d="M931,1032L1041,1004L949,924Z" fill="#64479d" stroke="#64479d" stroke-width="1.51"/><path d="M1186,937L1260,841L1197,846Z" fill="#5e3b98" stroke="#5e3b98" stroke-width="1.51"/><path d="M679,-15L583,-5L696,45Z" fill="#cac7e1" stroke="#cac7e1" stroke-width="1.51"/><path d="M400,53L345,128L428,165Z" fill="#d5d5e9" stroke="#d5d5e9" stroke-width="1.51"/><path d="M611,-108L583,-5L679,-15Z" fill="#cecce4" stroke="#cecce4" stroke-width="1.51"/><path d="M670,1023L572,1027L742,1025Z" fill="#785aa7" stroke="#785aa7" stroke-width="1.51"/><path d="M492,1033L572,1027L513,945Z" fill="#8366ae" stroke="#8366ae" stroke-width="1.51"/><path d="M320,771L333,846L412,824Z" fill="#9a87c1" stroke="#9a87c1" stroke-width="1.51"/><path d="M437,1008L492,1033L513,945Z" fill="#866ab1" stroke="#866ab1" stroke-width="1.51"/><path d="M261,826L333,846L320,771Z" fill="#9e8ac3" stroke="#9e8ac3" stroke-width="1.51"/><path d="M1386,651L1349,588L1268,666Z" fill="#6a51a3" stroke="#6a51a3" stroke-width="1.51"/><path d="M1291,474L1358,403L1262,393Z" fill="#806ab1" stroke="#806ab1" stroke-width="1.51"/><path d="M1349,588L1360,471L1291,474Z" fill="#765eaa" stroke="#765eaa" stroke-width="1.51"/><path d="M1370,745L1386,651L1268,666Z" fill="#66499f" stroke="#66499f" stroke-width="1.51"/><path d="M1197,846L1260,841L1262,772Z" fill="#61409a" stroke="#61409a" stroke-width="1.51"/><path d="M1186,937L1197,846L1097,918Z" fill="#5f3d99" stroke="#5f3d99" stroke-width="1.51"/><path d="M1288,335L1297,240L1181,225Z" fill="#927fbc" stroke="#927fbc" stroke-width="1.51"/><path d="M1182,163L1208,82L1123,72Z" fill="#a594c7" stroke="#a594c7" stroke-width="1.51"/><path d="M1382,317L1297,240L1288,335Z" fill="#8c75b8" stroke="#8c75b8" stroke-width="1.51"/><path d="M1039,-38L941,-47L1005,74Z" fill="#b5add5" stroke="#b5add5" stroke-width="1.51"/><path d="M858,-9L779,-101L753,-35Z" fill="#c3bfdd" stroke="#c3bfdd" stroke-width="1.51"/><path d="M1360,471L1358,403L1291,474Z" fill="#7c64ad" stroke="#7c64ad" stroke-width="1.51"/><path d="M339,214L240,310L342,338Z" fill="#cacbe3" stroke="#cacbe3" stroke-width="1.51"/><path d="M261,410L164,421L233,497Z" fill="#c0bddb" stroke="#c0bddb" stroke-width="1.51"/><path d="M177,599L231,686L247,564Z" fill="#b0abd3" stroke="#b0abd3" stroke-width="1.51"/><path d="M247,564L231,686L323,686Z" fill="#aba4d0" stroke="#aba4d0" stroke-width="1.51"/><path d="M1109,1013L1186,937L1097,918Z" fill="#5d3a97" stroke="#5d3a97" stroke-width="1.51"/><path d="M339,214L233,252L240,310Z" fill="#d0d0e6" stroke="#d0d0e6" stroke-width="1.51"/><path d="M400,53L489,152L511,81Z" fill="#d1d1e7" stroke="#d1d1e7" stroke-width="1.51"/><path d="M1041,1004L1109,1013L1097,918Z" fill="#5f3d98" stroke="#5f3d98" stroke-width="1.51"/><path d="M931,1032L1109,1013L1041,1004Z" fill="#603f99" stroke="#603f99" stroke-width="1.51"/><path d="M437,1008L513,945L427,914Z" fill="#8a6fb4" stroke="#8a6fb4" stroke-width="1.51"/><path d="M572,1027L492,1033L742,1025Z" fill="#7c5ea9" stroke="#7c5ea9" stroke-width="1.51"/><path d="M486,-39L400,53L511,81Z" fill="#d5d5e9" stroke="#d5d5e9" stroke-width="1.51"/><path d="M352,937L437,1008L427,914Z" fill="#8e73b6" stroke="#8e73b6" stroke-width="1.51"/><path d="M231,686L233,741L323,686Z" fill="#a79ccb" stroke="#a79ccb" stroke-width="1.51"/><path d="M1108,-4L1039,-38L1005,74Z" fill="#b1a6d1" stroke="#b1a6d1" stroke-width="1.51"/><path d="M1266,130L1208,82L1182,163Z" fill="#a28ec5" stroke="#a28ec5" stroke-width="1.51"/><path d="M1108,-4L1005,74L1123,72Z" fill="#ada1cf" stroke="#ada1cf" stroke-width="1.51"/><path d="M1204,-27L1108,-4L1123,72Z" fill="#ad9ccc" stroke="#ad9ccc" stroke-width="1.51"/><path d="M352,937L427,914L333,846Z" fill="#947abb" stroke="#947abb" stroke-width="1.51"/><path d="M244,927L352,937L333,846Z" fill="#987dbc" stroke="#987dbc" stroke-width="1.51"/><path d="M258,128L233,252L339,214Z" fill="#d5d5e9" stroke="#d5d5e9" stroke-width="1.51"/><path d="M143,485L177,599L233,497Z" fill="#b9b6d8" stroke="#b9b6d8" stroke-width="1.51"/><path d="M233,497L177,599L247,564Z" fill="#b6b2d6" stroke="#b6b2d6" stroke-width="1.51"/><path d="M258,128L339,214L345,128Z" fill="#d7d7ea" stroke="#d7d7ea" stroke-width="1.51"/><path d="M1208,82L1204,-27L1123,72Z" fill="#a997ca" stroke="#a997ca" stroke-width="1.51"/><path d="M1297,240L1266,130L1181,225Z" fill="#9a85c0" stroke="#9a85c0" stroke-width="1.51"/><path d="M1351,165L1266,130L1297,240Z" fill="#9982bf" stroke="#9982bf" stroke-width="1.51"/><path d="M753,-35L673,-120L679,-15Z" fill="#cac7e1" stroke="#cac7e1" stroke-width="1.51"/><path d="M583,-5L486,-39L572,57Z" fill="#d2d1e6" stroke="#d2d1e6" stroke-width="1.51"/><path d="M838,-107L779,-101L858,-9Z" fill="#c2bedd" stroke="#c2bedd" stroke-width="1.51"/><path d="M838,-107L858,-9L920,-112Z" fill="#bfbbdb" stroke="#bfbbdb" stroke-width="1.51"/><path d="M233,741L261,826L320,771Z" fill="#a290c5" stroke="#a290c5" stroke-width="1.51"/><path d="M1451,474L1446,423L1360,471Z" fill="#785da9" stroke="#785da9" stroke-width="1.51"/><path d="M1446,423L1382,317L1358,403Z" fill="#8166af" stroke="#8166af" stroke-width="1.51"/><path d="M1370,745L1268,666L1262,772Z" fill="#65479e" stroke="#65479e" stroke-width="1.51"/><path d="M164,421L261,410L240,310Z" fill="#c6c5df" stroke="#c6c5df" stroke-width="1.51"/><path d="M231,686L146,747L233,741Z" fill="#a99bcb" stroke="#a99bcb" stroke-width="1.51"/><path d="M233,741L158,843L261,826Z" fill="#a38fc5" stroke="#a38fc5" stroke-width="1.51"/><path d="M920,-112L858,-9L941,-47Z" fill="#bcb8da" stroke="#bcb8da" stroke-width="1.51"/><path d="M1358,403L1382,317L1288,335Z" fill="#866eb3" stroke="#866eb3" stroke-width="1.51"/><path d="M1446,423L1358,403L1360,471Z" fill="#7c61ac" stroke="#7c61ac" stroke-width="1.51"/><path d="M1366,821L1370,745L1262,772Z" fill="#5f3c99" stroke="#5f3c99" stroke-width="1.51"/><path d="M1186,937L1289,930L1260,841Z" fill="#5b3495" stroke="#5b3495" stroke-width="1.51"/><path d="M1109,1013L1191,990L1186,937Z" fill="#5a3494" stroke="#5a3494" stroke-width="1.51"/><path d="M515,-94L486,-39L583,-5Z" fill="#d6d5e9" stroke="#d6d5e9" stroke-width="1.51"/><path d="M1366,821L1262,772L1260,841Z" fill="#5f3c99" stroke="#5f3c99" stroke-width="1.51"/><path d="M147,328L164,421L240,310Z" fill="#cac9e2" stroke="#cac9e2" stroke-width="1.51"/><path d="M1009,-92L941,-47L1039,-38Z" fill="#b7afd6" stroke="#b7afd6" stroke-width="1.51"/><path d="M1009,-92L920,-112L941,-47Z" fill="#bab5d9" stroke="#bab5d9" stroke-width="1.51"/><path d="M920,-112L673,-120L838,-107Z" fill="#c5c1de" stroke="#c5c1de" stroke-width="1.51"/><path d="M838,-107L673,-120L779,-101Z" fill="#c8c4e0" stroke="#c8c4e0" stroke-width="1.51"/><path d="M779,-101L673,-120L753,-35Z" fill="#c9c5e0" stroke="#c9c5e0" stroke-width="1.51"/><path d="M1094,-98L1009,-92L1039,-38Z" fill="#b5aad3" stroke="#b5aad3" stroke-width="1.51"/><path d="M1094,-98L1039,-38L1108,-4Z" fill="#b3a6d1" stroke="#b3a6d1" stroke-width="1.51"/><path d="M177,599L163,665L231,686Z" fill="#aea7d2" stroke="#aea7d2" stroke-width="1.51"/><path d="M79,559L163,665L177,599Z" fill="#b4afd6" stroke="#b4afd6" stroke-width="1.51"/><path d="M673,-120L611,-108L679,-15Z" fill="#cecce3" stroke="#cecce3" stroke-width="1.51"/><path d="M412,-29L346,41L400,53Z" fill="#dbdbeb" stroke="#dbdbeb" stroke-width="1.51"/><path d="M400,53L346,41L345,128Z" fill="#d9d9eb" stroke="#d9d9eb" stroke-width="1.51"/><path d="M164,421L143,485L233,497Z" fill="#bfbcdb" stroke="#bfbcdb" stroke-width="1.51"/><path d="M1266,130L1264,71L1208,82Z" fill="#a28dc4" stroke="#a28dc4" stroke-width="1.51"/><path d="M1352,67L1264,71L1266,130Z" fill="#a189c3" stroke="#a189c3" stroke-width="1.51"/><path d="M176,236L147,328L240,310Z" fill="#d0d0e7" stroke="#d0d0e7" stroke-width="1.51"/><path d="M76,398L70,476L143,485Z" fill="#c5c1de" stroke="#c5c1de" stroke-width="1.51"/><path d="M346,41L258,128L345,128Z" fill="#dbdbec" stroke="#dbdbec" stroke-width="1.51"/><path d="M1191,990L1289,930L1186,937Z" fill="#583193" stroke="#583193" stroke-width="1.51"/><path d="M352,937L347,996L437,1008Z" fill="#8e72b5" stroke="#8e72b5" stroke-width="1.51"/><path d="M437,1008L347,996L492,1033Z" fill="#896cb1" stroke="#896cb1" stroke-width="1.51"/><path d="M244,927L347,996L352,937Z" fill="#9478b9" stroke="#9478b9" stroke-width="1.51"/><path d="M244,927L333,846L261,826Z" fill="#9c84c0" stroke="#9c84c0" stroke-width="1.51"/><path d="M1370,745L1449,647L1386,651Z" fill="#64459d" stroke="#64459d" stroke-width="1.51"/><path d="M1289,930L1366,821L1260,841Z" fill="#5b3494" stroke="#5b3494" stroke-width="1.51"/><path d="M346,41L242,42L258,128Z" fill="#e0dfed" stroke="#e0dfed" stroke-width="1.51"/><path d="M486,-39L412,-29L400,53Z" fill="#dad9eb" stroke="#dad9eb" stroke-width="1.51"/><path d="M428,-97L412,-29L486,-39Z" fill="#dcdbec" stroke="#dcdbec" stroke-width="1.51"/><path d="M1380,217L1351,165L1297,240Z" fill="#957bbb" stroke="#957bbb" stroke-width="1.51"/><path d="M1382,317L1380,217L1297,240Z" fill="#8f76b8" stroke="#8f76b8" stroke-width="1.51"/><path d="M428,-97L515,-94L611,-108Z" fill="#d8d8ea" stroke="#d8d8ea" stroke-width="1.51"/><path d="M611,-108L515,-94L583,-5Z" fill="#d4d2e7" stroke="#d4d2e7" stroke-width="1.51"/><path d="M1382,317L1448,228L1380,217Z" fill="#8d73b6" stroke="#8d73b6" stroke-width="1.51"/><path d="M1451,474L1360,471L1349,588Z" fill="#745aa8" stroke="#745aa8" stroke-width="1.51"/><path d="M1451,474L1349,588L1458,601Z" fill="#6e54a5" stroke="#6e54a5" stroke-width="1.51"/><path d="M1458,601L1349,588L1386,651Z" fill="#694fa2" stroke="#694fa2" stroke-width="1.51"/><path d="M176,236L240,310L233,252Z" fill="#d2d1e7" stroke="#d2d1e7" stroke-width="1.51"/><path d="M164,168L176,236L233,252Z" fill="#d7d7ea" stroke="#d7d7ea" stroke-width="1.51"/><path d="M1467,770L1449,647L1370,745Z" fill="#5f3d99" stroke="#5f3d99" stroke-width="1.51"/><path d="M1449,647L1458,601L1386,651Z" fill="#664a9f" stroke="#664a9f" stroke-width="1.51"/><path d="M1290,-19L1204,-27L1264,71Z" fill="#a891c7" stroke="#a891c7" stroke-width="1.51"/><path d="M1264,71L1204,-27L1208,82Z" fill="#a792c7" stroke="#a792c7" stroke-width="1.51"/><path d="M1009,-92L1094,-98L920,-112Z" fill="#b8b0d6" stroke="#b8b0d6" stroke-width="1.51"/><path d="M1204,-27L1094,-98L1108,-4Z" fill="#b0a0ce" stroke="#b0a0ce" stroke-width="1.51"/><path d="M163,665L146,747L231,686Z" fill="#ab9fce" stroke="#ab9fce" stroke-width="1.51"/><path d="M55,681L146,747L163,665Z" fill="#aea3cf" stroke="#aea3cf" stroke-width="1.51"/><path d="M158,843L244,927L261,826Z" fill="#9f86c1" stroke="#9f86c1" stroke-width="1.51"/><path d="M1446,423L1459,318L1382,317Z" fill="#8267af" stroke="#8267af" stroke-width="1.51"/><path d="M1466,147L1352,67L1351,165Z" fill="#9a7ebd" stroke="#9a7ebd" stroke-width="1.51"/><path d="M1557,397L1459,318L1446,423Z" fill="#7d61ab" stroke="#7d61ab" stroke-width="1.51"/><path d="M1531,493L1446,423L1451,474Z" fill="#7558a6" stroke="#7558a6" stroke-width="1.51"/><path d="M428,-97L333,-26L412,-29Z" fill="#dfdeee" stroke="#dfdeee" stroke-width="1.51"/><path d="M412,-29L333,-26L346,41Z" fill="#dfdeee" stroke="#dfdeee" stroke-width="1.51"/><path d="M258,128L164,168L233,252Z" fill="#dad9eb" stroke="#dad9eb" stroke-width="1.51"/><path d="M515,-94L428,-97L486,-39Z" fill="#dadaeb" stroke="#dadaeb" stroke-width="1.51"/><path d="M673,-120L428,-97L611,-108Z" fill="#d5d4e8" stroke="#d5d4e8" stroke-width="1.51"/><path d="M143,485L79,559L177,599Z" fill="#bab6d9" stroke="#bab6d9" stroke-width="1.51"/><path d="M70,476L79,559L143,485Z" fill="#c0bcdb" stroke="#c0bcdb" stroke-width="1.51"/><path d="M169,40L164,168L258,128Z" fill="#e1e0ee" stroke="#e1e0ee" stroke-width="1.51"/><path d="M78,220L55,321L147,328Z" fill="#d5d5e8" stroke="#d5d5e8" stroke-width="1.51"/><path d="M76,398L143,485L164,421Z" fill="#c5c2de" stroke="#c5c2de" stroke-width="1.51"/><path d="M146,747L158,843L233,741Z" fill="#a794c8" stroke="#a794c8" stroke-width="1.51"/><path d="M68,768L158,843L146,747Z" fill="#a895c9" stroke="#a895c9" stroke-width="1.51"/><path d="M76,398L164,421L147,328Z" fill="#cac9e1" stroke="#cac9e1" stroke-width="1.51"/><path d="M1204,-27L1204,-92L1094,-98Z" fill="#b09dcd" stroke="#b09dcd" stroke-width="1.51"/><path d="M1351,165L1352,67L1266,130Z" fill="#9d84c0" stroke="#9d84c0" stroke-width="1.51"/><path d="M1466,147L1351,165L1380,217Z" fill="#957aba" stroke="#957aba" stroke-width="1.51"/><path d="M169,40L242,42L174,-47Z" fill="#e8e6f1" stroke="#e8e6f1" stroke-width="1.51"/><path d="M333,-26L242,42L346,41Z" fill="#e1e0ef" stroke="#e1e0ef" stroke-width="1.51"/><path d="M1459,318L1448,228L1382,317Z" fill="#896eb3" stroke="#896eb3" stroke-width="1.51"/><path d="M55,321L76,398L147,328Z" fill="#cfcee4" stroke="#cfcee4" stroke-width="1.51"/><path d="M1289,930L1387,942L1366,821Z" fill="#562a90" stroke="#562a90" stroke-width="1.51"/><path d="M1366,821L1467,770L1370,745Z" fill="#5c3796" stroke="#5c3796" stroke-width="1.51"/><path d="M1191,990L1295,1026L1289,930Z" fill="#552b8f" stroke="#552b8f" stroke-width="1.51"/><path d="M1109,1013L1295,1026L1191,990Z" fill="#562e90" stroke="#562e90" stroke-width="1.51"/><path d="M931,1032L1295,1026L1109,1013Z" fill="#5a3694" stroke="#5a3694" stroke-width="1.51"/><path d="M1458,601L1531,493L1451,474Z" fill="#6f53a3" stroke="#6f53a3" stroke-width="1.51"/><path d="M1541,589L1531,493L1458,601Z" fill="#694ea0" stroke="#694ea0" stroke-width="1.51"/><path d="M1458,826L1467,770L1366,821Z" fill="#593193" stroke="#593193" stroke-width="1.51"/><path d="M1352,67L1290,-19L1264,71Z" fill="#a48bc4" stroke="#a48bc4" stroke-width="1.51"/><path d="M1094,-98L1262,-111L920,-112Z" fill="#b4a7d1" stroke="#b4a7d1" stroke-width="1.51"/><path d="M1262,-111L1204,-92L1204,-27Z" fill="#ad99ca" stroke="#ad99ca" stroke-width="1.51"/><path d="M1379,993L1387,942L1289,930Z" fill="#52238d" stroke="#52238d" stroke-width="1.51"/><path d="M1464,904L1458,826L1366,821Z" fill="#552a90" stroke="#552a90" stroke-width="1.51"/><path d="M1458,601L1449,647L1542,657Z" fill="#64469d" stroke="#64469d" stroke-width="1.51"/><path d="M1541,589L1458,601L1542,657Z" fill="#64489d" stroke="#64489d" stroke-width="1.51"/><path d="M1522,154L1466,147L1448,228Z" fill="#9174b7" stroke="#9174b7" stroke-width="1.51"/><path d="M165,935L226,1001L244,927Z" fill="#9a7dbc" stroke="#9a7dbc" stroke-width="1.51"/><path d="M244,927L226,1001L347,996Z" fill="#9678b9" stroke="#9678b9" stroke-width="1.51"/><path d="M347,996L226,1001L492,1033Z" fill="#8e70b4" stroke="#8e70b4" stroke-width="1.51"/><path d="M79,559L55,681L163,665Z" fill="#b4add5" stroke="#b4add5" stroke-width="1.51"/><path d="M158,843L165,935L244,927Z" fill="#9e83c0" stroke="#9e83c0" stroke-width="1.51"/><path d="M-6,656L55,681L79,559Z" fill="#b7b0d6" stroke="#b7b0d6" stroke-width="1.51"/><path d="M82,915L165,935L158,843Z" fill="#a185c1" stroke="#a185c1" stroke-width="1.51"/><path d="M70,476L-12,505L79,559Z" fill="#c1bddc" stroke="#c1bddc" stroke-width="1.51"/><path d="M-17,388L-12,505L70,476Z" fill="#c8c4df" stroke="#c8c4df" stroke-width="1.51"/><path d="M78,220L147,328L176,236Z" fill="#d6d6e9" stroke="#d6d6e9" stroke-width="1.51"/><path d="M78,220L176,236L164,168Z" fill="#dbdaeb" stroke="#dbdaeb" stroke-width="1.51"/><path d="M1542,657L1449,647L1530,742Z" fill="#5f3e98" stroke="#5f3e98" stroke-width="1.51"/><path d="M1387,942L1464,904L1366,821Z" fill="#53278e" stroke="#53278e" stroke-width="1.51"/><path d="M1295,1026L1379,993L1289,930Z" fill="#51248c" stroke="#51248c" stroke-width="1.51"/><path d="M55,681L68,768L146,747Z" fill="#ae9ecd" stroke="#ae9ecd" stroke-width="1.51"/><path d="M65,136L78,220L164,168Z" fill="#e0dfee" stroke="#e0dfee" stroke-width="1.51"/><path d="M1530,742L1449,647L1467,770Z" fill="#5d3a96" stroke="#5d3a96" stroke-width="1.51"/><path d="M1530,742L1467,770L1533,843Z" fill="#572e91" stroke="#572e91" stroke-width="1.51"/><path d="M1542,229L1448,228L1459,318Z" fill="#896db2" stroke="#896db2" stroke-width="1.51"/><path d="M1448,228L1466,147L1380,217Z" fill="#9276b8" stroke="#9276b8" stroke-width="1.51"/><path d="M1355,-40L1262,-111L1290,-19Z" fill="#a990c7" stroke="#a990c7" stroke-width="1.51"/><path d="M242,42L169,40L258,128Z" fill="#e2e2ef" stroke="#e2e2ef" stroke-width="1.51"/><path d="M244,-47L242,42L333,-26Z" fill="#e5e4f1" stroke="#e5e4f1" stroke-width="1.51"/><path d="M1533,843L1467,770L1458,826Z" fill="#562d90" stroke="#562d90" stroke-width="1.51"/><path d="M1542,657L1557,397L1541,589Z" fill="#6a4c9f" stroke="#6a4c9f" stroke-width="1.51"/><path d="M1541,589L1557,397L1531,493Z" fill="#6f52a2" stroke="#6f52a2" stroke-width="1.51"/><path d="M1531,493L1557,397L1446,423Z" fill="#7659a6" stroke="#7659a6" stroke-width="1.51"/><path d="M310,-108L244,-47L333,-26Z" fill="#e6e5f1" stroke="#e6e5f1" stroke-width="1.51"/><path d="M428,-97L310,-108L333,-26Z" fill="#e2e2ef" stroke="#e2e2ef" stroke-width="1.51"/><path d="M673,-120L310,-108L428,-97Z" fill="#dcdcec" stroke="#dcdcec" stroke-width="1.51"/><path d="M1290,-19L1262,-111L1204,-27Z" fill="#ab94c9" stroke="#ab94c9" stroke-width="1.51"/><path d="M1204,-92L1262,-111L1094,-98Z" fill="#b09dcd" stroke="#b09dcd" stroke-width="1.51"/><path d="M920,-112L1453,-129L673,-120Z" fill="#b9b0d7" stroke="#b9b0d7" stroke-width="1.51"/><path d="M1355,-40L1290,-19L1352,67Z" fill="#a58ac3" stroke="#a58ac3" stroke-width="1.51"/><path d="M1434,1010L1464,904L1387,942Z" fill="#4e1e89" stroke="#4e1e89" stroke-width="1.51"/><path d="M79,990L171,1001L165,935Z" fill="#9c7dbc" stroke="#9c7dbc" stroke-width="1.51"/><path d="M165,935L171,1001L226,1001Z" fill="#9a7cbb" stroke="#9a7cbb" stroke-width="1.51"/><path d="M226,1001L171,1001L492,1033Z" fill="#9274b6" stroke="#9274b6" stroke-width="1.51"/><path d="M1452,46L1355,-40L1352,67Z" fill="#a184c0" stroke="#a184c0" stroke-width="1.51"/><path d="M1557,397L1558,320L1459,318Z" fill="#7f62ac" stroke="#7f62ac" stroke-width="1.51"/><path d="M-17,388L70,476L76,398Z" fill="#cac7e1" stroke="#cac7e1" stroke-width="1.51"/><path d="M4,752L57,844L68,768Z" fill="#ac98ca" stroke="#ac98ca" stroke-width="1.51"/><path d="M-17,388L76,398L55,321Z" fill="#cfcde4" stroke="#cfcde4" stroke-width="1.51"/><path d="M68,768L57,844L158,843Z" fill="#a892c7" stroke="#a892c7" stroke-width="1.51"/><path d="M4,752L68,768L55,681Z" fill="#b0a0ce" stroke="#b0a0ce" stroke-width="1.51"/><path d="M1558,320L1542,229L1459,318Z" fill="#8568af" stroke="#8568af" stroke-width="1.51"/><path d="M1466,147L1452,46L1352,67Z" fill="#9b7ebc" stroke="#9b7ebc" stroke-width="1.51"/><path d="M-28,590L-6,656L79,559Z" fill="#b9b5d9" stroke="#b9b5d9" stroke-width="1.51"/><path d="M1541,70L1452,46L1466,147Z" fill="#987aba" stroke="#987aba" stroke-width="1.51"/><path d="M310,-108L256,-103L244,-47Z" fill="#e9e8f2" stroke="#e9e8f2" stroke-width="1.51"/><path d="M244,-47L174,-47L242,42Z" fill="#e8e7f2" stroke="#e8e7f2" stroke-width="1.51"/><path d="M57,844L82,915L158,843Z" fill="#a58bc4" stroke="#a58bc4" stroke-width="1.51"/><path d="M-12,505L-28,590L79,559Z" fill="#bfbadb" stroke="#bfbadb" stroke-width="1.51"/><path d="M-36,338L-17,388L55,321Z" fill="#d2d1e6" stroke="#d2d1e6" stroke-width="1.51"/><path d="M-36,338L55,321L-22,216Z" fill="#d8d8ea" stroke="#d8d8ea" stroke-width="1.51"/><path d="M169,40L65,136L164,168Z" fill="#e4e3f0" stroke="#e4e3f0" stroke-width="1.51"/><path d="M73,46L65,136L169,40Z" fill="#e8e6f2" stroke="#e8e6f2" stroke-width="1.51"/><path d="M1542,657L1561,992L1557,397Z" fill="#5d3b97" stroke="#5d3b97" stroke-width="1.51"/><path d="M1530,742L1533,843L1542,657Z" fill="#583292" stroke="#583292" stroke-width="1.51"/><path d="M1464,904L1533,843L1458,826Z" fill="#52268d" stroke="#52268d" stroke-width="1.51"/><path d="M1527,905L1533,843L1464,904Z" fill="#4f208a" stroke="#4f208a" stroke-width="1.51"/><path d="M1379,993L1434,1010L1387,942Z" fill="#4d1c89" stroke="#4d1c89" stroke-width="1.51"/><path d="M1295,1026L1434,1010L1379,993Z" fill="#4d1c88" stroke="#4d1c88" stroke-width="1.51"/><path d="M1542,229L1522,154L1448,228Z" fill="#8e70b4" stroke="#8e70b4" stroke-width="1.51"/><path d="M-95,560L-28,590L-12,505Z" fill="#c0bcdc" stroke="#c0bcdc" stroke-width="1.51"/><path d="M-24,906L79,990L82,915Z" fill="#a385c0" stroke="#a385c0" stroke-width="1.51"/><path d="M-6,656L4,752L55,681Z" fill="#b2a6d2" stroke="#b2a6d2" stroke-width="1.51"/><path d="M-99,766L4,752L-6,656Z" fill="#b2a4d0" stroke="#b2a4d0" stroke-width="1.51"/><path d="M256,-103L174,-47L244,-47Z" fill="#eae9f3" stroke="#eae9f3" stroke-width="1.51"/><path d="M1561,992L1527,905L1464,904Z" fill="#4b1987" stroke="#4b1987" stroke-width="1.51"/><path d="M-113,409L-95,508L-12,505Z" fill="#c8c4e0" stroke="#c8c4e0" stroke-width="1.51"/><path d="M-22,216L55,321L78,220Z" fill="#dbdaec" stroke="#dbdaec" stroke-width="1.51"/><path d="M1452,46L1439,-35L1355,-40Z" fill="#a284c0" stroke="#a284c0" stroke-width="1.51"/><path d="M1355,-40L1387,-106L1262,-111Z" fill="#a98ec6" stroke="#a98ec6" stroke-width="1.51"/><path d="M1559,-21L1439,-35L1452,46Z" fill="#9f7fbd" stroke="#9f7fbd" stroke-width="1.51"/><path d="M65,136L-22,216L78,220Z" fill="#e1e0ef" stroke="#e1e0ef" stroke-width="1.51"/><path d="M73,-14L73,46L169,40Z" fill="#eceaf3" stroke="#eceaf3" stroke-width="1.51"/><path d="M-5,857L82,915L57,844Z" fill="#a78cc5" stroke="#a78cc5" stroke-width="1.51"/><path d="M82,915L79,990L165,935Z" fill="#9f82bf" stroke="#9f82bf" stroke-width="1.51"/><path d="M1439,-35L1387,-106L1355,-40Z" fill="#a588c2" stroke="#a588c2" stroke-width="1.51"/><path d="M-20,128L-22,216L65,136Z" fill="#e5e4f0" stroke="#e5e4f0" stroke-width="1.51"/><path d="M4,752L-5,857L57,844Z" fill="#ab94c8" stroke="#ab94c8" stroke-width="1.51"/><path d="M-24,906L-5,857L-92,817Z" fill="#aa90c7" stroke="#aa90c7" stroke-width="1.51"/><path d="M1439,-35L1453,-129L1387,-106Z" fill="#a587c2" stroke="#a587c2" stroke-width="1.51"/><path d="M1522,154L1541,70L1466,147Z" fill="#9576b8" stroke="#9576b8" stroke-width="1.51"/><path d="M1542,229L1541,70L1522,154Z" fill="#9273b6" stroke="#9273b6" stroke-width="1.51"/><path d="M1559,-21L1541,70L1542,229Z" fill="#9676b7" stroke="#9676b7" stroke-width="1.51"/><path d="M-113,409L-12,505L-17,388Z" fill="#cbc9e1" stroke="#cbc9e1" stroke-width="1.51"/><path d="M-28,590L-123,676L-6,656Z" fill="#b9b1d7" stroke="#b9b1d7" stroke-width="1.51"/><path d="M-113,409L-17,388L-36,338Z" fill="#d1cfe5" stroke="#d1cfe5" stroke-width="1.51"/><path d="M-95,508L-95,560L-12,505Z" fill="#c3c0dd" stroke="#c3c0dd" stroke-width="1.51"/><path d="M51,-98L73,-14L174,-47Z" fill="#efeef6" stroke="#efeef6" stroke-width="1.51"/><path d="M174,-47L73,-14L169,40Z" fill="#eceaf4" stroke="#eceaf4" stroke-width="1.51"/><path d="M73,46L-20,128L65,136Z" fill="#e8e7f2" stroke="#e8e7f2" stroke-width="1.51"/><path d="M256,-103L156,-120L174,-47Z" fill="#ecebf4" stroke="#ecebf4" stroke-width="1.51"/><path d="M310,-108L156,-120L256,-103Z" fill="#ebeaf4" stroke="#ebeaf4" stroke-width="1.51"/><path d="M673,-120L156,-120L310,-108Z" fill="#e3e2f0" stroke="#e3e2f0" stroke-width="1.51"/><path d="M-31,61L-20,128L73,46Z" fill="#ebeaf4" stroke="#ebeaf4" stroke-width="1.51"/><path d="M-117,301L-113,409L-36,338Z" fill="#d5d3e8" stroke="#d5d3e8" stroke-width="1.51"/><path d="M-5,857L-24,906L82,915Z" fill="#a68ac4" stroke="#a68ac4" stroke-width="1.51"/><path d="M-92,817L-5,857L4,752Z" fill="#ad98cb" stroke="#ad98cb" stroke-width="1.51"/><path d="M-95,508L-123,676L-95,560Z" fill="#bfbbdc" stroke="#bfbbdc" stroke-width="1.51"/><path d="M-117,301L-36,338L-22,216Z" fill="#dbdaeb" stroke="#dbdaeb" stroke-width="1.51"/><path d="M1434,1010L1561,992L1464,904Z" fill="#4a1786" stroke="#4a1786" stroke-width="1.51"/><path d="M1527,905L1561,992L1533,843Z" fill="#4b1987" stroke="#4b1987" stroke-width="1.51"/><path d="M1533,843L1561,992L1542,657Z" fill="#51258c" stroke="#51258c" stroke-width="1.51"/><path d="M1557,397L1561,992L1558,320Z" fill="#674a9e" stroke="#674a9e" stroke-width="1.51"/><path d="M-123,676L-99,766L-6,656Z" fill="#b5a9d3" stroke="#b5a9d3" stroke-width="1.51"/><path d="M-123,676L-28,590L-95,560Z" fill="#bcb7da" stroke="#bcb7da" stroke-width="1.51"/><path d="M1524,-101L1453,-129L1439,-35Z" fill="#a384bf" stroke="#a384bf" stroke-width="1.51"/><path d="M1387,-106L1453,-129L1262,-111Z" fill="#a98cc5" stroke="#a98cc5" stroke-width="1.51"/><path d="M1262,-111L1453,-129L920,-112Z" fill="#af9bcc" stroke="#af9bcc" stroke-width="1.51"/><path d="M673,-120L-2,-122L156,-120Z" fill="#eae9f3" stroke="#eae9f3" stroke-width="1.51"/><path d="M-113,409L-123,676L-95,508Z" fill="#c4c0de" stroke="#c4c0de" stroke-width="1.51"/><path d="M-113,409L-122,249L-123,676Z" fill="#cdc9e2" stroke="#cdc9e2" stroke-width="1.51"/><path d="M-122,249L-117,301L-22,216Z" fill="#dfdeed" stroke="#dfdeed" stroke-width="1.51"/><path d="M-97,909L-92,817L-99,766Z" fill="#ad96ca" stroke="#ad96ca" stroke-width="1.51"/><path d="M-99,766L-92,817L4,752Z" fill="#af9dcd" stroke="#af9dcd" stroke-width="1.51"/><path d="M-111,149L-122,249L-22,216Z" fill="#e3e3f0" stroke="#e3e3f0" stroke-width="1.51"/><path d="M-1,-21L-31,61L73,46Z" fill="#efedf5" stroke="#efedf5" stroke-width="1.51"/><path d="M-1,-21L73,46L73,-14Z" fill="#efedf6" stroke="#efedf6" stroke-width="1.51"/><path d="M1541,70L1559,-21L1452,46Z" fill="#9b7bbb" stroke="#9b7bbb" stroke-width="1.51"/><path d="M1558,320L1559,-21L1542,229Z" fill="#8f70b4" stroke="#8f70b4" stroke-width="1.51"/><path d="M1561,992L1559,-21L1558,320Z" fill="#7556a5" stroke="#7556a5" stroke-width="1.51"/><path d="M-117,301L-122,249L-113,409Z" fill="#d9d8ea" stroke="#d9d8ea" stroke-width="1.51"/><path d="M-111,149L-22,216L-20,128Z" fill="#e6e6f1" stroke="#e6e6f1" stroke-width="1.51"/><path d="M-112,73L-111,149L-20,128Z" fill="#ebeaf4" stroke="#ebeaf4" stroke-width="1.51"/><path d="M51,-98L-1,-21L73,-14Z" fill="#f2f0f6" stroke="#f2f0f6" stroke-width="1.51"/><path d="M156,-120L51,-98L174,-47Z" fill="#f0eef5" stroke="#f0eef5" stroke-width="1.51"/><path d="M1559,-21L1524,-101L1439,-35Z" fill="#a080bd" stroke="#a080bd" stroke-width="1.51"/><path d="M-97,909L-31,1014L-24,906Z" fill="#a587c2" stroke="#a587c2" stroke-width="1.51"/><path d="M-24,906L-31,1014L79,990Z" fill="#a283bf" stroke="#a283bf" stroke-width="1.51"/><path d="M79,990L-31,1014L171,1001Z" fill="#9e7ebc" stroke="#9e7ebc" stroke-width="1.51"/><path d="M171,1001L-108,1030L492,1033Z" fill="#9777b8" stroke="#9777b8" stroke-width="1.51"/><path d="M-112,73L-20,128L-31,61Z" fill="#ecebf4" stroke="#ecebf4" stroke-width="1.51"/><path d="M-92,817L-97,909L-24,906Z" fill="#aa8fc6" stroke="#aa8fc6" stroke-width="1.51"/><path d="M-123,676L-97,909L-99,766Z" fill="#b19dcd" stroke="#b19dcd" stroke-width="1.51"/><path d="M-119,-30L-112,73L-31,61Z" fill="#f1eff6" stroke="#f1eff6" stroke-width="1.51"/><path d="M-111,149L-112,73L-122,249Z" fill="#e9e8f3" stroke="#e9e8f3" stroke-width="1.51"/><path d="M-119,-30L-31,61L-1,-21Z" fill="#f2f0f7" stroke="#f2f0f7" stroke-width="1.51"/><path d="M51,-98L-2,-122L-1,-21Z" fill="#f4f2f8" stroke="#f4f2f8" stroke-width="1.51"/><path d="M156,-120L-2,-122L51,-98Z" fill="#f3f2f8" stroke="#f3f2f8" stroke-width="1.51"/><path d="M1453,-129L-2,-122L673,-120Z" fill="#ccc9e2" stroke="#ccc9e2" stroke-width="1.51"/><path d="M-97,909L-108,1030L-31,1014Z" fill="#a384c0" stroke="#a384c0" stroke-width="1.51"/><path d="M-31,1014L-108,1030L171,1001Z" fill="#9f7ebc" stroke="#9f7ebc" stroke-width="1.51"/><path d="M-123,676L-108,1030L-97,909Z" fill="#ab91c7" stroke="#ab91c7" stroke-width="1.51"/><path d="M-81,-100L-119,-30L-1,-21Z" fill="#f5f3f8" stroke="#f5f3f8" stroke-width="1.51"/><path d="M-112,73L-119,-30L-122,249Z" fill="#edecf5" stroke="#edecf5" stroke-width="1.51"/><path d="M-2,-122L-81,-100L-1,-21Z" fill="#f6f3f9" stroke="#f6f3f9" stroke-width="1.51"/></svg>