<svg xmlns="http://www.w3.org/2000/svg" width="1440" height="900"><path d="M751,474L768,559L829,481Z" fill="#e3f1ee" stroke="#e3f1ee" stroke-width="1.51"/><path d="M768,559L853,595L829,481Z" fill="#d7eeea" stroke="#d7eeea" stroke-width="1.51"/><path d="M751,474L667,514L768,559Z" fill="#e8f2f0" stroke="#e8f2f0" stroke-width="1.51"/><path d="M829,481L755,394L751,474Z" fill="#eef3f2" stroke="#eef3f2" stroke-width="1.51"/><path d="M751,474L686,388L667,514Z" fill="#f4f4f2" stroke="#f4f4f2" stroke-width="1.51"/><path d="M768,559L776,644L853,595Z" fill="#cceae5" stroke="#cceae5" stroke-width="1.51"/><path d="M670,598L776,644L768,559Z" fill="#d3ece7" stroke="#d3ece7" stroke-width="1.51"/><path d="M829,481L871,403L755,394Z" fill="#e9f1ec" stroke="#e9f1ec" stroke-width="1.51"/><path d="M932,481L871,403L829,481Z" fill="#dff0ed" stroke="#dff0ed" stroke-width="1.51"/><path d="M667,514L670,598L768,559Z" fill="#e1f0eb" stroke="#e1f0eb" stroke-width="1.51"/><path d="M853,595L932,481L829,481Z" fill="#d4ede9" stroke="#d4ede9" stroke-width="1.51"/><path d="M755,394L686,388L751,474Z" fill="#f4f3ee" stroke="#f4f3ee" stroke-width="1.51"/><path d="M680,332L686,388L755,394Z" fill="#f6f0e2" stroke="#f6f0e2" stroke-width="1.51"/><path d="M776,644L854,662L853,595Z" fill="#bee5de" stroke="#bee5de" stroke-width="1.51"/><path d="M853,595L953,578L932,481Z" fill="#c7eae4" stroke="#c7eae4" stroke-width="1.51"/><path d="M933,684L953,578L853,595Z" fill="#b6e3dc" stroke="#b6e3dc" stroke-width="1.51"/><path d="M670,598L675,651L776,644Z" fill="#cee8e2" stroke="#cee8e2" stroke-width="1.51"/><path d="M776,644L851,750L854,662Z" fill="#b0dfd7" stroke="#b0dfd7" stroke-width="1.51"/><path d="M932,481L952,422L871,403Z" fill="#daede7" stroke="#daede7" stroke-width="1.51"/><path d="M1025,477L952,422L932,481Z" fill="#cde9e4" stroke="#cde9e4" stroke-width="1.51"/><path d="M850,304L766,315L755,394Z" fill="#ededda" stroke="#ededda" stroke-width="1.51"/><path d="M850,304L755,394L871,403Z" fill="#e8eddf" stroke="#e8eddf" stroke-width="1.51"/><path d="M670,598L597,590L675,651Z" fill="#d4e8dc" stroke="#d4e8dc" stroke-width="1.51"/><path d="M667,514L597,590L670,598Z" fill="#e0ede2" stroke="#e0ede2" stroke-width="1.51"/><path d="M574,482L597,590L667,514Z" fill="#e7eee1" stroke="#e7eee1" stroke-width="1.51"/><path d="M569,421L574,482L667,514Z" fill="#f2efe2" stroke="#f2efe2" stroke-width="1.51"/><path d="M766,315L680,332L755,394Z" fill="#f4efdf" stroke="#f4efdf" stroke-width="1.51"/><path d="M569,421L667,514L686,388Z" fill="#f6f1e7" stroke="#f6f1e7" stroke-width="1.51"/><path d="M944,337L850,304L871,403Z" fill="#e0ead8" stroke="#e0ead8" stroke-width="1.51"/><path d="M854,662L933,684L853,595Z" fill="#b3e2da" stroke="#b3e2da" stroke-width="1.51"/><path d="M851,750L933,684L854,662Z" fill="#a5dbd2" stroke="#a5dbd2" stroke-width="1.51"/><path d="M953,578L1025,477L932,481Z" fill="#c3e6e1" stroke="#c3e6e1" stroke-width="1.51"/><path d="M933,684L1006,582L953,578Z" fill="#addfd7" stroke="#addfd7" stroke-width="1.51"/><path d="M952,422L944,337L871,403Z" fill="#daeadd" stroke="#daeadd" stroke-width="1.51"/><path d="M1042,399L944,337L952,422Z" fill="#cfe5d7" stroke="#cfe5d7" stroke-width="1.51"/><path d="M610,314L569,421L686,388Z" fill="#f6edd7" stroke="#f6edd7" stroke-width="1.51"/><path d="M1006,582L1025,477L953,578Z" fill="#b8e3dc" stroke="#b8e3dc" stroke-width="1.51"/><path d="M675,651L743,751L776,644Z" fill="#bee2dc" stroke="#bee2dc" stroke-width="1.51"/><path d="M664,771L743,751L675,651Z" fill="#b4d9d0" stroke="#b4d9d0" stroke-width="1.51"/><path d="M743,751L851,750L776,644Z" fill="#addad2" stroke="#addad2" stroke-width="1.51"/><path d="M597,590L572,660L675,651Z" fill="#cee4d4" stroke="#cee4d4" stroke-width="1.51"/><path d="M515,587L572,660L597,590Z" fill="#d5e5d0" stroke="#d5e5d0" stroke-width="1.51"/><path d="M515,587L597,590L574,482Z" fill="#e3ebd7" stroke="#e3ebd7" stroke-width="1.51"/><path d="M680,332L610,314L686,388Z" fill="#f6edd6" stroke="#f6edd6" stroke-width="1.51"/><path d="M693,225L610,314L680,332Z" fill="#f3e6c8" stroke="#f3e6c8" stroke-width="1.51"/><path d="M693,225L680,332L766,315Z" fill="#f3e8d0" stroke="#f3e8d0" stroke-width="1.51"/><path d="M850,304L837,249L766,315Z" fill="#e7e5cc" stroke="#e7e5cc" stroke-width="1.51"/><path d="M927,213L837,249L850,304Z" fill="#dedebf" stroke="#dedebf" stroke-width="1.51"/><path d="M837,249L776,243L766,315Z" fill="#e8e2c7" stroke="#e8e2c7" stroke-width="1.51"/><path d="M1025,477L1042,399L952,422Z" fill="#c8e5dd" stroke="#c8e5dd" stroke-width="1.51"/><path d="M944,337L927,213L850,304Z" fill="#dae1c6" stroke="#dae1c6" stroke-width="1.51"/><path d="M1088,475L1042,399L1025,477Z" fill="#bfe2dc" stroke="#bfe2dc" stroke-width="1.51"/><path d="M500,484L515,587L574,482Z" fill="#e9e9d4" stroke="#e9e9d4" stroke-width="1.51"/><path d="M582,751L664,771L675,651Z" fill="#b5d7c8" stroke="#b5d7c8" stroke-width="1.51"/><path d="M743,751L742,823L851,750Z" fill="#9eccc6" stroke="#9eccc6" stroke-width="1.51"/><path d="M569,421L500,484L574,482Z" fill="#f4eedb" stroke="#f4eedb" stroke-width="1.51"/><path d="M490,414L500,484L569,421Z" fill="#f5ebd4" stroke="#f5ebd4" stroke-width="1.51"/><path d="M933,684L1037,662L1006,582Z" fill="#9fd9d0" stroke="#9fd9d0" stroke-width="1.51"/><path d="M1006,582L1088,475L1025,477Z" fill="#b6e1d9" stroke="#b6e1d9" stroke-width="1.51"/><path d="M1035,735L1037,662L933,684Z" fill="#8dd2c7" stroke="#8dd2c7" stroke-width="1.51"/><path d="M851,750L940,765L933,684Z" fill="#96d0c9" stroke="#96d0c9" stroke-width="1.51"/><path d="M916,824L940,765L851,750Z" fill="#8ac7bf" stroke="#8ac7bf" stroke-width="1.51"/><path d="M762,154L693,225L776,243Z" fill="#eadbb7" stroke="#eadbb7" stroke-width="1.51"/><path d="M776,243L693,225L766,315Z" fill="#eee2c7" stroke="#eee2c7" stroke-width="1.51"/><path d="M1127,579L1088,475L1006,582Z" fill="#a8dbd3" stroke="#a8dbd3" stroke-width="1.51"/><path d="M511,333L490,414L569,421Z" fill="#f5e8ca" stroke="#f5e8ca" stroke-width="1.51"/><path d="M511,333L569,421L610,314Z" fill="#f6eacb" stroke="#f6eacb" stroke-width="1.51"/><path d="M664,771L742,823L743,751Z" fill="#a4cdc7" stroke="#a4cdc7" stroke-width="1.51"/><path d="M664,771L688,860L742,823Z" fill="#9bc4bd" stroke="#9bc4bd" stroke-width="1.51"/><path d="M572,660L582,751L675,651Z" fill="#c0decb" stroke="#c0decb" stroke-width="1.51"/><path d="M522,756L582,751L572,660Z" fill="#b7d4bd" stroke="#b7d4bd" stroke-width="1.51"/><path d="M742,823L847,831L851,750Z" fill="#91c5bf" stroke="#91c5bf" stroke-width="1.51"/><path d="M1042,399L1043,307L944,337Z" fill="#cae0cc" stroke="#cae0cc" stroke-width="1.51"/><path d="M1124,327L1043,307L1042,399Z" fill="#bedbc5" stroke="#bedbc5" stroke-width="1.51"/><path d="M519,248L511,333L610,314Z" fill="#f4e3ba" stroke="#f4e3ba" stroke-width="1.51"/><path d="M1009,213L927,213L944,337Z" fill="#ced8b8" stroke="#ced8b8" stroke-width="1.51"/><path d="M837,249L762,154L776,243Z" fill="#e4dab7" stroke="#e4dab7" stroke-width="1.51"/><path d="M693,225L596,237L610,314Z" fill="#f0e0bb" stroke="#f0e0bb" stroke-width="1.51"/><path d="M1037,662L1127,579L1006,582Z" fill="#9bd8ce" stroke="#9bd8ce" stroke-width="1.51"/><path d="M940,765L1035,735L933,684Z" fill="#8acdc3" stroke="#8acdc3" stroke-width="1.51"/><path d="M1016,835L1035,735L940,765Z" fill="#76bfb6" stroke="#76bfb6" stroke-width="1.51"/><path d="M847,831L916,824L851,750Z" fill="#89c3bd" stroke="#89c3bd" stroke-width="1.51"/><path d="M515,587L495,684L572,660Z" fill="#ccdfc5" stroke="#ccdfc5" stroke-width="1.51"/><path d="M438,565L495,684L515,587Z" fill="#d2ddc1" stroke="#d2ddc1" stroke-width="1.51"/><path d="M438,565L515,587L500,484Z" fill="#e2e3c8" stroke="#e2e3c8" stroke-width="1.51"/><path d="M1088,475L1110,402L1042,399Z" fill="#bbddd4" stroke="#bbddd4" stroke-width="1.51"/><path d="M1187,497L1110,402L1088,475Z" fill="#afd7d1" stroke="#afd7d1" stroke-width="1.51"/><path d="M1108,680L1127,579L1037,662Z" fill="#8bcfc5" stroke="#8bcfc5" stroke-width="1.51"/><path d="M397,507L438,565L500,484Z" fill="#e4e0c2" stroke="#e4e0c2" stroke-width="1.51"/><path d="M430,405L500,484L490,414Z" fill="#f2e5c9" stroke="#f2e5c9" stroke-width="1.51"/><path d="M693,225L668,159L596,237Z" fill="#ecd8ae" stroke="#ecd8ae" stroke-width="1.51"/><path d="M861,137L762,154L837,249Z" fill="#ded1ab" stroke="#ded1ab" stroke-width="1.51"/><path d="M585,823L688,860L664,771Z" fill="#9cc2b5" stroke="#9cc2b5" stroke-width="1.51"/><path d="M495,684L522,756L572,660Z" fill="#bcd7bd" stroke="#bcd7bd" stroke-width="1.51"/><path d="M421,758L522,756L495,684Z" fill="#b2caac" stroke="#b2caac" stroke-width="1.51"/><path d="M742,823L759,928L847,831Z" fill="#8bb9b3" stroke="#8bb9b3" stroke-width="1.51"/><path d="M949,924L1016,835L916,824Z" fill="#6db0a8" stroke="#6db0a8" stroke-width="1.51"/><path d="M585,823L664,771L582,751Z" fill="#a6c9b8" stroke="#a6c9b8" stroke-width="1.51"/><path d="M1035,735L1108,680L1037,662Z" fill="#81cdc1" stroke="#81cdc1" stroke-width="1.51"/><path d="M762,154L668,159L693,225Z" fill="#e9d2ad" stroke="#e9d2ad" stroke-width="1.51"/><path d="M1043,307L1009,213L944,337Z" fill="#c9d9bd" stroke="#c9d9bd" stroke-width="1.51"/><path d="M927,213L861,137L837,249Z" fill="#d9d4af" stroke="#d9d4af" stroke-width="1.51"/><path d="M1122,244L1009,213L1043,307Z" fill="#bccfae" stroke="#bccfae" stroke-width="1.51"/><path d="M522,756L585,823L582,751Z" fill="#a8c8b3" stroke="#a8c8b3" stroke-width="1.51"/><path d="M511,333L430,405L490,414Z" fill="#f2e3c0" stroke="#f2e3c0" stroke-width="1.51"/><path d="M399,315L430,405L511,333Z" fill="#f0deb3" stroke="#f0deb3" stroke-width="1.51"/><path d="M519,248L610,314L596,237Z" fill="#f1dfb4" stroke="#f1dfb4" stroke-width="1.51"/><path d="M489,152L519,248L596,237Z" fill="#ebd49e" stroke="#ebd49e" stroke-width="1.51"/><path d="M952,162L861,137L927,213Z" fill="#d1caa2" stroke="#d1caa2" stroke-width="1.51"/><path d="M696,45L600,138L668,159Z" fill="#e3be8f" stroke="#e3be8f" stroke-width="1.51"/><path d="M1176,339L1124,327L1110,402Z" fill="#b1d1bd" stroke="#b1d1bd" stroke-width="1.51"/><path d="M1110,402L1124,327L1042,399Z" fill="#b9d9c7" stroke="#b9d9c7" stroke-width="1.51"/><path d="M1009,213L952,162L927,213Z" fill="#c9cda5" stroke="#c9cda5" stroke-width="1.51"/><path d="M430,405L397,507L500,484Z" fill="#eee2c5" stroke="#eee2c5" stroke-width="1.51"/><path d="M438,565L407,681L495,684Z" fill="#c8d6b5" stroke="#c8d6b5" stroke-width="1.51"/><path d="M1035,735L1127,767L1108,680Z" fill="#71c1b6" stroke="#71c1b6" stroke-width="1.51"/><path d="M916,824L1016,835L940,765Z" fill="#76bcb3" stroke="#76bcb3" stroke-width="1.51"/><path d="M949,924L916,824L847,831Z" fill="#79b5ae" stroke="#79b5ae" stroke-width="1.51"/><path d="M1127,579L1187,497L1088,475Z" fill="#a2d3cc" stroke="#a2d3cc" stroke-width="1.51"/><path d="M1192,579L1187,497L1127,579Z" fill="#94ccc5" stroke="#94ccc5" stroke-width="1.51"/><path d="M1179,652L1192,579L1127,579Z" fill="#88c7bf" stroke="#88c7bf" stroke-width="1.51"/><path d="M1179,652L1127,579L1108,680Z" fill="#82c8be" stroke="#82c8be" stroke-width="1.51"/><path d="M339,560L407,681L438,565Z" fill="#d0d4b0" stroke="#d0d4b0" stroke-width="1.51"/><path d="M522,756L490,854L585,823Z" fill="#9ebea6" stroke="#9ebea6" stroke-width="1.51"/><path d="M1204,739L1179,652L1108,680Z" fill="#6dbdb2" stroke="#6dbdb2" stroke-width="1.51"/><path d="M696,45L668,159L762,154Z" fill="#e3c299" stroke="#e3c299" stroke-width="1.51"/><path d="M668,159L600,138L596,237Z" fill="#e9d0a0" stroke="#e9d0a0" stroke-width="1.51"/><path d="M688,860L759,928L742,823Z" fill="#90b9b3" stroke="#90b9b3" stroke-width="1.51"/><path d="M673,918L759,928L688,860Z" fill="#8db2ac" stroke="#8db2ac" stroke-width="1.51"/><path d="M585,908L688,860L585,823Z" fill="#95b7a8" stroke="#95b7a8" stroke-width="1.51"/><path d="M585,908L673,918L688,860Z" fill="#8fb1a5" stroke="#8fb1a5" stroke-width="1.51"/><path d="M1209,413L1176,339L1110,402Z" fill="#abcebf" stroke="#abcebf" stroke-width="1.51"/><path d="M1124,327L1122,244L1043,307Z" fill="#b8d0b3" stroke="#b8d0b3" stroke-width="1.51"/><path d="M1009,213L1020,134L952,162Z" fill="#c2c39a" stroke="#c2c39a" stroke-width="1.51"/><path d="M1109,835L1127,767L1035,735Z" fill="#61b5ab" stroke="#61b5ab" stroke-width="1.51"/><path d="M759,928L828,935L847,831Z" fill="#80b0aa" stroke="#80b0aa" stroke-width="1.51"/><path d="M1176,339L1122,244L1124,327Z" fill="#b0cbb0" stroke="#b0cbb0" stroke-width="1.51"/><path d="M1262,393L1209,413L1291,474Z" fill="#9ac2b9" stroke="#9ac2b9" stroke-width="1.51"/><path d="M1187,497L1209,413L1110,402Z" fill="#a9d0c9" stroke="#a9d0c9" stroke-width="1.51"/><path d="M416,234L511,333L519,248Z" fill="#edd7a5" stroke="#edd7a5" stroke-width="1.51"/><path d="M416,234L399,315L511,333Z" fill="#edd7a3" stroke="#edd7a3" stroke-width="1.51"/><path d="M430,405L334,476L397,507Z" fill="#ebdcba" stroke="#ebdcba" stroke-width="1.51"/><path d="M407,681L421,758L495,684Z" fill="#b6cba9" stroke="#b6cba9" stroke-width="1.51"/><path d="M952,162L947,81L861,137Z" fill="#cbbd93" stroke="#cbbd93" stroke-width="1.51"/><path d="M861,137L832,54L762,154Z" fill="#d8be95" stroke="#d8be95" stroke-width="1.51"/><path d="M1089,140L1020,134L1009,213Z" fill="#b9bd93" stroke="#b9bd93" stroke-width="1.51"/><path d="M828,935L949,924L847,831Z" fill="#78afa8" stroke="#78afa8" stroke-width="1.51"/><path d="M1016,835L1109,835L1035,735Z" fill="#63b5ac" stroke="#63b5ac" stroke-width="1.51"/><path d="M490,854L585,908L585,823Z" fill="#96b59f" stroke="#96b59f" stroke-width="1.51"/><path d="M742,1025L828,935L759,928Z" fill="#7ca49e" stroke="#7ca49e" stroke-width="1.51"/><path d="M397,507L339,560L438,565Z" fill="#dcd9b6" stroke="#dcd9b6" stroke-width="1.51"/><path d="M320,771L412,824L421,758Z" fill="#a0b48f" stroke="#a0b48f" stroke-width="1.51"/><path d="M334,476L339,560L397,507Z" fill="#e0d5b0" stroke="#e0d5b0" stroke-width="1.51"/><path d="M421,758L490,854L522,756Z" fill="#a2bda0" stroke="#a2bda0" stroke-width="1.51"/><path d="M326,409L334,476L430,405Z" fill="#ebd8b2" stroke="#ebd8b2" stroke-width="1.51"/><path d="M1097,918L1109,835L1016,835Z" fill="#53a59c" stroke="#53a59c" stroke-width="1.51"/><path d="M1127,767L1204,739L1108,680Z" fill="#65b7ad" stroke="#65b7ad" stroke-width="1.51"/><path d="M1020,134L947,81L952,162Z" fill="#c2b98d" stroke="#c2b98d" stroke-width="1.51"/><path d="M947,81L832,54L861,137Z" fill="#ceb68a" stroke="#ceb68a" stroke-width="1.51"/><path d="M949,924L1009,914L1016,835Z" fill="#61a79e" stroke="#61a79e" stroke-width="1.51"/><path d="M342,338L326,409L430,405Z" fill="#ebd6a9" stroke="#ebd6a9" stroke-width="1.51"/><path d="M489,152L416,234L519,248Z" fill="#e7cd92" stroke="#e7cd92" stroke-width="1.51"/><path d="M600,138L489,152L596,237Z" fill="#e8cc97" stroke="#e8cc97" stroke-width="1.51"/><path d="M511,81L489,152L600,138Z" fill="#e1bc81" stroke="#e1bc81" stroke-width="1.51"/><path d="M832,54L773,41L762,154Z" fill="#d8b78d" stroke="#d8b78d" stroke-width="1.51"/><path d="M247,564L323,686L339,560Z" fill="#cbc49b" stroke="#cbc49b" stroke-width="1.51"/><path d="M342,338L430,405L399,315Z" fill="#ecd8a8" stroke="#ecd8a8" stroke-width="1.51"/><path d="M773,41L696,45L762,154Z" fill="#dcb78e" stroke="#dcb78e" stroke-width="1.51"/><path d="M1197,846L1204,739L1127,767Z" fill="#4ea79e" stroke="#4ea79e" stroke-width="1.51"/><path d="M1179,652L1266,587L1192,579Z" fill="#7dc0b7" stroke="#7dc0b7" stroke-width="1.51"/><path d="M1192,579L1266,587L1187,497Z" fill="#8bc5be" stroke="#8bc5be" stroke-width="1.51"/><path d="M339,214L342,338L399,315Z" fill="#e6cb91" stroke="#e6cb91" stroke-width="1.51"/><path d="M1122,244L1089,140L1009,213Z" fill="#b6c49b" stroke="#b6c49b" stroke-width="1.51"/><path d="M1020,134L1005,74L947,81Z" fill="#bdb082" stroke="#bdb082" stroke-width="1.51"/><path d="M1182,163L1089,140L1122,244Z" fill="#aab78e" stroke="#aab78e" stroke-width="1.51"/><path d="M1181,225L1122,244L1176,339Z" fill="#aac2a3" stroke="#aac2a3" stroke-width="1.51"/><path d="M1268,666L1266,587L1179,652Z" fill="#6fb9b0" stroke="#6fb9b0" stroke-width="1.51"/><path d="M1262,393L1176,339L1209,413Z" fill="#a2c6b6" stroke="#a2c6b6" stroke-width="1.51"/><path d="M1288,335L1181,225L1176,339Z" fill="#a2bfa4" stroke="#a2bfa4" stroke-width="1.51"/><path d="M947,81L858,-9L832,54Z" fill="#c5ab82" stroke="#c5ab82" stroke-width="1.51"/><path d="M832,54L858,-9L773,41Z" fill="#c8aa83" stroke="#c8aa83" stroke-width="1.51"/><path d="M1089,140L1005,74L1020,134Z" fill="#b6b184" stroke="#b6b184" stroke-width="1.51"/><path d="M421,758L412,824L490,854Z" fill="#9bb494" stroke="#9bb494" stroke-width="1.51"/><path d="M490,854L513,945L585,908Z" fill="#8faa92" stroke="#8faa92" stroke-width="1.51"/><path d="M323,686L421,758L407,681Z" fill="#b4c59e" stroke="#b4c59e" stroke-width="1.51"/><path d="M1291,474L1209,413L1187,497Z" fill="#9bc7c1" stroke="#9bc7c1" stroke-width="1.51"/><path d="M247,564L339,560L334,476Z" fill="#dacaa3" stroke="#dacaa3" stroke-width="1.51"/><path d="M339,560L323,686L407,681Z" fill="#c4caa3" stroke="#c4caa3" stroke-width="1.51"/><path d="M489,152L428,165L416,234Z" fill="#e1c383" stroke="#e1c383" stroke-width="1.51"/><path d="M416,234L339,214L399,315Z" fill="#e5ca8c" stroke="#e5ca8c" stroke-width="1.51"/><path d="M400,53L428,165L489,152Z" fill="#dab26e" stroke="#dab26e" stroke-width="1.51"/><path d="M696,45L572,57L600,138Z" fill="#deb581" stroke="#deb581" stroke-width="1.51"/><path d="M1266,587L1291,474L1187,497Z" fill="#8cc1bb" stroke="#8cc1bb" stroke-width="1.51"/><path d="M1266,587L1349,588L1291,474Z" fill="#80b8b1" stroke="#80b8b1" stroke-width="1.51"/><path d="M1204,739L1268,666L1179,652Z" fill="#63b6ac" stroke="#63b6ac" stroke-width="1.51"/><path d="M828,935L845,1015L949,924Z" fill="#6fa29a" stroke="#6fa29a" stroke-width="1.51"/><path d="M949,924L1041,1004L1009,914Z" fill="#579b92" stroke="#579b92" stroke-width="1.51"/><path d="M742,1025L845,1015L828,935Z" fill="#769d96" stroke="#769d96" stroke-width="1.51"/><path d="M742,1025L759,928L673,918Z" fill="#84a7a1" stroke="#84a7a1" stroke-width="1.51"/><path d="M572,57L511,81L600,138Z" fill="#deb57b" stroke="#deb57b" stroke-width="1.51"/><path d="M1204,739L1262,772L1268,666Z" fill="#51a9a0" stroke="#51a9a0" stroke-width="1.51"/><path d="M1109,835L1197,846L1127,767Z" fill="#4ba59c" stroke="#4ba59c" stroke-width="1.51"/><path d="M1009,914L1097,918L1016,835Z" fill="#56a49a" stroke="#56a49a" stroke-width="1.51"/><path d="M1041,1004L1097,918L1009,914Z" fill="#4c978d" stroke="#4c978d" stroke-width="1.51"/><path d="M670,1023L742,1025L673,918Z" fill="#82a097" stroke="#82a097" stroke-width="1.51"/><path d="M427,914L513,945L490,854Z" fill="#8ca488" stroke="#8ca488" stroke-width="1.51"/><path d="M670,1023L673,918L585,908Z" fill="#87a599" stroke="#87a599" stroke-width="1.51"/><path d="M753,-35L679,-15L696,45Z" fill="#cda681" stroke="#cda681" stroke-width="1.51"/><path d="M696,45L583,-5L572,57Z" fill="#d3aa79" stroke="#d3aa79" stroke-width="1.51"/><path d="M941,-47L858,-9L947,81Z" fill="#b9a27a" stroke="#b9a27a" stroke-width="1.51"/><path d="M572,1027L670,1023L585,908Z" fill="#839d8c" stroke="#839d8c" stroke-width="1.51"/><path d="M1089,140L1123,72L1005,74Z" fill="#aea87a" stroke="#aea87a" stroke-width="1.51"/><path d="M1005,74L941,-47L947,81Z" fill="#b5a47a" stroke="#b5a47a" stroke-width="1.51"/><path d="M1181,225L1182,163L1122,244Z" fill="#a6ba92" stroke="#a6ba92" stroke-width="1.51"/><path d="M1266,130L1182,163L1181,225Z" fill="#9ba880" stroke="#9ba880" stroke-width="1.51"/><path d="M1288,335L1176,339L1262,393Z" fill="#9ec0ae" stroke="#9ec0ae" stroke-width="1.51"/><path d="M1097,918L1197,846L1109,835Z" fill="#459c93" stroke="#459c93" stroke-width="1.51"/><path d="M1358,403L1288,335L1262,393Z" fill="#96b8a8" stroke="#96b8a8" stroke-width="1.51"/><path d="M412,824L427,914L490,854Z" fill="#92a98a" stroke="#92a98a" stroke-width="1.51"/><path d="M323,686L320,771L421,758Z" fill="#abba91" stroke="#abba91" stroke-width="1.51"/><path d="M233,741L320,771L323,686Z" fill="#a9b084" stroke="#a9b084" stroke-width="1.51"/><path d="M326,409L261,410L334,476Z" fill="#e8cda5" stroke="#e8cda5" stroke-width="1.51"/><path d="M342,338L261,410L326,409Z" fill="#e7cb9c" stroke="#e7cb9c" stroke-width="1.51"/><path d="M240,310L261,410L342,338Z" fill="#e5c48f" stroke="#e5c48f" stroke-width="1.51"/><path d="M753,-35L696,45L773,41Z" fill="#cfaa84" stroke="#cfaa84" stroke-width="1.51"/><path d="M572,57L486,-39L511,81Z" fill="#d0a56b" stroke="#d0a56b" stroke-width="1.51"/><path d="M428,165L339,214L416,234Z" fill="#e0c380" stroke="#e0c380" stroke-width="1.51"/><path d="M345,128L339,214L428,165Z" fill="#dab76f" stroke="#dab76f" stroke-width="1.51"/><path d="M513,945L572,1027L585,908Z" fill="#87a18b" stroke="#87a18b" stroke-width="1.51"/><path d="M333,846L427,914L412,824Z" fill="#90a580" stroke="#90a580" stroke-width="1.51"/><path d="M845,1015L931,1032L949,924Z" fill="#679a91" stroke="#679a91" stroke-width="1.51"/><path d="M742,1025L931,1032L845,1015Z" fill="#6e968d" stroke="#6e968d" stroke-width="1.51"/><path d="M492,1033L931,1032L742,1025Z" fill="#7d9891" stroke="#7d9891" stroke-width="1.51"/><path d="M1197,846L1262,772L1204,739Z" fill="#439f97" stroke="#439f97" stroke-width="1.51"/><path d="M1268,666L1349,588L1266,587Z" fill="#70b3aa" stroke="#70b3aa" stroke-width="1.51"/><path d="M233,497L247,564L334,476Z" fill="#dbc49c" stroke="#dbc49c" stroke-width="1.51"/><path d="M858,-9L753,-35L773,41Z" fill="#c5a47f" stroke="#c5a47f" stroke-width="1.51"/><path d="M1182,163L1123,72L1089,140Z" fill="#a6a77b" stroke="#a6a77b" stroke-width="1.51"/><path d="M261,410L233,497L334,476Z" fill="#e4c7a1" stroke="#e4c7a1" stroke-width="1.51"/><path d="M931,1032L1041,1004L949,924Z" fill="#5a958b" stroke="#5a958b" stroke-width="1.51"/><path d="M1186,937L1260,841L1197,846Z" fill="#308e86" stroke="#308e86" stroke-width="1.51"/><path d="M679,-15L583,-5L696,45Z" fill="#cfa67a" stroke="#cfa67a" stroke-width="1.51"/><path d="M400,53L345,128L428,165Z" fill="#d5ab62" stroke="#d5ab62" stroke-width="1.51"/><path d="M611,-108L583,-5L679,-15Z" fill="#c39b70" stroke="#c39b70" stroke-width="1.51"/><path d="M670,1023L572,1027L742,1025Z" fill="#7f988b" stroke="#7f988b" stroke-width="1.51"/><path d="M492,1033L572,1027L513,945Z" fill="#81967c" stroke="#81967c" stroke-width="1.51"/><path d="M320,771L333,846L412,824Z" fill="#97aa83" stroke="#97aa83" stroke-width="1.51"/><path d="M437,1008L492,1033L513,945Z" fill="#819275" stroke="#819275" stroke-width="1.51"/><path d="M261,826L333,846L320,771Z" fill="#949f77" stroke="#949f77" stroke-width="1.51"/><path d="M1386,651L1349,588L1268,666Z" fill="#64aaa1" stroke="#64aaa1" stroke-width="1.51"/><path d="M1291,474L1358,403L1262,393Z" fill="#95bab1" stroke="#95bab1" stroke-width="1.51"/><path d="M1349,588L1360,471L1291,474Z" fill="#84b5af" stroke="#84b5af" stroke-width="1.51"/><path d="M1370,745L1386,651L1268,666Z" fill="#52a399" stroke="#52a399" stroke-width="1.51"/><path d="M1197,846L1260,841L1262,772Z" fill="#34958d" stroke="#34958d" stroke-width="1.51"/><path d="M1186,937L1197,846L1097,918Z" fill="#399087" stroke="#399087" stroke-width="1.51"/><path d="M1288,335L1297,240L1181,225Z" fill="#99b395" stroke="#99b395" stroke-width="1.51"/><path d="M1182,163L1208,82L1123,72Z" fill="#9c9d6f" stroke="#9c9d6f" stroke-width="1.51"/><path d="M1382,317L1297,240L1288,335Z" fill="#93ae93" stroke="#93ae93" stroke-width="1.51"/><path d="M1039,-38L941,-47L1005,74Z" fill="#a99a71" stroke="#a99a71" stroke-width="1.51"/><path d="M858,-9L779,-101L753,-35Z" fill="#bb9b7a" stroke="#bb9b7a" stroke-width="1.51"/><path d="M1360,471L1358,403L1291,474Z" fill="#90b7b2" stroke="#90b7b2" stroke-width="1.51"/><path d="M339,214L240,310L342,338Z" fill="#e2c184" stroke="#e2c184" stroke-width="1.51"/><path d="M261,410L164,421L233,497Z" fill="#e2bd93" stroke="#e2bd93" stroke-width="1.51"/><path d="M177,599L231,686L247,564Z" fill="#c2b386" stroke="#c2b386" stroke-width="1.51"/><path d="M247,564L231,686L323,686Z" fill="#beb98d" stroke="#beb98d" stroke-width="1.51"/><path d="M1109,1013L1186,937L1097,918Z" fill="#398a80" stroke="#398a80" stroke-width="1.51"/><path d="M339,214L233,252L240,310Z" fill="#dcb673" stroke="#dcb673" stroke-width="1.51"/><path d="M400,53L489,152L511,81Z" fill="#d8ad6a" stroke="#d8ad6a" stroke-width="1.51"/><path d="M1041,1004L1109,1013L1097,918Z" fill="#428d82" stroke="#428d82" stroke-width="1.51"/><path d="M931,1032L1109,1013L1041,1004Z" fill="#4c8b80" stroke="#4c8b80" stroke-width="1.51"/><path d="M437,1008L513,945L427,914Z" fill="#849879" stroke="#849879" stroke-width="1.51"/><path d="M572,1027L492,1033L742,1025Z" fill="#7f9582" stroke="#7f9582" stroke-width="1.51"/><path d="M486,-39L400,53L511,81Z" fill="#cc9f60" stroke="#cc9f60" stroke-width="1.51"/><path d="M352,937L437,1008L427,914Z" fill="#82936f" stroke="#82936f" stroke-width="1.51"/><path d="M231,686L233,741L323,686Z" fill="#afb083" stroke="#afb083" stroke-width="1.51"/><path d="M1108,-4L1039,-38L1005,74Z" fill="#a2996e" stroke="#a2996e" stroke-width="1.51"/><path d="M1266,130L1208,82L1182,163Z" fill="#969a6f" stroke="#969a6f" stroke-width="1.51"/><path d="M1108,-4L1005,74L1123,72Z" fill="#a49d70" stroke="#a49d70" stroke-width="1.51"/><path d="M1204,-27L1108,-4L1123,72Z" fill="#928c62" stroke="#928c62" stroke-width="1.51"/><path d="M352,937L427,914L333,846Z" fill="#889a74" stroke="#889a74" stroke-width="1.51"/><path d="M244,927L352,937L333,846Z" fill="#858e66" stroke="#858e66" stroke-width="1.51"/><path d="M258,128L233,252L339,214Z" fill="#d6ac63" stroke="#d6ac63" stroke-width="1.51"/><path d="M143,485L177,599L233,497Z" fill="#d1b48a" stroke="#d1b48a" stroke-width="1.51"/><path d="M233,497L177,599L247,564Z" fill="#d1b98d" stroke="#d1b98d" stroke-width="1.51"/><path d="M258,128L339,214L345,128Z" fill="#d4a85e" stroke="#d4a85e" stroke-width="1.51"/><path d="M1208,82L1204,-27L1123,72Z" fill="#918d62" stroke="#918d62" stroke-width="1.51"/><path d="M1297,240L1266,130L1181,225Z" fill="#96a983" stroke="#96a983" stroke-width="1.51"/><path d="M1351,165L1266,130L1297,240Z" fill="#8e9c74" stroke="#8e9c74" stroke-width="1.51"/><path d="M753,-35L673,-120L679,-15Z" fill="#c09c7a" stroke="#c09c7a" stroke-width="1.51"/><path d="M583,-5L486,-39L572,57Z" fill="#cca26c" stroke="#cca26c" stroke-width="1.51"/><path d="M838,-107L779,-101L858,-9Z" fill="#b19677" stroke="#b19677" stroke-width="1.51"/><path d="M838,-107L858,-9L920,-112Z" fill="#ab9475" stroke="#ab9475" stroke-width="1.51"/><path d="M233,741L261,826L320,771Z" fill="#9ca177" stroke="#9ca177" stroke-width="1.51"/><path d="M1451,474L1446,423L1360,471Z" fill="#85aaa5" stroke="#85aaa5" stroke-width="1.51"/><path d="M1446,423L1382,317L1358,403Z" fill="#8baa9b" stroke="#8baa9b" stroke-width="1.51"/><path d="M1370,745L1268,666L1262,772Z" fill="#4ba197" stroke="#4ba197" stroke-width="1.51"/><path d="M164,421L261,410L240,310Z" fill="#e0b987" stroke="#e0b987" stroke-width="1.51"/><path d="M231,686L146,747L233,741Z" fill="#a6a172" stroke="#a6a172" stroke-width="1.51"/><path d="M233,741L158,843L261,826Z" fill="#929266" stroke="#929266" stroke-width="1.51"/><path d="M920,-112L858,-9L941,-47Z" fill="#ab9774" stroke="#ab9774" stroke-width="1.51"/><path d="M1358,403L1382,317L1288,335Z" fill="#92b19d" stroke="#92b19d" stroke-width="1.51"/><path d="M1446,423L1358,403L1360,471Z" fill="#8aaea6" stroke="#8aaea6" stroke-width="1.51"/><path d="M1366,821L1370,745L1262,772Z" fill="#369188" stroke="#369188" stroke-width="1.51"/><path d="M1186,937L1289,930L1260,841Z" fill="#24837b" stroke="#24837b" stroke-width="1.51"/><path d="M1109,1013L1191,990L1186,937Z" fill="#318177" stroke="#318177" stroke-width="1.51"/><path d="M515,-94L486,-39L583,-5Z" fill="#c09662" stroke="#c09662" stroke-width="1.51"/><path d="M1366,821L1262,772L1260,841Z" fill="#2f8f87" stroke="#2f8f87" stroke-width="1.51"/><path d="M147,328L164,421L240,310Z" fill="#dcb27b" stroke="#dcb27b" stroke-width="1.51"/><path d="M1009,-92L941,-47L1039,-38Z" fill="#9b8f6b" stroke="#9b8f6b" stroke-width="1.51"/><path d="M1009,-92L920,-112L941,-47Z" fill="#9c8e6d" stroke="#9c8e6d" stroke-width="1.51"/><path d="M920,-112L673,-120L838,-107Z" fill="#a89075" stroke="#a89075" stroke-width="1.51"/><path d="M838,-107L673,-120L779,-101Z" fill="#ae9277" stroke="#ae9277" stroke-width="1.51"/><path d="M779,-101L673,-120L753,-35Z" fill="#b8977a" stroke="#b8977a" stroke-width="1.51"/><path d="M1094,-98L1009,-92L1039,-38Z" fill="#8e8965" stroke="#8e8965" stroke-width="1.51"/><path d="M1094,-98L1039,-38L1108,-4Z" fill="#918a64" stroke="#918a64" stroke-width="1.51"/><path d="M177,599L163,665L231,686Z" fill="#b8aa7c" stroke="#b8aa7c" stroke-width="1.51"/><path d="M79,559L163,665L177,599Z" fill="#bba77d" stroke="#bba77d" stroke-width="1.51"/><path d="M673,-120L611,-108L679,-15Z" fill="#ba9672" stroke="#ba9672" stroke-width="1.51"/><path d="M412,-29L346,41L400,53Z" fill="#c3954f" stroke="#c3954f" stroke-width="1.51"/><path d="M400,53L346,41L345,128Z" fill="#cc9d51" stroke="#cc9d51" stroke-width="1.51"/><path d="M164,421L143,485L233,497Z" fill="#dab58d" stroke="#dab58d" stroke-width="1.51"/><path d="M1266,130L1264,71L1208,82Z" fill="#8f8e62" stroke="#8f8e62" stroke-width="1.51"/><path d="M1352,67L1264,71L1266,130Z" fill="#89865a" stroke="#89865a" stroke-width="1.51"/><path d="M176,236L147,328L240,310Z" fill="#d8ac6c" stroke="#d8ac6c" stroke-width="1.51"/><path d="M76,398L70,476L143,485Z" fill="#d1a985" stroke="#d1a985" stroke-width="1.51"/><path d="M346,41L258,128L345,128Z" fill="#cc994c" stroke="#cc994c" stroke-width="1.51"/><path d="M1191,990L1289,930L1186,937Z" fill="#237d75" stroke="#237d75" stroke-width="1.51"/><path d="M352,937L347,996L437,1008Z" fill="#7e8b66" stroke="#7e8b66" stroke-width="1.51"/><path d="M437,1008L347,996L492,1033Z" fill="#7c8967" stroke="#7c8967" stroke-width="1.51"/><path d="M244,927L347,996L352,937Z" fill="#7e855d" stroke="#7e855d" stroke-width="1.51"/><path d="M244,927L333,846L261,826Z" fill="#8a9067" stroke="#8a9067" stroke-width="1.51"/><path d="M1370,745L1449,647L1386,651Z" fill="#4e9b91" stroke="#4e9b91" stroke-width="1.51"/><path d="M1289,930L1366,821L1260,841Z" fill="#23837b" stroke="#23837b" stroke-width="1.51"/><path d="M346,41L242,42L258,128Z" fill="#c48c3e" stroke="#c48c3e" stroke-width="1.51"/><path d="M486,-39L412,-29L400,53Z" fill="#c19454" stroke="#c19454" stroke-width="1.51"/><path d="M428,-97L412,-29L486,-39Z" fill="#b78c50" stroke="#b78c50" stroke-width="1.51"/><path d="M1380,217L1351,165L1297,240Z" fill="#8b9d78" stroke="#8b9d78" stroke-width="1.51"/><path d="M1382,317L1380,217L1297,240Z" fill="#8da384" stroke="#8da384" stroke-width="1.51"/><path d="M428,-97L515,-94L611,-108Z" fill="#b18c5d" stroke="#b18c5d" stroke-width="1.51"/><path d="M611,-108L515,-94L583,-5Z" fill="#bb9567" stroke="#bb9567" stroke-width="1.51"/><path d="M1382,317L1448,228L1380,217Z" fill="#869b7b" stroke="#869b7b" stroke-width="1.51"/><path d="M1451,474L1360,471L1349,588Z" fill="#7eada6" stroke="#7eada6" stroke-width="1.51"/><path d="M1451,474L1349,588L1458,601Z" fill="#72a69f" stroke="#72a69f" stroke-width="1.51"/><path d="M1458,601L1349,588L1386,651Z" fill="#64a39b" stroke="#64a39b" stroke-width="1.51"/><path d="M176,236L240,310L233,252Z" fill="#d8ac69" stroke="#d8ac69" stroke-width="1.51"/><path d="M164,168L176,236L233,252Z" fill="#d0a157" stroke="#d0a157" stroke-width="1.51"/><path d="M1467,770L1449,647L1370,745Z" fill="#3f9086" stroke="#3f9086" stroke-width="1.51"/><path d="M1449,647L1458,601L1386,651Z" fill="#5b9c93" stroke="#5b9c93" stroke-width="1.51"/><path d="M1290,-19L1204,-27L1264,71Z" fill="#7f7b54" stroke="#7f7b54" stroke-width="1.51"/><path d="M1264,71L1204,-27L1208,82Z" fill="#89865c" stroke="#89865c" stroke-width="1.51"/><path d="M1009,-92L1094,-98L920,-112Z" fill="#8e8867" stroke="#8e8867" stroke-width="1.51"/><path d="M1204,-27L1094,-98L1108,-4Z" fill="#88825c" stroke="#88825c" stroke-width="1.51"/><path d="M163,665L146,747L231,686Z" fill="#aaa374" stroke="#aaa374" stroke-width="1.51"/><path d="M55,681L146,747L163,665Z" fill="#a29a6f" stroke="#a29a6f" stroke-width="1.51"/><path d="M158,843L244,927L261,826Z" fill="#87865a" stroke="#87865a" stroke-width="1.51"/><path d="M1446,423L1459,318L1382,317Z" fill="#88a591" stroke="#88a591" stroke-width="1.51"/><path d="M1466,147L1352,67L1351,165Z" fill="#808258" stroke="#808258" stroke-width="1.51"/><path d="M1557,397L1459,318L1446,423Z" fill="#839d8d" stroke="#839d8d" stroke-width="1.51"/><path d="M1531,493L1446,423L1451,474Z" fill="#80a29b" stroke="#80a29b" stroke-width="1.51"/><path d="M428,-97L333,-26L412,-29Z" fill="#b48747" stroke="#b48747" stroke-width="1.51"/><path d="M412,-29L333,-26L346,41Z" fill="#bc8c46" stroke="#bc8c46" stroke-width="1.51"/><path d="M258,128L164,168L233,252Z" fill="#ce9d51" stroke="#ce9d51" stroke-width="1.51"/><path d="M515,-94L428,-97L486,-39Z" fill="#b48b56" stroke="#b48b56" stroke-width="1.51"/><path d="M673,-120L428,-97L611,-108Z" fill="#b18e65" stroke="#b18e65" stroke-width="1.51"/><path d="M143,485L79,559L177,599Z" fill="#c7ab83" stroke="#c7ab83" stroke-width="1.51"/><path d="M70,476L79,559L143,485Z" fill="#c8a881" stroke="#c8a881" stroke-width="1.51"/><path d="M169,40L164,168L258,128Z" fill="#c28735" stroke="#c28735" stroke-width="1.51"/><path d="M78,220L55,321L147,328Z" fill="#c99d62" stroke="#c99d62" stroke-width="1.51"/><path d="M76,398L143,485L164,421Z" fill="#d5ad85" stroke="#d5ad85" stroke-width="1.51"/><path d="M146,747L158,843L233,741Z" fill="#959266" stroke="#959266" stroke-width="1.51"/><path d="M68,768L158,843L146,747Z" fill="#8c885e" stroke="#8c885e" stroke-width="1.51"/><path d="M76,398L164,421L147,328Z" fill="#d4ab7b" stroke="#d4ab7b" stroke-width="1.51"/><path d="M1204,-27L1204,-92L1094,-98Z" fill="#7b7956" stroke="#7b7956" stroke-width="1.51"/><path d="M1351,165L1352,67L1266,130Z" fill="#888a60" stroke="#888a60" stroke-width="1.51"/><path d="M1466,147L1351,165L1380,217Z" fill="#828d66" stroke="#828d66" stroke-width="1.51"/><path d="M169,40L242,42L174,-47Z" fill="#ae7122" stroke="#ae7122" stroke-width="1.51"/><path d="M333,-26L242,42L346,41Z" fill="#bb863d" stroke="#bb863d" stroke-width="1.51"/><path d="M1459,318L1448,228L1382,317Z" fill="#869d81" stroke="#869d81" stroke-width="1.51"/><path d="M55,321L76,398L147,328Z" fill="#cea470" stroke="#cea470" stroke-width="1.51"/><path d="M1289,930L1387,942L1366,821Z" fill="#17766e" stroke="#17766e" stroke-width="1.51"/><path d="M1366,821L1467,770L1370,745Z" fill="#2e877e" stroke="#2e877e" stroke-width="1.51"/><path d="M1191,990L1295,1026L1289,930Z" fill="#1a7269" stroke="#1a7269" stroke-width="1.51"/><path d="M1109,1013L1295,1026L1191,990Z" fill="#26766c" stroke="#26766c" stroke-width="1.51"/><path d="M931,1032L1295,1026L1109,1013Z" fill="#398074" stroke="#398074" stroke-width="1.51"/><path d="M1458,601L1531,493L1451,474Z" fill="#749f97" stroke="#749f97" stroke-width="1.51"/><path d="M1541,589L1531,493L1458,601Z" fill="#6b9990" stroke="#6b9990" stroke-width="1.51"/><path d="M1458,826L1467,770L1366,821Z" fill="#217d75" stroke="#217d75" stroke-width="1.51"/><path d="M1352,67L1290,-19L1264,71Z" fill="#7f7b51" stroke="#7f7b51" stroke-width="1.51"/><path d="M1094,-98L1262,-111L920,-112Z" fill="#7e7f5e" stroke="#7e7f5e" stroke-width="1.51"/><path d="M1262,-111L1204,-92L1204,-27Z" fill="#70714f" stroke="#70714f" stroke-width="1.51"/><path d="M1379,993L1387,942L1289,930Z" fill="#0c6a62" stroke="#0c6a62" stroke-width="1.51"/><path d="M1464,904L1458,826L1366,821Z" fill="#17746c" stroke="#17746c" stroke-width="1.51"/><path d="M1458,601L1449,647L1542,657Z" fill="#57958b" stroke="#57958b" stroke-width="1.51"/><path d="M1541,589L1458,601L1542,657Z" fill="#5c9389" stroke="#5c9389" stroke-width="1.51"/><path d="M1522,154L1466,147L1448,228Z" fill="#7b825a" stroke="#7b825a" stroke-width="1.51"/><path d="M165,935L226,1001L244,927Z" fill="#787347" stroke="#787347" stroke-width="1.51"/><path d="M244,927L226,1001L347,996Z" fill="#797950" stroke="#797950" stroke-width="1.51"/><path d="M347,996L226,1001L492,1033Z" fill="#79825a" stroke="#79825a" stroke-width="1.51"/><path d="M79,559L55,681L163,665Z" fill="#ae9e75" stroke="#ae9e75" stroke-width="1.51"/><path d="M158,843L165,935L244,927Z" fill="#7e7a4e" stroke="#7e7a4e" stroke-width="1.51"/><path d="M-6,656L55,681L79,559Z" fill="#a79670" stroke="#a79670" stroke-width="1.51"/><path d="M82,915L165,935L158,843Z" fill="#777349" stroke="#777349" stroke-width="1.51"/><path d="M70,476L-12,505L79,559Z" fill="#bfa07c" stroke="#bfa07c" stroke-width="1.51"/><path d="M-17,388L-12,505L70,476Z" fill="#c39d7d" stroke="#c39d7d" stroke-width="1.51"/><path d="M78,220L147,328L176,236Z" fill="#cc9f5e" stroke="#cc9f5e" stroke-width="1.51"/><path d="M78,220L176,236L164,168Z" fill="#c7984f" stroke="#c7984f" stroke-width="1.51"/><path d="M1542,657L1449,647L1530,742Z" fill="#488c81" stroke="#488c81" stroke-width="1.51"/><path d="M1387,942L1464,904L1366,821Z" fill="#0f7068" stroke="#0f7068" stroke-width="1.51"/><path d="M1295,1026L1379,993L1289,930Z" fill="#116961" stroke="#116961" stroke-width="1.51"/><path d="M55,681L68,768L146,747Z" fill="#958f65" stroke="#958f65" stroke-width="1.51"/><path d="M65,136L78,220L164,168Z" fill="#bd8a41" stroke="#bd8a41" stroke-width="1.51"/><path d="M1530,742L1449,647L1467,770Z" fill="#3d887e" stroke="#3d887e" stroke-width="1.51"/><path d="M1530,742L1467,770L1533,843Z" fill="#27776d" stroke="#27776d" stroke-width="1.51"/><path d="M1542,229L1448,228L1459,318Z" fill="#809171" stroke="#809171" stroke-width="1.51"/><path d="M1448,228L1466,147L1380,217Z" fill="#818e68" stroke="#818e68" stroke-width="1.51"/><path d="M1355,-40L1262,-111L1290,-19Z" fill="#6b6946" stroke="#6b6946" stroke-width="1.51"/><path d="M242,42L169,40L258,128Z" fill="#be8130" stroke="#be8130" stroke-width="1.51"/><path d="M244,-47L242,42L333,-26Z" fill="#b27a31" stroke="#b27a31" stroke-width="1.51"/><path d="M1533,843L1467,770L1458,826Z" fill="#1d746b" stroke="#1d746b" stroke-width="1.51"/><path d="M1542,657L1557,397L1541,589Z" fill="#6b958c" stroke="#6b958c" stroke-width="1.51"/><path d="M1541,589L1557,397L1531,493Z" fill="#76988f" stroke="#76988f" stroke-width="1.51"/><path d="M1531,493L1557,397L1446,423Z" fill="#809d95" stroke="#809d95" stroke-width="1.51"/><path d="M310,-108L244,-47L333,-26Z" fill="#a87632" stroke="#a87632" stroke-width="1.51"/><path d="M428,-97L310,-108L333,-26Z" fill="#aa7e3f" stroke="#aa7e3f" stroke-width="1.51"/><path d="M673,-120L310,-108L428,-97Z" fill="#ab8653" stroke="#ab8653" stroke-width="1.51"/><path d="M1290,-19L1262,-111L1204,-27Z" fill="#72704d" stroke="#72704d" stroke-width="1.51"/><path d="M1204,-92L1262,-111L1094,-98Z" fill="#707253" stroke="#707253" stroke-width="1.51"/><path d="M920,-112L1453,-129L673,-120Z" fill="#888465" stroke="#888465" stroke-width="1.51"/><path d="M1355,-40L1290,-19L1352,67Z" fill="#746f48" stroke="#746f48" stroke-width="1.51"/><path d="M1434,1010L1464,904L1387,942Z" fill="#016058" stroke="#016058" stroke-width="1.51"/><path d="M79,990L171,1001L165,935Z" fill="#6c653b" stroke="#6c653b" stroke-width="1.51"/><path d="M165,935L171,1001L226,1001Z" fill="#726b3e" stroke="#726b3e" stroke-width="1.51"/><path d="M226,1001L171,1001L492,1033Z" fill="#76774d" stroke="#76774d" stroke-width="1.51"/><path d="M1452,46L1355,-40L1352,67Z" fill="#716c44" stroke="#716c44" stroke-width="1.51"/><path d="M1557,397L1558,320L1459,318Z" fill="#819781" stroke="#819781" stroke-width="1.51"/><path d="M-17,388L70,476L76,398Z" fill="#c9a079" stroke="#c9a079" stroke-width="1.51"/><path d="M4,752L57,844L68,768Z" fill="#807c55" stroke="#807c55" stroke-width="1.51"/><path d="M-17,388L76,398L55,321Z" fill="#c79d6e" stroke="#c79d6e" stroke-width="1.51"/><path d="M68,768L57,844L158,843Z" fill="#807d55" stroke="#807d55" stroke-width="1.51"/><path d="M4,752L68,768L55,681Z" fill="#8e875f" stroke="#8e875f" stroke-width="1.51"/><path d="M1558,320L1542,229L1459,318Z" fill="#7f9074" stroke="#7f9074" stroke-width="1.51"/><path d="M1466,147L1452,46L1352,67Z" fill="#797347" stroke="#797347" stroke-width="1.51"/><path d="M-28,590L-6,656L79,559Z" fill="#aa9672" stroke="#aa9672" stroke-width="1.51"/><path d="M1541,70L1452,46L1466,147Z" fill="#736b3e" stroke="#736b3e" stroke-width="1.51"/><path d="M310,-108L256,-103L244,-47Z" fill="#9f6d2b" stroke="#9f6d2b" stroke-width="1.51"/><path d="M244,-47L174,-47L242,42Z" fill="#ab6f23" stroke="#ab6f23" stroke-width="1.51"/><path d="M57,844L82,915L158,843Z" fill="#78744c" stroke="#78744c" stroke-width="1.51"/><path d="M-12,505L-28,590L79,559Z" fill="#b49a77" stroke="#b49a77" stroke-width="1.51"/><path d="M-36,338L-17,388L55,321Z" fill="#c09769" stroke="#c09769" stroke-width="1.51"/><path d="M-36,338L55,321L-22,216Z" fill="#bb915a" stroke="#bb915a" stroke-width="1.51"/><path d="M169,40L65,136L164,168Z" fill="#b97e30" stroke="#b97e30" stroke-width="1.51"/><path d="M73,46L65,136L169,40Z" fill="#ad7022" stroke="#ad7022" stroke-width="1.51"/><path d="M1542,657L1561,992L1557,397Z" fill="#45867a" stroke="#45867a" stroke-width="1.51"/><path d="M1530,742L1533,843L1542,657Z" fill="#337c71" stroke="#337c71" stroke-width="1.51"/><path d="M1464,904L1533,843L1458,826Z" fill="#146c62" stroke="#146c62" stroke-width="1.51"/><path d="M1527,905L1533,843L1464,904Z" fill="#0e645a" stroke="#0e645a" stroke-width="1.51"/><path d="M1379,993L1434,1010L1387,942Z" fill="#035f56" stroke="#035f56" stroke-width="1.51"/><path d="M1295,1026L1434,1010L1379,993Z" fill="#075e55" stroke="#075e55" stroke-width="1.51"/><path d="M1542,229L1522,154L1448,228Z" fill="#7b865f" stroke="#7b865f" stroke-width="1.51"/><path d="M-95,560L-28,590L-12,505Z" fill="#a99474" stroke="#a99474" stroke-width="1.51"/><path d="M-24,906L79,990L82,915Z" fill="#655f3a" stroke="#655f3a" stroke-width="1.51"/><path d="M-6,656L4,752L55,681Z" fill="#938c65" stroke="#938c65" stroke-width="1.51"/><path d="M-99,766L4,752L-6,656Z" fill="#83805d" stroke="#83805d" stroke-width="1.51"/><path d="M256,-103L174,-47L244,-47Z" fill="#a06821" stroke="#a06821" stroke-width="1.51"/><path d="M1561,992L1527,905L1464,904Z" fill="#01594f" stroke="#01594f" stroke-width="1.51"/><path d="M-113,409L-95,508L-12,505Z" fill="#b09378" stroke="#b09378" stroke-width="1.51"/><path d="M-22,216L55,321L78,220Z" fill="#bd9051" stroke="#bd9051" stroke-width="1.51"/><path d="M1452,46L1439,-35L1355,-40Z" fill="#67613c" stroke="#67613c" stroke-width="1.51"/><path d="M1355,-40L1387,-106L1262,-111Z" fill="#5f6040" stroke="#5f6040" stroke-width="1.51"/><path d="M1559,-21L1439,-35L1452,46Z" fill="#635a33" stroke="#635a33" stroke-width="1.51"/><path d="M65,136L-22,216L78,220Z" fill="#b68540" stroke="#b68540" stroke-width="1.51"/><path d="M73,-14L73,46L169,40Z" fill="#a3671a" stroke="#a3671a" stroke-width="1.51"/><path d="M-5,857L82,915L57,844Z" fill="#706c46" stroke="#706c46" stroke-width="1.51"/><path d="M82,915L79,990L165,935Z" fill="#6c663e" stroke="#6c663e" stroke-width="1.51"/><path d="M1439,-35L1387,-106L1355,-40Z" fill="#5f5c3a" stroke="#5f5c3a" stroke-width="1.51"/><path d="M-20,128L-22,216L65,136Z" fill="#ac7934" stroke="#ac7934" stroke-width="1.51"/><path d="M4,752L-5,857L57,844Z" fill="#76734e" stroke="#76734e" stroke-width="1.51"/><path d="M-24,906L-5,857L-92,817Z" fill="#646443" stroke="#646443" stroke-width="1.51"/><path d="M1439,-35L1453,-129L1387,-106Z" fill="#545334" stroke="#545334" stroke-width="1.51"/><path d="M1522,154L1541,70L1466,147Z" fill="#747146" stroke="#747146" stroke-width="1.51"/><path d="M1542,229L1541,70L1522,154Z" fill="#74754b" stroke="#74754b" stroke-width="1.51"/><path d="M1559,-21L1541,70L1542,229Z" fill="#6e6538" stroke="#6e6538" stroke-width="1.51"/><path d="M-113,409L-12,505L-17,388Z" fill="#b89677" stroke="#b89677" stroke-width="1.51"/><path d="M-28,590L-123,676L-6,656Z" fill="#948a69" stroke="#948a69" stroke-width="1.51"/><path d="M-113,409L-17,388L-36,338Z" fill="#b6936c" stroke="#b6936c" stroke-width="1.51"/><path d="M-95,508L-95,560L-12,505Z" fill="#a99275" stroke="#a99275" stroke-width="1.51"/><path d="M51,-98L73,-14L174,-47Z" fill="#925811" stroke="#925811" stroke-width="1.51"/><path d="M174,-47L73,-14L169,40Z" fill="#a1651a" stroke="#a1651a" stroke-width="1.51"/><path d="M73,46L-20,128L65,136Z" fill="#a96f23" stroke="#a96f23" stroke-width="1.51"/><path d="M256,-103L156,-120L174,-47Z" fill="#965f1a" stroke="#965f1a" stroke-width="1.51"/><path d="M310,-108L156,-120L256,-103Z" fill="#966423" stroke="#966423" stroke-width="1.51"/><path d="M673,-120L156,-120L310,-108Z" fill="#a27b41" stroke="#a27b41" stroke-width="1.51"/><path d="M-31,61L-20,128L73,46Z" fill="#a0651b" stroke="#a0651b" stroke-width="1.51"/><path d="M-117,301L-113,409L-36,338Z" fill="#af8d65" stroke="#af8d65" stroke-width="1.51"/><path d="M-5,857L-24,906L82,915Z" fill="#686440" stroke="#686440" stroke-width="1.51"/><path d="M-92,817L-5,857L4,752Z" fill="#6f6f4e" stroke="#6f6f4e" stroke-width="1.51"/><path d="M-95,508L-123,676L-95,560Z" fill="#988b6f" stroke="#988b6f" stroke-width="1.51"/><path d="M-117,301L-36,338L-22,216Z" fill="#af8956" stroke="#af8956" stroke-width="1.51"/><path d="M1434,1010L1561,992L1464,904Z" fill="#01564c" stroke="#01564c" stroke-width="1.51"/><path d="M1527,905L1561,992L1533,843Z" fill="#055a50" stroke="#055a50" stroke-width="1.51"/><path d="M1533,843L1561,992L1542,657Z" fill="#186960" stroke="#186960" stroke-width="1.51"/><path d="M1557,397L1561,992L1558,320Z" fill="#669288" stroke="#669288" stroke-width="1.51"/><path d="M-123,676L-99,766L-6,656Z" fill="#818161" stroke="#818161" stroke-width="1.51"/><path d="M-123,676L-28,590L-95,560Z" fill="#968b6c" stroke="#968b6c" stroke-width="1.51"/><path d="M1524,-101L1453,-129L1439,-35Z" fill="#514e2e" stroke="#514e2e" stroke-width="1.51"/><path d="M1387,-106L1453,-129L1262,-111Z" fill="#55573a" stroke="#55573a" stroke-width="1.51"/><path d="M1262,-111L1453,-129L920,-112Z" fill="#686c4e" stroke="#686c4e" stroke-width="1.51"/><path d="M673,-120L-2,-122L156,-120Z" fill="#97692b" stroke="#97692b" stroke-width="1.51"/><path d="M-113,409L-123,676L-95,508Z" fill="#9f8d73" stroke="#9f8d73" stroke-width="1.51"/><path d="M-113,409L-122,249L-123,676Z" fill="#ab8f76" stroke="#ab8f76" stroke-width="1.51"/><path d="M-122,249L-117,301L-22,216Z" fill="#a7824d" stroke="#a7824d" stroke-width="1.51"/><path d="M-97,909L-92,817L-99,766Z" fill="#5f6447" stroke="#5f6447" stroke-width="1.51"/><path d="M-99,766L-92,817L4,752Z" fill="#707252" stroke="#707252" stroke-width="1.51"/><path d="M-111,149L-122,249L-22,216Z" fill="#a27b40" stroke="#a27b40" stroke-width="1.51"/><path d="M-1,-21L-31,61L73,46Z" fill="#965b14" stroke="#965b14" stroke-width="1.51"/><path d="M-1,-21L73,46L73,-14Z" fill="#975b12" stroke="#975b12" stroke-width="1.51"/><path d="M1541,70L1559,-21L1452,46Z" fill="#665d33" stroke="#665d33" stroke-width="1.51"/><path d="M1558,320L1559,-21L1542,229Z" fill="#747850" stroke="#747850" stroke-width="1.51"/><path d="M1561,992L1559,-21L1558,320Z" fill="#7c968c" stroke="#7c968c" stroke-width="1.51"/><path d="M-117,301L-122,249L-113,409Z" fill="#a8885e" stroke="#a8885e" stroke-width="1.51"/><path d="M-111,149L-22,216L-20,128Z" fill="#a27434" stroke="#a27434" stroke-width="1.51"/><path d="M-112,73L-111,149L-20,128Z" fill="#976524" stroke="#976524" stroke-width="1.51"/><path d="M51,-98L-1,-21L73,-14Z" fill="#8b510c" stroke="#8b510c" stroke-width="1.51"/><path d="M156,-120L51,-98L174,-47Z" fill="#8d5713" stroke="#8d5713" stroke-width="1.51"/><path d="M1559,-21L1524,-101L1439,-35Z" fill="#574f2b" stroke="#574f2b" stroke-width="1.51"/><path d="M-97,909L-31,1014L-24,906Z" fill="#555434" stroke="#555434" stroke-width="1.51"/><path d="M-24,906L-31,1014L79,990Z" fill="#5b5531" stroke="#5b5531" stroke-width="1.51"/><path d="M79,990L-31,1014L171,1001Z" fill="#615730" stroke="#615730" stroke-width="1.51"/><path d="M171,1001L-108,1030L492,1033Z" fill="#6c6336" stroke="#6c6336" stroke-width="1.51"/><path d="M-112,73L-20,128L-31,61Z" fill="#97601a" stroke="#97601a" stroke-width="1.51"/><path d="M-92,817L-97,909L-24,906Z" fill="#5c5e3f" stroke="#5c5e3f" stroke-width="1.51"/><path d="M-123,676L-97,909L-99,766Z" fill="#676c50" stroke="#676c50" stroke-width="1.51"/><path d="M-119,-30L-112,73L-31,61Z" fill="#875312" stroke="#875312" stroke-width="1.51"/><path d="M-111,149L-112,73L-122,249Z" fill="#976b2f" stroke="#976b2f" stroke-width="1.51"/><path d="M-119,-30L-31,61L-1,-21Z" fill="#86500e" stroke="#86500e" stroke-width="1.51"/><path d="M51,-98L-2,-122L-1,-21Z" fill="#7f4909" stroke="#7f4909" stroke-width="1.51"/><path d="M156,-120L-2,-122L51,-98Z" fill="#7f4b0d" stroke="#7f4b0d" stroke-width="1.51"/><path d="M1453,-129L-2,-122L673,-120Z" fill="#af9176" stroke="#af9176" stroke-width="1.51"/><path d="M-97,909L-108,1030L-31,1014Z" fill="#4c4a2c" stroke="#4c4a2c" stroke-width="1.51"/><path d="M-31,1014L-108,1030L171,1001Z" fill="#564d29" stroke="#564d29" stroke-width="1.51"/><path d="M-123,676L-108,1030L-97,909Z" fill="#565b3f" stroke="#565b3f" stroke-width="1.51"/><path d="M-81,-100L-119,-30L-1,-21Z" fill="#784509" stroke="#784509" stroke-width="1.51"/><path d="M-112,73L-119,-30L-122,249Z" fill="#8d5c1c" stroke="#8d5c1c" stroke-width="1.51"/><path d="M-2,-122L-81,-100L-1,-21Z" fill="#774508" stroke="#774508" stroke-width="1.51"/></svg>