<svg xmlns="http://www.w3.org/2000/svg" width="1440" height="900"><path d="M751,474L768,559L829,481Z" fill="#fd7b36" stroke="#fd7b36" stroke-width="1.51"/><path d="M768,559L853,595L829,481Z" fill="#fd6e32" stroke="#fd6e32" stroke-width="1.51"/><path d="M751,474L667,514L768,559Z" fill="#fd8037" stroke="#fd8037" stroke-width="1.51"/><path d="M829,481L755,394L751,474Z" fill="#fd8639" stroke="#fd8639" stroke-width="1.51"/><path d="M751,474L686,388L667,514Z" fill="#fd8d3c" stroke="#fd8d3c" stroke-width="1.51"/><path d="M768,559L776,644L853,595Z" fill="#fd652f" stroke="#fd652f" stroke-width="1.51"/><path d="M670,598L776,644L768,559Z" fill="#fd6d32" stroke="#fd6d32" stroke-width="1.51"/><path d="M829,481L871,403L755,394Z" fill="#fd8338" stroke="#fd8338" stroke-width="1.51"/><path d="M932,481L871,403L829,481Z" fill="#fd7835" stroke="#fd7835" stroke-width="1.51"/><path d="M667,514L670,598L768,559Z" fill="#fd7b36" stroke="#fd7b36" stroke-width="1.51"/><path d="M853,595L932,481L829,481Z" fill="#fd6c31" stroke="#fd6c31" stroke-width="1.51"/><path d="M755,394L686,388L751,474Z" fill="#fd903d" stroke="#fd903d" stroke-width="1.51"/><path d="M680,332L686,388L755,394Z" fill="#fe9840" stroke="#fe9840" stroke-width="1.51"/><path d="M776,644L854,662L853,595Z" fill="#fa5c2d" stroke="#fa5c2d" stroke-width="1.51"/><path d="M853,595L953,578L932,481Z" fill="#fd5e2e" stroke="#fd5e2e" stroke-width="1.51"/><path d="M933,684L953,578L853,595Z" fill="#fb502a" stroke="#fb502a" stroke-width="1.51"/><path d="M670,598L675,651L776,644Z" fill="#fb6e32" stroke="#fb6e32" stroke-width="1.51"/><path d="M776,644L851,750L854,662Z" fill="#f6562a" stroke="#f6562a" stroke-width="1.51"/><path d="M932,481L952,422L871,403Z" fill="#fd7534" stroke="#fd7534" stroke-width="1.51"/><path d="M1025,477L952,422L932,481Z" fill="#fb6c31" stroke="#fb6c31" stroke-width="1.51"/><path d="M850,304L766,315L755,394Z" fill="#fe933f" stroke="#fe933f" stroke-width="1.51"/><path d="M850,304L755,394L871,403Z" fill="#fe8a3c" stroke="#fe8a3c" stroke-width="1.51"/><path d="M670,598L597,590L675,651Z" fill="#fd7634" stroke="#fd7634" stroke-width="1.51"/><path d="M667,514L597,590L670,598Z" fill="#fe7e37" stroke="#fe7e37" stroke-width="1.51"/><path d="M574,482L597,590L667,514Z" fill="#fe883b" stroke="#fe883b" stroke-width="1.51"/><path d="M569,421L574,482L667,514Z" fill="#fe933f" stroke="#fe933f" stroke-width="1.51"/><path d="M766,315L680,332L755,394Z" fill="#fe9841" stroke="#fe9841" stroke-width="1.51"/><path d="M569,421L667,514L686,388Z" fill="#fe953f" stroke="#fe953f" stroke-width="1.51"/><path d="M944,337L850,304L871,403Z" fill="#ff843a" stroke="#ff843a" stroke-width="1.51"/><path d="M854,662L933,684L853,595Z" fill="#f9522a" stroke="#f9522a" stroke-width="1.51"/><path d="M851,750L933,684L854,662Z" fill="#f54b27" stroke="#f54b27" stroke-width="1.51"/><path d="M953,578L1025,477L932,481Z" fill="#fb612e" stroke="#fb612e" stroke-width="1.51"/><path d="M933,684L1006,582L953,578Z" fill="#f94a29" stroke="#f94a29" stroke-width="1.51"/><path d="M952,422L944,337L871,403Z" fill="#fe7b37" stroke="#fe7b37" stroke-width="1.51"/><path d="M1042,399L944,337L952,422Z" fill="#fc7634" stroke="#fc7634" stroke-width="1.51"/><path d="M610,314L569,421L686,388Z" fill="#fe9f43" stroke="#fe9f43" stroke-width="1.51"/><path d="M1006,582L1025,477L953,578Z" fill="#f9572b" stroke="#f9572b" stroke-width="1.51"/><path d="M675,651L743,751L776,644Z" fill="#f7652e" stroke="#f7652e" stroke-width="1.51"/><path d="M664,771L743,751L675,651Z" fill="#f4652e" stroke="#f4652e" stroke-width="1.51"/><path d="M743,751L851,750L776,644Z" fill="#f4592a" stroke="#f4592a" stroke-width="1.51"/><path d="M597,590L572,660L675,651Z" fill="#fc7735" stroke="#fc7735" stroke-width="1.51"/><path d="M515,587L572,660L597,590Z" fill="#fd7e38" stroke="#fd7e38" stroke-width="1.51"/><path d="M515,587L597,590L574,482Z" fill="#fe883b" stroke="#fe883b" stroke-width="1.51"/><path d="M680,332L610,314L686,388Z" fill="#fea043" stroke="#fea043" stroke-width="1.51"/><path d="M693,225L610,314L680,332Z" fill="#fea647" stroke="#fea647" stroke-width="1.51"/><path d="M693,225L680,332L766,315Z" fill="#fea145" stroke="#fea145" stroke-width="1.51"/><path d="M850,304L837,249L766,315Z" fill="#fe9541" stroke="#fe9541" stroke-width="1.51"/><path d="M927,213L837,249L850,304Z" fill="#ff9343" stroke="#ff9343" stroke-width="1.51"/><path d="M837,249L776,243L766,315Z" fill="#ff9b45" stroke="#ff9b45" stroke-width="1.51"/><path d="M1025,477L1042,399L952,422Z" fill="#f96d31" stroke="#f96d31" stroke-width="1.51"/><path d="M944,337L927,213L850,304Z" fill="#ff8b3d" stroke="#ff8b3d" stroke-width="1.51"/><path d="M1088,475L1042,399L1025,477Z" fill="#f7672e" stroke="#f7672e" stroke-width="1.51"/><path d="M500,484L515,587L574,482Z" fill="#fe923f" stroke="#fe923f" stroke-width="1.51"/><path d="M582,751L664,771L675,651Z" fill="#f46a2f" stroke="#f46a2f" stroke-width="1.51"/><path d="M743,751L742,823L851,750Z" fill="#ee552a" stroke="#ee552a" stroke-width="1.51"/><path d="M569,421L500,484L574,482Z" fill="#fe9a41" stroke="#fe9a41" stroke-width="1.51"/><path d="M490,414L500,484L569,421Z" fill="#fea044" stroke="#fea044" stroke-width="1.51"/><path d="M933,684L1037,662L1006,582Z" fill="#f54326" stroke="#f54326" stroke-width="1.51"/><path d="M1006,582L1088,475L1025,477Z" fill="#f75b2b" stroke="#f75b2b" stroke-width="1.51"/><path d="M1035,735L1037,662L933,684Z" fill="#f13a23" stroke="#f13a23" stroke-width="1.51"/><path d="M851,750L940,765L933,684Z" fill="#f14125" stroke="#f14125" stroke-width="1.51"/><path d="M916,824L940,765L851,750Z" fill="#ec3e25" stroke="#ec3e25" stroke-width="1.51"/><path d="M762,154L693,225L776,243Z" fill="#ffa950" stroke="#ffa950" stroke-width="1.51"/><path d="M776,243L693,225L766,315Z" fill="#fea248" stroke="#fea248" stroke-width="1.51"/><path d="M1127,579L1088,475L1006,582Z" fill="#f55028" stroke="#f55028" stroke-width="1.51"/><path d="M511,333L490,414L569,421Z" fill="#fea646" stroke="#fea646" stroke-width="1.51"/><path d="M511,333L569,421L610,314Z" fill="#fea647" stroke="#fea647" stroke-width="1.51"/><path d="M664,771L742,823L743,751Z" fill="#ee5e2c" stroke="#ee5e2c" stroke-width="1.51"/><path d="M664,771L688,860L742,823Z" fill="#e95e2f" stroke="#e95e2f" stroke-width="1.51"/><path d="M572,660L582,751L675,651Z" fill="#f87232" stroke="#f87232" stroke-width="1.51"/><path d="M522,756L582,751L572,660Z" fill="#f57332" stroke="#f57332" stroke-width="1.51"/><path d="M742,823L847,831L851,750Z" fill="#ea4d2a" stroke="#ea4d2a" stroke-width="1.51"/><path d="M1042,399L1043,307L944,337Z" fill="#fb7935" stroke="#fb7935" stroke-width="1.51"/><path d="M1124,327L1043,307L1042,399Z" fill="#f77533" stroke="#f77533" stroke-width="1.51"/><path d="M519,248L511,333L610,314Z" fill="#feaf4a" stroke="#feaf4a" stroke-width="1.51"/><path d="M1009,213L927,213L944,337Z" fill="#ff893f" stroke="#ff893f" stroke-width="1.51"/><path d="M837,249L762,154L776,243Z" fill="#ffa24c" stroke="#ffa24c" stroke-width="1.51"/><path d="M693,225L596,237L610,314Z" fill="#feac4c" stroke="#feac4c" stroke-width="1.51"/><path d="M1037,662L1127,579L1006,582Z" fill="#f54125" stroke="#f54125" stroke-width="1.51"/><path d="M940,765L1035,735L933,684Z" fill="#f03923" stroke="#f03923" stroke-width="1.51"/><path d="M1016,835L1035,735L940,765Z" fill="#e82f22" stroke="#e82f22" stroke-width="1.51"/><path d="M847,831L916,824L851,750Z" fill="#ea4327" stroke="#ea4327" stroke-width="1.51"/><path d="M515,587L495,684L572,660Z" fill="#fb7e37" stroke="#fb7e37" stroke-width="1.51"/><path d="M438,565L495,684L515,587Z" fill="#fe863c" stroke="#fe863c" stroke-width="1.51"/><path d="M438,565L515,587L500,484Z" fill="#ff9140" stroke="#ff9140" stroke-width="1.51"/><path d="M1088,475L1110,402L1042,399Z" fill="#f5682f" stroke="#f5682f" stroke-width="1.51"/><path d="M1187,497L1110,402L1088,475Z" fill="#f25f2b" stroke="#f25f2b" stroke-width="1.51"/><path d="M1108,680L1127,579L1037,662Z" fill="#f03923" stroke="#f03923" stroke-width="1.51"/><path d="M397,507L438,565L500,484Z" fill="#ff9a46" stroke="#ff9a46" stroke-width="1.51"/><path d="M430,405L500,484L490,414Z" fill="#fea548" stroke="#fea548" stroke-width="1.51"/><path d="M693,225L668,159L596,237Z" fill="#ffb253" stroke="#ffb253" stroke-width="1.51"/><path d="M861,137L762,154L837,249Z" fill="#ffa44f" stroke="#ffa44f" stroke-width="1.51"/><path d="M585,823L688,860L664,771Z" fill="#e96330" stroke="#e96330" stroke-width="1.51"/><path d="M495,684L522,756L572,660Z" fill="#f77834" stroke="#f77834" stroke-width="1.51"/><path d="M421,758L522,756L495,684Z" fill="#f57936" stroke="#f57936" stroke-width="1.51"/><path d="M742,823L759,928L847,831Z" fill="#e3502d" stroke="#e3502d" stroke-width="1.51"/><path d="M949,924L1016,835L916,824Z" fill="#e02f26" stroke="#e02f26" stroke-width="1.51"/><path d="M585,823L664,771L582,751Z" fill="#ef6930" stroke="#ef6930" stroke-width="1.51"/><path d="M1035,735L1108,680L1037,662Z" fill="#ed3422" stroke="#ed3422" stroke-width="1.51"/><path d="M762,154L668,159L693,225Z" fill="#ffb155" stroke="#ffb155" stroke-width="1.51"/><path d="M1043,307L1009,213L944,337Z" fill="#fc823a" stroke="#fc823a" stroke-width="1.51"/><path d="M927,213L861,137L837,249Z" fill="#ff9a4b" stroke="#ff9a4b" stroke-width="1.51"/><path d="M1122,244L1009,213L1043,307Z" fill="#f9823c" stroke="#f9823c" stroke-width="1.51"/><path d="M522,756L585,823L582,751Z" fill="#f06d32" stroke="#f06d32" stroke-width="1.51"/><path d="M511,333L430,405L490,414Z" fill="#feaa4a" stroke="#feaa4a" stroke-width="1.51"/><path d="M399,315L430,405L511,333Z" fill="#feb14e" stroke="#feb14e" stroke-width="1.51"/><path d="M519,248L610,314L596,237Z" fill="#feb04e" stroke="#feb04e" stroke-width="1.51"/><path d="M489,152L519,248L596,237Z" fill="#ffbb57" stroke="#ffbb57" stroke-width="1.51"/><path d="M952,162L861,137L927,213Z" fill="#ff9a4d" stroke="#ff9a4d" stroke-width="1.51"/><path d="M696,45L600,138L668,159Z" fill="#ffbb60" stroke="#ffbb60" stroke-width="1.51"/><path d="M1176,339L1124,327L1110,402Z" fill="#f36e30" stroke="#f36e30" stroke-width="1.51"/><path d="M1110,402L1124,327L1042,399Z" fill="#f66e31" stroke="#f66e31" stroke-width="1.51"/><path d="M1009,213L952,162L927,213Z" fill="#ff9247" stroke="#ff9247" stroke-width="1.51"/><path d="M430,405L397,507L500,484Z" fill="#ffa349" stroke="#ffa349" stroke-width="1.51"/><path d="M438,565L407,681L495,684Z" fill="#fc863d" stroke="#fc863d" stroke-width="1.51"/><path d="M1035,735L1127,767L1108,680Z" fill="#e92a1f" stroke="#e92a1f" stroke-width="1.51"/><path d="M916,824L1016,835L940,765Z" fill="#e73324" stroke="#e73324" stroke-width="1.51"/><path d="M949,924L916,824L847,831Z" fill="#e23a28" stroke="#e23a28" stroke-width="1.51"/><path d="M1127,579L1187,497L1088,475Z" fill="#f15128" stroke="#f15128" stroke-width="1.51"/><path d="M1192,579L1187,497L1127,579Z" fill="#ef4626" stroke="#ef4626" stroke-width="1.51"/><path d="M1179,652L1192,579L1127,579Z" fill="#ef3723" stroke="#ef3723" stroke-width="1.51"/><path d="M1179,652L1127,579L1108,680Z" fill="#ee3422" stroke="#ee3422" stroke-width="1.51"/><path d="M339,560L407,681L438,565Z" fill="#ff9044" stroke="#ff9044" stroke-width="1.51"/><path d="M522,756L490,854L585,823Z" fill="#eb6e34" stroke="#eb6e34" stroke-width="1.51"/><path d="M1204,739L1179,652L1108,680Z" fill="#e7281f" stroke="#e7281f" stroke-width="1.51"/><path d="M696,45L668,159L762,154Z" fill="#ffb75d" stroke="#ffb75d" stroke-width="1.51"/><path d="M668,159L600,138L596,237Z" fill="#ffb858" stroke="#ffb858" stroke-width="1.51"/><path d="M688,860L759,928L742,823Z" fill="#e2582f" stroke="#e2582f" stroke-width="1.51"/><path d="M673,918L759,928L688,860Z" fill="#de5831" stroke="#de5831" stroke-width="1.51"/><path d="M585,908L688,860L585,823Z" fill="#e46433" stroke="#e46433" stroke-width="1.51"/><path d="M585,908L673,918L688,860Z" fill="#e05f33" stroke="#e05f33" stroke-width="1.51"/><path d="M1209,413L1176,339L1110,402Z" fill="#f1682f" stroke="#f1682f" stroke-width="1.51"/><path d="M1124,327L1122,244L1043,307Z" fill="#f67a35" stroke="#f67a35" stroke-width="1.51"/><path d="M1009,213L1020,134L952,162Z" fill="#fe9249" stroke="#fe9249" stroke-width="1.51"/><path d="M1109,835L1127,767L1035,735Z" fill="#e3231f" stroke="#e3231f" stroke-width="1.51"/><path d="M759,928L828,935L847,831Z" fill="#de492d" stroke="#de492d" stroke-width="1.51"/><path d="M1176,339L1122,244L1124,327Z" fill="#f47533" stroke="#f47533" stroke-width="1.51"/><path d="M1262,393L1209,413L1291,474Z" fill="#e85f2f" stroke="#e85f2f" stroke-width="1.51"/><path d="M1187,497L1209,413L1110,402Z" fill="#f0602c" stroke="#f0602c" stroke-width="1.51"/><path d="M416,234L511,333L519,248Z" fill="#feb852" stroke="#feb852" stroke-width="1.51"/><path d="M416,234L399,315L511,333Z" fill="#ffb853" stroke="#ffb853" stroke-width="1.51"/><path d="M430,405L334,476L397,507Z" fill="#ffa84e" stroke="#ffa84e" stroke-width="1.51"/><path d="M407,681L421,758L495,684Z" fill="#f87f3a" stroke="#f87f3a" stroke-width="1.51"/><path d="M952,162L947,81L861,137Z" fill="#ff9e52" stroke="#ff9e52" stroke-width="1.51"/><path d="M861,137L832,54L762,154Z" fill="#ffaa58" stroke="#ffaa58" stroke-width="1.51"/><path d="M1089,140L1020,134L1009,213Z" fill="#fc9049" stroke="#fc9049" stroke-width="1.51"/><path d="M828,935L949,924L847,831Z" fill="#de3e2b" stroke="#de3e2b" stroke-width="1.51"/><path d="M1016,835L1109,835L1035,735Z" fill="#e22721" stroke="#e22721" stroke-width="1.51"/><path d="M490,854L585,908L585,823Z" fill="#e46a35" stroke="#e46a35" stroke-width="1.51"/><path d="M742,1025L828,935L759,928Z" fill="#d14b2f" stroke="#d14b2f" stroke-width="1.51"/><path d="M397,507L339,560L438,565Z" fill="#ff9a48" stroke="#ff9a48" stroke-width="1.51"/><path d="M320,771L412,824L421,758Z" fill="#f17f3f" stroke="#f17f3f" stroke-width="1.51"/><path d="M334,476L339,560L397,507Z" fill="#ffa34e" stroke="#ffa34e" stroke-width="1.51"/><path d="M421,758L490,854L522,756Z" fill="#ef7536" stroke="#ef7536" stroke-width="1.51"/><path d="M326,409L334,476L430,405Z" fill="#ffaf52" stroke="#ffaf52" stroke-width="1.51"/><path d="M1097,918L1109,835L1016,835Z" fill="#d92023" stroke="#d92023" stroke-width="1.51"/><path d="M1127,767L1204,739L1108,680Z" fill="#e6211d" stroke="#e6211d" stroke-width="1.51"/><path d="M1020,134L947,81L952,162Z" fill="#ff9950" stroke="#ff9950" stroke-width="1.51"/><path d="M947,81L832,54L861,137Z" fill="#ffa459" stroke="#ffa459" stroke-width="1.51"/><path d="M949,924L1009,914L1016,835Z" fill="#db2a26" stroke="#db2a26" stroke-width="1.51"/><path d="M342,338L326,409L430,405Z" fill="#ffb455" stroke="#ffb455" stroke-width="1.51"/><path d="M489,152L416,234L519,248Z" fill="#ffc05b" stroke="#ffc05b" stroke-width="1.51"/><path d="M600,138L489,152L596,237Z" fill="#ffbd5b" stroke="#ffbd5b" stroke-width="1.51"/><path d="M511,81L489,152L600,138Z" fill="#ffc564" stroke="#ffc564" stroke-width="1.51"/><path d="M832,54L773,41L762,154Z" fill="#ffb05e" stroke="#ffb05e" stroke-width="1.51"/><path d="M247,564L323,686L339,560Z" fill="#ff984d" stroke="#ff984d" stroke-width="1.51"/><path d="M342,338L430,405L399,315Z" fill="#ffb654" stroke="#ffb654" stroke-width="1.51"/><path d="M773,41L696,45L762,154Z" fill="#ffb661" stroke="#ffb661" stroke-width="1.51"/><path d="M1197,846L1204,739L1127,767Z" fill="#dd171e" stroke="#dd171e" stroke-width="1.51"/><path d="M1179,652L1266,587L1192,579Z" fill="#e93524" stroke="#e93524" stroke-width="1.51"/><path d="M1192,579L1266,587L1187,497Z" fill="#eb4427" stroke="#eb4427" stroke-width="1.51"/><path d="M339,214L342,338L399,315Z" fill="#ffc15c" stroke="#ffc15c" stroke-width="1.51"/><path d="M1122,244L1089,140L1009,213Z" fill="#fa8943" stroke="#fa8943" stroke-width="1.51"/><path d="M1020,134L1005,74L947,81Z" fill="#ff9953" stroke="#ff9953" stroke-width="1.51"/><path d="M1182,163L1089,140L1122,244Z" fill="#f68742" stroke="#f68742" stroke-width="1.51"/><path d="M1181,225L1122,244L1176,339Z" fill="#f37936" stroke="#f37936" stroke-width="1.51"/><path d="M1268,666L1266,587L1179,652Z" fill="#e53024" stroke="#e53024" stroke-width="1.51"/><path d="M1262,393L1176,339L1209,413Z" fill="#ed6730" stroke="#ed6730" stroke-width="1.51"/><path d="M1288,335L1181,225L1176,339Z" fill="#ee7234" stroke="#ee7234" stroke-width="1.51"/><path d="M947,81L858,-9L832,54Z" fill="#ffa85f" stroke="#ffa85f" stroke-width="1.51"/><path d="M832,54L858,-9L773,41Z" fill="#ffb064" stroke="#ffb064" stroke-width="1.51"/><path d="M1089,140L1005,74L1020,134Z" fill="#fd944f" stroke="#fd944f" stroke-width="1.51"/><path d="M421,758L412,824L490,854Z" fill="#ed773b" stroke="#ed773b" stroke-width="1.51"/><path d="M490,854L513,945L585,908Z" fill="#df6a37" stroke="#df6a37" stroke-width="1.51"/><path d="M323,686L421,758L407,681Z" fill="#f88540" stroke="#f88540" stroke-width="1.51"/><path d="M1291,474L1209,413L1187,497Z" fill="#ea5a2d" stroke="#ea5a2d" stroke-width="1.51"/><path d="M247,564L339,560L334,476Z" fill="#ffa451" stroke="#ffa451" stroke-width="1.51"/><path d="M339,560L323,686L407,681Z" fill="#fe8f46" stroke="#fe8f46" stroke-width="1.51"/><path d="M489,152L428,165L416,234Z" fill="#ffc762" stroke="#ffc762" stroke-width="1.51"/><path d="M416,234L339,214L399,315Z" fill="#ffc35e" stroke="#ffc35e" stroke-width="1.51"/><path d="M400,53L428,165L489,152Z" fill="#ffcd6b" stroke="#ffcd6b" stroke-width="1.51"/><path d="M696,45L572,57L600,138Z" fill="#ffc066" stroke="#ffc066" stroke-width="1.51"/><path d="M1266,587L1291,474L1187,497Z" fill="#e84c2a" stroke="#e84c2a" stroke-width="1.51"/><path d="M1266,587L1349,588L1291,474Z" fill="#e3422a" stroke="#e3422a" stroke-width="1.51"/><path d="M1204,739L1268,666L1179,652Z" fill="#e22621" stroke="#e22621" stroke-width="1.51"/><path d="M828,935L845,1015L949,924Z" fill="#d13b2b" stroke="#d13b2b" stroke-width="1.51"/><path d="M949,924L1041,1004L1009,914Z" fill="#cf2727" stroke="#cf2727" stroke-width="1.51"/><path d="M742,1025L845,1015L828,935Z" fill="#ca462e" stroke="#ca462e" stroke-width="1.51"/><path d="M742,1025L759,928L673,918Z" fill="#d25431" stroke="#d25431" stroke-width="1.51"/><path d="M572,57L511,81L600,138Z" fill="#ffc467" stroke="#ffc467" stroke-width="1.51"/><path d="M1204,739L1262,772L1268,666Z" fill="#dd1d20" stroke="#dd1d20" stroke-width="1.51"/><path d="M1109,835L1197,846L1127,767Z" fill="#db171f" stroke="#db171f" stroke-width="1.51"/><path d="M1009,914L1097,918L1016,835Z" fill="#d82425" stroke="#d82425" stroke-width="1.51"/><path d="M1041,1004L1097,918L1009,914Z" fill="#cd2025" stroke="#cd2025" stroke-width="1.51"/><path d="M670,1023L742,1025L673,918Z" fill="#cb5533" stroke="#cb5533" stroke-width="1.51"/><path d="M427,914L513,945L490,854Z" fill="#e06f3a" stroke="#e06f3a" stroke-width="1.51"/><path d="M670,1023L673,918L585,908Z" fill="#d55c34" stroke="#d55c34" stroke-width="1.51"/><path d="M753,-35L679,-15L696,45Z" fill="#ffbf6e" stroke="#ffbf6e" stroke-width="1.51"/><path d="M696,45L583,-5L572,57Z" fill="#ffc46d" stroke="#ffc46d" stroke-width="1.51"/><path d="M941,-47L858,-9L947,81Z" fill="#ffa563" stroke="#ffa563" stroke-width="1.51"/><path d="M572,1027L670,1023L585,908Z" fill="#cd5d35" stroke="#cd5d35" stroke-width="1.51"/><path d="M1089,140L1123,72L1005,74Z" fill="#fc9451" stroke="#fc9451" stroke-width="1.51"/><path d="M1005,74L941,-47L947,81Z" fill="#ffa05d" stroke="#ffa05d" stroke-width="1.51"/><path d="M1181,225L1182,163L1122,244Z" fill="#f4813f" stroke="#f4813f" stroke-width="1.51"/><path d="M1266,130L1182,163L1181,225Z" fill="#f08444" stroke="#f08444" stroke-width="1.51"/><path d="M1288,335L1176,339L1262,393Z" fill="#ea6932" stroke="#ea6932" stroke-width="1.51"/><path d="M1097,918L1197,846L1109,835Z" fill="#d51521" stroke="#d51521" stroke-width="1.51"/><path d="M1358,403L1288,335L1262,393Z" fill="#e46433" stroke="#e46433" stroke-width="1.51"/><path d="M412,824L427,914L490,854Z" fill="#e6743c" stroke="#e6743c" stroke-width="1.51"/><path d="M323,686L320,771L421,758Z" fill="#f78541" stroke="#f78541" stroke-width="1.51"/><path d="M233,741L320,771L323,686Z" fill="#f78c47" stroke="#f78c47" stroke-width="1.51"/><path d="M326,409L261,410L334,476Z" fill="#ffb558" stroke="#ffb558" stroke-width="1.51"/><path d="M342,338L261,410L326,409Z" fill="#ffb95a" stroke="#ffb95a" stroke-width="1.51"/><path d="M240,310L261,410L342,338Z" fill="#ffc05f" stroke="#ffc05f" stroke-width="1.51"/><path d="M753,-35L696,45L773,41Z" fill="#ffba6a" stroke="#ffba6a" stroke-width="1.51"/><path d="M572,57L486,-39L511,81Z" fill="#ffcc71" stroke="#ffcc71" stroke-width="1.51"/><path d="M428,165L339,214L416,234Z" fill="#ffc864" stroke="#ffc864" stroke-width="1.51"/><path d="M345,128L339,214L428,165Z" fill="#ffcf6b" stroke="#ffcf6b" stroke-width="1.51"/><path d="M513,945L572,1027L585,908Z" fill="#d36437" stroke="#d36437" stroke-width="1.51"/><path d="M333,846L427,914L412,824Z" fill="#e77a41" stroke="#e77a41" stroke-width="1.51"/><path d="M845,1015L931,1032L949,924Z" fill="#ca332a" stroke="#ca332a" stroke-width="1.51"/><path d="M742,1025L931,1032L845,1015Z" fill="#c33e2d" stroke="#c33e2d" stroke-width="1.51"/><path d="M492,1033L931,1032L742,1025Z" fill="#c35032" stroke="#c35032" stroke-width="1.51"/><path d="M1197,846L1262,772L1204,739Z" fill="#d91420" stroke="#d91420" stroke-width="1.51"/><path d="M1268,666L1349,588L1266,587Z" fill="#e23126" stroke="#e23126" stroke-width="1.51"/><path d="M233,497L247,564L334,476Z" fill="#ffaa56" stroke="#ffaa56" stroke-width="1.51"/><path d="M858,-9L753,-35L773,41Z" fill="#ffb569" stroke="#ffb569" stroke-width="1.51"/><path d="M1182,163L1123,72L1089,140Z" fill="#f88d4a" stroke="#f88d4a" stroke-width="1.51"/><path d="M261,410L233,497L334,476Z" fill="#ffb259" stroke="#ffb259" stroke-width="1.51"/><path d="M931,1032L1041,1004L949,924Z" fill="#c92928" stroke="#c92928" stroke-width="1.51"/><path d="M1186,937L1260,841L1197,846Z" fill="#ce0d22" stroke="#ce0d22" stroke-width="1.51"/><path d="M679,-15L583,-5L696,45Z" fill="#ffc26f" stroke="#ffc26f" stroke-width="1.51"/><path d="M400,53L345,128L428,165Z" fill="#ffd271" stroke="#ffd271" stroke-width="1.51"/><path d="M611,-108L583,-5L679,-15Z" fill="#ffc877" stroke="#ffc877" stroke-width="1.51"/><path d="M670,1023L572,1027L742,1025Z" fill="#c55634" stroke="#c55634" stroke-width="1.51"/><path d="M492,1033L572,1027L513,945Z" fill="#ca6438" stroke="#ca6438" stroke-width="1.51"/><path d="M320,771L333,846L412,824Z" fill="#ed8043" stroke="#ed8043" stroke-width="1.51"/><path d="M437,1008L492,1033L513,945Z" fill="#cc683b" stroke="#cc683b" stroke-width="1.51"/><path d="M261,826L333,846L320,771Z" fill="#ee8547" stroke="#ee8547" stroke-width="1.51"/><path d="M1386,651L1349,588L1268,666Z" fill="#dc2c26" stroke="#dc2c26" stroke-width="1.51"/><path d="M1291,474L1358,403L1262,393Z" fill="#e45e31" stroke="#e45e31" stroke-width="1.51"/><path d="M1349,588L1360,471L1291,474Z" fill="#e04b2d" stroke="#e04b2d" stroke-width="1.51"/><path d="M1370,745L1386,651L1268,666Z" fill="#d82124" stroke="#d82124" stroke-width="1.51"/><path d="M1197,846L1260,841L1262,772Z" fill="#d21121" stroke="#d21121" stroke-width="1.51"/><path d="M1186,937L1197,846L1097,918Z" fill="#d00e22" stroke="#d00e22" stroke-width="1.51"/><path d="M1288,335L1297,240L1181,225Z" fill="#ea7539" stroke="#ea7539" stroke-width="1.51"/><path d="M1182,163L1208,82L1123,72Z" fill="#f68c4d" stroke="#f68c4d" stroke-width="1.51"/><path d="M1382,317L1297,240L1288,335Z" fill="#e46e37" stroke="#e46e37" stroke-width="1.51"/><path d="M1039,-38L941,-47L1005,74Z" fill="#ffa061" stroke="#ffa061" stroke-width="1.51"/><path d="M858,-9L779,-101L753,-35Z" fill="#ffb770" stroke="#ffb770" stroke-width="1.51"/><path d="M1360,471L1358,403L1291,474Z" fill="#e15830" stroke="#e15830" stroke-width="1.51"/><path d="M339,214L240,310L342,338Z" fill="#fec661" stroke="#fec661" stroke-width="1.51"/><path d="M261,410L164,421L233,497Z" fill="#ffb860" stroke="#ffb860" stroke-width="1.51"/><path d="M177,599L231,686L247,564Z" fill="#ff9b55" stroke="#ff9b55" stroke-width="1.51"/><path d="M247,564L231,686L323,686Z" fill="#ff964e" stroke="#ff964e" stroke-width="1.51"/><path d="M1109,1013L1186,937L1097,918Z" fill="#c61323" stroke="#c61323" stroke-width="1.51"/><path d="M339,214L233,252L240,310Z" fill="#fecc68" stroke="#fecc68" stroke-width="1.51"/><path d="M400,53L489,152L511,81Z" fill="#ffcd6c" stroke="#ffcd6c" stroke-width="1.51"/><path d="M1041,1004L1109,1013L1097,918Z" fill="#c41a24" stroke="#c41a24" stroke-width="1.51"/><path d="M931,1032L1109,1013L1041,1004Z" fill="#bf2127" stroke="#bf2127" stroke-width="1.51"/><path d="M437,1008L513,945L427,914Z" fill="#d56d3d" stroke="#d56d3d" stroke-width="1.51"/><path d="M572,1027L492,1033L742,1025Z" fill="#c45b36" stroke="#c45b36" stroke-width="1.51"/><path d="M486,-39L400,53L511,81Z" fill="#ffd175" stroke="#ffd175" stroke-width="1.51"/><path d="M352,937L437,1008L427,914Z" fill="#d67341" stroke="#d67341" stroke-width="1.51"/><path d="M231,686L233,741L323,686Z" fill="#fa904b" stroke="#fa904b" stroke-width="1.51"/><path d="M1108,-4L1039,-38L1005,74Z" fill="#ff9b5d" stroke="#ff9b5d" stroke-width="1.51"/><path d="M1266,130L1208,82L1182,163Z" fill="#f0894b" stroke="#f0894b" stroke-width="1.51"/><path d="M1108,-4L1005,74L1123,72Z" fill="#fd9657" stroke="#fd9657" stroke-width="1.51"/><path d="M1204,-27L1108,-4L1123,72Z" fill="#fa9458" stroke="#fa9458" stroke-width="1.51"/><path d="M352,937L427,914L333,846Z" fill="#e27944" stroke="#e27944" stroke-width="1.51"/><path d="M244,927L352,937L333,846Z" fill="#e27f4a" stroke="#e27f4a" stroke-width="1.51"/><path d="M258,128L233,252L339,214Z" fill="#ffd370" stroke="#ffd370" stroke-width="1.51"/><path d="M143,485L177,599L233,497Z" fill="#ffac5e" stroke="#ffac5e" stroke-width="1.51"/><path d="M233,497L177,599L247,564Z" fill="#ffa559" stroke="#ffa559" stroke-width="1.51"/><path d="M258,128L339,214L345,128Z" fill="#fed672" stroke="#fed672" stroke-width="1.51"/><path d="M1208,82L1204,-27L1123,72Z" fill="#f69055" stroke="#f69055" stroke-width="1.51"/><path d="M1297,240L1266,130L1181,225Z" fill="#ed7f42" stroke="#ed7f42" stroke-width="1.51"/><path d="M1351,165L1266,130L1297,240Z" fill="#e78047" stroke="#e78047" stroke-width="1.51"/><path d="M753,-35L673,-120L679,-15Z" fill="#ffc276" stroke="#ffc276" stroke-width="1.51"/><path d="M583,-5L486,-39L572,57Z" fill="#ffcc74" stroke="#ffcc74" stroke-width="1.51"/><path d="M838,-107L779,-101L858,-9Z" fill="#ffb572" stroke="#ffb572" stroke-width="1.51"/><path d="M838,-107L858,-9L920,-112Z" fill="#ffb071" stroke="#ffb071" stroke-width="1.51"/><path d="M233,741L261,826L320,771Z" fill="#f38949" stroke="#f38949" stroke-width="1.51"/><path d="M1451,474L1446,423L1360,471Z" fill="#d65431" stroke="#d65431" stroke-width="1.51"/><path d="M1446,423L1382,317L1358,403Z" fill="#da6034" stroke="#da6034" stroke-width="1.51"/><path d="M1370,745L1268,666L1262,772Z" fill="#d81a21" stroke="#d81a21" stroke-width="1.51"/><path d="M164,421L261,410L240,310Z" fill="#ffbf63" stroke="#ffbf63" stroke-width="1.51"/><path d="M231,686L146,747L233,741Z" fill="#fa9150" stroke="#fa9150" stroke-width="1.51"/><path d="M233,741L158,843L261,826Z" fill="#f18b4f" stroke="#f18b4f" stroke-width="1.51"/><path d="M920,-112L858,-9L941,-47Z" fill="#ffab6c" stroke="#ffab6c" stroke-width="1.51"/><path d="M1358,403L1382,317L1288,335Z" fill="#e16635" stroke="#e16635" stroke-width="1.51"/><path d="M1446,423L1358,403L1360,471Z" fill="#db5932" stroke="#db5932" stroke-width="1.51"/><path d="M1366,821L1370,745L1262,772Z" fill="#cf0e22" stroke="#cf0e22" stroke-width="1.51"/><path d="M1186,937L1289,930L1260,841Z" fill="#c80824" stroke="#c80824" stroke-width="1.51"/><path d="M1109,1013L1191,990L1186,937Z" fill="#bf0c23" stroke="#bf0c23" stroke-width="1.51"/><path d="M515,-94L486,-39L583,-5Z" fill="#ffd07b" stroke="#ffd07b" stroke-width="1.51"/><path d="M1366,821L1262,772L1260,841Z" fill="#cf0d22" stroke="#cf0d22" stroke-width="1.51"/><path d="M147,328L164,421L240,310Z" fill="#ffc468" stroke="#ffc468" stroke-width="1.51"/><path d="M1009,-92L941,-47L1039,-38Z" fill="#ffa369" stroke="#ffa369" stroke-width="1.51"/><path d="M1009,-92L920,-112L941,-47Z" fill="#ffa76e" stroke="#ffa76e" stroke-width="1.51"/><path d="M920,-112L673,-120L838,-107Z" fill="#ffb979" stroke="#ffb979" stroke-width="1.51"/><path d="M838,-107L673,-120L779,-101Z" fill="#ffbf7b" stroke="#ffbf7b" stroke-width="1.51"/><path d="M779,-101L673,-120L753,-35Z" fill="#ffc179" stroke="#ffc179" stroke-width="1.51"/><path d="M1094,-98L1009,-92L1039,-38Z" fill="#ffa069" stroke="#ffa069" stroke-width="1.51"/><path d="M1094,-98L1039,-38L1108,-4Z" fill="#fe9c64" stroke="#fe9c64" stroke-width="1.51"/><path d="M177,599L163,665L231,686Z" fill="#ff9955" stroke="#ff9955" stroke-width="1.51"/><path d="M79,559L163,665L177,599Z" fill="#ffa05c" stroke="#ffa05c" stroke-width="1.51"/><path d="M673,-120L611,-108L679,-15Z" fill="#ffc87c" stroke="#ffc87c" stroke-width="1.51"/><path d="M412,-29L346,41L400,53Z" fill="#ffd87e" stroke="#ffd87e" stroke-width="1.51"/><path d="M400,53L346,41L345,128Z" fill="#ffd779" stroke="#ffd779" stroke-width="1.51"/><path d="M164,421L143,485L233,497Z" fill="#ffb662" stroke="#ffb662" stroke-width="1.51"/><path d="M1266,130L1264,71L1208,82Z" fill="#ef8a50" stroke="#ef8a50" stroke-width="1.51"/><path d="M1352,67L1264,71L1266,130Z" fill="#ea8851" stroke="#ea8851" stroke-width="1.51"/><path d="M176,236L147,328L240,310Z" fill="#ffcb6c" stroke="#ffcb6c" stroke-width="1.51"/><path d="M76,398L70,476L143,485Z" fill="#ffbc6b" stroke="#ffbc6b" stroke-width="1.51"/><path d="M346,41L258,128L345,128Z" fill="#ffd97b" stroke="#ffd97b" stroke-width="1.51"/><path d="M1191,990L1289,930L1186,937Z" fill="#c00924" stroke="#c00924" stroke-width="1.51"/><path d="M352,937L347,996L437,1008Z" fill="#d17344" stroke="#d17344" stroke-width="1.51"/><path d="M437,1008L347,996L492,1033Z" fill="#c96d40" stroke="#c96d40" stroke-width="1.51"/><path d="M244,927L347,996L352,937Z" fill="#d77b49" stroke="#d77b49" stroke-width="1.51"/><path d="M244,927L333,846L261,826Z" fill="#e7844b" stroke="#e7844b" stroke-width="1.51"/><path d="M1370,745L1449,647L1386,651Z" fill="#d12125" stroke="#d12125" stroke-width="1.51"/><path d="M1289,930L1366,821L1260,841Z" fill="#c70724" stroke="#c70724" stroke-width="1.51"/><path d="M346,41L242,42L258,128Z" fill="#ffde82" stroke="#ffde82" stroke-width="1.51"/><path d="M486,-39L412,-29L400,53Z" fill="#ffd67d" stroke="#ffd67d" stroke-width="1.51"/><path d="M428,-97L412,-29L486,-39Z" fill="#ffd884" stroke="#ffd884" stroke-width="1.51"/><path d="M1380,217L1351,165L1297,240Z" fill="#e47a43" stroke="#e47a43" stroke-width="1.51"/><path d="M1382,317L1380,217L1297,240Z" fill="#e2733d" stroke="#e2733d" stroke-width="1.51"/><path d="M428,-97L515,-94L611,-108Z" fill="#ffd484" stroke="#ffd484" stroke-width="1.51"/><path d="M611,-108L515,-94L583,-5Z" fill="#ffce7d" stroke="#ffce7d" stroke-width="1.51"/><path d="M1382,317L1448,228L1380,217Z" fill="#db713e" stroke="#db713e" stroke-width="1.51"/><path d="M1451,474L1360,471L1349,588Z" fill="#db492d" stroke="#db492d" stroke-width="1.51"/><path d="M1451,474L1349,588L1458,601Z" fill="#d53d2b" stroke="#d53d2b" stroke-width="1.51"/><path d="M1458,601L1349,588L1386,651Z" fill="#d72e28" stroke="#d72e28" stroke-width="1.51"/><path d="M176,236L240,310L233,252Z" fill="#ffce6d" stroke="#ffce6d" stroke-width="1.51"/><path d="M164,168L176,236L233,252Z" fill="#ffd476" stroke="#ffd476" stroke-width="1.51"/><path d="M1467,770L1449,647L1370,745Z" fill="#ca1723" stroke="#ca1723" stroke-width="1.51"/><path d="M1449,647L1458,601L1386,651Z" fill="#d02927" stroke="#d02927" stroke-width="1.51"/><path d="M1290,-19L1204,-27L1264,71Z" fill="#f08f5b" stroke="#f08f5b" stroke-width="1.51"/><path d="M1264,71L1204,-27L1208,82Z" fill="#f28e56" stroke="#f28e56" stroke-width="1.51"/><path d="M1009,-92L1094,-98L920,-112Z" fill="#ffa56e" stroke="#ffa56e" stroke-width="1.51"/><path d="M1204,-27L1094,-98L1108,-4Z" fill="#fb9861" stroke="#fb9861" stroke-width="1.51"/><path d="M163,665L146,747L231,686Z" fill="#fc9554" stroke="#fc9554" stroke-width="1.51"/><path d="M55,681L146,747L163,665Z" fill="#fd9759" stroke="#fd9759" stroke-width="1.51"/><path d="M158,843L244,927L261,826Z" fill="#e98750" stroke="#e98750" stroke-width="1.51"/><path d="M1446,423L1459,318L1382,317Z" fill="#d56236" stroke="#d56236" stroke-width="1.51"/><path d="M1466,147L1352,67L1351,165Z" fill="#df824e" stroke="#df824e" stroke-width="1.51"/><path d="M1557,397L1459,318L1446,423Z" fill="#cd5c35" stroke="#cd5c35" stroke-width="1.51"/><path d="M1531,493L1446,423L1451,474Z" fill="#cd5031" stroke="#cd5031" stroke-width="1.51"/><path d="M428,-97L333,-26L412,-29Z" fill="#ffdc88" stroke="#ffdc88" stroke-width="1.51"/><path d="M412,-29L333,-26L346,41Z" fill="#ffdc84" stroke="#ffdc84" stroke-width="1.51"/><path d="M258,128L164,168L233,252Z" fill="#ffd778" stroke="#ffd778" stroke-width="1.51"/><path d="M515,-94L428,-97L486,-39Z" fill="#ffd683" stroke="#ffd683" stroke-width="1.51"/><path d="M673,-120L428,-97L611,-108Z" fill="#ffd083" stroke="#ffd083" stroke-width="1.51"/><path d="M143,485L79,559L177,599Z" fill="#ffaa61" stroke="#ffaa61" stroke-width="1.51"/><path d="M70,476L79,559L143,485Z" fill="#ffb367" stroke="#ffb367" stroke-width="1.51"/><path d="M169,40L164,168L258,128Z" fill="#ffdf84" stroke="#ffdf84" stroke-width="1.51"/><path d="M78,220L55,321L147,328Z" fill="#ffd076" stroke="#ffd076" stroke-width="1.51"/><path d="M76,398L143,485L164,421Z" fill="#ffbd69" stroke="#ffbd69" stroke-width="1.51"/><path d="M146,747L158,843L233,741Z" fill="#f58e51" stroke="#f58e51" stroke-width="1.51"/><path d="M68,768L158,843L146,747Z" fill="#f49057" stroke="#f49057" stroke-width="1.51"/><path d="M76,398L164,421L147,328Z" fill="#ffc36c" stroke="#ffc36c" stroke-width="1.51"/><path d="M1204,-27L1204,-92L1094,-98Z" fill="#f99765" stroke="#f99765" stroke-width="1.51"/><path d="M1351,165L1352,67L1266,130Z" fill="#e7854e" stroke="#e7854e" stroke-width="1.51"/><path d="M1466,147L1351,165L1380,217Z" fill="#dd7c48" stroke="#dd7c48" stroke-width="1.51"/><path d="M169,40L242,42L174,-47Z" fill="#ffe692" stroke="#ffe692" stroke-width="1.51"/><path d="M333,-26L242,42L346,41Z" fill="#ffe086" stroke="#ffe086" stroke-width="1.51"/><path d="M1459,318L1448,228L1382,317Z" fill="#d66b3a" stroke="#d66b3a" stroke-width="1.51"/><path d="M55,321L76,398L147,328Z" fill="#ffc972" stroke="#ffc972" stroke-width="1.51"/><path d="M1289,930L1387,942L1366,821Z" fill="#bf0126" stroke="#bf0126" stroke-width="1.51"/><path d="M1366,821L1467,770L1370,745Z" fill="#c70b23" stroke="#c70b23" stroke-width="1.51"/><path d="M1191,990L1295,1026L1289,930Z" fill="#b60624" stroke="#b60624" stroke-width="1.51"/><path d="M1109,1013L1295,1026L1191,990Z" fill="#b60924" stroke="#b60924" stroke-width="1.51"/><path d="M931,1032L1295,1026L1109,1013Z" fill="#b91424" stroke="#b91424" stroke-width="1.51"/><path d="M1458,601L1531,493L1451,474Z" fill="#cc422d" stroke="#cc422d" stroke-width="1.51"/><path d="M1541,589L1531,493L1458,601Z" fill="#c7382c" stroke="#c7382c" stroke-width="1.51"/><path d="M1458,826L1467,770L1366,821Z" fill="#c00823" stroke="#c00823" stroke-width="1.51"/><path d="M1352,67L1290,-19L1264,71Z" fill="#eb8b58" stroke="#eb8b58" stroke-width="1.51"/><path d="M1094,-98L1262,-111L920,-112Z" fill="#ff9f6c" stroke="#ff9f6c" stroke-width="1.51"/><path d="M1262,-111L1204,-92L1204,-27Z" fill="#f49666" stroke="#f49666" stroke-width="1.51"/><path d="M1379,993L1387,942L1289,930Z" fill="#b40126" stroke="#b40126" stroke-width="1.51"/><path d="M1464,904L1458,826L1366,821Z" fill="#ba0425" stroke="#ba0425" stroke-width="1.51"/><path d="M1458,601L1449,647L1542,657Z" fill="#c82828" stroke="#c82828" stroke-width="1.51"/><path d="M1541,589L1458,601L1542,657Z" fill="#c52a29" stroke="#c52a29" stroke-width="1.51"/><path d="M1522,154L1466,147L1448,228Z" fill="#d07848" stroke="#d07848" stroke-width="1.51"/><path d="M165,935L226,1001L244,927Z" fill="#d88152" stroke="#d88152" stroke-width="1.51"/><path d="M244,927L226,1001L347,996Z" fill="#d37d4d" stroke="#d37d4d" stroke-width="1.51"/><path d="M347,996L226,1001L492,1033Z" fill="#cb7346" stroke="#cb7346" stroke-width="1.51"/><path d="M79,559L55,681L163,665Z" fill="#ff9f5f" stroke="#ff9f5f" stroke-width="1.51"/><path d="M158,843L165,935L244,927Z" fill="#e48654" stroke="#e48654" stroke-width="1.51"/><path d="M-6,656L55,681L79,559Z" fill="#ffa264" stroke="#ffa264" stroke-width="1.51"/><path d="M82,915L165,935L158,843Z" fill="#e58959" stroke="#e58959" stroke-width="1.51"/><path d="M70,476L-12,505L79,559Z" fill="#ffb46c" stroke="#ffb46c" stroke-width="1.51"/><path d="M-17,388L-12,505L70,476Z" fill="#ffbf73" stroke="#ffbf73" stroke-width="1.51"/><path d="M78,220L147,328L176,236Z" fill="#ffd176" stroke="#ffd176" stroke-width="1.51"/><path d="M78,220L176,236L164,168Z" fill="#ffd87c" stroke="#ffd87c" stroke-width="1.51"/><path d="M1542,657L1449,647L1530,742Z" fill="#c11e25" stroke="#c11e25" stroke-width="1.51"/><path d="M1387,942L1464,904L1366,821Z" fill="#b90126" stroke="#b90126" stroke-width="1.51"/><path d="M1295,1026L1379,993L1289,930Z" fill="#b10325" stroke="#b10325" stroke-width="1.51"/><path d="M55,681L68,768L146,747Z" fill="#fb955b" stroke="#fb955b" stroke-width="1.51"/><path d="M65,136L78,220L164,168Z" fill="#ffde85" stroke="#ffde85" stroke-width="1.51"/><path d="M1530,742L1449,647L1467,770Z" fill="#c11624" stroke="#c11624" stroke-width="1.51"/><path d="M1530,742L1467,770L1533,843Z" fill="#b70923" stroke="#b70923" stroke-width="1.51"/><path d="M1542,229L1448,228L1459,318Z" fill="#cf6d3e" stroke="#cf6d3e" stroke-width="1.51"/><path d="M1448,228L1466,147L1380,217Z" fill="#d87745" stroke="#d87745" stroke-width="1.51"/><path d="M1355,-40L1262,-111L1290,-19Z" fill="#ec9165" stroke="#ec9165" stroke-width="1.51"/><path d="M242,42L169,40L258,128Z" fill="#ffe188" stroke="#ffe188" stroke-width="1.51"/><path d="M244,-47L242,42L333,-26Z" fill="#ffe48e" stroke="#ffe48e" stroke-width="1.51"/><path d="M1533,843L1467,770L1458,826Z" fill="#b70724" stroke="#b70724" stroke-width="1.51"/><path d="M1542,657L1557,397L1541,589Z" fill="#c23a2d" stroke="#c23a2d" stroke-width="1.51"/><path d="M1541,589L1557,397L1531,493Z" fill="#c34730" stroke="#c34730" stroke-width="1.51"/><path d="M1531,493L1557,397L1446,423Z" fill="#c85332" stroke="#c85332" stroke-width="1.51"/><path d="M310,-108L244,-47L333,-26Z" fill="#ffe693" stroke="#ffe693" stroke-width="1.51"/><path d="M428,-97L310,-108L333,-26Z" fill="#ffe18f" stroke="#ffe18f" stroke-width="1.51"/><path d="M673,-120L310,-108L428,-97Z" fill="#ffd889" stroke="#ffd889" stroke-width="1.51"/><path d="M1290,-19L1262,-111L1204,-27Z" fill="#f19363" stroke="#f19363" stroke-width="1.51"/><path d="M1204,-92L1262,-111L1094,-98Z" fill="#f89869" stroke="#f89869" stroke-width="1.51"/><path d="M920,-112L1453,-129L673,-120Z" fill="#ffa571" stroke="#ffa571" stroke-width="1.51"/><path d="M1355,-40L1290,-19L1352,67Z" fill="#e88c5d" stroke="#e88c5d" stroke-width="1.51"/><path d="M1434,1010L1464,904L1387,942Z" fill="#aa0026" stroke="#aa0026" stroke-width="1.51"/><path d="M79,990L171,1001L165,935Z" fill="#d48359" stroke="#d48359" stroke-width="1.51"/><path d="M165,935L171,1001L226,1001Z" fill="#d38055" stroke="#d38055" stroke-width="1.51"/><path d="M226,1001L171,1001L492,1033Z" fill="#ca794b" stroke="#ca794b" stroke-width="1.51"/><path d="M1452,46L1355,-40L1352,67Z" fill="#e2885b" stroke="#e2885b" stroke-width="1.51"/><path d="M1557,397L1558,320L1459,318Z" fill="#c75f37" stroke="#c75f37" stroke-width="1.51"/><path d="M-17,388L70,476L76,398Z" fill="#ffc272" stroke="#ffc272" stroke-width="1.51"/><path d="M4,752L57,844L68,768Z" fill="#f5935f" stroke="#f5935f" stroke-width="1.51"/><path d="M-17,388L76,398L55,321Z" fill="#ffc976" stroke="#ffc976" stroke-width="1.51"/><path d="M68,768L57,844L158,843Z" fill="#f08f5b" stroke="#f08f5b" stroke-width="1.51"/><path d="M4,752L68,768L55,681Z" fill="#fb975f" stroke="#fb975f" stroke-width="1.51"/><path d="M1558,320L1542,229L1459,318Z" fill="#c9673b" stroke="#c9673b" stroke-width="1.51"/><path d="M1466,147L1452,46L1352,67Z" fill="#db8253" stroke="#db8253" stroke-width="1.51"/><path d="M-28,590L-6,656L79,559Z" fill="#ffa769" stroke="#ffa769" stroke-width="1.51"/><path d="M1541,70L1452,46L1466,147Z" fill="#d17f53" stroke="#d17f53" stroke-width="1.51"/><path d="M310,-108L256,-103L244,-47Z" fill="#ffe999" stroke="#ffe999" stroke-width="1.51"/><path d="M244,-47L174,-47L242,42Z" fill="#ffe794" stroke="#ffe794" stroke-width="1.51"/><path d="M57,844L82,915L158,843Z" fill="#ea8c5c" stroke="#ea8c5c" stroke-width="1.51"/><path d="M-12,505L-28,590L79,559Z" fill="#ffaf6d" stroke="#ffaf6d" stroke-width="1.51"/><path d="M-36,338L-17,388L55,321Z" fill="#ffcd7b" stroke="#ffcd7b" stroke-width="1.51"/><path d="M-36,338L55,321L-22,216Z" fill="#ffd37f" stroke="#ffd37f" stroke-width="1.51"/><path d="M169,40L65,136L164,168Z" fill="#ffe28a" stroke="#ffe28a" stroke-width="1.51"/><path d="M73,46L65,136L169,40Z" fill="#ffe693" stroke="#ffe693" stroke-width="1.51"/><path d="M1542,657L1561,992L1557,397Z" fill="#ba1d26" stroke="#ba1d26" stroke-width="1.51"/><path d="M1530,742L1533,843L1542,657Z" fill="#b80e23" stroke="#b80e23" stroke-width="1.51"/><path d="M1464,904L1533,843L1458,826Z" fill="#b20325" stroke="#b20325" stroke-width="1.51"/><path d="M1527,905L1533,843L1464,904Z" fill="#ab0126" stroke="#ab0126" stroke-width="1.51"/><path d="M1379,993L1434,1010L1387,942Z" fill="#a80026" stroke="#a80026" stroke-width="1.51"/><path d="M1295,1026L1434,1010L1379,993Z" fill="#a70026" stroke="#a70026" stroke-width="1.51"/><path d="M1542,229L1522,154L1448,228Z" fill="#cd7345" stroke="#cd7345" stroke-width="1.51"/><path d="M-95,560L-28,590L-12,505Z" fill="#ffb173" stroke="#ffb173" stroke-width="1.51"/><path d="M-24,906L79,990L82,915Z" fill="#de8a61" stroke="#de8a61" stroke-width="1.51"/><path d="M-6,656L4,752L55,681Z" fill="#fe9c63" stroke="#fe9c63" stroke-width="1.51"/><path d="M-99,766L4,752L-6,656Z" fill="#fd9c67" stroke="#fd9c67" stroke-width="1.51"/><path d="M256,-103L174,-47L244,-47Z" fill="#ffe99a" stroke="#ffe99a" stroke-width="1.51"/><path d="M1561,992L1527,905L1464,904Z" fill="#a10026" stroke="#a10026" stroke-width="1.51"/><path d="M-113,409L-95,508L-12,505Z" fill="#ffc07b" stroke="#ffc07b" stroke-width="1.51"/><path d="M-22,216L55,321L78,220Z" fill="#ffd780" stroke="#ffd780" stroke-width="1.51"/><path d="M1452,46L1439,-35L1355,-40Z" fill="#de8960" stroke="#de8960" stroke-width="1.51"/><path d="M1355,-40L1387,-106L1262,-111Z" fill="#ea926a" stroke="#ea926a" stroke-width="1.51"/><path d="M1559,-21L1439,-35L1452,46Z" fill="#d3855f" stroke="#d3855f" stroke-width="1.51"/><path d="M65,136L-22,216L78,220Z" fill="#ffdf88" stroke="#ffdf88" stroke-width="1.51"/><path d="M73,-14L73,46L169,40Z" fill="#ffe999" stroke="#ffe999" stroke-width="1.51"/><path d="M-5,857L82,915L57,844Z" fill="#ea8e61" stroke="#ea8e61" stroke-width="1.51"/><path d="M82,915L79,990L165,935Z" fill="#db875c" stroke="#db875c" stroke-width="1.51"/><path d="M1439,-35L1387,-106L1355,-40Z" fill="#e28d67" stroke="#e28d67" stroke-width="1.51"/><path d="M-20,128L-22,216L65,136Z" fill="#ffe490" stroke="#ffe490" stroke-width="1.51"/><path d="M4,752L-5,857L57,844Z" fill="#f19262" stroke="#f19262" stroke-width="1.51"/><path d="M-24,906L-5,857L-92,817Z" fill="#ed9269" stroke="#ed9269" stroke-width="1.51"/><path d="M1439,-35L1453,-129L1387,-106Z" fill="#dd8d6a" stroke="#dd8d6a" stroke-width="1.51"/><path d="M1522,154L1541,70L1466,147Z" fill="#cd7c4f" stroke="#cd7c4f" stroke-width="1.51"/><path d="M1542,229L1541,70L1522,154Z" fill="#c9784c" stroke="#c9784c" stroke-width="1.51"/><path d="M1559,-21L1541,70L1542,229Z" fill="#c77c53" stroke="#c77c53" stroke-width="1.51"/><path d="M-113,409L-12,505L-17,388Z" fill="#ffc57b" stroke="#ffc57b" stroke-width="1.51"/><path d="M-28,590L-123,676L-6,656Z" fill="#ffa56d" stroke="#ffa56d" stroke-width="1.51"/><path d="M-113,409L-17,388L-36,338Z" fill="#ffcc7f" stroke="#ffcc7f" stroke-width="1.51"/><path d="M-95,508L-95,560L-12,505Z" fill="#ffb776" stroke="#ffb776" stroke-width="1.51"/><path d="M51,-98L73,-14L174,-47Z" fill="#ffeea5" stroke="#ffeea5" stroke-width="1.51"/><path d="M174,-47L73,-14L169,40Z" fill="#ffea9a" stroke="#ffea9a" stroke-width="1.51"/><path d="M73,46L-20,128L65,136Z" fill="#ffe795" stroke="#ffe795" stroke-width="1.51"/><path d="M256,-103L156,-120L174,-47Z" fill="#ffeca1" stroke="#ffeca1" stroke-width="1.51"/><path d="M310,-108L156,-120L256,-103Z" fill="#ffeb9f" stroke="#ffeb9f" stroke-width="1.51"/><path d="M673,-120L156,-120L310,-108Z" fill="#ffe193" stroke="#ffe193" stroke-width="1.51"/><path d="M-31,61L-20,128L73,46Z" fill="#ffea9b" stroke="#ffea9b" stroke-width="1.51"/><path d="M-117,301L-113,409L-36,338Z" fill="#ffd084" stroke="#ffd084" stroke-width="1.51"/><path d="M-5,857L-24,906L82,915Z" fill="#e78e64" stroke="#e78e64" stroke-width="1.51"/><path d="M-92,817L-5,857L4,752Z" fill="#f49566" stroke="#f49566" stroke-width="1.51"/><path d="M-95,508L-123,676L-95,560Z" fill="#ffaf76" stroke="#ffaf76" stroke-width="1.51"/><path d="M-117,301L-36,338L-22,216Z" fill="#ffd786" stroke="#ffd786" stroke-width="1.51"/><path d="M1434,1010L1561,992L1464,904Z" fill="#9e0026" stroke="#9e0026" stroke-width="1.51"/><path d="M1527,905L1561,992L1533,843Z" fill="#a20026" stroke="#a20026" stroke-width="1.51"/><path d="M1533,843L1561,992L1542,657Z" fill="#ac0525" stroke="#ac0525" stroke-width="1.51"/><path d="M1557,397L1561,992L1558,320Z" fill="#c1342c" stroke="#c1342c" stroke-width="1.51"/><path d="M-123,676L-99,766L-6,656Z" fill="#ffa06c" stroke="#ffa06c" stroke-width="1.51"/><path d="M-123,676L-28,590L-95,560Z" fill="#ffaa72" stroke="#ffaa72" stroke-width="1.51"/><path d="M1524,-101L1453,-129L1439,-35Z" fill="#d68b6a" stroke="#d68b6a" stroke-width="1.51"/><path d="M1387,-106L1453,-129L1262,-111Z" fill="#e7926e" stroke="#e7926e" stroke-width="1.51"/><path d="M1262,-111L1453,-129L920,-112Z" fill="#f6996b" stroke="#f6996b" stroke-width="1.51"/><path d="M673,-120L-2,-122L156,-120Z" fill="#ffea9d" stroke="#ffea9d" stroke-width="1.51"/><path d="M-113,409L-123,676L-95,508Z" fill="#ffb77a" stroke="#ffb77a" stroke-width="1.51"/><path d="M-113,409L-122,249L-123,676Z" fill="#ffc682" stroke="#ffc682" stroke-width="1.51"/><path d="M-122,249L-117,301L-22,216Z" fill="#ffdb8c" stroke="#ffdb8c" stroke-width="1.51"/><path d="M-97,909L-92,817L-99,766Z" fill="#f1966d" stroke="#f1966d" stroke-width="1.51"/><path d="M-99,766L-92,817L4,752Z" fill="#f89868" stroke="#f89868" stroke-width="1.51"/><path d="M-111,149L-122,249L-22,216Z" fill="#ffe293" stroke="#ffe293" stroke-width="1.51"/><path d="M-1,-21L-31,61L73,46Z" fill="#ffeda2" stroke="#ffeda2" stroke-width="1.51"/><path d="M-1,-21L73,46L73,-14Z" fill="#ffeda2" stroke="#ffeda2" stroke-width="1.51"/><path d="M1541,70L1559,-21L1452,46Z" fill="#cd815a" stroke="#cd815a" stroke-width="1.51"/><path d="M1558,320L1559,-21L1542,229Z" fill="#c57449" stroke="#c57449" stroke-width="1.51"/><path d="M1561,992L1559,-21L1558,320Z" fill="#c15233" stroke="#c15233" stroke-width="1.51"/><path d="M-117,301L-122,249L-113,409Z" fill="#ffd589" stroke="#ffd589" stroke-width="1.51"/><path d="M-111,149L-22,216L-20,128Z" fill="#ffe695" stroke="#ffe695" stroke-width="1.51"/><path d="M-112,73L-111,149L-20,128Z" fill="#ffeb9f" stroke="#ffeb9f" stroke-width="1.51"/><path d="M51,-98L-1,-21L73,-14Z" fill="#fff1a9" stroke="#fff1a9" stroke-width="1.51"/><path d="M156,-120L51,-98L174,-47Z" fill="#ffefa7" stroke="#ffefa7" stroke-width="1.51"/><path d="M1559,-21L1524,-101L1439,-35Z" fill="#d08765" stroke="#d08765" stroke-width="1.51"/><path d="M-97,909L-31,1014L-24,906Z" fill="#de8d6a" stroke="#de8d6a" stroke-width="1.51"/><path d="M-24,906L-31,1014L79,990Z" fill="#d78965" stroke="#d78965" stroke-width="1.51"/><path d="M79,990L-31,1014L171,1001Z" fill="#cf845f" stroke="#cf845f" stroke-width="1.51"/><path d="M171,1001L-108,1030L492,1033Z" fill="#c97e55" stroke="#c97e55" stroke-width="1.51"/><path d="M-112,73L-20,128L-31,61Z" fill="#ffeca1" stroke="#ffeca1" stroke-width="1.51"/><path d="M-92,817L-97,909L-24,906Z" fill="#eb936c" stroke="#eb936c" stroke-width="1.51"/><path d="M-123,676L-97,909L-99,766Z" fill="#f89a6d" stroke="#f89a6d" stroke-width="1.51"/><path d="M-119,-30L-112,73L-31,61Z" fill="#fff1ab" stroke="#fff1ab" stroke-width="1.51"/><path d="M-111,149L-112,73L-122,249Z" fill="#ffea9d" stroke="#ffea9d" stroke-width="1.51"/><path d="M-119,-30L-31,61L-1,-21Z" fill="#fff1ac" stroke="#fff1ac" stroke-width="1.51"/><path d="M51,-98L-2,-122L-1,-21Z" fill="#fff4b1" stroke="#fff4b1" stroke-width="1.51"/><path d="M156,-120L-2,-122L51,-98Z" fill="#fff3b1" stroke="#fff3b1" stroke-width="1.51"/><path d="M1453,-129L-2,-122L673,-120Z" fill="#ffc680" stroke="#ffc680" stroke-width="1.51"/><path d="M-97,909L-108,1030L-31,1014Z" fill="#d58c6d" stroke="#d58c6d" stroke-width="1.51"/><path d="M-31,1014L-108,1030L171,1001Z" fill="#cd8564" stroke="#cd8564" stroke-width="1.51"/><path d="M-123,676L-108,1030L-97,909Z" fill="#ec956f" stroke="#ec956f" stroke-width="1.51"/><path d="M-81,-100L-119,-30L-1,-21Z" fill="#fff6b5" stroke="#fff6b5" stroke-width="1.51"/><path d="M-112,73L-119,-30L-122,249Z" fill="#ffeea6" stroke="#ffeea6" stroke-width="1.51"/><path d="M-2,-122L-81,-100L-1,-21Z" fill="#fff5b6" stroke="#fff5b6" stroke-width="1.51"/></svg>