<svg xmlns="http://www.w3.org/2000/svg" width="1440" height="900"><path d="M751,474L768,559L829,481Z" fill="#59a1cb" stroke="#59a1cb" stroke-width="1.51"/><path d="M768,559L853,595L829,481Z" fill="#4f9bc7" stroke="#4f9bc7" stroke-width="1.51"/><path d="M751,474L667,514L768,559Z" fill="#5da3cb" stroke="#5da3cb" stroke-width="1.51"/><path d="M829,481L755,394L751,474Z" fill="#61a5cd" stroke="#61a5cd" stroke-width="1.51"/><path d="M751,474L686,388L667,514Z" fill="#69a9cf" stroke="#69a9cf" stroke-width="1.51"/><path d="M768,559L776,644L853,595Z" fill="#4898c5" stroke="#4898c5" stroke-width="1.51"/><path d="M670,598L776,644L768,559Z" fill="#4f9bc7" stroke="#4f9bc7" stroke-width="1.51"/><path d="M829,481L871,403L755,394Z" fill="#63a5cc" stroke="#63a5cc" stroke-width="1.51"/><path d="M932,481L871,403L829,481Z" fill="#569fc9" stroke="#569fc9" stroke-width="1.51"/><path d="M667,514L670,598L768,559Z" fill="#5ba1ca" stroke="#5ba1ca" stroke-width="1.51"/><path d="M853,595L932,481L829,481Z" fill="#4d9ac6" stroke="#4d9ac6" stroke-width="1.51"/><path d="M755,394L686,388L751,474Z" fill="#6eabd0" stroke="#6eabd0" stroke-width="1.51"/><path d="M680,332L686,388L755,394Z" fill="#7bafd3" stroke="#7bafd3" stroke-width="1.51"/><path d="M776,644L854,662L853,595Z" fill="#4194be" stroke="#4194be" stroke-width="1.51"/><path d="M853,595L953,578L932,481Z" fill="#4395c3" stroke="#4395c3" stroke-width="1.51"/><path d="M933,684L953,578L853,595Z" fill="#3790be" stroke="#3790be" stroke-width="1.51"/><path d="M670,598L675,651L776,644Z" fill="#509bc2" stroke="#509bc2" stroke-width="1.51"/><path d="M776,644L851,750L854,662Z" fill="#3c92b5" stroke="#3c92b5" stroke-width="1.51"/><path d="M932,481L952,422L871,403Z" fill="#579ec8" stroke="#579ec8" stroke-width="1.51"/><path d="M1025,477L952,422L932,481Z" fill="#4d9ac2" stroke="#4d9ac2" stroke-width="1.51"/><path d="M850,304L766,315L755,394Z" fill="#7aacd1" stroke="#7aacd1" stroke-width="1.51"/><path d="M850,304L755,394L871,403Z" fill="#70a8cf" stroke="#70a8cf" stroke-width="1.51"/><path d="M670,598L597,590L675,651Z" fill="#5d9fc7" stroke="#5d9fc7" stroke-width="1.51"/><path d="M667,514L597,590L670,598Z" fill="#64a3cb" stroke="#64a3cb" stroke-width="1.51"/><path d="M574,482L597,590L667,514Z" fill="#6ea7ce" stroke="#6ea7ce" stroke-width="1.51"/><path d="M569,421L574,482L667,514Z" fill="#77acd1" stroke="#77acd1" stroke-width="1.51"/><path d="M766,315L680,332L755,394Z" fill="#7dafd3" stroke="#7dafd3" stroke-width="1.51"/><path d="M569,421L667,514L686,388Z" fill="#76add2" stroke="#76add2" stroke-width="1.51"/><path d="M944,337L850,304L871,403Z" fill="#6fa6cd" stroke="#6fa6cd" stroke-width="1.51"/><path d="M854,662L933,684L853,595Z" fill="#3991b9" stroke="#3991b9" stroke-width="1.51"/><path d="M851,750L933,684L854,662Z" fill="#338eb0" stroke="#338eb0" stroke-width="1.51"/><path d="M953,578L1025,477L932,481Z" fill="#4496c0" stroke="#4496c0" stroke-width="1.51"/><path d="M933,684L1006,582L953,578Z" fill="#338eba" stroke="#338eba" stroke-width="1.51"/><path d="M952,422L944,337L871,403Z" fill="#63a1ca" stroke="#63a1ca" stroke-width="1.51"/><path d="M1042,399L944,337L952,422Z" fill="#5f9fc4" stroke="#5f9fc4" stroke-width="1.51"/><path d="M610,314L569,421L686,388Z" fill="#87b2d4" stroke="#87b2d4" stroke-width="1.51"/><path d="M1006,582L1025,477L953,578Z" fill="#3c92bb" stroke="#3c92bb" stroke-width="1.51"/><path d="M675,651L743,751L776,644Z" fill="#4798b8" stroke="#4798b8" stroke-width="1.51"/><path d="M664,771L743,751L675,651Z" fill="#4a97b2" stroke="#4a97b2" stroke-width="1.51"/><path d="M743,751L851,750L776,644Z" fill="#3d93b0" stroke="#3d93b0" stroke-width="1.51"/><path d="M597,590L572,660L675,651Z" fill="#61a0c4" stroke="#61a0c4" stroke-width="1.51"/><path d="M515,587L572,660L597,590Z" fill="#6ca3ca" stroke="#6ca3ca" stroke-width="1.51"/><path d="M515,587L597,590L574,482Z" fill="#73a8cf" stroke="#73a8cf" stroke-width="1.51"/><path d="M680,332L610,314L686,388Z" fill="#88b3d5" stroke="#88b3d5" stroke-width="1.51"/><path d="M693,225L610,314L680,332Z" fill="#92b6d7" stroke="#92b6d7" stroke-width="1.51"/><path d="M693,225L680,332L766,315Z" fill="#8ab4d5" stroke="#8ab4d5" stroke-width="1.51"/><path d="M850,304L837,249L766,315Z" fill="#82aed2" stroke="#82aed2" stroke-width="1.51"/><path d="M927,213L837,249L850,304Z" fill="#82add1" stroke="#82add1" stroke-width="1.51"/><path d="M837,249L776,243L766,315Z" fill="#86b0d4" stroke="#86b0d4" stroke-width="1.51"/><path d="M1025,477L1042,399L952,422Z" fill="#519bbf" stroke="#519bbf" stroke-width="1.51"/><path d="M944,337L927,213L850,304Z" fill="#7aa9cf" stroke="#7aa9cf" stroke-width="1.51"/><path d="M1088,475L1042,399L1025,477Z" fill="#4998b9" stroke="#4998b9" stroke-width="1.51"/><path d="M500,484L515,587L574,482Z" fill="#7cacd1" stroke="#7cacd1" stroke-width="1.51"/><path d="M582,751L664,771L675,651Z" fill="#539ab3" stroke="#539ab3" stroke-width="1.51"/><path d="M743,751L742,823L851,750Z" fill="#3a90a6" stroke="#3a90a6" stroke-width="1.51"/><path d="M569,421L500,484L574,482Z" fill="#80b0d4" stroke="#80b0d4" stroke-width="1.51"/><path d="M490,414L500,484L569,421Z" fill="#88b3d5" stroke="#88b3d5" stroke-width="1.51"/><path d="M933,684L1037,662L1006,582Z" fill="#2d8cb1" stroke="#2d8cb1" stroke-width="1.51"/><path d="M1006,582L1088,475L1025,477Z" fill="#3f94b7" stroke="#3f94b7" stroke-width="1.51"/><path d="M1035,735L1037,662L933,684Z" fill="#268aa7" stroke="#268aa7" stroke-width="1.51"/><path d="M851,750L940,765L933,684Z" fill="#2b8ba9" stroke="#2b8ba9" stroke-width="1.51"/><path d="M916,824L940,765L851,750Z" fill="#2989a1" stroke="#2989a1" stroke-width="1.51"/><path d="M762,154L693,225L776,243Z" fill="#94b7d8" stroke="#94b7d8" stroke-width="1.51"/><path d="M776,243L693,225L766,315Z" fill="#8cb4d6" stroke="#8cb4d6" stroke-width="1.51"/><path d="M1127,579L1088,475L1006,582Z" fill="#3690b1" stroke="#3690b1" stroke-width="1.51"/><path d="M511,333L490,414L569,421Z" fill="#92b6d7" stroke="#92b6d7" stroke-width="1.51"/><path d="M511,333L569,421L610,314Z" fill="#93b6d7" stroke="#93b6d7" stroke-width="1.51"/><path d="M664,771L742,823L743,751Z" fill="#4193a7" stroke="#4193a7" stroke-width="1.51"/><path d="M664,771L688,860L742,823Z" fill="#4491a1" stroke="#4491a1" stroke-width="1.51"/><path d="M572,660L582,751L675,651Z" fill="#5c9dbb" stroke="#5c9dbb" stroke-width="1.51"/><path d="M522,756L582,751L572,660Z" fill="#619eb6" stroke="#619eb6" stroke-width="1.51"/><path d="M742,823L847,831L851,750Z" fill="#358ca1" stroke="#358ca1" stroke-width="1.51"/><path d="M1042,399L1043,307L944,337Z" fill="#65a1c2" stroke="#65a1c2" stroke-width="1.51"/><path d="M1124,327L1043,307L1042,399Z" fill="#629fba" stroke="#629fba" stroke-width="1.51"/><path d="M519,248L511,333L610,314Z" fill="#a1bbda" stroke="#a1bbda" stroke-width="1.51"/><path d="M1009,213L927,213L944,337Z" fill="#7ba8cc" stroke="#7ba8cc" stroke-width="1.51"/><path d="M837,249L762,154L776,243Z" fill="#8fb4d6" stroke="#8fb4d6" stroke-width="1.51"/><path d="M693,225L596,237L610,314Z" fill="#9ab9d9" stroke="#9ab9d9" stroke-width="1.51"/><path d="M1037,662L1127,579L1006,582Z" fill="#2c8cb0" stroke="#2c8cb0" stroke-width="1.51"/><path d="M940,765L1035,735L933,684Z" fill="#2489a5" stroke="#2489a5" stroke-width="1.51"/><path d="M1016,835L1035,735L940,765Z" fill="#1d8598" stroke="#1d8598" stroke-width="1.51"/><path d="M847,831L916,824L851,750Z" fill="#2e899e" stroke="#2e899e" stroke-width="1.51"/><path d="M515,587L495,684L572,660Z" fill="#6ea3c5" stroke="#6ea3c5" stroke-width="1.51"/><path d="M438,565L495,684L515,587Z" fill="#77a7cc" stroke="#77a7cc" stroke-width="1.51"/><path d="M438,565L515,587L500,484Z" fill="#7facd1" stroke="#7facd1" stroke-width="1.51"/><path d="M1088,475L1110,402L1042,399Z" fill="#4e99b6" stroke="#4e99b6" stroke-width="1.51"/><path d="M1187,497L1110,402L1088,475Z" fill="#4295af" stroke="#4295af" stroke-width="1.51"/><path d="M1108,680L1127,579L1037,662Z" fill="#2489a5" stroke="#2489a5" stroke-width="1.51"/><path d="M397,507L438,565L500,484Z" fill="#87b0d3" stroke="#87b0d3" stroke-width="1.51"/><path d="M430,405L500,484L490,414Z" fill="#8fb6d7" stroke="#8fb6d7" stroke-width="1.51"/><path d="M693,225L668,159L596,237Z" fill="#a0bcdb" stroke="#a0bcdb" stroke-width="1.51"/><path d="M861,137L762,154L837,249Z" fill="#92b5d6" stroke="#92b5d6" stroke-width="1.51"/><path d="M585,823L688,860L664,771Z" fill="#4e94a2" stroke="#4e94a2" stroke-width="1.51"/><path d="M495,684L522,756L572,660Z" fill="#68a0bb" stroke="#68a0bb" stroke-width="1.51"/><path d="M421,758L522,756L495,684Z" fill="#6ba1b6" stroke="#6ba1b6" stroke-width="1.51"/><path d="M742,823L759,928L847,831Z" fill="#388a98" stroke="#388a98" stroke-width="1.51"/><path d="M949,924L1016,835L916,824Z" fill="#228090" stroke="#228090" stroke-width="1.51"/><path d="M585,823L664,771L582,751Z" fill="#5598aa" stroke="#5598aa" stroke-width="1.51"/><path d="M1035,735L1108,680L1037,662Z" fill="#2087a0" stroke="#2087a0" stroke-width="1.51"/><path d="M762,154L668,159L693,225Z" fill="#9cbbda" stroke="#9cbbda" stroke-width="1.51"/><path d="M1043,307L1009,213L944,337Z" fill="#73a5c6" stroke="#73a5c6" stroke-width="1.51"/><path d="M927,213L861,137L837,249Z" fill="#8ab0d3" stroke="#8ab0d3" stroke-width="1.51"/><path d="M1122,244L1009,213L1043,307Z" fill="#74a5bf" stroke="#74a5bf" stroke-width="1.51"/><path d="M522,756L585,823L582,751Z" fill="#5c9bac" stroke="#5c9bac" stroke-width="1.51"/><path d="M511,333L430,405L490,414Z" fill="#98b9d8" stroke="#98b9d8" stroke-width="1.51"/><path d="M399,315L430,405L511,333Z" fill="#a2bcdb" stroke="#a2bcdb" stroke-width="1.51"/><path d="M519,248L610,314L596,237Z" fill="#a1bbda" stroke="#a1bbda" stroke-width="1.51"/><path d="M489,152L519,248L596,237Z" fill="#aec1dd" stroke="#aec1dd" stroke-width="1.51"/><path d="M952,162L861,137L927,213Z" fill="#8cb0d3" stroke="#8cb0d3" stroke-width="1.51"/><path d="M696,45L600,138L668,159Z" fill="#abc2de" stroke="#abc2de" stroke-width="1.51"/><path d="M1176,339L1124,327L1110,402Z" fill="#5b9bb1" stroke="#5b9bb1" stroke-width="1.51"/><path d="M1110,402L1124,327L1042,399Z" fill="#599cb7" stroke="#599cb7" stroke-width="1.51"/><path d="M1009,213L952,162L927,213Z" fill="#84accd" stroke="#84accd" stroke-width="1.51"/><path d="M430,405L397,507L500,484Z" fill="#8db4d6" stroke="#8db4d6" stroke-width="1.51"/><path d="M438,565L407,681L495,684Z" fill="#78a7c7" stroke="#78a7c7" stroke-width="1.51"/><path d="M1035,735L1127,767L1108,680Z" fill="#168596" stroke="#168596" stroke-width="1.51"/><path d="M916,824L1016,835L940,765Z" fill="#228499" stroke="#228499" stroke-width="1.51"/><path d="M949,924L916,824L847,831Z" fill="#298393" stroke="#298393" stroke-width="1.51"/><path d="M1127,579L1187,497L1088,475Z" fill="#3790ab" stroke="#3790ab" stroke-width="1.51"/><path d="M1192,579L1187,497L1127,579Z" fill="#2f8ca5" stroke="#2f8ca5" stroke-width="1.51"/><path d="M1179,652L1192,579L1127,579Z" fill="#2488a3" stroke="#2488a3" stroke-width="1.51"/><path d="M1179,652L1127,579L1108,680Z" fill="#2088a0" stroke="#2088a0" stroke-width="1.51"/><path d="M339,560L407,681L438,565Z" fill="#82abd1" stroke="#82abd1" stroke-width="1.51"/><path d="M522,756L490,854L585,823Z" fill="#6099a7" stroke="#6099a7" stroke-width="1.51"/><path d="M1204,739L1179,652L1108,680Z" fill="#158493" stroke="#158493" stroke-width="1.51"/><path d="M696,45L668,159L762,154Z" fill="#a3bfdc" stroke="#a3bfdc" stroke-width="1.51"/><path d="M668,159L600,138L596,237Z" fill="#a8bfdc" stroke="#a8bfdc" stroke-width="1.51"/><path d="M688,860L759,928L742,823Z" fill="#3e8c97" stroke="#3e8c97" stroke-width="1.51"/><path d="M673,918L759,928L688,860Z" fill="#408b93" stroke="#408b93" stroke-width="1.51"/><path d="M585,908L688,860L585,823Z" fill="#50919c" stroke="#50919c" stroke-width="1.51"/><path d="M585,908L673,918L688,860Z" fill="#4b8e96" stroke="#4b8e96" stroke-width="1.51"/><path d="M1209,413L1176,339L1110,402Z" fill="#5299ad" stroke="#5299ad" stroke-width="1.51"/><path d="M1124,327L1122,244L1043,307Z" fill="#6ca1b9" stroke="#6ca1b9" stroke-width="1.51"/><path d="M1009,213L1020,134L952,162Z" fill="#86adca" stroke="#86adca" stroke-width="1.51"/><path d="M1109,835L1127,767L1035,735Z" fill="#11818d" stroke="#11818d" stroke-width="1.51"/><path d="M759,928L828,935L847,831Z" fill="#348590" stroke="#348590" stroke-width="1.51"/><path d="M1176,339L1122,244L1124,327Z" fill="#669fb3" stroke="#669fb3" stroke-width="1.51"/><path d="M1262,393L1209,413L1291,474Z" fill="#4691a1" stroke="#4691a1" stroke-width="1.51"/><path d="M1187,497L1209,413L1110,402Z" fill="#4495aa" stroke="#4495aa" stroke-width="1.51"/><path d="M416,234L511,333L519,248Z" fill="#acc0dd" stroke="#acc0dd" stroke-width="1.51"/><path d="M416,234L399,315L511,333Z" fill="#adc0dc" stroke="#adc0dc" stroke-width="1.51"/><path d="M430,405L334,476L397,507Z" fill="#93b7d8" stroke="#93b7d8" stroke-width="1.51"/><path d="M407,681L421,758L495,684Z" fill="#72a4bb" stroke="#72a4bb" stroke-width="1.51"/><path d="M952,162L947,81L861,137Z" fill="#91b2d4" stroke="#91b2d4" stroke-width="1.51"/><path d="M861,137L832,54L762,154Z" fill="#9ab9d8" stroke="#9ab9d8" stroke-width="1.51"/><path d="M1089,140L1020,134L1009,213Z" fill="#84acc5" stroke="#84acc5" stroke-width="1.51"/><path d="M828,935L949,924L847,831Z" fill="#2d828e" stroke="#2d828e" stroke-width="1.51"/><path d="M1016,835L1109,835L1035,735Z" fill="#17818e" stroke="#17818e" stroke-width="1.51"/><path d="M490,854L585,908L585,823Z" fill="#5b959d" stroke="#5b959d" stroke-width="1.51"/><path d="M742,1025L828,935L759,928Z" fill="#367f89" stroke="#367f89" stroke-width="1.51"/><path d="M397,507L339,560L438,565Z" fill="#89b0d4" stroke="#89b0d4" stroke-width="1.51"/><path d="M320,771L412,824L421,758Z" fill="#72a2af" stroke="#72a2af" stroke-width="1.51"/><path d="M334,476L339,560L397,507Z" fill="#90b4d6" stroke="#90b4d6" stroke-width="1.51"/><path d="M421,758L490,854L522,756Z" fill="#689eac" stroke="#689eac" stroke-width="1.51"/><path d="M326,409L334,476L430,405Z" fill="#9bbbda" stroke="#9bbbda" stroke-width="1.51"/><path d="M1097,918L1109,835L1016,835Z" fill="#147c81" stroke="#147c81" stroke-width="1.51"/><path d="M1127,767L1204,739L1108,680Z" fill="#0c828e" stroke="#0c828e" stroke-width="1.51"/><path d="M1020,134L947,81L952,162Z" fill="#8db0cf" stroke="#8db0cf" stroke-width="1.51"/><path d="M947,81L832,54L861,137Z" fill="#98b6d7" stroke="#98b6d7" stroke-width="1.51"/><path d="M949,924L1009,914L1016,835Z" fill="#1f7d87" stroke="#1f7d87" stroke-width="1.51"/><path d="M342,338L326,409L430,405Z" fill="#a3bedb" stroke="#a3bedb" stroke-width="1.51"/><path d="M489,152L416,234L519,248Z" fill="#b6c4df" stroke="#b6c4df" stroke-width="1.51"/><path d="M600,138L489,152L596,237Z" fill="#b0c2de" stroke="#b0c2de" stroke-width="1.51"/><path d="M511,81L489,152L600,138Z" fill="#b9c7e1" stroke="#b9c7e1" stroke-width="1.51"/><path d="M832,54L773,41L762,154Z" fill="#a0bcda" stroke="#a0bcda" stroke-width="1.51"/><path d="M247,564L323,686L339,560Z" fill="#8bb0d2" stroke="#8bb0d2" stroke-width="1.51"/><path d="M342,338L430,405L399,315Z" fill="#a7bedc" stroke="#a7bedc" stroke-width="1.51"/><path d="M773,41L696,45L762,154Z" fill="#a4bfdc" stroke="#a4bfdc" stroke-width="1.51"/><path d="M1197,846L1204,739L1127,767Z" fill="#047e82" stroke="#047e82" stroke-width="1.51"/><path d="M1179,652L1266,587L1192,579Z" fill="#23869d" stroke="#23869d" stroke-width="1.51"/><path d="M1192,579L1266,587L1187,497Z" fill="#2e8a9f" stroke="#2e8a9f" stroke-width="1.51"/><path d="M339,214L342,338L399,315Z" fill="#b6c4df" stroke="#b6c4df" stroke-width="1.51"/><path d="M1122,244L1089,140L1009,213Z" fill="#7ca8bf" stroke="#7ca8bf" stroke-width="1.51"/><path d="M1020,134L1005,74L947,81Z" fill="#8eb1cd" stroke="#8eb1cd" stroke-width="1.51"/><path d="M1182,163L1089,140L1122,244Z" fill="#7aa7b8" stroke="#7aa7b8" stroke-width="1.51"/><path d="M1181,225L1122,244L1176,339Z" fill="#6ba0b2" stroke="#6ba0b2" stroke-width="1.51"/><path d="M1268,666L1266,587L1179,652Z" fill="#1f8395" stroke="#1f8395" stroke-width="1.51"/><path d="M1262,393L1176,339L1209,413Z" fill="#5296a6" stroke="#5296a6" stroke-width="1.51"/><path d="M1288,335L1181,225L1176,339Z" fill="#659caa" stroke="#659caa" stroke-width="1.51"/><path d="M947,81L858,-9L832,54Z" fill="#9cbad9" stroke="#9cbad9" stroke-width="1.51"/><path d="M832,54L858,-9L773,41Z" fill="#a2bddb" stroke="#a2bddb" stroke-width="1.51"/><path d="M1089,140L1005,74L1020,134Z" fill="#89afc7" stroke="#89afc7" stroke-width="1.51"/><path d="M421,758L412,824L490,854Z" fill="#6b9ea9" stroke="#6b9ea9" stroke-width="1.51"/><path d="M490,854L513,945L585,908Z" fill="#5d9397" stroke="#5d9397" stroke-width="1.51"/><path d="M323,686L421,758L407,681Z" fill="#78a6bc" stroke="#78a6bc" stroke-width="1.51"/><path d="M1291,474L1209,413L1187,497Z" fill="#3e90a2" stroke="#3e90a2" stroke-width="1.51"/><path d="M247,564L339,560L334,476Z" fill="#93b5d6" stroke="#93b5d6" stroke-width="1.51"/><path d="M339,560L323,686L407,681Z" fill="#82abca" stroke="#82abca" stroke-width="1.51"/><path d="M489,152L428,165L416,234Z" fill="#bcc7e1" stroke="#bcc7e1" stroke-width="1.51"/><path d="M416,234L339,214L399,315Z" fill="#b8c5df" stroke="#b8c5df" stroke-width="1.51"/><path d="M400,53L428,165L489,152Z" fill="#c4cbe3" stroke="#c4cbe3" stroke-width="1.51"/><path d="M696,45L572,57L600,138Z" fill="#b2c5df" stroke="#b2c5df" stroke-width="1.51"/><path d="M1266,587L1291,474L1187,497Z" fill="#358b9d" stroke="#358b9d" stroke-width="1.51"/><path d="M1266,587L1349,588L1291,474Z" fill="#2f8595" stroke="#2f8595" stroke-width="1.51"/><path d="M1204,739L1268,666L1179,652Z" fill="#16828e" stroke="#16828e" stroke-width="1.51"/><path d="M828,935L845,1015L949,924Z" fill="#2b7a86" stroke="#2b7a86" stroke-width="1.51"/><path d="M949,924L1041,1004L1009,914Z" fill="#1d767e" stroke="#1d767e" stroke-width="1.51"/><path d="M742,1025L845,1015L828,935Z" fill="#327a84" stroke="#327a84" stroke-width="1.51"/><path d="M742,1025L759,928L673,918Z" fill="#3b828b" stroke="#3b828b" stroke-width="1.51"/><path d="M572,57L511,81L600,138Z" fill="#b9c7e1" stroke="#b9c7e1" stroke-width="1.51"/><path d="M1204,739L1262,772L1268,666Z" fill="#0d7e84" stroke="#0d7e84" stroke-width="1.51"/><path d="M1109,835L1197,846L1127,767Z" fill="#067d80" stroke="#067d80" stroke-width="1.51"/><path d="M1009,914L1097,918L1016,835Z" fill="#197b81" stroke="#197b81" stroke-width="1.51"/><path d="M1041,1004L1097,918L1009,914Z" fill="#177478" stroke="#177478" stroke-width="1.51"/><path d="M670,1023L742,1025L673,918Z" fill="#3f8087" stroke="#3f8087" stroke-width="1.51"/><path d="M427,914L513,945L490,854Z" fill="#639698" stroke="#639698" stroke-width="1.51"/><path d="M670,1023L673,918L585,908Z" fill="#49878e" stroke="#49878e" stroke-width="1.51"/><path d="M753,-35L679,-15L696,45Z" fill="#afc6e0" stroke="#afc6e0" stroke-width="1.51"/><path d="M696,45L583,-5L572,57Z" fill="#b7c8e2" stroke="#b7c8e2" stroke-width="1.51"/><path d="M941,-47L858,-9L947,81Z" fill="#9db9d8" stroke="#9db9d8" stroke-width="1.51"/><path d="M572,1027L670,1023L585,908Z" fill="#4d848a" stroke="#4d848a" stroke-width="1.51"/><path d="M1089,140L1123,72L1005,74Z" fill="#89afc3" stroke="#89afc3" stroke-width="1.51"/><path d="M1005,74L941,-47L947,81Z" fill="#96b5d3" stroke="#96b5d3" stroke-width="1.51"/><path d="M1181,225L1182,163L1122,244Z" fill="#74a4b3" stroke="#74a4b3" stroke-width="1.51"/><path d="M1266,130L1182,163L1181,225Z" fill="#78a4af" stroke="#78a4af" stroke-width="1.51"/><path d="M1288,335L1176,339L1262,393Z" fill="#5896a4" stroke="#5896a4" stroke-width="1.51"/><path d="M1097,918L1197,846L1109,835Z" fill="#097979" stroke="#097979" stroke-width="1.51"/><path d="M1358,403L1288,335L1262,393Z" fill="#51929d" stroke="#51929d" stroke-width="1.51"/><path d="M412,824L427,914L490,854Z" fill="#689aa0" stroke="#689aa0" stroke-width="1.51"/><path d="M323,686L320,771L421,758Z" fill="#78a6b8" stroke="#78a6b8" stroke-width="1.51"/><path d="M233,741L320,771L323,686Z" fill="#7faabb" stroke="#7faabb" stroke-width="1.51"/><path d="M326,409L261,410L334,476Z" fill="#a0bddb" stroke="#a0bddb" stroke-width="1.51"/><path d="M342,338L261,410L326,409Z" fill="#a9c0dd" stroke="#a9c0dd" stroke-width="1.51"/><path d="M240,310L261,410L342,338Z" fill="#b2c4df" stroke="#b2c4df" stroke-width="1.51"/><path d="M753,-35L696,45L773,41Z" fill="#aac3df" stroke="#aac3df" stroke-width="1.51"/><path d="M572,57L486,-39L511,81Z" fill="#c3cce4" stroke="#c3cce4" stroke-width="1.51"/><path d="M428,165L339,214L416,234Z" fill="#bec8e2" stroke="#bec8e2" stroke-width="1.51"/><path d="M345,128L339,214L428,165Z" fill="#c5cbe3" stroke="#c5cbe3" stroke-width="1.51"/><path d="M513,945L572,1027L585,908Z" fill="#568a8f" stroke="#568a8f" stroke-width="1.51"/><path d="M333,846L427,914L412,824Z" fill="#6e9ca1" stroke="#6e9ca1" stroke-width="1.51"/><path d="M845,1015L931,1032L949,924Z" fill="#267481" stroke="#267481" stroke-width="1.51"/><path d="M742,1025L931,1032L845,1015Z" fill="#2d747f" stroke="#2d747f" stroke-width="1.51"/><path d="M492,1033L931,1032L742,1025Z" fill="#397982" stroke="#397982" stroke-width="1.51"/><path d="M1197,846L1262,772L1204,739Z" fill="#057b7c" stroke="#057b7c" stroke-width="1.51"/><path d="M1268,666L1349,588L1266,587Z" fill="#238191" stroke="#238191" stroke-width="1.51"/><path d="M233,497L247,564L334,476Z" fill="#99b8d8" stroke="#99b8d8" stroke-width="1.51"/><path d="M858,-9L753,-35L773,41Z" fill="#a8c1dd" stroke="#a8c1dd" stroke-width="1.51"/><path d="M1182,163L1123,72L1089,140Z" fill="#81abba" stroke="#81abba" stroke-width="1.51"/><path d="M261,410L233,497L334,476Z" fill="#9fbcdb" stroke="#9fbcdb" stroke-width="1.51"/><path d="M931,1032L1041,1004L949,924Z" fill="#1e727c" stroke="#1e727c" stroke-width="1.51"/><path d="M1186,937L1260,841L1197,846Z" fill="#04756f" stroke="#04756f" stroke-width="1.51"/><path d="M679,-15L583,-5L696,45Z" fill="#b5c8e1" stroke="#b5c8e1" stroke-width="1.51"/><path d="M400,53L345,128L428,165Z" fill="#c9cee5" stroke="#c9cee5" stroke-width="1.51"/><path d="M611,-108L583,-5L679,-15Z" fill="#bdcce3" stroke="#bdcce3" stroke-width="1.51"/><path d="M670,1023L572,1027L742,1025Z" fill="#437c84" stroke="#437c84" stroke-width="1.51"/><path d="M492,1033L572,1027L513,945Z" fill="#58868a" stroke="#58868a" stroke-width="1.51"/><path d="M320,771L333,846L412,824Z" fill="#74a1ab" stroke="#74a1ab" stroke-width="1.51"/><path d="M437,1008L492,1033L513,945Z" fill="#5e898c" stroke="#5e898c" stroke-width="1.51"/><path d="M261,826L333,846L320,771Z" fill="#79a3ac" stroke="#79a3ac" stroke-width="1.51"/><path d="M1386,651L1349,588L1268,666Z" fill="#1f7e89" stroke="#1f7e89" stroke-width="1.51"/><path d="M1291,474L1358,403L1262,393Z" fill="#468f9a" stroke="#468f9a" stroke-width="1.51"/><path d="M1349,588L1360,471L1291,474Z" fill="#358794" stroke="#358794" stroke-width="1.51"/><path d="M1370,745L1386,651L1268,666Z" fill="#177b7f" stroke="#177b7f" stroke-width="1.51"/><path d="M1197,846L1260,841L1262,772Z" fill="#057875" stroke="#057875" stroke-width="1.51"/><path d="M1186,937L1197,846L1097,918Z" fill="#047671" stroke="#047671" stroke-width="1.51"/><path d="M1288,335L1297,240L1181,225Z" fill="#699ca6" stroke="#699ca6" stroke-width="1.51"/><path d="M1182,163L1208,82L1123,72Z" fill="#81aab6" stroke="#81aab6" stroke-width="1.51"/><path d="M1382,317L1297,240L1288,335Z" fill="#62969d" stroke="#62969d" stroke-width="1.51"/><path d="M1039,-38L941,-47L1005,74Z" fill="#98b6d0" stroke="#98b6d0" stroke-width="1.51"/><path d="M858,-9L779,-101L753,-35Z" fill="#abc4df" stroke="#abc4df" stroke-width="1.51"/><path d="M1360,471L1358,403L1291,474Z" fill="#3f8c96" stroke="#3f8c96" stroke-width="1.51"/><path d="M339,214L240,310L342,338Z" fill="#bbc7e1" stroke="#bbc7e1" stroke-width="1.51"/><path d="M261,410L164,421L233,497Z" fill="#a5c0dd" stroke="#a5c0dd" stroke-width="1.51"/><path d="M177,599L231,686L247,564Z" fill="#90b2d1" stroke="#90b2d1" stroke-width="1.51"/><path d="M247,564L231,686L323,686Z" fill="#8aafcb" stroke="#8aafcb" stroke-width="1.51"/><path d="M1109,1013L1186,937L1097,918Z" fill="#09716d" stroke="#09716d" stroke-width="1.51"/><path d="M339,214L233,252L240,310Z" fill="#c2cae3" stroke="#c2cae3" stroke-width="1.51"/><path d="M400,53L489,152L511,81Z" fill="#c4cbe3" stroke="#c4cbe3" stroke-width="1.51"/><path d="M1041,1004L1109,1013L1097,918Z" fill="#126f70" stroke="#126f70" stroke-width="1.51"/><path d="M931,1032L1109,1013L1041,1004Z" fill="#186c72" stroke="#186c72" stroke-width="1.51"/><path d="M437,1008L513,945L427,914Z" fill="#628f92" stroke="#628f92" stroke-width="1.51"/><path d="M572,1027L492,1033L742,1025Z" fill="#4b7f85" stroke="#4b7f85" stroke-width="1.51"/><path d="M486,-39L400,53L511,81Z" fill="#cacfe5" stroke="#cacfe5" stroke-width="1.51"/><path d="M352,937L437,1008L427,914Z" fill="#679293" stroke="#679293" stroke-width="1.51"/><path d="M231,686L233,741L323,686Z" fill="#84acc0" stroke="#84acc0" stroke-width="1.51"/><path d="M1108,-4L1039,-38L1005,74Z" fill="#92b3c8" stroke="#92b3c8" stroke-width="1.51"/><path d="M1266,130L1208,82L1182,163Z" fill="#7da7af" stroke="#7da7af" stroke-width="1.51"/><path d="M1108,-4L1005,74L1123,72Z" fill="#8db1c4" stroke="#8db1c4" stroke-width="1.51"/><path d="M1204,-27L1108,-4L1123,72Z" fill="#8bb0bc" stroke="#8bb0bc" stroke-width="1.51"/><path d="M352,937L427,914L333,846Z" fill="#6e9b9b" stroke="#6e9b9b" stroke-width="1.51"/><path d="M244,927L352,937L333,846Z" fill="#749d9c" stroke="#749d9c" stroke-width="1.51"/><path d="M258,128L233,252L339,214Z" fill="#cacee4" stroke="#cacee4" stroke-width="1.51"/><path d="M143,485L177,599L233,497Z" fill="#9dbad9" stroke="#9dbad9" stroke-width="1.51"/><path d="M233,497L177,599L247,564Z" fill="#98b7d7" stroke="#98b7d7" stroke-width="1.51"/><path d="M258,128L339,214L345,128Z" fill="#cdcfe5" stroke="#cdcfe5" stroke-width="1.51"/><path d="M1208,82L1204,-27L1123,72Z" fill="#87adb7" stroke="#87adb7" stroke-width="1.51"/><path d="M1297,240L1266,130L1181,225Z" fill="#73a1a9" stroke="#73a1a9" stroke-width="1.51"/><path d="M1351,165L1266,130L1297,240Z" fill="#749fa3" stroke="#749fa3" stroke-width="1.51"/><path d="M753,-35L673,-120L679,-15Z" fill="#b3cae2" stroke="#b3cae2" stroke-width="1.51"/><path d="M583,-5L486,-39L572,57Z" fill="#c3cde4" stroke="#c3cde4" stroke-width="1.51"/><path d="M838,-107L779,-101L858,-9Z" fill="#a9c4df" stroke="#a9c4df" stroke-width="1.51"/><path d="M838,-107L858,-9L920,-112Z" fill="#a6c1dd" stroke="#a6c1dd" stroke-width="1.51"/><path d="M233,741L261,826L320,771Z" fill="#7da7b3" stroke="#7da7b3" stroke-width="1.51"/><path d="M1451,474L1446,423L1360,471Z" fill="#3b858d" stroke="#3b858d" stroke-width="1.51"/><path d="M1446,423L1382,317L1358,403Z" fill="#4e8c92" stroke="#4e8c92" stroke-width="1.51"/><path d="M1370,745L1268,666L1262,772Z" fill="#0d7b7d" stroke="#0d7b7d" stroke-width="1.51"/><path d="M164,421L261,410L240,310Z" fill="#b1c4df" stroke="#b1c4df" stroke-width="1.51"/><path d="M231,686L146,747L233,741Z" fill="#86aebe" stroke="#86aebe" stroke-width="1.51"/><path d="M233,741L158,843L261,826Z" fill="#80a8af" stroke="#80a8af" stroke-width="1.51"/><path d="M920,-112L858,-9L941,-47Z" fill="#a2bddb" stroke="#a2bddb" stroke-width="1.51"/><path d="M1358,403L1382,317L1288,335Z" fill="#569299" stroke="#569299" stroke-width="1.51"/><path d="M1446,423L1358,403L1360,471Z" fill="#428991" stroke="#428991" stroke-width="1.51"/><path d="M1366,821L1370,745L1262,772Z" fill="#057671" stroke="#057671" stroke-width="1.51"/><path d="M1186,937L1289,930L1260,841Z" fill="#047267" stroke="#047267" stroke-width="1.51"/><path d="M1109,1013L1191,990L1186,937Z" fill="#056c67" stroke="#056c67" stroke-width="1.51"/><path d="M515,-94L486,-39L583,-5Z" fill="#c9d1e7" stroke="#c9d1e7" stroke-width="1.51"/><path d="M1366,821L1262,772L1260,841Z" fill="#057670" stroke="#057670" stroke-width="1.51"/><path d="M147,328L164,421L240,310Z" fill="#b8c7e1" stroke="#b8c7e1" stroke-width="1.51"/><path d="M1009,-92L941,-47L1039,-38Z" fill="#9bbad2" stroke="#9bbad2" stroke-width="1.51"/><path d="M1009,-92L920,-112L941,-47Z" fill="#a0bdd8" stroke="#a0bdd8" stroke-width="1.51"/><path d="M920,-112L673,-120L838,-107Z" fill="#adc7e1" stroke="#adc7e1" stroke-width="1.51"/><path d="M838,-107L673,-120L779,-101Z" fill="#b0cae2" stroke="#b0cae2" stroke-width="1.51"/><path d="M779,-101L673,-120L753,-35Z" fill="#b1cae2" stroke="#b1cae2" stroke-width="1.51"/><path d="M1094,-98L1009,-92L1039,-38Z" fill="#98b9cc" stroke="#98b9cc" stroke-width="1.51"/><path d="M1094,-98L1039,-38L1108,-4Z" fill="#94b6c7" stroke="#94b6c7" stroke-width="1.51"/><path d="M177,599L163,665L231,686Z" fill="#8fb2cc" stroke="#8fb2cc" stroke-width="1.51"/><path d="M79,559L163,665L177,599Z" fill="#97b5d5" stroke="#97b5d5" stroke-width="1.51"/><path d="M673,-120L611,-108L679,-15Z" fill="#bbcee5" stroke="#bbcee5" stroke-width="1.51"/><path d="M412,-29L346,41L400,53Z" fill="#d2d3e8" stroke="#d2d3e8" stroke-width="1.51"/><path d="M400,53L346,41L345,128Z" fill="#d0d1e6" stroke="#d0d1e6" stroke-width="1.51"/><path d="M164,421L143,485L233,497Z" fill="#a4bfdc" stroke="#a4bfdc" stroke-width="1.51"/><path d="M1266,130L1264,71L1208,82Z" fill="#80a7ad" stroke="#80a7ad" stroke-width="1.51"/><path d="M1352,67L1264,71L1266,130Z" fill="#7ea5a8" stroke="#7ea5a8" stroke-width="1.51"/><path d="M176,236L147,328L240,310Z" fill="#c3cbe4" stroke="#c3cbe4" stroke-width="1.51"/><path d="M76,398L70,476L143,485Z" fill="#acc4df" stroke="#acc4df" stroke-width="1.51"/><path d="M346,41L258,128L345,128Z" fill="#d2d2e7" stroke="#d2d2e7" stroke-width="1.51"/><path d="M1191,990L1289,930L1186,937Z" fill="#046c63" stroke="#046c63" stroke-width="1.51"/><path d="M352,937L347,996L437,1008Z" fill="#698f90" stroke="#698f90" stroke-width="1.51"/><path d="M437,1008L347,996L492,1033Z" fill="#62898b" stroke="#62898b" stroke-width="1.51"/><path d="M244,927L347,996L352,937Z" fill="#709695" stroke="#709695" stroke-width="1.51"/><path d="M244,927L333,846L261,826Z" fill="#79a1a3" stroke="#79a1a3" stroke-width="1.51"/><path d="M1370,745L1449,647L1386,651Z" fill="#17777a" stroke="#17777a" stroke-width="1.51"/><path d="M1289,930L1366,821L1260,841Z" fill="#047166" stroke="#047166" stroke-width="1.51"/><path d="M346,41L242,42L258,128Z" fill="#d8d5e8" stroke="#d8d5e8" stroke-width="1.51"/><path d="M486,-39L412,-29L400,53Z" fill="#d0d3e8" stroke="#d0d3e8" stroke-width="1.51"/><path d="M428,-97L412,-29L486,-39Z" fill="#d2d6e9" stroke="#d2d6e9" stroke-width="1.51"/><path d="M1380,217L1351,165L1297,240Z" fill="#6f9b9e" stroke="#6f9b9e" stroke-width="1.51"/><path d="M1382,317L1380,217L1297,240Z" fill="#67979b" stroke="#67979b" stroke-width="1.51"/><path d="M428,-97L515,-94L611,-108Z" fill="#cdd5e8" stroke="#cdd5e8" stroke-width="1.51"/><path d="M611,-108L515,-94L583,-5Z" fill="#c5d1e6" stroke="#c5d1e6" stroke-width="1.51"/><path d="M1382,317L1448,228L1380,217Z" fill="#669496" stroke="#669496" stroke-width="1.51"/><path d="M1451,474L1360,471L1349,588Z" fill="#34848e" stroke="#34848e" stroke-width="1.51"/><path d="M1451,474L1349,588L1458,601Z" fill="#2c7d89" stroke="#2c7d89" stroke-width="1.51"/><path d="M1458,601L1349,588L1386,651Z" fill="#227b87" stroke="#227b87" stroke-width="1.51"/><path d="M176,236L240,310L233,252Z" fill="#c4cce3" stroke="#c4cce3" stroke-width="1.51"/><path d="M164,168L176,236L233,252Z" fill="#cdd0e6" stroke="#cdd0e6" stroke-width="1.51"/><path d="M1467,770L1449,647L1370,745Z" fill="#0e7271" stroke="#0e7271" stroke-width="1.51"/><path d="M1449,647L1458,601L1386,651Z" fill="#1f7780" stroke="#1f7780" stroke-width="1.51"/><path d="M1290,-19L1204,-27L1264,71Z" fill="#88acaf" stroke="#88acaf" stroke-width="1.51"/><path d="M1264,71L1204,-27L1208,82Z" fill="#86abb1" stroke="#86abb1" stroke-width="1.51"/><path d="M1009,-92L1094,-98L920,-112Z" fill="#9dbcd2" stroke="#9dbcd2" stroke-width="1.51"/><path d="M1204,-27L1094,-98L1108,-4Z" fill="#90b4bf" stroke="#90b4bf" stroke-width="1.51"/><path d="M163,665L146,747L231,686Z" fill="#8bafc3" stroke="#8bafc3" stroke-width="1.51"/><path d="M55,681L146,747L163,665Z" fill="#8fb2c5" stroke="#8fb2c5" stroke-width="1.51"/><path d="M158,843L244,927L261,826Z" fill="#7da3a5" stroke="#7da3a5" stroke-width="1.51"/><path d="M1446,423L1459,318L1382,317Z" fill="#538b90" stroke="#538b90" stroke-width="1.51"/><path d="M1466,147L1352,67L1351,165Z" fill="#779d9b" stroke="#779d9b" stroke-width="1.51"/><path d="M1557,397L1459,318L1446,423Z" fill="#4b848a" stroke="#4b848a" stroke-width="1.51"/><path d="M1531,493L1446,423L1451,474Z" fill="#397f88" stroke="#397f88" stroke-width="1.51"/><path d="M428,-97L333,-26L412,-29Z" fill="#d7d8ea" stroke="#d7d8ea" stroke-width="1.51"/><path d="M412,-29L333,-26L346,41Z" fill="#d7d6e9" stroke="#d7d6e9" stroke-width="1.51"/><path d="M258,128L164,168L233,252Z" fill="#d0d1e6" stroke="#d0d1e6" stroke-width="1.51"/><path d="M515,-94L428,-97L486,-39Z" fill="#d1d6e8" stroke="#d1d6e8" stroke-width="1.51"/><path d="M673,-120L428,-97L611,-108Z" fill="#c7d4e7" stroke="#c7d4e7" stroke-width="1.51"/><path d="M143,485L79,559L177,599Z" fill="#9ebbd9" stroke="#9ebbd9" stroke-width="1.51"/><path d="M70,476L79,559L143,485Z" fill="#a6c0dc" stroke="#a6c0dc" stroke-width="1.51"/><path d="M169,40L164,168L258,128Z" fill="#dad6e9" stroke="#dad6e9" stroke-width="1.51"/><path d="M78,220L55,321L147,328Z" fill="#c9cfe6" stroke="#c9cfe6" stroke-width="1.51"/><path d="M76,398L143,485L164,421Z" fill="#adc4df" stroke="#adc4df" stroke-width="1.51"/><path d="M146,747L158,843L233,741Z" fill="#84acb5" stroke="#84acb5" stroke-width="1.51"/><path d="M68,768L158,843L146,747Z" fill="#87adb5" stroke="#87adb5" stroke-width="1.51"/><path d="M76,398L164,421L147,328Z" fill="#b7c7e1" stroke="#b7c7e1" stroke-width="1.51"/><path d="M1204,-27L1204,-92L1094,-98Z" fill="#90b5bc" stroke="#90b5bc" stroke-width="1.51"/><path d="M1351,165L1352,67L1266,130Z" fill="#7aa2a3" stroke="#7aa2a3" stroke-width="1.51"/><path d="M1466,147L1351,165L1380,217Z" fill="#719999" stroke="#719999" stroke-width="1.51"/><path d="M169,40L242,42L174,-47Z" fill="#e3dcec" stroke="#e3dcec" stroke-width="1.51"/><path d="M333,-26L242,42L346,41Z" fill="#dad7ea" stroke="#dad7ea" stroke-width="1.51"/><path d="M1459,318L1448,228L1382,317Z" fill="#608f93" stroke="#608f93" stroke-width="1.51"/><path d="M55,321L76,398L147,328Z" fill="#bfcbe3" stroke="#bfcbe3" stroke-width="1.51"/><path d="M1289,930L1387,942L1366,821Z" fill="#026d5c" stroke="#026d5c" stroke-width="1.51"/><path d="M1366,821L1467,770L1370,745Z" fill="#05716a" stroke="#05716a" stroke-width="1.51"/><path d="M1191,990L1295,1026L1289,930Z" fill="#04675c" stroke="#04675c" stroke-width="1.51"/><path d="M1109,1013L1295,1026L1191,990Z" fill="#04665f" stroke="#04665f" stroke-width="1.51"/><path d="M931,1032L1295,1026L1109,1013Z" fill="#0c6867" stroke="#0c6867" stroke-width="1.51"/><path d="M1458,601L1531,493L1451,474Z" fill="#307a84" stroke="#307a84" stroke-width="1.51"/><path d="M1541,589L1531,493L1458,601Z" fill="#297480" stroke="#297480" stroke-width="1.51"/><path d="M1458,826L1467,770L1366,821Z" fill="#046d63" stroke="#046d63" stroke-width="1.51"/><path d="M1352,67L1290,-19L1264,71Z" fill="#83a7a8" stroke="#83a7a8" stroke-width="1.51"/><path d="M1094,-98L1262,-111L920,-112Z" fill="#97bac8" stroke="#97bac8" stroke-width="1.51"/><path d="M1262,-111L1204,-92L1204,-27Z" fill="#8eb2b6" stroke="#8eb2b6" stroke-width="1.51"/><path d="M1379,993L1387,942L1289,930Z" fill="#016655" stroke="#016655" stroke-width="1.51"/><path d="M1464,904L1458,826L1366,821Z" fill="#036a5c" stroke="#036a5c" stroke-width="1.51"/><path d="M1458,601L1449,647L1542,657Z" fill="#1d727b" stroke="#1d727b" stroke-width="1.51"/><path d="M1541,589L1458,601L1542,657Z" fill="#20707c" stroke="#20707c" stroke-width="1.51"/><path d="M1522,154L1466,147L1448,228Z" fill="#6d9192" stroke="#6d9192" stroke-width="1.51"/><path d="M165,935L226,1001L244,927Z" fill="#789a98" stroke="#789a98" stroke-width="1.51"/><path d="M244,927L226,1001L347,996Z" fill="#739594" stroke="#739594" stroke-width="1.51"/><path d="M347,996L226,1001L492,1033Z" fill="#698c8d" stroke="#698c8d" stroke-width="1.51"/><path d="M79,559L55,681L163,665Z" fill="#97b6d1" stroke="#97b6d1" stroke-width="1.51"/><path d="M158,843L165,935L244,927Z" fill="#7da29f" stroke="#7da29f" stroke-width="1.51"/><path d="M-6,656L55,681L79,559Z" fill="#9ab8d3" stroke="#9ab8d3" stroke-width="1.51"/><path d="M82,915L165,935L158,843Z" fill="#80a4a1" stroke="#80a4a1" stroke-width="1.51"/><path d="M70,476L-12,505L79,559Z" fill="#a7c1dd" stroke="#a7c1dd" stroke-width="1.51"/><path d="M-17,388L-12,505L70,476Z" fill="#afc8e1" stroke="#afc8e1" stroke-width="1.51"/><path d="M78,220L147,328L176,236Z" fill="#cbcfe6" stroke="#cbcfe6" stroke-width="1.51"/><path d="M78,220L176,236L164,168Z" fill="#d1d3e8" stroke="#d1d3e8" stroke-width="1.51"/><path d="M1542,657L1449,647L1530,742Z" fill="#156d71" stroke="#156d71" stroke-width="1.51"/><path d="M1387,942L1464,904L1366,821Z" fill="#026958" stroke="#026958" stroke-width="1.51"/><path d="M1295,1026L1379,993L1289,930Z" fill="#026454" stroke="#026454" stroke-width="1.51"/><path d="M55,681L68,768L146,747Z" fill="#8db2bf" stroke="#8db2bf" stroke-width="1.51"/><path d="M65,136L78,220L164,168Z" fill="#d9d6e9" stroke="#d9d6e9" stroke-width="1.51"/><path d="M1530,742L1449,647L1467,770Z" fill="#0e6e6c" stroke="#0e6e6c" stroke-width="1.51"/><path d="M1530,742L1467,770L1533,843Z" fill="#046760" stroke="#046760" stroke-width="1.51"/><path d="M1542,229L1448,228L1459,318Z" fill="#618b8e" stroke="#618b8e" stroke-width="1.51"/><path d="M1448,228L1466,147L1380,217Z" fill="#6c9595" stroke="#6c9595" stroke-width="1.51"/><path d="M1355,-40L1262,-111L1290,-19Z" fill="#8aadab" stroke="#8aadab" stroke-width="1.51"/><path d="M242,42L169,40L258,128Z" fill="#dbd8ea" stroke="#dbd8ea" stroke-width="1.51"/><path d="M244,-47L242,42L333,-26Z" fill="#e0daec" stroke="#e0daec" stroke-width="1.51"/><path d="M1533,843L1467,770L1458,826Z" fill="#04685e" stroke="#04685e" stroke-width="1.51"/><path d="M1542,657L1557,397L1541,589Z" fill="#2a727d" stroke="#2a727d" stroke-width="1.51"/><path d="M1541,589L1557,397L1531,493Z" fill="#337680" stroke="#337680" stroke-width="1.51"/><path d="M1531,493L1557,397L1446,423Z" fill="#3d7d85" stroke="#3d7d85" stroke-width="1.51"/><path d="M310,-108L244,-47L333,-26Z" fill="#e1dded" stroke="#e1dded" stroke-width="1.51"/><path d="M428,-97L310,-108L333,-26Z" fill="#dcdbeb" stroke="#dcdbeb" stroke-width="1.51"/><path d="M673,-120L310,-108L428,-97Z" fill="#d3d8eb" stroke="#d3d8eb" stroke-width="1.51"/><path d="M1290,-19L1262,-111L1204,-27Z" fill="#8bafb1" stroke="#8bafb1" stroke-width="1.51"/><path d="M1204,-92L1262,-111L1094,-98Z" fill="#91b6bb" stroke="#91b6bb" stroke-width="1.51"/><path d="M920,-112L1453,-129L673,-120Z" fill="#9ebed2" stroke="#9ebed2" stroke-width="1.51"/><path d="M1355,-40L1290,-19L1352,67Z" fill="#85a7a6" stroke="#85a7a6" stroke-width="1.51"/><path d="M1434,1010L1464,904L1387,942Z" fill="#01604e" stroke="#01604e" stroke-width="1.51"/><path d="M79,990L171,1001L165,935Z" fill="#7b9a96" stroke="#7b9a96" stroke-width="1.51"/><path d="M165,935L171,1001L226,1001Z" fill="#789895" stroke="#789895" stroke-width="1.51"/><path d="M226,1001L171,1001L492,1033Z" fill="#6e8f8f" stroke="#6e8f8f" stroke-width="1.51"/><path d="M1452,46L1355,-40L1352,67Z" fill="#81a39f" stroke="#81a39f" stroke-width="1.51"/><path d="M1557,397L1558,320L1459,318Z" fill="#518287" stroke="#518287" stroke-width="1.51"/><path d="M-17,388L70,476L76,398Z" fill="#b5c9e1" stroke="#b5c9e1" stroke-width="1.51"/><path d="M4,752L57,844L68,768Z" fill="#8cb0b6" stroke="#8cb0b6" stroke-width="1.51"/><path d="M-17,388L76,398L55,321Z" fill="#becce3" stroke="#becce3" stroke-width="1.51"/><path d="M68,768L57,844L158,843Z" fill="#87acaf" stroke="#87acaf" stroke-width="1.51"/><path d="M4,752L68,768L55,681Z" fill="#90b4c0" stroke="#90b4c0" stroke-width="1.51"/><path d="M1558,320L1542,229L1459,318Z" fill="#5c868a" stroke="#5c868a" stroke-width="1.51"/><path d="M1466,147L1452,46L1352,67Z" fill="#799c99" stroke="#799c99" stroke-width="1.51"/><path d="M-28,590L-6,656L79,559Z" fill="#9ebbda" stroke="#9ebbda" stroke-width="1.51"/><path d="M1541,70L1452,46L1466,147Z" fill="#769693" stroke="#769693" stroke-width="1.51"/><path d="M310,-108L256,-103L244,-47Z" fill="#e4dfee" stroke="#e4dfee" stroke-width="1.51"/><path d="M244,-47L174,-47L242,42Z" fill="#e4dded" stroke="#e4dded" stroke-width="1.51"/><path d="M57,844L82,915L158,843Z" fill="#85a8a7" stroke="#85a8a7" stroke-width="1.51"/><path d="M-12,505L-28,590L79,559Z" fill="#a4bfdc" stroke="#a4bfdc" stroke-width="1.51"/><path d="M-36,338L-17,388L55,321Z" fill="#c3cfe6" stroke="#c3cfe6" stroke-width="1.51"/><path d="M-36,338L55,321L-22,216Z" fill="#cdd3e8" stroke="#cdd3e8" stroke-width="1.51"/><path d="M169,40L65,136L164,168Z" fill="#ddd9ea" stroke="#ddd9ea" stroke-width="1.51"/><path d="M73,46L65,136L169,40Z" fill="#e3dced" stroke="#e3dced" stroke-width="1.51"/><path d="M1542,657L1561,992L1557,397Z" fill="#15696d" stroke="#15696d" stroke-width="1.51"/><path d="M1530,742L1533,843L1542,657Z" fill="#056764" stroke="#056764" stroke-width="1.51"/><path d="M1464,904L1533,843L1458,826Z" fill="#036457" stroke="#036457" stroke-width="1.51"/><path d="M1527,905L1533,843L1464,904Z" fill="#026150" stroke="#026150" stroke-width="1.51"/><path d="M1379,993L1434,1010L1387,942Z" fill="#015f4d" stroke="#015f4d" stroke-width="1.51"/><path d="M1295,1026L1434,1010L1379,993Z" fill="#015e4c" stroke="#015e4c" stroke-width="1.51"/><path d="M1542,229L1522,154L1448,228Z" fill="#698e8e" stroke="#698e8e" stroke-width="1.51"/><path d="M-95,560L-28,590L-12,505Z" fill="#a7c2de" stroke="#a7c2de" stroke-width="1.51"/><path d="M-24,906L79,990L82,915Z" fill="#83a39d" stroke="#83a39d" stroke-width="1.51"/><path d="M-6,656L4,752L55,681Z" fill="#95b6c8" stroke="#95b6c8" stroke-width="1.51"/><path d="M-99,766L4,752L-6,656Z" fill="#94b7c3" stroke="#94b7c3" stroke-width="1.51"/><path d="M256,-103L174,-47L244,-47Z" fill="#e6e0ef" stroke="#e6e0ef" stroke-width="1.51"/><path d="M1561,992L1527,905L1464,904Z" fill="#015a49" stroke="#015a49" stroke-width="1.51"/><path d="M-113,409L-95,508L-12,505Z" fill="#b1cae2" stroke="#b1cae2" stroke-width="1.51"/><path d="M-22,216L55,321L78,220Z" fill="#d1d4e8" stroke="#d1d4e8" stroke-width="1.51"/><path d="M1452,46L1439,-35L1355,-40Z" fill="#82a29d" stroke="#82a29d" stroke-width="1.51"/><path d="M1355,-40L1387,-106L1262,-111Z" fill="#8aada8" stroke="#8aada8" stroke-width="1.51"/><path d="M1559,-21L1439,-35L1452,46Z" fill="#7e9b97" stroke="#7e9b97" stroke-width="1.51"/><path d="M65,136L-22,216L78,220Z" fill="#dad8ea" stroke="#dad8ea" stroke-width="1.51"/><path d="M73,-14L73,46L169,40Z" fill="#e8dfee" stroke="#e8dfee" stroke-width="1.51"/><path d="M-5,857L82,915L57,844Z" fill="#87aaa7" stroke="#87aaa7" stroke-width="1.51"/><path d="M82,915L79,990L165,935Z" fill="#7f9f9b" stroke="#7f9f9b" stroke-width="1.51"/><path d="M1439,-35L1387,-106L1355,-40Z" fill="#86a7a1" stroke="#86a7a1" stroke-width="1.51"/><path d="M-20,128L-22,216L65,136Z" fill="#e0dbec" stroke="#e0dbec" stroke-width="1.51"/><path d="M4,752L-5,857L57,844Z" fill="#8bafb2" stroke="#8bafb2" stroke-width="1.51"/><path d="M-24,906L-5,857L-92,817Z" fill="#8bafac" stroke="#8bafac" stroke-width="1.51"/><path d="M1439,-35L1453,-129L1387,-106Z" fill="#86a69e" stroke="#86a69e" stroke-width="1.51"/><path d="M1522,154L1541,70L1466,147Z" fill="#729291" stroke="#729291" stroke-width="1.51"/><path d="M1542,229L1541,70L1522,154Z" fill="#6e8e8d" stroke="#6e8e8d" stroke-width="1.51"/><path d="M1559,-21L1541,70L1542,229Z" fill="#738f8e" stroke="#738f8e" stroke-width="1.51"/><path d="M-113,409L-12,505L-17,388Z" fill="#b6cce3" stroke="#b6cce3" stroke-width="1.51"/><path d="M-28,590L-123,676L-6,656Z" fill="#9dbcd4" stroke="#9dbcd4" stroke-width="1.51"/><path d="M-113,409L-17,388L-36,338Z" fill="#c1d0e6" stroke="#c1d0e6" stroke-width="1.51"/><path d="M-95,508L-95,560L-12,505Z" fill="#abc6e0" stroke="#abc6e0" stroke-width="1.51"/><path d="M51,-98L73,-14L174,-47Z" fill="#ede4f1" stroke="#ede4f1" stroke-width="1.51"/><path d="M174,-47L73,-14L169,40Z" fill="#e8dfee" stroke="#e8dfee" stroke-width="1.51"/><path d="M73,46L-20,128L65,136Z" fill="#e4dded" stroke="#e4dded" stroke-width="1.51"/><path d="M256,-103L156,-120L174,-47Z" fill="#e9e3f0" stroke="#e9e3f0" stroke-width="1.51"/><path d="M310,-108L156,-120L256,-103Z" fill="#e7e3f0" stroke="#e7e3f0" stroke-width="1.51"/><path d="M673,-120L156,-120L310,-108Z" fill="#dcddec" stroke="#dcddec" stroke-width="1.51"/><path d="M-31,61L-20,128L73,46Z" fill="#e8e0ef" stroke="#e8e0ef" stroke-width="1.51"/><path d="M-117,301L-113,409L-36,338Z" fill="#c7d4e8" stroke="#c7d4e8" stroke-width="1.51"/><path d="M-5,857L-24,906L82,915Z" fill="#87a9a4" stroke="#87a9a4" stroke-width="1.51"/><path d="M-92,817L-5,857L4,752Z" fill="#8db2b4" stroke="#8db2b4" stroke-width="1.51"/><path d="M-95,508L-123,676L-95,560Z" fill="#a6c2de" stroke="#a6c2de" stroke-width="1.51"/><path d="M-117,301L-36,338L-22,216Z" fill="#d1d7e9" stroke="#d1d7e9" stroke-width="1.51"/><path d="M1434,1010L1561,992L1464,904Z" fill="#015947" stroke="#015947" stroke-width="1.51"/><path d="M1527,905L1561,992L1533,843Z" fill="#015b4a" stroke="#015b4a" stroke-width="1.51"/><path d="M1533,843L1561,992L1542,657Z" fill="#036155" stroke="#036155" stroke-width="1.51"/><path d="M1557,397L1561,992L1558,320Z" fill="#266f7b" stroke="#266f7b" stroke-width="1.51"/><path d="M-123,676L-99,766L-6,656Z" fill="#98baca" stroke="#98baca" stroke-width="1.51"/><path d="M-123,676L-28,590L-95,560Z" fill="#a2bfda" stroke="#a2bfda" stroke-width="1.51"/><path d="M1524,-101L1453,-129L1439,-35Z" fill="#84a19a" stroke="#84a19a" stroke-width="1.51"/><path d="M1387,-106L1453,-129L1262,-111Z" fill="#8bada5" stroke="#8bada5" stroke-width="1.51"/><path d="M1262,-111L1453,-129L920,-112Z" fill="#91b6b8" stroke="#91b6b8" stroke-width="1.51"/><path d="M673,-120L-2,-122L156,-120Z" fill="#e6e2f0" stroke="#e6e2f0" stroke-width="1.51"/><path d="M-113,409L-123,676L-95,508Z" fill="#acc7e0" stroke="#acc7e0" stroke-width="1.51"/><path d="M-113,409L-122,249L-123,676Z" fill="#b7cfe5" stroke="#b7cfe5" stroke-width="1.51"/><path d="M-122,249L-117,301L-22,216Z" fill="#d6daeb" stroke="#d6daeb" stroke-width="1.51"/><path d="M-97,909L-92,817L-99,766Z" fill="#8fb3b2" stroke="#8fb3b2" stroke-width="1.51"/><path d="M-99,766L-92,817L4,752Z" fill="#90b5ba" stroke="#90b5ba" stroke-width="1.51"/><path d="M-111,149L-122,249L-22,216Z" fill="#dddded" stroke="#dddded" stroke-width="1.51"/><path d="M-1,-21L-31,61L73,46Z" fill="#ebe3f1" stroke="#ebe3f1" stroke-width="1.51"/><path d="M-1,-21L73,46L73,-14Z" fill="#ede2f1" stroke="#ede2f1" stroke-width="1.51"/><path d="M1541,70L1559,-21L1452,46Z" fill="#799692" stroke="#799692" stroke-width="1.51"/><path d="M1558,320L1559,-21L1542,229Z" fill="#6a8a8b" stroke="#6a8a8b" stroke-width="1.51"/><path d="M1561,992L1559,-21L1558,320Z" fill="#3d7a82" stroke="#3d7a82" stroke-width="1.51"/><path d="M-117,301L-122,249L-113,409Z" fill="#ced7e9" stroke="#ced7e9" stroke-width="1.51"/><path d="M-111,149L-22,216L-20,128Z" fill="#e1deed" stroke="#e1deed" stroke-width="1.51"/><path d="M-112,73L-111,149L-20,128Z" fill="#e7e2f0" stroke="#e7e2f0" stroke-width="1.51"/><path d="M51,-98L-1,-21L73,-14Z" fill="#f0e6f3" stroke="#f0e6f3" stroke-width="1.51"/><path d="M156,-120L51,-98L174,-47Z" fill="#eee6f1" stroke="#eee6f1" stroke-width="1.51"/><path d="M1559,-21L1524,-101L1439,-35Z" fill="#809c96" stroke="#809c96" stroke-width="1.51"/><path d="M-97,909L-31,1014L-24,906Z" fill="#86a69f" stroke="#86a69f" stroke-width="1.51"/><path d="M-24,906L-31,1014L79,990Z" fill="#82a09a" stroke="#82a09a" stroke-width="1.51"/><path d="M79,990L-31,1014L171,1001Z" fill="#7d9994" stroke="#7d9994" stroke-width="1.51"/><path d="M171,1001L-108,1030L492,1033Z" fill="#75918f" stroke="#75918f" stroke-width="1.51"/><path d="M-112,73L-20,128L-31,61Z" fill="#e9e3f0" stroke="#e9e3f0" stroke-width="1.51"/><path d="M-92,817L-97,909L-24,906Z" fill="#8cafa9" stroke="#8cafa9" stroke-width="1.51"/><path d="M-123,676L-97,909L-99,766Z" fill="#92b7bb" stroke="#92b7bb" stroke-width="1.51"/><path d="M-119,-30L-112,73L-31,61Z" fill="#efe7f2" stroke="#efe7f2" stroke-width="1.51"/><path d="M-111,149L-112,73L-122,249Z" fill="#e4e2ef" stroke="#e4e2ef" stroke-width="1.51"/><path d="M-119,-30L-31,61L-1,-21Z" fill="#f1e7f3" stroke="#f1e7f3" stroke-width="1.51"/><path d="M51,-98L-2,-122L-1,-21Z" fill="#f3eaf4" stroke="#f3eaf4" stroke-width="1.51"/><path d="M156,-120L-2,-122L51,-98Z" fill="#f3e9f4" stroke="#f3e9f4" stroke-width="1.51"/><path d="M1453,-129L-2,-122L673,-120Z" fill="#b7cee5" stroke="#b7cee5" stroke-width="1.51"/><path d="M-97,909L-108,1030L-31,1014Z" fill="#84a29a" stroke="#84a29a" stroke-width="1.51"/><path d="M-31,1014L-108,1030L171,1001Z" fill="#7f9a94" stroke="#7f9a94" stroke-width="1.51"/><path d="M-123,676L-108,1030L-97,909Z" fill="#8db1ab" stroke="#8db1ab" stroke-width="1.51"/><path d="M-81,-100L-119,-30L-1,-21Z" fill="#f5ebf5" stroke="#f5ebf5" stroke-width="1.51"/><path d="M-112,73L-119,-30L-122,249Z" fill="#ebe5f1" stroke="#ebe5f1" stroke-width="1.51"/><path d="M-2,-122L-81,-100L-1,-21Z" fill="#f5ecf5" stroke="#f5ecf5" stroke-width="1.51"/></svg>