<svg xmlns="http://www.w3.org/2000/svg" width="1440" height="900"><path d="M751,474L768,559L829,481Z" fill="#f5fbaf" stroke="#f5fbaf" stroke-width="1.51"/><path d="M768,559L853,595L829,481Z" fill="#eef8a5" stroke="#eef8a5" stroke-width="1.51"/><path d="M751,474L667,514L768,559Z" fill="#f8fdb4" stroke="#f8fdb4" stroke-width="1.51"/><path d="M829,481L755,394L751,474Z" fill="#fbfeb9" stroke="#fbfeb9" stroke-width="1.51"/><path d="M751,474L686,388L667,514Z" fill="#fefdba" stroke="#fefdba" stroke-width="1.51"/><path d="M768,559L776,644L853,595Z" fill="#e7f5a4" stroke="#e7f5a4" stroke-width="1.51"/><path d="M670,598L776,644L768,559Z" fill="#eaf7ab" stroke="#eaf7ab" stroke-width="1.51"/><path d="M829,481L871,403L755,394Z" fill="#f8f9af" stroke="#f8f9af" stroke-width="1.51"/><path d="M932,481L871,403L829,481Z" fill="#f3fbad" stroke="#f3fbad" stroke-width="1.51"/><path d="M667,514L670,598L768,559Z" fill="#f4f9ab" stroke="#f4f9ab" stroke-width="1.51"/><path d="M853,595L932,481L829,481Z" fill="#edf8a3" stroke="#edf8a3" stroke-width="1.51"/><path d="M755,394L686,388L751,474Z" fill="#fefab7" stroke="#fefab7" stroke-width="1.51"/><path d="M680,332L686,388L755,394Z" fill="#fff4ac" stroke="#fff4ac" stroke-width="1.51"/><path d="M776,644L854,662L853,595Z" fill="#dcf1a2" stroke="#dcf1a2" stroke-width="1.51"/><path d="M853,595L953,578L932,481Z" fill="#e5f59b" stroke="#e5f59b" stroke-width="1.51"/><path d="M933,684L953,578L853,595Z" fill="#d7ee9c" stroke="#d7ee9c" stroke-width="1.51"/><path d="M670,598L675,651L776,644Z" fill="#e5f3ac" stroke="#e5f3ac" stroke-width="1.51"/><path d="M776,644L851,750L854,662Z" fill="#d0eca5" stroke="#d0eca5" stroke-width="1.51"/><path d="M932,481L952,422L871,403Z" fill="#eff6a9" stroke="#eff6a9" stroke-width="1.51"/><path d="M1025,477L952,422L932,481Z" fill="#e5f4ad" stroke="#e5f4ad" stroke-width="1.51"/><path d="M850,304L766,315L755,394Z" fill="#faef9f" stroke="#faef9f" stroke-width="1.51"/><path d="M850,304L755,394L871,403Z" fill="#f8f2a1" stroke="#f8f2a1" stroke-width="1.51"/><path d="M670,598L597,590L675,651Z" fill="#e9f0a2" stroke="#e9f0a2" stroke-width="1.51"/><path d="M667,514L597,590L670,598Z" fill="#f3f3a1" stroke="#f3f3a1" stroke-width="1.51"/><path d="M574,482L597,590L667,514Z" fill="#f7f3a2" stroke="#f7f3a2" stroke-width="1.51"/><path d="M569,421L574,482L667,514Z" fill="#fdf3aa" stroke="#fdf3aa" stroke-width="1.51"/><path d="M766,315L680,332L755,394Z" fill="#fef1a7" stroke="#fef1a7" stroke-width="1.51"/><path d="M569,421L667,514L686,388Z" fill="#fff7b1" stroke="#fff7b1" stroke-width="1.51"/><path d="M944,337L850,304L871,403Z" fill="#f3ed96" stroke="#f3ed96" stroke-width="1.51"/><path d="M854,662L933,684L853,595Z" fill="#d5ee9e" stroke="#d5ee9e" stroke-width="1.51"/><path d="M851,750L933,684L854,662Z" fill="#c9e8a0" stroke="#c9e8a0" stroke-width="1.51"/><path d="M953,578L1025,477L932,481Z" fill="#dff2a4" stroke="#dff2a4" stroke-width="1.51"/><path d="M933,684L1006,582L953,578Z" fill="#d0ec9d" stroke="#d0ec9d" stroke-width="1.51"/><path d="M952,422L944,337L871,403Z" fill="#eef09f" stroke="#eef09f" stroke-width="1.51"/><path d="M1042,399L944,337L952,422Z" fill="#e5eca0" stroke="#e5eca0" stroke-width="1.51"/><path d="M610,314L569,421L686,388Z" fill="#ffeca0" stroke="#ffeca0" stroke-width="1.51"/><path d="M1006,582L1025,477L953,578Z" fill="#d8efa0" stroke="#d8efa0" stroke-width="1.51"/><path d="M675,651L743,751L776,644Z" fill="#d7efaf" stroke="#d7efaf" stroke-width="1.51"/><path d="M664,771L743,751L675,651Z" fill="#cee8ad" stroke="#cee8ad" stroke-width="1.51"/><path d="M743,751L851,750L776,644Z" fill="#cbeaaa" stroke="#cbeaaa" stroke-width="1.51"/><path d="M597,590L572,660L675,651Z" fill="#e4eb9e" stroke="#e4eb9e" stroke-width="1.51"/><path d="M515,587L572,660L597,590Z" fill="#e9e896" stroke="#e9e896" stroke-width="1.51"/><path d="M515,587L597,590L574,482Z" fill="#f4ed96" stroke="#f4ed96" stroke-width="1.51"/><path d="M680,332L610,314L686,388Z" fill="#ffec9f" stroke="#ffec9f" stroke-width="1.51"/><path d="M693,225L610,314L680,332Z" fill="#ffe295" stroke="#ffe295" stroke-width="1.51"/><path d="M693,225L680,332L766,315Z" fill="#ffe79d" stroke="#ffe79d" stroke-width="1.51"/><path d="M850,304L837,249L766,315Z" fill="#f9e593" stroke="#f9e593" stroke-width="1.51"/><path d="M927,213L837,249L850,304Z" fill="#f5dc87" stroke="#f5dc87" stroke-width="1.51"/><path d="M837,249L776,243L766,315Z" fill="#fbe192" stroke="#fbe192" stroke-width="1.51"/><path d="M1025,477L1042,399L952,422Z" fill="#e0f0ac" stroke="#e0f0ac" stroke-width="1.51"/><path d="M944,337L927,213L850,304Z" fill="#f1e18a" stroke="#f1e18a" stroke-width="1.51"/><path d="M1088,475L1042,399L1025,477Z" fill="#d8efb1" stroke="#d8efb1" stroke-width="1.51"/><path d="M500,484L515,587L574,482Z" fill="#f8ea98" stroke="#f8ea98" stroke-width="1.51"/><path d="M582,751L664,771L675,651Z" fill="#cfe4a6" stroke="#cfe4a6" stroke-width="1.51"/><path d="M743,751L742,823L851,750Z" fill="#bde4ac" stroke="#bde4ac" stroke-width="1.51"/><path d="M569,421L500,484L574,482Z" fill="#feefa3" stroke="#feefa3" stroke-width="1.51"/><path d="M490,414L500,484L569,421Z" fill="#ffea9f" stroke="#ffea9f" stroke-width="1.51"/><path d="M933,684L1037,662L1006,582Z" fill="#c5e79f" stroke="#c5e79f" stroke-width="1.51"/><path d="M1006,582L1088,475L1025,477Z" fill="#d3eea7" stroke="#d3eea7" stroke-width="1.51"/><path d="M1035,735L1037,662L933,684Z" fill="#b6e1a2" stroke="#b6e1a2" stroke-width="1.51"/><path d="M851,750L940,765L933,684Z" fill="#bce39f" stroke="#bce39f" stroke-width="1.51"/><path d="M916,824L940,765L851,750Z" fill="#b2dea0" stroke="#b2dea0" stroke-width="1.51"/><path d="M762,154L693,225L776,243Z" fill="#ffd68d" stroke="#ffd68d" stroke-width="1.51"/><path d="M776,243L693,225L766,315Z" fill="#fee196" stroke="#fee196" stroke-width="1.51"/><path d="M1127,579L1088,475L1006,582Z" fill="#cae9a2" stroke="#cae9a2" stroke-width="1.51"/><path d="M511,333L490,414L569,421Z" fill="#ffe495" stroke="#ffe495" stroke-width="1.51"/><path d="M511,333L569,421L610,314Z" fill="#ffe594" stroke="#ffe594" stroke-width="1.51"/><path d="M664,771L742,823L743,751Z" fill="#bfe4b2" stroke="#bfe4b2" stroke-width="1.51"/><path d="M664,771L688,860L742,823Z" fill="#b7ddaf" stroke="#b7ddaf" stroke-width="1.51"/><path d="M572,660L582,751L675,651Z" fill="#d8e5a1" stroke="#d8e5a1" stroke-width="1.51"/><path d="M522,756L582,751L572,660Z" fill="#d0dc99" stroke="#d0dc99" stroke-width="1.51"/><path d="M742,823L847,831L851,750Z" fill="#b4dfa8" stroke="#b4dfa8" stroke-width="1.51"/><path d="M1042,399L1043,307L944,337Z" fill="#e0e59a" stroke="#e0e59a" stroke-width="1.51"/><path d="M1124,327L1043,307L1042,399Z" fill="#d6e09b" stroke="#d6e09b" stroke-width="1.51"/><path d="M519,248L511,333L610,314Z" fill="#feda85" stroke="#feda85" stroke-width="1.51"/><path d="M1009,213L927,213L944,337Z" fill="#ead787" stroke="#ead787" stroke-width="1.51"/><path d="M837,249L762,154L776,243Z" fill="#fcd689" stroke="#fcd689" stroke-width="1.51"/><path d="M693,225L596,237L610,314Z" fill="#ffd98b" stroke="#ffd98b" stroke-width="1.51"/><path d="M1037,662L1127,579L1006,582Z" fill="#c2e6a0" stroke="#c2e6a0" stroke-width="1.51"/><path d="M940,765L1035,735L933,684Z" fill="#b3dfa1" stroke="#b3dfa1" stroke-width="1.51"/><path d="M1016,835L1035,735L940,765Z" fill="#a1d8a2" stroke="#a1d8a2" stroke-width="1.51"/><path d="M847,831L916,824L851,750Z" fill="#b0dda2" stroke="#b0dda2" stroke-width="1.51"/><path d="M515,587L495,684L572,660Z" fill="#e2e193" stroke="#e2e193" stroke-width="1.51"/><path d="M438,565L495,684L515,587Z" fill="#eadd8b" stroke="#eadd8b" stroke-width="1.51"/><path d="M438,565L515,587L500,484Z" fill="#f6e38e" stroke="#f6e38e" stroke-width="1.51"/><path d="M1088,475L1110,402L1042,399Z" fill="#d3eaac" stroke="#d3eaac" stroke-width="1.51"/><path d="M1187,497L1110,402L1088,475Z" fill="#cae9b0" stroke="#cae9b0" stroke-width="1.51"/><path d="M1108,680L1127,579L1037,662Z" fill="#b4e0a2" stroke="#b4e0a2" stroke-width="1.51"/><path d="M397,507L438,565L500,484Z" fill="#f9de8d" stroke="#f9de8d" stroke-width="1.51"/><path d="M430,405L500,484L490,414Z" fill="#ffe398" stroke="#ffe398" stroke-width="1.51"/><path d="M693,225L668,159L596,237Z" fill="#ffd086" stroke="#ffd086" stroke-width="1.51"/><path d="M861,137L762,154L837,249Z" fill="#facd80" stroke="#facd80" stroke-width="1.51"/><path d="M585,823L688,860L664,771Z" fill="#b8d9a8" stroke="#b8d9a8" stroke-width="1.51"/><path d="M495,684L522,756L572,660Z" fill="#d6db96" stroke="#d6db96" stroke-width="1.51"/><path d="M421,758L522,756L495,684Z" fill="#cfd18f" stroke="#cfd18f" stroke-width="1.51"/><path d="M742,823L759,928L847,831Z" fill="#aed2b1" stroke="#aed2b1" stroke-width="1.51"/><path d="M949,924L1016,835L916,824Z" fill="#9acaa7" stroke="#9acaa7" stroke-width="1.51"/><path d="M585,823L664,771L582,751Z" fill="#c1daa2" stroke="#c1daa2" stroke-width="1.51"/><path d="M1035,735L1108,680L1037,662Z" fill="#acdda4" stroke="#acdda4" stroke-width="1.51"/><path d="M762,154L668,159L693,225Z" fill="#ffce8a" stroke="#ffce8a" stroke-width="1.51"/><path d="M1043,307L1009,213L944,337Z" fill="#e3db8e" stroke="#e3db8e" stroke-width="1.51"/><path d="M927,213L861,137L837,249Z" fill="#f6d17d" stroke="#f6d17d" stroke-width="1.51"/><path d="M1122,244L1009,213L1043,307Z" fill="#dbd08b" stroke="#dbd08b" stroke-width="1.51"/><path d="M522,756L585,823L582,751Z" fill="#c3d79b" stroke="#c3d79b" stroke-width="1.51"/><path d="M511,333L430,405L490,414Z" fill="#ffdd8e" stroke="#ffdd8e" stroke-width="1.51"/><path d="M399,315L430,405L511,333Z" fill="#ffd583" stroke="#ffd583" stroke-width="1.51"/><path d="M519,248L610,314L596,237Z" fill="#ffd684" stroke="#ffd684" stroke-width="1.51"/><path d="M489,152L519,248L596,237Z" fill="#fec675" stroke="#fec675" stroke-width="1.51"/><path d="M952,162L861,137L927,213Z" fill="#f1c878" stroke="#f1c878" stroke-width="1.51"/><path d="M696,45L600,138L668,159Z" fill="#ffb979" stroke="#ffb979" stroke-width="1.51"/><path d="M1176,339L1124,327L1110,402Z" fill="#cbdd9e" stroke="#cbdd9e" stroke-width="1.51"/><path d="M1110,402L1124,327L1042,399Z" fill="#d2e3a2" stroke="#d2e3a2" stroke-width="1.51"/><path d="M1009,213L952,162L927,213Z" fill="#eacb7d" stroke="#eacb7d" stroke-width="1.51"/><path d="M430,405L397,507L500,484Z" fill="#ffe095" stroke="#ffe095" stroke-width="1.51"/><path d="M438,565L407,681L495,684Z" fill="#e4d688" stroke="#e4d688" stroke-width="1.51"/><path d="M1035,735L1127,767L1108,680Z" fill="#9dd7a4" stroke="#9dd7a4" stroke-width="1.51"/><path d="M916,824L1016,835L940,765Z" fill="#a1d7a1" stroke="#a1d7a1" stroke-width="1.51"/><path d="M949,924L916,824L847,831Z" fill="#a4cea5" stroke="#a4cea5" stroke-width="1.51"/><path d="M1127,579L1187,497L1088,475Z" fill="#c3e6a7" stroke="#c3e6a7" stroke-width="1.51"/><path d="M1192,579L1187,497L1127,579Z" fill="#bae2a2" stroke="#bae2a2" stroke-width="1.51"/><path d="M1179,652L1192,579L1127,579Z" fill="#b0dea0" stroke="#b0dea0" stroke-width="1.51"/><path d="M1179,652L1127,579L1108,680Z" fill="#acdda2" stroke="#acdda2" stroke-width="1.51"/><path d="M339,560L407,681L438,565Z" fill="#edd280" stroke="#edd280" stroke-width="1.51"/><path d="M522,756L490,854L585,823Z" fill="#bbd097" stroke="#bbd097" stroke-width="1.51"/><path d="M1204,739L1179,652L1108,680Z" fill="#9ad5a5" stroke="#9ad5a5" stroke-width="1.51"/><path d="M696,45L668,159L762,154Z" fill="#ffbf82" stroke="#ffbf82" stroke-width="1.51"/><path d="M668,159L600,138L596,237Z" fill="#ffc67c" stroke="#ffc67c" stroke-width="1.51"/><path d="M688,860L759,928L742,823Z" fill="#b0d1b8" stroke="#b0d1b8" stroke-width="1.51"/><path d="M673,918L759,928L688,860Z" fill="#adc9ba" stroke="#adc9ba" stroke-width="1.51"/><path d="M585,908L688,860L585,823Z" fill="#b4cbaa" stroke="#b4cbaa" stroke-width="1.51"/><path d="M585,908L673,918L688,860Z" fill="#afc5b1" stroke="#afc5b1" stroke-width="1.51"/><path d="M1209,413L1176,339L1110,402Z" fill="#c6dea4" stroke="#c6dea4" stroke-width="1.51"/><path d="M1124,327L1122,244L1043,307Z" fill="#d3d591" stroke="#d3d591" stroke-width="1.51"/><path d="M1009,213L1020,134L952,162Z" fill="#e5c27b" stroke="#e5c27b" stroke-width="1.51"/><path d="M1109,835L1127,767L1035,735Z" fill="#8fd1a5" stroke="#8fd1a5" stroke-width="1.51"/><path d="M759,928L828,935L847,831Z" fill="#a7c8b2" stroke="#a7c8b2" stroke-width="1.51"/><path d="M1176,339L1122,244L1124,327Z" fill="#ccd494" stroke="#ccd494" stroke-width="1.51"/><path d="M1262,393L1209,413L1291,474Z" fill="#b7dbae" stroke="#b7dbae" stroke-width="1.51"/><path d="M1187,497L1209,413L1110,402Z" fill="#c4e5b0" stroke="#c4e5b0" stroke-width="1.51"/><path d="M416,234L511,333L519,248Z" fill="#fecb79" stroke="#fecb79" stroke-width="1.51"/><path d="M416,234L399,315L511,333Z" fill="#feca78" stroke="#feca78" stroke-width="1.51"/><path d="M430,405L334,476L397,507Z" fill="#ffd88f" stroke="#ffd88f" stroke-width="1.51"/><path d="M407,681L421,758L495,684Z" fill="#d6ce8b" stroke="#d6ce8b" stroke-width="1.51"/><path d="M952,162L947,81L861,137Z" fill="#f0bc72" stroke="#f0bc72" stroke-width="1.51"/><path d="M861,137L832,54L762,154Z" fill="#fabd78" stroke="#fabd78" stroke-width="1.51"/><path d="M1089,140L1020,134L1009,213Z" fill="#debe7b" stroke="#debe7b" stroke-width="1.51"/><path d="M828,935L949,924L847,831Z" fill="#a4c6ab" stroke="#a4c6ab" stroke-width="1.51"/><path d="M1016,835L1109,835L1035,735Z" fill="#90d1a4" stroke="#90d1a4" stroke-width="1.51"/><path d="M490,854L585,908L585,823Z" fill="#b5c5a0" stroke="#b5c5a0" stroke-width="1.51"/><path d="M742,1025L828,935L759,928Z" fill="#a8b9b7" stroke="#a8b9b7" stroke-width="1.51"/><path d="M397,507L339,560L438,565Z" fill="#f7d583" stroke="#f7d583" stroke-width="1.51"/><path d="M320,771L412,824L421,758Z" fill="#c6be85" stroke="#c6be85" stroke-width="1.51"/><path d="M334,476L339,560L397,507Z" fill="#fad183" stroke="#fad183" stroke-width="1.51"/><path d="M421,758L490,854L522,756Z" fill="#c2cb90" stroke="#c2cb90" stroke-width="1.51"/><path d="M326,409L334,476L430,405Z" fill="#ffd28a" stroke="#ffd28a" stroke-width="1.51"/><path d="M1097,918L1109,835L1016,835Z" fill="#83c3ab" stroke="#83c3ab" stroke-width="1.51"/><path d="M1127,767L1204,739L1108,680Z" fill="#93d2a5" stroke="#93d2a5" stroke-width="1.51"/><path d="M1020,134L947,81L952,162Z" fill="#e9b974" stroke="#e9b974" stroke-width="1.51"/><path d="M947,81L832,54L861,137Z" fill="#f5b66e" stroke="#f5b66e" stroke-width="1.51"/><path d="M949,924L1009,914L1016,835Z" fill="#90c1ab" stroke="#90c1ab" stroke-width="1.51"/><path d="M342,338L326,409L430,405Z" fill="#ffcd81" stroke="#ffcd81" stroke-width="1.51"/><path d="M489,152L416,234L519,248Z" fill="#febd6d" stroke="#febd6d" stroke-width="1.51"/><path d="M600,138L489,152L596,237Z" fill="#fec074" stroke="#fec074" stroke-width="1.51"/><path d="M511,81L489,152L600,138Z" fill="#fdb069" stroke="#fdb069" stroke-width="1.51"/><path d="M832,54L773,41L762,154Z" fill="#fbb678" stroke="#fbb678" stroke-width="1.51"/><path d="M247,564L323,686L339,560Z" fill="#eec377" stroke="#eec377" stroke-width="1.51"/><path d="M342,338L430,405L399,315Z" fill="#ffcd7d" stroke="#ffcd7d" stroke-width="1.51"/><path d="M773,41L696,45L762,154Z" fill="#feb67d" stroke="#feb67d" stroke-width="1.51"/><path d="M1197,846L1204,739L1127,767Z" fill="#7dcaa5" stroke="#7dcaa5" stroke-width="1.51"/><path d="M1179,652L1266,587L1192,579Z" fill="#a7daa1" stroke="#a7daa1" stroke-width="1.51"/><path d="M1192,579L1266,587L1187,497Z" fill="#b1dea2" stroke="#b1dea2" stroke-width="1.51"/><path d="M339,214L342,338L399,315Z" fill="#febd6d" stroke="#febd6d" stroke-width="1.51"/><path d="M1122,244L1089,140L1009,213Z" fill="#d9c481" stroke="#d9c481" stroke-width="1.51"/><path d="M1020,134L1005,74L947,81Z" fill="#e6b071" stroke="#e6b071" stroke-width="1.51"/><path d="M1182,163L1089,140L1122,244Z" fill="#d1bc80" stroke="#d1bc80" stroke-width="1.51"/><path d="M1181,225L1122,244L1176,339Z" fill="#cacc8e" stroke="#cacc8e" stroke-width="1.51"/><path d="M1268,666L1266,587L1179,652Z" fill="#9bd5a2" stroke="#9bd5a2" stroke-width="1.51"/><path d="M1262,393L1176,339L1209,413Z" fill="#bddaa4" stroke="#bddaa4" stroke-width="1.51"/><path d="M1288,335L1181,225L1176,339Z" fill="#c0ce94" stroke="#c0ce94" stroke-width="1.51"/><path d="M947,81L858,-9L832,54Z" fill="#efad70" stroke="#efad70" stroke-width="1.51"/><path d="M832,54L858,-9L773,41Z" fill="#f2ac77" stroke="#f2ac77" stroke-width="1.51"/><path d="M1089,140L1005,74L1020,134Z" fill="#dfb375" stroke="#dfb375" stroke-width="1.51"/><path d="M421,758L412,824L490,854Z" fill="#bec38c" stroke="#bec38c" stroke-width="1.51"/><path d="M490,854L513,945L585,908Z" fill="#b1b8a1" stroke="#b1b8a1" stroke-width="1.51"/><path d="M323,686L421,758L407,681Z" fill="#d7c684" stroke="#d7c684" stroke-width="1.51"/><path d="M1291,474L1209,413L1187,497Z" fill="#b8e1b0" stroke="#b8e1b0" stroke-width="1.51"/><path d="M247,564L339,560L334,476Z" fill="#f8c87c" stroke="#f8c87c" stroke-width="1.51"/><path d="M339,560L323,686L407,681Z" fill="#e5c97e" stroke="#e5c97e" stroke-width="1.51"/><path d="M489,152L428,165L416,234Z" fill="#fdb266" stroke="#fdb266" stroke-width="1.51"/><path d="M416,234L339,214L399,315Z" fill="#feb96a" stroke="#feb96a" stroke-width="1.51"/><path d="M400,53L428,165L489,152Z" fill="#fba25e" stroke="#fba25e" stroke-width="1.51"/><path d="M696,45L572,57L600,138Z" fill="#fdae71" stroke="#fdae71" stroke-width="1.51"/><path d="M1266,587L1291,474L1187,497Z" fill="#b0dca8" stroke="#b0dca8" stroke-width="1.51"/><path d="M1266,587L1349,588L1291,474Z" fill="#a9d1a8" stroke="#a9d1a8" stroke-width="1.51"/><path d="M1204,739L1268,666L1179,652Z" fill="#91d1a4" stroke="#91d1a4" stroke-width="1.51"/><path d="M828,935L845,1015L949,924Z" fill="#a2b7ad" stroke="#a2b7ad" stroke-width="1.51"/><path d="M949,924L1041,1004L1009,914Z" fill="#8bb2af" stroke="#8bb2af" stroke-width="1.51"/><path d="M742,1025L845,1015L828,935Z" fill="#a9b0b1" stroke="#a9b0b1" stroke-width="1.51"/><path d="M742,1025L759,928L673,918Z" fill="#aabbbd" stroke="#aabbbd" stroke-width="1.51"/><path d="M572,57L511,81L600,138Z" fill="#fcab68" stroke="#fcab68" stroke-width="1.51"/><path d="M1204,739L1262,772L1268,666Z" fill="#81caa5" stroke="#81caa5" stroke-width="1.51"/><path d="M1109,835L1197,846L1127,767Z" fill="#7bc8a6" stroke="#7bc8a6" stroke-width="1.51"/><path d="M1009,914L1097,918L1016,835Z" fill="#87bead" stroke="#87bead" stroke-width="1.51"/><path d="M1041,1004L1097,918L1009,914Z" fill="#81afb0" stroke="#81afb0" stroke-width="1.51"/><path d="M670,1023L742,1025L673,918Z" fill="#aeb1b6" stroke="#aeb1b6" stroke-width="1.51"/><path d="M427,914L513,945L490,854Z" fill="#b2b19b" stroke="#b2b19b" stroke-width="1.51"/><path d="M670,1023L673,918L585,908Z" fill="#acb7b3" stroke="#acb7b3" stroke-width="1.51"/><path d="M753,-35L679,-15L696,45Z" fill="#f5a881" stroke="#f5a881" stroke-width="1.51"/><path d="M696,45L583,-5L572,57Z" fill="#f7a673" stroke="#f7a673" stroke-width="1.51"/><path d="M941,-47L858,-9L947,81Z" fill="#e7a671" stroke="#e7a671" stroke-width="1.51"/><path d="M572,1027L670,1023L585,908Z" fill="#b0abaa" stroke="#b0abaa" stroke-width="1.51"/><path d="M1089,140L1123,72L1005,74Z" fill="#daab73" stroke="#daab73" stroke-width="1.51"/><path d="M1005,74L941,-47L947,81Z" fill="#e3a771" stroke="#e3a771" stroke-width="1.51"/><path d="M1181,225L1182,163L1122,244Z" fill="#cbc084" stroke="#cbc084" stroke-width="1.51"/><path d="M1266,130L1182,163L1181,225Z" fill="#c5b47f" stroke="#c5b47f" stroke-width="1.51"/><path d="M1288,335L1176,339L1262,393Z" fill="#bad49f" stroke="#bad49f" stroke-width="1.51"/><path d="M1097,918L1197,846L1109,835Z" fill="#77bdab" stroke="#77bdab" stroke-width="1.51"/><path d="M1358,403L1288,335L1262,393Z" fill="#b5cca9" stroke="#b5cca9" stroke-width="1.51"/><path d="M412,824L427,914L490,854Z" fill="#b8b692" stroke="#b8b692" stroke-width="1.51"/><path d="M323,686L320,771L421,758Z" fill="#d0bf81" stroke="#d0bf81" stroke-width="1.51"/><path d="M233,741L320,771L323,686Z" fill="#d2b57b" stroke="#d2b57b" stroke-width="1.51"/><path d="M326,409L261,410L334,476Z" fill="#ffc885" stroke="#ffc885" stroke-width="1.51"/><path d="M342,338L261,410L326,409Z" fill="#ffc37b" stroke="#ffc37b" stroke-width="1.51"/><path d="M240,310L261,410L342,338Z" fill="#feba72" stroke="#feba72" stroke-width="1.51"/><path d="M753,-35L696,45L773,41Z" fill="#f6ac80" stroke="#f6ac80" stroke-width="1.51"/><path d="M572,57L486,-39L511,81Z" fill="#f59c66" stroke="#f59c66" stroke-width="1.51"/><path d="M428,165L339,214L416,234Z" fill="#fdb063" stroke="#fdb063" stroke-width="1.51"/><path d="M345,128L339,214L428,165Z" fill="#fca45b" stroke="#fca45b" stroke-width="1.51"/><path d="M513,945L572,1027L585,908Z" fill="#aeada6" stroke="#aeada6" stroke-width="1.51"/><path d="M333,846L427,914L412,824Z" fill="#bab08c" stroke="#bab08c" stroke-width="1.51"/><path d="M845,1015L931,1032L949,924Z" fill="#a1aea8" stroke="#a1aea8" stroke-width="1.51"/><path d="M742,1025L931,1032L845,1015Z" fill="#aaa8aa" stroke="#aaa8aa" stroke-width="1.51"/><path d="M492,1033L931,1032L742,1025Z" fill="#b1a9b6" stroke="#b1a9b6" stroke-width="1.51"/><path d="M1197,846L1262,772L1204,739Z" fill="#73c6a5" stroke="#73c6a5" stroke-width="1.51"/><path d="M1268,666L1349,588L1266,587Z" fill="#9ccda6" stroke="#9ccda6" stroke-width="1.51"/><path d="M233,497L247,564L334,476Z" fill="#fac27c" stroke="#fac27c" stroke-width="1.51"/><path d="M858,-9L753,-35L773,41Z" fill="#f0a87b" stroke="#f0a87b" stroke-width="1.51"/><path d="M1182,163L1123,72L1089,140Z" fill="#d2ae78" stroke="#d2ae78" stroke-width="1.51"/><path d="M261,410L233,497L334,476Z" fill="#ffc584" stroke="#ffc584" stroke-width="1.51"/><path d="M931,1032L1041,1004L949,924Z" fill="#94abaa" stroke="#94abaa" stroke-width="1.51"/><path d="M1186,937L1260,841L1197,846Z" fill="#63b5ac" stroke="#63b5ac" stroke-width="1.51"/><path d="M679,-15L583,-5L696,45Z" fill="#f5a579" stroke="#f5a579" stroke-width="1.51"/><path d="M400,53L345,128L428,165Z" fill="#fb9957" stroke="#fb9957" stroke-width="1.51"/><path d="M611,-108L583,-5L679,-15Z" fill="#ed9a76" stroke="#ed9a76" stroke-width="1.51"/><path d="M670,1023L572,1027L742,1025Z" fill="#b1a5ae" stroke="#b1a5ae" stroke-width="1.51"/><path d="M492,1033L572,1027L513,945Z" fill="#b29f9e" stroke="#b29f9e" stroke-width="1.51"/><path d="M320,771L333,846L412,824Z" fill="#c0b782" stroke="#c0b782" stroke-width="1.51"/><path d="M437,1008L492,1033L513,945Z" fill="#b29a99" stroke="#b29a99" stroke-width="1.51"/><path d="M261,826L333,846L320,771Z" fill="#c0ae7d" stroke="#c0ae7d" stroke-width="1.51"/><path d="M1386,651L1349,588L1268,666Z" fill="#93c4aa" stroke="#93c4aa" stroke-width="1.51"/><path d="M1291,474L1358,403L1262,393Z" fill="#b3d2b2" stroke="#b3d2b2" stroke-width="1.51"/><path d="M1349,588L1360,471L1291,474Z" fill="#aacdb0" stroke="#aacdb0" stroke-width="1.51"/><path d="M1370,745L1386,651L1268,666Z" fill="#83bead" stroke="#83bead" stroke-width="1.51"/><path d="M1197,846L1260,841L1262,772Z" fill="#65c0a6" stroke="#65c0a6" stroke-width="1.51"/><path d="M1186,937L1197,846L1097,918Z" fill="#6cb2af" stroke="#6cb2af" stroke-width="1.51"/><path d="M1288,335L1297,240L1181,225Z" fill="#bcc28f" stroke="#bcc28f" stroke-width="1.51"/><path d="M1182,163L1208,82L1123,72Z" fill="#cba775" stroke="#cba775" stroke-width="1.51"/><path d="M1382,317L1297,240L1288,335Z" fill="#b6bc9a" stroke="#b6bc9a" stroke-width="1.51"/><path d="M1039,-38L941,-47L1005,74Z" fill="#daa074" stroke="#daa074" stroke-width="1.51"/><path d="M858,-9L779,-101L753,-35Z" fill="#e8a07b" stroke="#e8a07b" stroke-width="1.51"/><path d="M1360,471L1358,403L1291,474Z" fill="#afcfba" stroke="#afcfba" stroke-width="1.51"/><path d="M339,214L240,310L342,338Z" fill="#fdb368" stroke="#fdb368" stroke-width="1.51"/><path d="M261,410L164,421L233,497Z" fill="#ffba7f" stroke="#ffba7f" stroke-width="1.51"/><path d="M177,599L231,686L247,564Z" fill="#ebb370" stroke="#ebb370" stroke-width="1.51"/><path d="M247,564L231,686L323,686Z" fill="#e5b976" stroke="#e5b976" stroke-width="1.51"/><path d="M1109,1013L1186,937L1097,918Z" fill="#71a7b0" stroke="#71a7b0" stroke-width="1.51"/><path d="M339,214L233,252L240,310Z" fill="#fca660" stroke="#fca660" stroke-width="1.51"/><path d="M400,53L489,152L511,81Z" fill="#fb9f5d" stroke="#fb9f5d" stroke-width="1.51"/><path d="M1041,1004L1109,1013L1097,918Z" fill="#7ea5ad" stroke="#7ea5ad" stroke-width="1.51"/><path d="M931,1032L1109,1013L1041,1004Z" fill="#8ea0a8" stroke="#8ea0a8" stroke-width="1.51"/><path d="M437,1008L513,945L427,914Z" fill="#b1a19a" stroke="#b1a19a" stroke-width="1.51"/><path d="M572,1027L492,1033L742,1025Z" fill="#b3a0a5" stroke="#b3a0a5" stroke-width="1.51"/><path d="M486,-39L400,53L511,81Z" fill="#f4935f" stroke="#f4935f" stroke-width="1.51"/><path d="M352,937L437,1008L427,914Z" fill="#b29a94" stroke="#b29a94" stroke-width="1.51"/><path d="M231,686L233,741L323,686Z" fill="#d8b378" stroke="#d8b378" stroke-width="1.51"/><path d="M1108,-4L1039,-38L1005,74Z" fill="#d49e75" stroke="#d49e75" stroke-width="1.51"/><path d="M1266,130L1208,82L1182,163Z" fill="#c4a878" stroke="#c4a878" stroke-width="1.51"/><path d="M1108,-4L1005,74L1123,72Z" fill="#d4a274" stroke="#d4a274" stroke-width="1.51"/><path d="M1204,-27L1108,-4L1123,72Z" fill="#c69976" stroke="#c69976" stroke-width="1.51"/><path d="M352,937L427,914L333,846Z" fill="#b6a38e" stroke="#b6a38e" stroke-width="1.51"/><path d="M244,927L352,937L333,846Z" fill="#b69888" stroke="#b69888" stroke-width="1.51"/><path d="M258,128L233,252L339,214Z" fill="#fb9a57" stroke="#fb9a57" stroke-width="1.51"/><path d="M143,485L177,599L233,497Z" fill="#f7b473" stroke="#f7b473" stroke-width="1.51"/><path d="M233,497L177,599L247,564Z" fill="#f6b871" stroke="#f6b871" stroke-width="1.51"/><path d="M258,128L339,214L345,128Z" fill="#fb9655" stroke="#fb9655" stroke-width="1.51"/><path d="M1208,82L1204,-27L1123,72Z" fill="#c59b75" stroke="#c59b75" stroke-width="1.51"/><path d="M1297,240L1266,130L1181,225Z" fill="#bfb683" stroke="#bfb683" stroke-width="1.51"/><path d="M1351,165L1266,130L1297,240Z" fill="#bba785" stroke="#bba785" stroke-width="1.51"/><path d="M753,-35L673,-120L679,-15Z" fill="#eb9f81" stroke="#eb9f81" stroke-width="1.51"/><path d="M583,-5L486,-39L572,57Z" fill="#f29b6a" stroke="#f29b6a" stroke-width="1.51"/><path d="M838,-107L779,-101L858,-9Z" fill="#e19b77" stroke="#e19b77" stroke-width="1.51"/><path d="M838,-107L858,-9L920,-112Z" fill="#dd9973" stroke="#dd9973" stroke-width="1.51"/><path d="M233,741L261,826L320,771Z" fill="#c8ac7a" stroke="#c8ac7a" stroke-width="1.51"/><path d="M1451,474L1446,423L1360,471Z" fill="#a8c0be" stroke="#a8c0be" stroke-width="1.51"/><path d="M1446,423L1382,317L1358,403Z" fill="#acbbb0" stroke="#acbbb0" stroke-width="1.51"/><path d="M1370,745L1268,666L1262,772Z" fill="#7bc1a9" stroke="#7bc1a9" stroke-width="1.51"/><path d="M164,421L261,410L240,310Z" fill="#feb372" stroke="#feb372" stroke-width="1.51"/><path d="M231,686L146,747L233,741Z" fill="#d4a772" stroke="#d4a772" stroke-width="1.51"/><path d="M233,741L158,843L261,826Z" fill="#c3a175" stroke="#c3a175" stroke-width="1.51"/><path d="M920,-112L858,-9L941,-47Z" fill="#de9c72" stroke="#de9c72" stroke-width="1.51"/><path d="M1358,403L1382,317L1288,335Z" fill="#b2c2a6" stroke="#b2c2a6" stroke-width="1.51"/><path d="M1446,423L1358,403L1360,471Z" fill="#abc3ba" stroke="#abc3ba" stroke-width="1.51"/><path d="M1366,821L1370,745L1262,772Z" fill="#68b5ac" stroke="#68b5ac" stroke-width="1.51"/><path d="M1186,937L1289,930L1260,841Z" fill="#58abaf" stroke="#58abaf" stroke-width="1.51"/><path d="M1109,1013L1191,990L1186,937Z" fill="#6f9fad" stroke="#6f9fad" stroke-width="1.51"/><path d="M515,-94L486,-39L583,-5Z" fill="#ea8f69" stroke="#ea8f69" stroke-width="1.51"/><path d="M1366,821L1262,772L1260,841Z" fill="#61b8aa" stroke="#61b8aa" stroke-width="1.51"/><path d="M147,328L164,421L240,310Z" fill="#fca96c" stroke="#fca96c" stroke-width="1.51"/><path d="M1009,-92L941,-47L1039,-38Z" fill="#d09674" stroke="#d09674" stroke-width="1.51"/><path d="M1009,-92L920,-112L941,-47Z" fill="#d09472" stroke="#d09472" stroke-width="1.51"/><path d="M920,-112L673,-120L838,-107Z" fill="#d89577" stroke="#d89577" stroke-width="1.51"/><path d="M838,-107L673,-120L779,-101Z" fill="#dc967c" stroke="#dc967c" stroke-width="1.51"/><path d="M779,-101L673,-120L753,-35Z" fill="#e49b80" stroke="#e49b80" stroke-width="1.51"/><path d="M1094,-98L1009,-92L1039,-38Z" fill="#c59075" stroke="#c59075" stroke-width="1.51"/><path d="M1094,-98L1039,-38L1108,-4Z" fill="#c79377" stroke="#c79377" stroke-width="1.51"/><path d="M177,599L163,665L231,686Z" fill="#e2ac71" stroke="#e2ac71" stroke-width="1.51"/><path d="M79,559L163,665L177,599Z" fill="#e7aa70" stroke="#e7aa70" stroke-width="1.51"/><path d="M673,-120L611,-108L679,-15Z" fill="#e49679" stroke="#e49679" stroke-width="1.51"/><path d="M412,-29L346,41L400,53Z" fill="#f18557" stroke="#f18557" stroke-width="1.51"/><path d="M400,53L346,41L345,128Z" fill="#f88a52" stroke="#f88a52" stroke-width="1.51"/><path d="M164,421L143,485L233,497Z" fill="#fcb67d" stroke="#fcb67d" stroke-width="1.51"/><path d="M1266,130L1264,71L1208,82Z" fill="#c19e75" stroke="#c19e75" stroke-width="1.51"/><path d="M1352,67L1264,71L1266,130Z" fill="#bd9478" stroke="#bd9478" stroke-width="1.51"/><path d="M176,236L147,328L240,310Z" fill="#fa9f60" stroke="#fa9f60" stroke-width="1.51"/><path d="M76,398L70,476L143,485Z" fill="#f6ac82" stroke="#f6ac82" stroke-width="1.51"/><path d="M346,41L258,128L345,128Z" fill="#f8874e" stroke="#f8874e" stroke-width="1.51"/><path d="M1191,990L1289,930L1186,937Z" fill="#5ca2b0" stroke="#5ca2b0" stroke-width="1.51"/><path d="M352,937L347,996L437,1008Z" fill="#b4908e" stroke="#b4908e" stroke-width="1.51"/><path d="M437,1008L347,996L492,1033Z" fill="#b48e90" stroke="#b48e90" stroke-width="1.51"/><path d="M244,927L347,996L352,937Z" fill="#b38c8a" stroke="#b38c8a" stroke-width="1.51"/><path d="M244,927L333,846L261,826Z" fill="#bb9c81" stroke="#bb9c81" stroke-width="1.51"/><path d="M1370,745L1449,647L1386,651Z" fill="#80b4b1" stroke="#80b4b1" stroke-width="1.51"/><path d="M1289,930L1366,821L1260,841Z" fill="#58aab0" stroke="#58aab0" stroke-width="1.51"/><path d="M346,41L242,42L258,128Z" fill="#f57a4b" stroke="#f57a4b" stroke-width="1.51"/><path d="M486,-39L412,-29L400,53Z" fill="#ef885e" stroke="#ef885e" stroke-width="1.51"/><path d="M428,-97L412,-29L486,-39Z" fill="#e7815f" stroke="#e7815f" stroke-width="1.51"/><path d="M1380,217L1351,165L1297,240Z" fill="#b7a78d" stroke="#b7a78d" stroke-width="1.51"/><path d="M1382,317L1380,217L1297,240Z" fill="#b5af96" stroke="#b5af96" stroke-width="1.51"/><path d="M428,-97L515,-94L611,-108Z" fill="#de8566" stroke="#de8566" stroke-width="1.51"/><path d="M611,-108L515,-94L583,-5Z" fill="#e6906d" stroke="#e6906d" stroke-width="1.51"/><path d="M1382,317L1448,228L1380,217Z" fill="#b1a599" stroke="#b1a599" stroke-width="1.51"/><path d="M1451,474L1360,471L1349,588Z" fill="#a5c3b5" stroke="#a5c3b5" stroke-width="1.51"/><path d="M1451,474L1349,588L1458,601Z" fill="#a0bbaf" stroke="#a0bbaf" stroke-width="1.51"/><path d="M1458,601L1349,588L1386,651Z" fill="#93bbae" stroke="#93bbae" stroke-width="1.51"/><path d="M176,236L240,310L233,252Z" fill="#fb9e5c" stroke="#fb9e5c" stroke-width="1.51"/><path d="M164,168L176,236L233,252Z" fill="#f98f54" stroke="#f98f54" stroke-width="1.51"/><path d="M1467,770L1449,647L1370,745Z" fill="#75abb0" stroke="#75abb0" stroke-width="1.51"/><path d="M1449,647L1458,601L1386,651Z" fill="#8fb4ae" stroke="#8fb4ae" stroke-width="1.51"/><path d="M1290,-19L1204,-27L1264,71Z" fill="#b78e77" stroke="#b78e77" stroke-width="1.51"/><path d="M1264,71L1204,-27L1208,82Z" fill="#be9775" stroke="#be9775" stroke-width="1.51"/><path d="M1009,-92L1094,-98L920,-112Z" fill="#c58e72" stroke="#c58e72" stroke-width="1.51"/><path d="M1204,-27L1094,-98L1108,-4Z" fill="#c09078" stroke="#c09078" stroke-width="1.51"/><path d="M163,665L146,747L231,686Z" fill="#d7a673" stroke="#d7a673" stroke-width="1.51"/><path d="M55,681L146,747L163,665Z" fill="#d3a075" stroke="#d3a075" stroke-width="1.51"/><path d="M158,843L244,927L261,826Z" fill="#bb937b" stroke="#bb937b" stroke-width="1.51"/><path d="M1446,423L1459,318L1382,317Z" fill="#adb2aa" stroke="#adb2aa" stroke-width="1.51"/><path d="M1466,147L1352,67L1351,165Z" fill="#b58b85" stroke="#b58b85" stroke-width="1.51"/><path d="M1557,397L1459,318L1446,423Z" fill="#b0acac" stroke="#b0acac" stroke-width="1.51"/><path d="M1531,493L1446,423L1451,474Z" fill="#acb5b9" stroke="#acb5b9" stroke-width="1.51"/><path d="M428,-97L333,-26L412,-29Z" fill="#e67a59" stroke="#e67a59" stroke-width="1.51"/><path d="M412,-29L333,-26L346,41Z" fill="#ee7d56" stroke="#ee7d56" stroke-width="1.51"/><path d="M258,128L164,168L233,252Z" fill="#f98b50" stroke="#f98b50" stroke-width="1.51"/><path d="M515,-94L428,-97L486,-39Z" fill="#e28362" stroke="#e28362" stroke-width="1.51"/><path d="M673,-120L428,-97L611,-108Z" fill="#dc8a6b" stroke="#dc8a6b" stroke-width="1.51"/><path d="M143,485L79,559L177,599Z" fill="#f0ad73" stroke="#f0ad73" stroke-width="1.51"/><path d="M70,476L79,559L143,485Z" fill="#f1aa7a" stroke="#f1aa7a" stroke-width="1.51"/><path d="M169,40L164,168L258,128Z" fill="#f57446" stroke="#f57446" stroke-width="1.51"/><path d="M78,220L55,321L147,328Z" fill="#f29463" stroke="#f29463" stroke-width="1.51"/><path d="M76,398L143,485L164,421Z" fill="#f9ae7e" stroke="#f9ae7e" stroke-width="1.51"/><path d="M146,747L158,843L233,741Z" fill="#c79f74" stroke="#c79f74" stroke-width="1.51"/><path d="M68,768L158,843L146,747Z" fill="#c09875" stroke="#c09875" stroke-width="1.51"/><path d="M76,398L164,421L147,328Z" fill="#f8a774" stroke="#f8a774" stroke-width="1.51"/><path d="M1204,-27L1204,-92L1094,-98Z" fill="#b48976" stroke="#b48976" stroke-width="1.51"/><path d="M1351,165L1352,67L1266,130Z" fill="#ba967f" stroke="#ba967f" stroke-width="1.51"/><path d="M1466,147L1351,165L1380,217Z" fill="#b3968c" stroke="#b3968c" stroke-width="1.51"/><path d="M169,40L242,42L174,-47Z" fill="#ea5e48" stroke="#ea5e48" stroke-width="1.51"/><path d="M333,-26L242,42L346,41Z" fill="#ef7650" stroke="#ef7650" stroke-width="1.51"/><path d="M1459,318L1448,228L1382,317Z" fill="#afa79e" stroke="#afa79e" stroke-width="1.51"/><path d="M55,321L76,398L147,328Z" fill="#f49e6e" stroke="#f49e6e" stroke-width="1.51"/><path d="M1289,930L1387,942L1366,821Z" fill="#4a9bb6" stroke="#4a9bb6" stroke-width="1.51"/><path d="M1366,821L1467,770L1370,745Z" fill="#61aab1" stroke="#61aab1" stroke-width="1.51"/><path d="M1191,990L1295,1026L1289,930Z" fill="#5b96ae" stroke="#5b96ae" stroke-width="1.51"/><path d="M1109,1013L1295,1026L1191,990Z" fill="#6b96aa" stroke="#6b96aa" stroke-width="1.51"/><path d="M931,1032L1295,1026L1109,1013Z" fill="#7f98a8" stroke="#7f98a8" stroke-width="1.51"/><path d="M1458,601L1531,493L1451,474Z" fill="#a7b3b0" stroke="#a7b3b0" stroke-width="1.51"/><path d="M1541,589L1531,493L1458,601Z" fill="#a6aca8" stroke="#a6aca8" stroke-width="1.51"/><path d="M1458,826L1467,770L1366,821Z" fill="#59a2b0" stroke="#59a2b0" stroke-width="1.51"/><path d="M1352,67L1290,-19L1264,71Z" fill="#b68b7a" stroke="#b68b7a" stroke-width="1.51"/><path d="M1094,-98L1262,-111L920,-112Z" fill="#b78873" stroke="#b78873" stroke-width="1.51"/><path d="M1262,-111L1204,-92L1204,-27Z" fill="#ab8476" stroke="#ab8476" stroke-width="1.51"/><path d="M1379,993L1387,942L1289,930Z" fill="#478db7" stroke="#478db7" stroke-width="1.51"/><path d="M1464,904L1458,826L1366,821Z" fill="#4e99b4" stroke="#4e99b4" stroke-width="1.51"/><path d="M1458,601L1449,647L1542,657Z" fill="#92aaab" stroke="#92aaab" stroke-width="1.51"/><path d="M1541,589L1458,601L1542,657Z" fill="#99a7a8" stroke="#99a7a8" stroke-width="1.51"/><path d="M1522,154L1466,147L1448,228Z" fill="#b48789" stroke="#b48789" stroke-width="1.51"/><path d="M165,935L226,1001L244,927Z" fill="#b37b80" stroke="#b37b80" stroke-width="1.51"/><path d="M244,927L226,1001L347,996Z" fill="#b47f84" stroke="#b47f84" stroke-width="1.51"/><path d="M347,996L226,1001L492,1033Z" fill="#b58489" stroke="#b58489" stroke-width="1.51"/><path d="M79,559L55,681L163,665Z" fill="#dea373" stroke="#dea373" stroke-width="1.51"/><path d="M158,843L165,935L244,927Z" fill="#b6857e" stroke="#b6857e" stroke-width="1.51"/><path d="M-6,656L55,681L79,559Z" fill="#da9d74" stroke="#da9d74" stroke-width="1.51"/><path d="M82,915L165,935L158,843Z" fill="#b1807f" stroke="#b1807f" stroke-width="1.51"/><path d="M70,476L-12,505L79,559Z" fill="#eca47b" stroke="#eca47b" stroke-width="1.51"/><path d="M-17,388L-12,505L70,476Z" fill="#eea283" stroke="#eea283" stroke-width="1.51"/><path d="M78,220L147,328L176,236Z" fill="#f5925d" stroke="#f5925d" stroke-width="1.51"/><path d="M78,220L176,236L164,168Z" fill="#f48754" stroke="#f48754" stroke-width="1.51"/><path d="M1542,657L1449,647L1530,742Z" fill="#87a2ab" stroke="#87a2ab" stroke-width="1.51"/><path d="M1387,942L1464,904L1366,821Z" fill="#4293b9" stroke="#4293b9" stroke-width="1.51"/><path d="M1295,1026L1379,993L1289,930Z" fill="#528bb2" stroke="#528bb2" stroke-width="1.51"/><path d="M55,681L68,768L146,747Z" fill="#c99976" stroke="#c99976" stroke-width="1.51"/><path d="M65,136L78,220L164,168Z" fill="#ef7a52" stroke="#ef7a52" stroke-width="1.51"/><path d="M1530,742L1449,647L1467,770Z" fill="#7ba3ad" stroke="#7ba3ad" stroke-width="1.51"/><path d="M1530,742L1467,770L1533,843Z" fill="#6b97ab" stroke="#6b97ab" stroke-width="1.51"/><path d="M1542,229L1448,228L1459,318Z" fill="#b39896" stroke="#b39896" stroke-width="1.51"/><path d="M1448,228L1466,147L1380,217Z" fill="#b2958f" stroke="#b2958f" stroke-width="1.51"/><path d="M1355,-40L1262,-111L1290,-19Z" fill="#a87b7c" stroke="#a87b7c" stroke-width="1.51"/><path d="M242,42L169,40L258,128Z" fill="#f36f46" stroke="#f36f46" stroke-width="1.51"/><path d="M244,-47L242,42L333,-26Z" fill="#ea6a4e" stroke="#ea6a4e" stroke-width="1.51"/><path d="M1533,843L1467,770L1458,826Z" fill="#5f98ac" stroke="#5f98ac" stroke-width="1.51"/><path d="M1542,657L1557,397L1541,589Z" fill="#a9a6a8" stroke="#a9a6a8" stroke-width="1.51"/><path d="M1541,589L1557,397L1531,493Z" fill="#ada8af" stroke="#ada8af" stroke-width="1.51"/><path d="M1531,493L1557,397L1446,423Z" fill="#afafb6" stroke="#afafb6" stroke-width="1.51"/><path d="M310,-108L244,-47L333,-26Z" fill="#e26650" stroke="#e26650" stroke-width="1.51"/><path d="M428,-97L310,-108L333,-26Z" fill="#df6f55" stroke="#df6f55" stroke-width="1.51"/><path d="M673,-120L310,-108L428,-97Z" fill="#db7c5f" stroke="#db7c5f" stroke-width="1.51"/><path d="M1290,-19L1262,-111L1204,-27Z" fill="#ad8578" stroke="#ad8578" stroke-width="1.51"/><path d="M1204,-92L1262,-111L1094,-98Z" fill="#ab8374" stroke="#ab8374" stroke-width="1.51"/><path d="M920,-112L1453,-129L673,-120Z" fill="#bf8a72" stroke="#bf8a72" stroke-width="1.51"/><path d="M1355,-40L1290,-19L1352,67Z" fill="#af7f7e" stroke="#af7f7e" stroke-width="1.51"/><path d="M1434,1010L1464,904L1387,942Z" fill="#3c82ba" stroke="#3c82ba" stroke-width="1.51"/><path d="M79,990L171,1001L165,935Z" fill="#ae6c7f" stroke="#ae6c7f" stroke-width="1.51"/><path d="M165,935L171,1001L226,1001Z" fill="#b2707d" stroke="#b2707d" stroke-width="1.51"/><path d="M226,1001L171,1001L492,1033Z" fill="#b57a83" stroke="#b57a83" stroke-width="1.51"/><path d="M1452,46L1355,-40L1352,67Z" fill="#ad7981" stroke="#ad7981" stroke-width="1.51"/><path d="M1557,397L1558,320L1459,318Z" fill="#b2a0a2" stroke="#b2a0a2" stroke-width="1.51"/><path d="M-17,388L70,476L76,398Z" fill="#f2a27e" stroke="#f2a27e" stroke-width="1.51"/><path d="M4,752L57,844L68,768Z" fill="#b98f78" stroke="#b98f78" stroke-width="1.51"/><path d="M-17,388L76,398L55,321Z" fill="#f09b74" stroke="#f09b74" stroke-width="1.51"/><path d="M68,768L57,844L158,843Z" fill="#b89077" stroke="#b89077" stroke-width="1.51"/><path d="M4,752L68,768L55,681Z" fill="#c49477" stroke="#c49477" stroke-width="1.51"/><path d="M1558,320L1542,229L1459,318Z" fill="#b39898" stroke="#b39898" stroke-width="1.51"/><path d="M1466,147L1452,46L1352,67Z" fill="#b37c80" stroke="#b37c80" stroke-width="1.51"/><path d="M-28,590L-6,656L79,559Z" fill="#dd9c73" stroke="#dd9c73" stroke-width="1.51"/><path d="M1541,70L1452,46L1466,147Z" fill="#b4707c" stroke="#b4707c" stroke-width="1.51"/><path d="M310,-108L256,-103L244,-47Z" fill="#db5c4e" stroke="#db5c4e" stroke-width="1.51"/><path d="M244,-47L174,-47L242,42Z" fill="#e75d4b" stroke="#e75d4b" stroke-width="1.51"/><path d="M57,844L82,915L158,843Z" fill="#b2847c" stroke="#b2847c" stroke-width="1.51"/><path d="M-12,505L-28,590L79,559Z" fill="#e49f75" stroke="#e49f75" stroke-width="1.51"/><path d="M-36,338L-17,388L55,321Z" fill="#ea946f" stroke="#ea946f" stroke-width="1.51"/><path d="M-36,338L55,321L-22,216Z" fill="#e78965" stroke="#e78965" stroke-width="1.51"/><path d="M169,40L65,136L164,168Z" fill="#f06c4a" stroke="#f06c4a" stroke-width="1.51"/><path d="M73,46L65,136L169,40Z" fill="#ea5e48" stroke="#ea5e48" stroke-width="1.51"/><path d="M1542,657L1561,992L1557,397Z" fill="#8b9aa7" stroke="#8b9aa7" stroke-width="1.51"/><path d="M1530,742L1533,843L1542,657Z" fill="#7897a9" stroke="#7897a9" stroke-width="1.51"/><path d="M1464,904L1533,843L1458,826Z" fill="#568eb0" stroke="#568eb0" stroke-width="1.51"/><path d="M1527,905L1533,843L1464,904Z" fill="#5384b1" stroke="#5384b1" stroke-width="1.51"/><path d="M1379,993L1434,1010L1387,942Z" fill="#447fb7" stroke="#447fb7" stroke-width="1.51"/><path d="M1295,1026L1434,1010L1379,993Z" fill="#4f7eb2" stroke="#4f7eb2" stroke-width="1.51"/><path d="M1542,229L1522,154L1448,228Z" fill="#b4898b" stroke="#b4898b" stroke-width="1.51"/><path d="M-95,560L-28,590L-12,505Z" fill="#db9873" stroke="#db9873" stroke-width="1.51"/><path d="M-24,906L79,990L82,915Z" fill="#a46d84" stroke="#a46d84" stroke-width="1.51"/><path d="M-6,656L4,752L55,681Z" fill="#c99477" stroke="#c99477" stroke-width="1.51"/><path d="M-99,766L4,752L-6,656Z" fill="#bb8c75" stroke="#bb8c75" stroke-width="1.51"/><path d="M256,-103L174,-47L244,-47Z" fill="#de564a" stroke="#de564a" stroke-width="1.51"/><path d="M1561,992L1527,905L1464,904Z" fill="#4777b4" stroke="#4777b4" stroke-width="1.51"/><path d="M-113,409L-95,508L-12,505Z" fill="#de977c" stroke="#de977c" stroke-width="1.51"/><path d="M-22,216L55,321L78,220Z" fill="#ec845f" stroke="#ec845f" stroke-width="1.51"/><path d="M1452,46L1439,-35L1355,-40Z" fill="#a66e84" stroke="#a66e84" stroke-width="1.51"/><path d="M1355,-40L1387,-106L1262,-111Z" fill="#9e717c" stroke="#9e717c" stroke-width="1.51"/><path d="M1559,-21L1439,-35L1452,46Z" fill="#a8637f" stroke="#a8637f" stroke-width="1.51"/><path d="M65,136L-22,216L78,220Z" fill="#ea7656" stroke="#ea7656" stroke-width="1.51"/><path d="M73,-14L73,46L169,40Z" fill="#e4554a" stroke="#e4554a" stroke-width="1.51"/><path d="M-5,857L82,915L57,844Z" fill="#ad7d7e" stroke="#ad7d7e" stroke-width="1.51"/><path d="M82,915L79,990L165,935Z" fill="#aa7082" stroke="#aa7082" stroke-width="1.51"/><path d="M1439,-35L1387,-106L1355,-40Z" fill="#9e6a82" stroke="#9e6a82" stroke-width="1.51"/><path d="M-20,128L-22,216L65,136Z" fill="#e56a52" stroke="#e56a52" stroke-width="1.51"/><path d="M4,752L-5,857L57,844Z" fill="#b18878" stroke="#b18878" stroke-width="1.51"/><path d="M-24,906L-5,857L-92,817Z" fill="#a2777a" stroke="#a2777a" stroke-width="1.51"/><path d="M1439,-35L1453,-129L1387,-106Z" fill="#965f80" stroke="#965f80" stroke-width="1.51"/><path d="M1522,154L1541,70L1466,147Z" fill="#b47580" stroke="#b47580" stroke-width="1.51"/><path d="M1542,229L1541,70L1522,154Z" fill="#b57782" stroke="#b57782" stroke-width="1.51"/><path d="M1559,-21L1541,70L1542,229Z" fill="#b56679" stroke="#b56679" stroke-width="1.51"/><path d="M-113,409L-12,505L-17,388Z" fill="#e4997e" stroke="#e4997e" stroke-width="1.51"/><path d="M-28,590L-123,676L-6,656Z" fill="#ca9172" stroke="#ca9172" stroke-width="1.51"/><path d="M-113,409L-17,388L-36,338Z" fill="#e19173" stroke="#e19173" stroke-width="1.51"/><path d="M-95,508L-95,560L-12,505Z" fill="#da9676" stroke="#da9676" stroke-width="1.51"/><path d="M51,-98L73,-14L174,-47Z" fill="#d7454c" stroke="#d7454c" stroke-width="1.51"/><path d="M174,-47L73,-14L169,40Z" fill="#e3534b" stroke="#e3534b" stroke-width="1.51"/><path d="M73,46L-20,128L65,136Z" fill="#e75d4b" stroke="#e75d4b" stroke-width="1.51"/><path d="M256,-103L156,-120L174,-47Z" fill="#d74c48" stroke="#d74c48" stroke-width="1.51"/><path d="M310,-108L156,-120L256,-103Z" fill="#d5524a" stroke="#d5524a" stroke-width="1.51"/><path d="M673,-120L156,-120L310,-108Z" fill="#d76d55" stroke="#d76d55" stroke-width="1.51"/><path d="M-31,61L-20,128L73,46Z" fill="#e05249" stroke="#e05249" stroke-width="1.51"/><path d="M-117,301L-113,409L-36,338Z" fill="#db896c" stroke="#db896c" stroke-width="1.51"/><path d="M-5,857L-24,906L82,915Z" fill="#a67580" stroke="#a67580" stroke-width="1.51"/><path d="M-92,817L-5,857L4,752Z" fill="#aa8476" stroke="#aa8476" stroke-width="1.51"/><path d="M-95,508L-123,676L-95,560Z" fill="#cd8f6e" stroke="#cd8f6e" stroke-width="1.51"/><path d="M-117,301L-36,338L-22,216Z" fill="#de8162" stroke="#de8162" stroke-width="1.51"/><path d="M1434,1010L1561,992L1464,904Z" fill="#4a74b3" stroke="#4a74b3" stroke-width="1.51"/><path d="M1527,905L1561,992L1533,843Z" fill="#5078b1" stroke="#5078b1" stroke-width="1.51"/><path d="M1533,843L1561,992L1542,657Z" fill="#638aa9" stroke="#638aa9" stroke-width="1.51"/><path d="M1557,397L1561,992L1558,320Z" fill="#a7a3a3" stroke="#a7a3a3" stroke-width="1.51"/><path d="M-123,676L-99,766L-6,656Z" fill="#b98973" stroke="#b98973" stroke-width="1.51"/><path d="M-123,676L-28,590L-95,560Z" fill="#cb9070" stroke="#cb9070" stroke-width="1.51"/><path d="M1524,-101L1453,-129L1439,-35Z" fill="#97577c" stroke="#97577c" stroke-width="1.51"/><path d="M1387,-106L1453,-129L1262,-111Z" fill="#94667c" stroke="#94667c" stroke-width="1.51"/><path d="M1262,-111L1453,-129L920,-112Z" fill="#a47e73" stroke="#a47e73" stroke-width="1.51"/><path d="M673,-120L-2,-122L156,-120Z" fill="#d3584c" stroke="#d3584c" stroke-width="1.51"/><path d="M-113,409L-123,676L-95,508Z" fill="#d29173" stroke="#d29173" stroke-width="1.51"/><path d="M-113,409L-122,249L-123,676Z" fill="#d9927e" stroke="#d9927e" stroke-width="1.51"/><path d="M-122,249L-117,301L-22,216Z" fill="#d9775c" stroke="#d9775c" stroke-width="1.51"/><path d="M-97,909L-92,817L-99,766Z" fill="#9c7875" stroke="#9c7875" stroke-width="1.51"/><path d="M-99,766L-92,817L4,752Z" fill="#ac8374" stroke="#ac8374" stroke-width="1.51"/><path d="M-111,149L-122,249L-22,216Z" fill="#d86c54" stroke="#d86c54" stroke-width="1.51"/><path d="M-1,-21L-31,61L73,46Z" fill="#db494c" stroke="#db494c" stroke-width="1.51"/><path d="M-1,-21L73,46L73,-14Z" fill="#dc494d" stroke="#dc494d" stroke-width="1.51"/><path d="M1541,70L1559,-21L1452,46Z" fill="#ad617b" stroke="#ad617b" stroke-width="1.51"/><path d="M1558,320L1559,-21L1542,229Z" fill="#b57a84" stroke="#b57a84" stroke-width="1.51"/><path d="M1561,992L1559,-21L1558,320Z" fill="#b2a5b1" stroke="#b2a5b1" stroke-width="1.51"/><path d="M-117,301L-122,249L-113,409Z" fill="#d58165" stroke="#d58165" stroke-width="1.51"/><path d="M-111,149L-22,216L-20,128Z" fill="#db6450" stroke="#db6450" stroke-width="1.51"/><path d="M-112,73L-111,149L-20,128Z" fill="#d5534a" stroke="#d5534a" stroke-width="1.51"/><path d="M51,-98L-1,-21L73,-14Z" fill="#d33e4e" stroke="#d33e4e" stroke-width="1.51"/><path d="M156,-120L51,-98L174,-47Z" fill="#d14349" stroke="#d14349" stroke-width="1.51"/><path d="M1559,-21L1524,-101L1439,-35Z" fill="#9f567d" stroke="#9f567d" stroke-width="1.51"/><path d="M-97,909L-31,1014L-24,906Z" fill="#966080" stroke="#966080" stroke-width="1.51"/><path d="M-24,906L-31,1014L79,990Z" fill="#a05f80" stroke="#a05f80" stroke-width="1.51"/><path d="M79,990L-31,1014L171,1001Z" fill="#a85e7d" stroke="#a85e7d" stroke-width="1.51"/><path d="M171,1001L-108,1030L492,1033Z" fill="#b36479" stroke="#b36479" stroke-width="1.51"/><path d="M-112,73L-20,128L-31,61Z" fill="#d74c47" stroke="#d74c47" stroke-width="1.51"/><path d="M-92,817L-97,909L-24,906Z" fill="#9a6f7b" stroke="#9a6f7b" stroke-width="1.51"/><path d="M-123,676L-97,909L-99,766Z" fill="#a37d73" stroke="#a37d73" stroke-width="1.51"/><path d="M-119,-30L-112,73L-31,61Z" fill="#cb3e48" stroke="#cb3e48" stroke-width="1.51"/><path d="M-111,149L-112,73L-122,249Z" fill="#d15b4d" stroke="#d15b4d" stroke-width="1.51"/><path d="M-119,-30L-31,61L-1,-21Z" fill="#cd3b4b" stroke="#cd3b4b" stroke-width="1.51"/><path d="M51,-98L-2,-122L-1,-21Z" fill="#c8344c" stroke="#c8344c" stroke-width="1.51"/><path d="M156,-120L-2,-122L51,-98Z" fill="#c6354a" stroke="#c6354a" stroke-width="1.51"/><path d="M1453,-129L-2,-122L673,-120Z" fill="#dc947d" stroke="#dc947d" stroke-width="1.51"/><path d="M-97,909L-108,1030L-31,1014Z" fill="#93527b" stroke="#93527b" stroke-width="1.51"/><path d="M-31,1014L-108,1030L171,1001Z" fill="#a1527c" stroke="#a1527c" stroke-width="1.51"/><path d="M-123,676L-108,1030L-97,909Z" fill="#956c78" stroke="#956c78" stroke-width="1.51"/><path d="M-81,-100L-119,-30L-1,-21Z" fill="#c12e4b" stroke="#c12e4b" stroke-width="1.51"/><path d="M-112,73L-119,-30L-122,249Z" fill="#cd4846" stroke="#cd4846" stroke-width="1.51"/><path d="M-2,-122L-81,-100L-1,-21Z" fill="#c12d4b" stroke="#c12d4b" stroke-width="1.51"/></svg>