<svg xmlns="http://www.w3.org/2000/svg" width="1440" height="900"><path d="M751,474L768,559L829,481Z" fill="#f85d40" stroke="#f85d40" stroke-width="1.51"/><path d="M768,559L853,595L829,481Z" fill="#f55339" stroke="#f55339" stroke-width="1.51"/><path d="M751,474L667,514L768,559Z" fill="#f96043" stroke="#f96043" stroke-width="1.51"/><path d="M829,481L755,394L751,474Z" fill="#fa6546" stroke="#fa6546" stroke-width="1.51"/><path d="M751,474L686,388L667,514Z" fill="#fb6b4a" stroke="#fb6b4a" stroke-width="1.51"/><path d="M768,559L776,644L853,595Z" fill="#f34c35" stroke="#f34c35" stroke-width="1.51"/><path d="M670,598L776,644L768,559Z" fill="#f55339" stroke="#f55339" stroke-width="1.51"/><path d="M829,481L871,403L755,394Z" fill="#f96446" stroke="#f96446" stroke-width="1.51"/><path d="M932,481L871,403L829,481Z" fill="#f75a3e" stroke="#f75a3e" stroke-width="1.51"/><path d="M667,514L670,598L768,559Z" fill="#f75d41" stroke="#f75d41" stroke-width="1.51"/><path d="M853,595L932,481L829,481Z" fill="#f55138" stroke="#f55138" stroke-width="1.51"/><path d="M755,394L686,388L751,474Z" fill="#fb6e4d" stroke="#fb6e4d" stroke-width="1.51"/><path d="M680,332L686,388L755,394Z" fill="#fc7655" stroke="#fc7655" stroke-width="1.51"/><path d="M776,644L854,662L853,595Z" fill="#ee4632" stroke="#ee4632" stroke-width="1.51"/><path d="M853,595L953,578L932,481Z" fill="#f24732" stroke="#f24732" stroke-width="1.51"/><path d="M933,684L953,578L853,595Z" fill="#ee3c2c" stroke="#ee3c2c" stroke-width="1.51"/><path d="M670,598L675,651L776,644Z" fill="#f2543a" stroke="#f2543a" stroke-width="1.51"/><path d="M776,644L851,750L854,662Z" fill="#e8412f" stroke="#e8412f" stroke-width="1.51"/><path d="M932,481L952,422L871,403Z" fill="#f6593e" stroke="#f6593e" stroke-width="1.51"/><path d="M1025,477L952,422L932,481Z" fill="#f25139" stroke="#f25139" stroke-width="1.51"/><path d="M850,304L766,315L755,394Z" fill="#fa7354" stroke="#fa7354" stroke-width="1.51"/><path d="M850,304L755,394L871,403Z" fill="#f96c4d" stroke="#f96c4d" stroke-width="1.51"/><path d="M670,598L597,590L675,651Z" fill="#f55c41" stroke="#f55c41" stroke-width="1.51"/><path d="M667,514L597,590L670,598Z" fill="#f76245" stroke="#f76245" stroke-width="1.51"/><path d="M574,482L597,590L667,514Z" fill="#f96b4c" stroke="#f96b4c" stroke-width="1.51"/><path d="M569,421L574,482L667,514Z" fill="#fb7252" stroke="#fb7252" stroke-width="1.51"/><path d="M766,315L680,332L755,394Z" fill="#fb7756" stroke="#fb7756" stroke-width="1.51"/><path d="M569,421L667,514L686,388Z" fill="#fc7352" stroke="#fc7352" stroke-width="1.51"/><path d="M944,337L850,304L871,403Z" fill="#f8694c" stroke="#f8694c" stroke-width="1.51"/><path d="M854,662L933,684L853,595Z" fill="#eb3e2d" stroke="#eb3e2d" stroke-width="1.51"/><path d="M851,750L933,684L854,662Z" fill="#e5392b" stroke="#e5392b" stroke-width="1.51"/><path d="M953,578L1025,477L932,481Z" fill="#f04934" stroke="#f04934" stroke-width="1.51"/><path d="M933,684L1006,582L953,578Z" fill="#eb382a" stroke="#eb382a" stroke-width="1.51"/><path d="M952,422L944,337L871,403Z" fill="#f76044" stroke="#f76044" stroke-width="1.51"/><path d="M1042,399L944,337L952,422Z" fill="#f35c42" stroke="#f35c42" stroke-width="1.51"/><path d="M610,314L569,421L686,388Z" fill="#fc7e5d" stroke="#fc7e5d" stroke-width="1.51"/><path d="M1006,582L1025,477L953,578Z" fill="#ed412f" stroke="#ed412f" stroke-width="1.51"/><path d="M675,651L743,751L776,644Z" fill="#eb4c36" stroke="#eb4c36" stroke-width="1.51"/><path d="M664,771L743,751L675,651Z" fill="#e74d37" stroke="#e74d37" stroke-width="1.51"/><path d="M743,751L851,750L776,644Z" fill="#e64230" stroke="#e64230" stroke-width="1.51"/><path d="M597,590L572,660L675,651Z" fill="#f25d43" stroke="#f25d43" stroke-width="1.51"/><path d="M515,587L572,660L597,590Z" fill="#f56549" stroke="#f56549" stroke-width="1.51"/><path d="M515,587L597,590L574,482Z" fill="#f86c4e" stroke="#f86c4e" stroke-width="1.51"/><path d="M680,332L610,314L686,388Z" fill="#fc7e5d" stroke="#fc7e5d" stroke-width="1.51"/><path d="M693,225L610,314L680,332Z" fill="#fc8565" stroke="#fc8565" stroke-width="1.51"/><path d="M693,225L680,332L766,315Z" fill="#fc805f" stroke="#fc805f" stroke-width="1.51"/><path d="M850,304L837,249L766,315Z" fill="#fa7858" stroke="#fa7858" stroke-width="1.51"/><path d="M927,213L837,249L850,304Z" fill="#fa7859" stroke="#fa7859" stroke-width="1.51"/><path d="M837,249L776,243L766,315Z" fill="#fb7d5d" stroke="#fb7d5d" stroke-width="1.51"/><path d="M1025,477L1042,399L952,422Z" fill="#ef533b" stroke="#ef533b" stroke-width="1.51"/><path d="M944,337L927,213L850,304Z" fill="#f87052" stroke="#f87052" stroke-width="1.51"/><path d="M1088,475L1042,399L1025,477Z" fill="#ec4d37" stroke="#ec4d37" stroke-width="1.51"/><path d="M500,484L515,587L574,482Z" fill="#fa7354" stroke="#fa7354" stroke-width="1.51"/><path d="M582,751L664,771L675,651Z" fill="#e8523c" stroke="#e8523c" stroke-width="1.51"/><path d="M743,751L742,823L851,750Z" fill="#df402f" stroke="#df402f" stroke-width="1.51"/><path d="M569,421L500,484L574,482Z" fill="#fb7959" stroke="#fb7959" stroke-width="1.51"/><path d="M490,414L500,484L569,421Z" fill="#fc7e5e" stroke="#fc7e5e" stroke-width="1.51"/><path d="M933,684L1037,662L1006,582Z" fill="#e53328" stroke="#e53328" stroke-width="1.51"/><path d="M1006,582L1088,475L1025,477Z" fill="#ea4431" stroke="#ea4431" stroke-width="1.51"/><path d="M1035,735L1037,662L933,684Z" fill="#de2d25" stroke="#de2d25" stroke-width="1.51"/><path d="M851,750L940,765L933,684Z" fill="#e03227" stroke="#e03227" stroke-width="1.51"/><path d="M916,824L940,765L851,750Z" fill="#da3026" stroke="#da3026" stroke-width="1.51"/><path d="M762,154L693,225L776,243Z" fill="#fd8a6a" stroke="#fd8a6a" stroke-width="1.51"/><path d="M776,243L693,225L766,315Z" fill="#fd8262" stroke="#fd8262" stroke-width="1.51"/><path d="M1127,579L1088,475L1006,582Z" fill="#e63c2c" stroke="#e63c2c" stroke-width="1.51"/><path d="M511,333L490,414L569,421Z" fill="#fc8564" stroke="#fc8564" stroke-width="1.51"/><path d="M511,333L569,421L610,314Z" fill="#fc8665" stroke="#fc8665" stroke-width="1.51"/><path d="M664,771L742,823L743,751Z" fill="#e04732" stroke="#e04732" stroke-width="1.51"/><path d="M664,771L688,860L742,823Z" fill="#db4733" stroke="#db4733" stroke-width="1.51"/><path d="M572,660L582,751L675,651Z" fill="#ec5940" stroke="#ec5940" stroke-width="1.51"/><path d="M522,756L582,751L572,660Z" fill="#e85b43" stroke="#e85b43" stroke-width="1.51"/><path d="M742,823L847,831L851,750Z" fill="#da3b2b" stroke="#da3b2b" stroke-width="1.51"/><path d="M1042,399L1043,307L944,337Z" fill="#f16045" stroke="#f16045" stroke-width="1.51"/><path d="M1124,327L1043,307L1042,399Z" fill="#ec5c44" stroke="#ec5c44" stroke-width="1.51"/><path d="M519,248L511,333L610,314Z" fill="#fc8e6e" stroke="#fc8e6e" stroke-width="1.51"/><path d="M1009,213L927,213L944,337Z" fill="#f67154" stroke="#f67154" stroke-width="1.51"/><path d="M837,249L762,154L776,243Z" fill="#fc8565" stroke="#fc8565" stroke-width="1.51"/><path d="M693,225L596,237L610,314Z" fill="#fd8c6c" stroke="#fd8c6c" stroke-width="1.51"/><path d="M1037,662L1127,579L1006,582Z" fill="#e43227" stroke="#e43227" stroke-width="1.51"/><path d="M940,765L1035,735L933,684Z" fill="#dd2b24" stroke="#dd2b24" stroke-width="1.51"/><path d="M1016,835L1035,735L940,765Z" fill="#d42522" stroke="#d42522" stroke-width="1.51"/><path d="M847,831L916,824L851,750Z" fill="#d83327" stroke="#d83327" stroke-width="1.51"/><path d="M515,587L495,684L572,660Z" fill="#f2654a" stroke="#f2654a" stroke-width="1.51"/><path d="M438,565L495,684L515,587Z" fill="#f66d50" stroke="#f66d50" stroke-width="1.51"/><path d="M438,565L515,587L500,484Z" fill="#f97556" stroke="#f97556" stroke-width="1.51"/><path d="M1088,475L1110,402L1042,399Z" fill="#e95039" stroke="#e95039" stroke-width="1.51"/><path d="M1187,497L1110,402L1088,475Z" fill="#e54733" stroke="#e54733" stroke-width="1.51"/><path d="M1108,680L1127,579L1037,662Z" fill="#dd2c24" stroke="#dd2c24" stroke-width="1.51"/><path d="M397,507L438,565L500,484Z" fill="#fb7c5d" stroke="#fb7c5d" stroke-width="1.51"/><path d="M430,405L500,484L490,414Z" fill="#fc8463" stroke="#fc8463" stroke-width="1.51"/><path d="M693,225L668,159L596,237Z" fill="#fe9272" stroke="#fe9272" stroke-width="1.51"/><path d="M861,137L762,154L837,249Z" fill="#fc8769" stroke="#fc8769" stroke-width="1.51"/><path d="M585,823L688,860L664,771Z" fill="#db4d38" stroke="#db4d38" stroke-width="1.51"/><path d="M495,684L522,756L572,660Z" fill="#eb6047" stroke="#eb6047" stroke-width="1.51"/><path d="M421,758L522,756L495,684Z" fill="#e8634a" stroke="#e8634a" stroke-width="1.51"/><path d="M742,823L759,928L847,831Z" fill="#d43c2b" stroke="#d43c2b" stroke-width="1.51"/><path d="M949,924L1016,835L916,824Z" fill="#cd2620" stroke="#cd2620" stroke-width="1.51"/><path d="M585,823L664,771L582,751Z" fill="#e1523c" stroke="#e1523c" stroke-width="1.51"/><path d="M1035,735L1108,680L1037,662Z" fill="#d92923" stroke="#d92923" stroke-width="1.51"/><path d="M762,154L668,159L693,225Z" fill="#fe9171" stroke="#fe9171" stroke-width="1.51"/><path d="M1043,307L1009,213L944,337Z" fill="#f26a4e" stroke="#f26a4e" stroke-width="1.51"/><path d="M927,213L861,137L837,249Z" fill="#fb7f62" stroke="#fb7f62" stroke-width="1.51"/><path d="M1122,244L1009,213L1043,307Z" fill="#ee6b50" stroke="#ee6b50" stroke-width="1.51"/><path d="M522,756L585,823L582,751Z" fill="#e25840" stroke="#e25840" stroke-width="1.51"/><path d="M511,333L430,405L490,414Z" fill="#fc8a69" stroke="#fc8a69" stroke-width="1.51"/><path d="M399,315L430,405L511,333Z" fill="#fd9171" stroke="#fd9171" stroke-width="1.51"/><path d="M519,248L610,314L596,237Z" fill="#fd9070" stroke="#fd9070" stroke-width="1.51"/><path d="M489,152L519,248L596,237Z" fill="#fd9c7c" stroke="#fd9c7c" stroke-width="1.51"/><path d="M952,162L861,137L927,213Z" fill="#fa8063" stroke="#fa8063" stroke-width="1.51"/><path d="M696,45L600,138L668,159Z" fill="#ff9e80" stroke="#ff9e80" stroke-width="1.51"/><path d="M1176,339L1124,327L1110,402Z" fill="#e65740" stroke="#e65740" stroke-width="1.51"/><path d="M1110,402L1124,327L1042,399Z" fill="#e9563e" stroke="#e9563e" stroke-width="1.51"/><path d="M1009,213L952,162L927,213Z" fill="#f8795d" stroke="#f8795d" stroke-width="1.51"/><path d="M430,405L397,507L500,484Z" fill="#fd8363" stroke="#fd8363" stroke-width="1.51"/><path d="M438,565L407,681L495,684Z" fill="#f36e52" stroke="#f36e52" stroke-width="1.51"/><path d="M1035,735L1127,767L1108,680Z" fill="#d32220" stroke="#d32220" stroke-width="1.51"/><path d="M916,824L1016,835L940,765Z" fill="#d42822" stroke="#d42822" stroke-width="1.51"/><path d="M949,924L916,824L847,831Z" fill="#d02d23" stroke="#d02d23" stroke-width="1.51"/><path d="M1127,579L1187,497L1088,475Z" fill="#e23d2d" stroke="#e23d2d" stroke-width="1.51"/><path d="M1192,579L1187,497L1127,579Z" fill="#dd3529" stroke="#dd3529" stroke-width="1.51"/><path d="M1179,652L1192,579L1127,579Z" fill="#db2b24" stroke="#db2b24" stroke-width="1.51"/><path d="M1179,652L1127,579L1108,680Z" fill="#d92823" stroke="#d92823" stroke-width="1.51"/><path d="M339,560L407,681L438,565Z" fill="#f9775a" stroke="#f9775a" stroke-width="1.51"/><path d="M522,756L490,854L585,823Z" fill="#dd5942" stroke="#dd5942" stroke-width="1.51"/><path d="M1204,739L1179,652L1108,680Z" fill="#d12020" stroke="#d12020" stroke-width="1.51"/><path d="M696,45L668,159L762,154Z" fill="#ff997a" stroke="#ff997a" stroke-width="1.51"/><path d="M668,159L600,138L596,237Z" fill="#fe9979" stroke="#fe9979" stroke-width="1.51"/><path d="M688,860L759,928L742,823Z" fill="#d4422f" stroke="#d4422f" stroke-width="1.51"/><path d="M673,918L759,928L688,860Z" fill="#d04330" stroke="#d04330" stroke-width="1.51"/><path d="M585,908L688,860L585,823Z" fill="#d64e39" stroke="#d64e39" stroke-width="1.51"/><path d="M585,908L673,918L688,860Z" fill="#d24a35" stroke="#d24a35" stroke-width="1.51"/><path d="M1209,413L1176,339L1110,402Z" fill="#e3513b" stroke="#e3513b" stroke-width="1.51"/><path d="M1124,327L1122,244L1043,307Z" fill="#ea6349" stroke="#ea6349" stroke-width="1.51"/><path d="M1009,213L1020,134L952,162Z" fill="#f57b5f" stroke="#f57b5f" stroke-width="1.51"/><path d="M1109,835L1127,767L1035,735Z" fill="#cc1d1e" stroke="#cc1d1e" stroke-width="1.51"/><path d="M759,928L828,935L847,831Z" fill="#ce3728" stroke="#ce3728" stroke-width="1.51"/><path d="M1176,339L1122,244L1124,327Z" fill="#e65e46" stroke="#e65e46" stroke-width="1.51"/><path d="M1262,393L1209,413L1291,474Z" fill="#da4934" stroke="#da4934" stroke-width="1.51"/><path d="M1187,497L1209,413L1110,402Z" fill="#e24934" stroke="#e24934" stroke-width="1.51"/><path d="M416,234L511,333L519,248Z" fill="#fc9878" stroke="#fc9878" stroke-width="1.51"/><path d="M416,234L399,315L511,333Z" fill="#fd9979" stroke="#fd9979" stroke-width="1.51"/><path d="M430,405L334,476L397,507Z" fill="#fd8969" stroke="#fd8969" stroke-width="1.51"/><path d="M407,681L421,758L495,684Z" fill="#ec694f" stroke="#ec694f" stroke-width="1.51"/><path d="M952,162L947,81L861,137Z" fill="#fc8669" stroke="#fc8669" stroke-width="1.51"/><path d="M861,137L832,54L762,154Z" fill="#fe9072" stroke="#fe9072" stroke-width="1.51"/><path d="M1089,140L1020,134L1009,213Z" fill="#f17a5f" stroke="#f17a5f" stroke-width="1.51"/><path d="M828,935L949,924L847,831Z" fill="#cc2f24" stroke="#cc2f24" stroke-width="1.51"/><path d="M1016,835L1109,835L1035,735Z" fill="#cc201f" stroke="#cc201f" stroke-width="1.51"/><path d="M490,854L585,908L585,823Z" fill="#d6553e" stroke="#d6553e" stroke-width="1.51"/><path d="M742,1025L828,935L759,928Z" fill="#c13829" stroke="#c13829" stroke-width="1.51"/><path d="M397,507L339,560L438,565Z" fill="#fb7f60" stroke="#fb7f60" stroke-width="1.51"/><path d="M320,771L412,824L421,758Z" fill="#e36a51" stroke="#e36a51" stroke-width="1.51"/><path d="M334,476L339,560L397,507Z" fill="#fc8667" stroke="#fc8667" stroke-width="1.51"/><path d="M421,758L490,854L522,756Z" fill="#e16048" stroke="#e16048" stroke-width="1.51"/><path d="M326,409L334,476L430,405Z" fill="#fd906f" stroke="#fd906f" stroke-width="1.51"/><path d="M1097,918L1109,835L1016,835Z" fill="#c31c1c" stroke="#c31c1c" stroke-width="1.51"/><path d="M1127,767L1204,739L1108,680Z" fill="#ce1c1e" stroke="#ce1c1e" stroke-width="1.51"/><path d="M1020,134L947,81L952,162Z" fill="#f88267" stroke="#f88267" stroke-width="1.51"/><path d="M947,81L832,54L861,137Z" fill="#fd8e72" stroke="#fd8e72" stroke-width="1.51"/><path d="M949,924L1009,914L1016,835Z" fill="#c7231f" stroke="#c7231f" stroke-width="1.51"/><path d="M342,338L326,409L430,405Z" fill="#fd9575" stroke="#fd9575" stroke-width="1.51"/><path d="M489,152L416,234L519,248Z" fill="#fda182" stroke="#fda182" stroke-width="1.51"/><path d="M600,138L489,152L596,237Z" fill="#fd9e7f" stroke="#fd9e7f" stroke-width="1.51"/><path d="M511,81L489,152L600,138Z" fill="#fea78a" stroke="#fea78a" stroke-width="1.51"/><path d="M832,54L773,41L762,154Z" fill="#ff977a" stroke="#ff977a" stroke-width="1.51"/><path d="M247,564L323,686L339,560Z" fill="#f98064" stroke="#f98064" stroke-width="1.51"/><path d="M342,338L430,405L399,315Z" fill="#fd9677" stroke="#fd9677" stroke-width="1.51"/><path d="M773,41L696,45L762,154Z" fill="#ff9b7e" stroke="#ff9b7e" stroke-width="1.51"/><path d="M1197,846L1204,739L1127,767Z" fill="#c5161b" stroke="#c5161b" stroke-width="1.51"/><path d="M1179,652L1266,587L1192,579Z" fill="#d72923" stroke="#d72923" stroke-width="1.51"/><path d="M1192,579L1266,587L1187,497Z" fill="#d93328" stroke="#d93328" stroke-width="1.51"/><path d="M339,214L342,338L399,315Z" fill="#fda283" stroke="#fda283" stroke-width="1.51"/><path d="M1122,244L1089,140L1009,213Z" fill="#ee7258" stroke="#ee7258" stroke-width="1.51"/><path d="M1020,134L1005,74L947,81Z" fill="#f8856a" stroke="#f8856a" stroke-width="1.51"/><path d="M1182,163L1089,140L1122,244Z" fill="#ea7158" stroke="#ea7158" stroke-width="1.51"/><path d="M1181,225L1122,244L1176,339Z" fill="#e5634a" stroke="#e5634a" stroke-width="1.51"/><path d="M1268,666L1266,587L1179,652Z" fill="#d12521" stroke="#d12521" stroke-width="1.51"/><path d="M1262,393L1176,339L1209,413Z" fill="#df513b" stroke="#df513b" stroke-width="1.51"/><path d="M1288,335L1181,225L1176,339Z" fill="#e05d45" stroke="#e05d45" stroke-width="1.51"/><path d="M947,81L858,-9L832,54Z" fill="#ff9479" stroke="#ff9479" stroke-width="1.51"/><path d="M832,54L858,-9L773,41Z" fill="#ff9b7f" stroke="#ff9b7f" stroke-width="1.51"/><path d="M1089,140L1005,74L1020,134Z" fill="#f38066" stroke="#f38066" stroke-width="1.51"/><path d="M421,758L412,824L490,854Z" fill="#df634b" stroke="#df634b" stroke-width="1.51"/><path d="M490,854L513,945L585,908Z" fill="#d1563f" stroke="#d1563f" stroke-width="1.51"/><path d="M323,686L421,758L407,681Z" fill="#ec6f55" stroke="#ec6f55" stroke-width="1.51"/><path d="M1291,474L1209,413L1187,497Z" fill="#dc4330" stroke="#dc4330" stroke-width="1.51"/><path d="M247,564L339,560L334,476Z" fill="#fc896a" stroke="#fc896a" stroke-width="1.51"/><path d="M339,560L323,686L407,681Z" fill="#f5775c" stroke="#f5775c" stroke-width="1.51"/><path d="M489,152L428,165L416,234Z" fill="#fda88a" stroke="#fda88a" stroke-width="1.51"/><path d="M416,234L339,214L399,315Z" fill="#fda486" stroke="#fda486" stroke-width="1.51"/><path d="M400,53L428,165L489,152Z" fill="#feb094" stroke="#feb094" stroke-width="1.51"/><path d="M696,45L572,57L600,138Z" fill="#ffa589" stroke="#ffa589" stroke-width="1.51"/><path d="M1266,587L1291,474L1187,497Z" fill="#d8392a" stroke="#d8392a" stroke-width="1.51"/><path d="M1266,587L1349,588L1291,474Z" fill="#d13326" stroke="#d13326" stroke-width="1.51"/><path d="M1204,739L1268,666L1179,652Z" fill="#cd201f" stroke="#cd201f" stroke-width="1.51"/><path d="M828,935L845,1015L949,924Z" fill="#bf2c23" stroke="#bf2c23" stroke-width="1.51"/><path d="M949,924L1041,1004L1009,914Z" fill="#bb1f1d" stroke="#bb1f1d" stroke-width="1.51"/><path d="M742,1025L845,1015L828,935Z" fill="#ba3226" stroke="#ba3226" stroke-width="1.51"/><path d="M742,1025L759,928L673,918Z" fill="#c33d2d" stroke="#c33d2d" stroke-width="1.51"/><path d="M572,57L511,81L600,138Z" fill="#fea98c" stroke="#fea98c" stroke-width="1.51"/><path d="M1204,739L1262,772L1268,666Z" fill="#c61a1d" stroke="#c61a1d" stroke-width="1.51"/><path d="M1109,835L1197,846L1127,767Z" fill="#c3171c" stroke="#c3171c" stroke-width="1.51"/><path d="M1009,914L1097,918L1016,835Z" fill="#c31f1d" stroke="#c31f1d" stroke-width="1.51"/><path d="M1041,1004L1097,918L1009,914Z" fill="#b71b1b" stroke="#b71b1b" stroke-width="1.51"/><path d="M670,1023L742,1025L673,918Z" fill="#bd3f2e" stroke="#bd3f2e" stroke-width="1.51"/><path d="M427,914L513,945L490,854Z" fill="#d25b44" stroke="#d25b44" stroke-width="1.51"/><path d="M670,1023L673,918L585,908Z" fill="#c64734" stroke="#c64734" stroke-width="1.51"/><path d="M753,-35L679,-15L696,45Z" fill="#ffa88d" stroke="#ffa88d" stroke-width="1.51"/><path d="M696,45L583,-5L572,57Z" fill="#ffab90" stroke="#ffab90" stroke-width="1.51"/><path d="M941,-47L858,-9L947,81Z" fill="#ff957c" stroke="#ff957c" stroke-width="1.51"/><path d="M572,1027L670,1023L585,908Z" fill="#bf4835" stroke="#bf4835" stroke-width="1.51"/><path d="M1089,140L1123,72L1005,74Z" fill="#f18167" stroke="#f18167" stroke-width="1.51"/><path d="M1005,74L941,-47L947,81Z" fill="#fc8e75" stroke="#fc8e75" stroke-width="1.51"/><path d="M1181,225L1182,163L1122,244Z" fill="#e66c53" stroke="#e66c53" stroke-width="1.51"/><path d="M1266,130L1182,163L1181,225Z" fill="#e37057" stroke="#e37057" stroke-width="1.51"/><path d="M1288,335L1176,339L1262,393Z" fill="#dc543d" stroke="#dc543d" stroke-width="1.51"/><path d="M1097,918L1197,846L1109,835Z" fill="#be171a" stroke="#be171a" stroke-width="1.51"/><path d="M1358,403L1288,335L1262,393Z" fill="#d64f39" stroke="#d64f39" stroke-width="1.51"/><path d="M412,824L427,914L490,854Z" fill="#d86049" stroke="#d86049" stroke-width="1.51"/><path d="M323,686L320,771L421,758Z" fill="#e97056" stroke="#e97056" stroke-width="1.51"/><path d="M233,741L320,771L323,686Z" fill="#eb765d" stroke="#eb765d" stroke-width="1.51"/><path d="M326,409L261,410L334,476Z" fill="#fe9475" stroke="#fe9475" stroke-width="1.51"/><path d="M342,338L261,410L326,409Z" fill="#fe9a7b" stroke="#fe9a7b" stroke-width="1.51"/><path d="M240,310L261,410L342,338Z" fill="#fda183" stroke="#fda183" stroke-width="1.51"/><path d="M753,-35L696,45L773,41Z" fill="#ffa387" stroke="#ffa387" stroke-width="1.51"/><path d="M572,57L486,-39L511,81Z" fill="#ffb399" stroke="#ffb399" stroke-width="1.51"/><path d="M428,165L339,214L416,234Z" fill="#fdaa8c" stroke="#fdaa8c" stroke-width="1.51"/><path d="M345,128L339,214L428,165Z" fill="#fdb194" stroke="#fdb194" stroke-width="1.51"/><path d="M513,945L572,1027L585,908Z" fill="#c44f3b" stroke="#c44f3b" stroke-width="1.51"/><path d="M333,846L427,914L412,824Z" fill="#d9664e" stroke="#d9664e" stroke-width="1.51"/><path d="M845,1015L931,1032L949,924Z" fill="#b72520" stroke="#b72520" stroke-width="1.51"/><path d="M742,1025L931,1032L845,1015Z" fill="#b22c23" stroke="#b22c23" stroke-width="1.51"/><path d="M492,1033L931,1032L742,1025Z" fill="#b4392b" stroke="#b4392b" stroke-width="1.51"/><path d="M1197,846L1262,772L1204,739Z" fill="#c1151a" stroke="#c1151a" stroke-width="1.51"/><path d="M1268,666L1349,588L1266,587Z" fill="#cf2621" stroke="#cf2621" stroke-width="1.51"/><path d="M233,497L247,564L334,476Z" fill="#fd8e70" stroke="#fd8e70" stroke-width="1.51"/><path d="M858,-9L753,-35L773,41Z" fill="#ffa086" stroke="#ffa086" stroke-width="1.51"/><path d="M1182,163L1123,72L1089,140Z" fill="#eb7960" stroke="#eb7960" stroke-width="1.51"/><path d="M261,410L233,497L334,476Z" fill="#fe9475" stroke="#fe9475" stroke-width="1.51"/><path d="M931,1032L1041,1004L949,924Z" fill="#b41f1d" stroke="#b41f1d" stroke-width="1.51"/><path d="M1186,937L1260,841L1197,846Z" fill="#b61319" stroke="#b61319" stroke-width="1.51"/><path d="M679,-15L583,-5L696,45Z" fill="#ffab91" stroke="#ffab91" stroke-width="1.51"/><path d="M400,53L345,128L428,165Z" fill="#fdb69a" stroke="#fdb69a" stroke-width="1.51"/><path d="M611,-108L583,-5L679,-15Z" fill="#ffb299" stroke="#ffb299" stroke-width="1.51"/><path d="M670,1023L572,1027L742,1025Z" fill="#b64030" stroke="#b64030" stroke-width="1.51"/><path d="M492,1033L572,1027L513,945Z" fill="#bb4f3d" stroke="#bb4f3d" stroke-width="1.51"/><path d="M320,771L333,846L412,824Z" fill="#df6b53" stroke="#df6b53" stroke-width="1.51"/><path d="M437,1008L492,1033L513,945Z" fill="#bd5441" stroke="#bd5441" stroke-width="1.51"/><path d="M261,826L333,846L320,771Z" fill="#e07158" stroke="#e07158" stroke-width="1.51"/><path d="M1386,651L1349,588L1268,666Z" fill="#c9231f" stroke="#c9231f" stroke-width="1.51"/><path d="M1291,474L1358,403L1262,393Z" fill="#d64733" stroke="#d64733" stroke-width="1.51"/><path d="M1349,588L1360,471L1291,474Z" fill="#d03929" stroke="#d03929" stroke-width="1.51"/><path d="M1370,745L1386,651L1268,666Z" fill="#c21d1c" stroke="#c21d1c" stroke-width="1.51"/><path d="M1197,846L1260,841L1262,772Z" fill="#ba141a" stroke="#ba141a" stroke-width="1.51"/><path d="M1186,937L1197,846L1097,918Z" fill="#b81319" stroke="#b81319" stroke-width="1.51"/><path d="M1288,335L1297,240L1181,225Z" fill="#dd6149" stroke="#dd6149" stroke-width="1.51"/><path d="M1182,163L1208,82L1123,72Z" fill="#e87a62" stroke="#e87a62" stroke-width="1.51"/><path d="M1382,317L1297,240L1288,335Z" fill="#d65a43" stroke="#d65a43" stroke-width="1.51"/><path d="M1039,-38L941,-47L1005,74Z" fill="#fb927a" stroke="#fb927a" stroke-width="1.51"/><path d="M858,-9L779,-101L753,-35Z" fill="#ffa48a" stroke="#ffa48a" stroke-width="1.51"/><path d="M1360,471L1358,403L1291,474Z" fill="#d2422f" stroke="#d2422f" stroke-width="1.51"/><path d="M339,214L240,310L342,338Z" fill="#fda689" stroke="#fda689" stroke-width="1.51"/><path d="M261,410L164,421L233,497Z" fill="#ff9b7d" stroke="#ff9b7d" stroke-width="1.51"/><path d="M177,599L231,686L247,564Z" fill="#fa876b" stroke="#fa876b" stroke-width="1.51"/><path d="M247,564L231,686L323,686Z" fill="#f58065" stroke="#f58065" stroke-width="1.51"/><path d="M1109,1013L1186,937L1097,918Z" fill="#ae1218" stroke="#ae1218" stroke-width="1.51"/><path d="M339,214L233,252L240,310Z" fill="#fdae91" stroke="#fdae91" stroke-width="1.51"/><path d="M400,53L489,152L511,81Z" fill="#feb196" stroke="#feb196" stroke-width="1.51"/><path d="M1041,1004L1109,1013L1097,918Z" fill="#ae161a" stroke="#ae161a" stroke-width="1.51"/><path d="M931,1032L1109,1013L1041,1004Z" fill="#a9181b" stroke="#a9181b" stroke-width="1.51"/><path d="M437,1008L513,945L427,914Z" fill="#c75945" stroke="#c75945" stroke-width="1.51"/><path d="M572,1027L492,1033L742,1025Z" fill="#b54635" stroke="#b54635" stroke-width="1.51"/><path d="M486,-39L400,53L511,81Z" fill="#ffb89f" stroke="#ffb89f" stroke-width="1.51"/><path d="M352,937L437,1008L427,914Z" fill="#c85f4a" stroke="#c85f4a" stroke-width="1.51"/><path d="M231,686L233,741L323,686Z" fill="#ef7b62" stroke="#ef7b62" stroke-width="1.51"/><path d="M1108,-4L1039,-38L1005,74Z" fill="#f68d75" stroke="#f68d75" stroke-width="1.51"/><path d="M1266,130L1208,82L1182,163Z" fill="#e3765e" stroke="#e3765e" stroke-width="1.51"/><path d="M1108,-4L1005,74L1123,72Z" fill="#f2876e" stroke="#f2876e" stroke-width="1.51"/><path d="M1204,-27L1108,-4L1123,72Z" fill="#ee8770" stroke="#ee8770" stroke-width="1.51"/><path d="M352,937L427,914L333,846Z" fill="#d4664f" stroke="#d4664f" stroke-width="1.51"/><path d="M244,927L352,937L333,846Z" fill="#d46c55" stroke="#d46c55" stroke-width="1.51"/><path d="M258,128L233,252L339,214Z" fill="#fdb69a" stroke="#fdb69a" stroke-width="1.51"/><path d="M143,485L177,599L233,497Z" fill="#ff9478" stroke="#ff9478" stroke-width="1.51"/><path d="M233,497L177,599L247,564Z" fill="#fd8e71" stroke="#fd8e71" stroke-width="1.51"/><path d="M258,128L339,214L345,128Z" fill="#fcb89c" stroke="#fcb89c" stroke-width="1.51"/><path d="M1208,82L1204,-27L1123,72Z" fill="#ea826b" stroke="#ea826b" stroke-width="1.51"/><path d="M1297,240L1266,130L1181,225Z" fill="#df6a52" stroke="#df6a52" stroke-width="1.51"/><path d="M1351,165L1266,130L1297,240Z" fill="#da6c54" stroke="#da6c54" stroke-width="1.51"/><path d="M753,-35L673,-120L679,-15Z" fill="#ffac92" stroke="#ffac92" stroke-width="1.51"/><path d="M583,-5L486,-39L572,57Z" fill="#ffb59b" stroke="#ffb59b" stroke-width="1.51"/><path d="M838,-107L779,-101L858,-9Z" fill="#ffa38b" stroke="#ffa38b" stroke-width="1.51"/><path d="M838,-107L858,-9L920,-112Z" fill="#ffa087" stroke="#ffa087" stroke-width="1.51"/><path d="M233,741L261,826L320,771Z" fill="#e5755d" stroke="#e5755d" stroke-width="1.51"/><path d="M1451,474L1446,423L1360,471Z" fill="#c83e2d" stroke="#c83e2d" stroke-width="1.51"/><path d="M1446,423L1382,317L1358,403Z" fill="#cc4b36" stroke="#cc4b36" stroke-width="1.51"/><path d="M1370,745L1268,666L1262,772Z" fill="#c1191b" stroke="#c1191b" stroke-width="1.51"/><path d="M164,421L261,410L240,310Z" fill="#ffa285" stroke="#ffa285" stroke-width="1.51"/><path d="M231,686L146,747L233,741Z" fill="#ee7f67" stroke="#ee7f67" stroke-width="1.51"/><path d="M233,741L158,843L261,826Z" fill="#e37962" stroke="#e37962" stroke-width="1.51"/><path d="M920,-112L858,-9L941,-47Z" fill="#ff9b83" stroke="#ff9b83" stroke-width="1.51"/><path d="M1358,403L1382,317L1288,335Z" fill="#d3523b" stroke="#d3523b" stroke-width="1.51"/><path d="M1446,423L1358,403L1360,471Z" fill="#cd4430" stroke="#cd4430" stroke-width="1.51"/><path d="M1366,821L1370,745L1262,772Z" fill="#b71319" stroke="#b71319" stroke-width="1.51"/><path d="M1186,937L1289,930L1260,841Z" fill="#af1117" stroke="#af1117" stroke-width="1.51"/><path d="M1109,1013L1191,990L1186,937Z" fill="#a60f17" stroke="#a60f17" stroke-width="1.51"/><path d="M515,-94L486,-39L583,-5Z" fill="#ffbaa2" stroke="#ffbaa2" stroke-width="1.51"/><path d="M1366,821L1262,772L1260,841Z" fill="#b71319" stroke="#b71319" stroke-width="1.51"/><path d="M147,328L164,421L240,310Z" fill="#ffa98d" stroke="#ffa98d" stroke-width="1.51"/><path d="M1009,-92L941,-47L1039,-38Z" fill="#fc957f" stroke="#fc957f" stroke-width="1.51"/><path d="M1009,-92L920,-112L941,-47Z" fill="#ff9983" stroke="#ff9983" stroke-width="1.51"/><path d="M920,-112L673,-120L838,-107Z" fill="#ffa78f" stroke="#ffa78f" stroke-width="1.51"/><path d="M838,-107L673,-120L779,-101Z" fill="#ffab93" stroke="#ffab93" stroke-width="1.51"/><path d="M779,-101L673,-120L753,-35Z" fill="#ffab93" stroke="#ffab93" stroke-width="1.51"/><path d="M1094,-98L1009,-92L1039,-38Z" fill="#f8947e" stroke="#f8947e" stroke-width="1.51"/><path d="M1094,-98L1039,-38L1108,-4Z" fill="#f5907a" stroke="#f5907a" stroke-width="1.51"/><path d="M177,599L163,665L231,686Z" fill="#f7876c" stroke="#f7876c" stroke-width="1.51"/><path d="M79,559L163,665L177,599Z" fill="#fd8e74" stroke="#fd8e74" stroke-width="1.51"/><path d="M673,-120L611,-108L679,-15Z" fill="#ffb29a" stroke="#ffb29a" stroke-width="1.51"/><path d="M412,-29L346,41L400,53Z" fill="#ffc2aa" stroke="#ffc2aa" stroke-width="1.51"/><path d="M400,53L346,41L345,128Z" fill="#febda4" stroke="#febda4" stroke-width="1.51"/><path d="M164,421L143,485L233,497Z" fill="#ff9b7e" stroke="#ff9b7e" stroke-width="1.51"/><path d="M1266,130L1264,71L1208,82Z" fill="#e17962" stroke="#e17962" stroke-width="1.51"/><path d="M1352,67L1264,71L1266,130Z" fill="#dd7862" stroke="#dd7862" stroke-width="1.51"/><path d="M176,236L147,328L240,310Z" fill="#ffb096" stroke="#ffb096" stroke-width="1.51"/><path d="M76,398L70,476L143,485Z" fill="#ffa589" stroke="#ffa589" stroke-width="1.51"/><path d="M346,41L258,128L345,128Z" fill="#fdbfa6" stroke="#fdbfa6" stroke-width="1.51"/><path d="M1191,990L1289,930L1186,937Z" fill="#a70f16" stroke="#a70f16" stroke-width="1.51"/><path d="M352,937L347,996L437,1008Z" fill="#c25f4c" stroke="#c25f4c" stroke-width="1.51"/><path d="M437,1008L347,996L492,1033Z" fill="#bb5846" stroke="#bb5846" stroke-width="1.51"/><path d="M244,927L347,996L352,937Z" fill="#c96853" stroke="#c96853" stroke-width="1.51"/><path d="M244,927L333,846L261,826Z" fill="#d97059" stroke="#d97059" stroke-width="1.51"/><path d="M1370,745L1449,647L1386,651Z" fill="#bb1c1c" stroke="#bb1c1c" stroke-width="1.51"/><path d="M1289,930L1366,821L1260,841Z" fill="#af1217" stroke="#af1217" stroke-width="1.51"/><path d="M346,41L242,42L258,128Z" fill="#fdc5ae" stroke="#fdc5ae" stroke-width="1.51"/><path d="M486,-39L412,-29L400,53Z" fill="#ffc0a9" stroke="#ffc0a9" stroke-width="1.51"/><path d="M428,-97L412,-29L486,-39Z" fill="#ffc3ad" stroke="#ffc3ad" stroke-width="1.51"/><path d="M1380,217L1351,165L1297,240Z" fill="#d6664f" stroke="#d6664f" stroke-width="1.51"/><path d="M1382,317L1380,217L1297,240Z" fill="#d45f48" stroke="#d45f48" stroke-width="1.51"/><path d="M428,-97L515,-94L611,-108Z" fill="#ffbfa9" stroke="#ffbfa9" stroke-width="1.51"/><path d="M611,-108L515,-94L583,-5Z" fill="#ffb8a1" stroke="#ffb8a1" stroke-width="1.51"/><path d="M1382,317L1448,228L1380,217Z" fill="#cd5d47" stroke="#cd5d47" stroke-width="1.51"/><path d="M1451,474L1360,471L1349,588Z" fill="#ca3728" stroke="#ca3728" stroke-width="1.51"/><path d="M1451,474L1349,588L1458,601Z" fill="#c42e23" stroke="#c42e23" stroke-width="1.51"/><path d="M1458,601L1349,588L1386,651Z" fill="#c3241f" stroke="#c3241f" stroke-width="1.51"/><path d="M176,236L240,310L233,252Z" fill="#feb196" stroke="#feb196" stroke-width="1.51"/><path d="M164,168L176,236L233,252Z" fill="#febaa1" stroke="#febaa1" stroke-width="1.51"/><path d="M1467,770L1449,647L1370,745Z" fill="#b21619" stroke="#b21619" stroke-width="1.51"/><path d="M1449,647L1458,601L1386,651Z" fill="#bc201e" stroke="#bc201e" stroke-width="1.51"/><path d="M1290,-19L1204,-27L1264,71Z" fill="#e4836e" stroke="#e4836e" stroke-width="1.51"/><path d="M1264,71L1204,-27L1208,82Z" fill="#e5806a" stroke="#e5806a" stroke-width="1.51"/><path d="M1009,-92L1094,-98L920,-112Z" fill="#fc9782" stroke="#fc9782" stroke-width="1.51"/><path d="M1204,-27L1094,-98L1108,-4Z" fill="#f08c77" stroke="#f08c77" stroke-width="1.51"/><path d="M163,665L146,747L231,686Z" fill="#f2836a" stroke="#f2836a" stroke-width="1.51"/><path d="M55,681L146,747L163,665Z" fill="#f38971" stroke="#f38971" stroke-width="1.51"/><path d="M158,843L244,927L261,826Z" fill="#db755f" stroke="#db755f" stroke-width="1.51"/><path d="M1446,423L1459,318L1382,317Z" fill="#c74d3a" stroke="#c74d3a" stroke-width="1.51"/><path d="M1466,147L1352,67L1351,165Z" fill="#d2705a" stroke="#d2705a" stroke-width="1.51"/><path d="M1557,397L1459,318L1446,423Z" fill="#be4735" stroke="#be4735" stroke-width="1.51"/><path d="M1531,493L1446,423L1451,474Z" fill="#be3a2b" stroke="#be3a2b" stroke-width="1.51"/><path d="M428,-97L333,-26L412,-29Z" fill="#ffc8b2" stroke="#ffc8b2" stroke-width="1.51"/><path d="M412,-29L333,-26L346,41Z" fill="#ffc7b1" stroke="#ffc7b1" stroke-width="1.51"/><path d="M258,128L164,168L233,252Z" fill="#fdbda3" stroke="#fdbda3" stroke-width="1.51"/><path d="M515,-94L428,-97L486,-39Z" fill="#ffc1ab" stroke="#ffc1ab" stroke-width="1.51"/><path d="M673,-120L428,-97L611,-108Z" fill="#ffbba5" stroke="#ffbba5" stroke-width="1.51"/><path d="M143,485L79,559L177,599Z" fill="#ff977b" stroke="#ff977b" stroke-width="1.51"/><path d="M70,476L79,559L143,485Z" fill="#ff9e83" stroke="#ff9e83" stroke-width="1.51"/><path d="M169,40L164,168L258,128Z" fill="#fec7b0" stroke="#fec7b0" stroke-width="1.51"/><path d="M78,220L55,321L147,328Z" fill="#ffb9a0" stroke="#ffb9a0" stroke-width="1.51"/><path d="M76,398L143,485L164,421Z" fill="#ffa488" stroke="#ffa488" stroke-width="1.51"/><path d="M146,747L158,843L233,741Z" fill="#e87e67" stroke="#e87e67" stroke-width="1.51"/><path d="M68,768L158,843L146,747Z" fill="#e8826c" stroke="#e8826c" stroke-width="1.51"/><path d="M76,398L164,421L147,328Z" fill="#ffaa8f" stroke="#ffaa8f" stroke-width="1.51"/><path d="M1204,-27L1204,-92L1094,-98Z" fill="#ee8d79" stroke="#ee8d79" stroke-width="1.51"/><path d="M1351,165L1352,67L1266,130Z" fill="#da735d" stroke="#da735d" stroke-width="1.51"/><path d="M1466,147L1351,165L1380,217Z" fill="#cf6852" stroke="#cf6852" stroke-width="1.51"/><path d="M169,40L242,42L174,-47Z" fill="#fed3c1" stroke="#fed3c1" stroke-width="1.51"/><path d="M333,-26L242,42L346,41Z" fill="#fec8b4" stroke="#fec8b4" stroke-width="1.51"/><path d="M1459,318L1448,228L1382,317Z" fill="#c85741" stroke="#c85741" stroke-width="1.51"/><path d="M55,321L76,398L147,328Z" fill="#ffb198" stroke="#ffb198" stroke-width="1.51"/><path d="M1289,930L1387,942L1366,821Z" fill="#a71015" stroke="#a71015" stroke-width="1.51"/><path d="M1366,821L1467,770L1370,745Z" fill="#af1118" stroke="#af1118" stroke-width="1.51"/><path d="M1191,990L1295,1026L1289,930Z" fill="#9e0c15" stroke="#9e0c15" stroke-width="1.51"/><path d="M1109,1013L1295,1026L1191,990Z" fill="#9d0c16" stroke="#9d0c16" stroke-width="1.51"/><path d="M931,1032L1295,1026L1109,1013Z" fill="#a11018" stroke="#a11018" stroke-width="1.51"/><path d="M1458,601L1531,493L1451,474Z" fill="#bc3125" stroke="#bc3125" stroke-width="1.51"/><path d="M1541,589L1531,493L1458,601Z" fill="#b52921" stroke="#b52921" stroke-width="1.51"/><path d="M1458,826L1467,770L1366,821Z" fill="#a80f16" stroke="#a80f16" stroke-width="1.51"/><path d="M1352,67L1290,-19L1264,71Z" fill="#de7e69" stroke="#de7e69" stroke-width="1.51"/><path d="M1094,-98L1262,-111L920,-112Z" fill="#f5937f" stroke="#f5937f" stroke-width="1.51"/><path d="M1262,-111L1204,-92L1204,-27Z" fill="#e98b77" stroke="#e98b77" stroke-width="1.51"/><path d="M1379,993L1387,942L1289,930Z" fill="#9b0c15" stroke="#9b0c15" stroke-width="1.51"/><path d="M1464,904L1458,826L1366,821Z" fill="#a20e15" stroke="#a20e15" stroke-width="1.51"/><path d="M1458,601L1449,647L1542,657Z" fill="#b41e1d" stroke="#b41e1d" stroke-width="1.51"/><path d="M1541,589L1458,601L1542,657Z" fill="#b21f1d" stroke="#b21f1d" stroke-width="1.51"/><path d="M1522,154L1466,147L1448,228Z" fill="#c36451" stroke="#c36451" stroke-width="1.51"/><path d="M165,935L226,1001L244,927Z" fill="#cb715d" stroke="#cb715d" stroke-width="1.51"/><path d="M244,927L226,1001L347,996Z" fill="#c46a56" stroke="#c46a56" stroke-width="1.51"/><path d="M347,996L226,1001L492,1033Z" fill="#bc5f4d" stroke="#bc5f4d" stroke-width="1.51"/><path d="M79,559L55,681L163,665Z" fill="#fb9077" stroke="#fb9077" stroke-width="1.51"/><path d="M158,843L165,935L244,927Z" fill="#d77761" stroke="#d77761" stroke-width="1.51"/><path d="M-6,656L55,681L79,559Z" fill="#fd947c" stroke="#fd947c" stroke-width="1.51"/><path d="M82,915L165,935L158,843Z" fill="#d97c67" stroke="#d97c67" stroke-width="1.51"/><path d="M70,476L-12,505L79,559Z" fill="#ffa187" stroke="#ffa187" stroke-width="1.51"/><path d="M-17,388L-12,505L70,476Z" fill="#ffa98f" stroke="#ffa98f" stroke-width="1.51"/><path d="M78,220L147,328L176,236Z" fill="#ffb9a0" stroke="#ffb9a0" stroke-width="1.51"/><path d="M78,220L176,236L164,168Z" fill="#fec0a8" stroke="#fec0a8" stroke-width="1.51"/><path d="M1542,657L1449,647L1530,742Z" fill="#ab171a" stroke="#ab171a" stroke-width="1.51"/><path d="M1387,942L1464,904L1366,821Z" fill="#a10e15" stroke="#a10e15" stroke-width="1.51"/><path d="M1295,1026L1379,993L1289,930Z" fill="#980b14" stroke="#980b14" stroke-width="1.51"/><path d="M55,681L68,768L146,747Z" fill="#f08972" stroke="#f08972" stroke-width="1.51"/><path d="M65,136L78,220L164,168Z" fill="#fec8b1" stroke="#fec8b1" stroke-width="1.51"/><path d="M1530,742L1449,647L1467,770Z" fill="#ab1318" stroke="#ab1318" stroke-width="1.51"/><path d="M1530,742L1467,770L1533,843Z" fill="#9f0c15" stroke="#9f0c15" stroke-width="1.51"/><path d="M1542,229L1448,228L1459,318Z" fill="#c05844" stroke="#c05844" stroke-width="1.51"/><path d="M1448,228L1466,147L1380,217Z" fill="#ca644e" stroke="#ca644e" stroke-width="1.51"/><path d="M1355,-40L1262,-111L1290,-19Z" fill="#e18774" stroke="#e18774" stroke-width="1.51"/><path d="M242,42L169,40L258,128Z" fill="#fecab5" stroke="#fecab5" stroke-width="1.51"/><path d="M244,-47L242,42L333,-26Z" fill="#fecfbb" stroke="#fecfbb" stroke-width="1.51"/><path d="M1533,843L1467,770L1458,826Z" fill="#9f0c15" stroke="#9f0c15" stroke-width="1.51"/><path d="M1542,657L1557,397L1541,589Z" fill="#b02a22" stroke="#b02a22" stroke-width="1.51"/><path d="M1541,589L1557,397L1531,493Z" fill="#b33327" stroke="#b33327" stroke-width="1.51"/><path d="M1531,493L1557,397L1446,423Z" fill="#b93d2d" stroke="#b93d2d" stroke-width="1.51"/><path d="M310,-108L244,-47L333,-26Z" fill="#ffd1be" stroke="#ffd1be" stroke-width="1.51"/><path d="M428,-97L310,-108L333,-26Z" fill="#ffccb8" stroke="#ffccb8" stroke-width="1.51"/><path d="M673,-120L310,-108L428,-97Z" fill="#ffc4af" stroke="#ffc4af" stroke-width="1.51"/><path d="M1290,-19L1262,-111L1204,-27Z" fill="#e68875" stroke="#e68875" stroke-width="1.51"/><path d="M1204,-92L1262,-111L1094,-98Z" fill="#ed8e7b" stroke="#ed8e7b" stroke-width="1.51"/><path d="M920,-112L1453,-129L673,-120Z" fill="#fc9983" stroke="#fc9983" stroke-width="1.51"/><path d="M1355,-40L1290,-19L1352,67Z" fill="#dd816d" stroke="#dd816d" stroke-width="1.51"/><path d="M1434,1010L1464,904L1387,942Z" fill="#920913" stroke="#920913" stroke-width="1.51"/><path d="M79,990L171,1001L165,935Z" fill="#c77564" stroke="#c77564" stroke-width="1.51"/><path d="M165,935L171,1001L226,1001Z" fill="#c5705f" stroke="#c5705f" stroke-width="1.51"/><path d="M226,1001L171,1001L492,1033Z" fill="#bc6452" stroke="#bc6452" stroke-width="1.51"/><path d="M1452,46L1355,-40L1352,67Z" fill="#d67c69" stroke="#d67c69" stroke-width="1.51"/><path d="M1557,397L1558,320L1459,318Z" fill="#b84a38" stroke="#b84a38" stroke-width="1.51"/><path d="M-17,388L70,476L76,398Z" fill="#ffac92" stroke="#ffac92" stroke-width="1.51"/><path d="M4,752L57,844L68,768Z" fill="#e98873" stroke="#e98873" stroke-width="1.51"/><path d="M-17,388L76,398L55,321Z" fill="#ffb29a" stroke="#ffb29a" stroke-width="1.51"/><path d="M68,768L57,844L158,843Z" fill="#e4836e" stroke="#e4836e" stroke-width="1.51"/><path d="M4,752L68,768L55,681Z" fill="#f08b76" stroke="#f08b76" stroke-width="1.51"/><path d="M1558,320L1542,229L1459,318Z" fill="#ba523f" stroke="#ba523f" stroke-width="1.51"/><path d="M1466,147L1452,46L1352,67Z" fill="#ce735f" stroke="#ce735f" stroke-width="1.51"/><path d="M-28,590L-6,656L79,559Z" fill="#ff9880" stroke="#ff9880" stroke-width="1.51"/><path d="M1541,70L1452,46L1466,147Z" fill="#c36f5d" stroke="#c36f5d" stroke-width="1.51"/><path d="M310,-108L256,-103L244,-47Z" fill="#ffd4c3" stroke="#ffd4c3" stroke-width="1.51"/><path d="M244,-47L174,-47L242,42Z" fill="#fed4c2" stroke="#fed4c2" stroke-width="1.51"/><path d="M57,844L82,915L158,843Z" fill="#de806c" stroke="#de806c" stroke-width="1.51"/><path d="M-12,505L-28,590L79,559Z" fill="#ff9e85" stroke="#ff9e85" stroke-width="1.51"/><path d="M-36,338L-17,388L55,321Z" fill="#ffb79f" stroke="#ffb79f" stroke-width="1.51"/><path d="M-36,338L55,321L-22,216Z" fill="#ffbea7" stroke="#ffbea7" stroke-width="1.51"/><path d="M169,40L65,136L164,168Z" fill="#feccb8" stroke="#feccb8" stroke-width="1.51"/><path d="M73,46L65,136L169,40Z" fill="#fed4c2" stroke="#fed4c2" stroke-width="1.51"/><path d="M1542,657L1561,992L1557,397Z" fill="#a41519" stroke="#a41519" stroke-width="1.51"/><path d="M1530,742L1533,843L1542,657Z" fill="#9f0d16" stroke="#9f0d16" stroke-width="1.51"/><path d="M1464,904L1533,843L1458,826Z" fill="#990b14" stroke="#990b14" stroke-width="1.51"/><path d="M1527,905L1533,843L1464,904Z" fill="#930914" stroke="#930914" stroke-width="1.51"/><path d="M1379,993L1434,1010L1387,942Z" fill="#8f0913" stroke="#8f0913" stroke-width="1.51"/><path d="M1295,1026L1434,1010L1379,993Z" fill="#8f0813" stroke="#8f0813" stroke-width="1.51"/><path d="M1542,229L1522,154L1448,228Z" fill="#be5f4c" stroke="#be5f4c" stroke-width="1.51"/><path d="M-95,560L-28,590L-12,505Z" fill="#ffa089" stroke="#ffa089" stroke-width="1.51"/><path d="M-24,906L79,990L82,915Z" fill="#d2806e" stroke="#d2806e" stroke-width="1.51"/><path d="M-6,656L4,752L55,681Z" fill="#f59079" stroke="#f59079" stroke-width="1.51"/><path d="M-99,766L4,752L-6,656Z" fill="#f3907c" stroke="#f3907c" stroke-width="1.51"/><path d="M256,-103L174,-47L244,-47Z" fill="#ffd7c6" stroke="#ffd7c6" stroke-width="1.51"/><path d="M1561,992L1527,905L1464,904Z" fill="#890612" stroke="#890612" stroke-width="1.51"/><path d="M-113,409L-95,508L-12,505Z" fill="#ffab93" stroke="#ffab93" stroke-width="1.51"/><path d="M-22,216L55,321L78,220Z" fill="#ffc1ab" stroke="#ffc1ab" stroke-width="1.51"/><path d="M1452,46L1439,-35L1355,-40Z" fill="#d27f6d" stroke="#d27f6d" stroke-width="1.51"/><path d="M1355,-40L1387,-106L1262,-111Z" fill="#df8776" stroke="#df8776" stroke-width="1.51"/><path d="M1559,-21L1439,-35L1452,46Z" fill="#c77a6a" stroke="#c77a6a" stroke-width="1.51"/><path d="M65,136L-22,216L78,220Z" fill="#ffc9b4" stroke="#ffc9b4" stroke-width="1.51"/><path d="M73,-14L73,46L169,40Z" fill="#fedac9" stroke="#fedac9" stroke-width="1.51"/><path d="M-5,857L82,915L57,844Z" fill="#de8471" stroke="#de8471" stroke-width="1.51"/><path d="M82,915L79,990L165,935Z" fill="#cf7a68" stroke="#cf7a68" stroke-width="1.51"/><path d="M1439,-35L1387,-106L1355,-40Z" fill="#d68372" stroke="#d68372" stroke-width="1.51"/><path d="M-20,128L-22,216L65,136Z" fill="#fecfbc" stroke="#fecfbc" stroke-width="1.51"/><path d="M4,752L-5,857L57,844Z" fill="#e58874" stroke="#e58874" stroke-width="1.51"/><path d="M-24,906L-5,857L-92,817Z" fill="#e18976" stroke="#e18976" stroke-width="1.51"/><path d="M1439,-35L1453,-129L1387,-106Z" fill="#d28374" stroke="#d28374" stroke-width="1.51"/><path d="M1522,154L1541,70L1466,147Z" fill="#bf6957" stroke="#bf6957" stroke-width="1.51"/><path d="M1542,229L1541,70L1522,154Z" fill="#ba6452" stroke="#ba6452" stroke-width="1.51"/><path d="M1559,-21L1541,70L1542,229Z" fill="#b96a5b" stroke="#b96a5b" stroke-width="1.51"/><path d="M-113,409L-12,505L-17,388Z" fill="#ffaf96" stroke="#ffaf96" stroke-width="1.51"/><path d="M-28,590L-123,676L-6,656Z" fill="#fd9881" stroke="#fd9881" stroke-width="1.51"/><path d="M-113,409L-17,388L-36,338Z" fill="#ffb69f" stroke="#ffb69f" stroke-width="1.51"/><path d="M-95,508L-95,560L-12,505Z" fill="#ffa58d" stroke="#ffa58d" stroke-width="1.51"/><path d="M51,-98L73,-14L174,-47Z" fill="#ffe1d4" stroke="#ffe1d4" stroke-width="1.51"/><path d="M174,-47L73,-14L169,40Z" fill="#fedacb" stroke="#fedacb" stroke-width="1.51"/><path d="M73,46L-20,128L65,136Z" fill="#fed4c2" stroke="#fed4c2" stroke-width="1.51"/><path d="M256,-103L156,-120L174,-47Z" fill="#ffdbcc" stroke="#ffdbcc" stroke-width="1.51"/><path d="M310,-108L156,-120L256,-103Z" fill="#ffd9c9" stroke="#ffd9c9" stroke-width="1.51"/><path d="M673,-120L156,-120L310,-108Z" fill="#ffcdba" stroke="#ffcdba" stroke-width="1.51"/><path d="M-31,61L-20,128L73,46Z" fill="#fed9c9" stroke="#fed9c9" stroke-width="1.51"/><path d="M-117,301L-113,409L-36,338Z" fill="#ffbba5" stroke="#ffbba5" stroke-width="1.51"/><path d="M-5,857L-24,906L82,915Z" fill="#dc8471" stroke="#dc8471" stroke-width="1.51"/><path d="M-92,817L-5,857L4,752Z" fill="#e88b77" stroke="#e88b77" stroke-width="1.51"/><path d="M-95,508L-123,676L-95,560Z" fill="#ffa089" stroke="#ffa089" stroke-width="1.51"/><path d="M-117,301L-36,338L-22,216Z" fill="#ffc2ac" stroke="#ffc2ac" stroke-width="1.51"/><path d="M1434,1010L1561,992L1464,904Z" fill="#860612" stroke="#860612" stroke-width="1.51"/><path d="M1527,905L1561,992L1533,843Z" fill="#8a0712" stroke="#8a0712" stroke-width="1.51"/><path d="M1533,843L1561,992L1542,657Z" fill="#940914" stroke="#940914" stroke-width="1.51"/><path d="M1557,397L1561,992L1558,320Z" fill="#ae2520" stroke="#ae2520" stroke-width="1.51"/><path d="M-123,676L-99,766L-6,656Z" fill="#f7947f" stroke="#f7947f" stroke-width="1.51"/><path d="M-123,676L-28,590L-95,560Z" fill="#ff9c85" stroke="#ff9c85" stroke-width="1.51"/><path d="M1524,-101L1453,-129L1439,-35Z" fill="#ca8072" stroke="#ca8072" stroke-width="1.51"/><path d="M1387,-106L1453,-129L1262,-111Z" fill="#dc8978" stroke="#dc8978" stroke-width="1.51"/><path d="M1262,-111L1453,-129L920,-112Z" fill="#eb8e7c" stroke="#eb8e7c" stroke-width="1.51"/><path d="M673,-120L-2,-122L156,-120Z" fill="#ffd6c6" stroke="#ffd6c6" stroke-width="1.51"/><path d="M-113,409L-123,676L-95,508Z" fill="#ffa78f" stroke="#ffa78f" stroke-width="1.51"/><path d="M-113,409L-122,249L-123,676Z" fill="#ffb199" stroke="#ffb199" stroke-width="1.51"/><path d="M-122,249L-117,301L-22,216Z" fill="#ffc7b2" stroke="#ffc7b2" stroke-width="1.51"/><path d="M-97,909L-92,817L-99,766Z" fill="#e68c7b" stroke="#e68c7b" stroke-width="1.51"/><path d="M-99,766L-92,817L4,752Z" fill="#ec8d7b" stroke="#ec8d7b" stroke-width="1.51"/><path d="M-111,149L-122,249L-22,216Z" fill="#ffcdbb" stroke="#ffcdbb" stroke-width="1.51"/><path d="M-1,-21L-31,61L73,46Z" fill="#fedfd0" stroke="#fedfd0" stroke-width="1.51"/><path d="M-1,-21L73,46L73,-14Z" fill="#fee0d2" stroke="#fee0d2" stroke-width="1.51"/><path d="M1541,70L1559,-21L1452,46Z" fill="#c07364" stroke="#c07364" stroke-width="1.51"/><path d="M1558,320L1559,-21L1542,229Z" fill="#b7604f" stroke="#b7604f" stroke-width="1.51"/><path d="M1561,992L1559,-21L1558,320Z" fill="#b23c2d" stroke="#b23c2d" stroke-width="1.51"/><path d="M-117,301L-122,249L-113,409Z" fill="#ffc0aa" stroke="#ffc0aa" stroke-width="1.51"/><path d="M-111,149L-22,216L-20,128Z" fill="#ffd1bf" stroke="#ffd1bf" stroke-width="1.51"/><path d="M-112,73L-111,149L-20,128Z" fill="#ffd9c9" stroke="#ffd9c9" stroke-width="1.51"/><path d="M51,-98L-1,-21L73,-14Z" fill="#fee4d8" stroke="#fee4d8" stroke-width="1.51"/><path d="M156,-120L51,-98L174,-47Z" fill="#ffe1d4" stroke="#ffe1d4" stroke-width="1.51"/><path d="M1559,-21L1524,-101L1439,-35Z" fill="#c47c6e" stroke="#c47c6e" stroke-width="1.51"/><path d="M-97,909L-31,1014L-24,906Z" fill="#d28374" stroke="#d28374" stroke-width="1.51"/><path d="M-24,906L-31,1014L79,990Z" fill="#cb7e6f" stroke="#cb7e6f" stroke-width="1.51"/><path d="M79,990L-31,1014L171,1001Z" fill="#c2786a" stroke="#c2786a" stroke-width="1.51"/><path d="M171,1001L-108,1030L492,1033Z" fill="#bc6d5d" stroke="#bc6d5d" stroke-width="1.51"/><path d="M-112,73L-20,128L-31,61Z" fill="#ffdbcb" stroke="#ffdbcb" stroke-width="1.51"/><path d="M-92,817L-97,909L-24,906Z" fill="#df8977" stroke="#df8977" stroke-width="1.51"/><path d="M-123,676L-97,909L-99,766Z" fill="#ed8f7d" stroke="#ed8f7d" stroke-width="1.51"/><path d="M-119,-30L-112,73L-31,61Z" fill="#ffe3d6" stroke="#ffe3d6" stroke-width="1.51"/><path d="M-111,149L-112,73L-122,249Z" fill="#ffd5c4" stroke="#ffd5c4" stroke-width="1.51"/><path d="M-119,-30L-31,61L-1,-21Z" fill="#ffe5d9" stroke="#ffe5d9" stroke-width="1.51"/><path d="M51,-98L-2,-122L-1,-21Z" fill="#ffe8dd" stroke="#ffe8dd" stroke-width="1.51"/><path d="M156,-120L-2,-122L51,-98Z" fill="#ffe7dd" stroke="#ffe7dd" stroke-width="1.51"/><path d="M1453,-129L-2,-122L673,-120Z" fill="#ffb199" stroke="#ffb199" stroke-width="1.51"/><path d="M-97,909L-108,1030L-31,1014Z" fill="#c98174" stroke="#c98174" stroke-width="1.51"/><path d="M-31,1014L-108,1030L171,1001Z" fill="#c07a6d" stroke="#c07a6d" stroke-width="1.51"/><path d="M-123,676L-108,1030L-97,909Z" fill="#e18b7a" stroke="#e18b7a" stroke-width="1.51"/><path d="M-81,-100L-119,-30L-1,-21Z" fill="#ffe9e0" stroke="#ffe9e0" stroke-width="1.51"/><path d="M-112,73L-119,-30L-122,249Z" fill="#ffdcce" stroke="#ffdcce" stroke-width="1.51"/><path d="M-2,-122L-81,-100L-1,-21Z" fill="#ffebe0" stroke="#ffebe0" stroke-width="1.51"/></svg>