<svg xmlns="http://www.w3.org/2000/svg" width="1440" height="900"><path d="M751,474L768,559L829,481Z" fill="#f1f6e7" stroke="#f1f6e7" stroke-width="1.51"/><path d="M768,559L853,595L829,481Z" fill="#ecf6dc" stroke="#ecf6dc" stroke-width="1.51"/><path d="M751,474L667,514L768,559Z" fill="#f2f7eb" stroke="#f2f7eb" stroke-width="1.51"/><path d="M829,481L755,394L751,474Z" fill="#f4f7f0" stroke="#f4f7f0" stroke-width="1.51"/><path d="M751,474L686,388L667,514Z" fill="#f7f6f5" stroke="#f7f6f5" stroke-width="1.51"/><path d="M768,559L776,644L853,595Z" fill="#e6f3d2" stroke="#e6f3d2" stroke-width="1.51"/><path d="M670,598L776,644L768,559Z" fill="#e8f4d8" stroke="#e8f4d8" stroke-width="1.51"/><path d="M829,481L871,403L755,394Z" fill="#f3f4eb" stroke="#f3f4eb" stroke-width="1.51"/><path d="M932,481L871,403L829,481Z" fill="#eff6e4" stroke="#eff6e4" stroke-width="1.51"/><path d="M667,514L670,598L768,559Z" fill="#f0f5e5" stroke="#f0f5e5" stroke-width="1.51"/><path d="M853,595L932,481L829,481Z" fill="#ebf6db" stroke="#ebf6db" stroke-width="1.51"/><path d="M755,394L686,388L751,474Z" fill="#f8f4f5" stroke="#f8f4f5" stroke-width="1.51"/><path d="M680,332L686,388L755,394Z" fill="#faeff4" stroke="#faeff4" stroke-width="1.51"/><path d="M776,644L854,662L853,595Z" fill="#def1c4" stroke="#def1c4" stroke-width="1.51"/><path d="M853,595L953,578L932,481Z" fill="#e5f4ce" stroke="#e5f4ce" stroke-width="1.51"/><path d="M933,684L953,578L853,595Z" fill="#dbf0bd" stroke="#dbf0bd" stroke-width="1.51"/><path d="M670,598L675,651L776,644Z" fill="#e5f0d0" stroke="#e5f0d0" stroke-width="1.51"/><path d="M776,644L851,750L854,662Z" fill="#d5ecb5" stroke="#d5ecb5" stroke-width="1.51"/><path d="M932,481L952,422L871,403Z" fill="#ecf3dd" stroke="#ecf3dd" stroke-width="1.51"/><path d="M1025,477L952,422L932,481Z" fill="#e5f2d1" stroke="#e5f2d1" stroke-width="1.51"/><path d="M850,304L766,315L755,394Z" fill="#f7ecec" stroke="#f7ecec" stroke-width="1.51"/><path d="M850,304L755,394L871,403Z" fill="#f4efe9" stroke="#f4efe9" stroke-width="1.51"/><path d="M670,598L597,590L675,651Z" fill="#e9eed5" stroke="#e9eed5" stroke-width="1.51"/><path d="M667,514L597,590L670,598Z" fill="#f1f1e3" stroke="#f1f1e3" stroke-width="1.51"/><path d="M574,482L597,590L667,514Z" fill="#f4f0e8" stroke="#f4f0e8" stroke-width="1.51"/><path d="M569,421L574,482L667,514Z" fill="#f8f0f1" stroke="#f8f0f1" stroke-width="1.51"/><path d="M766,315L680,332L755,394Z" fill="#f9edf2" stroke="#f9edf2" stroke-width="1.51"/><path d="M569,421L667,514L686,388Z" fill="#f9f1f5" stroke="#f9f1f5" stroke-width="1.51"/><path d="M944,337L850,304L871,403Z" fill="#f1ede1" stroke="#f1ede1" stroke-width="1.51"/><path d="M854,662L933,684L853,595Z" fill="#d9efba" stroke="#d9efba" stroke-width="1.51"/><path d="M851,750L933,684L854,662Z" fill="#cfeaab" stroke="#cfeaab" stroke-width="1.51"/><path d="M953,578L1025,477L932,481Z" fill="#e0f1c9" stroke="#e0f1c9" stroke-width="1.51"/><path d="M933,684L1006,582L953,578Z" fill="#d5eeb3" stroke="#d5eeb3" stroke-width="1.51"/><path d="M952,422L944,337L871,403Z" fill="#ecefdb" stroke="#ecefdb" stroke-width="1.51"/><path d="M1042,399L944,337L952,422Z" fill="#e5ebcf" stroke="#e5ebcf" stroke-width="1.51"/><path d="M610,314L569,421L686,388Z" fill="#fbeaf2" stroke="#fbeaf2" stroke-width="1.51"/><path d="M1006,582L1025,477L953,578Z" fill="#dbefbe" stroke="#dbefbe" stroke-width="1.51"/><path d="M675,651L743,751L776,644Z" fill="#daedc0" stroke="#daedc0" stroke-width="1.51"/><path d="M664,771L743,751L675,651Z" fill="#d2e6b5" stroke="#d2e6b5" stroke-width="1.51"/><path d="M743,751L851,750L776,644Z" fill="#d0e8b0" stroke="#d0e8b0" stroke-width="1.51"/><path d="M597,590L572,660L675,651Z" fill="#e6eace" stroke="#e6eace" stroke-width="1.51"/><path d="M515,587L572,660L597,590Z" fill="#ebe8d4" stroke="#ebe8d4" stroke-width="1.51"/><path d="M515,587L597,590L574,482Z" fill="#f3ece3" stroke="#f3ece3" stroke-width="1.51"/><path d="M680,332L610,314L686,388Z" fill="#fbe9f2" stroke="#fbe9f2" stroke-width="1.51"/><path d="M693,225L610,314L680,332Z" fill="#f9e1ee" stroke="#f9e1ee" stroke-width="1.51"/><path d="M693,225L680,332L766,315Z" fill="#f8e5ef" stroke="#f8e5ef" stroke-width="1.51"/><path d="M850,304L837,249L766,315Z" fill="#f4e4e5" stroke="#f4e4e5" stroke-width="1.51"/><path d="M927,213L837,249L850,304Z" fill="#f0dedc" stroke="#f0dedc" stroke-width="1.51"/><path d="M837,249L776,243L766,315Z" fill="#f4e1e6" stroke="#f4e1e6" stroke-width="1.51"/><path d="M1025,477L1042,399L952,422Z" fill="#e1eeca" stroke="#e1eeca" stroke-width="1.51"/><path d="M944,337L927,213L850,304Z" fill="#eee2d9" stroke="#eee2d9" stroke-width="1.51"/><path d="M1088,475L1042,399L1025,477Z" fill="#dbedc1" stroke="#dbedc1" stroke-width="1.51"/><path d="M500,484L515,587L574,482Z" fill="#f5e9e7" stroke="#f5e9e7" stroke-width="1.51"/><path d="M582,751L664,771L675,651Z" fill="#d3e2b4" stroke="#d3e2b4" stroke-width="1.51"/><path d="M743,751L742,823L851,750Z" fill="#c3dfa1" stroke="#c3dfa1" stroke-width="1.51"/><path d="M569,421L500,484L574,482Z" fill="#f9ecf1" stroke="#f9ecf1" stroke-width="1.51"/><path d="M490,414L500,484L569,421Z" fill="#fae7f1" stroke="#fae7f1" stroke-width="1.51"/><path d="M933,684L1037,662L1006,582Z" fill="#cce9a5" stroke="#cce9a5" stroke-width="1.51"/><path d="M1006,582L1088,475L1025,477Z" fill="#d8edba" stroke="#d8edba" stroke-width="1.51"/><path d="M1035,735L1037,662L933,684Z" fill="#c1e493" stroke="#c1e493" stroke-width="1.51"/><path d="M851,750L940,765L933,684Z" fill="#c4e49c" stroke="#c4e49c" stroke-width="1.51"/><path d="M916,824L940,765L851,750Z" fill="#bbdd91" stroke="#bbdd91" stroke-width="1.51"/><path d="M762,154L693,225L776,243Z" fill="#f4d7e6" stroke="#f4d7e6" stroke-width="1.51"/><path d="M776,243L693,225L766,315Z" fill="#f6e0ea" stroke="#f6e0ea" stroke-width="1.51"/><path d="M1127,579L1088,475L1006,582Z" fill="#d0eaae" stroke="#d0eaae" stroke-width="1.51"/><path d="M511,333L490,414L569,421Z" fill="#fbe3ef" stroke="#fbe3ef" stroke-width="1.51"/><path d="M511,333L569,421L610,314Z" fill="#fde4f1" stroke="#fde4f1" stroke-width="1.51"/><path d="M664,771L742,823L743,751Z" fill="#c5dea5" stroke="#c5dea5" stroke-width="1.51"/><path d="M664,771L688,860L742,823Z" fill="#bdd79c" stroke="#bdd79c" stroke-width="1.51"/><path d="M572,660L582,751L675,651Z" fill="#dce6be" stroke="#dce6be" stroke-width="1.51"/><path d="M522,756L582,751L572,660Z" fill="#d6deb3" stroke="#d6deb3" stroke-width="1.51"/><path d="M742,823L847,831L851,750Z" fill="#bcdb96" stroke="#bcdb96" stroke-width="1.51"/><path d="M1042,399L1043,307L944,337Z" fill="#e3e6c7" stroke="#e3e6c7" stroke-width="1.51"/><path d="M1124,327L1043,307L1042,399Z" fill="#dbe2ba" stroke="#dbe2ba" stroke-width="1.51"/><path d="M519,248L511,333L610,314Z" fill="#fcdaec" stroke="#fcdaec" stroke-width="1.51"/><path d="M1009,213L927,213L944,337Z" fill="#e7dacb" stroke="#e7dacb" stroke-width="1.51"/><path d="M837,249L762,154L776,243Z" fill="#f2d8e1" stroke="#f2d8e1" stroke-width="1.51"/><path d="M693,225L596,237L610,314Z" fill="#f8daeb" stroke="#f8daeb" stroke-width="1.51"/><path d="M1037,662L1127,579L1006,582Z" fill="#c9e9a2" stroke="#c9e9a2" stroke-width="1.51"/><path d="M940,765L1035,735L933,684Z" fill="#bde191" stroke="#bde191" stroke-width="1.51"/><path d="M1016,835L1035,735L940,765Z" fill="#aed87c" stroke="#aed87c" stroke-width="1.51"/><path d="M847,831L916,824L851,750Z" fill="#b8da8f" stroke="#b8da8f" stroke-width="1.51"/><path d="M515,587L495,684L572,660Z" fill="#e5e3c9" stroke="#e5e3c9" stroke-width="1.51"/><path d="M438,565L495,684L515,587Z" fill="#e9e0cf" stroke="#e9e0cf" stroke-width="1.51"/><path d="M438,565L515,587L500,484Z" fill="#f2e3e0" stroke="#f2e3e0" stroke-width="1.51"/><path d="M1088,475L1110,402L1042,399Z" fill="#d7e8bb" stroke="#d7e8bb" stroke-width="1.51"/><path d="M1187,497L1110,402L1088,475Z" fill="#cfe6b1" stroke="#cfe6b1" stroke-width="1.51"/><path d="M1108,680L1127,579L1037,662Z" fill="#bee391" stroke="#bee391" stroke-width="1.51"/><path d="M397,507L438,565L500,484Z" fill="#f3dfe2" stroke="#f3dfe2" stroke-width="1.51"/><path d="M430,405L500,484L490,414Z" fill="#f8e1ee" stroke="#f8e1ee" stroke-width="1.51"/><path d="M693,225L668,159L596,237Z" fill="#f6d2e7" stroke="#f6d2e7" stroke-width="1.51"/><path d="M861,137L762,154L837,249Z" fill="#efcfd8" stroke="#efcfd8" stroke-width="1.51"/><path d="M585,823L688,860L664,771Z" fill="#bfd49b" stroke="#bfd49b" stroke-width="1.51"/><path d="M495,684L522,756L572,660Z" fill="#dadeb7" stroke="#dadeb7" stroke-width="1.51"/><path d="M421,758L522,756L495,684Z" fill="#d2d3ac" stroke="#d2d3ac" stroke-width="1.51"/><path d="M742,823L759,928L847,831Z" fill="#b0d18f" stroke="#b0d18f" stroke-width="1.51"/><path d="M949,924L1016,835L916,824Z" fill="#a1cc74" stroke="#a1cc74" stroke-width="1.51"/><path d="M585,823L664,771L582,751Z" fill="#c7d7a3" stroke="#c7d7a3" stroke-width="1.51"/><path d="M1035,735L1108,680L1037,662Z" fill="#b9e287" stroke="#b9e287" stroke-width="1.51"/><path d="M762,154L668,159L693,225Z" fill="#f3cee2" stroke="#f3cee2" stroke-width="1.51"/><path d="M1043,307L1009,213L944,337Z" fill="#e3dec5" stroke="#e3dec5" stroke-width="1.51"/><path d="M927,213L861,137L837,249Z" fill="#edd4d6" stroke="#edd4d6" stroke-width="1.51"/><path d="M1122,244L1009,213L1043,307Z" fill="#dbd5b6" stroke="#dbd5b6" stroke-width="1.51"/><path d="M522,756L585,823L582,751Z" fill="#c9d5a4" stroke="#c9d5a4" stroke-width="1.51"/><path d="M511,333L430,405L490,414Z" fill="#f9ddec" stroke="#f9ddec" stroke-width="1.51"/><path d="M399,315L430,405L511,333Z" fill="#f9d6e9" stroke="#f9d6e9" stroke-width="1.51"/><path d="M519,248L610,314L596,237Z" fill="#fad7ea" stroke="#fad7ea" stroke-width="1.51"/><path d="M489,152L519,248L596,237Z" fill="#f7cae4" stroke="#f7cae4" stroke-width="1.51"/><path d="M952,162L861,137L927,213Z" fill="#e9ccca" stroke="#e9ccca" stroke-width="1.51"/><path d="M696,45L600,138L668,159Z" fill="#f0bad6" stroke="#f0bad6" stroke-width="1.51"/><path d="M1176,339L1124,327L1110,402Z" fill="#d1dcae" stroke="#d1dcae" stroke-width="1.51"/><path d="M1110,402L1124,327L1042,399Z" fill="#d7e3b7" stroke="#d7e3b7" stroke-width="1.51"/><path d="M1009,213L952,162L927,213Z" fill="#e4cfc5" stroke="#e4cfc5" stroke-width="1.51"/><path d="M430,405L397,507L500,484Z" fill="#f6dfea" stroke="#f6dfea" stroke-width="1.51"/><path d="M438,565L407,681L495,684Z" fill="#e2d9c4" stroke="#e2d9c4" stroke-width="1.51"/><path d="M1035,735L1127,767L1108,680Z" fill="#acd977" stroke="#acd977" stroke-width="1.51"/><path d="M916,824L1016,835L940,765Z" fill="#acd57d" stroke="#acd57d" stroke-width="1.51"/><path d="M949,924L916,824L847,831Z" fill="#a9d081" stroke="#a9d081" stroke-width="1.51"/><path d="M1127,579L1187,497L1088,475Z" fill="#c9e4a6" stroke="#c9e4a6" stroke-width="1.51"/><path d="M1192,579L1187,497L1127,579Z" fill="#c1e09a" stroke="#c1e09a" stroke-width="1.51"/><path d="M1179,652L1192,579L1127,579Z" fill="#b9de8e" stroke="#b9de8e" stroke-width="1.51"/><path d="M1179,652L1127,579L1108,680Z" fill="#b7de89" stroke="#b7de89" stroke-width="1.51"/><path d="M339,560L407,681L438,565Z" fill="#e9d6cd" stroke="#e9d6cd" stroke-width="1.51"/><path d="M522,756L490,854L585,823Z" fill="#c2ce99" stroke="#c2ce99" stroke-width="1.51"/><path d="M1204,739L1179,652L1108,680Z" fill="#a9d674" stroke="#a9d674" stroke-width="1.51"/><path d="M696,45L668,159L762,154Z" fill="#f0c0d8" stroke="#f0c0d8" stroke-width="1.51"/><path d="M668,159L600,138L596,237Z" fill="#f5c9e0" stroke="#f5c9e0" stroke-width="1.51"/><path d="M688,860L759,928L742,823Z" fill="#b1d094" stroke="#b1d094" stroke-width="1.51"/><path d="M673,918L759,928L688,860Z" fill="#acc990" stroke="#acc990" stroke-width="1.51"/><path d="M585,908L688,860L585,823Z" fill="#b6cb94" stroke="#b6cb94" stroke-width="1.51"/><path d="M585,908L673,918L688,860Z" fill="#afc790" stroke="#afc790" stroke-width="1.51"/><path d="M1209,413L1176,339L1110,402Z" fill="#cbdca9" stroke="#cbdca9" stroke-width="1.51"/><path d="M1124,327L1122,244L1043,307Z" fill="#d7d8b2" stroke="#d7d8b2" stroke-width="1.51"/><path d="M1009,213L1020,134L952,162Z" fill="#dfc7b9" stroke="#dfc7b9" stroke-width="1.51"/><path d="M1109,835L1127,767L1035,735Z" fill="#a0d169" stroke="#a0d169" stroke-width="1.51"/><path d="M759,928L828,935L847,831Z" fill="#a7ca87" stroke="#a7ca87" stroke-width="1.51"/><path d="M1176,339L1122,244L1124,327Z" fill="#d0d5ab" stroke="#d0d5ab" stroke-width="1.51"/><path d="M1262,393L1209,413L1291,474Z" fill="#bcd69a" stroke="#bcd69a" stroke-width="1.51"/><path d="M1187,497L1209,413L1110,402Z" fill="#c9e0aa" stroke="#c9e0aa" stroke-width="1.51"/><path d="M416,234L511,333L519,248Z" fill="#f9cee6" stroke="#f9cee6" stroke-width="1.51"/><path d="M416,234L399,315L511,333Z" fill="#f8cde5" stroke="#f8cde5" stroke-width="1.51"/><path d="M430,405L334,476L397,507Z" fill="#f4d8e8" stroke="#f4d8e8" stroke-width="1.51"/><path d="M407,681L421,758L495,684Z" fill="#d6d2b0" stroke="#d6d2b0" stroke-width="1.51"/><path d="M952,162L947,81L861,137Z" fill="#e5c0c1" stroke="#e5c0c1" stroke-width="1.51"/><path d="M861,137L832,54L762,154Z" fill="#ebbfcd" stroke="#ebbfcd" stroke-width="1.51"/><path d="M1089,140L1020,134L1009,213Z" fill="#d8c3ae" stroke="#d8c3ae" stroke-width="1.51"/><path d="M828,935L949,924L847,831Z" fill="#a4ca80" stroke="#a4ca80" stroke-width="1.51"/><path d="M1016,835L1109,835L1035,735Z" fill="#a0d06a" stroke="#a0d06a" stroke-width="1.51"/><path d="M490,854L585,908L585,823Z" fill="#b8c793" stroke="#b8c793" stroke-width="1.51"/><path d="M742,1025L828,935L759,928Z" fill="#9dbe84" stroke="#9dbe84" stroke-width="1.51"/><path d="M397,507L339,560L438,565Z" fill="#efd8db" stroke="#efd8db" stroke-width="1.51"/><path d="M320,771L412,824L421,758Z" fill="#c4c198" stroke="#c4c198" stroke-width="1.51"/><path d="M334,476L339,560L397,507Z" fill="#f0d3dc" stroke="#f0d3dc" stroke-width="1.51"/><path d="M421,758L490,854L522,756Z" fill="#c5ca9c" stroke="#c5ca9c" stroke-width="1.51"/><path d="M326,409L334,476L430,405Z" fill="#f5d3e6" stroke="#f5d3e6" stroke-width="1.51"/><path d="M1097,918L1109,835L1016,835Z" fill="#90c55c" stroke="#90c55c" stroke-width="1.51"/><path d="M1127,767L1204,739L1108,680Z" fill="#a3d36c" stroke="#a3d36c" stroke-width="1.51"/><path d="M1020,134L947,81L952,162Z" fill="#dfbdb6" stroke="#dfbdb6" stroke-width="1.51"/><path d="M947,81L832,54L861,137Z" fill="#e7b9c1" stroke="#e7b9c1" stroke-width="1.51"/><path d="M949,924L1009,914L1016,835Z" fill="#96c56a" stroke="#96c56a" stroke-width="1.51"/><path d="M342,338L326,409L430,405Z" fill="#f6cfe5" stroke="#f6cfe5" stroke-width="1.51"/><path d="M489,152L416,234L519,248Z" fill="#f5c3e0" stroke="#f5c3e0" stroke-width="1.51"/><path d="M600,138L489,152L596,237Z" fill="#f5c4df" stroke="#f5c4df" stroke-width="1.51"/><path d="M511,81L489,152L600,138Z" fill="#f1b4d4" stroke="#f1b4d4" stroke-width="1.51"/><path d="M832,54L773,41L762,154Z" fill="#eab7c9" stroke="#eab7c9" stroke-width="1.51"/><path d="M247,564L323,686L339,560Z" fill="#e5c7c3" stroke="#e5c7c3" stroke-width="1.51"/><path d="M342,338L430,405L399,315Z" fill="#f7d0e6" stroke="#f7d0e6" stroke-width="1.51"/><path d="M773,41L696,45L762,154Z" fill="#ecb6ce" stroke="#ecb6ce" stroke-width="1.51"/><path d="M1197,846L1204,739L1127,767Z" fill="#91c757" stroke="#91c757" stroke-width="1.51"/><path d="M1179,652L1266,587L1192,579Z" fill="#b2d984" stroke="#b2d984" stroke-width="1.51"/><path d="M1192,579L1266,587L1187,497Z" fill="#b9db91" stroke="#b9db91" stroke-width="1.51"/><path d="M339,214L342,338L399,315Z" fill="#f5c2df" stroke="#f5c2df" stroke-width="1.51"/><path d="M1122,244L1089,140L1009,213Z" fill="#d6caae" stroke="#d6caae" stroke-width="1.51"/><path d="M1020,134L1005,74L947,81Z" fill="#dab6ad" stroke="#dab6ad" stroke-width="1.51"/><path d="M1182,163L1089,140L1122,244Z" fill="#ccc0a0" stroke="#ccc0a0" stroke-width="1.51"/><path d="M1181,225L1122,244L1176,339Z" fill="#cbcda4" stroke="#cbcda4" stroke-width="1.51"/><path d="M1268,666L1266,587L1179,652Z" fill="#a7d376" stroke="#a7d376" stroke-width="1.51"/><path d="M1262,393L1176,339L1209,413Z" fill="#c4d69f" stroke="#c4d69f" stroke-width="1.51"/><path d="M1288,335L1181,225L1176,339Z" fill="#c4cd9c" stroke="#c4cd9c" stroke-width="1.51"/><path d="M947,81L858,-9L832,54Z" fill="#e3abb7" stroke="#e3abb7" stroke-width="1.51"/><path d="M832,54L858,-9L773,41Z" fill="#e5a8bb" stroke="#e5a8bb" stroke-width="1.51"/><path d="M1089,140L1005,74L1020,134Z" fill="#d6b8a6" stroke="#d6b8a6" stroke-width="1.51"/><path d="M421,758L412,824L490,854Z" fill="#bfc394" stroke="#bfc394" stroke-width="1.51"/><path d="M490,854L513,945L585,908Z" fill="#afbe8c" stroke="#afbe8c" stroke-width="1.51"/><path d="M323,686L421,758L407,681Z" fill="#d4ccad" stroke="#d4ccad" stroke-width="1.51"/><path d="M1291,474L1209,413L1187,497Z" fill="#bedb9d" stroke="#bedb9d" stroke-width="1.51"/><path d="M247,564L339,560L334,476Z" fill="#eccbd3" stroke="#eccbd3" stroke-width="1.51"/><path d="M339,560L323,686L407,681Z" fill="#dfcebd" stroke="#dfcebd" stroke-width="1.51"/><path d="M489,152L428,165L416,234Z" fill="#f2b9d9" stroke="#f2b9d9" stroke-width="1.51"/><path d="M416,234L339,214L399,315Z" fill="#f4c0de" stroke="#f4c0de" stroke-width="1.51"/><path d="M400,53L428,165L489,152Z" fill="#eea8ce" stroke="#eea8ce" stroke-width="1.51"/><path d="M696,45L572,57L600,138Z" fill="#eeafce" stroke="#eeafce" stroke-width="1.51"/><path d="M1266,587L1291,474L1187,497Z" fill="#b7d891" stroke="#b7d891" stroke-width="1.51"/><path d="M1266,587L1349,588L1291,474Z" fill="#add087" stroke="#add087" stroke-width="1.51"/><path d="M1204,739L1268,666L1179,652Z" fill="#a0d16a" stroke="#a0d16a" stroke-width="1.51"/><path d="M828,935L845,1015L949,924Z" fill="#98be7a" stroke="#98be7a" stroke-width="1.51"/><path d="M949,924L1041,1004L1009,914Z" fill="#8aba62" stroke="#8aba62" stroke-width="1.51"/><path d="M742,1025L845,1015L828,935Z" fill="#96b87f" stroke="#96b87f" stroke-width="1.51"/><path d="M742,1025L759,928L673,918Z" fill="#a1c08a" stroke="#a1c08a" stroke-width="1.51"/><path d="M572,57L511,81L600,138Z" fill="#f0afd0" stroke="#f0afd0" stroke-width="1.51"/><path d="M1204,739L1262,772L1268,666Z" fill="#93c85a" stroke="#93c85a" stroke-width="1.51"/><path d="M1109,835L1197,846L1127,767Z" fill="#8ec554" stroke="#8ec554" stroke-width="1.51"/><path d="M1009,914L1097,918L1016,835Z" fill="#90c260" stroke="#90c260" stroke-width="1.51"/><path d="M1041,1004L1097,918L1009,914Z" fill="#84b857" stroke="#84b857" stroke-width="1.51"/><path d="M670,1023L742,1025L673,918Z" fill="#9cb888" stroke="#9cb888" stroke-width="1.51"/><path d="M427,914L513,945L490,854Z" fill="#adb789" stroke="#adb789" stroke-width="1.51"/><path d="M670,1023L673,918L585,908Z" fill="#a4bd89" stroke="#a4bd89" stroke-width="1.51"/><path d="M753,-35L679,-15L696,45Z" fill="#e79fbf" stroke="#e79fbf" stroke-width="1.51"/><path d="M696,45L583,-5L572,57Z" fill="#eba2c4" stroke="#eba2c4" stroke-width="1.51"/><path d="M941,-47L858,-9L947,81Z" fill="#dda1aa" stroke="#dda1aa" stroke-width="1.51"/><path d="M572,1027L670,1023L585,908Z" fill="#9eb387" stroke="#9eb387" stroke-width="1.51"/><path d="M1089,140L1123,72L1005,74Z" fill="#d0b19c" stroke="#d0b19c" stroke-width="1.51"/><path d="M1005,74L941,-47L947,81Z" fill="#d9a6a6" stroke="#d9a6a6" stroke-width="1.51"/><path d="M1181,225L1182,163L1122,244Z" fill="#c9c39f" stroke="#c9c39f" stroke-width="1.51"/><path d="M1266,130L1182,163L1181,225Z" fill="#c0b690" stroke="#c0b690" stroke-width="1.51"/><path d="M1288,335L1176,339L1262,393Z" fill="#c1d19a" stroke="#c1d19a" stroke-width="1.51"/><path d="M1097,918L1197,846L1109,835Z" fill="#86bd50" stroke="#86bd50" stroke-width="1.51"/><path d="M1358,403L1288,335L1262,393Z" fill="#b7cb94" stroke="#b7cb94" stroke-width="1.51"/><path d="M412,824L427,914L490,854Z" fill="#b5ba8d" stroke="#b5ba8d" stroke-width="1.51"/><path d="M323,686L320,771L421,758Z" fill="#cdc3a2" stroke="#cdc3a2" stroke-width="1.51"/><path d="M233,741L320,771L323,686Z" fill="#ccb99c" stroke="#ccb99c" stroke-width="1.51"/><path d="M326,409L261,410L334,476Z" fill="#f2c9df" stroke="#f2c9df" stroke-width="1.51"/><path d="M342,338L261,410L326,409Z" fill="#f3c5de" stroke="#f3c5de" stroke-width="1.51"/><path d="M240,310L261,410L342,338Z" fill="#f3bdd9" stroke="#f3bdd9" stroke-width="1.51"/><path d="M753,-35L696,45L773,41Z" fill="#e8a4c0" stroke="#e8a4c0" stroke-width="1.51"/><path d="M572,57L486,-39L511,81Z" fill="#ea9ac1" stroke="#ea9ac1" stroke-width="1.51"/><path d="M428,165L339,214L416,234Z" fill="#f1b8da" stroke="#f1b8da" stroke-width="1.51"/><path d="M345,128L339,214L428,165Z" fill="#eeacd2" stroke="#eeacd2" stroke-width="1.51"/><path d="M513,945L572,1027L585,908Z" fill="#a4b587" stroke="#a4b587" stroke-width="1.51"/><path d="M333,846L427,914L412,824Z" fill="#b4b58a" stroke="#b4b58a" stroke-width="1.51"/><path d="M845,1015L931,1032L949,924Z" fill="#8fb672" stroke="#8fb672" stroke-width="1.51"/><path d="M742,1025L931,1032L845,1015Z" fill="#8eb179" stroke="#8eb179" stroke-width="1.51"/><path d="M492,1033L931,1032L742,1025Z" fill="#94b185" stroke="#94b185" stroke-width="1.51"/><path d="M1197,846L1262,772L1204,739Z" fill="#89c24d" stroke="#89c24d" stroke-width="1.51"/><path d="M1268,666L1349,588L1266,587Z" fill="#a4ce77" stroke="#a4ce77" stroke-width="1.51"/><path d="M233,497L247,564L334,476Z" fill="#ecc4d2" stroke="#ecc4d2" stroke-width="1.51"/><path d="M858,-9L753,-35L773,41Z" fill="#e49fb7" stroke="#e49fb7" stroke-width="1.51"/><path d="M1182,163L1123,72L1089,140Z" fill="#cab296" stroke="#cab296" stroke-width="1.51"/><path d="M261,410L233,497L334,476Z" fill="#f0c5da" stroke="#f0c5da" stroke-width="1.51"/><path d="M931,1032L1041,1004L949,924Z" fill="#87b465" stroke="#87b465" stroke-width="1.51"/><path d="M1186,937L1260,841L1197,846Z" fill="#77b33e" stroke="#77b33e" stroke-width="1.51"/><path d="M679,-15L583,-5L696,45Z" fill="#e99dc0" stroke="#e99dc0" stroke-width="1.51"/><path d="M400,53L345,128L428,165Z" fill="#eba0ca" stroke="#eba0ca" stroke-width="1.51"/><path d="M611,-108L583,-5L679,-15Z" fill="#e48eb5" stroke="#e48eb5" stroke-width="1.51"/><path d="M670,1023L572,1027L742,1025Z" fill="#96ae84" stroke="#96ae84" stroke-width="1.51"/><path d="M492,1033L572,1027L513,945Z" fill="#9caa83" stroke="#9caa83" stroke-width="1.51"/><path d="M320,771L333,846L412,824Z" fill="#bdb88e" stroke="#bdb88e" stroke-width="1.51"/><path d="M437,1008L492,1033L513,945Z" fill="#9da681" stroke="#9da681" stroke-width="1.51"/><path d="M261,826L333,846L320,771Z" fill="#baaf88" stroke="#baaf88" stroke-width="1.51"/><path d="M1386,651L1349,588L1268,666Z" fill="#99c76d" stroke="#99c76d" stroke-width="1.51"/><path d="M1291,474L1358,403L1262,393Z" fill="#b5cf96" stroke="#b5cf96" stroke-width="1.51"/><path d="M1349,588L1360,471L1291,474Z" fill="#accd8a" stroke="#accd8a" stroke-width="1.51"/><path d="M1370,745L1386,651L1268,666Z" fill="#8ec25c" stroke="#8ec25c" stroke-width="1.51"/><path d="M1197,846L1260,841L1262,772Z" fill="#7ebb40" stroke="#7ebb40" stroke-width="1.51"/><path d="M1186,937L1197,846L1097,918Z" fill="#7ab546" stroke="#7ab546" stroke-width="1.51"/><path d="M1288,335L1297,240L1181,225Z" fill="#bdc393" stroke="#bdc393" stroke-width="1.51"/><path d="M1182,163L1208,82L1123,72Z" fill="#c2a98c" stroke="#c2a98c" stroke-width="1.51"/><path d="M1382,317L1297,240L1288,335Z" fill="#b4bf8f" stroke="#b4bf8f" stroke-width="1.51"/><path d="M1039,-38L941,-47L1005,74Z" fill="#d39a98" stroke="#d39a98" stroke-width="1.51"/><path d="M858,-9L779,-101L753,-35Z" fill="#de94ae" stroke="#de94ae" stroke-width="1.51"/><path d="M1360,471L1358,403L1291,474Z" fill="#b0ce93" stroke="#b0ce93" stroke-width="1.51"/><path d="M339,214L240,310L342,338Z" fill="#f2b8d8" stroke="#f2b8d8" stroke-width="1.51"/><path d="M261,410L164,421L233,497Z" fill="#eebbd4" stroke="#eebbd4" stroke-width="1.51"/><path d="M177,599L231,686L247,564Z" fill="#dfb8b4" stroke="#dfb8b4" stroke-width="1.51"/><path d="M247,564L231,686L323,686Z" fill="#dcbeb2" stroke="#dcbeb2" stroke-width="1.51"/><path d="M1109,1013L1186,937L1097,918Z" fill="#75ad47" stroke="#75ad47" stroke-width="1.51"/><path d="M339,214L233,252L240,310Z" fill="#eeadd1" stroke="#eeadd1" stroke-width="1.51"/><path d="M400,53L489,152L511,81Z" fill="#eca4cb" stroke="#eca4cb" stroke-width="1.51"/><path d="M1041,1004L1109,1013L1097,918Z" fill="#79ae4f" stroke="#79ae4f" stroke-width="1.51"/><path d="M931,1032L1109,1013L1041,1004Z" fill="#7bab58" stroke="#7bab58" stroke-width="1.51"/><path d="M437,1008L513,945L427,914Z" fill="#a3ac83" stroke="#a3ac83" stroke-width="1.51"/><path d="M572,1027L492,1033L742,1025Z" fill="#96aa84" stroke="#96aa84" stroke-width="1.51"/><path d="M486,-39L400,53L511,81Z" fill="#e892bd" stroke="#e892bd" stroke-width="1.51"/><path d="M352,937L437,1008L427,914Z" fill="#a2a780" stroke="#a2a780" stroke-width="1.51"/><path d="M231,686L233,741L323,686Z" fill="#d0b8a0" stroke="#d0b8a0" stroke-width="1.51"/><path d="M1108,-4L1039,-38L1005,74Z" fill="#cd9c8f" stroke="#cd9c8f" stroke-width="1.51"/><path d="M1266,130L1208,82L1182,163Z" fill="#bca986" stroke="#bca986" stroke-width="1.51"/><path d="M1108,-4L1005,74L1123,72Z" fill="#cca392" stroke="#cca392" stroke-width="1.51"/><path d="M1204,-27L1108,-4L1123,72Z" fill="#c0957f" stroke="#c0957f" stroke-width="1.51"/><path d="M352,937L427,914L333,846Z" fill="#acac84" stroke="#acac84" stroke-width="1.51"/><path d="M244,927L352,937L333,846Z" fill="#a8a17c" stroke="#a8a17c" stroke-width="1.51"/><path d="M258,128L233,252L339,214Z" fill="#eca2cb" stroke="#eca2cb" stroke-width="1.51"/><path d="M143,485L177,599L233,497Z" fill="#e8b5c3" stroke="#e8b5c3" stroke-width="1.51"/><path d="M233,497L177,599L247,564Z" fill="#e8bbc4" stroke="#e8bbc4" stroke-width="1.51"/><path d="M258,128L339,214L345,128Z" fill="#eb9ec8" stroke="#eb9ec8" stroke-width="1.51"/><path d="M1208,82L1204,-27L1123,72Z" fill="#bd997e" stroke="#bd997e" stroke-width="1.51"/><path d="M1297,240L1266,130L1181,225Z" fill="#bcb88d" stroke="#bcb88d" stroke-width="1.51"/><path d="M1351,165L1266,130L1297,240Z" fill="#b3ad85" stroke="#b3ad85" stroke-width="1.51"/><path d="M753,-35L673,-120L679,-15Z" fill="#df92b3" stroke="#df92b3" stroke-width="1.51"/><path d="M583,-5L486,-39L572,57Z" fill="#e995bc" stroke="#e995bc" stroke-width="1.51"/><path d="M838,-107L779,-101L858,-9Z" fill="#d792a5" stroke="#d792a5" stroke-width="1.51"/><path d="M838,-107L858,-9L920,-112Z" fill="#d491a0" stroke="#d491a0" stroke-width="1.51"/><path d="M233,741L261,826L320,771Z" fill="#c1af8d" stroke="#c1af8d" stroke-width="1.51"/><path d="M1451,474L1446,423L1360,471Z" fill="#a3c38b" stroke="#a3c38b" stroke-width="1.51"/><path d="M1446,423L1382,317L1358,403Z" fill="#aac08c" stroke="#aac08c" stroke-width="1.51"/><path d="M1370,745L1268,666L1262,772Z" fill="#8ac155" stroke="#8ac155" stroke-width="1.51"/><path d="M164,421L261,410L240,310Z" fill="#efb5d2" stroke="#efb5d2" stroke-width="1.51"/><path d="M231,686L146,747L233,741Z" fill="#caab93" stroke="#caab93" stroke-width="1.51"/><path d="M233,741L158,843L261,826Z" fill="#b9a380" stroke="#b9a380" stroke-width="1.51"/><path d="M920,-112L858,-9L941,-47Z" fill="#d6939f" stroke="#d6939f" stroke-width="1.51"/><path d="M1358,403L1382,317L1288,335Z" fill="#b2c490" stroke="#b2c490" stroke-width="1.51"/><path d="M1446,423L1358,403L1360,471Z" fill="#a9c68e" stroke="#a9c68e" stroke-width="1.51"/><path d="M1366,821L1370,745L1262,772Z" fill="#7ab543" stroke="#7ab543" stroke-width="1.51"/><path d="M1186,937L1289,930L1260,841Z" fill="#6cab35" stroke="#6cab35" stroke-width="1.51"/><path d="M1109,1013L1191,990L1186,937Z" fill="#6ca53f" stroke="#6ca53f" stroke-width="1.51"/><path d="M515,-94L486,-39L583,-5Z" fill="#e286b1" stroke="#e286b1" stroke-width="1.51"/><path d="M1366,821L1262,772L1260,841Z" fill="#77b53c" stroke="#77b53c" stroke-width="1.51"/><path d="M147,328L164,421L240,310Z" fill="#eeabcc" stroke="#eeabcc" stroke-width="1.51"/><path d="M1009,-92L941,-47L1039,-38Z" fill="#ca8f8d" stroke="#ca8f8d" stroke-width="1.51"/><path d="M1009,-92L920,-112L941,-47Z" fill="#c98e90" stroke="#c98e90" stroke-width="1.51"/><path d="M920,-112L673,-120L838,-107Z" fill="#ce8d9f" stroke="#ce8d9f" stroke-width="1.51"/><path d="M838,-107L673,-120L779,-101Z" fill="#d18ea5" stroke="#d18ea5" stroke-width="1.51"/><path d="M779,-101L673,-120L753,-35Z" fill="#d890ac" stroke="#d890ac" stroke-width="1.51"/><path d="M1094,-98L1009,-92L1039,-38Z" fill="#c08b80" stroke="#c08b80" stroke-width="1.51"/><path d="M1094,-98L1039,-38L1108,-4Z" fill="#c38c7e" stroke="#c38c7e" stroke-width="1.51"/><path d="M177,599L163,665L231,686Z" fill="#d8b0a7" stroke="#d8b0a7" stroke-width="1.51"/><path d="M79,559L163,665L177,599Z" fill="#dca9ac" stroke="#dca9ac" stroke-width="1.51"/><path d="M673,-120L611,-108L679,-15Z" fill="#da8cae" stroke="#da8cae" stroke-width="1.51"/><path d="M412,-29L346,41L400,53Z" fill="#e385b6" stroke="#e385b6" stroke-width="1.51"/><path d="M400,53L346,41L345,128Z" fill="#e791c0" stroke="#e791c0" stroke-width="1.51"/><path d="M164,421L143,485L233,497Z" fill="#ebb4cc" stroke="#ebb4cc" stroke-width="1.51"/><path d="M1266,130L1264,71L1208,82Z" fill="#b69f7d" stroke="#b69f7d" stroke-width="1.51"/><path d="M1352,67L1264,71L1266,130Z" fill="#af9877" stroke="#af9877" stroke-width="1.51"/><path d="M176,236L147,328L240,310Z" fill="#eca3c9" stroke="#eca3c9" stroke-width="1.51"/><path d="M76,398L70,476L143,485Z" fill="#e9a3c2" stroke="#e9a3c2" stroke-width="1.51"/><path d="M346,41L258,128L345,128Z" fill="#e68fbe" stroke="#e68fbe" stroke-width="1.51"/><path d="M1191,990L1289,930L1186,937Z" fill="#66a534" stroke="#66a534" stroke-width="1.51"/><path d="M352,937L347,996L437,1008Z" fill="#9c9e7d" stroke="#9c9e7d" stroke-width="1.51"/><path d="M437,1008L347,996L492,1033Z" fill="#989c7d" stroke="#989c7d" stroke-width="1.51"/><path d="M244,927L347,996L352,937Z" fill="#9f9977" stroke="#9f9977" stroke-width="1.51"/><path d="M244,927L333,846L261,826Z" fill="#afa27e" stroke="#afa27e" stroke-width="1.51"/><path d="M1370,745L1449,647L1386,651Z" fill="#86bb59" stroke="#86bb59" stroke-width="1.51"/><path d="M1289,930L1366,821L1260,841Z" fill="#6bab34" stroke="#6bab34" stroke-width="1.51"/><path d="M346,41L242,42L258,128Z" fill="#e181b4" stroke="#e181b4" stroke-width="1.51"/><path d="M486,-39L412,-29L400,53Z" fill="#e384b3" stroke="#e384b3" stroke-width="1.51"/><path d="M428,-97L412,-29L486,-39Z" fill="#dc7aaa" stroke="#dc7aaa" stroke-width="1.51"/><path d="M1380,217L1351,165L1297,240Z" fill="#aeaf86" stroke="#aeaf86" stroke-width="1.51"/><path d="M1382,317L1380,217L1297,240Z" fill="#afb589" stroke="#afb589" stroke-width="1.51"/><path d="M428,-97L515,-94L611,-108Z" fill="#d57fa5" stroke="#d57fa5" stroke-width="1.51"/><path d="M611,-108L515,-94L583,-5Z" fill="#dd88ae" stroke="#dd88ae" stroke-width="1.51"/><path d="M1382,317L1448,228L1380,217Z" fill="#a7af84" stroke="#a7af84" stroke-width="1.51"/><path d="M1451,474L1360,471L1349,588Z" fill="#a4c785" stroke="#a4c785" stroke-width="1.51"/><path d="M1451,474L1349,588L1458,601Z" fill="#9bc27b" stroke="#9bc27b" stroke-width="1.51"/><path d="M1458,601L1349,588L1386,651Z" fill="#95c16e" stroke="#95c16e" stroke-width="1.51"/><path d="M176,236L240,310L233,252Z" fill="#eca4cb" stroke="#eca4cb" stroke-width="1.51"/><path d="M164,168L176,236L233,252Z" fill="#e897c3" stroke="#e897c3" stroke-width="1.51"/><path d="M1467,770L1449,647L1370,745Z" fill="#7ab24c" stroke="#7ab24c" stroke-width="1.51"/><path d="M1449,647L1458,601L1386,651Z" fill="#8dbb66" stroke="#8dbb66" stroke-width="1.51"/><path d="M1290,-19L1204,-27L1264,71Z" fill="#af886b" stroke="#af886b" stroke-width="1.51"/><path d="M1264,71L1204,-27L1208,82Z" fill="#b59475" stroke="#b59475" stroke-width="1.51"/><path d="M1009,-92L1094,-98L920,-112Z" fill="#bf8a83" stroke="#bf8a83" stroke-width="1.51"/><path d="M1204,-27L1094,-98L1108,-4Z" fill="#bb8876" stroke="#bb8876" stroke-width="1.51"/><path d="M163,665L146,747L231,686Z" fill="#ceab97" stroke="#ceab97" stroke-width="1.51"/><path d="M55,681L146,747L163,665Z" fill="#cba08f" stroke="#cba08f" stroke-width="1.51"/><path d="M158,843L244,927L261,826Z" fill="#ad9977" stroke="#ad9977" stroke-width="1.51"/><path d="M1446,423L1459,318L1382,317Z" fill="#a6ba89" stroke="#a6ba89" stroke-width="1.51"/><path d="M1466,147L1352,67L1351,165Z" fill="#a49674" stroke="#a49674" stroke-width="1.51"/><path d="M1557,397L1459,318L1446,423Z" fill="#9eb386" stroke="#9eb386" stroke-width="1.51"/><path d="M1531,493L1446,423L1451,474Z" fill="#9cbb87" stroke="#9cbb87" stroke-width="1.51"/><path d="M428,-97L333,-26L412,-29Z" fill="#db74a8" stroke="#db74a8" stroke-width="1.51"/><path d="M412,-29L333,-26L346,41Z" fill="#e07aaf" stroke="#e07aaf" stroke-width="1.51"/><path d="M258,128L164,168L233,252Z" fill="#e793c1" stroke="#e793c1" stroke-width="1.51"/><path d="M515,-94L428,-97L486,-39Z" fill="#d87ca7" stroke="#d87ca7" stroke-width="1.51"/><path d="M673,-120L428,-97L611,-108Z" fill="#d483a6" stroke="#d483a6" stroke-width="1.51"/><path d="M143,485L79,559L177,599Z" fill="#e4aab9" stroke="#e4aab9" stroke-width="1.51"/><path d="M70,476L79,559L143,485Z" fill="#e5a4ba" stroke="#e5a4ba" stroke-width="1.51"/><path d="M169,40L164,168L258,128Z" fill="#e07db2" stroke="#e07db2" stroke-width="1.51"/><path d="M78,220L55,321L147,328Z" fill="#e790bb" stroke="#e790bb" stroke-width="1.51"/><path d="M76,398L143,485L164,421Z" fill="#eaa8c7" stroke="#eaa8c7" stroke-width="1.51"/><path d="M146,747L158,843L233,741Z" fill="#bd9f82" stroke="#bd9f82" stroke-width="1.51"/><path d="M68,768L158,843L146,747Z" fill="#b99478" stroke="#b99478" stroke-width="1.51"/><path d="M76,398L164,421L147,328Z" fill="#eba3c5" stroke="#eba3c5" stroke-width="1.51"/><path d="M1204,-27L1204,-92L1094,-98Z" fill="#b0816a" stroke="#b0816a" stroke-width="1.51"/><path d="M1351,165L1352,67L1266,130Z" fill="#ad9d79" stroke="#ad9d79" stroke-width="1.51"/><path d="M1466,147L1351,165L1380,217Z" fill="#a5a17b" stroke="#a5a17b" stroke-width="1.51"/><path d="M169,40L242,42L174,-47Z" fill="#d65e9d" stroke="#d65e9d" stroke-width="1.51"/><path d="M333,-26L242,42L346,41Z" fill="#df77ad" stroke="#df77ad" stroke-width="1.51"/><path d="M1459,318L1448,228L1382,317Z" fill="#a5b185" stroke="#a5b185" stroke-width="1.51"/><path d="M55,321L76,398L147,328Z" fill="#e999be" stroke="#e999be" stroke-width="1.51"/><path d="M1289,930L1387,942L1366,821Z" fill="#5e9f2c" stroke="#5e9f2c" stroke-width="1.51"/><path d="M1366,821L1467,770L1370,745Z" fill="#70ad3c" stroke="#70ad3c" stroke-width="1.51"/><path d="M1191,990L1295,1026L1289,930Z" fill="#5b9b2d" stroke="#5b9b2d" stroke-width="1.51"/><path d="M1109,1013L1295,1026L1191,990Z" fill="#609c37" stroke="#609c37" stroke-width="1.51"/><path d="M931,1032L1295,1026L1109,1013Z" fill="#6da247" stroke="#6da247" stroke-width="1.51"/><path d="M1458,601L1531,493L1451,474Z" fill="#97ba7e" stroke="#97ba7e" stroke-width="1.51"/><path d="M1541,589L1531,493L1458,601Z" fill="#8fb576" stroke="#8fb576" stroke-width="1.51"/><path d="M1458,826L1467,770L1366,821Z" fill="#66a533" stroke="#66a533" stroke-width="1.51"/><path d="M1352,67L1290,-19L1264,71Z" fill="#ab8b6c" stroke="#ab8b6c" stroke-width="1.51"/><path d="M1094,-98L1262,-111L920,-112Z" fill="#b28472" stroke="#b28472" stroke-width="1.51"/><path d="M1262,-111L1204,-92L1204,-27Z" fill="#a67c5f" stroke="#a67c5f" stroke-width="1.51"/><path d="M1379,993L1387,942L1289,930Z" fill="#529526" stroke="#529526" stroke-width="1.51"/><path d="M1464,904L1458,826L1366,821Z" fill="#5d9e2c" stroke="#5d9e2c" stroke-width="1.51"/><path d="M1458,601L1449,647L1542,657Z" fill="#86b363" stroke="#86b363" stroke-width="1.51"/><path d="M1541,589L1458,601L1542,657Z" fill="#86b167" stroke="#86b167" stroke-width="1.51"/><path d="M1522,154L1466,147L1448,228Z" fill="#9b9677" stroke="#9b9677" stroke-width="1.51"/><path d="M165,935L226,1001L244,927Z" fill="#9b886c" stroke="#9b886c" stroke-width="1.51"/><path d="M244,927L226,1001L347,996Z" fill="#9a8e71" stroke="#9a8e71" stroke-width="1.51"/><path d="M347,996L226,1001L492,1033Z" fill="#979478" stroke="#979478" stroke-width="1.51"/><path d="M79,559L55,681L163,665Z" fill="#d6a09e" stroke="#d6a09e" stroke-width="1.51"/><path d="M158,843L165,935L244,927Z" fill="#a48e6e" stroke="#a48e6e" stroke-width="1.51"/><path d="M-6,656L55,681L79,559Z" fill="#d39597" stroke="#d39597" stroke-width="1.51"/><path d="M82,915L165,935L158,843Z" fill="#a28468" stroke="#a28468" stroke-width="1.51"/><path d="M70,476L-12,505L79,559Z" fill="#e299b2" stroke="#e299b2" stroke-width="1.51"/><path d="M-17,388L-12,505L70,476Z" fill="#e295b5" stroke="#e295b5" stroke-width="1.51"/><path d="M78,220L147,328L176,236Z" fill="#e893be" stroke="#e893be" stroke-width="1.51"/><path d="M78,220L176,236L164,168Z" fill="#e58abb" stroke="#e58abb" stroke-width="1.51"/><path d="M1542,657L1449,647L1530,742Z" fill="#7aac54" stroke="#7aac54" stroke-width="1.51"/><path d="M1387,942L1464,904L1366,821Z" fill="#589a28" stroke="#589a28" stroke-width="1.51"/><path d="M1295,1026L1379,993L1289,930Z" fill="#529328" stroke="#529328" stroke-width="1.51"/><path d="M55,681L68,768L146,747Z" fill="#c39582" stroke="#c39582" stroke-width="1.51"/><path d="M65,136L78,220L164,168Z" fill="#df7aaf" stroke="#df7aaf" stroke-width="1.51"/><path d="M1530,742L1449,647L1467,770Z" fill="#74ab4b" stroke="#74ab4b" stroke-width="1.51"/><path d="M1530,742L1467,770L1533,843Z" fill="#619d37" stroke="#619d37" stroke-width="1.51"/><path d="M1542,229L1448,228L1459,318Z" fill="#9da580" stroke="#9da580" stroke-width="1.51"/><path d="M1448,228L1466,147L1380,217Z" fill="#a2a17d" stroke="#a2a17d" stroke-width="1.51"/><path d="M1355,-40L1262,-111L1290,-19Z" fill="#a0755b" stroke="#a0755b" stroke-width="1.51"/><path d="M242,42L169,40L258,128Z" fill="#de76ad" stroke="#de76ad" stroke-width="1.51"/><path d="M244,-47L242,42L333,-26Z" fill="#d967a3" stroke="#d967a3" stroke-width="1.51"/><path d="M1533,843L1467,770L1458,826Z" fill="#5d9c2f" stroke="#5d9c2f" stroke-width="1.51"/><path d="M1542,657L1557,397L1541,589Z" fill="#8cb077" stroke="#8cb077" stroke-width="1.51"/><path d="M1541,589L1557,397L1531,493Z" fill="#91b17f" stroke="#91b17f" stroke-width="1.51"/><path d="M1531,493L1557,397L1446,423Z" fill="#99b587" stroke="#99b587" stroke-width="1.51"/><path d="M310,-108L244,-47L333,-26Z" fill="#d3629b" stroke="#d3629b" stroke-width="1.51"/><path d="M428,-97L310,-108L333,-26Z" fill="#d26c9f" stroke="#d26c9f" stroke-width="1.51"/><path d="M673,-120L310,-108L428,-97Z" fill="#d178a1" stroke="#d178a1" stroke-width="1.51"/><path d="M1290,-19L1262,-111L1204,-27Z" fill="#a87c60" stroke="#a87c60" stroke-width="1.51"/><path d="M1204,-92L1262,-111L1094,-98Z" fill="#a67c61" stroke="#a67c61" stroke-width="1.51"/><path d="M920,-112L1453,-129L673,-120Z" fill="#ba877d" stroke="#ba877d" stroke-width="1.51"/><path d="M1355,-40L1290,-19L1352,67Z" fill="#a47e63" stroke="#a47e63" stroke-width="1.51"/><path d="M1434,1010L1464,904L1387,942Z" fill="#488c20" stroke="#488c20" stroke-width="1.51"/><path d="M79,990L171,1001L165,935Z" fill="#947861" stroke="#947861" stroke-width="1.51"/><path d="M165,935L171,1001L226,1001Z" fill="#967f67" stroke="#967f67" stroke-width="1.51"/><path d="M226,1001L171,1001L492,1033Z" fill="#948b71" stroke="#948b71" stroke-width="1.51"/><path d="M1452,46L1355,-40L1352,67Z" fill="#9e7e62" stroke="#9e7e62" stroke-width="1.51"/><path d="M1557,397L1558,320L1459,318Z" fill="#9aab84" stroke="#9aab84" stroke-width="1.51"/><path d="M-17,388L70,476L76,398Z" fill="#e696b9" stroke="#e696b9" stroke-width="1.51"/><path d="M4,752L57,844L68,768Z" fill="#b4856d" stroke="#b4856d" stroke-width="1.51"/><path d="M-17,388L76,398L55,321Z" fill="#e690b7" stroke="#e690b7" stroke-width="1.51"/><path d="M68,768L57,844L158,843Z" fill="#b08a6d" stroke="#b08a6d" stroke-width="1.51"/><path d="M4,752L68,768L55,681Z" fill="#c08c7b" stroke="#c08c7b" stroke-width="1.51"/><path d="M1558,320L1542,229L1459,318Z" fill="#9aa480" stroke="#9aa480" stroke-width="1.51"/><path d="M1466,147L1452,46L1352,67Z" fill="#9d896b" stroke="#9d896b" stroke-width="1.51"/><path d="M-28,590L-6,656L79,559Z" fill="#d5939b" stroke="#d5939b" stroke-width="1.51"/><path d="M1541,70L1452,46L1466,147Z" fill="#958168" stroke="#958168" stroke-width="1.51"/><path d="M310,-108L256,-103L244,-47Z" fill="#cb5a93" stroke="#cb5a93" stroke-width="1.51"/><path d="M244,-47L174,-47L242,42Z" fill="#d55a9b" stroke="#d55a9b" stroke-width="1.51"/><path d="M57,844L82,915L158,843Z" fill="#a78367" stroke="#a78367" stroke-width="1.51"/><path d="M-12,505L-28,590L79,559Z" fill="#dc95a7" stroke="#dc95a7" stroke-width="1.51"/><path d="M-36,338L-17,388L55,321Z" fill="#e18ab1" stroke="#e18ab1" stroke-width="1.51"/><path d="M-36,338L55,321L-22,216Z" fill="#de81ad" stroke="#de81ad" stroke-width="1.51"/><path d="M169,40L65,136L164,168Z" fill="#dc70a9" stroke="#dc70a9" stroke-width="1.51"/><path d="M73,46L65,136L169,40Z" fill="#d65e9d" stroke="#d65e9d" stroke-width="1.51"/><path d="M1542,657L1561,992L1557,397Z" fill="#75a652" stroke="#75a652" stroke-width="1.51"/><path d="M1530,742L1533,843L1542,657Z" fill="#689f40" stroke="#689f40" stroke-width="1.51"/><path d="M1464,904L1533,843L1458,826Z" fill="#559529" stroke="#559529" stroke-width="1.51"/><path d="M1527,905L1533,843L1464,904Z" fill="#4d8d25" stroke="#4d8d25" stroke-width="1.51"/><path d="M1379,993L1434,1010L1387,942Z" fill="#478a20" stroke="#478a20" stroke-width="1.51"/><path d="M1295,1026L1434,1010L1379,993Z" fill="#478822" stroke="#478822" stroke-width="1.51"/><path d="M1542,229L1522,154L1448,228Z" fill="#99997a" stroke="#99997a" stroke-width="1.51"/><path d="M-95,560L-28,590L-12,505Z" fill="#d2909f" stroke="#d2909f" stroke-width="1.51"/><path d="M-24,906L79,990L82,915Z" fill="#976f58" stroke="#976f58" stroke-width="1.51"/><path d="M-6,656L4,752L55,681Z" fill="#c58e81" stroke="#c58e81" stroke-width="1.51"/><path d="M-99,766L4,752L-6,656Z" fill="#b78673" stroke="#b78673" stroke-width="1.51"/><path d="M256,-103L174,-47L244,-47Z" fill="#cc5392" stroke="#cc5392" stroke-width="1.51"/><path d="M1561,992L1527,905L1464,904Z" fill="#41831f" stroke="#41831f" stroke-width="1.51"/><path d="M-113,409L-95,508L-12,505Z" fill="#d28ea6" stroke="#d28ea6" stroke-width="1.51"/><path d="M-22,216L55,321L78,220Z" fill="#e17daf" stroke="#e17daf" stroke-width="1.51"/><path d="M1452,46L1439,-35L1355,-40Z" fill="#98725a" stroke="#98725a" stroke-width="1.51"/><path d="M1355,-40L1387,-106L1262,-111Z" fill="#956e52" stroke="#956e52" stroke-width="1.51"/><path d="M1559,-21L1439,-35L1452,46Z" fill="#8f6a58" stroke="#8f6a58" stroke-width="1.51"/><path d="M65,136L-22,216L78,220Z" fill="#dd71a9" stroke="#dd71a9" stroke-width="1.51"/><path d="M73,-14L73,46L169,40Z" fill="#d24e93" stroke="#d24e93" stroke-width="1.51"/><path d="M-5,857L82,915L57,844Z" fill="#a3795f" stroke="#a3795f" stroke-width="1.51"/><path d="M82,915L79,990L165,935Z" fill="#98785f" stroke="#98785f" stroke-width="1.51"/><path d="M1439,-35L1387,-106L1355,-40Z" fill="#926b52" stroke="#926b52" stroke-width="1.51"/><path d="M-20,128L-22,216L65,136Z" fill="#d6659f" stroke="#d6659f" stroke-width="1.51"/><path d="M4,752L-5,857L57,844Z" fill="#ab7e62" stroke="#ab7e62" stroke-width="1.51"/><path d="M-24,906L-5,857L-92,817Z" fill="#9a7256" stroke="#9a7256" stroke-width="1.51"/><path d="M1439,-35L1453,-129L1387,-106Z" fill="#88644b" stroke="#88644b" stroke-width="1.51"/><path d="M1522,154L1541,70L1466,147Z" fill="#94856d" stroke="#94856d" stroke-width="1.51"/><path d="M1542,229L1541,70L1522,154Z" fill="#938970" stroke="#938970" stroke-width="1.51"/><path d="M1559,-21L1541,70L1542,229Z" fill="#8e7a66" stroke="#8e7a66" stroke-width="1.51"/><path d="M-113,409L-12,505L-17,388Z" fill="#d88ead" stroke="#d88ead" stroke-width="1.51"/><path d="M-28,590L-123,676L-6,656Z" fill="#c48c87" stroke="#c48c87" stroke-width="1.51"/><path d="M-113,409L-17,388L-36,338Z" fill="#d888aa" stroke="#d888aa" stroke-width="1.51"/><path d="M-95,508L-95,560L-12,505Z" fill="#d08fa0" stroke="#d08fa0" stroke-width="1.51"/><path d="M51,-98L73,-14L174,-47Z" fill="#c63483" stroke="#c63483" stroke-width="1.51"/><path d="M174,-47L73,-14L169,40Z" fill="#d14b92" stroke="#d14b92" stroke-width="1.51"/><path d="M73,46L-20,128L65,136Z" fill="#d5599a" stroke="#d5599a" stroke-width="1.51"/><path d="M256,-103L156,-120L174,-47Z" fill="#c54a8a" stroke="#c54a8a" stroke-width="1.51"/><path d="M310,-108L156,-120L256,-103Z" fill="#c3528b" stroke="#c3528b" stroke-width="1.51"/><path d="M673,-120L156,-120L310,-108Z" fill="#ca6c9b" stroke="#ca6c9b" stroke-width="1.51"/><path d="M-31,61L-20,128L73,46Z" fill="#ce4d90" stroke="#ce4d90" stroke-width="1.51"/><path d="M-117,301L-113,409L-36,338Z" fill="#d283a4" stroke="#d283a4" stroke-width="1.51"/><path d="M-5,857L-24,906L82,915Z" fill="#9c7259" stroke="#9c7259" stroke-width="1.51"/><path d="M-92,817L-5,857L4,752Z" fill="#a57b5e" stroke="#a57b5e" stroke-width="1.51"/><path d="M-95,508L-123,676L-95,560Z" fill="#c58b91" stroke="#c58b91" stroke-width="1.51"/><path d="M-117,301L-36,338L-22,216Z" fill="#d57ba5" stroke="#d57ba5" stroke-width="1.51"/><path d="M1434,1010L1561,992L1464,904Z" fill="#3f811f" stroke="#3f811f" stroke-width="1.51"/><path d="M1527,905L1561,992L1533,843Z" fill="#438421" stroke="#438421" stroke-width="1.51"/><path d="M1533,843L1561,992L1542,657Z" fill="#54912b" stroke="#54912b" stroke-width="1.51"/><path d="M1557,397L1561,992L1558,320Z" fill="#89ae72" stroke="#89ae72" stroke-width="1.51"/><path d="M-123,676L-99,766L-6,656Z" fill="#b58674" stroke="#b58674" stroke-width="1.51"/><path d="M-123,676L-28,590L-95,560Z" fill="#c48b8c" stroke="#c48b8c" stroke-width="1.51"/><path d="M1524,-101L1453,-129L1439,-35Z" fill="#825e49" stroke="#825e49" stroke-width="1.51"/><path d="M1387,-106L1453,-129L1262,-111Z" fill="#8a684b" stroke="#8a684b" stroke-width="1.51"/><path d="M1262,-111L1453,-129L920,-112Z" fill="#9f785a" stroke="#9f785a" stroke-width="1.51"/><path d="M673,-120L-2,-122L156,-120Z" fill="#c3588e" stroke="#c3588e" stroke-width="1.51"/><path d="M-113,409L-123,676L-95,508Z" fill="#c88b99" stroke="#c88b99" stroke-width="1.51"/><path d="M-113,409L-122,249L-123,676Z" fill="#cc8aa4" stroke="#cc8aa4" stroke-width="1.51"/><path d="M-122,249L-117,301L-22,216Z" fill="#ce749e" stroke="#ce749e" stroke-width="1.51"/><path d="M-97,909L-92,817L-99,766Z" fill="#967353" stroke="#967353" stroke-width="1.51"/><path d="M-99,766L-92,817L4,752Z" fill="#a77d62" stroke="#a77d62" stroke-width="1.51"/><path d="M-111,149L-122,249L-22,216Z" fill="#cb6a9a" stroke="#cb6a9a" stroke-width="1.51"/><path d="M-1,-21L-31,61L73,46Z" fill="#ca3a87" stroke="#ca3a87" stroke-width="1.51"/><path d="M-1,-21L73,46L73,-14Z" fill="#cb3687" stroke="#cb3687" stroke-width="1.51"/><path d="M1541,70L1559,-21L1452,46Z" fill="#8d6e5c" stroke="#8d6e5c" stroke-width="1.51"/><path d="M1558,320L1559,-21L1542,229Z" fill="#918c73" stroke="#918c73" stroke-width="1.51"/><path d="M1561,992L1559,-21L1558,320Z" fill="#93ad84" stroke="#93ad84" stroke-width="1.51"/><path d="M-117,301L-122,249L-113,409Z" fill="#cd7d9f" stroke="#cd7d9f" stroke-width="1.51"/><path d="M-111,149L-22,216L-20,128Z" fill="#cd6298" stroke="#cd6298" stroke-width="1.51"/><path d="M-112,73L-111,149L-20,128Z" fill="#c3538c" stroke="#c3538c" stroke-width="1.51"/><path d="M51,-98L-1,-21L73,-14Z" fill="#c3207c" stroke="#c3207c" stroke-width="1.51"/><path d="M156,-120L51,-98L174,-47Z" fill="#c03980" stroke="#c03980" stroke-width="1.51"/><path d="M1559,-21L1524,-101L1439,-35Z" fill="#865d4e" stroke="#865d4e" stroke-width="1.51"/><path d="M-97,909L-31,1014L-24,906Z" fill="#88644b" stroke="#88644b" stroke-width="1.51"/><path d="M-24,906L-31,1014L79,990Z" fill="#8c6451" stroke="#8c6451" stroke-width="1.51"/><path d="M79,990L-31,1014L171,1001Z" fill="#8c6756" stroke="#8c6756" stroke-width="1.51"/><path d="M171,1001L-108,1030L492,1033Z" fill="#8e7763" stroke="#8e7763" stroke-width="1.51"/><path d="M-112,73L-20,128L-31,61Z" fill="#c54b8a" stroke="#c54b8a" stroke-width="1.51"/><path d="M-92,817L-97,909L-24,906Z" fill="#916d50" stroke="#916d50" stroke-width="1.51"/><path d="M-123,676L-97,909L-99,766Z" fill="#9e785b" stroke="#9e785b" stroke-width="1.51"/><path d="M-119,-30L-112,73L-31,61Z" fill="#ba367b" stroke="#ba367b" stroke-width="1.51"/><path d="M-111,149L-112,73L-122,249Z" fill="#c25c8e" stroke="#c25c8e" stroke-width="1.51"/><path d="M-119,-30L-31,61L-1,-21Z" fill="#bc2b7a" stroke="#bc2b7a" stroke-width="1.51"/><path d="M51,-98L-2,-122L-1,-21Z" fill="#b81573" stroke="#b81573" stroke-width="1.51"/><path d="M156,-120L-2,-122L51,-98Z" fill="#b62474" stroke="#b62474" stroke-width="1.51"/><path d="M1453,-129L-2,-122L673,-120Z" fill="#cf8ba6" stroke="#cf8ba6" stroke-width="1.51"/><path d="M-97,909L-108,1030L-31,1014Z" fill="#7c5a45" stroke="#7c5a45" stroke-width="1.51"/><path d="M-31,1014L-108,1030L171,1001Z" fill="#855b4e" stroke="#855b4e" stroke-width="1.51"/><path d="M-123,676L-108,1030L-97,909Z" fill="#8c6b4c" stroke="#8c6b4c" stroke-width="1.51"/><path d="M-81,-100L-119,-30L-1,-21Z" fill="#b1136e" stroke="#b1136e" stroke-width="1.51"/><path d="M-112,73L-119,-30L-122,249Z" fill="#bb4a84" stroke="#bb4a84" stroke-width="1.51"/><path d="M-2,-122L-81,-100L-1,-21Z" fill="#b1126d" stroke="#b1126d" stroke-width="1.51"/></svg>