<svg xmlns="http://www.w3.org/2000/svg" width="1440" height="900"><path d="M751,474L768,559L829,481Z" fill="#67bd70" stroke="#67bd70" stroke-width="1.51"/><path d="M768,559L853,595L829,481Z" fill="#5cb769" stroke="#5cb769" stroke-width="1.51"/><path d="M751,474L667,514L768,559Z" fill="#6cbf72" stroke="#6cbf72" stroke-width="1.51"/><path d="M829,481L755,394L751,474Z" fill="#71c375" stroke="#71c375" stroke-width="1.51"/><path d="M751,474L686,388L667,514Z" fill="#79c679" stroke="#79c679" stroke-width="1.51"/><path d="M768,559L776,644L853,595Z" fill="#54b366" stroke="#54b366" stroke-width="1.51"/><path d="M670,598L776,644L768,559Z" fill="#5cb76a" stroke="#5cb76a" stroke-width="1.51"/><path d="M829,481L871,403L755,394Z" fill="#71c274" stroke="#71c274" stroke-width="1.51"/><path d="M932,481L871,403L829,481Z" fill="#64bb6e" stroke="#64bb6e" stroke-width="1.51"/><path d="M667,514L670,598L768,559Z" fill="#69bd70" stroke="#69bd70" stroke-width="1.51"/><path d="M853,595L932,481L829,481Z" fill="#5ab668" stroke="#5ab668" stroke-width="1.51"/><path d="M755,394L686,388L751,474Z" fill="#7dc87a" stroke="#7dc87a" stroke-width="1.51"/><path d="M680,332L686,388L755,394Z" fill="#88cd7f" stroke="#88cd7f" stroke-width="1.51"/><path d="M776,644L854,662L853,595Z" fill="#4dad61" stroke="#4dad61" stroke-width="1.51"/><path d="M853,595L953,578L932,481Z" fill="#4fb163" stroke="#4fb163" stroke-width="1.51"/><path d="M933,684L953,578L853,595Z" fill="#43aa5d" stroke="#43aa5d" stroke-width="1.51"/><path d="M670,598L675,651L776,644Z" fill="#5db569" stroke="#5db569" stroke-width="1.51"/><path d="M776,644L851,750L854,662Z" fill="#48a75c" stroke="#48a75c" stroke-width="1.51"/><path d="M932,481L952,422L871,403Z" fill="#63ba6d" stroke="#63ba6d" stroke-width="1.51"/><path d="M1025,477L952,422L932,481Z" fill="#5ab468" stroke="#5ab468" stroke-width="1.51"/><path d="M850,304L766,315L755,394Z" fill="#84ca7c" stroke="#84ca7c" stroke-width="1.51"/><path d="M850,304L755,394L871,403Z" fill="#7bc677" stroke="#7bc677" stroke-width="1.51"/><path d="M670,598L597,590L675,651Z" fill="#67bb6d" stroke="#67bb6d" stroke-width="1.51"/><path d="M667,514L597,590L670,598Z" fill="#6ec071" stroke="#6ec071" stroke-width="1.51"/><path d="M574,482L597,590L667,514Z" fill="#79c576" stroke="#79c576" stroke-width="1.51"/><path d="M569,421L574,482L667,514Z" fill="#83ca7c" stroke="#83ca7c" stroke-width="1.51"/><path d="M766,315L680,332L755,394Z" fill="#89cd7f" stroke="#89cd7f" stroke-width="1.51"/><path d="M569,421L667,514L686,388Z" fill="#84cb7d" stroke="#84cb7d" stroke-width="1.51"/><path d="M944,337L850,304L871,403Z" fill="#77c475" stroke="#77c475" stroke-width="1.51"/><path d="M854,662L933,684L853,595Z" fill="#45a85c" stroke="#45a85c" stroke-width="1.51"/><path d="M851,750L933,684L854,662Z" fill="#40a258" stroke="#40a258" stroke-width="1.51"/><path d="M953,578L1025,477L932,481Z" fill="#50b063" stroke="#50b063" stroke-width="1.51"/><path d="M933,684L1006,582L953,578Z" fill="#3ea65a" stroke="#3ea65a" stroke-width="1.51"/><path d="M952,422L944,337L871,403Z" fill="#6cbf70" stroke="#6cbf70" stroke-width="1.51"/><path d="M1042,399L944,337L952,422Z" fill="#68b96d" stroke="#68b96d" stroke-width="1.51"/><path d="M610,314L569,421L686,388Z" fill="#92d282" stroke="#92d282" stroke-width="1.51"/><path d="M1006,582L1025,477L953,578Z" fill="#48aa5e" stroke="#48aa5e" stroke-width="1.51"/><path d="M675,651L743,751L776,644Z" fill="#55ad63" stroke="#55ad63" stroke-width="1.51"/><path d="M664,771L743,751L675,651Z" fill="#56aa61" stroke="#56aa61" stroke-width="1.51"/><path d="M743,751L851,750L776,644Z" fill="#4aa55c" stroke="#4aa55c" stroke-width="1.51"/><path d="M597,590L572,660L675,651Z" fill="#69b96d" stroke="#69b96d" stroke-width="1.51"/><path d="M515,587L572,660L597,590Z" fill="#72bf71" stroke="#72bf71" stroke-width="1.51"/><path d="M515,587L597,590L574,482Z" fill="#7bc677" stroke="#7bc677" stroke-width="1.51"/><path d="M680,332L610,314L686,388Z" fill="#93d283" stroke="#93d283" stroke-width="1.51"/><path d="M693,225L610,314L680,332Z" fill="#9bd587" stroke="#9bd587" stroke-width="1.51"/><path d="M693,225L680,332L766,315Z" fill="#95d384" stroke="#95d384" stroke-width="1.51"/><path d="M850,304L837,249L766,315Z" fill="#8acc7d" stroke="#8acc7d" stroke-width="1.51"/><path d="M927,213L837,249L850,304Z" fill="#89cb7c" stroke="#89cb7c" stroke-width="1.51"/><path d="M837,249L776,243L766,315Z" fill="#90cf80" stroke="#90cf80" stroke-width="1.51"/><path d="M1025,477L1042,399L952,422Z" fill="#5db367" stroke="#5db367" stroke-width="1.51"/><path d="M944,337L927,213L850,304Z" fill="#80c778" stroke="#80c778" stroke-width="1.51"/><path d="M1088,475L1042,399L1025,477Z" fill="#56ae64" stroke="#56ae64" stroke-width="1.51"/><path d="M500,484L515,587L574,482Z" fill="#85ca7b" stroke="#85ca7b" stroke-width="1.51"/><path d="M582,751L664,771L675,651Z" fill="#5dad64" stroke="#5dad64" stroke-width="1.51"/><path d="M743,751L742,823L851,750Z" fill="#479f58" stroke="#479f58" stroke-width="1.51"/><path d="M569,421L500,484L574,482Z" fill="#8cce80" stroke="#8cce80" stroke-width="1.51"/><path d="M490,414L500,484L569,421Z" fill="#93d283" stroke="#93d283" stroke-width="1.51"/><path d="M933,684L1037,662L1006,582Z" fill="#39a056" stroke="#39a056" stroke-width="1.51"/><path d="M1006,582L1088,475L1025,477Z" fill="#4ca95f" stroke="#4ca95f" stroke-width="1.51"/><path d="M1035,735L1037,662L933,684Z" fill="#349951" stroke="#349951" stroke-width="1.51"/><path d="M851,750L940,765L933,684Z" fill="#389b53" stroke="#389b53" stroke-width="1.51"/><path d="M916,824L940,765L851,750Z" fill="#359751" stroke="#359751" stroke-width="1.51"/><path d="M762,154L693,225L776,243Z" fill="#9ed688" stroke="#9ed688" stroke-width="1.51"/><path d="M776,243L693,225L766,315Z" fill="#96d384" stroke="#96d384" stroke-width="1.51"/><path d="M1127,579L1088,475L1006,582Z" fill="#43a359" stroke="#43a359" stroke-width="1.51"/><path d="M511,333L490,414L569,421Z" fill="#9bd586" stroke="#9bd586" stroke-width="1.51"/><path d="M511,333L569,421L610,314Z" fill="#9cd587" stroke="#9cd587" stroke-width="1.51"/><path d="M664,771L742,823L743,751Z" fill="#4ea15c" stroke="#4ea15c" stroke-width="1.51"/><path d="M664,771L688,860L742,823Z" fill="#4e9f5c" stroke="#4e9f5c" stroke-width="1.51"/><path d="M572,660L582,751L675,651Z" fill="#65b368" stroke="#65b368" stroke-width="1.51"/><path d="M522,756L582,751L572,660Z" fill="#68b168" stroke="#68b168" stroke-width="1.51"/><path d="M742,823L847,831L851,750Z" fill="#409a55" stroke="#409a55" stroke-width="1.51"/><path d="M1042,399L1043,307L944,337Z" fill="#6db96d" stroke="#6db96d" stroke-width="1.51"/><path d="M1124,327L1043,307L1042,399Z" fill="#69b46a" stroke="#69b46a" stroke-width="1.51"/><path d="M519,248L511,333L610,314Z" fill="#a8da8c" stroke="#a8da8c" stroke-width="1.51"/><path d="M1009,213L927,213L944,337Z" fill="#80c576" stroke="#80c576" stroke-width="1.51"/><path d="M837,249L762,154L776,243Z" fill="#97d385" stroke="#97d385" stroke-width="1.51"/><path d="M693,225L596,237L610,314Z" fill="#a4d98a" stroke="#a4d98a" stroke-width="1.51"/><path d="M1037,662L1127,579L1006,582Z" fill="#399f55" stroke="#399f55" stroke-width="1.51"/><path d="M940,765L1035,735L933,684Z" fill="#329750" stroke="#329750" stroke-width="1.51"/><path d="M1016,835L1035,735L940,765Z" fill="#2c8f4b" stroke="#2c8f4b" stroke-width="1.51"/><path d="M847,831L916,824L851,750Z" fill="#389752" stroke="#389752" stroke-width="1.51"/><path d="M515,587L495,684L572,660Z" fill="#74bd70" stroke="#74bd70" stroke-width="1.51"/><path d="M438,565L495,684L515,587Z" fill="#7cc475" stroke="#7cc475" stroke-width="1.51"/><path d="M438,565L515,587L500,484Z" fill="#86ca7b" stroke="#86ca7b" stroke-width="1.51"/><path d="M1088,475L1110,402L1042,399Z" fill="#59ad64" stroke="#59ad64" stroke-width="1.51"/><path d="M1187,497L1110,402L1088,475Z" fill="#50a65e" stroke="#50a65e" stroke-width="1.51"/><path d="M1108,680L1127,579L1037,662Z" fill="#339850" stroke="#339850" stroke-width="1.51"/><path d="M397,507L438,565L500,484Z" fill="#8fce80" stroke="#8fce80" stroke-width="1.51"/><path d="M430,405L500,484L490,414Z" fill="#99d486" stroke="#99d486" stroke-width="1.51"/><path d="M693,225L668,159L596,237Z" fill="#a9db8d" stroke="#a9db8d" stroke-width="1.51"/><path d="M861,137L762,154L837,249Z" fill="#9ad385" stroke="#9ad385" stroke-width="1.51"/><path d="M585,823L688,860L664,771Z" fill="#55a25e" stroke="#55a25e" stroke-width="1.51"/><path d="M495,684L522,756L572,660Z" fill="#6eb56b" stroke="#6eb56b" stroke-width="1.51"/><path d="M421,758L522,756L495,684Z" fill="#71b36a" stroke="#71b36a" stroke-width="1.51"/><path d="M742,823L759,928L847,831Z" fill="#409655" stroke="#409655" stroke-width="1.51"/><path d="M949,924L1016,835L916,824Z" fill="#278b4a" stroke="#278b4a" stroke-width="1.51"/><path d="M585,823L664,771L582,751Z" fill="#5ca762" stroke="#5ca762" stroke-width="1.51"/><path d="M1035,735L1108,680L1037,662Z" fill="#30934d" stroke="#30934d" stroke-width="1.51"/><path d="M762,154L668,159L693,225Z" fill="#a6da8c" stroke="#a6da8c" stroke-width="1.51"/><path d="M1043,307L1009,213L944,337Z" fill="#79bf72" stroke="#79bf72" stroke-width="1.51"/><path d="M927,213L861,137L837,249Z" fill="#91ce80" stroke="#91ce80" stroke-width="1.51"/><path d="M1122,244L1009,213L1043,307Z" fill="#79bc70" stroke="#79bc70" stroke-width="1.51"/><path d="M522,756L585,823L582,751Z" fill="#63aa63" stroke="#63aa63" stroke-width="1.51"/><path d="M511,333L430,405L490,414Z" fill="#a2d889" stroke="#a2d889" stroke-width="1.51"/><path d="M399,315L430,405L511,333Z" fill="#aadc8d" stroke="#aadc8d" stroke-width="1.51"/><path d="M519,248L610,314L596,237Z" fill="#aadb8c" stroke="#aadb8c" stroke-width="1.51"/><path d="M489,152L519,248L596,237Z" fill="#b6e192" stroke="#b6e192" stroke-width="1.51"/><path d="M952,162L861,137L927,213Z" fill="#91ce7f" stroke="#91ce7f" stroke-width="1.51"/><path d="M696,45L600,138L668,159Z" fill="#b5e093" stroke="#b5e093" stroke-width="1.51"/><path d="M1176,339L1124,327L1110,402Z" fill="#63ad65" stroke="#63ad65" stroke-width="1.51"/><path d="M1110,402L1124,327L1042,399Z" fill="#62b066" stroke="#62b066" stroke-width="1.51"/><path d="M1009,213L952,162L927,213Z" fill="#89c87a" stroke="#89c87a" stroke-width="1.51"/><path d="M430,405L397,507L500,484Z" fill="#97d385" stroke="#97d385" stroke-width="1.51"/><path d="M438,565L407,681L495,684Z" fill="#7dc174" stroke="#7dc174" stroke-width="1.51"/><path d="M1035,735L1127,767L1108,680Z" fill="#2a8c48" stroke="#2a8c48" stroke-width="1.51"/><path d="M916,824L1016,835L940,765Z" fill="#2c904c" stroke="#2c904c" stroke-width="1.51"/><path d="M949,924L916,824L847,831Z" fill="#2e8f4d" stroke="#2e8f4d" stroke-width="1.51"/><path d="M1127,579L1187,497L1088,475Z" fill="#45a058" stroke="#45a058" stroke-width="1.51"/><path d="M1192,579L1187,497L1127,579Z" fill="#3c9b54" stroke="#3c9b54" stroke-width="1.51"/><path d="M1179,652L1192,579L1127,579Z" fill="#31964f" stroke="#31964f" stroke-width="1.51"/><path d="M1179,652L1127,579L1108,680Z" fill="#30944e" stroke="#30944e" stroke-width="1.51"/><path d="M339,560L407,681L438,565Z" fill="#86c97a" stroke="#86c97a" stroke-width="1.51"/><path d="M522,756L490,854L585,823Z" fill="#64a963" stroke="#64a963" stroke-width="1.51"/><path d="M1204,739L1179,652L1108,680Z" fill="#298b48" stroke="#298b48" stroke-width="1.51"/><path d="M696,45L668,159L762,154Z" fill="#aedd90" stroke="#aedd90" stroke-width="1.51"/><path d="M668,159L600,138L596,237Z" fill="#b1df91" stroke="#b1df91" stroke-width="1.51"/><path d="M688,860L759,928L742,823Z" fill="#469858" stroke="#469858" stroke-width="1.51"/><path d="M673,918L759,928L688,860Z" fill="#469657" stroke="#469657" stroke-width="1.51"/><path d="M585,908L688,860L585,823Z" fill="#559f5d" stroke="#559f5d" stroke-width="1.51"/><path d="M585,908L673,918L688,860Z" fill="#4f9b5b" stroke="#4f9b5b" stroke-width="1.51"/><path d="M1209,413L1176,339L1110,402Z" fill="#5ca861" stroke="#5ca861" stroke-width="1.51"/><path d="M1124,327L1122,244L1043,307Z" fill="#71b66c" stroke="#71b66c" stroke-width="1.51"/><path d="M1009,213L1020,134L952,162Z" fill="#8bc67a" stroke="#8bc67a" stroke-width="1.51"/><path d="M1109,835L1127,767L1035,735Z" fill="#258745" stroke="#258745" stroke-width="1.51"/><path d="M759,928L828,935L847,831Z" fill="#399151" stroke="#399151" stroke-width="1.51"/><path d="M1176,339L1122,244L1124,327Z" fill="#6cb067" stroke="#6cb067" stroke-width="1.51"/><path d="M1262,393L1209,413L1291,474Z" fill="#50a05c" stroke="#50a05c" stroke-width="1.51"/><path d="M1187,497L1209,413L1110,402Z" fill="#52a45e" stroke="#52a45e" stroke-width="1.51"/><path d="M416,234L511,333L519,248Z" fill="#b4e091" stroke="#b4e091" stroke-width="1.51"/><path d="M416,234L399,315L511,333Z" fill="#b4e091" stroke="#b4e091" stroke-width="1.51"/><path d="M430,405L334,476L397,507Z" fill="#9ed688" stroke="#9ed688" stroke-width="1.51"/><path d="M407,681L421,758L495,684Z" fill="#77b96f" stroke="#77b96f" stroke-width="1.51"/><path d="M952,162L947,81L861,137Z" fill="#96d082" stroke="#96d082" stroke-width="1.51"/><path d="M861,137L832,54L762,154Z" fill="#a2d789" stroke="#a2d789" stroke-width="1.51"/><path d="M1089,140L1020,134L1009,213Z" fill="#89c377" stroke="#89c377" stroke-width="1.51"/><path d="M828,935L949,924L847,831Z" fill="#308d4e" stroke="#308d4e" stroke-width="1.51"/><path d="M1016,835L1109,835L1035,735Z" fill="#268847" stroke="#268847" stroke-width="1.51"/><path d="M490,854L585,908L585,823Z" fill="#5ea360" stroke="#5ea360" stroke-width="1.51"/><path d="M742,1025L828,935L759,928Z" fill="#3b8b51" stroke="#3b8b51" stroke-width="1.51"/><path d="M397,507L339,560L438,565Z" fill="#90ce80" stroke="#90ce80" stroke-width="1.51"/><path d="M320,771L412,824L421,758Z" fill="#76b26b" stroke="#76b26b" stroke-width="1.51"/><path d="M334,476L339,560L397,507Z" fill="#98d384" stroke="#98d384" stroke-width="1.51"/><path d="M421,758L490,854L522,756Z" fill="#6cad67" stroke="#6cad67" stroke-width="1.51"/><path d="M326,409L334,476L430,405Z" fill="#a5d98c" stroke="#a5d98c" stroke-width="1.51"/><path d="M1097,918L1109,835L1016,835Z" fill="#1f8043" stroke="#1f8043" stroke-width="1.51"/><path d="M1127,767L1204,739L1108,680Z" fill="#268745" stroke="#268745" stroke-width="1.51"/><path d="M1020,134L947,81L952,162Z" fill="#91cb7e" stroke="#91cb7e" stroke-width="1.51"/><path d="M947,81L832,54L861,137Z" fill="#9ed487" stroke="#9ed487" stroke-width="1.51"/><path d="M949,924L1009,914L1016,835Z" fill="#228547" stroke="#228547" stroke-width="1.51"/><path d="M342,338L326,409L430,405Z" fill="#addd8e" stroke="#addd8e" stroke-width="1.51"/><path d="M489,152L416,234L519,248Z" fill="#bde495" stroke="#bde495" stroke-width="1.51"/><path d="M600,138L489,152L596,237Z" fill="#b8e293" stroke="#b8e293" stroke-width="1.51"/><path d="M511,81L489,152L600,138Z" fill="#c2e698" stroke="#c2e698" stroke-width="1.51"/><path d="M832,54L773,41L762,154Z" fill="#a9d98d" stroke="#a9d98d" stroke-width="1.51"/><path d="M247,564L323,686L339,560Z" fill="#90cd7f" stroke="#90cd7f" stroke-width="1.51"/><path d="M342,338L430,405L399,315Z" fill="#b0de8f" stroke="#b0de8f" stroke-width="1.51"/><path d="M773,41L696,45L762,154Z" fill="#aedc91" stroke="#aedc91" stroke-width="1.51"/><path d="M1197,846L1204,739L1127,767Z" fill="#1f7f41" stroke="#1f7f41" stroke-width="1.51"/><path d="M1179,652L1266,587L1192,579Z" fill="#2e934e" stroke="#2e934e" stroke-width="1.51"/><path d="M1192,579L1266,587L1187,497Z" fill="#399752" stroke="#399752" stroke-width="1.51"/><path d="M339,214L342,338L399,315Z" fill="#bde495" stroke="#bde495" stroke-width="1.51"/><path d="M1122,244L1089,140L1009,213Z" fill="#81be73" stroke="#81be73" stroke-width="1.51"/><path d="M1020,134L1005,74L947,81Z" fill="#93cb7f" stroke="#93cb7f" stroke-width="1.51"/><path d="M1182,163L1089,140L1122,244Z" fill="#7fb970" stroke="#7fb970" stroke-width="1.51"/><path d="M1181,225L1122,244L1176,339Z" fill="#71b169" stroke="#71b169" stroke-width="1.51"/><path d="M1268,666L1266,587L1179,652Z" fill="#2a8d4a" stroke="#2a8d4a" stroke-width="1.51"/><path d="M1262,393L1176,339L1209,413Z" fill="#5aa560" stroke="#5aa560" stroke-width="1.51"/><path d="M1288,335L1181,225L1176,339Z" fill="#69ac65" stroke="#69ac65" stroke-width="1.51"/><path d="M947,81L858,-9L832,54Z" fill="#a3d58a" stroke="#a3d58a" stroke-width="1.51"/><path d="M832,54L858,-9L773,41Z" fill="#abd98f" stroke="#abd98f" stroke-width="1.51"/><path d="M1089,140L1005,74L1020,134Z" fill="#8ec57b" stroke="#8ec57b" stroke-width="1.51"/><path d="M421,758L412,824L490,854Z" fill="#6fad67" stroke="#6fad67" stroke-width="1.51"/><path d="M490,854L513,945L585,908Z" fill="#5ea060" stroke="#5ea060" stroke-width="1.51"/><path d="M323,686L421,758L407,681Z" fill="#7ebb71" stroke="#7ebb71" stroke-width="1.51"/><path d="M1291,474L1209,413L1187,497Z" fill="#4a9e5a" stroke="#4a9e5a" stroke-width="1.51"/><path d="M247,564L339,560L334,476Z" fill="#9ad385" stroke="#9ad385" stroke-width="1.51"/><path d="M339,560L323,686L407,681Z" fill="#87c578" stroke="#87c578" stroke-width="1.51"/><path d="M489,152L428,165L416,234Z" fill="#c4e799" stroke="#c4e799" stroke-width="1.51"/><path d="M416,234L339,214L399,315Z" fill="#c0e697" stroke="#c0e697" stroke-width="1.51"/><path d="M400,53L428,165L489,152Z" fill="#cceb9d" stroke="#cceb9d" stroke-width="1.51"/><path d="M696,45L572,57L600,138Z" fill="#bce397" stroke="#bce397" stroke-width="1.51"/><path d="M1266,587L1291,474L1187,497Z" fill="#3e9854" stroke="#3e9854" stroke-width="1.51"/><path d="M1266,587L1349,588L1291,474Z" fill="#359150" stroke="#359150" stroke-width="1.51"/><path d="M1204,739L1268,666L1179,652Z" fill="#268846" stroke="#268846" stroke-width="1.51"/><path d="M828,935L845,1015L949,924Z" fill="#2e864b" stroke="#2e864b" stroke-width="1.51"/><path d="M949,924L1041,1004L1009,914Z" fill="#1f7e44" stroke="#1f7e44" stroke-width="1.51"/><path d="M742,1025L845,1015L828,935Z" fill="#36854d" stroke="#36854d" stroke-width="1.51"/><path d="M742,1025L759,928L673,918Z" fill="#428e54" stroke="#428e54" stroke-width="1.51"/><path d="M572,57L511,81L600,138Z" fill="#c2e699" stroke="#c2e699" stroke-width="1.51"/><path d="M1204,739L1262,772L1268,666Z" fill="#208142" stroke="#208142" stroke-width="1.51"/><path d="M1109,835L1197,846L1127,767Z" fill="#1e7e41" stroke="#1e7e41" stroke-width="1.51"/><path d="M1009,914L1097,918L1016,835Z" fill="#1f8144" stroke="#1f8144" stroke-width="1.51"/><path d="M1041,1004L1097,918L1009,914Z" fill="#1c7941" stroke="#1c7941" stroke-width="1.51"/><path d="M670,1023L742,1025L673,918Z" fill="#448c53" stroke="#448c53" stroke-width="1.51"/><path d="M427,914L513,945L490,854Z" fill="#64a262" stroke="#64a262" stroke-width="1.51"/><path d="M670,1023L673,918L585,908Z" fill="#4e9458" stroke="#4e9458" stroke-width="1.51"/><path d="M753,-35L679,-15L696,45Z" fill="#bae299" stroke="#bae299" stroke-width="1.51"/><path d="M696,45L583,-5L572,57Z" fill="#c2e59b" stroke="#c2e59b" stroke-width="1.51"/><path d="M941,-47L858,-9L947,81Z" fill="#a3d58a" stroke="#a3d58a" stroke-width="1.51"/><path d="M572,1027L670,1023L585,908Z" fill="#509158" stroke="#509158" stroke-width="1.51"/><path d="M1089,140L1123,72L1005,74Z" fill="#8ec37a" stroke="#8ec37a" stroke-width="1.51"/><path d="M1005,74L941,-47L947,81Z" fill="#9bd085" stroke="#9bd085" stroke-width="1.51"/><path d="M1181,225L1182,163L1122,244Z" fill="#7ab56d" stroke="#7ab56d" stroke-width="1.51"/><path d="M1266,130L1182,163L1181,225Z" fill="#7cb46e" stroke="#7cb46e" stroke-width="1.51"/><path d="M1288,335L1176,339L1262,393Z" fill="#5ea561" stroke="#5ea561" stroke-width="1.51"/><path d="M1097,918L1197,846L1109,835Z" fill="#1a7b3f" stroke="#1a7b3f" stroke-width="1.51"/><path d="M1358,403L1288,335L1262,393Z" fill="#569f5e" stroke="#569f5e" stroke-width="1.51"/><path d="M412,824L427,914L490,854Z" fill="#6ba765" stroke="#6ba765" stroke-width="1.51"/><path d="M323,686L320,771L421,758Z" fill="#7eb86f" stroke="#7eb86f" stroke-width="1.51"/><path d="M233,741L320,771L323,686Z" fill="#85bc73" stroke="#85bc73" stroke-width="1.51"/><path d="M326,409L261,410L334,476Z" fill="#abdc8e" stroke="#abdc8e" stroke-width="1.51"/><path d="M342,338L261,410L326,409Z" fill="#b2df91" stroke="#b2df91" stroke-width="1.51"/><path d="M240,310L261,410L342,338Z" fill="#bbe395" stroke="#bbe395" stroke-width="1.51"/><path d="M753,-35L696,45L773,41Z" fill="#b5df95" stroke="#b5df95" stroke-width="1.51"/><path d="M572,57L486,-39L511,81Z" fill="#cceaa0" stroke="#cceaa0" stroke-width="1.51"/><path d="M428,165L339,214L416,234Z" fill="#c6e89a" stroke="#c6e89a" stroke-width="1.51"/><path d="M345,128L339,214L428,165Z" fill="#ceeb9d" stroke="#ceeb9d" stroke-width="1.51"/><path d="M513,945L572,1027L585,908Z" fill="#58975c" stroke="#58975c" stroke-width="1.51"/><path d="M333,846L427,914L412,824Z" fill="#70aa68" stroke="#70aa68" stroke-width="1.51"/><path d="M845,1015L931,1032L949,924Z" fill="#288047" stroke="#288047" stroke-width="1.51"/><path d="M742,1025L931,1032L845,1015Z" fill="#307f49" stroke="#307f49" stroke-width="1.51"/><path d="M492,1033L931,1032L742,1025Z" fill="#408650" stroke="#408650" stroke-width="1.51"/><path d="M1197,846L1262,772L1204,739Z" fill="#1c7c40" stroke="#1c7c40" stroke-width="1.51"/><path d="M1268,666L1349,588L1266,587Z" fill="#298c4b" stroke="#298c4b" stroke-width="1.51"/><path d="M233,497L247,564L334,476Z" fill="#a1d689" stroke="#a1d689" stroke-width="1.51"/><path d="M858,-9L753,-35L773,41Z" fill="#b0dd93" stroke="#b0dd93" stroke-width="1.51"/><path d="M1182,163L1123,72L1089,140Z" fill="#87bc74" stroke="#87bc74" stroke-width="1.51"/><path d="M261,410L233,497L334,476Z" fill="#a9db8d" stroke="#a9db8d" stroke-width="1.51"/><path d="M931,1032L1041,1004L949,924Z" fill="#207b43" stroke="#207b43" stroke-width="1.51"/><path d="M1186,937L1260,841L1197,846Z" fill="#13743c" stroke="#13743c" stroke-width="1.51"/><path d="M679,-15L583,-5L696,45Z" fill="#c0e49b" stroke="#c0e49b" stroke-width="1.51"/><path d="M400,53L345,128L428,165Z" fill="#d2eda0" stroke="#d2eda0" stroke-width="1.51"/><path d="M611,-108L583,-5L679,-15Z" fill="#c5e7a3" stroke="#c5e7a3" stroke-width="1.51"/><path d="M670,1023L572,1027L742,1025Z" fill="#488954" stroke="#488954" stroke-width="1.51"/><path d="M492,1033L572,1027L513,945Z" fill="#5a935b" stroke="#5a935b" stroke-width="1.51"/><path d="M320,771L333,846L412,824Z" fill="#77b06b" stroke="#77b06b" stroke-width="1.51"/><path d="M437,1008L492,1033L513,945Z" fill="#5f965d" stroke="#5f965d" stroke-width="1.51"/><path d="M261,826L333,846L320,771Z" fill="#7db26e" stroke="#7db26e" stroke-width="1.51"/><path d="M1386,651L1349,588L1268,666Z" fill="#238748" stroke="#238748" stroke-width="1.51"/><path d="M1291,474L1358,403L1262,393Z" fill="#4e9c5b" stroke="#4e9c5b" stroke-width="1.51"/><path d="M1349,588L1360,471L1291,474Z" fill="#3b9353" stroke="#3b9353" stroke-width="1.51"/><path d="M1370,745L1386,651L1268,666Z" fill="#1e8043" stroke="#1e8043" stroke-width="1.51"/><path d="M1197,846L1260,841L1262,772Z" fill="#17773e" stroke="#17773e" stroke-width="1.51"/><path d="M1186,937L1197,846L1097,918Z" fill="#14763d" stroke="#14763d" stroke-width="1.51"/><path d="M1288,335L1297,240L1181,225Z" fill="#6caa66" stroke="#6caa66" stroke-width="1.51"/><path d="M1182,163L1208,82L1123,72Z" fill="#86b974" stroke="#86b974" stroke-width="1.51"/><path d="M1382,317L1297,240L1288,335Z" fill="#64a462" stroke="#64a462" stroke-width="1.51"/><path d="M1039,-38L941,-47L1005,74Z" fill="#9dce86" stroke="#9dce86" stroke-width="1.51"/><path d="M858,-9L779,-101L753,-35Z" fill="#b2dd9a" stroke="#b2dd9a" stroke-width="1.51"/><path d="M1360,471L1358,403L1291,474Z" fill="#469858" stroke="#469858" stroke-width="1.51"/><path d="M339,214L240,310L342,338Z" fill="#c3e698" stroke="#c3e698" stroke-width="1.51"/><path d="M261,410L164,421L233,497Z" fill="#b0de92" stroke="#b0de92" stroke-width="1.51"/><path d="M177,599L231,686L247,564Z" fill="#96ce81" stroke="#96ce81" stroke-width="1.51"/><path d="M247,564L231,686L323,686Z" fill="#8fc87c" stroke="#8fc87c" stroke-width="1.51"/><path d="M1109,1013L1186,937L1097,918Z" fill="#15723c" stroke="#15723c" stroke-width="1.51"/><path d="M339,214L233,252L240,310Z" fill="#caea9c" stroke="#caea9c" stroke-width="1.51"/><path d="M400,53L489,152L511,81Z" fill="#ccea9e" stroke="#ccea9e" stroke-width="1.51"/><path d="M1041,1004L1109,1013L1097,918Z" fill="#18723d" stroke="#18723d" stroke-width="1.51"/><path d="M931,1032L1109,1013L1041,1004Z" fill="#1c733f" stroke="#1c733f" stroke-width="1.51"/><path d="M437,1008L513,945L427,914Z" fill="#639c60" stroke="#639c60" stroke-width="1.51"/><path d="M572,1027L492,1033L742,1025Z" fill="#4f8c55" stroke="#4f8c55" stroke-width="1.51"/><path d="M486,-39L400,53L511,81Z" fill="#d3eda3" stroke="#d3eda3" stroke-width="1.51"/><path d="M352,937L437,1008L427,914Z" fill="#699f63" stroke="#699f63" stroke-width="1.51"/><path d="M231,686L233,741L323,686Z" fill="#8ac077" stroke="#8ac077" stroke-width="1.51"/><path d="M1108,-4L1039,-38L1005,74Z" fill="#98c881" stroke="#98c881" stroke-width="1.51"/><path d="M1266,130L1208,82L1182,163Z" fill="#82b570" stroke="#82b570" stroke-width="1.51"/><path d="M1108,-4L1005,74L1123,72Z" fill="#92c47d" stroke="#92c47d" stroke-width="1.51"/><path d="M1204,-27L1108,-4L1123,72Z" fill="#91bf7b" stroke="#91bf7b" stroke-width="1.51"/><path d="M352,937L427,914L333,846Z" fill="#6fa767" stroke="#6fa767" stroke-width="1.51"/><path d="M244,927L352,937L333,846Z" fill="#76a96a" stroke="#76a96a" stroke-width="1.51"/><path d="M258,128L233,252L339,214Z" fill="#d3eea0" stroke="#d3eea0" stroke-width="1.51"/><path d="M143,485L177,599L233,497Z" fill="#a5d78c" stroke="#a5d78c" stroke-width="1.51"/><path d="M233,497L177,599L247,564Z" fill="#9fd487" stroke="#9fd487" stroke-width="1.51"/><path d="M258,128L339,214L345,128Z" fill="#d5efa1" stroke="#d5efa1" stroke-width="1.51"/><path d="M1208,82L1204,-27L1123,72Z" fill="#8dbc78" stroke="#8dbc78" stroke-width="1.51"/><path d="M1297,240L1266,130L1181,225Z" fill="#76af6b" stroke="#76af6b" stroke-width="1.51"/><path d="M1351,165L1266,130L1297,240Z" fill="#77ad6a" stroke="#77ad6a" stroke-width="1.51"/><path d="M753,-35L673,-120L679,-15Z" fill="#bde3a1" stroke="#bde3a1" stroke-width="1.51"/><path d="M583,-5L486,-39L572,57Z" fill="#cceaa1" stroke="#cceaa1" stroke-width="1.51"/><path d="M838,-107L779,-101L858,-9Z" fill="#b0db9b" stroke="#b0db9b" stroke-width="1.51"/><path d="M838,-107L858,-9L920,-112Z" fill="#aad898" stroke="#aad898" stroke-width="1.51"/><path d="M233,741L261,826L320,771Z" fill="#82b771" stroke="#82b771" stroke-width="1.51"/><path d="M1451,474L1446,423L1360,471Z" fill="#429155" stroke="#429155" stroke-width="1.51"/><path d="M1446,423L1382,317L1358,403Z" fill="#51985b" stroke="#51985b" stroke-width="1.51"/><path d="M1370,745L1268,666L1262,772Z" fill="#1c7d41" stroke="#1c7d41" stroke-width="1.51"/><path d="M164,421L261,410L240,310Z" fill="#bae396" stroke="#bae396" stroke-width="1.51"/><path d="M231,686L146,747L233,741Z" fill="#8cbf78" stroke="#8cbf78" stroke-width="1.51"/><path d="M233,741L158,843L261,826Z" fill="#84b672" stroke="#84b672" stroke-width="1.51"/><path d="M920,-112L858,-9L941,-47Z" fill="#a6d693" stroke="#a6d693" stroke-width="1.51"/><path d="M1358,403L1382,317L1288,335Z" fill="#599f5e" stroke="#599f5e" stroke-width="1.51"/><path d="M1446,423L1358,403L1360,471Z" fill="#479657" stroke="#479657" stroke-width="1.51"/><path d="M1366,821L1370,745L1262,772Z" fill="#14753d" stroke="#14753d" stroke-width="1.51"/><path d="M1186,937L1289,930L1260,841Z" fill="#0c703a" stroke="#0c703a" stroke-width="1.51"/><path d="M1109,1013L1191,990L1186,937Z" fill="#126c39" stroke="#126c39" stroke-width="1.51"/><path d="M515,-94L486,-39L583,-5Z" fill="#d1eca8" stroke="#d1eca8" stroke-width="1.51"/><path d="M1366,821L1262,772L1260,841Z" fill="#13753c" stroke="#13753c" stroke-width="1.51"/><path d="M147,328L164,421L240,310Z" fill="#c1e69a" stroke="#c1e69a" stroke-width="1.51"/><path d="M1009,-92L941,-47L1039,-38Z" fill="#9fcf8e" stroke="#9fcf8e" stroke-width="1.51"/><path d="M1009,-92L920,-112L941,-47Z" fill="#a2d393" stroke="#a2d393" stroke-width="1.51"/><path d="M920,-112L673,-120L838,-107Z" fill="#b2dda2" stroke="#b2dda2" stroke-width="1.51"/><path d="M838,-107L673,-120L779,-101Z" fill="#b7e0a5" stroke="#b7e0a5" stroke-width="1.51"/><path d="M779,-101L673,-120L753,-35Z" fill="#b9e1a3" stroke="#b9e1a3" stroke-width="1.51"/><path d="M1094,-98L1009,-92L1039,-38Z" fill="#9cca8c" stroke="#9cca8c" stroke-width="1.51"/><path d="M1094,-98L1039,-38L1108,-4Z" fill="#99c786" stroke="#99c786" stroke-width="1.51"/><path d="M177,599L163,665L231,686Z" fill="#94c97f" stroke="#94c97f" stroke-width="1.51"/><path d="M79,559L163,665L177,599Z" fill="#9cd186" stroke="#9cd186" stroke-width="1.51"/><path d="M673,-120L611,-108L679,-15Z" fill="#c3e6a7" stroke="#c3e6a7" stroke-width="1.51"/><path d="M412,-29L346,41L400,53Z" fill="#dcf1a7" stroke="#dcf1a7" stroke-width="1.51"/><path d="M400,53L346,41L345,128Z" fill="#d9f0a5" stroke="#d9f0a5" stroke-width="1.51"/><path d="M164,421L143,485L233,497Z" fill="#afdd92" stroke="#afdd92" stroke-width="1.51"/><path d="M1266,130L1264,71L1208,82Z" fill="#84b572" stroke="#84b572" stroke-width="1.51"/><path d="M1352,67L1264,71L1266,130Z" fill="#82b271" stroke="#82b271" stroke-width="1.51"/><path d="M176,236L147,328L240,310Z" fill="#cbea9e" stroke="#cbea9e" stroke-width="1.51"/><path d="M76,398L70,476L143,485Z" fill="#b7e097" stroke="#b7e097" stroke-width="1.51"/><path d="M346,41L258,128L345,128Z" fill="#dbf1a5" stroke="#dbf1a5" stroke-width="1.51"/><path d="M1191,990L1289,930L1186,937Z" fill="#0e6b38" stroke="#0e6b38" stroke-width="1.51"/><path d="M352,937L347,996L437,1008Z" fill="#6b9c62" stroke="#6b9c62" stroke-width="1.51"/><path d="M437,1008L347,996L492,1033Z" fill="#64965f" stroke="#64965f" stroke-width="1.51"/><path d="M244,927L347,996L352,937Z" fill="#72a366" stroke="#72a366" stroke-width="1.51"/><path d="M244,927L333,846L261,826Z" fill="#7bae6d" stroke="#7bae6d" stroke-width="1.51"/><path d="M1370,745L1449,647L1386,651Z" fill="#1c7c42" stroke="#1c7c42" stroke-width="1.51"/><path d="M1289,930L1366,821L1260,841Z" fill="#0c6f3a" stroke="#0c6f3a" stroke-width="1.51"/><path d="M346,41L242,42L258,128Z" fill="#e1f3a9" stroke="#e1f3a9" stroke-width="1.51"/><path d="M486,-39L412,-29L400,53Z" fill="#daf0a7" stroke="#daf0a7" stroke-width="1.51"/><path d="M428,-97L412,-29L486,-39Z" fill="#daf0ae" stroke="#daf0ae" stroke-width="1.51"/><path d="M1380,217L1351,165L1297,240Z" fill="#70a867" stroke="#70a867" stroke-width="1.51"/><path d="M1382,317L1380,217L1297,240Z" fill="#68a464" stroke="#68a464" stroke-width="1.51"/><path d="M428,-97L515,-94L611,-108Z" fill="#d3edb1" stroke="#d3edb1" stroke-width="1.51"/><path d="M611,-108L515,-94L583,-5Z" fill="#cceaaa" stroke="#cceaaa" stroke-width="1.51"/><path d="M1382,317L1448,228L1380,217Z" fill="#67a162" stroke="#67a162" stroke-width="1.51"/><path d="M1451,474L1360,471L1349,588Z" fill="#398f51" stroke="#398f51" stroke-width="1.51"/><path d="M1451,474L1349,588L1458,601Z" fill="#2f884c" stroke="#2f884c" stroke-width="1.51"/><path d="M1458,601L1349,588L1386,651Z" fill="#248548" stroke="#248548" stroke-width="1.51"/><path d="M176,236L240,310L233,252Z" fill="#cdeb9e" stroke="#cdeb9e" stroke-width="1.51"/><path d="M164,168L176,236L233,252Z" fill="#d5eea3" stroke="#d5eea3" stroke-width="1.51"/><path d="M1467,770L1449,647L1370,745Z" fill="#18753d" stroke="#18753d" stroke-width="1.51"/><path d="M1449,647L1458,601L1386,651Z" fill="#218045" stroke="#218045" stroke-width="1.51"/><path d="M1290,-19L1204,-27L1264,71Z" fill="#8cb877" stroke="#8cb877" stroke-width="1.51"/><path d="M1264,71L1204,-27L1208,82Z" fill="#8ab876" stroke="#8ab876" stroke-width="1.51"/><path d="M1009,-92L1094,-98L920,-112Z" fill="#9fce93" stroke="#9fce93" stroke-width="1.51"/><path d="M1204,-27L1094,-98L1108,-4Z" fill="#94c183" stroke="#94c183" stroke-width="1.51"/><path d="M163,665L146,747L231,686Z" fill="#90c37b" stroke="#90c37b" stroke-width="1.51"/><path d="M55,681L146,747L163,665Z" fill="#94c57e" stroke="#94c57e" stroke-width="1.51"/><path d="M158,843L244,927L261,826Z" fill="#7fb070" stroke="#7fb070" stroke-width="1.51"/><path d="M1446,423L1459,318L1382,317Z" fill="#56985b" stroke="#56985b" stroke-width="1.51"/><path d="M1466,147L1352,67L1351,165Z" fill="#79a96b" stroke="#79a96b" stroke-width="1.51"/><path d="M1557,397L1459,318L1446,423Z" fill="#4e9057" stroke="#4e9057" stroke-width="1.51"/><path d="M1531,493L1446,423L1451,474Z" fill="#3f8b52" stroke="#3f8b52" stroke-width="1.51"/><path d="M428,-97L333,-26L412,-29Z" fill="#dff2b0" stroke="#dff2b0" stroke-width="1.51"/><path d="M412,-29L333,-26L346,41Z" fill="#e1f3aa" stroke="#e1f3aa" stroke-width="1.51"/><path d="M258,128L164,168L233,252Z" fill="#d9f0a4" stroke="#d9f0a4" stroke-width="1.51"/><path d="M515,-94L428,-97L486,-39Z" fill="#d7eeaf" stroke="#d7eeaf" stroke-width="1.51"/><path d="M673,-120L428,-97L611,-108Z" fill="#cdeaaf" stroke="#cdeaaf" stroke-width="1.51"/><path d="M143,485L79,559L177,599Z" fill="#a6d78c" stroke="#a6d78c" stroke-width="1.51"/><path d="M70,476L79,559L143,485Z" fill="#aedc91" stroke="#aedc91" stroke-width="1.51"/><path d="M169,40L164,168L258,128Z" fill="#e3f4aa" stroke="#e3f4aa" stroke-width="1.51"/><path d="M78,220L55,321L147,328Z" fill="#d2eda3" stroke="#d2eda3" stroke-width="1.51"/><path d="M76,398L143,485L164,421Z" fill="#b8e197" stroke="#b8e197" stroke-width="1.51"/><path d="M146,747L158,843L233,741Z" fill="#89ba75" stroke="#89ba75" stroke-width="1.51"/><path d="M68,768L158,843L146,747Z" fill="#8cbb78" stroke="#8cbb78" stroke-width="1.51"/><path d="M76,398L164,421L147,328Z" fill="#c0e59a" stroke="#c0e59a" stroke-width="1.51"/><path d="M1204,-27L1204,-92L1094,-98Z" fill="#93bf85" stroke="#93bf85" stroke-width="1.51"/><path d="M1351,165L1352,67L1266,130Z" fill="#7daf6e" stroke="#7daf6e" stroke-width="1.51"/><path d="M1466,147L1351,165L1380,217Z" fill="#73a668" stroke="#73a668" stroke-width="1.51"/><path d="M169,40L242,42L174,-47Z" fill="#edf8b1" stroke="#edf8b1" stroke-width="1.51"/><path d="M333,-26L242,42L346,41Z" fill="#e4f4ab" stroke="#e4f4ab" stroke-width="1.51"/><path d="M1459,318L1448,228L1382,317Z" fill="#619c5f" stroke="#619c5f" stroke-width="1.51"/><path d="M55,321L76,398L147,328Z" fill="#c8e89f" stroke="#c8e89f" stroke-width="1.51"/><path d="M1289,930L1387,942L1366,821Z" fill="#036a37" stroke="#036a37" stroke-width="1.51"/><path d="M1366,821L1467,770L1370,745Z" fill="#11703b" stroke="#11703b" stroke-width="1.51"/><path d="M1191,990L1295,1026L1289,930Z" fill="#096636" stroke="#096636" stroke-width="1.51"/><path d="M1109,1013L1295,1026L1191,990Z" fill="#0f6636" stroke="#0f6636" stroke-width="1.51"/><path d="M931,1032L1295,1026L1109,1013Z" fill="#156b3a" stroke="#156b3a" stroke-width="1.51"/><path d="M1458,601L1531,493L1451,474Z" fill="#34864d" stroke="#34864d" stroke-width="1.51"/><path d="M1541,589L1531,493L1458,601Z" fill="#2c8048" stroke="#2c8048" stroke-width="1.51"/><path d="M1458,826L1467,770L1366,821Z" fill="#0d6c39" stroke="#0d6c39" stroke-width="1.51"/><path d="M1352,67L1290,-19L1264,71Z" fill="#86b374" stroke="#86b374" stroke-width="1.51"/><path d="M1094,-98L1262,-111L920,-112Z" fill="#9ac68e" stroke="#9ac68e" stroke-width="1.51"/><path d="M1262,-111L1204,-92L1204,-27Z" fill="#91bb83" stroke="#91bb83" stroke-width="1.51"/><path d="M1379,993L1387,942L1289,930Z" fill="#016335" stroke="#016335" stroke-width="1.51"/><path d="M1464,904L1458,826L1366,821Z" fill="#076837" stroke="#076837" stroke-width="1.51"/><path d="M1458,601L1449,647L1542,657Z" fill="#1f7a43" stroke="#1f7a43" stroke-width="1.51"/><path d="M1541,589L1458,601L1542,657Z" fill="#217a43" stroke="#217a43" stroke-width="1.51"/><path d="M1522,154L1466,147L1448,228Z" fill="#709e65" stroke="#709e65" stroke-width="1.51"/><path d="M165,935L226,1001L244,927Z" fill="#7aa66b" stroke="#7aa66b" stroke-width="1.51"/><path d="M244,927L226,1001L347,996Z" fill="#75a167" stroke="#75a167" stroke-width="1.51"/><path d="M347,996L226,1001L492,1033Z" fill="#6b9962" stroke="#6b9962" stroke-width="1.51"/><path d="M79,559L55,681L163,665Z" fill="#9ccf85" stroke="#9ccf85" stroke-width="1.51"/><path d="M158,843L165,935L244,927Z" fill="#7fad6f" stroke="#7fad6f" stroke-width="1.51"/><path d="M-6,656L55,681L79,559Z" fill="#9fd08a" stroke="#9fd08a" stroke-width="1.51"/><path d="M82,915L165,935L158,843Z" fill="#83af72" stroke="#83af72" stroke-width="1.51"/><path d="M70,476L-12,505L79,559Z" fill="#afdc95" stroke="#afdc95" stroke-width="1.51"/><path d="M-17,388L-12,505L70,476Z" fill="#b9e19e" stroke="#b9e19e" stroke-width="1.51"/><path d="M78,220L147,328L176,236Z" fill="#d3eea3" stroke="#d3eea3" stroke-width="1.51"/><path d="M78,220L176,236L164,168Z" fill="#dbf0a6" stroke="#dbf0a6" stroke-width="1.51"/><path d="M1542,657L1449,647L1530,742Z" fill="#1a733e" stroke="#1a733e" stroke-width="1.51"/><path d="M1387,942L1464,904L1366,821Z" fill="#026637" stroke="#026637" stroke-width="1.51"/><path d="M1295,1026L1379,993L1289,930Z" fill="#046135" stroke="#046135" stroke-width="1.51"/><path d="M55,681L68,768L146,747Z" fill="#93c17c" stroke="#93c17c" stroke-width="1.51"/><path d="M65,136L78,220L164,168Z" fill="#e2f4aa" stroke="#e2f4aa" stroke-width="1.51"/><path d="M1530,742L1449,647L1467,770Z" fill="#17703c" stroke="#17703c" stroke-width="1.51"/><path d="M1530,742L1467,770L1533,843Z" fill="#0f6737" stroke="#0f6737" stroke-width="1.51"/><path d="M1542,229L1448,228L1459,318Z" fill="#639960" stroke="#639960" stroke-width="1.51"/><path d="M1448,228L1466,147L1380,217Z" fill="#6ea165" stroke="#6ea165" stroke-width="1.51"/><path d="M1355,-40L1262,-111L1290,-19Z" fill="#8bb57f" stroke="#8bb57f" stroke-width="1.51"/><path d="M242,42L169,40L258,128Z" fill="#e5f5ac" stroke="#e5f5ac" stroke-width="1.51"/><path d="M244,-47L242,42L333,-26Z" fill="#e9f7b0" stroke="#e9f7b0" stroke-width="1.51"/><path d="M1533,843L1467,770L1458,826Z" fill="#0b6736" stroke="#0b6736" stroke-width="1.51"/><path d="M1542,657L1557,397L1541,589Z" fill="#2e7e48" stroke="#2e7e48" stroke-width="1.51"/><path d="M1541,589L1557,397L1531,493Z" fill="#38824d" stroke="#38824d" stroke-width="1.51"/><path d="M1531,493L1557,397L1446,423Z" fill="#438a53" stroke="#438a53" stroke-width="1.51"/><path d="M310,-108L244,-47L333,-26Z" fill="#e9f6b6" stroke="#e9f6b6" stroke-width="1.51"/><path d="M428,-97L310,-108L333,-26Z" fill="#e3f4b5" stroke="#e3f4b5" stroke-width="1.51"/><path d="M673,-120L310,-108L428,-97Z" fill="#d9efb4" stroke="#d9efb4" stroke-width="1.51"/><path d="M1290,-19L1262,-111L1204,-27Z" fill="#8eb97f" stroke="#8eb97f" stroke-width="1.51"/><path d="M1204,-92L1262,-111L1094,-98Z" fill="#93be88" stroke="#93be88" stroke-width="1.51"/><path d="M920,-112L1453,-129L673,-120Z" fill="#9fcd95" stroke="#9fcd95" stroke-width="1.51"/><path d="M1355,-40L1290,-19L1352,67Z" fill="#88b375" stroke="#88b375" stroke-width="1.51"/><path d="M1434,1010L1464,904L1387,942Z" fill="#005d32" stroke="#005d32" stroke-width="1.51"/><path d="M79,990L171,1001L165,935Z" fill="#7ea56d" stroke="#7ea56d" stroke-width="1.51"/><path d="M165,935L171,1001L226,1001Z" fill="#7aa36b" stroke="#7aa36b" stroke-width="1.51"/><path d="M226,1001L171,1001L492,1033Z" fill="#719c64" stroke="#719c64" stroke-width="1.51"/><path d="M1452,46L1355,-40L1352,67Z" fill="#83ae72" stroke="#83ae72" stroke-width="1.51"/><path d="M1557,397L1558,320L1459,318Z" fill="#548f58" stroke="#548f58" stroke-width="1.51"/><path d="M-17,388L70,476L76,398Z" fill="#bee39d" stroke="#bee39d" stroke-width="1.51"/><path d="M4,752L57,844L68,768Z" fill="#90bc7d" stroke="#90bc7d" stroke-width="1.51"/><path d="M-17,388L76,398L55,321Z" fill="#c7e7a2" stroke="#c7e7a2" stroke-width="1.51"/><path d="M68,768L57,844L158,843Z" fill="#8cb878" stroke="#8cb878" stroke-width="1.51"/><path d="M4,752L68,768L55,681Z" fill="#95c280" stroke="#95c280" stroke-width="1.51"/><path d="M1558,320L1542,229L1459,318Z" fill="#5d945c" stroke="#5d945c" stroke-width="1.51"/><path d="M1466,147L1452,46L1352,67Z" fill="#7ca86c" stroke="#7ca86c" stroke-width="1.51"/><path d="M-28,590L-6,656L79,559Z" fill="#a2d490" stroke="#a2d490" stroke-width="1.51"/><path d="M1541,70L1452,46L1466,147Z" fill="#79a26a" stroke="#79a26a" stroke-width="1.51"/><path d="M310,-108L256,-103L244,-47Z" fill="#ecf8bb" stroke="#ecf8bb" stroke-width="1.51"/><path d="M244,-47L174,-47L242,42Z" fill="#edf8b3" stroke="#edf8b3" stroke-width="1.51"/><path d="M57,844L82,915L158,843Z" fill="#87b375" stroke="#87b375" stroke-width="1.51"/><path d="M-12,505L-28,590L79,559Z" fill="#aad994" stroke="#aad994" stroke-width="1.51"/><path d="M-36,338L-17,388L55,321Z" fill="#cbe9a7" stroke="#cbe9a7" stroke-width="1.51"/><path d="M-36,338L55,321L-22,216Z" fill="#d5eeab" stroke="#d5eeab" stroke-width="1.51"/><path d="M169,40L65,136L164,168Z" fill="#e8f6ad" stroke="#e8f6ad" stroke-width="1.51"/><path d="M73,46L65,136L169,40Z" fill="#eef8b2" stroke="#eef8b2" stroke-width="1.51"/><path d="M1542,657L1561,992L1557,397Z" fill="#196f3d" stroke="#196f3d" stroke-width="1.51"/><path d="M1530,742L1533,843L1542,657Z" fill="#136838" stroke="#136838" stroke-width="1.51"/><path d="M1464,904L1533,843L1458,826Z" fill="#066235" stroke="#066235" stroke-width="1.51"/><path d="M1527,905L1533,843L1464,904Z" fill="#025e33" stroke="#025e33" stroke-width="1.51"/><path d="M1379,993L1434,1010L1387,942Z" fill="#005c32" stroke="#005c32" stroke-width="1.51"/><path d="M1295,1026L1434,1010L1379,993Z" fill="#005b32" stroke="#005b32" stroke-width="1.51"/><path d="M1542,229L1522,154L1448,228Z" fill="#6b9b62" stroke="#6b9b62" stroke-width="1.51"/><path d="M-95,560L-28,590L-12,505Z" fill="#acd99a" stroke="#acd99a" stroke-width="1.51"/><path d="M-24,906L79,990L82,915Z" fill="#85ac75" stroke="#85ac75" stroke-width="1.51"/><path d="M-6,656L4,752L55,681Z" fill="#99c786" stroke="#99c786" stroke-width="1.51"/><path d="M-99,766L4,752L-6,656Z" fill="#97c489" stroke="#97c489" stroke-width="1.51"/><path d="M256,-103L174,-47L244,-47Z" fill="#eff9ba" stroke="#eff9ba" stroke-width="1.51"/><path d="M1561,992L1527,905L1464,904Z" fill="#005830" stroke="#005830" stroke-width="1.51"/><path d="M-113,409L-95,508L-12,505Z" fill="#b8e0a5" stroke="#b8e0a5" stroke-width="1.51"/><path d="M-22,216L55,321L78,220Z" fill="#daf0aa" stroke="#daf0aa" stroke-width="1.51"/><path d="M1452,46L1439,-35L1355,-40Z" fill="#85ac74" stroke="#85ac74" stroke-width="1.51"/><path d="M1355,-40L1387,-106L1262,-111Z" fill="#8bb381" stroke="#8bb381" stroke-width="1.51"/><path d="M1559,-21L1439,-35L1452,46Z" fill="#82a570" stroke="#82a570" stroke-width="1.51"/><path d="M65,136L-22,216L78,220Z" fill="#e3f4ae" stroke="#e3f4ae" stroke-width="1.51"/><path d="M73,-14L73,46L169,40Z" fill="#f2fab6" stroke="#f2fab6" stroke-width="1.51"/><path d="M-5,857L82,915L57,844Z" fill="#8ab479" stroke="#8ab479" stroke-width="1.51"/><path d="M82,915L79,990L165,935Z" fill="#82aa71" stroke="#82aa71" stroke-width="1.51"/><path d="M1439,-35L1387,-106L1355,-40Z" fill="#87af7c" stroke="#87af7c" stroke-width="1.51"/><path d="M-20,128L-22,216L65,136Z" fill="#e8f6b3" stroke="#e8f6b3" stroke-width="1.51"/><path d="M4,752L-5,857L57,844Z" fill="#8eb97e" stroke="#8eb97e" stroke-width="1.51"/><path d="M-24,906L-5,857L-92,817Z" fill="#8cb681" stroke="#8cb681" stroke-width="1.51"/><path d="M1439,-35L1453,-129L1387,-106Z" fill="#86ac7e" stroke="#86ac7e" stroke-width="1.51"/><path d="M1522,154L1541,70L1466,147Z" fill="#759e67" stroke="#759e67" stroke-width="1.51"/><path d="M1542,229L1541,70L1522,154Z" fill="#719b64" stroke="#719b64" stroke-width="1.51"/><path d="M1559,-21L1541,70L1542,229Z" fill="#769c67" stroke="#769c67" stroke-width="1.51"/><path d="M-113,409L-12,505L-17,388Z" fill="#bee3a5" stroke="#bee3a5" stroke-width="1.51"/><path d="M-28,590L-123,676L-6,656Z" fill="#a0d092" stroke="#a0d092" stroke-width="1.51"/><path d="M-113,409L-17,388L-36,338Z" fill="#c8e8aa" stroke="#c8e8aa" stroke-width="1.51"/><path d="M-95,508L-95,560L-12,505Z" fill="#b0dc9f" stroke="#b0dc9f" stroke-width="1.51"/><path d="M51,-98L73,-14L174,-47Z" fill="#f7fcbf" stroke="#f7fcbf" stroke-width="1.51"/><path d="M174,-47L73,-14L169,40Z" fill="#f3fab6" stroke="#f3fab6" stroke-width="1.51"/><path d="M73,46L-20,128L65,136Z" fill="#edf8b4" stroke="#edf8b4" stroke-width="1.51"/><path d="M256,-103L156,-120L174,-47Z" fill="#f1fabf" stroke="#f1fabf" stroke-width="1.51"/><path d="M310,-108L156,-120L256,-103Z" fill="#eff9c0" stroke="#eff9c0" stroke-width="1.51"/><path d="M673,-120L156,-120L310,-108Z" fill="#e2f3ba" stroke="#e2f3ba" stroke-width="1.51"/><path d="M-31,61L-20,128L73,46Z" fill="#f1fab9" stroke="#f1fab9" stroke-width="1.51"/><path d="M-117,301L-113,409L-36,338Z" fill="#cdeab0" stroke="#cdeab0" stroke-width="1.51"/><path d="M-5,857L-24,906L82,915Z" fill="#88b27b" stroke="#88b27b" stroke-width="1.51"/><path d="M-92,817L-5,857L4,752Z" fill="#90ba83" stroke="#90ba83" stroke-width="1.51"/><path d="M-95,508L-123,676L-95,560Z" fill="#a8d79d" stroke="#a8d79d" stroke-width="1.51"/><path d="M-117,301L-36,338L-22,216Z" fill="#d7efb2" stroke="#d7efb2" stroke-width="1.51"/><path d="M1434,1010L1561,992L1464,904Z" fill="#005730" stroke="#005730" stroke-width="1.51"/><path d="M1527,905L1561,992L1533,843Z" fill="#005931" stroke="#005931" stroke-width="1.51"/><path d="M1533,843L1561,992L1542,657Z" fill="#096034" stroke="#096034" stroke-width="1.51"/><path d="M1557,397L1561,992L1558,320Z" fill="#297b46" stroke="#297b46" stroke-width="1.51"/><path d="M-123,676L-99,766L-6,656Z" fill="#9ac78f" stroke="#9ac78f" stroke-width="1.51"/><path d="M-123,676L-28,590L-95,560Z" fill="#a4d498" stroke="#a4d498" stroke-width="1.51"/><path d="M1524,-101L1453,-129L1439,-35Z" fill="#85a87c" stroke="#85a87c" stroke-width="1.51"/><path d="M1387,-106L1453,-129L1262,-111Z" fill="#89b184" stroke="#89b184" stroke-width="1.51"/><path d="M1262,-111L1453,-129L920,-112Z" fill="#92bc8a" stroke="#92bc8a" stroke-width="1.51"/><path d="M673,-120L-2,-122L156,-120Z" fill="#ecf8bf" stroke="#ecf8bf" stroke-width="1.51"/><path d="M-113,409L-123,676L-95,508Z" fill="#b0dca3" stroke="#b0dca3" stroke-width="1.51"/><path d="M-113,409L-122,249L-123,676Z" fill="#bde3ac" stroke="#bde3ac" stroke-width="1.51"/><path d="M-122,249L-117,301L-22,216Z" fill="#dcf0b6" stroke="#dcf0b6" stroke-width="1.51"/><path d="M-97,909L-92,817L-99,766Z" fill="#8fb888" stroke="#8fb888" stroke-width="1.51"/><path d="M-99,766L-92,817L4,752Z" fill="#93be87" stroke="#93be87" stroke-width="1.51"/><path d="M-111,149L-122,249L-22,216Z" fill="#e3f4ba" stroke="#e3f4ba" stroke-width="1.51"/><path d="M-1,-21L-31,61L73,46Z" fill="#f5fbbd" stroke="#f5fbbd" stroke-width="1.51"/><path d="M-1,-21L73,46L73,-14Z" fill="#f7fbbb" stroke="#f7fbbb" stroke-width="1.51"/><path d="M1541,70L1559,-21L1452,46Z" fill="#7da16d" stroke="#7da16d" stroke-width="1.51"/><path d="M1558,320L1559,-21L1542,229Z" fill="#6d9762" stroke="#6d9762" stroke-width="1.51"/><path d="M1561,992L1559,-21L1558,320Z" fill="#438652" stroke="#438652" stroke-width="1.51"/><path d="M-117,301L-122,249L-113,409Z" fill="#d2edb5" stroke="#d2edb5" stroke-width="1.51"/><path d="M-111,149L-22,216L-20,128Z" fill="#e8f6b9" stroke="#e8f6b9" stroke-width="1.51"/><path d="M-112,73L-111,149L-20,128Z" fill="#eef8bf" stroke="#eef8bf" stroke-width="1.51"/><path d="M51,-98L-1,-21L73,-14Z" fill="#f9fcc2" stroke="#f9fcc2" stroke-width="1.51"/><path d="M156,-120L51,-98L174,-47Z" fill="#f6fcc3" stroke="#f6fcc3" stroke-width="1.51"/><path d="M1559,-21L1524,-101L1439,-35Z" fill="#82a476" stroke="#82a476" stroke-width="1.51"/><path d="M-97,909L-31,1014L-24,906Z" fill="#87ac7e" stroke="#87ac7e" stroke-width="1.51"/><path d="M-24,906L-31,1014L79,990Z" fill="#84a877" stroke="#84a877" stroke-width="1.51"/><path d="M79,990L-31,1014L171,1001Z" fill="#81a36f" stroke="#81a36f" stroke-width="1.51"/><path d="M171,1001L-108,1030L492,1033Z" fill="#789e69" stroke="#789e69" stroke-width="1.51"/><path d="M-112,73L-20,128L-31,61Z" fill="#f1fabf" stroke="#f1fabf" stroke-width="1.51"/><path d="M-92,817L-97,909L-24,906Z" fill="#8bb484" stroke="#8bb484" stroke-width="1.51"/><path d="M-123,676L-97,909L-99,766Z" fill="#93bd8b" stroke="#93bd8b" stroke-width="1.51"/><path d="M-119,-30L-112,73L-31,61Z" fill="#f6fcc6" stroke="#f6fcc6" stroke-width="1.51"/><path d="M-111,149L-112,73L-122,249Z" fill="#eaf7c0" stroke="#eaf7c0" stroke-width="1.51"/><path d="M-119,-30L-31,61L-1,-21Z" fill="#f9fcc5" stroke="#f9fcc5" stroke-width="1.51"/><path d="M51,-98L-2,-122L-1,-21Z" fill="#fafdca" stroke="#fafdca" stroke-width="1.51"/><path d="M156,-120L-2,-122L51,-98Z" fill="#fafdca" stroke="#fafdca" stroke-width="1.51"/><path d="M1453,-129L-2,-122L673,-120Z" fill="#bee3aa" stroke="#bee3aa" stroke-width="1.51"/><path d="M-97,909L-108,1030L-31,1014Z" fill="#84a77e" stroke="#84a77e" stroke-width="1.51"/><path d="M-31,1014L-108,1030L171,1001Z" fill="#81a275" stroke="#81a275" stroke-width="1.51"/><path d="M-123,676L-108,1030L-97,909Z" fill="#8cb588" stroke="#8cb588" stroke-width="1.51"/><path d="M-81,-100L-119,-30L-1,-21Z" fill="#fbfdce" stroke="#fbfdce" stroke-width="1.51"/><path d="M-112,73L-119,-30L-122,249Z" fill="#f1fac5" stroke="#f1fac5" stroke-width="1.51"/><path d="M-2,-122L-81,-100L-1,-21Z" fill="#fbfdce" stroke="#fbfdce" stroke-width="1.51"/></svg>