<svg xmlns="http://www.w3.org/2000/svg" width="1440" height="900"><path d="M751,474L768,559L829,481Z" fill="#65bc6e" stroke="#65bc6e" stroke-width="1.51"/><path d="M768,559L853,595L829,481Z" fill="#5ab668" stroke="#5ab668" stroke-width="1.51"/><path d="M751,474L667,514L768,559Z" fill="#69be70" stroke="#69be70" stroke-width="1.51"/><path d="M829,481L755,394L751,474Z" fill="#6ec072" stroke="#6ec072" stroke-width="1.51"/><path d="M751,474L686,388L667,514Z" fill="#75c577" stroke="#75c577" stroke-width="1.51"/><path d="M768,559L776,644L853,595Z" fill="#53b365" stroke="#53b365" stroke-width="1.51"/><path d="M670,598L776,644L768,559Z" fill="#5ab668" stroke="#5ab668" stroke-width="1.51"/><path d="M829,481L871,403L755,394Z" fill="#6dc073" stroke="#6dc073" stroke-width="1.51"/><path d="M932,481L871,403L829,481Z" fill="#62ba6c" stroke="#62ba6c" stroke-width="1.51"/><path d="M667,514L670,598L768,559Z" fill="#65bc6e" stroke="#65bc6e" stroke-width="1.51"/><path d="M853,595L932,481L829,481Z" fill="#58b567" stroke="#58b567" stroke-width="1.51"/><path d="M755,394L686,388L751,474Z" fill="#78c679" stroke="#78c679" stroke-width="1.51"/><path d="M680,332L686,388L755,394Z" fill="#82ca80" stroke="#82ca80" stroke-width="1.51"/><path d="M776,644L854,662L853,595Z" fill="#4cae60" stroke="#4cae60" stroke-width="1.51"/><path d="M853,595L953,578L932,481Z" fill="#4db162" stroke="#4db162" stroke-width="1.51"/><path d="M933,684L953,578L853,595Z" fill="#43aa5d" stroke="#43aa5d" stroke-width="1.51"/><path d="M670,598L675,651L776,644Z" fill="#5bb568" stroke="#5bb568" stroke-width="1.51"/><path d="M776,644L851,750L854,662Z" fill="#48a85d" stroke="#48a85d" stroke-width="1.51"/><path d="M932,481L952,422L871,403Z" fill="#61b96c" stroke="#61b96c" stroke-width="1.51"/><path d="M1025,477L952,422L932,481Z" fill="#58b466" stroke="#58b466" stroke-width="1.51"/><path d="M850,304L766,315L755,394Z" fill="#7ec87f" stroke="#7ec87f" stroke-width="1.51"/><path d="M850,304L755,394L871,403Z" fill="#76c47a" stroke="#76c47a" stroke-width="1.51"/><path d="M670,598L597,590L675,651Z" fill="#64b96e" stroke="#64b96e" stroke-width="1.51"/><path d="M667,514L597,590L670,598Z" fill="#6abe73" stroke="#6abe73" stroke-width="1.51"/><path d="M574,482L597,590L667,514Z" fill="#74c378" stroke="#74c378" stroke-width="1.51"/><path d="M569,421L574,482L667,514Z" fill="#7dc87e" stroke="#7dc87e" stroke-width="1.51"/><path d="M766,315L680,332L755,394Z" fill="#82ca81" stroke="#82ca81" stroke-width="1.51"/><path d="M569,421L667,514L686,388Z" fill="#7ec97e" stroke="#7ec97e" stroke-width="1.51"/><path d="M944,337L850,304L871,403Z" fill="#72c278" stroke="#72c278" stroke-width="1.51"/><path d="M854,662L933,684L853,595Z" fill="#44a95c" stroke="#44a95c" stroke-width="1.51"/><path d="M851,750L933,684L854,662Z" fill="#40a458" stroke="#40a458" stroke-width="1.51"/><path d="M953,578L1025,477L932,481Z" fill="#4fb062" stroke="#4fb062" stroke-width="1.51"/><path d="M933,684L1006,582L953,578Z" fill="#3ea75a" stroke="#3ea75a" stroke-width="1.51"/><path d="M952,422L944,337L871,403Z" fill="#68bd72" stroke="#68bd72" stroke-width="1.51"/><path d="M1042,399L944,337L952,422Z" fill="#63b86f" stroke="#63b86f" stroke-width="1.51"/><path d="M610,314L569,421L686,388Z" fill="#8acf87" stroke="#8acf87" stroke-width="1.51"/><path d="M1006,582L1025,477L953,578Z" fill="#48ab5e" stroke="#48ab5e" stroke-width="1.51"/><path d="M675,651L743,751L776,644Z" fill="#54ae62" stroke="#54ae62" stroke-width="1.51"/><path d="M664,771L743,751L675,651Z" fill="#54ac61" stroke="#54ac61" stroke-width="1.51"/><path d="M743,751L851,750L776,644Z" fill="#4aa75c" stroke="#4aa75c" stroke-width="1.51"/><path d="M597,590L572,660L675,651Z" fill="#65b970" stroke="#65b970" stroke-width="1.51"/><path d="M515,587L572,660L597,590Z" fill="#6dbe76" stroke="#6dbe76" stroke-width="1.51"/><path d="M515,587L597,590L574,482Z" fill="#75c37b" stroke="#75c37b" stroke-width="1.51"/><path d="M680,332L610,314L686,388Z" fill="#8bcf88" stroke="#8bcf88" stroke-width="1.51"/><path d="M693,225L610,314L680,332Z" fill="#92d28e" stroke="#92d28e" stroke-width="1.51"/><path d="M693,225L680,332L766,315Z" fill="#8dd08a" stroke="#8dd08a" stroke-width="1.51"/><path d="M850,304L837,249L766,315Z" fill="#82ca84" stroke="#82ca84" stroke-width="1.51"/><path d="M927,213L837,249L850,304Z" fill="#81c885" stroke="#81c885" stroke-width="1.51"/><path d="M837,249L776,243L766,315Z" fill="#88cc87" stroke="#88cc87" stroke-width="1.51"/><path d="M1025,477L1042,399L952,422Z" fill="#5ab367" stroke="#5ab367" stroke-width="1.51"/><path d="M944,337L927,213L850,304Z" fill="#79c57f" stroke="#79c57f" stroke-width="1.51"/><path d="M1088,475L1042,399L1025,477Z" fill="#55af63" stroke="#55af63" stroke-width="1.51"/><path d="M500,484L515,587L574,482Z" fill="#7ec881" stroke="#7ec881" stroke-width="1.51"/><path d="M582,751L664,771L675,651Z" fill="#5aae66" stroke="#5aae66" stroke-width="1.51"/><path d="M743,751L742,823L851,750Z" fill="#46a258" stroke="#46a258" stroke-width="1.51"/><path d="M569,421L500,484L574,482Z" fill="#84cc83" stroke="#84cc83" stroke-width="1.51"/><path d="M490,414L500,484L569,421Z" fill="#8bce88" stroke="#8bce88" stroke-width="1.51"/><path d="M933,684L1037,662L1006,582Z" fill="#3aa256" stroke="#3aa256" stroke-width="1.51"/><path d="M1006,582L1088,475L1025,477Z" fill="#4bab5e" stroke="#4bab5e" stroke-width="1.51"/><path d="M1035,735L1037,662L933,684Z" fill="#349c52" stroke="#349c52" stroke-width="1.51"/><path d="M851,750L940,765L933,684Z" fill="#389e54" stroke="#389e54" stroke-width="1.51"/><path d="M916,824L940,765L851,750Z" fill="#359a50" stroke="#359a50" stroke-width="1.51"/><path d="M762,154L693,225L776,243Z" fill="#94d292" stroke="#94d292" stroke-width="1.51"/><path d="M776,243L693,225L766,315Z" fill="#8ecf8b" stroke="#8ecf8b" stroke-width="1.51"/><path d="M1127,579L1088,475L1006,582Z" fill="#42a55a" stroke="#42a55a" stroke-width="1.51"/><path d="M511,333L490,414L569,421Z" fill="#92d28e" stroke="#92d28e" stroke-width="1.51"/><path d="M511,333L569,421L610,314Z" fill="#93d28f" stroke="#93d28f" stroke-width="1.51"/><path d="M664,771L742,823L743,751Z" fill="#4da45b" stroke="#4da45b" stroke-width="1.51"/><path d="M664,771L688,860L742,823Z" fill="#4ca159" stroke="#4ca159" stroke-width="1.51"/><path d="M572,660L582,751L675,651Z" fill="#61b46c" stroke="#61b46c" stroke-width="1.51"/><path d="M522,756L582,751L572,660Z" fill="#64b26d" stroke="#64b26d" stroke-width="1.51"/><path d="M742,823L847,831L851,750Z" fill="#3f9d54" stroke="#3f9d54" stroke-width="1.51"/><path d="M1042,399L1043,307L944,337Z" fill="#68b972" stroke="#68b972" stroke-width="1.51"/><path d="M1124,327L1043,307L1042,399Z" fill="#65b56e" stroke="#65b56e" stroke-width="1.51"/><path d="M519,248L511,333L610,314Z" fill="#9dd797" stroke="#9dd797" stroke-width="1.51"/><path d="M1009,213L927,213L944,337Z" fill="#78c37f" stroke="#78c37f" stroke-width="1.51"/><path d="M837,249L762,154L776,243Z" fill="#8ecf8e" stroke="#8ecf8e" stroke-width="1.51"/><path d="M693,225L596,237L610,314Z" fill="#99d595" stroke="#99d595" stroke-width="1.51"/><path d="M1037,662L1127,579L1006,582Z" fill="#39a155" stroke="#39a155" stroke-width="1.51"/><path d="M940,765L1035,735L933,684Z" fill="#339b51" stroke="#339b51" stroke-width="1.51"/><path d="M1016,835L1035,735L940,765Z" fill="#2c944b" stroke="#2c944b" stroke-width="1.51"/><path d="M847,831L916,824L851,750Z" fill="#389950" stroke="#389950" stroke-width="1.51"/><path d="M515,587L495,684L572,660Z" fill="#6ebc76" stroke="#6ebc76" stroke-width="1.51"/><path d="M438,565L495,684L515,587Z" fill="#75c27d" stroke="#75c27d" stroke-width="1.51"/><path d="M438,565L515,587L500,484Z" fill="#7fc782" stroke="#7fc782" stroke-width="1.51"/><path d="M1088,475L1110,402L1042,399Z" fill="#58ae64" stroke="#58ae64" stroke-width="1.51"/><path d="M1187,497L1110,402L1088,475Z" fill="#4fa85e" stroke="#4fa85e" stroke-width="1.51"/><path d="M1108,680L1127,579L1037,662Z" fill="#339b51" stroke="#339b51" stroke-width="1.51"/><path d="M397,507L438,565L500,484Z" fill="#86cb88" stroke="#86cb88" stroke-width="1.51"/><path d="M430,405L500,484L490,414Z" fill="#90d18d" stroke="#90d18d" stroke-width="1.51"/><path d="M693,225L668,159L596,237Z" fill="#9dd799" stroke="#9dd799" stroke-width="1.51"/><path d="M861,137L762,154L837,249Z" fill="#90cf91" stroke="#90cf91" stroke-width="1.51"/><path d="M585,823L688,860L664,771Z" fill="#52a45e" stroke="#52a45e" stroke-width="1.51"/><path d="M495,684L522,756L572,660Z" fill="#69b671" stroke="#69b671" stroke-width="1.51"/><path d="M421,758L522,756L495,684Z" fill="#6bb572" stroke="#6bb572" stroke-width="1.51"/><path d="M742,823L759,928L847,831Z" fill="#3f9850" stroke="#3f9850" stroke-width="1.51"/><path d="M949,924L1016,835L916,824Z" fill="#288e46" stroke="#288e46" stroke-width="1.51"/><path d="M585,823L664,771L582,751Z" fill="#59a964" stroke="#59a964" stroke-width="1.51"/><path d="M1035,735L1108,680L1037,662Z" fill="#30984f" stroke="#30984f" stroke-width="1.51"/><path d="M762,154L668,159L693,225Z" fill="#9cd698" stroke="#9cd698" stroke-width="1.51"/><path d="M1043,307L1009,213L944,337Z" fill="#72be79" stroke="#72be79" stroke-width="1.51"/><path d="M927,213L861,137L837,249Z" fill="#88cb8b" stroke="#88cb8b" stroke-width="1.51"/><path d="M1122,244L1009,213L1043,307Z" fill="#73bb7a" stroke="#73bb7a" stroke-width="1.51"/><path d="M522,756L585,823L582,751Z" fill="#5fac68" stroke="#5fac68" stroke-width="1.51"/><path d="M511,333L430,405L490,414Z" fill="#97d493" stroke="#97d493" stroke-width="1.51"/><path d="M399,315L430,405L511,333Z" fill="#9fd899" stroke="#9fd899" stroke-width="1.51"/><path d="M519,248L610,314L596,237Z" fill="#9ed799" stroke="#9ed799" stroke-width="1.51"/><path d="M489,152L519,248L596,237Z" fill="#a9dca3" stroke="#a9dca3" stroke-width="1.51"/><path d="M952,162L861,137L927,213Z" fill="#87cb8c" stroke="#87cb8c" stroke-width="1.51"/><path d="M696,45L600,138L668,159Z" fill="#a9dba4" stroke="#a9dba4" stroke-width="1.51"/><path d="M1176,339L1124,327L1110,402Z" fill="#5faf69" stroke="#5faf69" stroke-width="1.51"/><path d="M1110,402L1124,327L1042,399Z" fill="#5eb169" stroke="#5eb169" stroke-width="1.51"/><path d="M1009,213L952,162L927,213Z" fill="#80c686" stroke="#80c686" stroke-width="1.51"/><path d="M430,405L397,507L500,484Z" fill="#8ed08c" stroke="#8ed08c" stroke-width="1.51"/><path d="M438,565L407,681L495,684Z" fill="#76bf7d" stroke="#76bf7d" stroke-width="1.51"/><path d="M1035,735L1127,767L1108,680Z" fill="#2a924a" stroke="#2a924a" stroke-width="1.51"/><path d="M916,824L1016,835L940,765Z" fill="#2c944b" stroke="#2c944b" stroke-width="1.51"/><path d="M949,924L916,824L847,831Z" fill="#2e924a" stroke="#2e924a" stroke-width="1.51"/><path d="M1127,579L1187,497L1088,475Z" fill="#44a359" stroke="#44a359" stroke-width="1.51"/><path d="M1192,579L1187,497L1127,579Z" fill="#3c9e54" stroke="#3c9e54" stroke-width="1.51"/><path d="M1179,652L1192,579L1127,579Z" fill="#329a50" stroke="#329a50" stroke-width="1.51"/><path d="M1179,652L1127,579L1108,680Z" fill="#30984f" stroke="#30984f" stroke-width="1.51"/><path d="M339,560L407,681L438,565Z" fill="#7ec685" stroke="#7ec685" stroke-width="1.51"/><path d="M522,756L490,854L585,823Z" fill="#5faa67" stroke="#5faa67" stroke-width="1.51"/><path d="M1204,739L1179,652L1108,680Z" fill="#299049" stroke="#299049" stroke-width="1.51"/><path d="M696,45L668,159L762,154Z" fill="#a3d89f" stroke="#a3d89f" stroke-width="1.51"/><path d="M668,159L600,138L596,237Z" fill="#a4daa0" stroke="#a4daa0" stroke-width="1.51"/><path d="M688,860L759,928L742,823Z" fill="#449a52" stroke="#449a52" stroke-width="1.51"/><path d="M673,918L759,928L688,860Z" fill="#459851" stroke="#459851" stroke-width="1.51"/><path d="M585,908L688,860L585,823Z" fill="#52a15c" stroke="#52a15c" stroke-width="1.51"/><path d="M585,908L673,918L688,860Z" fill="#4c9c56" stroke="#4c9c56" stroke-width="1.51"/><path d="M1209,413L1176,339L1110,402Z" fill="#59ab64" stroke="#59ab64" stroke-width="1.51"/><path d="M1124,327L1122,244L1043,307Z" fill="#6bb673" stroke="#6bb673" stroke-width="1.51"/><path d="M1009,213L1020,134L952,162Z" fill="#82c587" stroke="#82c587" stroke-width="1.51"/><path d="M1109,835L1127,767L1035,735Z" fill="#258d46" stroke="#258d46" stroke-width="1.51"/><path d="M759,928L828,935L847,831Z" fill="#38934b" stroke="#38934b" stroke-width="1.51"/><path d="M1176,339L1122,244L1124,327Z" fill="#67b26f" stroke="#67b26f" stroke-width="1.51"/><path d="M1262,393L1209,413L1291,474Z" fill="#4da15a" stroke="#4da15a" stroke-width="1.51"/><path d="M1187,497L1209,413L1110,402Z" fill="#50a75d" stroke="#50a75d" stroke-width="1.51"/><path d="M416,234L511,333L519,248Z" fill="#a7dca0" stroke="#a7dca0" stroke-width="1.51"/><path d="M416,234L399,315L511,333Z" fill="#a7dca1" stroke="#a7dca1" stroke-width="1.51"/><path d="M430,405L334,476L397,507Z" fill="#94d291" stroke="#94d291" stroke-width="1.51"/><path d="M407,681L421,758L495,684Z" fill="#70b978" stroke="#70b978" stroke-width="1.51"/><path d="M952,162L947,81L861,137Z" fill="#8ccc91" stroke="#8ccc91" stroke-width="1.51"/><path d="M861,137L832,54L762,154Z" fill="#98d398" stroke="#98d398" stroke-width="1.51"/><path d="M1089,140L1020,134L1009,213Z" fill="#80c185" stroke="#80c185" stroke-width="1.51"/><path d="M828,935L949,924L847,831Z" fill="#308f48" stroke="#308f48" stroke-width="1.51"/><path d="M1016,835L1109,835L1035,735Z" fill="#268d46" stroke="#268d46" stroke-width="1.51"/><path d="M490,854L585,908L585,823Z" fill="#59a461" stroke="#59a461" stroke-width="1.51"/><path d="M742,1025L828,935L759,928Z" fill="#3a8c49" stroke="#3a8c49" stroke-width="1.51"/><path d="M397,507L339,560L438,565Z" fill="#87cb8a" stroke="#87cb8a" stroke-width="1.51"/><path d="M320,771L412,824L421,758Z" fill="#70b376" stroke="#70b376" stroke-width="1.51"/><path d="M334,476L339,560L397,507Z" fill="#8fcf8f" stroke="#8fcf8f" stroke-width="1.51"/><path d="M421,758L490,854L522,756Z" fill="#67af6e" stroke="#67af6e" stroke-width="1.51"/><path d="M326,409L334,476L430,405Z" fill="#9bd597" stroke="#9bd597" stroke-width="1.51"/><path d="M1097,918L1109,835L1016,835Z" fill="#1f8540" stroke="#1f8540" stroke-width="1.51"/><path d="M1127,767L1204,739L1108,680Z" fill="#268e47" stroke="#268e47" stroke-width="1.51"/><path d="M1020,134L947,81L952,162Z" fill="#88c88e" stroke="#88c88e" stroke-width="1.51"/><path d="M947,81L832,54L861,137Z" fill="#94d097" stroke="#94d097" stroke-width="1.51"/><path d="M949,924L1009,914L1016,835Z" fill="#238942" stroke="#238942" stroke-width="1.51"/><path d="M342,338L326,409L430,405Z" fill="#a1d89c" stroke="#a1d89c" stroke-width="1.51"/><path d="M489,152L416,234L519,248Z" fill="#afdfa8" stroke="#afdfa8" stroke-width="1.51"/><path d="M600,138L489,152L596,237Z" fill="#abdda5" stroke="#abdda5" stroke-width="1.51"/><path d="M511,81L489,152L600,138Z" fill="#b4e1ad" stroke="#b4e1ad" stroke-width="1.51"/><path d="M832,54L773,41L762,154Z" fill="#9ed59d" stroke="#9ed59d" stroke-width="1.51"/><path d="M247,564L323,686L339,560Z" fill="#87ca8c" stroke="#87ca8c" stroke-width="1.51"/><path d="M342,338L430,405L399,315Z" fill="#a3da9e" stroke="#a3da9e" stroke-width="1.51"/><path d="M773,41L696,45L762,154Z" fill="#a3d8a0" stroke="#a3d8a0" stroke-width="1.51"/><path d="M1197,846L1204,739L1127,767Z" fill="#1f8641" stroke="#1f8641" stroke-width="1.51"/><path d="M1179,652L1266,587L1192,579Z" fill="#2e964d" stroke="#2e964d" stroke-width="1.51"/><path d="M1192,579L1266,587L1187,497Z" fill="#389a51" stroke="#389a51" stroke-width="1.51"/><path d="M339,214L342,338L399,315Z" fill="#afdfa8" stroke="#afdfa8" stroke-width="1.51"/><path d="M1122,244L1089,140L1009,213Z" fill="#79bd7f" stroke="#79bd7f" stroke-width="1.51"/><path d="M1020,134L1005,74L947,81Z" fill="#8ac890" stroke="#8ac890" stroke-width="1.51"/><path d="M1182,163L1089,140L1122,244Z" fill="#78b97d" stroke="#78b97d" stroke-width="1.51"/><path d="M1181,225L1122,244L1176,339Z" fill="#6bb372" stroke="#6bb372" stroke-width="1.51"/><path d="M1268,666L1266,587L1179,652Z" fill="#2a9149" stroke="#2a9149" stroke-width="1.51"/><path d="M1262,393L1176,339L1209,413Z" fill="#57a762" stroke="#57a762" stroke-width="1.51"/><path d="M1288,335L1181,225L1176,339Z" fill="#64ad6b" stroke="#64ad6b" stroke-width="1.51"/><path d="M947,81L858,-9L832,54Z" fill="#99d29c" stroke="#99d29c" stroke-width="1.51"/><path d="M832,54L858,-9L773,41Z" fill="#a1d5a1" stroke="#a1d5a1" stroke-width="1.51"/><path d="M1089,140L1005,74L1020,134Z" fill="#85c48b" stroke="#85c48b" stroke-width="1.51"/><path d="M421,758L412,824L490,854Z" fill="#68ae6f" stroke="#68ae6f" stroke-width="1.51"/><path d="M490,854L513,945L585,908Z" fill="#59a160" stroke="#59a160" stroke-width="1.51"/><path d="M323,686L421,758L407,681Z" fill="#76bb7d" stroke="#76bb7d" stroke-width="1.51"/><path d="M1291,474L1209,413L1187,497Z" fill="#48a157" stroke="#48a157" stroke-width="1.51"/><path d="M247,564L339,560L334,476Z" fill="#91cf92" stroke="#91cf92" stroke-width="1.51"/><path d="M339,560L323,686L407,681Z" fill="#7ec384" stroke="#7ec384" stroke-width="1.51"/><path d="M489,152L428,165L416,234Z" fill="#b5e1ae" stroke="#b5e1ae" stroke-width="1.51"/><path d="M416,234L339,214L399,315Z" fill="#b1e0aa" stroke="#b1e0aa" stroke-width="1.51"/><path d="M400,53L428,165L489,152Z" fill="#bde5b5" stroke="#bde5b5" stroke-width="1.51"/><path d="M696,45L572,57L600,138Z" fill="#afdeaa" stroke="#afdeaa" stroke-width="1.51"/><path d="M1266,587L1291,474L1187,497Z" fill="#3d9b52" stroke="#3d9b52" stroke-width="1.51"/><path d="M1266,587L1349,588L1291,474Z" fill="#35944c" stroke="#35944c" stroke-width="1.51"/><path d="M1204,739L1268,666L1179,652Z" fill="#268d46" stroke="#268d46" stroke-width="1.51"/><path d="M828,935L845,1015L949,924Z" fill="#2d8744" stroke="#2d8744" stroke-width="1.51"/><path d="M949,924L1041,1004L1009,914Z" fill="#20803e" stroke="#20803e" stroke-width="1.51"/><path d="M742,1025L845,1015L828,935Z" fill="#358646" stroke="#358646" stroke-width="1.51"/><path d="M742,1025L759,928L673,918Z" fill="#408f4c" stroke="#408f4c" stroke-width="1.51"/><path d="M572,57L511,81L600,138Z" fill="#b4e0ae" stroke="#b4e0ae" stroke-width="1.51"/><path d="M1204,739L1262,772L1268,666Z" fill="#208741" stroke="#208741" stroke-width="1.51"/><path d="M1109,835L1197,846L1127,767Z" fill="#1e8540" stroke="#1e8540" stroke-width="1.51"/><path d="M1009,914L1097,918L1016,835Z" fill="#1f853f" stroke="#1f853f" stroke-width="1.51"/><path d="M1041,1004L1097,918L1009,914Z" fill="#1c7d3b" stroke="#1c7d3b" stroke-width="1.51"/><path d="M670,1023L742,1025L673,918Z" fill="#428c4c" stroke="#428c4c" stroke-width="1.51"/><path d="M427,914L513,945L490,854Z" fill="#5ea364" stroke="#5ea364" stroke-width="1.51"/><path d="M670,1023L673,918L585,908Z" fill="#4a9453" stroke="#4a9453" stroke-width="1.51"/><path d="M753,-35L679,-15L696,45Z" fill="#afddab" stroke="#afddab" stroke-width="1.51"/><path d="M696,45L583,-5L572,57Z" fill="#b5e0b0" stroke="#b5e0b0" stroke-width="1.51"/><path d="M941,-47L858,-9L947,81Z" fill="#99d19d" stroke="#99d19d" stroke-width="1.51"/><path d="M572,1027L670,1023L585,908Z" fill="#4c9054" stroke="#4c9054" stroke-width="1.51"/><path d="M1089,140L1123,72L1005,74Z" fill="#85c28b" stroke="#85c28b" stroke-width="1.51"/><path d="M1005,74L941,-47L947,81Z" fill="#92cd98" stroke="#92cd98" stroke-width="1.51"/><path d="M1181,225L1182,163L1122,244Z" fill="#72b678" stroke="#72b678" stroke-width="1.51"/><path d="M1266,130L1182,163L1181,225Z" fill="#75b47a" stroke="#75b47a" stroke-width="1.51"/><path d="M1288,335L1176,339L1262,393Z" fill="#59a762" stroke="#59a762" stroke-width="1.51"/><path d="M1097,918L1197,846L1109,835Z" fill="#1a813c" stroke="#1a813c" stroke-width="1.51"/><path d="M1358,403L1288,335L1262,393Z" fill="#53a15c" stroke="#53a15c" stroke-width="1.51"/><path d="M412,824L427,914L490,854Z" fill="#64a96a" stroke="#64a96a" stroke-width="1.51"/><path d="M323,686L320,771L421,758Z" fill="#76b97d" stroke="#76b97d" stroke-width="1.51"/><path d="M233,741L320,771L323,686Z" fill="#7cbc82" stroke="#7cbc82" stroke-width="1.51"/><path d="M326,409L261,410L334,476Z" fill="#a0d89b" stroke="#a0d89b" stroke-width="1.51"/><path d="M342,338L261,410L326,409Z" fill="#a6daa1" stroke="#a6daa1" stroke-width="1.51"/><path d="M240,310L261,410L342,338Z" fill="#addea7" stroke="#addea7" stroke-width="1.51"/><path d="M753,-35L696,45L773,41Z" fill="#aadba7" stroke="#aadba7" stroke-width="1.51"/><path d="M572,57L486,-39L511,81Z" fill="#bee5b8" stroke="#bee5b8" stroke-width="1.51"/><path d="M428,165L339,214L416,234Z" fill="#b7e2b0" stroke="#b7e2b0" stroke-width="1.51"/><path d="M345,128L339,214L428,165Z" fill="#bee5b6" stroke="#bee5b6" stroke-width="1.51"/><path d="M513,945L572,1027L585,908Z" fill="#53975a" stroke="#53975a" stroke-width="1.51"/><path d="M333,846L427,914L412,824Z" fill="#69aa6e" stroke="#69aa6e" stroke-width="1.51"/><path d="M845,1015L931,1032L949,924Z" fill="#278040" stroke="#278040" stroke-width="1.51"/><path d="M742,1025L931,1032L845,1015Z" fill="#2f7f41" stroke="#2f7f41" stroke-width="1.51"/><path d="M492,1033L931,1032L742,1025Z" fill="#3d8548" stroke="#3d8548" stroke-width="1.51"/><path d="M1197,846L1262,772L1204,739Z" fill="#1c823e" stroke="#1c823e" stroke-width="1.51"/><path d="M1268,666L1349,588L1266,587Z" fill="#298f47" stroke="#298f47" stroke-width="1.51"/><path d="M233,497L247,564L334,476Z" fill="#96d296" stroke="#96d296" stroke-width="1.51"/><path d="M858,-9L753,-35L773,41Z" fill="#a6d8a5" stroke="#a6d8a5" stroke-width="1.51"/><path d="M1182,163L1123,72L1089,140Z" fill="#7fbc84" stroke="#7fbc84" stroke-width="1.51"/><path d="M261,410L233,497L334,476Z" fill="#9ed69b" stroke="#9ed69b" stroke-width="1.51"/><path d="M931,1032L1041,1004L949,924Z" fill="#207c3d" stroke="#207c3d" stroke-width="1.51"/><path d="M1186,937L1260,841L1197,846Z" fill="#137a37" stroke="#137a37" stroke-width="1.51"/><path d="M679,-15L583,-5L696,45Z" fill="#b4e0ae" stroke="#b4e0ae" stroke-width="1.51"/><path d="M400,53L345,128L428,165Z" fill="#c1e7ba" stroke="#c1e7ba" stroke-width="1.51"/><path d="M611,-108L583,-5L679,-15Z" fill="#bae2b5" stroke="#bae2b5" stroke-width="1.51"/><path d="M670,1023L572,1027L742,1025Z" fill="#44894d" stroke="#44894d" stroke-width="1.51"/><path d="M492,1033L572,1027L513,945Z" fill="#549259" stroke="#549259" stroke-width="1.51"/><path d="M320,771L333,846L412,824Z" fill="#70b176" stroke="#70b176" stroke-width="1.51"/><path d="M437,1008L492,1033L513,945Z" fill="#58955d" stroke="#58955d" stroke-width="1.51"/><path d="M261,826L333,846L320,771Z" fill="#75b37a" stroke="#75b37a" stroke-width="1.51"/><path d="M1386,651L1349,588L1268,666Z" fill="#248b44" stroke="#248b44" stroke-width="1.51"/><path d="M1291,474L1358,403L1262,393Z" fill="#4b9e57" stroke="#4b9e57" stroke-width="1.51"/><path d="M1349,588L1360,471L1291,474Z" fill="#3a954d" stroke="#3a954d" stroke-width="1.51"/><path d="M1370,745L1386,651L1268,666Z" fill="#1e853f" stroke="#1e853f" stroke-width="1.51"/><path d="M1197,846L1260,841L1262,772Z" fill="#177e3a" stroke="#177e3a" stroke-width="1.51"/><path d="M1186,937L1197,846L1097,918Z" fill="#147c38" stroke="#147c38" stroke-width="1.51"/><path d="M1288,335L1297,240L1181,225Z" fill="#66ab6c" stroke="#66ab6c" stroke-width="1.51"/><path d="M1182,163L1208,82L1123,72Z" fill="#7eba84" stroke="#7eba84" stroke-width="1.51"/><path d="M1382,317L1297,240L1288,335Z" fill="#5ea564" stroke="#5ea564" stroke-width="1.51"/><path d="M1039,-38L941,-47L1005,74Z" fill="#94cc99" stroke="#94cc99" stroke-width="1.51"/><path d="M858,-9L779,-101L753,-35Z" fill="#a9d9a8" stroke="#a9d9a8" stroke-width="1.51"/><path d="M1360,471L1358,403L1291,474Z" fill="#459a52" stroke="#459a52" stroke-width="1.51"/><path d="M339,214L240,310L342,338Z" fill="#b4e1ad" stroke="#b4e1ad" stroke-width="1.51"/><path d="M261,410L164,421L233,497Z" fill="#a5d9a1" stroke="#a5d9a1" stroke-width="1.51"/><path d="M177,599L231,686L247,564Z" fill="#8ccb91" stroke="#8ccb91" stroke-width="1.51"/><path d="M247,564L231,686L323,686Z" fill="#86c68b" stroke="#86c68b" stroke-width="1.51"/><path d="M1109,1013L1186,937L1097,918Z" fill="#157636" stroke="#157636" stroke-width="1.51"/><path d="M339,214L233,252L240,310Z" fill="#bae4b4" stroke="#bae4b4" stroke-width="1.51"/><path d="M400,53L489,152L511,81Z" fill="#bde5b6" stroke="#bde5b6" stroke-width="1.51"/><path d="M1041,1004L1109,1013L1097,918Z" fill="#187637" stroke="#187637" stroke-width="1.51"/><path d="M931,1032L1109,1013L1041,1004Z" fill="#1c7438" stroke="#1c7438" stroke-width="1.51"/><path d="M437,1008L513,945L427,914Z" fill="#5d9c62" stroke="#5d9c62" stroke-width="1.51"/><path d="M572,1027L492,1033L742,1025Z" fill="#4a8b51" stroke="#4a8b51" stroke-width="1.51"/><path d="M486,-39L400,53L511,81Z" fill="#c3e7bd" stroke="#c3e7bd" stroke-width="1.51"/><path d="M352,937L437,1008L427,914Z" fill="#629e66" stroke="#629e66" stroke-width="1.51"/><path d="M231,686L233,741L323,686Z" fill="#81bf87" stroke="#81bf87" stroke-width="1.51"/><path d="M1108,-4L1039,-38L1005,74Z" fill="#8fc795" stroke="#8fc795" stroke-width="1.51"/><path d="M1266,130L1208,82L1182,163Z" fill="#7ab67f" stroke="#7ab67f" stroke-width="1.51"/><path d="M1108,-4L1005,74L1123,72Z" fill="#8ac38f" stroke="#8ac38f" stroke-width="1.51"/><path d="M1204,-27L1108,-4L1123,72Z" fill="#89c08e" stroke="#89c08e" stroke-width="1.51"/><path d="M352,937L427,914L333,846Z" fill="#69a76d" stroke="#69a76d" stroke-width="1.51"/><path d="M244,927L352,937L333,846Z" fill="#6da971" stroke="#6da971" stroke-width="1.51"/><path d="M258,128L233,252L339,214Z" fill="#c2e7bb" stroke="#c2e7bb" stroke-width="1.51"/><path d="M143,485L177,599L233,497Z" fill="#9ad39b" stroke="#9ad39b" stroke-width="1.51"/><path d="M233,497L177,599L247,564Z" fill="#95d097" stroke="#95d097" stroke-width="1.51"/><path d="M258,128L339,214L345,128Z" fill="#c4e8bd" stroke="#c4e8bd" stroke-width="1.51"/><path d="M1208,82L1204,-27L1123,72Z" fill="#85bc89" stroke="#85bc89" stroke-width="1.51"/><path d="M1297,240L1266,130L1181,225Z" fill="#6fb075" stroke="#6fb075" stroke-width="1.51"/><path d="M1351,165L1266,130L1297,240Z" fill="#6fad73" stroke="#6fad73" stroke-width="1.51"/><path d="M753,-35L673,-120L679,-15Z" fill="#b3dfaf" stroke="#b3dfaf" stroke-width="1.51"/><path d="M583,-5L486,-39L572,57Z" fill="#bee5b9" stroke="#bee5b9" stroke-width="1.51"/><path d="M838,-107L779,-101L858,-9Z" fill="#a8d8a9" stroke="#a8d8a9" stroke-width="1.51"/><path d="M838,-107L858,-9L920,-112Z" fill="#a3d5a6" stroke="#a3d5a6" stroke-width="1.51"/><path d="M233,741L261,826L320,771Z" fill="#7ab87f" stroke="#7ab87f" stroke-width="1.51"/><path d="M1451,474L1446,423L1360,471Z" fill="#40924d" stroke="#40924d" stroke-width="1.51"/><path d="M1446,423L1382,317L1358,403Z" fill="#4e9a57" stroke="#4e9a57" stroke-width="1.51"/><path d="M1370,745L1268,666L1262,772Z" fill="#1c833e" stroke="#1c833e" stroke-width="1.51"/><path d="M164,421L261,410L240,310Z" fill="#addea8" stroke="#addea8" stroke-width="1.51"/><path d="M231,686L146,747L233,741Z" fill="#84bf89" stroke="#84bf89" stroke-width="1.51"/><path d="M233,741L158,843L261,826Z" fill="#7cb681" stroke="#7cb681" stroke-width="1.51"/><path d="M920,-112L858,-9L941,-47Z" fill="#9ed3a2" stroke="#9ed3a2" stroke-width="1.51"/><path d="M1358,403L1382,317L1288,335Z" fill="#55a05d" stroke="#55a05d" stroke-width="1.51"/><path d="M1446,423L1358,403L1360,471Z" fill="#459651" stroke="#459651" stroke-width="1.51"/><path d="M1366,821L1370,745L1262,772Z" fill="#147c38" stroke="#147c38" stroke-width="1.51"/><path d="M1186,937L1289,930L1260,841Z" fill="#0c7533" stroke="#0c7533" stroke-width="1.51"/><path d="M1109,1013L1191,990L1186,937Z" fill="#127133" stroke="#127133" stroke-width="1.51"/><path d="M515,-94L486,-39L583,-5Z" fill="#c4e7be" stroke="#c4e7be" stroke-width="1.51"/><path d="M1366,821L1262,772L1260,841Z" fill="#137b37" stroke="#137b37" stroke-width="1.51"/><path d="M147,328L164,421L240,310Z" fill="#b4e1ae" stroke="#b4e1ae" stroke-width="1.51"/><path d="M1009,-92L941,-47L1039,-38Z" fill="#98cd9d" stroke="#98cd9d" stroke-width="1.51"/><path d="M1009,-92L920,-112L941,-47Z" fill="#9cd1a1" stroke="#9cd1a1" stroke-width="1.51"/><path d="M920,-112L673,-120L838,-107Z" fill="#acdaac" stroke="#acdaac" stroke-width="1.51"/><path d="M838,-107L673,-120L779,-101Z" fill="#b1ddaf" stroke="#b1ddaf" stroke-width="1.51"/><path d="M779,-101L673,-120L753,-35Z" fill="#b2deaf" stroke="#b2deaf" stroke-width="1.51"/><path d="M1094,-98L1009,-92L1039,-38Z" fill="#96c99b" stroke="#96c99b" stroke-width="1.51"/><path d="M1094,-98L1039,-38L1108,-4Z" fill="#91c697" stroke="#91c697" stroke-width="1.51"/><path d="M177,599L163,665L231,686Z" fill="#8cc890" stroke="#8cc890" stroke-width="1.51"/><path d="M79,559L163,665L177,599Z" fill="#93ce98" stroke="#93ce98" stroke-width="1.51"/><path d="M673,-120L611,-108L679,-15Z" fill="#b9e2b5" stroke="#b9e2b5" stroke-width="1.51"/><path d="M412,-29L346,41L400,53Z" fill="#cbebc5" stroke="#cbebc5" stroke-width="1.51"/><path d="M400,53L346,41L345,128Z" fill="#c8e9c1" stroke="#c8e9c1" stroke-width="1.51"/><path d="M164,421L143,485L233,497Z" fill="#a4d8a1" stroke="#a4d8a1" stroke-width="1.51"/><path d="M1266,130L1264,71L1208,82Z" fill="#7cb580" stroke="#7cb580" stroke-width="1.51"/><path d="M1352,67L1264,71L1266,130Z" fill="#79b27d" stroke="#79b27d" stroke-width="1.51"/><path d="M176,236L147,328L240,310Z" fill="#bce5b6" stroke="#bce5b6" stroke-width="1.51"/><path d="M76,398L70,476L143,485Z" fill="#acdca8" stroke="#acdca8" stroke-width="1.51"/><path d="M346,41L258,128L345,128Z" fill="#caeac2" stroke="#caeac2" stroke-width="1.51"/><path d="M1191,990L1289,930L1186,937Z" fill="#0d7031" stroke="#0d7031" stroke-width="1.51"/><path d="M352,937L347,996L437,1008Z" fill="#639b66" stroke="#639b66" stroke-width="1.51"/><path d="M437,1008L347,996L492,1033Z" fill="#5c9460" stroke="#5c9460" stroke-width="1.51"/><path d="M244,927L347,996L352,937Z" fill="#6aa16d" stroke="#6aa16d" stroke-width="1.51"/><path d="M244,927L333,846L261,826Z" fill="#73ae77" stroke="#73ae77" stroke-width="1.51"/><path d="M1370,745L1449,647L1386,651Z" fill="#1c803c" stroke="#1c803c" stroke-width="1.51"/><path d="M1289,930L1366,821L1260,841Z" fill="#0c7532" stroke="#0c7532" stroke-width="1.51"/><path d="M346,41L242,42L258,128Z" fill="#cfecc8" stroke="#cfecc8" stroke-width="1.51"/><path d="M486,-39L412,-29L400,53Z" fill="#caeac3" stroke="#caeac3" stroke-width="1.51"/><path d="M428,-97L412,-29L486,-39Z" fill="#ccebc6" stroke="#ccebc6" stroke-width="1.51"/><path d="M1380,217L1351,165L1297,240Z" fill="#69a86e" stroke="#69a86e" stroke-width="1.51"/><path d="M1382,317L1380,217L1297,240Z" fill="#62a567" stroke="#62a567" stroke-width="1.51"/><path d="M428,-97L515,-94L611,-108Z" fill="#c8e9c3" stroke="#c8e9c3" stroke-width="1.51"/><path d="M611,-108L515,-94L583,-5Z" fill="#c1e6bc" stroke="#c1e6bc" stroke-width="1.51"/><path d="M1382,317L1448,228L1380,217Z" fill="#60a065" stroke="#60a065" stroke-width="1.51"/><path d="M1451,474L1360,471L1349,588Z" fill="#38914a" stroke="#38914a" stroke-width="1.51"/><path d="M1451,474L1349,588L1458,601Z" fill="#2e8a46" stroke="#2e8a46" stroke-width="1.51"/><path d="M1458,601L1349,588L1386,651Z" fill="#248742" stroke="#248742" stroke-width="1.51"/><path d="M176,236L240,310L233,252Z" fill="#bde5b7" stroke="#bde5b7" stroke-width="1.51"/><path d="M164,168L176,236L233,252Z" fill="#c5e8be" stroke="#c5e8be" stroke-width="1.51"/><path d="M1467,770L1449,647L1370,745Z" fill="#177938" stroke="#177938" stroke-width="1.51"/><path d="M1449,647L1458,601L1386,651Z" fill="#21823f" stroke="#21823f" stroke-width="1.51"/><path d="M1290,-19L1204,-27L1264,71Z" fill="#84b888" stroke="#84b888" stroke-width="1.51"/><path d="M1264,71L1204,-27L1208,82Z" fill="#82b886" stroke="#82b886" stroke-width="1.51"/><path d="M1009,-92L1094,-98L920,-112Z" fill="#9acd9f" stroke="#9acd9f" stroke-width="1.51"/><path d="M1204,-27L1094,-98L1108,-4Z" fill="#8ec293" stroke="#8ec293" stroke-width="1.51"/><path d="M163,665L146,747L231,686Z" fill="#87c28d" stroke="#87c28d" stroke-width="1.51"/><path d="M55,681L146,747L163,665Z" fill="#8cc491" stroke="#8cc491" stroke-width="1.51"/><path d="M158,843L244,927L261,826Z" fill="#77af7b" stroke="#77af7b" stroke-width="1.51"/><path d="M1446,423L1459,318L1382,317Z" fill="#519858" stroke="#519858" stroke-width="1.51"/><path d="M1466,147L1352,67L1351,165Z" fill="#71a974" stroke="#71a974" stroke-width="1.51"/><path d="M1557,397L1459,318L1446,423Z" fill="#4a9052" stroke="#4a9052" stroke-width="1.51"/><path d="M1531,493L1446,423L1451,474Z" fill="#3d8b4a" stroke="#3d8b4a" stroke-width="1.51"/><path d="M428,-97L333,-26L412,-29Z" fill="#d0ecca" stroke="#d0ecca" stroke-width="1.51"/><path d="M412,-29L333,-26L346,41Z" fill="#d0ecc9" stroke="#d0ecc9" stroke-width="1.51"/><path d="M258,128L164,168L233,252Z" fill="#c8e9c0" stroke="#c8e9c0" stroke-width="1.51"/><path d="M515,-94L428,-97L486,-39Z" fill="#caeac5" stroke="#caeac5" stroke-width="1.51"/><path d="M673,-120L428,-97L611,-108Z" fill="#c3e7bf" stroke="#c3e7bf" stroke-width="1.51"/><path d="M143,485L79,559L177,599Z" fill="#9cd39d" stroke="#9cd39d" stroke-width="1.51"/><path d="M70,476L79,559L143,485Z" fill="#a4d8a4" stroke="#a4d8a4" stroke-width="1.51"/><path d="M169,40L164,168L258,128Z" fill="#d1edca" stroke="#d1edca" stroke-width="1.51"/><path d="M78,220L55,321L147,328Z" fill="#c3e7bd" stroke="#c3e7bd" stroke-width="1.51"/><path d="M76,398L143,485L164,421Z" fill="#acdca8" stroke="#acdca8" stroke-width="1.51"/><path d="M146,747L158,843L233,741Z" fill="#81ba86" stroke="#81ba86" stroke-width="1.51"/><path d="M68,768L158,843L146,747Z" fill="#84bb89" stroke="#84bb89" stroke-width="1.51"/><path d="M76,398L164,421L147,328Z" fill="#b4e0af" stroke="#b4e0af" stroke-width="1.51"/><path d="M1204,-27L1204,-92L1094,-98Z" fill="#8ec093" stroke="#8ec093" stroke-width="1.51"/><path d="M1351,165L1352,67L1266,130Z" fill="#74ae79" stroke="#74ae79" stroke-width="1.51"/><path d="M1466,147L1351,165L1380,217Z" fill="#6aa56e" stroke="#6aa56e" stroke-width="1.51"/><path d="M169,40L242,42L174,-47Z" fill="#dbf1d5" stroke="#dbf1d5" stroke-width="1.51"/><path d="M333,-26L242,42L346,41Z" fill="#d3eecc" stroke="#d3eecc" stroke-width="1.51"/><path d="M1459,318L1448,228L1382,317Z" fill="#5b9c60" stroke="#5b9c60" stroke-width="1.51"/><path d="M55,321L76,398L147,328Z" fill="#bbe3b6" stroke="#bbe3b6" stroke-width="1.51"/><path d="M1289,930L1387,942L1366,821Z" fill="#036f2d" stroke="#036f2d" stroke-width="1.51"/><path d="M1366,821L1467,770L1370,745Z" fill="#107635" stroke="#107635" stroke-width="1.51"/><path d="M1191,990L1295,1026L1289,930Z" fill="#09692e" stroke="#09692e" stroke-width="1.51"/><path d="M1109,1013L1295,1026L1191,990Z" fill="#0e6930" stroke="#0e6930" stroke-width="1.51"/><path d="M931,1032L1295,1026L1109,1013Z" fill="#156e33" stroke="#156e33" stroke-width="1.51"/><path d="M1458,601L1531,493L1451,474Z" fill="#338645" stroke="#338645" stroke-width="1.51"/><path d="M1541,589L1531,493L1458,601Z" fill="#2b8041" stroke="#2b8041" stroke-width="1.51"/><path d="M1458,826L1467,770L1366,821Z" fill="#0d7031" stroke="#0d7031" stroke-width="1.51"/><path d="M1352,67L1290,-19L1264,71Z" fill="#7eb382" stroke="#7eb382" stroke-width="1.51"/><path d="M1094,-98L1262,-111L920,-112Z" fill="#95c79a" stroke="#95c79a" stroke-width="1.51"/><path d="M1262,-111L1204,-92L1204,-27Z" fill="#8bbc90" stroke="#8bbc90" stroke-width="1.51"/><path d="M1379,993L1387,942L1289,930Z" fill="#01672a" stroke="#01672a" stroke-width="1.51"/><path d="M1464,904L1458,826L1366,821Z" fill="#076c2e" stroke="#076c2e" stroke-width="1.51"/><path d="M1458,601L1449,647L1542,657Z" fill="#207c3d" stroke="#207c3d" stroke-width="1.51"/><path d="M1541,589L1458,601L1542,657Z" fill="#217b3c" stroke="#217b3c" stroke-width="1.51"/><path d="M1522,154L1466,147L1448,228Z" fill="#679d6a" stroke="#679d6a" stroke-width="1.51"/><path d="M165,935L226,1001L244,927Z" fill="#72a474" stroke="#72a474" stroke-width="1.51"/><path d="M244,927L226,1001L347,996Z" fill="#6c9f6f" stroke="#6c9f6f" stroke-width="1.51"/><path d="M347,996L226,1001L492,1033Z" fill="#639766" stroke="#639766" stroke-width="1.51"/><path d="M79,559L55,681L163,665Z" fill="#93cc98" stroke="#93cc98" stroke-width="1.51"/><path d="M158,843L165,935L244,927Z" fill="#77ad7a" stroke="#77ad7a" stroke-width="1.51"/><path d="M-6,656L55,681L79,559Z" fill="#96cd9c" stroke="#96cd9c" stroke-width="1.51"/><path d="M82,915L165,935L158,843Z" fill="#7baf7e" stroke="#7baf7e" stroke-width="1.51"/><path d="M70,476L-12,505L79,559Z" fill="#a6d8a6" stroke="#a6d8a6" stroke-width="1.51"/><path d="M-17,388L-12,505L70,476Z" fill="#b0ddad" stroke="#b0ddad" stroke-width="1.51"/><path d="M78,220L147,328L176,236Z" fill="#c4e8bd" stroke="#c4e8bd" stroke-width="1.51"/><path d="M78,220L176,236L164,168Z" fill="#caeac3" stroke="#caeac3" stroke-width="1.51"/><path d="M1542,657L1449,647L1530,742Z" fill="#1a7538" stroke="#1a7538" stroke-width="1.51"/><path d="M1387,942L1464,904L1366,821Z" fill="#026b2b" stroke="#026b2b" stroke-width="1.51"/><path d="M1295,1026L1379,993L1289,930Z" fill="#04652a" stroke="#04652a" stroke-width="1.51"/><path d="M55,681L68,768L146,747Z" fill="#8bc190" stroke="#8bc190" stroke-width="1.51"/><path d="M65,136L78,220L164,168Z" fill="#d1edca" stroke="#d1edca" stroke-width="1.51"/><path d="M1530,742L1449,647L1467,770Z" fill="#167436" stroke="#167436" stroke-width="1.51"/><path d="M1530,742L1467,770L1533,843Z" fill="#0e6a30" stroke="#0e6a30" stroke-width="1.51"/><path d="M1542,229L1448,228L1459,318Z" fill="#5c9861" stroke="#5c9861" stroke-width="1.51"/><path d="M1448,228L1466,147L1380,217Z" fill="#67a16a" stroke="#67a16a" stroke-width="1.51"/><path d="M1355,-40L1262,-111L1290,-19Z" fill="#85b689" stroke="#85b689" stroke-width="1.51"/><path d="M242,42L169,40L258,128Z" fill="#d3eecd" stroke="#d3eecd" stroke-width="1.51"/><path d="M244,-47L242,42L333,-26Z" fill="#d8f0d1" stroke="#d8f0d1" stroke-width="1.51"/><path d="M1533,843L1467,770L1458,826Z" fill="#0b6a2f" stroke="#0b6a2f" stroke-width="1.51"/><path d="M1542,657L1557,397L1541,589Z" fill="#2c7e40" stroke="#2c7e40" stroke-width="1.51"/><path d="M1541,589L1557,397L1531,493Z" fill="#378245" stroke="#378245" stroke-width="1.51"/><path d="M1531,493L1557,397L1446,423Z" fill="#40894b" stroke="#40894b" stroke-width="1.51"/><path d="M310,-108L244,-47L333,-26Z" fill="#d9f0d3" stroke="#d9f0d3" stroke-width="1.51"/><path d="M428,-97L310,-108L333,-26Z" fill="#d5eecf" stroke="#d5eecf" stroke-width="1.51"/><path d="M673,-120L310,-108L428,-97Z" fill="#ccebc8" stroke="#ccebc8" stroke-width="1.51"/><path d="M1290,-19L1262,-111L1204,-27Z" fill="#88b98d" stroke="#88b98d" stroke-width="1.51"/><path d="M1204,-92L1262,-111L1094,-98Z" fill="#8fbf94" stroke="#8fbf94" stroke-width="1.51"/><path d="M920,-112L1453,-129L673,-120Z" fill="#9acda0" stroke="#9acda0" stroke-width="1.51"/><path d="M1355,-40L1290,-19L1352,67Z" fill="#80b284" stroke="#80b284" stroke-width="1.51"/><path d="M1434,1010L1464,904L1387,942Z" fill="#006026" stroke="#006026" stroke-width="1.51"/><path d="M79,990L171,1001L165,935Z" fill="#75a378" stroke="#75a378" stroke-width="1.51"/><path d="M165,935L171,1001L226,1001Z" fill="#72a174" stroke="#72a174" stroke-width="1.51"/><path d="M226,1001L171,1001L492,1033Z" fill="#68996b" stroke="#68996b" stroke-width="1.51"/><path d="M1452,46L1355,-40L1352,67Z" fill="#7bad7e" stroke="#7bad7e" stroke-width="1.51"/><path d="M1557,397L1558,320L1459,318Z" fill="#4f8e55" stroke="#4f8e55" stroke-width="1.51"/><path d="M-17,388L70,476L76,398Z" fill="#b3dfaf" stroke="#b3dfaf" stroke-width="1.51"/><path d="M4,752L57,844L68,768Z" fill="#89bd8e" stroke="#89bd8e" stroke-width="1.51"/><path d="M-17,388L76,398L55,321Z" fill="#bbe3b6" stroke="#bbe3b6" stroke-width="1.51"/><path d="M68,768L57,844L158,843Z" fill="#84b888" stroke="#84b888" stroke-width="1.51"/><path d="M4,752L68,768L55,681Z" fill="#8dc293" stroke="#8dc293" stroke-width="1.51"/><path d="M1558,320L1542,229L1459,318Z" fill="#57925b" stroke="#57925b" stroke-width="1.51"/><path d="M1466,147L1452,46L1352,67Z" fill="#73a676" stroke="#73a676" stroke-width="1.51"/><path d="M-28,590L-6,656L79,559Z" fill="#9bd1a0" stroke="#9bd1a0" stroke-width="1.51"/><path d="M1541,70L1452,46L1466,147Z" fill="#709f73" stroke="#709f73" stroke-width="1.51"/><path d="M310,-108L256,-103L244,-47Z" fill="#ddf2d7" stroke="#ddf2d7" stroke-width="1.51"/><path d="M244,-47L174,-47L242,42Z" fill="#dcf2d6" stroke="#dcf2d6" stroke-width="1.51"/><path d="M57,844L82,915L158,843Z" fill="#7fb383" stroke="#7fb383" stroke-width="1.51"/><path d="M-12,505L-28,590L79,559Z" fill="#a2d5a4" stroke="#a2d5a4" stroke-width="1.51"/><path d="M-36,338L-17,388L55,321Z" fill="#bfe5ba" stroke="#bfe5ba" stroke-width="1.51"/><path d="M-36,338L55,321L-22,216Z" fill="#c7e9c2" stroke="#c7e9c2" stroke-width="1.51"/><path d="M169,40L65,136L164,168Z" fill="#d6efcf" stroke="#d6efcf" stroke-width="1.51"/><path d="M73,46L65,136L169,40Z" fill="#dcf1d5" stroke="#dcf1d5" stroke-width="1.51"/><path d="M1542,657L1561,992L1557,397Z" fill="#197136" stroke="#197136" stroke-width="1.51"/><path d="M1530,742L1533,843L1542,657Z" fill="#126c32" stroke="#126c32" stroke-width="1.51"/><path d="M1464,904L1533,843L1458,826Z" fill="#05662b" stroke="#05662b" stroke-width="1.51"/><path d="M1527,905L1533,843L1464,904Z" fill="#026128" stroke="#026128" stroke-width="1.51"/><path d="M1379,993L1434,1010L1387,942Z" fill="#005f26" stroke="#005f26" stroke-width="1.51"/><path d="M1295,1026L1434,1010L1379,993Z" fill="#005e26" stroke="#005e26" stroke-width="1.51"/><path d="M1542,229L1522,154L1448,228Z" fill="#629866" stroke="#629866" stroke-width="1.51"/><path d="M-95,560L-28,590L-12,505Z" fill="#a4d6a7" stroke="#a4d6a7" stroke-width="1.51"/><path d="M-24,906L79,990L82,915Z" fill="#7eab81" stroke="#7eab81" stroke-width="1.51"/><path d="M-6,656L4,752L55,681Z" fill="#92c797" stroke="#92c797" stroke-width="1.51"/><path d="M-99,766L4,752L-6,656Z" fill="#92c597" stroke="#92c597" stroke-width="1.51"/><path d="M256,-103L174,-47L244,-47Z" fill="#def3d9" stroke="#def3d9" stroke-width="1.51"/><path d="M1561,992L1527,905L1464,904Z" fill="#005a24" stroke="#005a24" stroke-width="1.51"/><path d="M-113,409L-95,508L-12,505Z" fill="#b1ddaf" stroke="#b1ddaf" stroke-width="1.51"/><path d="M-22,216L55,321L78,220Z" fill="#cbeac4" stroke="#cbeac4" stroke-width="1.51"/><path d="M1452,46L1439,-35L1355,-40Z" fill="#7dab80" stroke="#7dab80" stroke-width="1.51"/><path d="M1355,-40L1387,-106L1262,-111Z" fill="#86b589" stroke="#86b589" stroke-width="1.51"/><path d="M1559,-21L1439,-35L1452,46Z" fill="#79a47c" stroke="#79a47c" stroke-width="1.51"/><path d="M65,136L-22,216L78,220Z" fill="#d2edcc" stroke="#d2edcc" stroke-width="1.51"/><path d="M73,-14L73,46L169,40Z" fill="#e0f3db" stroke="#e0f3db" stroke-width="1.51"/><path d="M-5,857L82,915L57,844Z" fill="#82b486" stroke="#82b486" stroke-width="1.51"/><path d="M82,915L79,990L165,935Z" fill="#79a87c" stroke="#79a87c" stroke-width="1.51"/><path d="M1439,-35L1387,-106L1355,-40Z" fill="#81af84" stroke="#81af84" stroke-width="1.51"/><path d="M-20,128L-22,216L65,136Z" fill="#d7f0d1" stroke="#d7f0d1" stroke-width="1.51"/><path d="M4,752L-5,857L57,844Z" fill="#87ba8c" stroke="#87ba8c" stroke-width="1.51"/><path d="M-24,906L-5,857L-92,817Z" fill="#87b78b" stroke="#87b78b" stroke-width="1.51"/><path d="M1439,-35L1453,-129L1387,-106Z" fill="#81ac84" stroke="#81ac84" stroke-width="1.51"/><path d="M1522,154L1541,70L1466,147Z" fill="#6c9c6e" stroke="#6c9c6e" stroke-width="1.51"/><path d="M1542,229L1541,70L1522,154Z" fill="#67986a" stroke="#67986a" stroke-width="1.51"/><path d="M1559,-21L1541,70L1542,229Z" fill="#6d9970" stroke="#6d9970" stroke-width="1.51"/><path d="M-113,409L-12,505L-17,388Z" fill="#b5e0b2" stroke="#b5e0b2" stroke-width="1.51"/><path d="M-28,590L-123,676L-6,656Z" fill="#9ace9f" stroke="#9ace9f" stroke-width="1.51"/><path d="M-113,409L-17,388L-36,338Z" fill="#bee4b9" stroke="#bee4b9" stroke-width="1.51"/><path d="M-95,508L-95,560L-12,505Z" fill="#a9d9ab" stroke="#a9d9ab" stroke-width="1.51"/><path d="M51,-98L73,-14L174,-47Z" fill="#e6f5e1" stroke="#e6f5e1" stroke-width="1.51"/><path d="M174,-47L73,-14L169,40Z" fill="#e1f3db" stroke="#e1f3db" stroke-width="1.51"/><path d="M73,46L-20,128L65,136Z" fill="#dcf2d6" stroke="#dcf2d6" stroke-width="1.51"/><path d="M256,-103L156,-120L174,-47Z" fill="#e2f4dd" stroke="#e2f4dd" stroke-width="1.51"/><path d="M310,-108L156,-120L256,-103Z" fill="#e0f3db" stroke="#e0f3db" stroke-width="1.51"/><path d="M673,-120L156,-120L310,-108Z" fill="#d5eed0" stroke="#d5eed0" stroke-width="1.51"/><path d="M-31,61L-20,128L73,46Z" fill="#e0f3da" stroke="#e0f3da" stroke-width="1.51"/><path d="M-117,301L-113,409L-36,338Z" fill="#c3e6bf" stroke="#c3e6bf" stroke-width="1.51"/><path d="M-5,857L-24,906L82,915Z" fill="#82b285" stroke="#82b285" stroke-width="1.51"/><path d="M-92,817L-5,857L4,752Z" fill="#8bbc90" stroke="#8bbc90" stroke-width="1.51"/><path d="M-95,508L-123,676L-95,560Z" fill="#a3d5a7" stroke="#a3d5a7" stroke-width="1.51"/><path d="M-117,301L-36,338L-22,216Z" fill="#cbeac5" stroke="#cbeac5" stroke-width="1.51"/><path d="M1434,1010L1561,992L1464,904Z" fill="#005824" stroke="#005824" stroke-width="1.51"/><path d="M1527,905L1561,992L1533,843Z" fill="#005b24" stroke="#005b24" stroke-width="1.51"/><path d="M1533,843L1561,992L1542,657Z" fill="#08622b" stroke="#08622b" stroke-width="1.51"/><path d="M1557,397L1561,992L1558,320Z" fill="#287b3e" stroke="#287b3e" stroke-width="1.51"/><path d="M-123,676L-99,766L-6,656Z" fill="#95c89b" stroke="#95c89b" stroke-width="1.51"/><path d="M-123,676L-28,590L-95,560Z" fill="#9ed2a4" stroke="#9ed2a4" stroke-width="1.51"/><path d="M1524,-101L1453,-129L1439,-35Z" fill="#7fa782" stroke="#7fa782" stroke-width="1.51"/><path d="M1387,-106L1453,-129L1262,-111Z" fill="#85b289" stroke="#85b289" stroke-width="1.51"/><path d="M1262,-111L1453,-129L920,-112Z" fill="#8fbe94" stroke="#8fbe94" stroke-width="1.51"/><path d="M673,-120L-2,-122L156,-120Z" fill="#def2d9" stroke="#def2d9" stroke-width="1.51"/><path d="M-113,409L-123,676L-95,508Z" fill="#aadaac" stroke="#aadaac" stroke-width="1.51"/><path d="M-113,409L-122,249L-123,676Z" fill="#b7e0b4" stroke="#b7e0b4" stroke-width="1.51"/><path d="M-122,249L-117,301L-22,216Z" fill="#cfecca" stroke="#cfecca" stroke-width="1.51"/><path d="M-97,909L-92,817L-99,766Z" fill="#8bba90" stroke="#8bba90" stroke-width="1.51"/><path d="M-99,766L-92,817L4,752Z" fill="#8ebf94" stroke="#8ebf94" stroke-width="1.51"/><path d="M-111,149L-122,249L-22,216Z" fill="#d6efd0" stroke="#d6efd0" stroke-width="1.51"/><path d="M-1,-21L-31,61L73,46Z" fill="#e5f5df" stroke="#e5f5df" stroke-width="1.51"/><path d="M-1,-21L73,46L73,-14Z" fill="#e5f5e0" stroke="#e5f5e0" stroke-width="1.51"/><path d="M1541,70L1559,-21L1452,46Z" fill="#749e76" stroke="#749e76" stroke-width="1.51"/><path d="M1558,320L1559,-21L1542,229Z" fill="#649566" stroke="#649566" stroke-width="1.51"/><path d="M1561,992L1559,-21L1558,320Z" fill="#40854a" stroke="#40854a" stroke-width="1.51"/><path d="M-117,301L-122,249L-113,409Z" fill="#c9e9c3" stroke="#c9e9c3" stroke-width="1.51"/><path d="M-111,149L-22,216L-20,128Z" fill="#d9f0d4" stroke="#d9f0d4" stroke-width="1.51"/><path d="M-112,73L-111,149L-20,128Z" fill="#e0f3db" stroke="#e0f3db" stroke-width="1.51"/><path d="M51,-98L-1,-21L73,-14Z" fill="#e9f7e4" stroke="#e9f7e4" stroke-width="1.51"/><path d="M156,-120L51,-98L174,-47Z" fill="#e6f6e2" stroke="#e6f6e2" stroke-width="1.51"/><path d="M1559,-21L1524,-101L1439,-35Z" fill="#7ba27e" stroke="#7ba27e" stroke-width="1.51"/><path d="M-97,909L-31,1014L-24,906Z" fill="#81ac84" stroke="#81ac84" stroke-width="1.51"/><path d="M-24,906L-31,1014L79,990Z" fill="#7da780" stroke="#7da780" stroke-width="1.51"/><path d="M79,990L-31,1014L171,1001Z" fill="#78a17b" stroke="#78a17b" stroke-width="1.51"/><path d="M171,1001L-108,1030L492,1033Z" fill="#6f9b72" stroke="#6f9b72" stroke-width="1.51"/><path d="M-112,73L-20,128L-31,61Z" fill="#e2f4dc" stroke="#e2f4dc" stroke-width="1.51"/><path d="M-92,817L-97,909L-24,906Z" fill="#87b58b" stroke="#87b58b" stroke-width="1.51"/><path d="M-123,676L-97,909L-99,766Z" fill="#90c095" stroke="#90c095" stroke-width="1.51"/><path d="M-119,-30L-112,73L-31,61Z" fill="#e8f6e3" stroke="#e8f6e3" stroke-width="1.51"/><path d="M-111,149L-112,73L-122,249Z" fill="#ddf2d8" stroke="#ddf2d8" stroke-width="1.51"/><path d="M-119,-30L-31,61L-1,-21Z" fill="#eaf7e5" stroke="#eaf7e5" stroke-width="1.51"/><path d="M51,-98L-2,-122L-1,-21Z" fill="#ecf8e8" stroke="#ecf8e8" stroke-width="1.51"/><path d="M156,-120L-2,-122L51,-98Z" fill="#ecf8e7" stroke="#ecf8e7" stroke-width="1.51"/><path d="M1453,-129L-2,-122L673,-120Z" fill="#b7e0b4" stroke="#b7e0b4" stroke-width="1.51"/><path d="M-97,909L-108,1030L-31,1014Z" fill="#80a683" stroke="#80a683" stroke-width="1.51"/><path d="M-31,1014L-108,1030L171,1001Z" fill="#799f7c" stroke="#799f7c" stroke-width="1.51"/><path d="M-123,676L-108,1030L-97,909Z" fill="#89b68d" stroke="#89b68d" stroke-width="1.51"/><path d="M-81,-100L-119,-30L-1,-21Z" fill="#eef9e9" stroke="#eef9e9" stroke-width="1.51"/><path d="M-112,73L-119,-30L-122,249Z" fill="#e3f4de" stroke="#e3f4de" stroke-width="1.51"/><path d="M-2,-122L-81,-100L-1,-21Z" fill="#edf8ea" stroke="#edf8ea" stroke-width="1.51"/></svg>