<svg xmlns="http://www.w3.org/2000/svg" width="1440" height="900"><path d="M751,474L768,559L829,481Z" fill="#f0f9aa" stroke="#f0f9aa" stroke-width="1.51"/><path d="M768,559L853,595L829,481Z" fill="#e6f49c" stroke="#e6f49c" stroke-width="1.51"/><path d="M751,474L667,514L768,559Z" fill="#f4fab0" stroke="#f4fab0" stroke-width="1.51"/><path d="M829,481L755,394L751,474Z" fill="#f9fdb6" stroke="#f9fdb6" stroke-width="1.51"/><path d="M751,474L686,388L667,514Z" fill="#fefdba" stroke="#fefdba" stroke-width="1.51"/><path d="M768,559L776,644L853,595Z" fill="#def195" stroke="#def195" stroke-width="1.51"/><path d="M670,598L776,644L768,559Z" fill="#e4f49f" stroke="#e4f49f" stroke-width="1.51"/><path d="M829,481L871,403L755,394Z" fill="#f5f8ab" stroke="#f5f8ab" stroke-width="1.51"/><path d="M932,481L871,403L829,481Z" fill="#edf7a7" stroke="#edf7a7" stroke-width="1.51"/><path d="M667,514L670,598L768,559Z" fill="#eef7a5" stroke="#eef7a5" stroke-width="1.51"/><path d="M853,595L932,481L829,481Z" fill="#e4f49a" stroke="#e4f49a" stroke-width="1.51"/><path d="M755,394L686,388L751,474Z" fill="#fefab6" stroke="#fefab6" stroke-width="1.51"/><path d="M680,332L686,388L755,394Z" fill="#fff4ac" stroke="#fff4ac" stroke-width="1.51"/><path d="M776,644L854,662L853,595Z" fill="#d3ed8d" stroke="#d3ed8d" stroke-width="1.51"/><path d="M853,595L953,578L932,481Z" fill="#d9ef8d" stroke="#d9ef8d" stroke-width="1.51"/><path d="M933,684L953,578L853,595Z" fill="#cce982" stroke="#cce982" stroke-width="1.51"/><path d="M670,598L675,651L776,644Z" fill="#e0f19b" stroke="#e0f19b" stroke-width="1.51"/><path d="M776,644L851,750L854,662Z" fill="#c9e885" stroke="#c9e885" stroke-width="1.51"/><path d="M932,481L952,422L871,403Z" fill="#e9f4a0" stroke="#e9f4a0" stroke-width="1.51"/><path d="M1025,477L952,422L932,481Z" fill="#dff29c" stroke="#dff29c" stroke-width="1.51"/><path d="M850,304L766,315L755,394Z" fill="#f8ee9c" stroke="#f8ee9c" stroke-width="1.51"/><path d="M850,304L755,394L871,403Z" fill="#f4f09d" stroke="#f4f09d" stroke-width="1.51"/><path d="M670,598L597,590L675,651Z" fill="#e3ed94" stroke="#e3ed94" stroke-width="1.51"/><path d="M667,514L597,590L670,598Z" fill="#edf09b" stroke="#edf09b" stroke-width="1.51"/><path d="M574,482L597,590L667,514Z" fill="#f3f19e" stroke="#f3f19e" stroke-width="1.51"/><path d="M569,421L574,482L667,514Z" fill="#fcf3a8" stroke="#fcf3a8" stroke-width="1.51"/><path d="M766,315L680,332L755,394Z" fill="#fdf1a7" stroke="#fdf1a7" stroke-width="1.51"/><path d="M569,421L667,514L686,388Z" fill="#fff7b1" stroke="#fff7b1" stroke-width="1.51"/><path d="M944,337L850,304L871,403Z" fill="#edea90" stroke="#edea90" stroke-width="1.51"/><path d="M854,662L933,684L853,595Z" fill="#cbe982" stroke="#cbe982" stroke-width="1.51"/><path d="M851,750L933,684L854,662Z" fill="#c0e47c" stroke="#c0e47c" stroke-width="1.51"/><path d="M953,578L1025,477L932,481Z" fill="#d7ee90" stroke="#d7ee90" stroke-width="1.51"/><path d="M933,684L1006,582L953,578Z" fill="#c6e77e" stroke="#c6e77e" stroke-width="1.51"/><path d="M952,422L944,337L871,403Z" fill="#e8ed95" stroke="#e8ed95" stroke-width="1.51"/><path d="M1042,399L944,337L952,422Z" fill="#e0ea8f" stroke="#e0ea8f" stroke-width="1.51"/><path d="M610,314L569,421L686,388Z" fill="#ffeca0" stroke="#ffeca0" stroke-width="1.51"/><path d="M1006,582L1025,477L953,578Z" fill="#ceea87" stroke="#ceea87" stroke-width="1.51"/><path d="M675,651L743,751L776,644Z" fill="#d4ed94" stroke="#d4ed94" stroke-width="1.51"/><path d="M664,771L743,751L675,651Z" fill="#cbe68f" stroke="#cbe68f" stroke-width="1.51"/><path d="M743,751L851,750L776,644Z" fill="#c5e789" stroke="#c5e789" stroke-width="1.51"/><path d="M597,590L572,660L675,651Z" fill="#e0e88d" stroke="#e0e88d" stroke-width="1.51"/><path d="M515,587L572,660L597,590Z" fill="#e4e688" stroke="#e4e688" stroke-width="1.51"/><path d="M515,587L597,590L574,482Z" fill="#efea91" stroke="#efea91" stroke-width="1.51"/><path d="M680,332L610,314L686,388Z" fill="#ffec9f" stroke="#ffec9f" stroke-width="1.51"/><path d="M693,225L610,314L680,332Z" fill="#ffe295" stroke="#ffe295" stroke-width="1.51"/><path d="M693,225L680,332L766,315Z" fill="#ffe79d" stroke="#ffe79d" stroke-width="1.51"/><path d="M850,304L837,249L766,315Z" fill="#f5e38f" stroke="#f5e38f" stroke-width="1.51"/><path d="M927,213L837,249L850,304Z" fill="#f0da81" stroke="#f0da81" stroke-width="1.51"/><path d="M837,249L776,243L766,315Z" fill="#f8e08f" stroke="#f8e08f" stroke-width="1.51"/><path d="M1025,477L1042,399L952,422Z" fill="#dcee97" stroke="#dcee97" stroke-width="1.51"/><path d="M944,337L927,213L850,304Z" fill="#ebde81" stroke="#ebde81" stroke-width="1.51"/><path d="M1088,475L1042,399L1025,477Z" fill="#d5ed96" stroke="#d5ed96" stroke-width="1.51"/><path d="M500,484L515,587L574,482Z" fill="#f5e994" stroke="#f5e994" stroke-width="1.51"/><path d="M582,751L664,771L675,651Z" fill="#cce287" stroke="#cce287" stroke-width="1.51"/><path d="M743,751L742,823L851,750Z" fill="#b8e089" stroke="#b8e089" stroke-width="1.51"/><path d="M569,421L500,484L574,482Z" fill="#fdeea2" stroke="#fdeea2" stroke-width="1.51"/><path d="M490,414L500,484L569,421Z" fill="#ffea9f" stroke="#ffea9f" stroke-width="1.51"/><path d="M933,684L1037,662L1006,582Z" fill="#bce278" stroke="#bce278" stroke-width="1.51"/><path d="M1006,582L1088,475L1025,477Z" fill="#cdea8a" stroke="#cdea8a" stroke-width="1.51"/><path d="M1035,735L1037,662L933,684Z" fill="#afdd70" stroke="#afdd70" stroke-width="1.51"/><path d="M851,750L940,765L933,684Z" fill="#b3df78" stroke="#b3df78" stroke-width="1.51"/><path d="M916,824L940,765L851,750Z" fill="#a8da77" stroke="#a8da77" stroke-width="1.51"/><path d="M762,154L693,225L776,243Z" fill="#fed68c" stroke="#fed68c" stroke-width="1.51"/><path d="M776,243L693,225L766,315Z" fill="#fee195" stroke="#fee195" stroke-width="1.51"/><path d="M1127,579L1088,475L1006,582Z" fill="#c2e580" stroke="#c2e580" stroke-width="1.51"/><path d="M511,333L490,414L569,421Z" fill="#ffe495" stroke="#ffe495" stroke-width="1.51"/><path d="M511,333L569,421L610,314Z" fill="#ffe594" stroke="#ffe594" stroke-width="1.51"/><path d="M664,771L742,823L743,751Z" fill="#bde191" stroke="#bde191" stroke-width="1.51"/><path d="M664,771L688,860L742,823Z" fill="#b4db8c" stroke="#b4db8c" stroke-width="1.51"/><path d="M572,660L582,751L675,651Z" fill="#d4e385" stroke="#d4e385" stroke-width="1.51"/><path d="M522,756L582,751L572,660Z" fill="#ccdb7b" stroke="#ccdb7b" stroke-width="1.51"/><path d="M742,823L847,831L851,750Z" fill="#aedb83" stroke="#aedb83" stroke-width="1.51"/><path d="M1042,399L1043,307L944,337Z" fill="#dbe384" stroke="#dbe384" stroke-width="1.51"/><path d="M1124,327L1043,307L1042,399Z" fill="#d3df7e" stroke="#d3df7e" stroke-width="1.51"/><path d="M519,248L511,333L610,314Z" fill="#feda85" stroke="#feda85" stroke-width="1.51"/><path d="M1009,213L927,213L944,337Z" fill="#e4d477" stroke="#e4d477" stroke-width="1.51"/><path d="M837,249L762,154L776,243Z" fill="#f9d586" stroke="#f9d586" stroke-width="1.51"/><path d="M693,225L596,237L610,314Z" fill="#ffd98b" stroke="#ffd98b" stroke-width="1.51"/><path d="M1037,662L1127,579L1006,582Z" fill="#bae176" stroke="#bae176" stroke-width="1.51"/><path d="M940,765L1035,735L933,684Z" fill="#acdb72" stroke="#acdb72" stroke-width="1.51"/><path d="M1016,835L1035,735L940,765Z" fill="#9ad46e" stroke="#9ad46e" stroke-width="1.51"/><path d="M847,831L916,824L851,750Z" fill="#a7d97b" stroke="#a7d97b" stroke-width="1.51"/><path d="M515,587L495,684L572,660Z" fill="#dddf7e" stroke="#dddf7e" stroke-width="1.51"/><path d="M438,565L495,684L515,587Z" fill="#e5db7d" stroke="#e5db7d" stroke-width="1.51"/><path d="M438,565L515,587L500,484Z" fill="#f1e089" stroke="#f1e089" stroke-width="1.51"/><path d="M1088,475L1110,402L1042,399Z" fill="#d1e88e" stroke="#d1e88e" stroke-width="1.51"/><path d="M1187,497L1110,402L1088,475Z" fill="#c7e791" stroke="#c7e791" stroke-width="1.51"/><path d="M1108,680L1127,579L1037,662Z" fill="#addc70" stroke="#addc70" stroke-width="1.51"/><path d="M397,507L438,565L500,484Z" fill="#f6dd8a" stroke="#f6dd8a" stroke-width="1.51"/><path d="M430,405L500,484L490,414Z" fill="#ffe398" stroke="#ffe398" stroke-width="1.51"/><path d="M693,225L668,159L596,237Z" fill="#ffd086" stroke="#ffd086" stroke-width="1.51"/><path d="M861,137L762,154L837,249Z" fill="#f6cc7d" stroke="#f6cc7d" stroke-width="1.51"/><path d="M585,823L688,860L664,771Z" fill="#b4d785" stroke="#b4d785" stroke-width="1.51"/><path d="M495,684L522,756L572,660Z" fill="#d2da78" stroke="#d2da78" stroke-width="1.51"/><path d="M421,758L522,756L495,684Z" fill="#cbcf71" stroke="#cbcf71" stroke-width="1.51"/><path d="M742,823L759,928L847,831Z" fill="#a3d483" stroke="#a3d483" stroke-width="1.51"/><path d="M949,924L1016,835L916,824Z" fill="#8cca6c" stroke="#8cca6c" stroke-width="1.51"/><path d="M585,823L664,771L582,751Z" fill="#bed881" stroke="#bed881" stroke-width="1.51"/><path d="M1035,735L1108,680L1037,662Z" fill="#a7da6a" stroke="#a7da6a" stroke-width="1.51"/><path d="M762,154L668,159L693,225Z" fill="#ffce8a" stroke="#ffce8a" stroke-width="1.51"/><path d="M1043,307L1009,213L944,337Z" fill="#ded979" stroke="#ded979" stroke-width="1.51"/><path d="M927,213L861,137L837,249Z" fill="#f0ce77" stroke="#f0ce77" stroke-width="1.51"/><path d="M1122,244L1009,213L1043,307Z" fill="#d6cf6e" stroke="#d6cf6e" stroke-width="1.51"/><path d="M522,756L585,823L582,751Z" fill="#bfd57a" stroke="#bfd57a" stroke-width="1.51"/><path d="M511,333L430,405L490,414Z" fill="#ffdd8e" stroke="#ffdd8e" stroke-width="1.51"/><path d="M399,315L430,405L511,333Z" fill="#ffd583" stroke="#ffd583" stroke-width="1.51"/><path d="M519,248L610,314L596,237Z" fill="#ffd684" stroke="#ffd684" stroke-width="1.51"/><path d="M489,152L519,248L596,237Z" fill="#fec675" stroke="#fec675" stroke-width="1.51"/><path d="M952,162L861,137L927,213Z" fill="#ebc56e" stroke="#ebc56e" stroke-width="1.51"/><path d="M696,45L600,138L668,159Z" fill="#ffb979" stroke="#ffb979" stroke-width="1.51"/><path d="M1176,339L1124,327L1110,402Z" fill="#c8db7f" stroke="#c8db7f" stroke-width="1.51"/><path d="M1110,402L1124,327L1042,399Z" fill="#cfe184" stroke="#cfe184" stroke-width="1.51"/><path d="M1009,213L952,162L927,213Z" fill="#e4c86e" stroke="#e4c86e" stroke-width="1.51"/><path d="M430,405L397,507L500,484Z" fill="#fee094" stroke="#fee094" stroke-width="1.51"/><path d="M438,565L407,681L495,684Z" fill="#dfd374" stroke="#dfd374" stroke-width="1.51"/><path d="M1035,735L1127,767L1108,680Z" fill="#99d369" stroke="#99d369" stroke-width="1.51"/><path d="M916,824L1016,835L940,765Z" fill="#99d371" stroke="#99d371" stroke-width="1.51"/><path d="M949,924L916,824L847,831Z" fill="#95cf72" stroke="#95cf72" stroke-width="1.51"/><path d="M1127,579L1187,497L1088,475Z" fill="#bde284" stroke="#bde284" stroke-width="1.51"/><path d="M1192,579L1187,497L1127,579Z" fill="#b1dd7c" stroke="#b1dd7c" stroke-width="1.51"/><path d="M1179,652L1192,579L1127,579Z" fill="#a7d974" stroke="#a7d974" stroke-width="1.51"/><path d="M1179,652L1127,579L1108,680Z" fill="#a5d870" stroke="#a5d870" stroke-width="1.51"/><path d="M339,560L407,681L438,565Z" fill="#e7cf74" stroke="#e7cf74" stroke-width="1.51"/><path d="M522,756L490,854L585,823Z" fill="#b7ce75" stroke="#b7ce75" stroke-width="1.51"/><path d="M1204,739L1179,652L1108,680Z" fill="#95d168" stroke="#95d168" stroke-width="1.51"/><path d="M696,45L668,159L762,154Z" fill="#ffbf82" stroke="#ffbf82" stroke-width="1.51"/><path d="M668,159L600,138L596,237Z" fill="#ffc67c" stroke="#ffc67c" stroke-width="1.51"/><path d="M688,860L759,928L742,823Z" fill="#a7d58a" stroke="#a7d58a" stroke-width="1.51"/><path d="M673,918L759,928L688,860Z" fill="#a0d087" stroke="#a0d087" stroke-width="1.51"/><path d="M585,908L688,860L585,823Z" fill="#aace7d" stroke="#aace7d" stroke-width="1.51"/><path d="M585,908L673,918L688,860Z" fill="#a3cc7e" stroke="#a3cc7e" stroke-width="1.51"/><path d="M1209,413L1176,339L1110,402Z" fill="#c2dc84" stroke="#c2dc84" stroke-width="1.51"/><path d="M1124,327L1122,244L1043,307Z" fill="#cfd473" stroke="#cfd473" stroke-width="1.51"/><path d="M1009,213L1020,134L952,162Z" fill="#e0c067" stroke="#e0c067" stroke-width="1.51"/><path d="M1109,835L1127,767L1035,735Z" fill="#8bcd67" stroke="#8bcd67" stroke-width="1.51"/><path d="M759,928L828,935L847,831Z" fill="#97cd7c" stroke="#97cd7c" stroke-width="1.51"/><path d="M1176,339L1122,244L1124,327Z" fill="#c7d274" stroke="#c7d274" stroke-width="1.51"/><path d="M1262,393L1209,413L1291,474Z" fill="#b3da8a" stroke="#b3da8a" stroke-width="1.51"/><path d="M1187,497L1209,413L1110,402Z" fill="#c1e290" stroke="#c1e290" stroke-width="1.51"/><path d="M416,234L511,333L519,248Z" fill="#fecb79" stroke="#fecb79" stroke-width="1.51"/><path d="M416,234L399,315L511,333Z" fill="#feca78" stroke="#feca78" stroke-width="1.51"/><path d="M430,405L334,476L397,507Z" fill="#ffd88f" stroke="#ffd88f" stroke-width="1.51"/><path d="M407,681L421,758L495,684Z" fill="#d1cc6d" stroke="#d1cc6d" stroke-width="1.51"/><path d="M952,162L947,81L861,137Z" fill="#eaba69" stroke="#eaba69" stroke-width="1.51"/><path d="M861,137L832,54L762,154Z" fill="#f6bc74" stroke="#f6bc74" stroke-width="1.51"/><path d="M1089,140L1020,134L1009,213Z" fill="#dabc62" stroke="#dabc62" stroke-width="1.51"/><path d="M828,935L949,924L847,831Z" fill="#90ca72" stroke="#90ca72" stroke-width="1.51"/><path d="M1016,835L1109,835L1035,735Z" fill="#8cce68" stroke="#8cce68" stroke-width="1.51"/><path d="M490,854L585,908L585,823Z" fill="#acc973" stroke="#acc973" stroke-width="1.51"/><path d="M742,1025L828,935L759,928Z" fill="#90c37a" stroke="#90c37a" stroke-width="1.51"/><path d="M397,507L339,560L438,565Z" fill="#f2d47e" stroke="#f2d47e" stroke-width="1.51"/><path d="M320,771L412,824L421,758Z" fill="#c1bd64" stroke="#c1bd64" stroke-width="1.51"/><path d="M334,476L339,560L397,507Z" fill="#f7d080" stroke="#f7d080" stroke-width="1.51"/><path d="M421,758L490,854L522,756Z" fill="#bdc96f" stroke="#bdc96f" stroke-width="1.51"/><path d="M326,409L334,476L430,405Z" fill="#ffd28a" stroke="#ffd28a" stroke-width="1.51"/><path d="M1097,918L1109,835L1016,835Z" fill="#7ac362" stroke="#7ac362" stroke-width="1.51"/><path d="M1127,767L1204,739L1108,680Z" fill="#8ece68" stroke="#8ece68" stroke-width="1.51"/><path d="M1020,134L947,81L952,162Z" fill="#e3b763" stroke="#e3b763" stroke-width="1.51"/><path d="M947,81L832,54L861,137Z" fill="#efb368" stroke="#efb368" stroke-width="1.51"/><path d="M949,924L1009,914L1016,835Z" fill="#80c467" stroke="#80c467" stroke-width="1.51"/><path d="M342,338L326,409L430,405Z" fill="#ffcd81" stroke="#ffcd81" stroke-width="1.51"/><path d="M489,152L416,234L519,248Z" fill="#febd6d" stroke="#febd6d" stroke-width="1.51"/><path d="M600,138L489,152L596,237Z" fill="#fec074" stroke="#fec074" stroke-width="1.51"/><path d="M511,81L489,152L600,138Z" fill="#fdb069" stroke="#fdb069" stroke-width="1.51"/><path d="M832,54L773,41L762,154Z" fill="#f8b574" stroke="#f8b574" stroke-width="1.51"/><path d="M247,564L323,686L339,560Z" fill="#e7c06a" stroke="#e7c06a" stroke-width="1.51"/><path d="M342,338L430,405L399,315Z" fill="#ffcd7d" stroke="#ffcd7d" stroke-width="1.51"/><path d="M773,41L696,45L762,154Z" fill="#fdb67a" stroke="#fdb67a" stroke-width="1.51"/><path d="M1197,846L1204,739L1127,767Z" fill="#7ac666" stroke="#7ac666" stroke-width="1.51"/><path d="M1179,652L1266,587L1192,579Z" fill="#9ed572" stroke="#9ed572" stroke-width="1.51"/><path d="M1192,579L1266,587L1187,497Z" fill="#a8d97b" stroke="#a8d97b" stroke-width="1.51"/><path d="M339,214L342,338L399,315Z" fill="#febd6d" stroke="#febd6d" stroke-width="1.51"/><path d="M1122,244L1089,140L1009,213Z" fill="#d5c364" stroke="#d5c364" stroke-width="1.51"/><path d="M1020,134L1005,74L947,81Z" fill="#e0af5d" stroke="#e0af5d" stroke-width="1.51"/><path d="M1182,163L1089,140L1122,244Z" fill="#ccba60" stroke="#ccba60" stroke-width="1.51"/><path d="M1181,225L1122,244L1176,339Z" fill="#c5ca6e" stroke="#c5ca6e" stroke-width="1.51"/><path d="M1268,666L1266,587L1179,652Z" fill="#94d06e" stroke="#94d06e" stroke-width="1.51"/><path d="M1262,393L1176,339L1209,413Z" fill="#bad883" stroke="#bad883" stroke-width="1.51"/><path d="M1288,335L1181,225L1176,339Z" fill="#bbcc72" stroke="#bbcc72" stroke-width="1.51"/><path d="M947,81L858,-9L832,54Z" fill="#eaa962" stroke="#eaa962" stroke-width="1.51"/><path d="M832,54L858,-9L773,41Z" fill="#f0a969" stroke="#f0a969" stroke-width="1.51"/><path d="M1089,140L1005,74L1020,134Z" fill="#dab15c" stroke="#dab15c" stroke-width="1.51"/><path d="M421,758L412,824L490,854Z" fill="#b9c16a" stroke="#b9c16a" stroke-width="1.51"/><path d="M490,854L513,945L585,908Z" fill="#a3c06d" stroke="#a3c06d" stroke-width="1.51"/><path d="M323,686L421,758L407,681Z" fill="#d2c566" stroke="#d2c566" stroke-width="1.51"/><path d="M1291,474L1209,413L1187,497Z" fill="#b4df8e" stroke="#b4df8e" stroke-width="1.51"/><path d="M247,564L339,560L334,476Z" fill="#f4c677" stroke="#f4c677" stroke-width="1.51"/><path d="M339,560L323,686L407,681Z" fill="#e0c76a" stroke="#e0c76a" stroke-width="1.51"/><path d="M489,152L428,165L416,234Z" fill="#fdb266" stroke="#fdb266" stroke-width="1.51"/><path d="M416,234L339,214L399,315Z" fill="#feb96a" stroke="#feb96a" stroke-width="1.51"/><path d="M400,53L428,165L489,152Z" fill="#fba25e" stroke="#fba25e" stroke-width="1.51"/><path d="M696,45L572,57L600,138Z" fill="#fdae70" stroke="#fdae70" stroke-width="1.51"/><path d="M1266,587L1291,474L1187,497Z" fill="#a8d981" stroke="#a8d981" stroke-width="1.51"/><path d="M1266,587L1349,588L1291,474Z" fill="#9bd177" stroke="#9bd177" stroke-width="1.51"/><path d="M1204,739L1268,666L1179,652Z" fill="#8dcd68" stroke="#8dcd68" stroke-width="1.51"/><path d="M828,935L845,1015L949,924Z" fill="#85bf6d" stroke="#85bf6d" stroke-width="1.51"/><path d="M949,924L1041,1004L1009,914Z" fill="#74b962" stroke="#74b962" stroke-width="1.51"/><path d="M742,1025L845,1015L828,935Z" fill="#89bb73" stroke="#89bb73" stroke-width="1.51"/><path d="M742,1025L759,928L673,918Z" fill="#96c782" stroke="#96c782" stroke-width="1.51"/><path d="M572,57L511,81L600,138Z" fill="#fcab68" stroke="#fcab68" stroke-width="1.51"/><path d="M1204,739L1262,772L1268,666Z" fill="#7dc765" stroke="#7dc765" stroke-width="1.51"/><path d="M1109,835L1197,846L1127,767Z" fill="#78c465" stroke="#78c465" stroke-width="1.51"/><path d="M1009,914L1097,918L1016,835Z" fill="#79c163" stroke="#79c163" stroke-width="1.51"/><path d="M1041,1004L1097,918L1009,914Z" fill="#6cb75d" stroke="#6cb75d" stroke-width="1.51"/><path d="M670,1023L742,1025L673,918Z" fill="#93be7b" stroke="#93be7b" stroke-width="1.51"/><path d="M427,914L513,945L490,854Z" fill="#a4b967" stroke="#a4b967" stroke-width="1.51"/><path d="M670,1023L673,918L585,908Z" fill="#99c279" stroke="#99c279" stroke-width="1.51"/><path d="M753,-35L679,-15L696,45Z" fill="#f8a572" stroke="#f8a572" stroke-width="1.51"/><path d="M696,45L583,-5L572,57Z" fill="#f9a469" stroke="#f9a469" stroke-width="1.51"/><path d="M941,-47L858,-9L947,81Z" fill="#e3a159" stroke="#e3a159" stroke-width="1.51"/><path d="M572,1027L670,1023L585,908Z" fill="#95b770" stroke="#95b770" stroke-width="1.51"/><path d="M1089,140L1123,72L1005,74Z" fill="#d5aa57" stroke="#d5aa57" stroke-width="1.51"/><path d="M1005,74L941,-47L947,81Z" fill="#dfa458" stroke="#dfa458" stroke-width="1.51"/><path d="M1181,225L1182,163L1122,244Z" fill="#c7be64" stroke="#c7be64" stroke-width="1.51"/><path d="M1266,130L1182,163L1181,225Z" fill="#bfb35e" stroke="#bfb35e" stroke-width="1.51"/><path d="M1288,335L1176,339L1262,393Z" fill="#b6d27c" stroke="#b6d27c" stroke-width="1.51"/><path d="M1097,918L1197,846L1109,835Z" fill="#6ebd61" stroke="#6ebd61" stroke-width="1.51"/><path d="M1358,403L1288,335L1262,393Z" fill="#acce7d" stroke="#acce7d" stroke-width="1.51"/><path d="M412,824L427,914L490,854Z" fill="#aeba66" stroke="#aeba66" stroke-width="1.51"/><path d="M323,686L320,771L421,758Z" fill="#cbbd62" stroke="#cbbd62" stroke-width="1.51"/><path d="M233,741L320,771L323,686Z" fill="#cdb45d" stroke="#cdb45d" stroke-width="1.51"/><path d="M326,409L261,410L334,476Z" fill="#ffc885" stroke="#ffc885" stroke-width="1.51"/><path d="M342,338L261,410L326,409Z" fill="#ffc37b" stroke="#ffc37b" stroke-width="1.51"/><path d="M240,310L261,410L342,338Z" fill="#feba72" stroke="#feba72" stroke-width="1.51"/><path d="M753,-35L696,45L773,41Z" fill="#f7a972" stroke="#f7a972" stroke-width="1.51"/><path d="M572,57L486,-39L511,81Z" fill="#f69a5c" stroke="#f69a5c" stroke-width="1.51"/><path d="M428,165L339,214L416,234Z" fill="#fdb063" stroke="#fdb063" stroke-width="1.51"/><path d="M345,128L339,214L428,165Z" fill="#fca45b" stroke="#fca45b" stroke-width="1.51"/><path d="M513,945L572,1027L585,908Z" fill="#98b86b" stroke="#98b86b" stroke-width="1.51"/><path d="M333,846L427,914L412,824Z" fill="#b0b360" stroke="#b0b360" stroke-width="1.51"/><path d="M845,1015L931,1032L949,924Z" fill="#7db665" stroke="#7db665" stroke-width="1.51"/><path d="M742,1025L931,1032L845,1015Z" fill="#82b36a" stroke="#82b36a" stroke-width="1.51"/><path d="M492,1033L931,1032L742,1025Z" fill="#8eb77a" stroke="#8eb77a" stroke-width="1.51"/><path d="M1197,846L1262,772L1204,739Z" fill="#71c265" stroke="#71c265" stroke-width="1.51"/><path d="M1268,666L1349,588L1266,587Z" fill="#8fcc6e" stroke="#8fcc6e" stroke-width="1.51"/><path d="M233,497L247,564L334,476Z" fill="#f7c178" stroke="#f7c178" stroke-width="1.51"/><path d="M858,-9L753,-35L773,41Z" fill="#f0a468" stroke="#f0a468" stroke-width="1.51"/><path d="M1182,163L1123,72L1089,140Z" fill="#ccad59" stroke="#ccad59" stroke-width="1.51"/><path d="M261,410L233,497L334,476Z" fill="#ffc584" stroke="#ffc584" stroke-width="1.51"/><path d="M931,1032L1041,1004L949,924Z" fill="#74b360" stroke="#74b360" stroke-width="1.51"/><path d="M1186,937L1260,841L1197,846Z" fill="#5bb55e" stroke="#5bb55e" stroke-width="1.51"/><path d="M679,-15L583,-5L696,45Z" fill="#f7a26b" stroke="#f7a26b" stroke-width="1.51"/><path d="M400,53L345,128L428,165Z" fill="#fb9957" stroke="#fb9957" stroke-width="1.51"/><path d="M611,-108L583,-5L679,-15Z" fill="#f09661" stroke="#f09661" stroke-width="1.51"/><path d="M670,1023L572,1027L742,1025Z" fill="#8fb373" stroke="#8fb373" stroke-width="1.51"/><path d="M492,1033L572,1027L513,945Z" fill="#94ac63" stroke="#94ac63" stroke-width="1.51"/><path d="M320,771L333,846L412,824Z" fill="#bab560" stroke="#bab560" stroke-width="1.51"/><path d="M437,1008L492,1033L513,945Z" fill="#96a75e" stroke="#96a75e" stroke-width="1.51"/><path d="M261,826L333,846L320,771Z" fill="#bbad5c" stroke="#bbad5c" stroke-width="1.51"/><path d="M1386,651L1349,588L1268,666Z" fill="#84c568" stroke="#84c568" stroke-width="1.51"/><path d="M1291,474L1358,403L1262,393Z" fill="#abd486" stroke="#abd486" stroke-width="1.51"/><path d="M1349,588L1360,471L1291,474Z" fill="#9cd07e" stroke="#9cd07e" stroke-width="1.51"/><path d="M1370,745L1386,651L1268,666Z" fill="#77c061" stroke="#77c061" stroke-width="1.51"/><path d="M1197,846L1260,841L1262,772Z" fill="#65bc62" stroke="#65bc62" stroke-width="1.51"/><path d="M1186,937L1197,846L1097,918Z" fill="#60b65d" stroke="#60b65d" stroke-width="1.51"/><path d="M1288,335L1297,240L1181,225Z" fill="#b6c26b" stroke="#b6c26b" stroke-width="1.51"/><path d="M1182,163L1208,82L1123,72Z" fill="#c6a656" stroke="#c6a656" stroke-width="1.51"/><path d="M1382,317L1297,240L1288,335Z" fill="#abc16d" stroke="#abc16d" stroke-width="1.51"/><path d="M1039,-38L941,-47L1005,74Z" fill="#d79b50" stroke="#d79b50" stroke-width="1.51"/><path d="M858,-9L779,-101L753,-35Z" fill="#e99b64" stroke="#e99b64" stroke-width="1.51"/><path d="M1360,471L1358,403L1291,474Z" fill="#a5d48a" stroke="#a5d48a" stroke-width="1.51"/><path d="M339,214L240,310L342,338Z" fill="#fdb368" stroke="#fdb368" stroke-width="1.51"/><path d="M261,410L164,421L233,497Z" fill="#ffba7f" stroke="#ffba7f" stroke-width="1.51"/><path d="M177,599L231,686L247,564Z" fill="#e5b161" stroke="#e5b161" stroke-width="1.51"/><path d="M247,564L231,686L323,686Z" fill="#dfb862" stroke="#dfb862" stroke-width="1.51"/><path d="M1109,1013L1186,937L1097,918Z" fill="#5cae59" stroke="#5cae59" stroke-width="1.51"/><path d="M339,214L233,252L240,310Z" fill="#fca660" stroke="#fca660" stroke-width="1.51"/><path d="M400,53L489,152L511,81Z" fill="#fb9f5d" stroke="#fb9f5d" stroke-width="1.51"/><path d="M1041,1004L1109,1013L1097,918Z" fill="#63ad58" stroke="#63ad58" stroke-width="1.51"/><path d="M931,1032L1109,1013L1041,1004Z" fill="#69a957" stroke="#69a957" stroke-width="1.51"/><path d="M437,1008L513,945L427,914Z" fill="#9cad5f" stroke="#9cad5f" stroke-width="1.51"/><path d="M572,1027L492,1033L742,1025Z" fill="#90ae6a" stroke="#90ae6a" stroke-width="1.51"/><path d="M486,-39L400,53L511,81Z" fill="#f59255" stroke="#f59255" stroke-width="1.51"/><path d="M352,937L437,1008L427,914Z" fill="#9ea65a" stroke="#9ea65a" stroke-width="1.51"/><path d="M231,686L233,741L323,686Z" fill="#d4b15a" stroke="#d4b15a" stroke-width="1.51"/><path d="M1108,-4L1039,-38L1005,74Z" fill="#d19b4d" stroke="#d19b4d" stroke-width="1.51"/><path d="M1266,130L1208,82L1182,163Z" fill="#bfa657" stroke="#bfa657" stroke-width="1.51"/><path d="M1108,-4L1005,74L1123,72Z" fill="#d0a050" stroke="#d0a050" stroke-width="1.51"/><path d="M1204,-27L1108,-4L1123,72Z" fill="#c3954b" stroke="#c3954b" stroke-width="1.51"/><path d="M352,937L427,914L333,846Z" fill="#a8ab5a" stroke="#a8ab5a" stroke-width="1.51"/><path d="M244,927L352,937L333,846Z" fill="#a8a155" stroke="#a8a155" stroke-width="1.51"/><path d="M258,128L233,252L339,214Z" fill="#fb9a57" stroke="#fb9a57" stroke-width="1.51"/><path d="M143,485L177,599L233,497Z" fill="#f3b26d" stroke="#f3b26d" stroke-width="1.51"/><path d="M233,497L177,599L247,564Z" fill="#f0b56b" stroke="#f0b56b" stroke-width="1.51"/><path d="M258,128L339,214L345,128Z" fill="#fb9655" stroke="#fb9655" stroke-width="1.51"/><path d="M1208,82L1204,-27L1123,72Z" fill="#c1984d" stroke="#c1984d" stroke-width="1.51"/><path d="M1297,240L1266,130L1181,225Z" fill="#bab560" stroke="#bab560" stroke-width="1.51"/><path d="M1351,165L1266,130L1297,240Z" fill="#b1ab5a" stroke="#b1ab5a" stroke-width="1.51"/><path d="M753,-35L673,-120L679,-15Z" fill="#ef9b6c" stroke="#ef9b6c" stroke-width="1.51"/><path d="M583,-5L486,-39L572,57Z" fill="#f4985b" stroke="#f4985b" stroke-width="1.51"/><path d="M838,-107L779,-101L858,-9Z" fill="#e1975f" stroke="#e1975f" stroke-width="1.51"/><path d="M838,-107L858,-9L920,-112Z" fill="#db9559" stroke="#db9559" stroke-width="1.51"/><path d="M233,741L261,826L320,771Z" fill="#c3ab59" stroke="#c3ab59" stroke-width="1.51"/><path d="M1451,474L1446,423L1360,471Z" fill="#97ca84" stroke="#97ca84" stroke-width="1.51"/><path d="M1446,423L1382,317L1358,403Z" fill="#9dc578" stroke="#9dc578" stroke-width="1.51"/><path d="M1370,745L1268,666L1262,772Z" fill="#74c062" stroke="#74c062" stroke-width="1.51"/><path d="M164,421L261,410L240,310Z" fill="#feb372" stroke="#feb372" stroke-width="1.51"/><path d="M231,686L146,747L233,741Z" fill="#cfa555" stroke="#cfa555" stroke-width="1.51"/><path d="M233,741L158,843L261,826Z" fill="#bea054" stroke="#bea054" stroke-width="1.51"/><path d="M920,-112L858,-9L941,-47Z" fill="#db9654" stroke="#db9654" stroke-width="1.51"/><path d="M1358,403L1382,317L1288,335Z" fill="#a6c875" stroke="#a6c875" stroke-width="1.51"/><path d="M1446,423L1358,403L1360,471Z" fill="#9dcc83" stroke="#9dcc83" stroke-width="1.51"/><path d="M1366,821L1370,745L1262,772Z" fill="#5fb75f" stroke="#5fb75f" stroke-width="1.51"/><path d="M1186,937L1289,930L1260,841Z" fill="#4eae5b" stroke="#4eae5b" stroke-width="1.51"/><path d="M1109,1013L1191,990L1186,937Z" fill="#53a756" stroke="#53a756" stroke-width="1.51"/><path d="M515,-94L486,-39L583,-5Z" fill="#ed8b54" stroke="#ed8b54" stroke-width="1.51"/><path d="M1366,821L1262,772L1260,841Z" fill="#5cb760" stroke="#5cb760" stroke-width="1.51"/><path d="M147,328L164,421L240,310Z" fill="#fca969" stroke="#fca969" stroke-width="1.51"/><path d="M1009,-92L941,-47L1039,-38Z" fill="#cf914c" stroke="#cf914c" stroke-width="1.51"/><path d="M1009,-92L920,-112L941,-47Z" fill="#cf9050" stroke="#cf9050" stroke-width="1.51"/><path d="M920,-112L673,-120L838,-107Z" fill="#da9261" stroke="#da9261" stroke-width="1.51"/><path d="M838,-107L673,-120L779,-101Z" fill="#e09468" stroke="#e09468" stroke-width="1.51"/><path d="M779,-101L673,-120L753,-35Z" fill="#e8996c" stroke="#e8996c" stroke-width="1.51"/><path d="M1094,-98L1009,-92L1039,-38Z" fill="#c48c47" stroke="#c48c47" stroke-width="1.51"/><path d="M1094,-98L1039,-38L1108,-4Z" fill="#c68f46" stroke="#c68f46" stroke-width="1.51"/><path d="M177,599L163,665L231,686Z" fill="#ddab5a" stroke="#ddab5a" stroke-width="1.51"/><path d="M79,559L163,665L177,599Z" fill="#e2a65b" stroke="#e2a65b" stroke-width="1.51"/><path d="M673,-120L611,-108L679,-15Z" fill="#e89465" stroke="#e89465" stroke-width="1.51"/><path d="M412,-29L346,41L400,53Z" fill="#f3834b" stroke="#f3834b" stroke-width="1.51"/><path d="M400,53L346,41L345,128Z" fill="#f88a4f" stroke="#f88a4f" stroke-width="1.51"/><path d="M164,421L143,485L233,497Z" fill="#fcb479" stroke="#fcb479" stroke-width="1.51"/><path d="M1266,130L1264,71L1208,82Z" fill="#ba9d53" stroke="#ba9d53" stroke-width="1.51"/><path d="M1352,67L1264,71L1266,130Z" fill="#b39750" stroke="#b39750" stroke-width="1.51"/><path d="M176,236L147,328L240,310Z" fill="#fb9f5f" stroke="#fb9f5f" stroke-width="1.51"/><path d="M76,398L70,476L143,485Z" fill="#f9aa75" stroke="#f9aa75" stroke-width="1.51"/><path d="M346,41L258,128L345,128Z" fill="#f8874e" stroke="#f8874e" stroke-width="1.51"/><path d="M1191,990L1289,930L1186,937Z" fill="#48a858" stroke="#48a858" stroke-width="1.51"/><path d="M352,937L347,996L437,1008Z" fill="#9a9d54" stroke="#9a9d54" stroke-width="1.51"/><path d="M437,1008L347,996L492,1033Z" fill="#959d56" stroke="#959d56" stroke-width="1.51"/><path d="M244,927L347,996L352,937Z" fill="#9f9951" stroke="#9f9951" stroke-width="1.51"/><path d="M244,927L333,846L261,826Z" fill="#b0a155" stroke="#b0a155" stroke-width="1.51"/><path d="M1370,745L1449,647L1386,651Z" fill="#6fba5f" stroke="#6fba5f" stroke-width="1.51"/><path d="M1289,930L1366,821L1260,841Z" fill="#4dae5b" stroke="#4dae5b" stroke-width="1.51"/><path d="M346,41L242,42L258,128Z" fill="#f57a48" stroke="#f57a48" stroke-width="1.51"/><path d="M486,-39L412,-29L400,53Z" fill="#f1854d" stroke="#f1854d" stroke-width="1.51"/><path d="M428,-97L412,-29L486,-39Z" fill="#e97e4a" stroke="#e97e4a" stroke-width="1.51"/><path d="M1380,217L1351,165L1297,240Z" fill="#abae5c" stroke="#abae5c" stroke-width="1.51"/><path d="M1382,317L1380,217L1297,240Z" fill="#a8b664" stroke="#a8b664" stroke-width="1.51"/><path d="M428,-97L515,-94L611,-108Z" fill="#e18453" stroke="#e18453" stroke-width="1.51"/><path d="M611,-108L515,-94L583,-5Z" fill="#e98e59" stroke="#e98e59" stroke-width="1.51"/><path d="M1382,317L1448,228L1380,217Z" fill="#a0b061" stroke="#a0b061" stroke-width="1.51"/><path d="M1451,474L1360,471L1349,588Z" fill="#93ca7b" stroke="#93ca7b" stroke-width="1.51"/><path d="M1451,474L1349,588L1458,601Z" fill="#88c370" stroke="#88c370" stroke-width="1.51"/><path d="M1458,601L1349,588L1386,651Z" fill="#7fc167" stroke="#7fc167" stroke-width="1.51"/><path d="M176,236L240,310L233,252Z" fill="#fb9e5c" stroke="#fb9e5c" stroke-width="1.51"/><path d="M164,168L176,236L233,252Z" fill="#f98f53" stroke="#f98f53" stroke-width="1.51"/><path d="M1467,770L1449,647L1370,745Z" fill="#62b25a" stroke="#62b25a" stroke-width="1.51"/><path d="M1449,647L1458,601L1386,651Z" fill="#77bb63" stroke="#77bb63" stroke-width="1.51"/><path d="M1290,-19L1204,-27L1264,71Z" fill="#b38c47" stroke="#b38c47" stroke-width="1.51"/><path d="M1264,71L1204,-27L1208,82Z" fill="#b9954d" stroke="#b9954d" stroke-width="1.51"/><path d="M1009,-92L1094,-98L920,-112Z" fill="#c48b4b" stroke="#c48b4b" stroke-width="1.51"/><path d="M1204,-27L1094,-98L1108,-4Z" fill="#be8b45" stroke="#be8b45" stroke-width="1.51"/><path d="M163,665L146,747L231,686Z" fill="#d3a553" stroke="#d3a553" stroke-width="1.51"/><path d="M55,681L146,747L163,665Z" fill="#d09d4f" stroke="#d09d4f" stroke-width="1.51"/><path d="M158,843L244,927L261,826Z" fill="#b09850" stroke="#b09850" stroke-width="1.51"/><path d="M1446,423L1459,318L1382,317Z" fill="#9abd70" stroke="#9abd70" stroke-width="1.51"/><path d="M1466,147L1352,67L1351,165Z" fill="#a6964f" stroke="#a6964f" stroke-width="1.51"/><path d="M1557,397L1459,318L1446,423Z" fill="#94b871" stroke="#94b871" stroke-width="1.51"/><path d="M1531,493L1446,423L1451,474Z" fill="#92c17d" stroke="#92c17d" stroke-width="1.51"/><path d="M428,-97L333,-26L412,-29Z" fill="#e97644" stroke="#e97644" stroke-width="1.51"/><path d="M412,-29L333,-26L346,41Z" fill="#ef7945" stroke="#ef7945" stroke-width="1.51"/><path d="M258,128L164,168L233,252Z" fill="#f98b50" stroke="#f98b50" stroke-width="1.51"/><path d="M515,-94L428,-97L486,-39Z" fill="#e5804e" stroke="#e5804e" stroke-width="1.51"/><path d="M673,-120L428,-97L611,-108Z" fill="#e08959" stroke="#e08959" stroke-width="1.51"/><path d="M143,485L79,559L177,599Z" fill="#eda964" stroke="#eda964" stroke-width="1.51"/><path d="M70,476L79,559L143,485Z" fill="#f1a76a" stroke="#f1a76a" stroke-width="1.51"/><path d="M169,40L164,168L258,128Z" fill="#f57445" stroke="#f57445" stroke-width="1.51"/><path d="M78,220L55,321L147,328Z" fill="#f39155" stroke="#f39155" stroke-width="1.51"/><path d="M76,398L143,485L164,421Z" fill="#fbac75" stroke="#fbac75" stroke-width="1.51"/><path d="M146,747L158,843L233,741Z" fill="#c29d51" stroke="#c29d51" stroke-width="1.51"/><path d="M68,768L158,843L146,747Z" fill="#bc954c" stroke="#bc954c" stroke-width="1.51"/><path d="M76,398L164,421L147,328Z" fill="#f9a66a" stroke="#f9a66a" stroke-width="1.51"/><path d="M1204,-27L1204,-92L1094,-98Z" fill="#b48644" stroke="#b48644" stroke-width="1.51"/><path d="M1351,165L1352,67L1266,130Z" fill="#af9c52" stroke="#af9c52" stroke-width="1.51"/><path d="M1466,147L1351,165L1380,217Z" fill="#a3a155" stroke="#a3a155" stroke-width="1.51"/><path d="M169,40L242,42L174,-47Z" fill="#eb5b39" stroke="#eb5b39" stroke-width="1.51"/><path d="M333,-26L242,42L346,41Z" fill="#f07444" stroke="#f07444" stroke-width="1.51"/><path d="M1459,318L1448,228L1382,317Z" fill="#9cb364" stroke="#9cb364" stroke-width="1.51"/><path d="M55,321L76,398L147,328Z" fill="#f69c60" stroke="#f69c60" stroke-width="1.51"/><path d="M1289,930L1387,942L1366,821Z" fill="#3aa457" stroke="#3aa457" stroke-width="1.51"/><path d="M1366,821L1467,770L1370,745Z" fill="#53af5b" stroke="#53af5b" stroke-width="1.51"/><path d="M1191,990L1295,1026L1289,930Z" fill="#3e9f53" stroke="#3e9f53" stroke-width="1.51"/><path d="M1109,1013L1295,1026L1191,990Z" fill="#489e52" stroke="#489e52" stroke-width="1.51"/><path d="M931,1032L1295,1026L1109,1013Z" fill="#59a252" stroke="#59a252" stroke-width="1.51"/><path d="M1458,601L1531,493L1451,474Z" fill="#88bc71" stroke="#88bc71" stroke-width="1.51"/><path d="M1541,589L1531,493L1458,601Z" fill="#80b567" stroke="#80b567" stroke-width="1.51"/><path d="M1458,826L1467,770L1366,821Z" fill="#47a958" stroke="#47a958" stroke-width="1.51"/><path d="M1352,67L1290,-19L1264,71Z" fill="#ae8d49" stroke="#ae8d49" stroke-width="1.51"/><path d="M1094,-98L1262,-111L920,-112Z" fill="#b88646" stroke="#b88646" stroke-width="1.51"/><path d="M1262,-111L1204,-92L1204,-27Z" fill="#aa8143" stroke="#aa8143" stroke-width="1.51"/><path d="M1379,993L1387,942L1289,930Z" fill="#2b9a51" stroke="#2b9a51" stroke-width="1.51"/><path d="M1464,904L1458,826L1366,821Z" fill="#3aa255" stroke="#3aa255" stroke-width="1.51"/><path d="M1458,601L1449,647L1542,657Z" fill="#72b35e" stroke="#72b35e" stroke-width="1.51"/><path d="M1541,589L1458,601L1542,657Z" fill="#74b05f" stroke="#74b05f" stroke-width="1.51"/><path d="M1522,154L1466,147L1448,228Z" fill="#9b964f" stroke="#9b964f" stroke-width="1.51"/><path d="M165,935L226,1001L244,927Z" fill="#a08948" stroke="#a08948" stroke-width="1.51"/><path d="M244,927L226,1001L347,996Z" fill="#9c8e4b" stroke="#9c8e4b" stroke-width="1.51"/><path d="M347,996L226,1001L492,1033Z" fill="#97934f" stroke="#97934f" stroke-width="1.51"/><path d="M79,559L55,681L163,665Z" fill="#da9f54" stroke="#da9f54" stroke-width="1.51"/><path d="M158,843L165,935L244,927Z" fill="#a88e4a" stroke="#a88e4a" stroke-width="1.51"/><path d="M-6,656L55,681L79,559Z" fill="#d7974f" stroke="#d7974f" stroke-width="1.51"/><path d="M82,915L165,935L158,843Z" fill="#a68846" stroke="#a68846" stroke-width="1.51"/><path d="M70,476L-12,505L79,559Z" fill="#ec9f64" stroke="#ec9f64" stroke-width="1.51"/><path d="M-17,388L-12,505L70,476Z" fill="#f29e6d" stroke="#f29e6d" stroke-width="1.51"/><path d="M78,220L147,328L176,236Z" fill="#f69054" stroke="#f69054" stroke-width="1.51"/><path d="M78,220L176,236L164,168Z" fill="#f5864c" stroke="#f5864c" stroke-width="1.51"/><path d="M1542,657L1449,647L1530,742Z" fill="#66ab57" stroke="#66ab57" stroke-width="1.51"/><path d="M1387,942L1464,904L1366,821Z" fill="#2f9f54" stroke="#2f9f54" stroke-width="1.51"/><path d="M1295,1026L1379,993L1289,930Z" fill="#309750" stroke="#309750" stroke-width="1.51"/><path d="M55,681L68,768L146,747Z" fill="#c6964b" stroke="#c6964b" stroke-width="1.51"/><path d="M65,136L78,220L164,168Z" fill="#f07745" stroke="#f07745" stroke-width="1.51"/><path d="M1530,742L1449,647L1467,770Z" fill="#5eab57" stroke="#5eab57" stroke-width="1.51"/><path d="M1530,742L1467,770L1533,843Z" fill="#499f53" stroke="#499f53" stroke-width="1.51"/><path d="M1542,229L1448,228L1459,318Z" fill="#99a65b" stroke="#99a65b" stroke-width="1.51"/><path d="M1448,228L1466,147L1380,217Z" fill="#9fa155" stroke="#9fa155" stroke-width="1.51"/><path d="M1355,-40L1262,-111L1290,-19Z" fill="#a37c40" stroke="#a37c40" stroke-width="1.51"/><path d="M242,42L169,40L258,128Z" fill="#f36e43" stroke="#f36e43" stroke-width="1.51"/><path d="M244,-47L242,42L333,-26Z" fill="#ec663d" stroke="#ec663d" stroke-width="1.51"/><path d="M1533,843L1467,770L1458,826Z" fill="#41a054" stroke="#41a054" stroke-width="1.51"/><path d="M1542,657L1557,397L1541,589Z" fill="#7fb167" stroke="#7fb167" stroke-width="1.51"/><path d="M1541,589L1557,397L1531,493Z" fill="#88b573" stroke="#88b573" stroke-width="1.51"/><path d="M1531,493L1557,397L1446,423Z" fill="#91bb7b" stroke="#91bb7b" stroke-width="1.51"/><path d="M310,-108L244,-47L333,-26Z" fill="#e4633c" stroke="#e4633c" stroke-width="1.51"/><path d="M428,-97L310,-108L333,-26Z" fill="#e26d41" stroke="#e26d41" stroke-width="1.51"/><path d="M673,-120L310,-108L428,-97Z" fill="#de7b4d" stroke="#de7b4d" stroke-width="1.51"/><path d="M1290,-19L1262,-111L1204,-27Z" fill="#ab8242" stroke="#ab8242" stroke-width="1.51"/><path d="M1204,-92L1262,-111L1094,-98Z" fill="#ab8044" stroke="#ab8044" stroke-width="1.51"/><path d="M920,-112L1453,-129L673,-120Z" fill="#bf884b" stroke="#bf884b" stroke-width="1.51"/><path d="M1355,-40L1290,-19L1352,67Z" fill="#a78343" stroke="#a78343" stroke-width="1.51"/><path d="M1434,1010L1464,904L1387,942Z" fill="#17924c" stroke="#17924c" stroke-width="1.51"/><path d="M79,990L171,1001L165,935Z" fill="#997b3f" stroke="#997b3f" stroke-width="1.51"/><path d="M165,935L171,1001L226,1001Z" fill="#9b8143" stroke="#9b8143" stroke-width="1.51"/><path d="M226,1001L171,1001L492,1033Z" fill="#988a49" stroke="#988a49" stroke-width="1.51"/><path d="M1452,46L1355,-40L1352,67Z" fill="#a18242" stroke="#a18242" stroke-width="1.51"/><path d="M1557,397L1558,320L1459,318Z" fill="#92ae67" stroke="#92ae67" stroke-width="1.51"/><path d="M-17,388L70,476L76,398Z" fill="#f49e6a" stroke="#f49e6a" stroke-width="1.51"/><path d="M4,752L57,844L68,768Z" fill="#b78a45" stroke="#b78a45" stroke-width="1.51"/><path d="M-17,388L76,398L55,321Z" fill="#f3975f" stroke="#f3975f" stroke-width="1.51"/><path d="M68,768L57,844L158,843Z" fill="#b48d48" stroke="#b48d48" stroke-width="1.51"/><path d="M4,752L68,768L55,681Z" fill="#c38f46" stroke="#c38f46" stroke-width="1.51"/><path d="M1558,320L1542,229L1459,318Z" fill="#94a65d" stroke="#94a65d" stroke-width="1.51"/><path d="M1466,147L1452,46L1352,67Z" fill="#a18a48" stroke="#a18a48" stroke-width="1.51"/><path d="M-28,590L-6,656L79,559Z" fill="#da9652" stroke="#da9652" stroke-width="1.51"/><path d="M1541,70L1452,46L1466,147Z" fill="#9b8143" stroke="#9b8143" stroke-width="1.51"/><path d="M310,-108L256,-103L244,-47Z" fill="#dd5a3a" stroke="#dd5a3a" stroke-width="1.51"/><path d="M244,-47L174,-47L242,42Z" fill="#e85938" stroke="#e85938" stroke-width="1.51"/><path d="M57,844L82,915L158,843Z" fill="#aa8745" stroke="#aa8745" stroke-width="1.51"/><path d="M-12,505L-28,590L79,559Z" fill="#e29a5a" stroke="#e29a5a" stroke-width="1.51"/><path d="M-36,338L-17,388L55,321Z" fill="#ed905a" stroke="#ed905a" stroke-width="1.51"/><path d="M-36,338L55,321L-22,216Z" fill="#ea8650" stroke="#ea8650" stroke-width="1.51"/><path d="M169,40L65,136L164,168Z" fill="#f06b41" stroke="#f06b41" stroke-width="1.51"/><path d="M73,46L65,136L169,40Z" fill="#eb5a39" stroke="#eb5a39" stroke-width="1.51"/><path d="M1542,657L1561,992L1557,397Z" fill="#62a453" stroke="#62a453" stroke-width="1.51"/><path d="M1530,742L1533,843L1542,657Z" fill="#53a052" stroke="#53a052" stroke-width="1.51"/><path d="M1464,904L1533,843L1458,826Z" fill="#349950" stroke="#349950" stroke-width="1.51"/><path d="M1527,905L1533,843L1464,904Z" fill="#2a924d" stroke="#2a924d" stroke-width="1.51"/><path d="M1379,993L1434,1010L1387,942Z" fill="#1a8f4b" stroke="#1a8f4b" stroke-width="1.51"/><path d="M1295,1026L1434,1010L1379,993Z" fill="#218d4a" stroke="#218d4a" stroke-width="1.51"/><path d="M1542,229L1522,154L1448,228Z" fill="#989851" stroke="#989851" stroke-width="1.51"/><path d="M-95,560L-28,590L-12,505Z" fill="#da9459" stroke="#da9459" stroke-width="1.51"/><path d="M-24,906L79,990L82,915Z" fill="#99773b" stroke="#99773b" stroke-width="1.51"/><path d="M-6,656L4,752L55,681Z" fill="#c89046" stroke="#c89046" stroke-width="1.51"/><path d="M-99,766L4,752L-6,656Z" fill="#bb8845" stroke="#bb8845" stroke-width="1.51"/><path d="M256,-103L174,-47L244,-47Z" fill="#e05236" stroke="#e05236" stroke-width="1.51"/><path d="M1561,992L1527,905L1464,904Z" fill="#128948" stroke="#128948" stroke-width="1.51"/><path d="M-113,409L-95,508L-12,505Z" fill="#e19569" stroke="#e19569" stroke-width="1.51"/><path d="M-22,216L55,321L78,220Z" fill="#ee814a" stroke="#ee814a" stroke-width="1.51"/><path d="M1452,46L1439,-35L1355,-40Z" fill="#9a793c" stroke="#9a793c" stroke-width="1.51"/><path d="M1355,-40L1387,-106L1262,-111Z" fill="#99763e" stroke="#99763e" stroke-width="1.51"/><path d="M1559,-21L1439,-35L1452,46Z" fill="#947139" stroke="#947139" stroke-width="1.51"/><path d="M65,136L-22,216L78,220Z" fill="#ec7242" stroke="#ec7242" stroke-width="1.51"/><path d="M73,-14L73,46L169,40Z" fill="#e54f33" stroke="#e54f33" stroke-width="1.51"/><path d="M-5,857L82,915L57,844Z" fill="#a68040" stroke="#a68040" stroke-width="1.51"/><path d="M82,915L79,990L165,935Z" fill="#9b7d40" stroke="#9b7d40" stroke-width="1.51"/><path d="M1439,-35L1387,-106L1355,-40Z" fill="#96743b" stroke="#96743b" stroke-width="1.51"/><path d="M-20,128L-22,216L65,136Z" fill="#e7663d" stroke="#e7663d" stroke-width="1.51"/><path d="M4,752L-5,857L57,844Z" fill="#af8442" stroke="#af8442" stroke-width="1.51"/><path d="M-24,906L-5,857L-92,817Z" fill="#9d7940" stroke="#9d7940" stroke-width="1.51"/><path d="M1439,-35L1453,-129L1387,-106Z" fill="#8c6c39" stroke="#8c6c39" stroke-width="1.51"/><path d="M1522,154L1541,70L1466,147Z" fill="#988547" stroke="#988547" stroke-width="1.51"/><path d="M1542,229L1541,70L1522,154Z" fill="#968748" stroke="#968748" stroke-width="1.51"/><path d="M1559,-21L1541,70L1542,229Z" fill="#95793f" stroke="#95793f" stroke-width="1.51"/><path d="M-113,409L-12,505L-17,388Z" fill="#e8976b" stroke="#e8976b" stroke-width="1.51"/><path d="M-28,590L-123,676L-6,656Z" fill="#c88d4d" stroke="#c88d4d" stroke-width="1.51"/><path d="M-113,409L-17,388L-36,338Z" fill="#e58f60" stroke="#e58f60" stroke-width="1.51"/><path d="M-95,508L-95,560L-12,505Z" fill="#db935f" stroke="#db935f" stroke-width="1.51"/><path d="M51,-98L73,-14L174,-47Z" fill="#d93c2c" stroke="#d93c2c" stroke-width="1.51"/><path d="M174,-47L73,-14L169,40Z" fill="#e44d32" stroke="#e44d32" stroke-width="1.51"/><path d="M73,46L-20,128L65,136Z" fill="#e85838" stroke="#e85838" stroke-width="1.51"/><path d="M256,-103L156,-120L174,-47Z" fill="#da4934" stroke="#da4934" stroke-width="1.51"/><path d="M310,-108L156,-120L256,-103Z" fill="#d75038" stroke="#d75038" stroke-width="1.51"/><path d="M673,-120L156,-120L310,-108Z" fill="#db6c43" stroke="#db6c43" stroke-width="1.51"/><path d="M-31,61L-20,128L73,46Z" fill="#e24d34" stroke="#e24d34" stroke-width="1.51"/><path d="M-117,301L-113,409L-36,338Z" fill="#df885a" stroke="#df885a" stroke-width="1.51"/><path d="M-5,857L-24,906L82,915Z" fill="#9f7a3d" stroke="#9f7a3d" stroke-width="1.51"/><path d="M-92,817L-5,857L4,752Z" fill="#a98143" stroke="#a98143" stroke-width="1.51"/><path d="M-95,508L-123,676L-95,560Z" fill="#cc8d54" stroke="#cc8d54" stroke-width="1.51"/><path d="M-117,301L-36,338L-22,216Z" fill="#e27f4f" stroke="#e27f4f" stroke-width="1.51"/><path d="M1434,1010L1561,992L1464,904Z" fill="#118647" stroke="#118647" stroke-width="1.51"/><path d="M1527,905L1561,992L1533,843Z" fill="#1b8948" stroke="#1b8948" stroke-width="1.51"/><path d="M1533,843L1561,992L1542,657Z" fill="#38944e" stroke="#38944e" stroke-width="1.51"/><path d="M1557,397L1561,992L1558,320Z" fill="#7aae62" stroke="#7aae62" stroke-width="1.51"/><path d="M-123,676L-99,766L-6,656Z" fill="#ba8746" stroke="#ba8746" stroke-width="1.51"/><path d="M-123,676L-28,590L-95,560Z" fill="#ca8d51" stroke="#ca8d51" stroke-width="1.51"/><path d="M1524,-101L1453,-129L1439,-35Z" fill="#886636" stroke="#886636" stroke-width="1.51"/><path d="M1387,-106L1453,-129L1262,-111Z" fill="#8e6f3c" stroke="#8e6f3c" stroke-width="1.51"/><path d="M1262,-111L1453,-129L920,-112Z" fill="#a47c43" stroke="#a47c43" stroke-width="1.51"/><path d="M673,-120L-2,-122L156,-120Z" fill="#d6573b" stroke="#d6573b" stroke-width="1.51"/><path d="M-113,409L-123,676L-95,508Z" fill="#d38f5d" stroke="#d38f5d" stroke-width="1.51"/><path d="M-113,409L-122,249L-123,676Z" fill="#de926c" stroke="#de926c" stroke-width="1.51"/><path d="M-122,249L-117,301L-22,216Z" fill="#dc764a" stroke="#dc764a" stroke-width="1.51"/><path d="M-97,909L-92,817L-99,766Z" fill="#9c7841" stroke="#9c7841" stroke-width="1.51"/><path d="M-99,766L-92,817L4,752Z" fill="#ab8144" stroke="#ab8144" stroke-width="1.51"/><path d="M-111,149L-122,249L-22,216Z" fill="#db6a42" stroke="#db6a42" stroke-width="1.51"/><path d="M-1,-21L-31,61L73,46Z" fill="#dd412e" stroke="#dd412e" stroke-width="1.51"/><path d="M-1,-21L73,46L73,-14Z" fill="#dd3f2c" stroke="#dd3f2c" stroke-width="1.51"/><path d="M1541,70L1559,-21L1452,46Z" fill="#93723a" stroke="#93723a" stroke-width="1.51"/><path d="M1558,320L1559,-21L1542,229Z" fill="#948b49" stroke="#948b49" stroke-width="1.51"/><path d="M1561,992L1559,-21L1558,320Z" fill="#8db376" stroke="#8db376" stroke-width="1.51"/><path d="M-117,301L-122,249L-113,409Z" fill="#da8154" stroke="#da8154" stroke-width="1.51"/><path d="M-111,149L-22,216L-20,128Z" fill="#de623d" stroke="#de623d" stroke-width="1.51"/><path d="M-112,73L-111,149L-20,128Z" fill="#d75138" stroke="#d75138" stroke-width="1.51"/><path d="M51,-98L-1,-21L73,-14Z" fill="#d63128" stroke="#d63128" stroke-width="1.51"/><path d="M156,-120L51,-98L174,-47Z" fill="#d43d2f" stroke="#d43d2f" stroke-width="1.51"/><path d="M1559,-21L1524,-101L1439,-35Z" fill="#8b6533" stroke="#8b6533" stroke-width="1.51"/><path d="M-97,909L-31,1014L-24,906Z" fill="#8c6c39" stroke="#8c6c39" stroke-width="1.51"/><path d="M-24,906L-31,1014L79,990Z" fill="#906c36" stroke="#906c36" stroke-width="1.51"/><path d="M79,990L-31,1014L171,1001Z" fill="#926d37" stroke="#926d37" stroke-width="1.51"/><path d="M171,1001L-108,1030L492,1033Z" fill="#95773e" stroke="#95773e" stroke-width="1.51"/><path d="M-112,73L-20,128L-31,61Z" fill="#da4a35" stroke="#da4a35" stroke-width="1.51"/><path d="M-92,817L-97,909L-24,906Z" fill="#96743e" stroke="#96743e" stroke-width="1.51"/><path d="M-123,676L-97,909L-99,766Z" fill="#a47c43" stroke="#a47c43" stroke-width="1.51"/><path d="M-119,-30L-112,73L-31,61Z" fill="#ce392f" stroke="#ce392f" stroke-width="1.51"/><path d="M-111,149L-112,73L-122,249Z" fill="#d45a3c" stroke="#d45a3c" stroke-width="1.51"/><path d="M-119,-30L-31,61L-1,-21Z" fill="#d0332b" stroke="#d0332b" stroke-width="1.51"/><path d="M51,-98L-2,-122L-1,-21Z" fill="#cb2727" stroke="#cb2727" stroke-width="1.51"/><path d="M156,-120L-2,-122L51,-98Z" fill="#ca2d2a" stroke="#ca2d2a" stroke-width="1.51"/><path d="M1453,-129L-2,-122L673,-120Z" fill="#e1936c" stroke="#e1936c" stroke-width="1.51"/><path d="M-97,909L-108,1030L-31,1014Z" fill="#836235" stroke="#836235" stroke-width="1.51"/><path d="M-31,1014L-108,1030L171,1001Z" fill="#8a6332" stroke="#8a6332" stroke-width="1.51"/><path d="M-123,676L-108,1030L-97,909Z" fill="#92713e" stroke="#92713e" stroke-width="1.51"/><path d="M-81,-100L-119,-30L-1,-21Z" fill="#c52327" stroke="#c52327" stroke-width="1.51"/><path d="M-112,73L-119,-30L-122,249Z" fill="#d04735" stroke="#d04735" stroke-width="1.51"/><path d="M-2,-122L-81,-100L-1,-21Z" fill="#c42327" stroke="#c42327" stroke-width="1.51"/></svg>