<svg xmlns="http://www.w3.org/2000/svg" width="1440" height="900"><path d="M751,474L768,559L829,481Z" fill="#ef599e" stroke="#ef599e" stroke-width="1.51"/><path d="M768,559L853,595L829,481Z" fill="#e94f9c" stroke="#e94f9c" stroke-width="1.51"/><path d="M751,474L667,514L768,559Z" fill="#f15d9f" stroke="#f15d9f" stroke-width="1.51"/><path d="M829,481L755,394L751,474Z" fill="#f462a0" stroke="#f462a0" stroke-width="1.51"/><path d="M751,474L686,388L667,514Z" fill="#f769a1" stroke="#f769a1" stroke-width="1.51"/><path d="M768,559L776,644L853,595Z" fill="#e6479a" stroke="#e6479a" stroke-width="1.51"/><path d="M670,598L776,644L768,559Z" fill="#e94e9c" stroke="#e94e9c" stroke-width="1.51"/><path d="M829,481L871,403L755,394Z" fill="#f263a1" stroke="#f263a1" stroke-width="1.51"/><path d="M932,481L871,403L829,481Z" fill="#ed569e" stroke="#ed569e" stroke-width="1.51"/><path d="M667,514L670,598L768,559Z" fill="#ee5a9f" stroke="#ee5a9f" stroke-width="1.51"/><path d="M853,595L932,481L829,481Z" fill="#e84c9c" stroke="#e84c9c" stroke-width="1.51"/><path d="M755,394L686,388L751,474Z" fill="#f76da3" stroke="#f76da3" stroke-width="1.51"/><path d="M680,332L686,388L755,394Z" fill="#f879a6" stroke="#f879a6" stroke-width="1.51"/><path d="M776,644L854,662L853,595Z" fill="#df3f97" stroke="#df3f97" stroke-width="1.51"/><path d="M853,595L953,578L932,481Z" fill="#e34199" stroke="#e34199" stroke-width="1.51"/><path d="M933,684L953,578L853,595Z" fill="#db3696" stroke="#db3696" stroke-width="1.51"/><path d="M670,598L675,651L776,644Z" fill="#e6509a" stroke="#e6509a" stroke-width="1.51"/><path d="M776,644L851,750L854,662Z" fill="#d63992" stroke="#d63992" stroke-width="1.51"/><path d="M932,481L952,422L871,403Z" fill="#eb569e" stroke="#eb569e" stroke-width="1.51"/><path d="M1025,477L952,422L932,481Z" fill="#e64c9a" stroke="#e64c9a" stroke-width="1.51"/><path d="M850,304L766,315L755,394Z" fill="#f577a7" stroke="#f577a7" stroke-width="1.51"/><path d="M850,304L755,394L871,403Z" fill="#f26da4" stroke="#f26da4" stroke-width="1.51"/><path d="M670,598L597,590L675,651Z" fill="#e95a9f" stroke="#e95a9f" stroke-width="1.51"/><path d="M667,514L597,590L670,598Z" fill="#ee61a1" stroke="#ee61a1" stroke-width="1.51"/><path d="M574,482L597,590L667,514Z" fill="#f26ca4" stroke="#f26ca4" stroke-width="1.51"/><path d="M569,421L574,482L667,514Z" fill="#f675a6" stroke="#f675a6" stroke-width="1.51"/><path d="M766,315L680,332L755,394Z" fill="#f87ba7" stroke="#f87ba7" stroke-width="1.51"/><path d="M569,421L667,514L686,388Z" fill="#f875a5" stroke="#f875a5" stroke-width="1.51"/><path d="M944,337L850,304L871,403Z" fill="#ef6ba4" stroke="#ef6ba4" stroke-width="1.51"/><path d="M854,662L933,684L853,595Z" fill="#d93694" stroke="#d93694" stroke-width="1.51"/><path d="M851,750L933,684L854,662Z" fill="#d13190" stroke="#d13190" stroke-width="1.51"/><path d="M953,578L1025,477L932,481Z" fill="#e14398" stroke="#e14398" stroke-width="1.51"/><path d="M933,684L1006,582L953,578Z" fill="#d83094" stroke="#d83094" stroke-width="1.51"/><path d="M952,422L944,337L871,403Z" fill="#ec5fa1" stroke="#ec5fa1" stroke-width="1.51"/><path d="M1042,399L944,337L952,422Z" fill="#e65b9e" stroke="#e65b9e" stroke-width="1.51"/><path d="M610,314L569,421L686,388Z" fill="#f984aa" stroke="#f984aa" stroke-width="1.51"/><path d="M1006,582L1025,477L953,578Z" fill="#db3a96" stroke="#db3a96" stroke-width="1.51"/><path d="M675,651L743,751L776,644Z" fill="#dd4695" stroke="#dd4695" stroke-width="1.51"/><path d="M664,771L743,751L675,651Z" fill="#d74793" stroke="#d74793" stroke-width="1.51"/><path d="M743,751L851,750L776,644Z" fill="#d43b91" stroke="#d43b91" stroke-width="1.51"/><path d="M597,590L572,660L675,651Z" fill="#e65d9f" stroke="#e65d9f" stroke-width="1.51"/><path d="M515,587L572,660L597,590Z" fill="#ea66a3" stroke="#ea66a3" stroke-width="1.51"/><path d="M515,587L597,590L574,482Z" fill="#f06fa5" stroke="#f06fa5" stroke-width="1.51"/><path d="M680,332L610,314L686,388Z" fill="#f984ab" stroke="#f984ab" stroke-width="1.51"/><path d="M693,225L610,314L680,332Z" fill="#f98dae" stroke="#f98dae" stroke-width="1.51"/><path d="M693,225L680,332L766,315Z" fill="#f987ac" stroke="#f987ac" stroke-width="1.51"/><path d="M850,304L837,249L766,315Z" fill="#f37daa" stroke="#f37daa" stroke-width="1.51"/><path d="M927,213L837,249L850,304Z" fill="#f17ca9" stroke="#f17ca9" stroke-width="1.51"/><path d="M837,249L776,243L766,315Z" fill="#f582ab" stroke="#f582ab" stroke-width="1.51"/><path d="M1025,477L1042,399L952,422Z" fill="#e34f99" stroke="#e34f99" stroke-width="1.51"/><path d="M944,337L927,213L850,304Z" fill="#ef75a7" stroke="#ef75a7" stroke-width="1.51"/><path d="M1088,475L1042,399L1025,477Z" fill="#dd4796" stroke="#dd4796" stroke-width="1.51"/><path d="M500,484L515,587L574,482Z" fill="#f378a8" stroke="#f378a8" stroke-width="1.51"/><path d="M582,751L664,771L675,651Z" fill="#d85096" stroke="#d85096" stroke-width="1.51"/><path d="M743,751L742,823L851,750Z" fill="#cb378d" stroke="#cb378d" stroke-width="1.51"/><path d="M569,421L500,484L574,482Z" fill="#f87ea8" stroke="#f87ea8" stroke-width="1.51"/><path d="M490,414L500,484L569,421Z" fill="#f984ab" stroke="#f984ab" stroke-width="1.51"/><path d="M933,684L1037,662L1006,582Z" fill="#d12a90" stroke="#d12a90" stroke-width="1.51"/><path d="M1006,582L1088,475L1025,477Z" fill="#d93e94" stroke="#d93e94" stroke-width="1.51"/><path d="M1035,735L1037,662L933,684Z" fill="#c7228b" stroke="#c7228b" stroke-width="1.51"/><path d="M851,750L940,765L933,684Z" fill="#ca288c" stroke="#ca288c" stroke-width="1.51"/><path d="M916,824L940,765L851,750Z" fill="#c3268b" stroke="#c3268b" stroke-width="1.51"/><path d="M762,154L693,225L776,243Z" fill="#f98fae" stroke="#f98fae" stroke-width="1.51"/><path d="M776,243L693,225L766,315Z" fill="#f888ac" stroke="#f888ac" stroke-width="1.51"/><path d="M1127,579L1088,475L1006,582Z" fill="#d33491" stroke="#d33491" stroke-width="1.51"/><path d="M511,333L490,414L569,421Z" fill="#fa8dae" stroke="#fa8dae" stroke-width="1.51"/><path d="M511,333L569,421L610,314Z" fill="#fa8eae" stroke="#fa8eae" stroke-width="1.51"/><path d="M664,771L742,823L743,751Z" fill="#cd408f" stroke="#cd408f" stroke-width="1.51"/><path d="M664,771L688,860L742,823Z" fill="#c7418f" stroke="#c7418f" stroke-width="1.51"/><path d="M572,660L582,751L675,651Z" fill="#de589a" stroke="#de589a" stroke-width="1.51"/><path d="M522,756L582,751L572,660Z" fill="#d95c9a" stroke="#d95c9a" stroke-width="1.51"/><path d="M742,823L847,831L851,750Z" fill="#c4328c" stroke="#c4328c" stroke-width="1.51"/><path d="M1042,399L1043,307L944,337Z" fill="#e4619f" stroke="#e4619f" stroke-width="1.51"/><path d="M1124,327L1043,307L1042,399Z" fill="#de5d9b" stroke="#de5d9b" stroke-width="1.51"/><path d="M519,248L511,333L610,314Z" fill="#fa9ab3" stroke="#fa9ab3" stroke-width="1.51"/><path d="M1009,213L927,213L944,337Z" fill="#eb74a6" stroke="#eb74a6" stroke-width="1.51"/><path d="M837,249L762,154L776,243Z" fill="#f689ad" stroke="#f689ad" stroke-width="1.51"/><path d="M693,225L596,237L610,314Z" fill="#fa95b0" stroke="#fa95b0" stroke-width="1.51"/><path d="M1037,662L1127,579L1006,582Z" fill="#cf288f" stroke="#cf288f" stroke-width="1.51"/><path d="M940,765L1035,735L933,684Z" fill="#c5208a" stroke="#c5208a" stroke-width="1.51"/><path d="M1016,835L1035,735L940,765Z" fill="#ba1986" stroke="#ba1986" stroke-width="1.51"/><path d="M847,831L916,824L851,750Z" fill="#c12a8b" stroke="#c12a8b" stroke-width="1.51"/><path d="M515,587L495,684L572,660Z" fill="#e668a2" stroke="#e668a2" stroke-width="1.51"/><path d="M438,565L495,684L515,587Z" fill="#eb71a6" stroke="#eb71a6" stroke-width="1.51"/><path d="M438,565L515,587L500,484Z" fill="#f17aa9" stroke="#f17aa9" stroke-width="1.51"/><path d="M1088,475L1110,402L1042,399Z" fill="#db4b95" stroke="#db4b95" stroke-width="1.51"/><path d="M1187,497L1110,402L1088,475Z" fill="#d44191" stroke="#d44191" stroke-width="1.51"/><path d="M1108,680L1127,579L1037,662Z" fill="#c6208a" stroke="#c6208a" stroke-width="1.51"/><path d="M397,507L438,565L500,484Z" fill="#f481ab" stroke="#f481ab" stroke-width="1.51"/><path d="M430,405L500,484L490,414Z" fill="#fa8bad" stroke="#fa8bad" stroke-width="1.51"/><path d="M693,225L668,159L596,237Z" fill="#fb99b1" stroke="#fb99b1" stroke-width="1.51"/><path d="M861,137L762,154L837,249Z" fill="#f58bad" stroke="#f58bad" stroke-width="1.51"/><path d="M585,823L688,860L664,771Z" fill="#c84992" stroke="#c84992" stroke-width="1.51"/><path d="M495,684L522,756L572,660Z" fill="#dd629d" stroke="#dd629d" stroke-width="1.51"/><path d="M421,758L522,756L495,684Z" fill="#d8659b" stroke="#d8659b" stroke-width="1.51"/><path d="M742,823L759,928L847,831Z" fill="#bc348c" stroke="#bc348c" stroke-width="1.51"/><path d="M949,924L1016,835L916,824Z" fill="#b01b86" stroke="#b01b86" stroke-width="1.51"/><path d="M585,823L664,771L582,751Z" fill="#cf5094" stroke="#cf5094" stroke-width="1.51"/><path d="M1035,735L1108,680L1037,662Z" fill="#c11c88" stroke="#c11c88" stroke-width="1.51"/><path d="M762,154L668,159L693,225Z" fill="#fb96b0" stroke="#fb96b0" stroke-width="1.51"/><path d="M1043,307L1009,213L944,337Z" fill="#e66da3" stroke="#e66da3" stroke-width="1.51"/><path d="M927,213L861,137L837,249Z" fill="#f284ab" stroke="#f284ab" stroke-width="1.51"/><path d="M1122,244L1009,213L1043,307Z" fill="#e06da1" stroke="#e06da1" stroke-width="1.51"/><path d="M522,756L585,823L582,751Z" fill="#d05796" stroke="#d05796" stroke-width="1.51"/><path d="M511,333L430,405L490,414Z" fill="#fa93b0" stroke="#fa93b0" stroke-width="1.51"/><path d="M399,315L430,405L511,333Z" fill="#fa9bb3" stroke="#fa9bb3" stroke-width="1.51"/><path d="M519,248L610,314L596,237Z" fill="#fa9bb2" stroke="#fa9bb2" stroke-width="1.51"/><path d="M489,152L519,248L596,237Z" fill="#fba7b7" stroke="#fba7b7" stroke-width="1.51"/><path d="M952,162L861,137L927,213Z" fill="#f084ab" stroke="#f084ab" stroke-width="1.51"/><path d="M696,45L600,138L668,159Z" fill="#fba4b6" stroke="#fba4b6" stroke-width="1.51"/><path d="M1176,339L1124,327L1110,402Z" fill="#d55696" stroke="#d55696" stroke-width="1.51"/><path d="M1110,402L1124,327L1042,399Z" fill="#da5598" stroke="#da5598" stroke-width="1.51"/><path d="M1009,213L952,162L927,213Z" fill="#eb7ca8" stroke="#eb7ca8" stroke-width="1.51"/><path d="M430,405L397,507L500,484Z" fill="#f888ac" stroke="#f888ac" stroke-width="1.51"/><path d="M438,565L407,681L495,684Z" fill="#e771a4" stroke="#e771a4" stroke-width="1.51"/><path d="M1035,735L1127,767L1108,680Z" fill="#b81283" stroke="#b81283" stroke-width="1.51"/><path d="M916,824L1016,835L940,765Z" fill="#b91c88" stroke="#b91c88" stroke-width="1.51"/><path d="M949,924L916,824L847,831Z" fill="#b52389" stroke="#b52389" stroke-width="1.51"/><path d="M1127,579L1187,497L1088,475Z" fill="#cf358e" stroke="#cf358e" stroke-width="1.51"/><path d="M1192,579L1187,497L1127,579Z" fill="#c82c8b" stroke="#c82c8b" stroke-width="1.51"/><path d="M1179,652L1192,579L1127,579Z" fill="#c31f8a" stroke="#c31f8a" stroke-width="1.51"/><path d="M1179,652L1127,579L1108,680Z" fill="#c11c88" stroke="#c11c88" stroke-width="1.51"/><path d="M339,560L407,681L438,565Z" fill="#ee7aa9" stroke="#ee7aa9" stroke-width="1.51"/><path d="M522,756L490,854L585,823Z" fill="#ca5a97" stroke="#ca5a97" stroke-width="1.51"/><path d="M1204,739L1179,652L1108,680Z" fill="#b61183" stroke="#b61183" stroke-width="1.51"/><path d="M696,45L668,159L762,154Z" fill="#fb9db3" stroke="#fb9db3" stroke-width="1.51"/><path d="M668,159L600,138L596,237Z" fill="#fba0b4" stroke="#fba0b4" stroke-width="1.51"/><path d="M688,860L759,928L742,823Z" fill="#bd3b8d" stroke="#bd3b8d" stroke-width="1.51"/><path d="M673,918L759,928L688,860Z" fill="#b83d8d" stroke="#b83d8d" stroke-width="1.51"/><path d="M585,908L688,860L585,823Z" fill="#c04b92" stroke="#c04b92" stroke-width="1.51"/><path d="M585,908L673,918L688,860Z" fill="#ba4690" stroke="#ba4690" stroke-width="1.51"/><path d="M1209,413L1176,339L1110,402Z" fill="#d24f94" stroke="#d24f94" stroke-width="1.51"/><path d="M1124,327L1122,244L1043,307Z" fill="#db659c" stroke="#db659c" stroke-width="1.51"/><path d="M1009,213L1020,134L952,162Z" fill="#e87ea7" stroke="#e87ea7" stroke-width="1.51"/><path d="M1109,835L1127,767L1035,735Z" fill="#b00c81" stroke="#b00c81" stroke-width="1.51"/><path d="M759,928L828,935L847,831Z" fill="#b32f8a" stroke="#b32f8a" stroke-width="1.51"/><path d="M1176,339L1122,244L1124,327Z" fill="#d66099" stroke="#d66099" stroke-width="1.51"/><path d="M1262,393L1209,413L1291,474Z" fill="#c74390" stroke="#c74390" stroke-width="1.51"/><path d="M1187,497L1209,413L1110,402Z" fill="#d04390" stroke="#d04390" stroke-width="1.51"/><path d="M416,234L511,333L519,248Z" fill="#fba5b7" stroke="#fba5b7" stroke-width="1.51"/><path d="M416,234L399,315L511,333Z" fill="#fba5b7" stroke="#fba5b7" stroke-width="1.51"/><path d="M430,405L334,476L397,507Z" fill="#f98ead" stroke="#f98ead" stroke-width="1.51"/><path d="M407,681L421,758L495,684Z" fill="#dd6b9f" stroke="#dd6b9f" stroke-width="1.51"/><path d="M952,162L947,81L861,137Z" fill="#f089ae" stroke="#f089ae" stroke-width="1.51"/><path d="M861,137L832,54L762,154Z" fill="#f693b1" stroke="#f693b1" stroke-width="1.51"/><path d="M1089,140L1020,134L1009,213Z" fill="#e37ba5" stroke="#e37ba5" stroke-width="1.51"/><path d="M828,935L949,924L847,831Z" fill="#af2789" stroke="#af2789" stroke-width="1.51"/><path d="M1016,835L1109,835L1035,735Z" fill="#b01182" stroke="#b01182" stroke-width="1.51"/><path d="M490,854L585,908L585,823Z" fill="#c15595" stroke="#c15595" stroke-width="1.51"/><path d="M742,1025L828,935L759,928Z" fill="#ab3188" stroke="#ab3188" stroke-width="1.51"/><path d="M397,507L339,560L438,565Z" fill="#f283ab" stroke="#f283ab" stroke-width="1.51"/><path d="M320,771L412,824L421,758Z" fill="#d06b9c" stroke="#d06b9c" stroke-width="1.51"/><path d="M334,476L339,560L397,507Z" fill="#f68aad" stroke="#f68aad" stroke-width="1.51"/><path d="M421,758L490,854L522,756Z" fill="#ce6199" stroke="#ce6199" stroke-width="1.51"/><path d="M326,409L334,476L430,405Z" fill="#fb96b0" stroke="#fb96b0" stroke-width="1.51"/><path d="M1097,918L1109,835L1016,835Z" fill="#a30d80" stroke="#a30d80" stroke-width="1.51"/><path d="M1127,767L1204,739L1108,680Z" fill="#b20880" stroke="#b20880" stroke-width="1.51"/><path d="M1020,134L947,81L952,162Z" fill="#eb84ac" stroke="#eb84ac" stroke-width="1.51"/><path d="M947,81L832,54L861,137Z" fill="#f38fb2" stroke="#f38fb2" stroke-width="1.51"/><path d="M949,924L1009,914L1016,835Z" fill="#a71785" stroke="#a71785" stroke-width="1.51"/><path d="M342,338L326,409L430,405Z" fill="#fb9db3" stroke="#fb9db3" stroke-width="1.51"/><path d="M489,152L416,234L519,248Z" fill="#fbadb9" stroke="#fbadb9" stroke-width="1.51"/><path d="M600,138L489,152L596,237Z" fill="#fba8b7" stroke="#fba8b7" stroke-width="1.51"/><path d="M511,81L489,152L600,138Z" fill="#fcb1bb" stroke="#fcb1bb" stroke-width="1.51"/><path d="M832,54L773,41L762,154Z" fill="#f999b5" stroke="#f999b5" stroke-width="1.51"/><path d="M247,564L323,686L339,560Z" fill="#ee83ab" stroke="#ee83ab" stroke-width="1.51"/><path d="M342,338L430,405L399,315Z" fill="#faa0b4" stroke="#faa0b4" stroke-width="1.51"/><path d="M773,41L696,45L762,154Z" fill="#fb9db6" stroke="#fb9db6" stroke-width="1.51"/><path d="M1197,846L1204,739L1127,767Z" fill="#a6017d" stroke="#a6017d" stroke-width="1.51"/><path d="M1179,652L1266,587L1192,579Z" fill="#bd1e89" stroke="#bd1e89" stroke-width="1.51"/><path d="M1192,579L1266,587L1187,497Z" fill="#c22a8b" stroke="#c22a8b" stroke-width="1.51"/><path d="M339,214L342,338L399,315Z" fill="#fbaeb9" stroke="#fbaeb9" stroke-width="1.51"/><path d="M1122,244L1089,140L1009,213Z" fill="#df74a2" stroke="#df74a2" stroke-width="1.51"/><path d="M1020,134L1005,74L947,81Z" fill="#ea86ad" stroke="#ea86ad" stroke-width="1.51"/><path d="M1182,163L1089,140L1122,244Z" fill="#d9729f" stroke="#d9729f" stroke-width="1.51"/><path d="M1181,225L1122,244L1176,339Z" fill="#d4659a" stroke="#d4659a" stroke-width="1.51"/><path d="M1268,666L1266,587L1179,652Z" fill="#b51986" stroke="#b51986" stroke-width="1.51"/><path d="M1262,393L1176,339L1209,413Z" fill="#cc4e93" stroke="#cc4e93" stroke-width="1.51"/><path d="M1288,335L1181,225L1176,339Z" fill="#cd5e99" stroke="#cd5e99" stroke-width="1.51"/><path d="M947,81L858,-9L832,54Z" fill="#f494b7" stroke="#f494b7" stroke-width="1.51"/><path d="M832,54L858,-9L773,41Z" fill="#f79bb9" stroke="#f79bb9" stroke-width="1.51"/><path d="M1089,140L1005,74L1020,134Z" fill="#e481a8" stroke="#e481a8" stroke-width="1.51"/><path d="M421,758L412,824L490,854Z" fill="#cb649a" stroke="#cb649a" stroke-width="1.51"/><path d="M490,854L513,945L585,908Z" fill="#ba5695" stroke="#ba5695" stroke-width="1.51"/><path d="M323,686L421,758L407,681Z" fill="#dd71a0" stroke="#dd71a0" stroke-width="1.51"/><path d="M1291,474L1209,413L1187,497Z" fill="#c83c8e" stroke="#c83c8e" stroke-width="1.51"/><path d="M247,564L339,560L334,476Z" fill="#f48cae" stroke="#f48cae" stroke-width="1.51"/><path d="M339,560L323,686L407,681Z" fill="#e87aa7" stroke="#e87aa7" stroke-width="1.51"/><path d="M489,152L428,165L416,234Z" fill="#fcb3bb" stroke="#fcb3bb" stroke-width="1.51"/><path d="M416,234L339,214L399,315Z" fill="#fbafba" stroke="#fbafba" stroke-width="1.51"/><path d="M400,53L428,165L489,152Z" fill="#fcbabe" stroke="#fcbabe" stroke-width="1.51"/><path d="M696,45L572,57L600,138Z" fill="#fcabbb" stroke="#fcabbb" stroke-width="1.51"/><path d="M1266,587L1291,474L1187,497Z" fill="#c1318c" stroke="#c1318c" stroke-width="1.51"/><path d="M1266,587L1349,588L1291,474Z" fill="#b72a8a" stroke="#b72a8a" stroke-width="1.51"/><path d="M1204,739L1268,666L1179,652Z" fill="#b01182" stroke="#b01182" stroke-width="1.51"/><path d="M828,935L845,1015L949,924Z" fill="#a62486" stroke="#a62486" stroke-width="1.51"/><path d="M949,924L1041,1004L1009,914Z" fill="#9d1482" stroke="#9d1482" stroke-width="1.51"/><path d="M742,1025L845,1015L828,935Z" fill="#a52c86" stroke="#a52c86" stroke-width="1.51"/><path d="M742,1025L759,928L673,918Z" fill="#af388a" stroke="#af388a" stroke-width="1.51"/><path d="M572,57L511,81L600,138Z" fill="#fcb1bd" stroke="#fcb1bd" stroke-width="1.51"/><path d="M1204,739L1262,772L1268,666Z" fill="#a7077f" stroke="#a7077f" stroke-width="1.51"/><path d="M1109,835L1197,846L1127,767Z" fill="#a4027d" stroke="#a4027d" stroke-width="1.51"/><path d="M1009,914L1097,918L1016,835Z" fill="#a21182" stroke="#a21182" stroke-width="1.51"/><path d="M1041,1004L1097,918L1009,914Z" fill="#980e7f" stroke="#980e7f" stroke-width="1.51"/><path d="M670,1023L742,1025L673,918Z" fill="#ab3b8a" stroke="#ab3b8a" stroke-width="1.51"/><path d="M427,914L513,945L490,854Z" fill="#ba5c97" stroke="#ba5c97" stroke-width="1.51"/><path d="M670,1023L673,918L585,908Z" fill="#b1448e" stroke="#b1448e" stroke-width="1.51"/><path d="M753,-35L679,-15L696,45Z" fill="#fda8bf" stroke="#fda8bf" stroke-width="1.51"/><path d="M696,45L583,-5L572,57Z" fill="#fdb0c0" stroke="#fdb0c0" stroke-width="1.51"/><path d="M941,-47L858,-9L947,81Z" fill="#f294b9" stroke="#f294b9" stroke-width="1.51"/><path d="M572,1027L670,1023L585,908Z" fill="#ac488e" stroke="#ac488e" stroke-width="1.51"/><path d="M1089,140L1123,72L1005,74Z" fill="#e180a8" stroke="#e180a8" stroke-width="1.51"/><path d="M1005,74L941,-47L947,81Z" fill="#ee8db4" stroke="#ee8db4" stroke-width="1.51"/><path d="M1181,225L1182,163L1122,244Z" fill="#d56c9d" stroke="#d56c9d" stroke-width="1.51"/><path d="M1266,130L1182,163L1181,225Z" fill="#d0709d" stroke="#d0709d" stroke-width="1.51"/><path d="M1288,335L1176,339L1262,393Z" fill="#c85294" stroke="#c85294" stroke-width="1.51"/><path d="M1097,918L1197,846L1109,835Z" fill="#9d037d" stroke="#9d037d" stroke-width="1.51"/><path d="M1358,403L1288,335L1262,393Z" fill="#c14c92" stroke="#c14c92" stroke-width="1.51"/><path d="M412,824L427,914L490,854Z" fill="#c26199" stroke="#c26199" stroke-width="1.51"/><path d="M323,686L320,771L421,758Z" fill="#d9709e" stroke="#d9709e" stroke-width="1.51"/><path d="M233,741L320,771L323,686Z" fill="#da77a1" stroke="#da77a1" stroke-width="1.51"/><path d="M326,409L261,410L334,476Z" fill="#fb9ab1" stroke="#fb9ab1" stroke-width="1.51"/><path d="M342,338L261,410L326,409Z" fill="#fba2b4" stroke="#fba2b4" stroke-width="1.51"/><path d="M240,310L261,410L342,338Z" fill="#fbaab8" stroke="#fbaab8" stroke-width="1.51"/><path d="M753,-35L696,45L773,41Z" fill="#fca3bc" stroke="#fca3bc" stroke-width="1.51"/><path d="M572,57L486,-39L511,81Z" fill="#fcbac4" stroke="#fcbac4" stroke-width="1.51"/><path d="M428,165L339,214L416,234Z" fill="#fcb5bc" stroke="#fcb5bc" stroke-width="1.51"/><path d="M345,128L339,214L428,165Z" fill="#fcbcbd" stroke="#fcbcbd" stroke-width="1.51"/><path d="M513,945L572,1027L585,908Z" fill="#b04f91" stroke="#b04f91" stroke-width="1.51"/><path d="M333,846L427,914L412,824Z" fill="#c3669a" stroke="#c3669a" stroke-width="1.51"/><path d="M845,1015L931,1032L949,924Z" fill="#9f1e84" stroke="#9f1e84" stroke-width="1.51"/><path d="M742,1025L931,1032L845,1015Z" fill="#9e2785" stroke="#9e2785" stroke-width="1.51"/><path d="M492,1033L931,1032L742,1025Z" fill="#a43587" stroke="#a43587" stroke-width="1.51"/><path d="M1197,846L1262,772L1204,739Z" fill="#a0017c" stroke="#a0017c" stroke-width="1.51"/><path d="M1268,666L1349,588L1266,587Z" fill="#b21c87" stroke="#b21c87" stroke-width="1.51"/><path d="M233,497L247,564L334,476Z" fill="#f692b0" stroke="#f692b0" stroke-width="1.51"/><path d="M858,-9L753,-35L773,41Z" fill="#f9a0bd" stroke="#f9a0bd" stroke-width="1.51"/><path d="M1182,163L1123,72L1089,140Z" fill="#d979a2" stroke="#d979a2" stroke-width="1.51"/><path d="M261,410L233,497L334,476Z" fill="#fa99b1" stroke="#fa99b1" stroke-width="1.51"/><path d="M931,1032L1041,1004L949,924Z" fill="#9a1682" stroke="#9a1682" stroke-width="1.51"/><path d="M1186,937L1260,841L1197,846Z" fill="#92017a" stroke="#92017a" stroke-width="1.51"/><path d="M679,-15L583,-5L696,45Z" fill="#fdaec1" stroke="#fdaec1" stroke-width="1.51"/><path d="M400,53L345,128L428,165Z" fill="#fcbfc0" stroke="#fcbfc0" stroke-width="1.51"/><path d="M611,-108L583,-5L679,-15Z" fill="#feb5c6" stroke="#feb5c6" stroke-width="1.51"/><path d="M670,1023L572,1027L742,1025Z" fill="#a53e8a" stroke="#a53e8a" stroke-width="1.51"/><path d="M492,1033L572,1027L513,945Z" fill="#aa5291" stroke="#aa5291" stroke-width="1.51"/><path d="M320,771L333,846L412,824Z" fill="#cc6c9c" stroke="#cc6c9c" stroke-width="1.51"/><path d="M437,1008L492,1033L513,945Z" fill="#ab5793" stroke="#ab5793" stroke-width="1.51"/><path d="M261,826L333,846L320,771Z" fill="#cc719d" stroke="#cc719d" stroke-width="1.51"/><path d="M1386,651L1349,588L1268,666Z" fill="#aa1885" stroke="#aa1885" stroke-width="1.51"/><path d="M1291,474L1358,403L1262,393Z" fill="#c0438f" stroke="#c0438f" stroke-width="1.51"/><path d="M1349,588L1360,471L1291,474Z" fill="#b7308b" stroke="#b7308b" stroke-width="1.51"/><path d="M1370,745L1386,651L1268,666Z" fill="#a10f81" stroke="#a10f81" stroke-width="1.51"/><path d="M1197,846L1260,841L1262,772Z" fill="#98007b" stroke="#98007b" stroke-width="1.51"/><path d="M1186,937L1197,846L1097,918Z" fill="#94017b" stroke="#94017b" stroke-width="1.51"/><path d="M1288,335L1297,240L1181,225Z" fill="#c86199" stroke="#c86199" stroke-width="1.51"/><path d="M1182,163L1208,82L1123,72Z" fill="#d578a2" stroke="#d578a2" stroke-width="1.51"/><path d="M1382,317L1297,240L1288,335Z" fill="#bf5b97" stroke="#bf5b97" stroke-width="1.51"/><path d="M1039,-38L941,-47L1005,74Z" fill="#eb8fb6" stroke="#eb8fb6" stroke-width="1.51"/><path d="M858,-9L779,-101L753,-35Z" fill="#faa4c0" stroke="#faa4c0" stroke-width="1.51"/><path d="M1360,471L1358,403L1291,474Z" fill="#bc3b8d" stroke="#bc3b8d" stroke-width="1.51"/><path d="M339,214L240,310L342,338Z" fill="#fbb2bb" stroke="#fbb2bb" stroke-width="1.51"/><path d="M261,410L164,421L233,497Z" fill="#fc9fb5" stroke="#fc9fb5" stroke-width="1.51"/><path d="M177,599L231,686L247,564Z" fill="#ed88af" stroke="#ed88af" stroke-width="1.51"/><path d="M247,564L231,686L323,686Z" fill="#e882aa" stroke="#e882aa" stroke-width="1.51"/><path d="M1109,1013L1186,937L1097,918Z" fill="#8e0279" stroke="#8e0279" stroke-width="1.51"/><path d="M339,214L233,252L240,310Z" fill="#fcb8bd" stroke="#fcb8bd" stroke-width="1.51"/><path d="M400,53L489,152L511,81Z" fill="#fcbac0" stroke="#fcbac0" stroke-width="1.51"/><path d="M1041,1004L1109,1013L1097,918Z" fill="#90087c" stroke="#90087c" stroke-width="1.51"/><path d="M931,1032L1109,1013L1041,1004Z" fill="#900f7d" stroke="#900f7d" stroke-width="1.51"/><path d="M437,1008L513,945L427,914Z" fill="#b25b95" stroke="#b25b95" stroke-width="1.51"/><path d="M572,1027L492,1033L742,1025Z" fill="#a5468c" stroke="#a5468c" stroke-width="1.51"/><path d="M486,-39L400,53L511,81Z" fill="#fdc0c6" stroke="#fdc0c6" stroke-width="1.51"/><path d="M352,937L437,1008L427,914Z" fill="#b36097" stroke="#b36097" stroke-width="1.51"/><path d="M231,686L233,741L323,686Z" fill="#df7ca5" stroke="#df7ca5" stroke-width="1.51"/><path d="M1108,-4L1039,-38L1005,74Z" fill="#e489b2" stroke="#e489b2" stroke-width="1.51"/><path d="M1266,130L1208,82L1182,163Z" fill="#cf75a0" stroke="#cf75a0" stroke-width="1.51"/><path d="M1108,-4L1005,74L1123,72Z" fill="#e184ac" stroke="#e184ac" stroke-width="1.51"/><path d="M1204,-27L1108,-4L1123,72Z" fill="#da82ac" stroke="#da82ac" stroke-width="1.51"/><path d="M352,937L427,914L333,846Z" fill="#bc669a" stroke="#bc669a" stroke-width="1.51"/><path d="M244,927L352,937L333,846Z" fill="#bc6b9b" stroke="#bc6b9b" stroke-width="1.51"/><path d="M258,128L233,252L339,214Z" fill="#fcc0bf" stroke="#fcc0bf" stroke-width="1.51"/><path d="M143,485L177,599L233,497Z" fill="#f696b5" stroke="#f696b5" stroke-width="1.51"/><path d="M233,497L177,599L247,564Z" fill="#f490b1" stroke="#f490b1" stroke-width="1.51"/><path d="M258,128L339,214L345,128Z" fill="#fcc2bf" stroke="#fcc2bf" stroke-width="1.51"/><path d="M1208,82L1204,-27L1123,72Z" fill="#d67ea8" stroke="#d67ea8" stroke-width="1.51"/><path d="M1297,240L1266,130L1181,225Z" fill="#cb6b9c" stroke="#cb6b9c" stroke-width="1.51"/><path d="M1351,165L1266,130L1297,240Z" fill="#c36b9c" stroke="#c36b9c" stroke-width="1.51"/><path d="M753,-35L673,-120L679,-15Z" fill="#feadc3" stroke="#feadc3" stroke-width="1.51"/><path d="M583,-5L486,-39L572,57Z" fill="#fdbbc6" stroke="#fdbbc6" stroke-width="1.51"/><path d="M838,-107L779,-101L858,-9Z" fill="#f8a3c1" stroke="#f8a3c1" stroke-width="1.51"/><path d="M838,-107L858,-9L920,-112Z" fill="#f69fc0" stroke="#f69fc0" stroke-width="1.51"/><path d="M233,741L261,826L320,771Z" fill="#d375a0" stroke="#d375a0" stroke-width="1.51"/><path d="M1451,474L1446,423L1360,471Z" fill="#b2388b" stroke="#b2388b" stroke-width="1.51"/><path d="M1446,423L1382,317L1358,403Z" fill="#b64890" stroke="#b64890" stroke-width="1.51"/><path d="M1370,745L1268,666L1262,772Z" fill="#a0067e" stroke="#a0067e" stroke-width="1.51"/><path d="M164,421L261,410L240,310Z" fill="#fca9b9" stroke="#fca9b9" stroke-width="1.51"/><path d="M231,686L146,747L233,741Z" fill="#dc7ea7" stroke="#dc7ea7" stroke-width="1.51"/><path d="M233,741L158,843L261,826Z" fill="#cf77a2" stroke="#cf77a2" stroke-width="1.51"/><path d="M920,-112L858,-9L941,-47Z" fill="#f49abe" stroke="#f49abe" stroke-width="1.51"/><path d="M1358,403L1382,317L1288,335Z" fill="#bc5093" stroke="#bc5093" stroke-width="1.51"/><path d="M1446,423L1358,403L1360,471Z" fill="#b63e8d" stroke="#b63e8d" stroke-width="1.51"/><path d="M1366,821L1370,745L1262,772Z" fill="#94017b" stroke="#94017b" stroke-width="1.51"/><path d="M1186,937L1289,930L1260,841Z" fill="#890079" stroke="#890079" stroke-width="1.51"/><path d="M1109,1013L1191,990L1186,937Z" fill="#870077" stroke="#870077" stroke-width="1.51"/><path d="M515,-94L486,-39L583,-5Z" fill="#fec0cb" stroke="#fec0cb" stroke-width="1.51"/><path d="M1366,821L1262,772L1260,841Z" fill="#93017a" stroke="#93017a" stroke-width="1.51"/><path d="M147,328L164,421L240,310Z" fill="#fcb0be" stroke="#fcb0be" stroke-width="1.51"/><path d="M1009,-92L941,-47L1039,-38Z" fill="#ec93ba" stroke="#ec93ba" stroke-width="1.51"/><path d="M1009,-92L920,-112L941,-47Z" fill="#f098be" stroke="#f098be" stroke-width="1.51"/><path d="M920,-112L673,-120L838,-107Z" fill="#faa7c4" stroke="#faa7c4" stroke-width="1.51"/><path d="M838,-107L673,-120L779,-101Z" fill="#fdabc5" stroke="#fdabc5" stroke-width="1.51"/><path d="M779,-101L673,-120L753,-35Z" fill="#feacc4" stroke="#feacc4" stroke-width="1.51"/><path d="M1094,-98L1009,-92L1039,-38Z" fill="#e691b8" stroke="#e691b8" stroke-width="1.51"/><path d="M1094,-98L1039,-38L1108,-4Z" fill="#e28cb4" stroke="#e28cb4" stroke-width="1.51"/><path d="M177,599L163,665L231,686Z" fill="#e986ae" stroke="#e986ae" stroke-width="1.51"/><path d="M79,559L163,665L177,599Z" fill="#f08eb5" stroke="#f08eb5" stroke-width="1.51"/><path d="M673,-120L611,-108L679,-15Z" fill="#feb5c7" stroke="#feb5c7" stroke-width="1.51"/><path d="M412,-29L346,41L400,53Z" fill="#fcc8c9" stroke="#fcc8c9" stroke-width="1.51"/><path d="M400,53L346,41L345,128Z" fill="#fdc5c5" stroke="#fdc5c5" stroke-width="1.51"/><path d="M164,421L143,485L233,497Z" fill="#fb9eb7" stroke="#fb9eb7" stroke-width="1.51"/><path d="M1266,130L1264,71L1208,82Z" fill="#cc77a2" stroke="#cc77a2" stroke-width="1.51"/><path d="M1352,67L1264,71L1266,130Z" fill="#c675a2" stroke="#c675a2" stroke-width="1.51"/><path d="M176,236L147,328L240,310Z" fill="#fcbac1" stroke="#fcbac1" stroke-width="1.51"/><path d="M76,398L70,476L143,485Z" fill="#fca5bd" stroke="#fca5bd" stroke-width="1.51"/><path d="M346,41L258,128L345,128Z" fill="#fdc7c4" stroke="#fdc7c4" stroke-width="1.51"/><path d="M1191,990L1289,930L1186,937Z" fill="#840078" stroke="#840078" stroke-width="1.51"/><path d="M352,937L347,996L437,1008Z" fill="#ae6196" stroke="#ae6196" stroke-width="1.51"/><path d="M437,1008L347,996L492,1033Z" fill="#a95b94" stroke="#a95b94" stroke-width="1.51"/><path d="M244,927L347,996L352,937Z" fill="#b36899" stroke="#b36899" stroke-width="1.51"/><path d="M244,927L333,846L261,826Z" fill="#c3709d" stroke="#c3709d" stroke-width="1.51"/><path d="M1370,745L1449,647L1386,651Z" fill="#9b0f80" stroke="#9b0f80" stroke-width="1.51"/><path d="M1289,930L1366,821L1260,841Z" fill="#890179" stroke="#890179" stroke-width="1.51"/><path d="M346,41L242,42L258,128Z" fill="#fdcdc8" stroke="#fdcdc8" stroke-width="1.51"/><path d="M486,-39L412,-29L400,53Z" fill="#fdc6cb" stroke="#fdc6cb" stroke-width="1.51"/><path d="M428,-97L412,-29L486,-39Z" fill="#fec9ce" stroke="#fec9ce" stroke-width="1.51"/><path d="M1380,217L1351,165L1297,240Z" fill="#be669a" stroke="#be669a" stroke-width="1.51"/><path d="M1382,317L1380,217L1297,240Z" fill="#bd5f98" stroke="#bd5f98" stroke-width="1.51"/><path d="M428,-97L515,-94L611,-108Z" fill="#fec6cf" stroke="#fec6cf" stroke-width="1.51"/><path d="M611,-108L515,-94L583,-5Z" fill="#febdca" stroke="#febdca" stroke-width="1.51"/><path d="M1382,317L1448,228L1380,217Z" fill="#b65e97" stroke="#b65e97" stroke-width="1.51"/><path d="M1451,474L1360,471L1349,588Z" fill="#b12f8a" stroke="#b12f8a" stroke-width="1.51"/><path d="M1451,474L1349,588L1458,601Z" fill="#a92687" stroke="#a92687" stroke-width="1.51"/><path d="M1458,601L1349,588L1386,651Z" fill="#a61a85" stroke="#a61a85" stroke-width="1.51"/><path d="M176,236L240,310L233,252Z" fill="#fcbbc0" stroke="#fcbbc0" stroke-width="1.51"/><path d="M164,168L176,236L233,252Z" fill="#fcc2c4" stroke="#fcc2c4" stroke-width="1.51"/><path d="M1467,770L1449,647L1370,745Z" fill="#93067b" stroke="#93067b" stroke-width="1.51"/><path d="M1449,647L1458,601L1386,651Z" fill="#9f1683" stroke="#9f1683" stroke-width="1.51"/><path d="M1290,-19L1204,-27L1264,71Z" fill="#cc7eaa" stroke="#cc7eaa" stroke-width="1.51"/><path d="M1264,71L1204,-27L1208,82Z" fill="#cf7ca8" stroke="#cf7ca8" stroke-width="1.51"/><path d="M1009,-92L1094,-98L920,-112Z" fill="#eb96bc" stroke="#eb96bc" stroke-width="1.51"/><path d="M1204,-27L1094,-98L1108,-4Z" fill="#dc88b1" stroke="#dc88b1" stroke-width="1.51"/><path d="M163,665L146,747L231,686Z" fill="#e182aa" stroke="#e182aa" stroke-width="1.51"/><path d="M55,681L146,747L163,665Z" fill="#e286ae" stroke="#e286ae" stroke-width="1.51"/><path d="M158,843L244,927L261,826Z" fill="#c373a1" stroke="#c373a1" stroke-width="1.51"/><path d="M1446,423L1459,318L1382,317Z" fill="#b24d91" stroke="#b24d91" stroke-width="1.51"/><path d="M1466,147L1352,67L1351,165Z" fill="#b96e9d" stroke="#b96e9d" stroke-width="1.51"/><path d="M1557,397L1459,318L1446,423Z" fill="#ab468d" stroke="#ab468d" stroke-width="1.51"/><path d="M1531,493L1446,423L1451,474Z" fill="#ab3588" stroke="#ab3588" stroke-width="1.51"/><path d="M428,-97L333,-26L412,-29Z" fill="#fdcdcf" stroke="#fdcdcf" stroke-width="1.51"/><path d="M412,-29L333,-26L346,41Z" fill="#fdcccc" stroke="#fdcccc" stroke-width="1.51"/><path d="M258,128L164,168L233,252Z" fill="#fdc5c3" stroke="#fdc5c3" stroke-width="1.51"/><path d="M515,-94L428,-97L486,-39Z" fill="#fdc8cf" stroke="#fdc8cf" stroke-width="1.51"/><path d="M673,-120L428,-97L611,-108Z" fill="#ffc0cd" stroke="#ffc0cd" stroke-width="1.51"/><path d="M143,485L79,559L177,599Z" fill="#f596b8" stroke="#f596b8" stroke-width="1.51"/><path d="M70,476L79,559L143,485Z" fill="#f89ebb" stroke="#f89ebb" stroke-width="1.51"/><path d="M169,40L164,168L258,128Z" fill="#fdcdc9" stroke="#fdcdc9" stroke-width="1.51"/><path d="M78,220L55,321L147,328Z" fill="#fcbfc8" stroke="#fcbfc8" stroke-width="1.51"/><path d="M76,398L143,485L164,421Z" fill="#fca6bc" stroke="#fca6bc" stroke-width="1.51"/><path d="M146,747L158,843L233,741Z" fill="#d47ba6" stroke="#d47ba6" stroke-width="1.51"/><path d="M68,768L158,843L146,747Z" fill="#d37fa9" stroke="#d37fa9" stroke-width="1.51"/><path d="M76,398L164,421L147,328Z" fill="#fdafbf" stroke="#fdafbf" stroke-width="1.51"/><path d="M1204,-27L1204,-92L1094,-98Z" fill="#d888b2" stroke="#d888b2" stroke-width="1.51"/><path d="M1351,165L1352,67L1266,130Z" fill="#c2729f" stroke="#c2729f" stroke-width="1.51"/><path d="M1466,147L1351,165L1380,217Z" fill="#b8689a" stroke="#b8689a" stroke-width="1.51"/><path d="M169,40L242,42L174,-47Z" fill="#fdd7d3" stroke="#fdd7d3" stroke-width="1.51"/><path d="M333,-26L242,42L346,41Z" fill="#fdcfcc" stroke="#fdcfcc" stroke-width="1.51"/><path d="M1459,318L1448,228L1382,317Z" fill="#b35895" stroke="#b35895" stroke-width="1.51"/><path d="M55,321L76,398L147,328Z" fill="#fdb6c4" stroke="#fdb6c4" stroke-width="1.51"/><path d="M1289,930L1387,942L1366,821Z" fill="#7d0177" stroke="#7d0177" stroke-width="1.51"/><path d="M1366,821L1467,770L1370,745Z" fill="#8c0179" stroke="#8c0179" stroke-width="1.51"/><path d="M1191,990L1295,1026L1289,930Z" fill="#7b0076" stroke="#7b0076" stroke-width="1.51"/><path d="M1109,1013L1295,1026L1191,990Z" fill="#7e0076" stroke="#7e0076" stroke-width="1.51"/><path d="M931,1032L1295,1026L1109,1013Z" fill="#860378" stroke="#860378" stroke-width="1.51"/><path d="M1458,601L1531,493L1451,474Z" fill="#a52a86" stroke="#a52a86" stroke-width="1.51"/><path d="M1541,589L1531,493L1458,601Z" fill="#9f2284" stroke="#9f2284" stroke-width="1.51"/><path d="M1458,826L1467,770L1366,821Z" fill="#840078" stroke="#840078" stroke-width="1.51"/><path d="M1352,67L1290,-19L1264,71Z" fill="#c579a7" stroke="#c579a7" stroke-width="1.51"/><path d="M1094,-98L1262,-111L920,-112Z" fill="#e290b8" stroke="#e290b8" stroke-width="1.51"/><path d="M1262,-111L1204,-92L1204,-27Z" fill="#d186b1" stroke="#d186b1" stroke-width="1.51"/><path d="M1379,993L1387,942L1289,930Z" fill="#740076" stroke="#740076" stroke-width="1.51"/><path d="M1464,904L1458,826L1366,821Z" fill="#7c0077" stroke="#7c0077" stroke-width="1.51"/><path d="M1458,601L1449,647L1542,657Z" fill="#991481" stroke="#991481" stroke-width="1.51"/><path d="M1541,589L1458,601L1542,657Z" fill="#981781" stroke="#981781" stroke-width="1.51"/><path d="M1522,154L1466,147L1448,228Z" fill="#af6597" stroke="#af6597" stroke-width="1.51"/><path d="M165,935L226,1001L244,927Z" fill="#b46f9f" stroke="#b46f9f" stroke-width="1.51"/><path d="M244,927L226,1001L347,996Z" fill="#b06a9a" stroke="#b06a9a" stroke-width="1.51"/><path d="M347,996L226,1001L492,1033Z" fill="#aa6196" stroke="#aa6196" stroke-width="1.51"/><path d="M79,559L55,681L163,665Z" fill="#eb8eb5" stroke="#eb8eb5" stroke-width="1.51"/><path d="M158,843L165,935L244,927Z" fill="#bd73a2" stroke="#bd73a2" stroke-width="1.51"/><path d="M-6,656L55,681L79,559Z" fill="#ec91b9" stroke="#ec91b9" stroke-width="1.51"/><path d="M82,915L165,935L158,843Z" fill="#be77a5" stroke="#be77a5" stroke-width="1.51"/><path d="M70,476L-12,505L79,559Z" fill="#f8a0be" stroke="#f8a0be" stroke-width="1.51"/><path d="M-17,388L-12,505L70,476Z" fill="#fea9c1" stroke="#fea9c1" stroke-width="1.51"/><path d="M78,220L147,328L176,236Z" fill="#fdc1c6" stroke="#fdc1c6" stroke-width="1.51"/><path d="M78,220L176,236L164,168Z" fill="#fcc7c8" stroke="#fcc7c8" stroke-width="1.51"/><path d="M1542,657L1449,647L1530,742Z" fill="#900c7d" stroke="#900c7d" stroke-width="1.51"/><path d="M1387,942L1464,904L1366,821Z" fill="#790077" stroke="#790077" stroke-width="1.51"/><path d="M1295,1026L1379,993L1289,930Z" fill="#730075" stroke="#730075" stroke-width="1.51"/><path d="M55,681L68,768L146,747Z" fill="#dc85ad" stroke="#dc85ad" stroke-width="1.51"/><path d="M65,136L78,220L164,168Z" fill="#fdcdcb" stroke="#fdcdcb" stroke-width="1.51"/><path d="M1530,742L1449,647L1467,770Z" fill="#8d057a" stroke="#8d057a" stroke-width="1.51"/><path d="M1530,742L1467,770L1533,843Z" fill="#7f0076" stroke="#7f0076" stroke-width="1.51"/><path d="M1542,229L1448,228L1459,318Z" fill="#ad5a94" stroke="#ad5a94" stroke-width="1.51"/><path d="M1448,228L1466,147L1380,217Z" fill="#b46498" stroke="#b46498" stroke-width="1.51"/><path d="M1355,-40L1262,-111L1290,-19Z" fill="#c782ae" stroke="#c782ae" stroke-width="1.51"/><path d="M242,42L169,40L258,128Z" fill="#fdd0cc" stroke="#fdd0cc" stroke-width="1.51"/><path d="M244,-47L242,42L333,-26Z" fill="#fdd4d0" stroke="#fdd4d0" stroke-width="1.51"/><path d="M1533,843L1467,770L1458,826Z" fill="#7d0076" stroke="#7d0076" stroke-width="1.51"/><path d="M1542,657L1557,397L1541,589Z" fill="#9c2484" stroke="#9c2484" stroke-width="1.51"/><path d="M1541,589L1557,397L1531,493Z" fill="#a12e85" stroke="#a12e85" stroke-width="1.51"/><path d="M1531,493L1557,397L1446,423Z" fill="#a83989" stroke="#a83989" stroke-width="1.51"/><path d="M310,-108L244,-47L333,-26Z" fill="#fdd7d2" stroke="#fdd7d2" stroke-width="1.51"/><path d="M428,-97L310,-108L333,-26Z" fill="#fed2d2" stroke="#fed2d2" stroke-width="1.51"/><path d="M673,-120L310,-108L428,-97Z" fill="#fecbd1" stroke="#fecbd1" stroke-width="1.51"/><path d="M1290,-19L1262,-111L1204,-27Z" fill="#cd83af" stroke="#cd83af" stroke-width="1.51"/><path d="M1204,-92L1262,-111L1094,-98Z" fill="#d68ab3" stroke="#d68ab3" stroke-width="1.51"/><path d="M920,-112L1453,-129L673,-120Z" fill="#eb97bd" stroke="#eb97bd" stroke-width="1.51"/><path d="M1355,-40L1290,-19L1352,67Z" fill="#c27caa" stroke="#c27caa" stroke-width="1.51"/><path d="M1434,1010L1464,904L1387,942Z" fill="#6c0073" stroke="#6c0073" stroke-width="1.51"/><path d="M79,990L171,1001L165,935Z" fill="#b173a2" stroke="#b173a2" stroke-width="1.51"/><path d="M165,935L171,1001L226,1001Z" fill="#b0709f" stroke="#b0709f" stroke-width="1.51"/><path d="M226,1001L171,1001L492,1033Z" fill="#aa6797" stroke="#aa6797" stroke-width="1.51"/><path d="M1452,46L1355,-40L1352,67Z" fill="#bb78a7" stroke="#bb78a7" stroke-width="1.51"/><path d="M1557,397L1558,320L1459,318Z" fill="#a84b8f" stroke="#a84b8f" stroke-width="1.51"/><path d="M-17,388L70,476L76,398Z" fill="#fdaec2" stroke="#fdaec2" stroke-width="1.51"/><path d="M4,752L57,844L68,768Z" fill="#d383ad" stroke="#d383ad" stroke-width="1.51"/><path d="M-17,388L76,398L55,321Z" fill="#fdb7c6" stroke="#fdb7c6" stroke-width="1.51"/><path d="M68,768L57,844L158,843Z" fill="#cd7eaa" stroke="#cd7eaa" stroke-width="1.51"/><path d="M4,752L68,768L55,681Z" fill="#dd87b0" stroke="#dd87b0" stroke-width="1.51"/><path d="M1558,320L1542,229L1459,318Z" fill="#a95592" stroke="#a95592" stroke-width="1.51"/><path d="M1466,147L1452,46L1352,67Z" fill="#b671a0" stroke="#b671a0" stroke-width="1.51"/><path d="M-28,590L-6,656L79,559Z" fill="#f296bd" stroke="#f296bd" stroke-width="1.51"/><path d="M1541,70L1452,46L1466,147Z" fill="#af6e9e" stroke="#af6e9e" stroke-width="1.51"/><path d="M310,-108L256,-103L244,-47Z" fill="#fedad5" stroke="#fedad5" stroke-width="1.51"/><path d="M244,-47L174,-47L242,42Z" fill="#fdd8d4" stroke="#fdd8d4" stroke-width="1.51"/><path d="M57,844L82,915L158,843Z" fill="#c47ca9" stroke="#c47ca9" stroke-width="1.51"/><path d="M-12,505L-28,590L79,559Z" fill="#f69dbe" stroke="#f69dbe" stroke-width="1.51"/><path d="M-36,338L-17,388L55,321Z" fill="#febcc9" stroke="#febcc9" stroke-width="1.51"/><path d="M-36,338L55,321L-22,216Z" fill="#fdc5cd" stroke="#fdc5cd" stroke-width="1.51"/><path d="M169,40L65,136L164,168Z" fill="#fdd1cd" stroke="#fdd1cd" stroke-width="1.51"/><path d="M73,46L65,136L169,40Z" fill="#fdd7d3" stroke="#fdd7d3" stroke-width="1.51"/><path d="M1542,657L1561,992L1557,397Z" fill="#8a0b7b" stroke="#8a0b7b" stroke-width="1.51"/><path d="M1530,742L1533,843L1542,657Z" fill="#830076" stroke="#830076" stroke-width="1.51"/><path d="M1464,904L1533,843L1458,826Z" fill="#750075" stroke="#750075" stroke-width="1.51"/><path d="M1527,905L1533,843L1464,904Z" fill="#6e0074" stroke="#6e0074" stroke-width="1.51"/><path d="M1379,993L1434,1010L1387,942Z" fill="#6a0072" stroke="#6a0072" stroke-width="1.51"/><path d="M1295,1026L1434,1010L1379,993Z" fill="#690073" stroke="#690073" stroke-width="1.51"/><path d="M1542,229L1522,154L1448,228Z" fill="#ac6196" stroke="#ac6196" stroke-width="1.51"/><path d="M-95,560L-28,590L-12,505Z" fill="#f7a0c1" stroke="#f7a0c1" stroke-width="1.51"/><path d="M-24,906L79,990L82,915Z" fill="#b77aaa" stroke="#b77aaa" stroke-width="1.51"/><path d="M-6,656L4,752L55,681Z" fill="#e38cb4" stroke="#e38cb4" stroke-width="1.51"/><path d="M-99,766L4,752L-6,656Z" fill="#df8cb5" stroke="#df8cb5" stroke-width="1.51"/><path d="M256,-103L174,-47L244,-47Z" fill="#fedbd7" stroke="#fedbd7" stroke-width="1.51"/><path d="M1561,992L1527,905L1464,904Z" fill="#650071" stroke="#650071" stroke-width="1.51"/><path d="M-113,409L-95,508L-12,505Z" fill="#fdacc5" stroke="#fdacc5" stroke-width="1.51"/><path d="M-22,216L55,321L78,220Z" fill="#fdc8cc" stroke="#fdc8cc" stroke-width="1.51"/><path d="M1452,46L1439,-35L1355,-40Z" fill="#b879a9" stroke="#b879a9" stroke-width="1.51"/><path d="M1355,-40L1387,-106L1262,-111Z" fill="#c282b0" stroke="#c282b0" stroke-width="1.51"/><path d="M1559,-21L1439,-35L1452,46Z" fill="#af76a6" stroke="#af76a6" stroke-width="1.51"/><path d="M65,136L-22,216L78,220Z" fill="#fdcfce" stroke="#fdcfce" stroke-width="1.51"/><path d="M73,-14L73,46L169,40Z" fill="#fddcd8" stroke="#fddcd8" stroke-width="1.51"/><path d="M-5,857L82,915L57,844Z" fill="#c37eab" stroke="#c37eab" stroke-width="1.51"/><path d="M82,915L79,990L165,935Z" fill="#b576a5" stroke="#b576a5" stroke-width="1.51"/><path d="M1439,-35L1387,-106L1355,-40Z" fill="#bb7eac" stroke="#bb7eac" stroke-width="1.51"/><path d="M-20,128L-22,216L65,136Z" fill="#fdd5d1" stroke="#fdd5d1" stroke-width="1.51"/><path d="M4,752L-5,857L57,844Z" fill="#ce83ae" stroke="#ce83ae" stroke-width="1.51"/><path d="M-24,906L-5,857L-92,817Z" fill="#c683b0" stroke="#c683b0" stroke-width="1.51"/><path d="M1439,-35L1453,-129L1387,-106Z" fill="#b77fae" stroke="#b77fae" stroke-width="1.51"/><path d="M1522,154L1541,70L1466,147Z" fill="#ab6a9a" stroke="#ab6a9a" stroke-width="1.51"/><path d="M1542,229L1541,70L1522,154Z" fill="#a96697" stroke="#a96697" stroke-width="1.51"/><path d="M1559,-21L1541,70L1542,229Z" fill="#a86b9b" stroke="#a86b9b" stroke-width="1.51"/><path d="M-113,409L-12,505L-17,388Z" fill="#ffb0c5" stroke="#ffb0c5" stroke-width="1.51"/><path d="M-28,590L-123,676L-6,656Z" fill="#ed96bc" stroke="#ed96bc" stroke-width="1.51"/><path d="M-113,409L-17,388L-36,338Z" fill="#febac9" stroke="#febac9" stroke-width="1.51"/><path d="M-95,508L-95,560L-12,505Z" fill="#f9a5c3" stroke="#f9a5c3" stroke-width="1.51"/><path d="M51,-98L73,-14L174,-47Z" fill="#fee2de" stroke="#fee2de" stroke-width="1.51"/><path d="M174,-47L73,-14L169,40Z" fill="#fdddd8" stroke="#fdddd8" stroke-width="1.51"/><path d="M73,46L-20,128L65,136Z" fill="#fdd8d4" stroke="#fdd8d4" stroke-width="1.51"/><path d="M256,-103L156,-120L174,-47Z" fill="#fedfdb" stroke="#fedfdb" stroke-width="1.51"/><path d="M310,-108L156,-120L256,-103Z" fill="#feddd9" stroke="#feddd9" stroke-width="1.51"/><path d="M673,-120L156,-120L310,-108Z" fill="#fed3d4" stroke="#fed3d4" stroke-width="1.51"/><path d="M-31,61L-20,128L73,46Z" fill="#fedcd8" stroke="#fedcd8" stroke-width="1.51"/><path d="M-117,301L-113,409L-36,338Z" fill="#fec0cd" stroke="#fec0cd" stroke-width="1.51"/><path d="M-5,857L-24,906L82,915Z" fill="#c07fac" stroke="#c07fac" stroke-width="1.51"/><path d="M-92,817L-5,857L4,752Z" fill="#d086b0" stroke="#d086b0" stroke-width="1.51"/><path d="M-95,508L-123,676L-95,560Z" fill="#f59fc3" stroke="#f59fc3" stroke-width="1.51"/><path d="M-117,301L-36,338L-22,216Z" fill="#fec9d0" stroke="#fec9d0" stroke-width="1.51"/><path d="M1434,1010L1561,992L1464,904Z" fill="#630071" stroke="#630071" stroke-width="1.51"/><path d="M1527,905L1561,992L1533,843Z" fill="#650072" stroke="#650072" stroke-width="1.51"/><path d="M1533,843L1561,992L1542,657Z" fill="#730073" stroke="#730073" stroke-width="1.51"/><path d="M1557,397L1561,992L1558,320Z" fill="#981f83" stroke="#981f83" stroke-width="1.51"/><path d="M-123,676L-99,766L-6,656Z" fill="#e391b9" stroke="#e391b9" stroke-width="1.51"/><path d="M-123,676L-28,590L-95,560Z" fill="#f29bc1" stroke="#f29bc1" stroke-width="1.51"/><path d="M1524,-101L1453,-129L1439,-35Z" fill="#b27dac" stroke="#b27dac" stroke-width="1.51"/><path d="M1387,-106L1453,-129L1262,-111Z" fill="#bf83b1" stroke="#bf83b1" stroke-width="1.51"/><path d="M1262,-111L1453,-129L920,-112Z" fill="#d48ab4" stroke="#d48ab4" stroke-width="1.51"/><path d="M673,-120L-2,-122L156,-120Z" fill="#fedcd8" stroke="#fedcd8" stroke-width="1.51"/><path d="M-113,409L-123,676L-95,508Z" fill="#f9a6c5" stroke="#f9a6c5" stroke-width="1.51"/><path d="M-113,409L-122,249L-123,676Z" fill="#ffb2c8" stroke="#ffb2c8" stroke-width="1.51"/><path d="M-122,249L-117,301L-22,216Z" fill="#feced2" stroke="#feced2" stroke-width="1.51"/><path d="M-97,909L-92,817L-99,766Z" fill="#cd88b3" stroke="#cd88b3" stroke-width="1.51"/><path d="M-99,766L-92,817L4,752Z" fill="#d689b3" stroke="#d689b3" stroke-width="1.51"/><path d="M-111,149L-122,249L-22,216Z" fill="#ffd4d4" stroke="#ffd4d4" stroke-width="1.51"/><path d="M-1,-21L-31,61L73,46Z" fill="#fee0dd" stroke="#fee0dd" stroke-width="1.51"/><path d="M-1,-21L73,46L73,-14Z" fill="#fde1dd" stroke="#fde1dd" stroke-width="1.51"/><path d="M1541,70L1559,-21L1452,46Z" fill="#ac72a2" stroke="#ac72a2" stroke-width="1.51"/><path d="M1558,320L1559,-21L1542,229Z" fill="#a66295" stroke="#a66295" stroke-width="1.51"/><path d="M1561,992L1559,-21L1558,320Z" fill="#a33988" stroke="#a33988" stroke-width="1.51"/><path d="M-117,301L-122,249L-113,409Z" fill="#ffc7d1" stroke="#ffc7d1" stroke-width="1.51"/><path d="M-111,149L-22,216L-20,128Z" fill="#fed7d4" stroke="#fed7d4" stroke-width="1.51"/><path d="M-112,73L-111,149L-20,128Z" fill="#feddd9" stroke="#feddd9" stroke-width="1.51"/><path d="M51,-98L-1,-21L73,-14Z" fill="#fee4e1" stroke="#fee4e1" stroke-width="1.51"/><path d="M156,-120L51,-98L174,-47Z" fill="#fee3df" stroke="#fee3df" stroke-width="1.51"/><path d="M1559,-21L1524,-101L1439,-35Z" fill="#ad79a9" stroke="#ad79a9" stroke-width="1.51"/><path d="M-97,909L-31,1014L-24,906Z" fill="#b87fae" stroke="#b87fae" stroke-width="1.51"/><path d="M-24,906L-31,1014L79,990Z" fill="#b37aa9" stroke="#b37aa9" stroke-width="1.51"/><path d="M79,990L-31,1014L171,1001Z" fill="#ad75a6" stroke="#ad75a6" stroke-width="1.51"/><path d="M171,1001L-108,1030L492,1033Z" fill="#a96d9e" stroke="#a96d9e" stroke-width="1.51"/><path d="M-112,73L-20,128L-31,61Z" fill="#fededa" stroke="#fededa" stroke-width="1.51"/><path d="M-92,817L-97,909L-24,906Z" fill="#c384b1" stroke="#c384b1" stroke-width="1.51"/><path d="M-123,676L-97,909L-99,766Z" fill="#d58bb5" stroke="#d58bb5" stroke-width="1.51"/><path d="M-119,-30L-112,73L-31,61Z" fill="#fee5e1" stroke="#fee5e1" stroke-width="1.51"/><path d="M-111,149L-112,73L-122,249Z" fill="#fedbd7" stroke="#fedbd7" stroke-width="1.51"/><path d="M-119,-30L-31,61L-1,-21Z" fill="#fee6e2" stroke="#fee6e2" stroke-width="1.51"/><path d="M51,-98L-2,-122L-1,-21Z" fill="#fee9e5" stroke="#fee9e5" stroke-width="1.51"/><path d="M156,-120L-2,-122L51,-98Z" fill="#fee8e5" stroke="#fee8e5" stroke-width="1.51"/><path d="M1453,-129L-2,-122L673,-120Z" fill="#ffb2c7" stroke="#ffb2c7" stroke-width="1.51"/><path d="M-97,909L-108,1030L-31,1014Z" fill="#b17ead" stroke="#b17ead" stroke-width="1.51"/><path d="M-31,1014L-108,1030L171,1001Z" fill="#ab78a7" stroke="#ab78a7" stroke-width="1.51"/><path d="M-123,676L-108,1030L-97,909Z" fill="#c586b3" stroke="#c586b3" stroke-width="1.51"/><path d="M-81,-100L-119,-30L-1,-21Z" fill="#feebe7" stroke="#feebe7" stroke-width="1.51"/><path d="M-112,73L-119,-30L-122,249Z" fill="#ffe1dd" stroke="#ffe1dd" stroke-width="1.51"/><path d="M-2,-122L-81,-100L-1,-21Z" fill="#feece7" stroke="#feece7" stroke-width="1.51"/></svg>