<svg xmlns="http://www.w3.org/2000/svg" width="1440" height="900"><path d="M751,474L768,559L829,481Z" fill="#6fc4c9" stroke="#6fc4c9" stroke-width="1.51"/><path d="M768,559L853,595L829,481Z" fill="#66becd" stroke="#66becd" stroke-width="1.51"/><path d="M751,474L667,514L768,559Z" fill="#72c6c8" stroke="#72c6c8" stroke-width="1.51"/><path d="M829,481L755,394L751,474Z" fill="#76c8c6" stroke="#76c8c6" stroke-width="1.51"/><path d="M751,474L686,388L667,514Z" fill="#7cccc4" stroke="#7cccc4" stroke-width="1.51"/><path d="M768,559L776,644L853,595Z" fill="#5fbbcf" stroke="#5fbbcf" stroke-width="1.51"/><path d="M670,598L776,644L768,559Z" fill="#65becc" stroke="#65becc" stroke-width="1.51"/><path d="M829,481L871,403L755,394Z" fill="#77c7c7" stroke="#77c7c7" stroke-width="1.51"/><path d="M932,481L871,403L829,481Z" fill="#6dc2ca" stroke="#6dc2ca" stroke-width="1.51"/><path d="M667,514L670,598L768,559Z" fill="#70c3c9" stroke="#70c3c9" stroke-width="1.51"/><path d="M853,595L932,481L829,481Z" fill="#64bdcd" stroke="#64bdcd" stroke-width="1.51"/><path d="M755,394L686,388L751,474Z" fill="#7fcdc3" stroke="#7fcdc3" stroke-width="1.51"/><path d="M680,332L686,388L755,394Z" fill="#89d1c0" stroke="#89d1c0" stroke-width="1.51"/><path d="M776,644L854,662L853,595Z" fill="#58b4cd" stroke="#58b4cd" stroke-width="1.51"/><path d="M853,595L953,578L932,481Z" fill="#5ab8d0" stroke="#5ab8d0" stroke-width="1.51"/><path d="M933,684L953,578L853,595Z" fill="#4fb2d1" stroke="#4fb2d1" stroke-width="1.51"/><path d="M670,598L675,651L776,644Z" fill="#67bcc9" stroke="#67bcc9" stroke-width="1.51"/><path d="M776,644L851,750L854,662Z" fill="#54aeca" stroke="#54aeca" stroke-width="1.51"/><path d="M932,481L952,422L871,403Z" fill="#6cc1cb" stroke="#6cc1cb" stroke-width="1.51"/><path d="M1025,477L952,422L932,481Z" fill="#64bbcb" stroke="#64bbcb" stroke-width="1.51"/><path d="M850,304L766,315L755,394Z" fill="#88cec1" stroke="#88cec1" stroke-width="1.51"/><path d="M850,304L755,394L871,403Z" fill="#80cac4" stroke="#80cac4" stroke-width="1.51"/><path d="M670,598L597,590L675,651Z" fill="#71c1c8" stroke="#71c1c8" stroke-width="1.51"/><path d="M667,514L597,590L670,598Z" fill="#76c5c8" stroke="#76c5c8" stroke-width="1.51"/><path d="M574,482L597,590L667,514Z" fill="#7ec9c5" stroke="#7ec9c5" stroke-width="1.51"/><path d="M569,421L574,482L667,514Z" fill="#86cec1" stroke="#86cec1" stroke-width="1.51"/><path d="M766,315L680,332L755,394Z" fill="#8bd1c0" stroke="#8bd1c0" stroke-width="1.51"/><path d="M569,421L667,514L686,388Z" fill="#86cfc1" stroke="#86cfc1" stroke-width="1.51"/><path d="M944,337L850,304L871,403Z" fill="#7fc7c5" stroke="#7fc7c5" stroke-width="1.51"/><path d="M854,662L933,684L853,595Z" fill="#51b0ce" stroke="#51b0ce" stroke-width="1.51"/><path d="M851,750L933,684L854,662Z" fill="#4ca9ca" stroke="#4ca9ca" stroke-width="1.51"/><path d="M953,578L1025,477L932,481Z" fill="#5cb7cd" stroke="#5cb7cd" stroke-width="1.51"/><path d="M933,684L1006,582L953,578Z" fill="#4baed0" stroke="#4baed0" stroke-width="1.51"/><path d="M952,422L944,337L871,403Z" fill="#75c4c8" stroke="#75c4c8" stroke-width="1.51"/><path d="M1042,399L944,337L952,422Z" fill="#72bfc7" stroke="#72bfc7" stroke-width="1.51"/><path d="M610,314L569,421L686,388Z" fill="#92d4bd" stroke="#92d4bd" stroke-width="1.51"/><path d="M1006,582L1025,477L953,578Z" fill="#54b2ce" stroke="#54b2ce" stroke-width="1.51"/><path d="M675,651L743,751L776,644Z" fill="#5fb4c7" stroke="#5fb4c7" stroke-width="1.51"/><path d="M664,771L743,751L675,651Z" fill="#61b0c2" stroke="#61b0c2" stroke-width="1.51"/><path d="M743,751L851,750L776,644Z" fill="#56acc6" stroke="#56acc6" stroke-width="1.51"/><path d="M597,590L572,660L675,651Z" fill="#72bfc6" stroke="#72bfc6" stroke-width="1.51"/><path d="M515,587L572,660L597,590Z" fill="#7bc4c5" stroke="#7bc4c5" stroke-width="1.51"/><path d="M515,587L597,590L574,482Z" fill="#82c9c4" stroke="#82c9c4" stroke-width="1.51"/><path d="M680,332L610,314L686,388Z" fill="#93d4bd" stroke="#93d4bd" stroke-width="1.51"/><path d="M693,225L610,314L680,332Z" fill="#9ad7bb" stroke="#9ad7bb" stroke-width="1.51"/><path d="M693,225L680,332L766,315Z" fill="#95d5bd" stroke="#95d5bd" stroke-width="1.51"/><path d="M850,304L837,249L766,315Z" fill="#8dcfc1" stroke="#8dcfc1" stroke-width="1.51"/><path d="M927,213L837,249L850,304Z" fill="#8dcdc5" stroke="#8dcdc5" stroke-width="1.51"/><path d="M837,249L776,243L766,315Z" fill="#91d1c1" stroke="#91d1c1" stroke-width="1.51"/><path d="M1025,477L1042,399L952,422Z" fill="#67bac7" stroke="#67bac7" stroke-width="1.51"/><path d="M944,337L927,213L850,304Z" fill="#87cac4" stroke="#87cac4" stroke-width="1.51"/><path d="M1088,475L1042,399L1025,477Z" fill="#60b5c6" stroke="#60b5c6" stroke-width="1.51"/><path d="M500,484L515,587L574,482Z" fill="#89cec1" stroke="#89cec1" stroke-width="1.51"/><path d="M582,751L664,771L675,651Z" fill="#68b2c1" stroke="#68b2c1" stroke-width="1.51"/><path d="M743,751L742,823L851,750Z" fill="#53a5c2" stroke="#53a5c2" stroke-width="1.51"/><path d="M569,421L500,484L574,482Z" fill="#8dd2bf" stroke="#8dd2bf" stroke-width="1.51"/><path d="M490,414L500,484L569,421Z" fill="#93d4bd" stroke="#93d4bd" stroke-width="1.51"/><path d="M933,684L1037,662L1006,582Z" fill="#46a8cd" stroke="#46a8cd" stroke-width="1.51"/><path d="M1006,582L1088,475L1025,477Z" fill="#57b1ca" stroke="#57b1ca" stroke-width="1.51"/><path d="M1035,735L1037,662L933,684Z" fill="#40a1c9" stroke="#40a1c9" stroke-width="1.51"/><path d="M851,750L940,765L933,684Z" fill="#44a3c9" stroke="#44a3c9" stroke-width="1.51"/><path d="M916,824L940,765L851,750Z" fill="#429ec6" stroke="#429ec6" stroke-width="1.51"/><path d="M762,154L693,225L776,243Z" fill="#9dd7c3" stroke="#9dd7c3" stroke-width="1.51"/><path d="M776,243L693,225L766,315Z" fill="#96d5c0" stroke="#96d5c0" stroke-width="1.51"/><path d="M1127,579L1088,475L1006,582Z" fill="#4fabca" stroke="#4fabca" stroke-width="1.51"/><path d="M511,333L490,414L569,421Z" fill="#9ad7ba" stroke="#9ad7ba" stroke-width="1.51"/><path d="M511,333L569,421L610,314Z" fill="#9bd7ba" stroke="#9bd7ba" stroke-width="1.51"/><path d="M664,771L742,823L743,751Z" fill="#59a8c0" stroke="#59a8c0" stroke-width="1.51"/><path d="M664,771L688,860L742,823Z" fill="#5aa4bd" stroke="#5aa4bd" stroke-width="1.51"/><path d="M572,660L582,751L675,651Z" fill="#6fb8c2" stroke="#6fb8c2" stroke-width="1.51"/><path d="M522,756L582,751L572,660Z" fill="#73b6be" stroke="#73b6be" stroke-width="1.51"/><path d="M742,823L847,831L851,750Z" fill="#4da0c2" stroke="#4da0c2" stroke-width="1.51"/><path d="M1042,399L1043,307L944,337Z" fill="#76bec4" stroke="#76bec4" stroke-width="1.51"/><path d="M1124,327L1043,307L1042,399Z" fill="#74b9c1" stroke="#74b9c1" stroke-width="1.51"/><path d="M519,248L511,333L610,314Z" fill="#a4dbb7" stroke="#a4dbb7" stroke-width="1.51"/><path d="M1009,213L927,213L944,337Z" fill="#88c8c6" stroke="#88c8c6" stroke-width="1.51"/><path d="M837,249L762,154L776,243Z" fill="#98d4c4" stroke="#98d4c4" stroke-width="1.51"/><path d="M693,225L596,237L610,314Z" fill="#a1dabc" stroke="#a1dabc" stroke-width="1.51"/><path d="M1037,662L1127,579L1006,582Z" fill="#45a7cc" stroke="#45a7cc" stroke-width="1.51"/><path d="M940,765L1035,735L933,684Z" fill="#3e9fc8" stroke="#3e9fc8" stroke-width="1.51"/><path d="M1016,835L1035,735L940,765Z" fill="#3797c4" stroke="#3797c4" stroke-width="1.51"/><path d="M847,831L916,824L851,750Z" fill="#459cc4" stroke="#459cc4" stroke-width="1.51"/><path d="M515,587L495,684L572,660Z" fill="#7dc1c3" stroke="#7dc1c3" stroke-width="1.51"/><path d="M438,565L495,684L515,587Z" fill="#84c7c5" stroke="#84c7c5" stroke-width="1.51"/><path d="M438,565L515,587L500,484Z" fill="#8acdc2" stroke="#8acdc2" stroke-width="1.51"/><path d="M1088,475L1110,402L1042,399Z" fill="#63b4c4" stroke="#63b4c4" stroke-width="1.51"/><path d="M1187,497L1110,402L1088,475Z" fill="#5aadc3" stroke="#5aadc3" stroke-width="1.51"/><path d="M1108,680L1127,579L1037,662Z" fill="#3ea0c9" stroke="#3ea0c9" stroke-width="1.51"/><path d="M397,507L438,565L500,484Z" fill="#91d1c2" stroke="#91d1c2" stroke-width="1.51"/><path d="M430,405L500,484L490,414Z" fill="#98d6bd" stroke="#98d6bd" stroke-width="1.51"/><path d="M693,225L668,159L596,237Z" fill="#a5dbbf" stroke="#a5dbbf" stroke-width="1.51"/><path d="M861,137L762,154L837,249Z" fill="#9bd4c7" stroke="#9bd4c7" stroke-width="1.51"/><path d="M585,823L688,860L664,771Z" fill="#62a6bb" stroke="#62a6bb" stroke-width="1.51"/><path d="M495,684L522,756L572,660Z" fill="#78b9bf" stroke="#78b9bf" stroke-width="1.51"/><path d="M421,758L522,756L495,684Z" fill="#7ab7bd" stroke="#7ab7bd" stroke-width="1.51"/><path d="M742,823L759,928L847,831Z" fill="#4e9abd" stroke="#4e9abd" stroke-width="1.51"/><path d="M949,924L1016,835L916,824Z" fill="#3690c1" stroke="#3690c1" stroke-width="1.51"/><path d="M585,823L664,771L582,751Z" fill="#68acbd" stroke="#68acbd" stroke-width="1.51"/><path d="M1035,735L1108,680L1037,662Z" fill="#3b9bc6" stroke="#3b9bc6" stroke-width="1.51"/><path d="M762,154L668,159L693,225Z" fill="#a3dac3" stroke="#a3dac3" stroke-width="1.51"/><path d="M1043,307L1009,213L944,337Z" fill="#81c2c2" stroke="#81c2c2" stroke-width="1.51"/><path d="M927,213L861,137L837,249Z" fill="#94d0c7" stroke="#94d0c7" stroke-width="1.51"/><path d="M1122,244L1009,213L1043,307Z" fill="#82bec1" stroke="#82bec1" stroke-width="1.51"/><path d="M522,756L585,823L582,751Z" fill="#6eaebb" stroke="#6eaebb" stroke-width="1.51"/><path d="M511,333L430,405L490,414Z" fill="#9fd9bb" stroke="#9fd9bb" stroke-width="1.51"/><path d="M399,315L430,405L511,333Z" fill="#a6dcba" stroke="#a6dcba" stroke-width="1.51"/><path d="M519,248L610,314L596,237Z" fill="#a5dbb9" stroke="#a5dbb9" stroke-width="1.51"/><path d="M489,152L519,248L596,237Z" fill="#b0e0ba" stroke="#b0e0ba" stroke-width="1.51"/><path d="M952,162L861,137L927,213Z" fill="#95cfcb" stroke="#95cfcb" stroke-width="1.51"/><path d="M696,45L600,138L668,159Z" fill="#aedfc5" stroke="#aedfc5" stroke-width="1.51"/><path d="M1176,339L1124,327L1110,402Z" fill="#6db2be" stroke="#6db2be" stroke-width="1.51"/><path d="M1110,402L1124,327L1042,399Z" fill="#6cb5c1" stroke="#6cb5c1" stroke-width="1.51"/><path d="M1009,213L952,162L927,213Z" fill="#8fcac9" stroke="#8fcac9" stroke-width="1.51"/><path d="M430,405L397,507L500,484Z" fill="#97d5c0" stroke="#97d5c0" stroke-width="1.51"/><path d="M438,565L407,681L495,684Z" fill="#85c4c4" stroke="#85c4c4" stroke-width="1.51"/><path d="M1035,735L1127,767L1108,680Z" fill="#3494c2" stroke="#3494c2" stroke-width="1.51"/><path d="M916,824L1016,835L940,765Z" fill="#3997c4" stroke="#3997c4" stroke-width="1.51"/><path d="M949,924L916,824L847,831Z" fill="#3d94c1" stroke="#3d94c1" stroke-width="1.51"/><path d="M1127,579L1187,497L1088,475Z" fill="#51a8c6" stroke="#51a8c6" stroke-width="1.51"/><path d="M1192,579L1187,497L1127,579Z" fill="#48a2c6" stroke="#48a2c6" stroke-width="1.51"/><path d="M1179,652L1192,579L1127,579Z" fill="#3e9ec8" stroke="#3e9ec8" stroke-width="1.51"/><path d="M1179,652L1127,579L1108,680Z" fill="#3b9cc6" stroke="#3b9cc6" stroke-width="1.51"/><path d="M339,560L407,681L438,565Z" fill="#8dcbc9" stroke="#8dcbc9" stroke-width="1.51"/><path d="M522,756L490,854L585,823Z" fill="#70abb8" stroke="#70abb8" stroke-width="1.51"/><path d="M1204,739L1179,652L1108,680Z" fill="#3393c2" stroke="#3393c2" stroke-width="1.51"/><path d="M696,45L668,159L762,154Z" fill="#a9ddc6" stroke="#a9ddc6" stroke-width="1.51"/><path d="M668,159L600,138L596,237Z" fill="#acdec0" stroke="#acdec0" stroke-width="1.51"/><path d="M688,860L759,928L742,823Z" fill="#539cbb" stroke="#539cbb" stroke-width="1.51"/><path d="M673,918L759,928L688,860Z" fill="#5599b8" stroke="#5599b8" stroke-width="1.51"/><path d="M585,908L688,860L585,823Z" fill="#63a1b8" stroke="#63a1b8" stroke-width="1.51"/><path d="M585,908L673,918L688,860Z" fill="#5d9cb7" stroke="#5d9cb7" stroke-width="1.51"/><path d="M1209,413L1176,339L1110,402Z" fill="#67aebe" stroke="#67aebe" stroke-width="1.51"/><path d="M1124,327L1122,244L1043,307Z" fill="#7ab9bd" stroke="#7ab9bd" stroke-width="1.51"/><path d="M1009,213L1020,134L952,162Z" fill="#90c8c9" stroke="#90c8c9" stroke-width="1.51"/><path d="M1109,835L1127,767L1035,735Z" fill="#2f8ec0" stroke="#2f8ec0" stroke-width="1.51"/><path d="M759,928L828,935L847,831Z" fill="#4894bc" stroke="#4894bc" stroke-width="1.51"/><path d="M1176,339L1122,244L1124,327Z" fill="#76b4bb" stroke="#76b4bb" stroke-width="1.51"/><path d="M1262,393L1209,413L1291,474Z" fill="#5ca4bd" stroke="#5ca4bd" stroke-width="1.51"/><path d="M1187,497L1209,413L1110,402Z" fill="#5caac0" stroke="#5caac0" stroke-width="1.51"/><path d="M416,234L511,333L519,248Z" fill="#aedfb7" stroke="#aedfb7" stroke-width="1.51"/><path d="M416,234L399,315L511,333Z" fill="#aedfb8" stroke="#aedfb8" stroke-width="1.51"/><path d="M430,405L334,476L397,507Z" fill="#9cd7c2" stroke="#9cd7c2" stroke-width="1.51"/><path d="M407,681L421,758L495,684Z" fill="#80bbc0" stroke="#80bbc0" stroke-width="1.51"/><path d="M952,162L947,81L861,137Z" fill="#99d0ce" stroke="#99d0ce" stroke-width="1.51"/><path d="M861,137L832,54L762,154Z" fill="#a1d6cb" stroke="#a1d6cb" stroke-width="1.51"/><path d="M1089,140L1020,134L1009,213Z" fill="#8fc4c7" stroke="#8fc4c7" stroke-width="1.51"/><path d="M828,935L949,924L847,831Z" fill="#3f91be" stroke="#3f91be" stroke-width="1.51"/><path d="M1016,835L1109,835L1035,735Z" fill="#318fc0" stroke="#318fc0" stroke-width="1.51"/><path d="M490,854L585,908L585,823Z" fill="#6ba4b6" stroke="#6ba4b6" stroke-width="1.51"/><path d="M742,1025L828,935L759,928Z" fill="#4a8db2" stroke="#4a8db2" stroke-width="1.51"/><path d="M397,507L339,560L438,565Z" fill="#93d0c5" stroke="#93d0c5" stroke-width="1.51"/><path d="M320,771L412,824L421,758Z" fill="#80b3bd" stroke="#80b3bd" stroke-width="1.51"/><path d="M334,476L339,560L397,507Z" fill="#99d4c6" stroke="#99d4c6" stroke-width="1.51"/><path d="M421,758L490,854L522,756Z" fill="#77b0ba" stroke="#77b0ba" stroke-width="1.51"/><path d="M326,409L334,476L430,405Z" fill="#a3dac1" stroke="#a3dac1" stroke-width="1.51"/><path d="M1097,918L1109,835L1016,835Z" fill="#2a86bc" stroke="#2a86bc" stroke-width="1.51"/><path d="M1127,767L1204,739L1108,680Z" fill="#2f8fc0" stroke="#2f8fc0" stroke-width="1.51"/><path d="M1020,134L947,81L952,162Z" fill="#96cbcc" stroke="#96cbcc" stroke-width="1.51"/><path d="M947,81L832,54L861,137Z" fill="#9ed3ce" stroke="#9ed3ce" stroke-width="1.51"/><path d="M949,924L1009,914L1016,835Z" fill="#3089be" stroke="#3089be" stroke-width="1.51"/><path d="M342,338L326,409L430,405Z" fill="#a8dcbf" stroke="#a8dcbf" stroke-width="1.51"/><path d="M489,152L416,234L519,248Z" fill="#b5e2ba" stroke="#b5e2ba" stroke-width="1.51"/><path d="M600,138L489,152L596,237Z" fill="#b1e0bd" stroke="#b1e0bd" stroke-width="1.51"/><path d="M511,81L489,152L600,138Z" fill="#b9e4bf" stroke="#b9e4bf" stroke-width="1.51"/><path d="M832,54L773,41L762,154Z" fill="#a6d9cc" stroke="#a6d9cc" stroke-width="1.51"/><path d="M247,564L323,686L339,560Z" fill="#95cdcc" stroke="#95cdcc" stroke-width="1.51"/><path d="M342,338L430,405L399,315Z" fill="#aadebc" stroke="#aadebc" stroke-width="1.51"/><path d="M773,41L696,45L762,154Z" fill="#a9dccb" stroke="#a9dccb" stroke-width="1.51"/><path d="M1197,846L1204,739L1127,767Z" fill="#2786bb" stroke="#2786bb" stroke-width="1.51"/><path d="M1179,652L1266,587L1192,579Z" fill="#3b9ac6" stroke="#3b9ac6" stroke-width="1.51"/><path d="M1192,579L1266,587L1187,497Z" fill="#469dc4" stroke="#469dc4" stroke-width="1.51"/><path d="M339,214L342,338L399,315Z" fill="#b5e2bb" stroke="#b5e2bb" stroke-width="1.51"/><path d="M1122,244L1089,140L1009,213Z" fill="#88bfc4" stroke="#88bfc4" stroke-width="1.51"/><path d="M1020,134L1005,74L947,81Z" fill="#97cbce" stroke="#97cbce" stroke-width="1.51"/><path d="M1182,163L1089,140L1122,244Z" fill="#87bbc1" stroke="#87bbc1" stroke-width="1.51"/><path d="M1181,225L1122,244L1176,339Z" fill="#7ab4bc" stroke="#7ab4bc" stroke-width="1.51"/><path d="M1268,666L1266,587L1179,652Z" fill="#3694c3" stroke="#3694c3" stroke-width="1.51"/><path d="M1262,393L1176,339L1209,413Z" fill="#66a9bc" stroke="#66a9bc" stroke-width="1.51"/><path d="M1288,335L1181,225L1176,339Z" fill="#74aeb8" stroke="#74aeb8" stroke-width="1.51"/><path d="M947,81L858,-9L832,54Z" fill="#a1d5d2" stroke="#a1d5d2" stroke-width="1.51"/><path d="M832,54L858,-9L773,41Z" fill="#a7d8d1" stroke="#a7d8d1" stroke-width="1.51"/><path d="M1089,140L1005,74L1020,134Z" fill="#92c6ca" stroke="#92c6ca" stroke-width="1.51"/><path d="M421,758L412,824L490,854Z" fill="#79aeba" stroke="#79aeba" stroke-width="1.51"/><path d="M490,854L513,945L585,908Z" fill="#6c9fb3" stroke="#6c9fb3" stroke-width="1.51"/><path d="M323,686L421,758L407,681Z" fill="#85bdc2" stroke="#85bdc2" stroke-width="1.51"/><path d="M1291,474L1209,413L1187,497Z" fill="#56a4bf" stroke="#56a4bf" stroke-width="1.51"/><path d="M247,564L339,560L334,476Z" fill="#9cd4c8" stroke="#9cd4c8" stroke-width="1.51"/><path d="M339,560L323,686L407,681Z" fill="#8dc7c7" stroke="#8dc7c7" stroke-width="1.51"/><path d="M489,152L428,165L416,234Z" fill="#bbe5bd" stroke="#bbe5bd" stroke-width="1.51"/><path d="M416,234L339,214L399,315Z" fill="#b8e3bc" stroke="#b8e3bc" stroke-width="1.51"/><path d="M400,53L428,165L489,152Z" fill="#c1e7c1" stroke="#c1e7c1" stroke-width="1.51"/><path d="M696,45L572,57L600,138Z" fill="#b4e2c6" stroke="#b4e2c6" stroke-width="1.51"/><path d="M1266,587L1291,474L1187,497Z" fill="#4b9dc1" stroke="#4b9dc1" stroke-width="1.51"/><path d="M1266,587L1349,588L1291,474Z" fill="#4396c0" stroke="#4396c0" stroke-width="1.51"/><path d="M1204,739L1268,666L1179,652Z" fill="#318fc0" stroke="#318fc0" stroke-width="1.51"/><path d="M828,935L845,1015L949,924Z" fill="#3d88b6" stroke="#3d88b6" stroke-width="1.51"/><path d="M949,924L1041,1004L1009,914Z" fill="#2e81b6" stroke="#2e81b6" stroke-width="1.51"/><path d="M742,1025L845,1015L828,935Z" fill="#4687af" stroke="#4687af" stroke-width="1.51"/><path d="M742,1025L759,928L673,918Z" fill="#5090b1" stroke="#5090b1" stroke-width="1.51"/><path d="M572,57L511,81L600,138Z" fill="#b8e3c3" stroke="#b8e3c3" stroke-width="1.51"/><path d="M1204,739L1262,772L1268,666Z" fill="#2a87bc" stroke="#2a87bc" stroke-width="1.51"/><path d="M1109,835L1197,846L1127,767Z" fill="#2785ba" stroke="#2785ba" stroke-width="1.51"/><path d="M1009,914L1097,918L1016,835Z" fill="#2c85bc" stroke="#2c85bc" stroke-width="1.51"/><path d="M1041,1004L1097,918L1009,914Z" fill="#297db4" stroke="#297db4" stroke-width="1.51"/><path d="M670,1023L742,1025L673,918Z" fill="#548dac" stroke="#548dac" stroke-width="1.51"/><path d="M427,914L513,945L490,854Z" fill="#72a1b3" stroke="#72a1b3" stroke-width="1.51"/><path d="M670,1023L673,918L585,908Z" fill="#5c95b0" stroke="#5c95b0" stroke-width="1.51"/><path d="M753,-35L679,-15L696,45Z" fill="#b1e0cf" stroke="#b1e0cf" stroke-width="1.51"/><path d="M696,45L583,-5L572,57Z" fill="#b7e3c9" stroke="#b7e3c9" stroke-width="1.51"/><path d="M941,-47L858,-9L947,81Z" fill="#a1d3d6" stroke="#a1d3d6" stroke-width="1.51"/><path d="M572,1027L670,1023L585,908Z" fill="#5f91a9" stroke="#5f91a9" stroke-width="1.51"/><path d="M1089,140L1123,72L1005,74Z" fill="#92c3ca" stroke="#92c3ca" stroke-width="1.51"/><path d="M1005,74L941,-47L947,81Z" fill="#9ccfd3" stroke="#9ccfd3" stroke-width="1.51"/><path d="M1181,225L1182,163L1122,244Z" fill="#82b6bf" stroke="#82b6bf" stroke-width="1.51"/><path d="M1266,130L1182,163L1181,225Z" fill="#85b4bf" stroke="#85b4bf" stroke-width="1.51"/><path d="M1288,335L1176,339L1262,393Z" fill="#6aa9ba" stroke="#6aa9ba" stroke-width="1.51"/><path d="M1097,918L1197,846L1109,835Z" fill="#2380b8" stroke="#2380b8" stroke-width="1.51"/><path d="M1358,403L1288,335L1262,393Z" fill="#63a2b8" stroke="#63a2b8" stroke-width="1.51"/><path d="M412,824L427,914L490,854Z" fill="#76a7b6" stroke="#76a7b6" stroke-width="1.51"/><path d="M323,686L320,771L421,758Z" fill="#85bac1" stroke="#85bac1" stroke-width="1.51"/><path d="M233,741L320,771L323,686Z" fill="#8bbdc4" stroke="#8bbdc4" stroke-width="1.51"/><path d="M326,409L261,410L334,476Z" fill="#a7dcc3" stroke="#a7dcc3" stroke-width="1.51"/><path d="M342,338L261,410L326,409Z" fill="#addec1" stroke="#addec1" stroke-width="1.51"/><path d="M240,310L261,410L342,338Z" fill="#b4e1c0" stroke="#b4e1c0" stroke-width="1.51"/><path d="M753,-35L696,45L773,41Z" fill="#addecf" stroke="#addecf" stroke-width="1.51"/><path d="M572,57L486,-39L511,81Z" fill="#c0e6c6" stroke="#c0e6c6" stroke-width="1.51"/><path d="M428,165L339,214L416,234Z" fill="#bde5be" stroke="#bde5be" stroke-width="1.51"/><path d="M345,128L339,214L428,165Z" fill="#c3e8c1" stroke="#c3e8c1" stroke-width="1.51"/><path d="M513,945L572,1027L585,908Z" fill="#6696ac" stroke="#6696ac" stroke-width="1.51"/><path d="M333,846L427,914L412,824Z" fill="#7ba9b8" stroke="#7ba9b8" stroke-width="1.51"/><path d="M845,1015L931,1032L949,924Z" fill="#3882b2" stroke="#3882b2" stroke-width="1.51"/><path d="M742,1025L931,1032L845,1015Z" fill="#4181ab" stroke="#4181ab" stroke-width="1.51"/><path d="M492,1033L931,1032L742,1025Z" fill="#4f86a6" stroke="#4f86a6" stroke-width="1.51"/><path d="M1197,846L1262,772L1204,739Z" fill="#2582b9" stroke="#2582b9" stroke-width="1.51"/><path d="M1268,666L1349,588L1266,587Z" fill="#3691c2" stroke="#3691c2" stroke-width="1.51"/><path d="M233,497L247,564L334,476Z" fill="#a1d7c9" stroke="#a1d7c9" stroke-width="1.51"/><path d="M858,-9L753,-35L773,41Z" fill="#abdbd2" stroke="#abdbd2" stroke-width="1.51"/><path d="M1182,163L1123,72L1089,140Z" fill="#8dbdc5" stroke="#8dbdc5" stroke-width="1.51"/><path d="M261,410L233,497L334,476Z" fill="#a5dac6" stroke="#a5dac6" stroke-width="1.51"/><path d="M931,1032L1041,1004L949,924Z" fill="#317eb1" stroke="#317eb1" stroke-width="1.51"/><path d="M1186,937L1260,841L1197,846Z" fill="#1d78b4" stroke="#1d78b4" stroke-width="1.51"/><path d="M679,-15L583,-5L696,45Z" fill="#b5e2cc" stroke="#b5e2cc" stroke-width="1.51"/><path d="M400,53L345,128L428,165Z" fill="#c6e9c3" stroke="#c6e9c3" stroke-width="1.51"/><path d="M611,-108L583,-5L679,-15Z" fill="#bce4ce" stroke="#bce4ce" stroke-width="1.51"/><path d="M670,1023L572,1027L742,1025Z" fill="#5689a5" stroke="#5689a5" stroke-width="1.51"/><path d="M492,1033L572,1027L513,945Z" fill="#6891a5" stroke="#6891a5" stroke-width="1.51"/><path d="M320,771L333,846L412,824Z" fill="#81b0bd" stroke="#81b0bd" stroke-width="1.51"/><path d="M437,1008L492,1033L513,945Z" fill="#6d93a6" stroke="#6d93a6" stroke-width="1.51"/><path d="M261,826L333,846L320,771Z" fill="#85b2bf" stroke="#85b2bf" stroke-width="1.51"/><path d="M1386,651L1349,588L1268,666Z" fill="#328bbf" stroke="#328bbf" stroke-width="1.51"/><path d="M1291,474L1358,403L1262,393Z" fill="#5ba0ba" stroke="#5ba0ba" stroke-width="1.51"/><path d="M1349,588L1360,471L1291,474Z" fill="#4997bd" stroke="#4997bd" stroke-width="1.51"/><path d="M1370,745L1386,651L1268,666Z" fill="#2b84bb" stroke="#2b84bb" stroke-width="1.51"/><path d="M1197,846L1260,841L1262,772Z" fill="#217cb6" stroke="#217cb6" stroke-width="1.51"/><path d="M1186,937L1197,846L1097,918Z" fill="#1e7ab5" stroke="#1e7ab5" stroke-width="1.51"/><path d="M1288,335L1297,240L1181,225Z" fill="#77acb8" stroke="#77acb8" stroke-width="1.51"/><path d="M1182,163L1208,82L1123,72Z" fill="#8cb9c4" stroke="#8cb9c4" stroke-width="1.51"/><path d="M1382,317L1297,240L1288,335Z" fill="#71a4b4" stroke="#71a4b4" stroke-width="1.51"/><path d="M1039,-38L941,-47L1005,74Z" fill="#9dcdd4" stroke="#9dcdd4" stroke-width="1.51"/><path d="M858,-9L779,-101L753,-35Z" fill="#aedcd5" stroke="#aedcd5" stroke-width="1.51"/><path d="M1360,471L1358,403L1291,474Z" fill="#549bba" stroke="#549bba" stroke-width="1.51"/><path d="M339,214L240,310L342,338Z" fill="#bae4bd" stroke="#bae4bd" stroke-width="1.51"/><path d="M261,410L164,421L233,497Z" fill="#aaddc8" stroke="#aaddc8" stroke-width="1.51"/><path d="M177,599L231,686L247,564Z" fill="#98cecf" stroke="#98cecf" stroke-width="1.51"/><path d="M247,564L231,686L323,686Z" fill="#94c9cb" stroke="#94c9cb" stroke-width="1.51"/><path d="M1109,1013L1186,937L1097,918Z" fill="#2174ae" stroke="#2174ae" stroke-width="1.51"/><path d="M339,214L233,252L240,310Z" fill="#c0e7c0" stroke="#c0e7c0" stroke-width="1.51"/><path d="M400,53L489,152L511,81Z" fill="#c1e7c2" stroke="#c1e7c2" stroke-width="1.51"/><path d="M1041,1004L1109,1013L1097,918Z" fill="#2675ad" stroke="#2675ad" stroke-width="1.51"/><path d="M931,1032L1109,1013L1041,1004Z" fill="#2b75ab" stroke="#2b75ab" stroke-width="1.51"/><path d="M437,1008L513,945L427,914Z" fill="#719aac" stroke="#719aac" stroke-width="1.51"/><path d="M572,1027L492,1033L742,1025Z" fill="#5e8aa3" stroke="#5e8aa3" stroke-width="1.51"/><path d="M486,-39L400,53L511,81Z" fill="#c5e8c7" stroke="#c5e8c7" stroke-width="1.51"/><path d="M352,937L437,1008L427,914Z" fill="#759cae" stroke="#759cae" stroke-width="1.51"/><path d="M231,686L233,741L323,686Z" fill="#8fc1c7" stroke="#8fc1c7" stroke-width="1.51"/><path d="M1108,-4L1039,-38L1005,74Z" fill="#99c7d1" stroke="#99c7d1" stroke-width="1.51"/><path d="M1266,130L1208,82L1182,163Z" fill="#89b5c1" stroke="#89b5c1" stroke-width="1.51"/><path d="M1108,-4L1005,74L1123,72Z" fill="#94c3cd" stroke="#94c3cd" stroke-width="1.51"/><path d="M1204,-27L1108,-4L1123,72Z" fill="#93becc" stroke="#93becc" stroke-width="1.51"/><path d="M352,937L427,914L333,846Z" fill="#7ba5b7" stroke="#7ba5b7" stroke-width="1.51"/><path d="M244,927L352,937L333,846Z" fill="#80a6b9" stroke="#80a6b9" stroke-width="1.51"/><path d="M258,128L233,252L339,214Z" fill="#c7e9c3" stroke="#c7e9c3" stroke-width="1.51"/><path d="M143,485L177,599L233,497Z" fill="#a3d7ce" stroke="#a3d7ce" stroke-width="1.51"/><path d="M233,497L177,599L247,564Z" fill="#9ed4cd" stroke="#9ed4cd" stroke-width="1.51"/><path d="M258,128L339,214L345,128Z" fill="#c9eac3" stroke="#c9eac3" stroke-width="1.51"/><path d="M1208,82L1204,-27L1123,72Z" fill="#90bbc9" stroke="#90bbc9" stroke-width="1.51"/><path d="M1297,240L1266,130L1181,225Z" fill="#80afbc" stroke="#80afbc" stroke-width="1.51"/><path d="M1351,165L1266,130L1297,240Z" fill="#81abbb" stroke="#81abbb" stroke-width="1.51"/><path d="M753,-35L673,-120L679,-15Z" fill="#b6e2d2" stroke="#b6e2d2" stroke-width="1.51"/><path d="M583,-5L486,-39L572,57Z" fill="#c0e7c9" stroke="#c0e7c9" stroke-width="1.51"/><path d="M838,-107L779,-101L858,-9Z" fill="#aedbd8" stroke="#aedbd8" stroke-width="1.51"/><path d="M838,-107L858,-9L920,-112Z" fill="#abd8da" stroke="#abd8da" stroke-width="1.51"/><path d="M233,741L261,826L320,771Z" fill="#8ab7c2" stroke="#8ab7c2" stroke-width="1.51"/><path d="M1451,474L1446,423L1360,471Z" fill="#5193b4" stroke="#5193b4" stroke-width="1.51"/><path d="M1446,423L1382,317L1358,403Z" fill="#6099b2" stroke="#6099b2" stroke-width="1.51"/><path d="M1370,745L1268,666L1262,772Z" fill="#2782ba" stroke="#2782ba" stroke-width="1.51"/><path d="M164,421L261,410L240,310Z" fill="#b2e1c4" stroke="#b2e1c4" stroke-width="1.51"/><path d="M231,686L146,747L233,741Z" fill="#90bfc9" stroke="#90bfc9" stroke-width="1.51"/><path d="M233,741L158,843L261,826Z" fill="#8bb5c3" stroke="#8bb5c3" stroke-width="1.51"/><path d="M920,-112L858,-9L941,-47Z" fill="#a7d6da" stroke="#a7d6da" stroke-width="1.51"/><path d="M1358,403L1382,317L1288,335Z" fill="#67a0b5" stroke="#67a0b5" stroke-width="1.51"/><path d="M1446,423L1358,403L1360,471Z" fill="#5697b6" stroke="#5697b6" stroke-width="1.51"/><path d="M1366,821L1370,745L1262,772Z" fill="#1e79b5" stroke="#1e79b5" stroke-width="1.51"/><path d="M1186,937L1289,930L1260,841Z" fill="#1772b1" stroke="#1772b1" stroke-width="1.51"/><path d="M1109,1013L1191,990L1186,937Z" fill="#1e6ea9" stroke="#1e6ea9" stroke-width="1.51"/><path d="M515,-94L486,-39L583,-5Z" fill="#c5e9cc" stroke="#c5e9cc" stroke-width="1.51"/><path d="M1366,821L1262,772L1260,841Z" fill="#1d79b5" stroke="#1d79b5" stroke-width="1.51"/><path d="M147,328L164,421L240,310Z" fill="#b8e3c5" stroke="#b8e3c5" stroke-width="1.51"/><path d="M1009,-92L941,-47L1039,-38Z" fill="#a1ced8" stroke="#a1ced8" stroke-width="1.51"/><path d="M1009,-92L920,-112L941,-47Z" fill="#a5d3dc" stroke="#a5d3dc" stroke-width="1.51"/><path d="M920,-112L673,-120L838,-107Z" fill="#b2ddda" stroke="#b2ddda" stroke-width="1.51"/><path d="M838,-107L673,-120L779,-101Z" fill="#b5e0d8" stroke="#b5e0d8" stroke-width="1.51"/><path d="M779,-101L673,-120L753,-35Z" fill="#b5e1d5" stroke="#b5e1d5" stroke-width="1.51"/><path d="M1094,-98L1009,-92L1039,-38Z" fill="#9fcad7" stroke="#9fcad7" stroke-width="1.51"/><path d="M1094,-98L1039,-38L1108,-4Z" fill="#9bc6d4" stroke="#9bc6d4" stroke-width="1.51"/><path d="M177,599L163,665L231,686Z" fill="#97cace" stroke="#97cace" stroke-width="1.51"/><path d="M79,559L163,665L177,599Z" fill="#9dd0d4" stroke="#9dd0d4" stroke-width="1.51"/><path d="M673,-120L611,-108L679,-15Z" fill="#bce5d3" stroke="#bce5d3" stroke-width="1.51"/><path d="M412,-29L346,41L400,53Z" fill="#cdecca" stroke="#cdecca" stroke-width="1.51"/><path d="M400,53L346,41L345,128Z" fill="#cbebc7" stroke="#cbebc7" stroke-width="1.51"/><path d="M164,421L143,485L233,497Z" fill="#a9dccb" stroke="#a9dccb" stroke-width="1.51"/><path d="M1266,130L1264,71L1208,82Z" fill="#8ab3c3" stroke="#8ab3c3" stroke-width="1.51"/><path d="M1352,67L1264,71L1266,130Z" fill="#88afc1" stroke="#88afc1" stroke-width="1.51"/><path d="M176,236L147,328L240,310Z" fill="#c0e7c2" stroke="#c0e7c2" stroke-width="1.51"/><path d="M76,398L70,476L143,485Z" fill="#aedfcf" stroke="#aedfcf" stroke-width="1.51"/><path d="M346,41L258,128L345,128Z" fill="#cdecc7" stroke="#cdecc7" stroke-width="1.51"/><path d="M1191,990L1289,930L1186,937Z" fill="#196dab" stroke="#196dab" stroke-width="1.51"/><path d="M352,937L347,996L437,1008Z" fill="#7698ab" stroke="#7698ab" stroke-width="1.51"/><path d="M437,1008L347,996L492,1033Z" fill="#7092a5" stroke="#7092a5" stroke-width="1.51"/><path d="M244,927L347,996L352,937Z" fill="#7d9eb2" stroke="#7d9eb2" stroke-width="1.51"/><path d="M244,927L333,846L261,826Z" fill="#84abbc" stroke="#84abbc" stroke-width="1.51"/><path d="M1370,745L1449,647L1386,651Z" fill="#2a7fb6" stroke="#2a7fb6" stroke-width="1.51"/><path d="M1289,930L1366,821L1260,841Z" fill="#1771b1" stroke="#1771b1" stroke-width="1.51"/><path d="M346,41L242,42L258,128Z" fill="#d2edcb" stroke="#d2edcb" stroke-width="1.51"/><path d="M486,-39L412,-29L400,53Z" fill="#caebca" stroke="#caebca" stroke-width="1.51"/><path d="M428,-97L412,-29L486,-39Z" fill="#cdecce" stroke="#cdecce" stroke-width="1.51"/><path d="M1380,217L1351,165L1297,240Z" fill="#7ba6b8" stroke="#7ba6b8" stroke-width="1.51"/><path d="M1382,317L1380,217L1297,240Z" fill="#75a3b4" stroke="#75a3b4" stroke-width="1.51"/><path d="M428,-97L515,-94L611,-108Z" fill="#caebcf" stroke="#caebcf" stroke-width="1.51"/><path d="M611,-108L515,-94L583,-5Z" fill="#c3e8cf" stroke="#c3e8cf" stroke-width="1.51"/><path d="M1382,317L1448,228L1380,217Z" fill="#749eb1" stroke="#749eb1" stroke-width="1.51"/><path d="M1451,474L1360,471L1349,588Z" fill="#4892b9" stroke="#4892b9" stroke-width="1.51"/><path d="M1451,474L1349,588L1458,601Z" fill="#3f8bb8" stroke="#3f8bb8" stroke-width="1.51"/><path d="M1458,601L1349,588L1386,651Z" fill="#3388bb" stroke="#3388bb" stroke-width="1.51"/><path d="M176,236L240,310L233,252Z" fill="#c2e7c2" stroke="#c2e7c2" stroke-width="1.51"/><path d="M164,168L176,236L233,252Z" fill="#c8eac6" stroke="#c8eac6" stroke-width="1.51"/><path d="M1467,770L1449,647L1370,745Z" fill="#2477b1" stroke="#2477b1" stroke-width="1.51"/><path d="M1449,647L1458,601L1386,651Z" fill="#3082b7" stroke="#3082b7" stroke-width="1.51"/><path d="M1290,-19L1204,-27L1264,71Z" fill="#8fb4c8" stroke="#8fb4c8" stroke-width="1.51"/><path d="M1264,71L1204,-27L1208,82Z" fill="#8eb6c7" stroke="#8eb6c7" stroke-width="1.51"/><path d="M1009,-92L1094,-98L920,-112Z" fill="#a4cfda" stroke="#a4cfda" stroke-width="1.51"/><path d="M1204,-27L1094,-98L1108,-4Z" fill="#97c1d1" stroke="#97c1d1" stroke-width="1.51"/><path d="M163,665L146,747L231,686Z" fill="#93c3cb" stroke="#93c3cb" stroke-width="1.51"/><path d="M55,681L146,747L163,665Z" fill="#96c4cf" stroke="#96c4cf" stroke-width="1.51"/><path d="M158,843L244,927L261,826Z" fill="#87acc0" stroke="#87acc0" stroke-width="1.51"/><path d="M1446,423L1459,318L1382,317Z" fill="#6497ae" stroke="#6497ae" stroke-width="1.51"/><path d="M1466,147L1352,67L1351,165Z" fill="#83a5b9" stroke="#83a5b9" stroke-width="1.51"/><path d="M1557,397L1459,318L1446,423Z" fill="#5d90a9" stroke="#5d90a9" stroke-width="1.51"/><path d="M1531,493L1446,423L1451,474Z" fill="#4e8dae" stroke="#4e8dae" stroke-width="1.51"/><path d="M428,-97L333,-26L412,-29Z" fill="#d1edcf" stroke="#d1edcf" stroke-width="1.51"/><path d="M412,-29L333,-26L346,41Z" fill="#d0edcd" stroke="#d0edcd" stroke-width="1.51"/><path d="M258,128L164,168L233,252Z" fill="#cbebc6" stroke="#cbebc6" stroke-width="1.51"/><path d="M515,-94L428,-97L486,-39Z" fill="#ccebce" stroke="#ccebce" stroke-width="1.51"/><path d="M673,-120L428,-97L611,-108Z" fill="#c6e9d2" stroke="#c6e9d2" stroke-width="1.51"/><path d="M143,485L79,559L177,599Z" fill="#a3d6d2" stroke="#a3d6d2" stroke-width="1.51"/><path d="M70,476L79,559L143,485Z" fill="#a9dad1" stroke="#a9dad1" stroke-width="1.51"/><path d="M169,40L164,168L258,128Z" fill="#d3eecc" stroke="#d3eecc" stroke-width="1.51"/><path d="M78,220L55,321L147,328Z" fill="#c4e8c7" stroke="#c4e8c7" stroke-width="1.51"/><path d="M76,398L143,485L164,421Z" fill="#b0e0cc" stroke="#b0e0cc" stroke-width="1.51"/><path d="M146,747L158,843L233,741Z" fill="#8db9c6" stroke="#8db9c6" stroke-width="1.51"/><path d="M68,768L158,843L146,747Z" fill="#8fb9c9" stroke="#8fb9c9" stroke-width="1.51"/><path d="M76,398L164,421L147,328Z" fill="#b7e3c9" stroke="#b7e3c9" stroke-width="1.51"/><path d="M1204,-27L1204,-92L1094,-98Z" fill="#98bed2" stroke="#98bed2" stroke-width="1.51"/><path d="M1351,165L1352,67L1266,130Z" fill="#86abbe" stroke="#86abbe" stroke-width="1.51"/><path d="M1466,147L1351,165L1380,217Z" fill="#7da2b5" stroke="#7da2b5" stroke-width="1.51"/><path d="M169,40L242,42L174,-47Z" fill="#daf0d3" stroke="#daf0d3" stroke-width="1.51"/><path d="M333,-26L242,42L346,41Z" fill="#d3eece" stroke="#d3eece" stroke-width="1.51"/><path d="M1459,318L1448,228L1382,317Z" fill="#6f9aac" stroke="#6f9aac" stroke-width="1.51"/><path d="M55,321L76,398L147,328Z" fill="#bde5c9" stroke="#bde5c9" stroke-width="1.51"/><path d="M1289,930L1387,942L1366,821Z" fill="#0d6aae" stroke="#0d6aae" stroke-width="1.51"/><path d="M1366,821L1467,770L1370,745Z" fill="#1b74b0" stroke="#1b74b0" stroke-width="1.51"/><path d="M1191,990L1295,1026L1289,930Z" fill="#1666a5" stroke="#1666a5" stroke-width="1.51"/><path d="M1109,1013L1295,1026L1191,990Z" fill="#1b67a4" stroke="#1b67a4" stroke-width="1.51"/><path d="M931,1032L1295,1026L1109,1013Z" fill="#236ca6" stroke="#236ca6" stroke-width="1.51"/><path d="M1458,601L1531,493L1451,474Z" fill="#4487b0" stroke="#4487b0" stroke-width="1.51"/><path d="M1541,589L1531,493L1458,601Z" fill="#3c81af" stroke="#3c81af" stroke-width="1.51"/><path d="M1458,826L1467,770L1366,821Z" fill="#186dab" stroke="#186dab" stroke-width="1.51"/><path d="M1352,67L1290,-19L1264,71Z" fill="#8bafc4" stroke="#8bafc4" stroke-width="1.51"/><path d="M1094,-98L1262,-111L920,-112Z" fill="#9fc7d7" stroke="#9fc7d7" stroke-width="1.51"/><path d="M1262,-111L1204,-92L1204,-27Z" fill="#96b9cf" stroke="#96b9cf" stroke-width="1.51"/><path d="M1379,993L1387,942L1289,930Z" fill="#0b62a5" stroke="#0b62a5" stroke-width="1.51"/><path d="M1464,904L1458,826L1366,821Z" fill="#1268a9" stroke="#1268a9" stroke-width="1.51"/><path d="M1458,601L1449,647L1542,657Z" fill="#2f7db1" stroke="#2f7db1" stroke-width="1.51"/><path d="M1541,589L1458,601L1542,657Z" fill="#317cb0" stroke="#317cb0" stroke-width="1.51"/><path d="M1522,154L1466,147L1448,228Z" fill="#7a9aad" stroke="#7a9aad" stroke-width="1.51"/><path d="M165,935L226,1001L244,927Z" fill="#82a0b6" stroke="#82a0b6" stroke-width="1.51"/><path d="M244,927L226,1001L347,996Z" fill="#7e9db1" stroke="#7e9db1" stroke-width="1.51"/><path d="M347,996L226,1001L492,1033Z" fill="#7795a8" stroke="#7795a8" stroke-width="1.51"/><path d="M79,559L55,681L163,665Z" fill="#9ccdd4" stroke="#9ccdd4" stroke-width="1.51"/><path d="M158,843L165,935L244,927Z" fill="#86a8bf" stroke="#86a8bf" stroke-width="1.51"/><path d="M-6,656L55,681L79,559Z" fill="#9fcfd7" stroke="#9fcfd7" stroke-width="1.51"/><path d="M82,915L165,935L158,843Z" fill="#89aac2" stroke="#89aac2" stroke-width="1.51"/><path d="M70,476L-12,505L79,559Z" fill="#abdad4" stroke="#abdad4" stroke-width="1.51"/><path d="M-17,388L-12,505L70,476Z" fill="#b2e0d3" stroke="#b2e0d3" stroke-width="1.51"/><path d="M78,220L147,328L176,236Z" fill="#c6e9c7" stroke="#c6e9c7" stroke-width="1.51"/><path d="M78,220L176,236L164,168Z" fill="#ccebc9" stroke="#ccebc9" stroke-width="1.51"/><path d="M1542,657L1449,647L1530,742Z" fill="#2975ac" stroke="#2975ac" stroke-width="1.51"/><path d="M1387,942L1464,904L1366,821Z" fill="#0c66a9" stroke="#0c66a9" stroke-width="1.51"/><path d="M1295,1026L1379,993L1289,930Z" fill="#1061a2" stroke="#1061a2" stroke-width="1.51"/><path d="M55,681L68,768L146,747Z" fill="#94c0ce" stroke="#94c0ce" stroke-width="1.51"/><path d="M65,136L78,220L164,168Z" fill="#d2eecd" stroke="#d2eecd" stroke-width="1.51"/><path d="M1530,742L1449,647L1467,770Z" fill="#2473ac" stroke="#2473ac" stroke-width="1.51"/><path d="M1530,742L1467,770L1533,843Z" fill="#1b68a4" stroke="#1b68a4" stroke-width="1.51"/><path d="M1542,229L1448,228L1459,318Z" fill="#7096a8" stroke="#7096a8" stroke-width="1.51"/><path d="M1448,228L1466,147L1380,217Z" fill="#799eb1" stroke="#799eb1" stroke-width="1.51"/><path d="M1355,-40L1262,-111L1290,-19Z" fill="#91b2ca" stroke="#91b2ca" stroke-width="1.51"/><path d="M242,42L169,40L258,128Z" fill="#d4eece" stroke="#d4eece" stroke-width="1.51"/><path d="M244,-47L242,42L333,-26Z" fill="#d7f0d1" stroke="#d7f0d1" stroke-width="1.51"/><path d="M1533,843L1467,770L1458,826Z" fill="#1867a5" stroke="#1867a5" stroke-width="1.51"/><path d="M1542,657L1557,397L1541,589Z" fill="#3e7fab" stroke="#3e7fab" stroke-width="1.51"/><path d="M1541,589L1557,397L1531,493Z" fill="#4883a9" stroke="#4883a9" stroke-width="1.51"/><path d="M1531,493L1557,397L1446,423Z" fill="#528aa9" stroke="#528aa9" stroke-width="1.51"/><path d="M310,-108L244,-47L333,-26Z" fill="#daf1d3" stroke="#daf1d3" stroke-width="1.51"/><path d="M428,-97L310,-108L333,-26Z" fill="#d6efd2" stroke="#d6efd2" stroke-width="1.51"/><path d="M673,-120L310,-108L428,-97Z" fill="#cfecd0" stroke="#cfecd0" stroke-width="1.51"/><path d="M1290,-19L1262,-111L1204,-27Z" fill="#93b6cd" stroke="#93b6cd" stroke-width="1.51"/><path d="M1204,-92L1262,-111L1094,-98Z" fill="#99bed2" stroke="#99bed2" stroke-width="1.51"/><path d="M920,-112L1453,-129L673,-120Z" fill="#a4cedb" stroke="#a4cedb" stroke-width="1.51"/><path d="M1355,-40L1290,-19L1352,67Z" fill="#8caec5" stroke="#8caec5" stroke-width="1.51"/><path d="M1434,1010L1464,904L1387,942Z" fill="#095c9f" stroke="#095c9f" stroke-width="1.51"/><path d="M79,990L171,1001L165,935Z" fill="#849fb6" stroke="#849fb6" stroke-width="1.51"/><path d="M165,935L171,1001L226,1001Z" fill="#829db4" stroke="#829db4" stroke-width="1.51"/><path d="M226,1001L171,1001L492,1033Z" fill="#7b96aa" stroke="#7b96aa" stroke-width="1.51"/><path d="M1452,46L1355,-40L1352,67Z" fill="#88a8c0" stroke="#88a8c0" stroke-width="1.51"/><path d="M1557,397L1558,320L1459,318Z" fill="#628ea5" stroke="#628ea5" stroke-width="1.51"/><path d="M-17,388L70,476L76,398Z" fill="#b6e2cf" stroke="#b6e2cf" stroke-width="1.51"/><path d="M4,752L57,844L68,768Z" fill="#93bacd" stroke="#93bacd" stroke-width="1.51"/><path d="M-17,388L76,398L55,321Z" fill="#bde5cd" stroke="#bde5cd" stroke-width="1.51"/><path d="M68,768L57,844L158,843Z" fill="#8fb5c8" stroke="#8fb5c8" stroke-width="1.51"/><path d="M4,752L68,768L55,681Z" fill="#97c1d0" stroke="#97c1d0" stroke-width="1.51"/><path d="M1558,320L1542,229L1459,318Z" fill="#6b91a3" stroke="#6b91a3" stroke-width="1.51"/><path d="M1466,147L1452,46L1352,67Z" fill="#83a2b9" stroke="#83a2b9" stroke-width="1.51"/><path d="M-28,590L-6,656L79,559Z" fill="#a3d4da" stroke="#a3d4da" stroke-width="1.51"/><path d="M1541,70L1452,46L1466,147Z" fill="#819cb2" stroke="#819cb2" stroke-width="1.51"/><path d="M310,-108L256,-103L244,-47Z" fill="#def2d6" stroke="#def2d6" stroke-width="1.51"/><path d="M244,-47L174,-47L242,42Z" fill="#daf1d4" stroke="#daf1d4" stroke-width="1.51"/><path d="M57,844L82,915L158,843Z" fill="#8caec5" stroke="#8caec5" stroke-width="1.51"/><path d="M-12,505L-28,590L79,559Z" fill="#a9d8d8" stroke="#a9d8d8" stroke-width="1.51"/><path d="M-36,338L-17,388L55,321Z" fill="#c2e7ce" stroke="#c2e7ce" stroke-width="1.51"/><path d="M-36,338L55,321L-22,216Z" fill="#c9eacc" stroke="#c9eacc" stroke-width="1.51"/><path d="M169,40L65,136L164,168Z" fill="#d5efcf" stroke="#d5efcf" stroke-width="1.51"/><path d="M73,46L65,136L169,40Z" fill="#daf1d4" stroke="#daf1d4" stroke-width="1.51"/><path d="M1542,657L1561,992L1557,397Z" fill="#2971a7" stroke="#2971a7" stroke-width="1.51"/><path d="M1530,742L1533,843L1542,657Z" fill="#1e6aa5" stroke="#1e6aa5" stroke-width="1.51"/><path d="M1464,904L1533,843L1458,826Z" fill="#1262a2" stroke="#1262a2" stroke-width="1.51"/><path d="M1527,905L1533,843L1464,904Z" fill="#0d5d9f" stroke="#0d5d9f" stroke-width="1.51"/><path d="M1379,993L1434,1010L1387,942Z" fill="#0a5a9d" stroke="#0a5a9d" stroke-width="1.51"/><path d="M1295,1026L1434,1010L1379,993Z" fill="#095a9d" stroke="#095a9d" stroke-width="1.51"/><path d="M1542,229L1522,154L1448,228Z" fill="#7696a9" stroke="#7696a9" stroke-width="1.51"/><path d="M-95,560L-28,590L-12,505Z" fill="#abd9da" stroke="#abd9da" stroke-width="1.51"/><path d="M-24,906L79,990L82,915Z" fill="#8aa6c1" stroke="#8aa6c1" stroke-width="1.51"/><path d="M-6,656L4,752L55,681Z" fill="#9bc6d4" stroke="#9bc6d4" stroke-width="1.51"/><path d="M-99,766L4,752L-6,656Z" fill="#9bc4d4" stroke="#9bc4d4" stroke-width="1.51"/><path d="M256,-103L174,-47L244,-47Z" fill="#def2d7" stroke="#def2d7" stroke-width="1.51"/><path d="M1561,992L1527,905L1464,904Z" fill="#095698" stroke="#095698" stroke-width="1.51"/><path d="M-113,409L-95,508L-12,505Z" fill="#b5e1d7" stroke="#b5e1d7" stroke-width="1.51"/><path d="M-22,216L55,321L78,220Z" fill="#ccebcc" stroke="#ccebcc" stroke-width="1.51"/><path d="M1452,46L1439,-35L1355,-40Z" fill="#8aa5c0" stroke="#8aa5c0" stroke-width="1.51"/><path d="M1355,-40L1387,-106L1262,-111Z" fill="#92afcb" stroke="#92afcb" stroke-width="1.51"/><path d="M1559,-21L1439,-35L1452,46Z" fill="#869eb9" stroke="#869eb9" stroke-width="1.51"/><path d="M65,136L-22,216L78,220Z" fill="#d3eecf" stroke="#d3eecf" stroke-width="1.51"/><path d="M73,-14L73,46L169,40Z" fill="#ddf2d7" stroke="#ddf2d7" stroke-width="1.51"/><path d="M-5,857L82,915L57,844Z" fill="#8eafc8" stroke="#8eafc8" stroke-width="1.51"/><path d="M82,915L79,990L165,935Z" fill="#87a3bc" stroke="#87a3bc" stroke-width="1.51"/><path d="M1439,-35L1387,-106L1355,-40Z" fill="#8ea9c6" stroke="#8ea9c6" stroke-width="1.51"/><path d="M-20,128L-22,216L65,136Z" fill="#d8f0d2" stroke="#d8f0d2" stroke-width="1.51"/><path d="M4,752L-5,857L57,844Z" fill="#93b6cc" stroke="#93b6cc" stroke-width="1.51"/><path d="M-24,906L-5,857L-92,817Z" fill="#93b2cc" stroke="#93b2cc" stroke-width="1.51"/><path d="M1439,-35L1453,-129L1387,-106Z" fill="#8fa7c4" stroke="#8fa7c4" stroke-width="1.51"/><path d="M1522,154L1541,70L1466,147Z" fill="#7e98ad" stroke="#7e98ad" stroke-width="1.51"/><path d="M1542,229L1541,70L1522,154Z" fill="#7b95a9" stroke="#7b95a9" stroke-width="1.51"/><path d="M1559,-21L1541,70L1542,229Z" fill="#7e96ab" stroke="#7e96ab" stroke-width="1.51"/><path d="M-113,409L-12,505L-17,388Z" fill="#b9e3d4" stroke="#b9e3d4" stroke-width="1.51"/><path d="M-28,590L-123,676L-6,656Z" fill="#a4d0db" stroke="#a4d0db" stroke-width="1.51"/><path d="M-113,409L-17,388L-36,338Z" fill="#c1e6d2" stroke="#c1e6d2" stroke-width="1.51"/><path d="M-95,508L-95,560L-12,505Z" fill="#b0dcdb" stroke="#b0dcdb" stroke-width="1.51"/><path d="M51,-98L73,-14L174,-47Z" fill="#e3f4dd" stroke="#e3f4dd" stroke-width="1.51"/><path d="M174,-47L73,-14L169,40Z" fill="#def2d7" stroke="#def2d7" stroke-width="1.51"/><path d="M73,46L-20,128L65,136Z" fill="#dbf1d4" stroke="#dbf1d4" stroke-width="1.51"/><path d="M256,-103L156,-120L174,-47Z" fill="#e1f3da" stroke="#e1f3da" stroke-width="1.51"/><path d="M310,-108L156,-120L256,-103Z" fill="#e0f3da" stroke="#e0f3da" stroke-width="1.51"/><path d="M673,-120L156,-120L310,-108Z" fill="#d7f0d4" stroke="#d7f0d4" stroke-width="1.51"/><path d="M-31,61L-20,128L73,46Z" fill="#def3d8" stroke="#def3d8" stroke-width="1.51"/><path d="M-117,301L-113,409L-36,338Z" fill="#c6e9d2" stroke="#c6e9d2" stroke-width="1.51"/><path d="M-5,857L-24,906L82,915Z" fill="#8fadc7" stroke="#8fadc7" stroke-width="1.51"/><path d="M-92,817L-5,857L4,752Z" fill="#96b8cf" stroke="#96b8cf" stroke-width="1.51"/><path d="M-95,508L-123,676L-95,560Z" fill="#acd8df" stroke="#acd8df" stroke-width="1.51"/><path d="M-117,301L-36,338L-22,216Z" fill="#cdebcf" stroke="#cdebcf" stroke-width="1.51"/><path d="M1434,1010L1561,992L1464,904Z" fill="#0a5496" stroke="#0a5496" stroke-width="1.51"/><path d="M1527,905L1561,992L1533,843Z" fill="#095699" stroke="#095699" stroke-width="1.51"/><path d="M1533,843L1561,992L1542,657Z" fill="#16609f" stroke="#16609f" stroke-width="1.51"/><path d="M1557,397L1561,992L1558,320Z" fill="#3a7cab" stroke="#3a7cab" stroke-width="1.51"/><path d="M-123,676L-99,766L-6,656Z" fill="#a0c8d7" stroke="#a0c8d7" stroke-width="1.51"/><path d="M-123,676L-28,590L-95,560Z" fill="#a8d5de" stroke="#a8d5de" stroke-width="1.51"/><path d="M1524,-101L1453,-129L1439,-35Z" fill="#8da1bf" stroke="#8da1bf" stroke-width="1.51"/><path d="M1387,-106L1453,-129L1262,-111Z" fill="#93aecc" stroke="#93aecc" stroke-width="1.51"/><path d="M1262,-111L1453,-129L920,-112Z" fill="#99bcd2" stroke="#99bcd2" stroke-width="1.51"/><path d="M673,-120L-2,-122L156,-120Z" fill="#e0f3d8" stroke="#e0f3d8" stroke-width="1.51"/><path d="M-113,409L-123,676L-95,508Z" fill="#b1dcdd" stroke="#b1dcdd" stroke-width="1.51"/><path d="M-113,409L-122,249L-123,676Z" fill="#bbe4d8" stroke="#bbe4d8" stroke-width="1.51"/><path d="M-122,249L-117,301L-22,216Z" fill="#d2eed2" stroke="#d2eed2" stroke-width="1.51"/><path d="M-97,909L-92,817L-99,766Z" fill="#98b7d1" stroke="#98b7d1" stroke-width="1.51"/><path d="M-99,766L-92,817L4,752Z" fill="#99bed2" stroke="#99bed2" stroke-width="1.51"/><path d="M-111,149L-122,249L-22,216Z" fill="#d8f0d4" stroke="#d8f0d4" stroke-width="1.51"/><path d="M-1,-21L-31,61L73,46Z" fill="#e1f3db" stroke="#e1f3db" stroke-width="1.51"/><path d="M-1,-21L73,46L73,-14Z" fill="#e1f4db" stroke="#e1f4db" stroke-width="1.51"/><path d="M1541,70L1559,-21L1452,46Z" fill="#839ab3" stroke="#839ab3" stroke-width="1.51"/><path d="M1558,320L1559,-21L1542,229Z" fill="#7792a6" stroke="#7792a6" stroke-width="1.51"/><path d="M1561,992L1559,-21L1558,320Z" fill="#5386a4" stroke="#5386a4" stroke-width="1.51"/><path d="M-117,301L-122,249L-113,409Z" fill="#cbebd2" stroke="#cbebd2" stroke-width="1.51"/><path d="M-111,149L-22,216L-20,128Z" fill="#dbf1d5" stroke="#dbf1d5" stroke-width="1.51"/><path d="M-112,73L-111,149L-20,128Z" fill="#e0f3d9" stroke="#e0f3d9" stroke-width="1.51"/><path d="M51,-98L-1,-21L73,-14Z" fill="#e5f5df" stroke="#e5f5df" stroke-width="1.51"/><path d="M156,-120L51,-98L174,-47Z" fill="#e4f5de" stroke="#e4f5de" stroke-width="1.51"/><path d="M1559,-21L1524,-101L1439,-35Z" fill="#899db9" stroke="#899db9" stroke-width="1.51"/><path d="M-97,909L-31,1014L-24,906Z" fill="#8fa7c5" stroke="#8fa7c5" stroke-width="1.51"/><path d="M-24,906L-31,1014L79,990Z" fill="#8ba2be" stroke="#8ba2be" stroke-width="1.51"/><path d="M79,990L-31,1014L171,1001Z" fill="#859cb6" stroke="#859cb6" stroke-width="1.51"/><path d="M171,1001L-108,1030L492,1033Z" fill="#8097ad" stroke="#8097ad" stroke-width="1.51"/><path d="M-112,73L-20,128L-31,61Z" fill="#e1f3da" stroke="#e1f3da" stroke-width="1.51"/><path d="M-92,817L-97,909L-24,906Z" fill="#94b0cd" stroke="#94b0cd" stroke-width="1.51"/><path d="M-123,676L-97,909L-99,766Z" fill="#9bbdd3" stroke="#9bbdd3" stroke-width="1.51"/><path d="M-119,-30L-112,73L-31,61Z" fill="#e6f6df" stroke="#e6f6df" stroke-width="1.51"/><path d="M-111,149L-112,73L-122,249Z" fill="#dff3d8" stroke="#dff3d8" stroke-width="1.51"/><path d="M-119,-30L-31,61L-1,-21Z" fill="#e6f6e0" stroke="#e6f6e0" stroke-width="1.51"/><path d="M51,-98L-2,-122L-1,-21Z" fill="#e9f7e3" stroke="#e9f7e3" stroke-width="1.51"/><path d="M156,-120L-2,-122L51,-98Z" fill="#e9f7e2" stroke="#e9f7e2" stroke-width="1.51"/><path d="M1453,-129L-2,-122L673,-120Z" fill="#bae4d7" stroke="#bae4d7" stroke-width="1.51"/><path d="M-97,909L-108,1030L-31,1014Z" fill="#8ea1c0" stroke="#8ea1c0" stroke-width="1.51"/><path d="M-31,1014L-108,1030L171,1001Z" fill="#889bb7" stroke="#889bb7" stroke-width="1.51"/><path d="M-123,676L-108,1030L-97,909Z" fill="#96b2cf" stroke="#96b2cf" stroke-width="1.51"/><path d="M-81,-100L-119,-30L-1,-21Z" fill="#ebf8e4" stroke="#ebf8e4" stroke-width="1.51"/><path d="M-112,73L-119,-30L-122,249Z" fill="#e4f5dc" stroke="#e4f5dc" stroke-width="1.51"/><path d="M-2,-122L-81,-100L-1,-21Z" fill="#ebf7e5" stroke="#ebf7e5" stroke-width="1.51"/></svg>