<svg xmlns="http://www.w3.org/2000/svg" width="1440" height="900"><path d="M751,474L768,559L829,481Z" fill="#f4fad7" stroke="#f4fad7" stroke-width="1.51"/><path d="M768,559L853,595L829,481Z" fill="#ecf6e6" stroke="#ecf6e6" stroke-width="1.51"/><path d="M751,474L667,514L768,559Z" fill="#f7fbd0" stroke="#f7fbd0" stroke-width="1.51"/><path d="M829,481L755,394L751,474Z" fill="#fbfdc9" stroke="#fbfdc9" stroke-width="1.51"/><path d="M751,474L686,388L667,514Z" fill="#fefdbf" stroke="#fefdbf" stroke-width="1.51"/><path d="M768,559L776,644L853,595Z" fill="#e4f3e7" stroke="#e4f3e7" stroke-width="1.51"/><path d="M670,598L776,644L768,559Z" fill="#e9f5dd" stroke="#e9f5dd" stroke-width="1.51"/><path d="M829,481L871,403L755,394Z" fill="#f8f8cb" stroke="#f8f8cb" stroke-width="1.51"/><path d="M932,481L871,403L829,481Z" fill="#f2f9da" stroke="#f2f9da" stroke-width="1.51"/><path d="M667,514L670,598L768,559Z" fill="#f3f8d6" stroke="#f3f8d6" stroke-width="1.51"/><path d="M853,595L932,481L829,481Z" fill="#eaf6e9" stroke="#eaf6e9" stroke-width="1.51"/><path d="M755,394L686,388L751,474Z" fill="#fefabb" stroke="#fefabb" stroke-width="1.51"/><path d="M680,332L686,388L755,394Z" fill="#fff4ad" stroke="#fff4ad" stroke-width="1.51"/><path d="M776,644L854,662L853,595Z" fill="#daeeea" stroke="#daeeea" stroke-width="1.51"/><path d="M853,595L953,578L932,481Z" fill="#e0f2f3" stroke="#e0f2f3" stroke-width="1.51"/><path d="M933,684L953,578L853,595Z" fill="#d3ecf4" stroke="#d3ecf4" stroke-width="1.51"/><path d="M670,598L675,651L776,644Z" fill="#e5f1d7" stroke="#e5f1d7" stroke-width="1.51"/><path d="M776,644L851,750L854,662Z" fill="#cfe8e7" stroke="#cfe8e7" stroke-width="1.51"/><path d="M932,481L952,422L871,403Z" fill="#edf5d8" stroke="#edf5d8" stroke-width="1.51"/><path d="M1025,477L952,422L932,481Z" fill="#e5f2db" stroke="#e5f2db" stroke-width="1.51"/><path d="M850,304L766,315L755,394Z" fill="#faeeb5" stroke="#faeeb5" stroke-width="1.51"/><path d="M850,304L755,394L871,403Z" fill="#f8f1c1" stroke="#f8f1c1" stroke-width="1.51"/><path d="M670,598L597,590L675,651Z" fill="#e9eecf" stroke="#e9eecf" stroke-width="1.51"/><path d="M667,514L597,590L670,598Z" fill="#f2f2d0" stroke="#f2f2d0" stroke-width="1.51"/><path d="M574,482L597,590L667,514Z" fill="#f7f1c3" stroke="#f7f1c3" stroke-width="1.51"/><path d="M569,421L574,482L667,514Z" fill="#fdf3b4" stroke="#fdf3b4" stroke-width="1.51"/><path d="M766,315L680,332L755,394Z" fill="#fef1ad" stroke="#fef1ad" stroke-width="1.51"/><path d="M569,421L667,514L686,388Z" fill="#fff7b2" stroke="#fff7b2" stroke-width="1.51"/><path d="M944,337L850,304L871,403Z" fill="#f3ecc7" stroke="#f3ecc7" stroke-width="1.51"/><path d="M854,662L933,684L853,595Z" fill="#d1ebf2" stroke="#d1ebf2" stroke-width="1.51"/><path d="M851,750L933,684L854,662Z" fill="#c6e5ee" stroke="#c6e5ee" stroke-width="1.51"/><path d="M953,578L1025,477L932,481Z" fill="#def0e7" stroke="#def0e7" stroke-width="1.51"/><path d="M933,684L1006,582L953,578Z" fill="#cce9f3" stroke="#cce9f3" stroke-width="1.51"/><path d="M952,422L944,337L871,403Z" fill="#eeefce" stroke="#eeefce" stroke-width="1.51"/><path d="M1042,399L944,337L952,422Z" fill="#e6eacc" stroke="#e6eacc" stroke-width="1.51"/><path d="M610,314L569,421L686,388Z" fill="#ffeca3" stroke="#ffeca3" stroke-width="1.51"/><path d="M1006,582L1025,477L953,578Z" fill="#d5ecee" stroke="#d5ecee" stroke-width="1.51"/><path d="M675,651L743,751L776,644Z" fill="#d9ecd7" stroke="#d9ecd7" stroke-width="1.51"/><path d="M664,771L743,751L675,651Z" fill="#d2e3ce" stroke="#d2e3ce" stroke-width="1.51"/><path d="M743,751L851,750L776,644Z" fill="#cde5dd" stroke="#cde5dd" stroke-width="1.51"/><path d="M597,590L572,660L675,651Z" fill="#e6e8ca" stroke="#e6e8ca" stroke-width="1.51"/><path d="M515,587L572,660L597,590Z" fill="#eae6c4" stroke="#eae6c4" stroke-width="1.51"/><path d="M515,587L597,590L574,482Z" fill="#f4ecc2" stroke="#f4ecc2" stroke-width="1.51"/><path d="M680,332L610,314L686,388Z" fill="#ffeca2" stroke="#ffeca2" stroke-width="1.51"/><path d="M693,225L610,314L680,332Z" fill="#ffe298" stroke="#ffe298" stroke-width="1.51"/><path d="M693,225L680,332L766,315Z" fill="#ffe79f" stroke="#ffe79f" stroke-width="1.51"/><path d="M850,304L837,249L766,315Z" fill="#fae4b0" stroke="#fae4b0" stroke-width="1.51"/><path d="M927,213L837,249L850,304Z" fill="#f7dbb2" stroke="#f7dbb2" stroke-width="1.51"/><path d="M837,249L776,243L766,315Z" fill="#fbe0a7" stroke="#fbe0a7" stroke-width="1.51"/><path d="M1025,477L1042,399L952,422Z" fill="#e1eed4" stroke="#e1eed4" stroke-width="1.51"/><path d="M944,337L927,213L850,304Z" fill="#f3dfbb" stroke="#f3dfbb" stroke-width="1.51"/><path d="M1088,475L1042,399L1025,477Z" fill="#daedd5" stroke="#daedd5" stroke-width="1.51"/><path d="M500,484L515,587L574,482Z" fill="#f9e9b5" stroke="#f9e9b5" stroke-width="1.51"/><path d="M582,751L664,771L675,651Z" fill="#d3dfc7" stroke="#d3dfc7" stroke-width="1.51"/><path d="M743,751L742,823L851,750Z" fill="#c1dad7" stroke="#c1dad7" stroke-width="1.51"/><path d="M569,421L500,484L574,482Z" fill="#feefaa" stroke="#feefaa" stroke-width="1.51"/><path d="M490,414L500,484L569,421Z" fill="#ffeaa1" stroke="#ffeaa1" stroke-width="1.51"/><path d="M933,684L1037,662L1006,582Z" fill="#c2e4ef" stroke="#c2e4ef" stroke-width="1.51"/><path d="M1006,582L1088,475L1025,477Z" fill="#d3ebe4" stroke="#d3ebe4" stroke-width="1.51"/><path d="M1035,735L1037,662L933,684Z" fill="#b5ddec" stroke="#b5ddec" stroke-width="1.51"/><path d="M851,750L940,765L933,684Z" fill="#bbddec" stroke="#bbddec" stroke-width="1.51"/><path d="M916,824L940,765L851,750Z" fill="#b2d5e8" stroke="#b2d5e8" stroke-width="1.51"/><path d="M762,154L693,225L776,243Z" fill="#ffd693" stroke="#ffd693" stroke-width="1.51"/><path d="M776,243L693,225L766,315Z" fill="#ffe09e" stroke="#ffe09e" stroke-width="1.51"/><path d="M1127,579L1088,475L1006,582Z" fill="#c9e6ea" stroke="#c9e6ea" stroke-width="1.51"/><path d="M511,333L490,414L569,421Z" fill="#ffe498" stroke="#ffe498" stroke-width="1.51"/><path d="M511,333L569,421L610,314Z" fill="#ffe597" stroke="#ffe597" stroke-width="1.51"/><path d="M664,771L742,823L743,751Z" fill="#c6dacc" stroke="#c6dacc" stroke-width="1.51"/><path d="M664,771L688,860L742,823Z" fill="#bfd2c6" stroke="#bfd2c6" stroke-width="1.51"/><path d="M572,660L582,751L675,651Z" fill="#dbe2c6" stroke="#dbe2c6" stroke-width="1.51"/><path d="M522,756L582,751L572,660Z" fill="#d5d8bc" stroke="#d5d8bc" stroke-width="1.51"/><path d="M742,823L847,831L851,750Z" fill="#b8d4d9" stroke="#b8d4d9" stroke-width="1.51"/><path d="M1042,399L1043,307L944,337Z" fill="#e2e3c3" stroke="#e2e3c3" stroke-width="1.51"/><path d="M1124,327L1043,307L1042,399Z" fill="#dadec0" stroke="#dadec0" stroke-width="1.51"/><path d="M519,248L511,333L610,314Z" fill="#feda8a" stroke="#feda8a" stroke-width="1.51"/><path d="M1009,213L927,213L944,337Z" fill="#ecd5b3" stroke="#ecd5b3" stroke-width="1.51"/><path d="M837,249L762,154L776,243Z" fill="#fdd59d" stroke="#fdd59d" stroke-width="1.51"/><path d="M693,225L596,237L610,314Z" fill="#ffd98d" stroke="#ffd98d" stroke-width="1.51"/><path d="M1037,662L1127,579L1006,582Z" fill="#bfe2ef" stroke="#bfe2ef" stroke-width="1.51"/><path d="M940,765L1035,735L933,684Z" fill="#b2d9e9" stroke="#b2d9e9" stroke-width="1.51"/><path d="M1016,835L1035,735L940,765Z" fill="#a3cee3" stroke="#a3cee3" stroke-width="1.51"/><path d="M847,831L916,824L851,750Z" fill="#b1d2e2" stroke="#b1d2e2" stroke-width="1.51"/><path d="M515,587L495,684L572,660Z" fill="#e5debe" stroke="#e5debe" stroke-width="1.51"/><path d="M438,565L495,684L515,587Z" fill="#eddbb9" stroke="#eddbb9" stroke-width="1.51"/><path d="M438,565L515,587L500,484Z" fill="#f7e1b5" stroke="#f7e1b5" stroke-width="1.51"/><path d="M1088,475L1110,402L1042,399Z" fill="#d7e7cf" stroke="#d7e7cf" stroke-width="1.51"/><path d="M1187,497L1110,402L1088,475Z" fill="#cee3d2" stroke="#cee3d2" stroke-width="1.51"/><path d="M1108,680L1127,579L1037,662Z" fill="#b3dbeb" stroke="#b3dbeb" stroke-width="1.51"/><path d="M397,507L438,565L500,484Z" fill="#faddaa" stroke="#faddaa" stroke-width="1.51"/><path d="M430,405L500,484L490,414Z" fill="#ffe39a" stroke="#ffe39a" stroke-width="1.51"/><path d="M693,225L668,159L596,237Z" fill="#ffd087" stroke="#ffd087" stroke-width="1.51"/><path d="M861,137L762,154L837,249Z" fill="#fccc9c" stroke="#fccc9c" stroke-width="1.51"/><path d="M585,823L688,860L664,771Z" fill="#c0cebf" stroke="#c0cebf" stroke-width="1.51"/><path d="M495,684L522,756L572,660Z" fill="#dad8ba" stroke="#dad8ba" stroke-width="1.51"/><path d="M421,758L522,756L495,684Z" fill="#d5cbb0" stroke="#d5cbb0" stroke-width="1.51"/><path d="M742,823L759,928L847,831Z" fill="#b1c7ce" stroke="#b1c7ce" stroke-width="1.51"/><path d="M949,924L1016,835L916,824Z" fill="#99bfdc" stroke="#99bfdc" stroke-width="1.51"/><path d="M585,823L664,771L582,751Z" fill="#c8d1bd" stroke="#c8d1bd" stroke-width="1.51"/><path d="M1035,735L1108,680L1037,662Z" fill="#acd9e9" stroke="#acd9e9" stroke-width="1.51"/><path d="M762,154L668,159L693,225Z" fill="#ffce8a" stroke="#ffce8a" stroke-width="1.51"/><path d="M1043,307L1009,213L944,337Z" fill="#e6d8b7" stroke="#e6d8b7" stroke-width="1.51"/><path d="M927,213L861,137L837,249Z" fill="#f8cfa8" stroke="#f8cfa8" stroke-width="1.51"/><path d="M1122,244L1009,213L1043,307Z" fill="#dfceaf" stroke="#dfceaf" stroke-width="1.51"/><path d="M522,756L585,823L582,751Z" fill="#caceb8" stroke="#caceb8" stroke-width="1.51"/><path d="M511,333L430,405L490,414Z" fill="#ffdd91" stroke="#ffdd91" stroke-width="1.51"/><path d="M399,315L430,405L511,333Z" fill="#ffd586" stroke="#ffd586" stroke-width="1.51"/><path d="M519,248L610,314L596,237Z" fill="#fed687" stroke="#fed687" stroke-width="1.51"/><path d="M489,152L519,248L596,237Z" fill="#fec678" stroke="#fec678" stroke-width="1.51"/><path d="M952,162L861,137L927,213Z" fill="#f4c6a6" stroke="#f4c6a6" stroke-width="1.51"/><path d="M696,45L600,138L668,159Z" fill="#ffb97a" stroke="#ffb97a" stroke-width="1.51"/><path d="M1176,339L1124,327L1110,402Z" fill="#d1d7be" stroke="#d1d7be" stroke-width="1.51"/><path d="M1110,402L1124,327L1042,399Z" fill="#d6dfc4" stroke="#d6dfc4" stroke-width="1.51"/><path d="M1009,213L952,162L927,213Z" fill="#edc8a8" stroke="#edc8a8" stroke-width="1.51"/><path d="M430,405L397,507L500,484Z" fill="#ffdf9c" stroke="#ffdf9c" stroke-width="1.51"/><path d="M438,565L407,681L495,684Z" fill="#e7d3b2" stroke="#e7d3b2" stroke-width="1.51"/><path d="M1035,735L1127,767L1108,680Z" fill="#9fcfe4" stroke="#9fcfe4" stroke-width="1.51"/><path d="M916,824L1016,835L940,765Z" fill="#a3cce2" stroke="#a3cce2" stroke-width="1.51"/><path d="M949,924L916,824L847,831Z" fill="#a2c3df" stroke="#a2c3df" stroke-width="1.51"/><path d="M1127,579L1187,497L1088,475Z" fill="#c4dfdf" stroke="#c4dfdf" stroke-width="1.51"/><path d="M1192,579L1187,497L1127,579Z" fill="#badae5" stroke="#badae5" stroke-width="1.51"/><path d="M1179,652L1192,579L1127,579Z" fill="#b0d5e7" stroke="#b0d5e7" stroke-width="1.51"/><path d="M1179,652L1127,579L1108,680Z" fill="#acd5e7" stroke="#acd5e7" stroke-width="1.51"/><path d="M339,560L407,681L438,565Z" fill="#f0d0ad" stroke="#f0d0ad" stroke-width="1.51"/><path d="M522,756L490,854L585,823Z" fill="#c3c4b0" stroke="#c3c4b0" stroke-width="1.51"/><path d="M1204,739L1179,652L1108,680Z" fill="#9ccce2" stroke="#9ccce2" stroke-width="1.51"/><path d="M696,45L668,159L762,154Z" fill="#ffbf82" stroke="#ffbf82" stroke-width="1.51"/><path d="M668,159L600,138L596,237Z" fill="#ffc67e" stroke="#ffc67e" stroke-width="1.51"/><path d="M688,860L759,928L742,823Z" fill="#b5c6c4" stroke="#b5c6c4" stroke-width="1.51"/><path d="M673,918L759,928L688,860Z" fill="#b1bebe" stroke="#b1bebe" stroke-width="1.51"/><path d="M585,908L688,860L585,823Z" fill="#b9c0b7" stroke="#b9c0b7" stroke-width="1.51"/><path d="M585,908L673,918L688,860Z" fill="#b3bab7" stroke="#b3bab7" stroke-width="1.51"/><path d="M1209,413L1176,339L1110,402Z" fill="#ccd6c2" stroke="#ccd6c2" stroke-width="1.51"/><path d="M1124,327L1122,244L1043,307Z" fill="#d8d1b4" stroke="#d8d1b4" stroke-width="1.51"/><path d="M1009,213L1020,134L952,162Z" fill="#e9c0a2" stroke="#e9c0a2" stroke-width="1.51"/><path d="M1109,835L1127,767L1035,735Z" fill="#94c6df" stroke="#94c6df" stroke-width="1.51"/><path d="M759,928L828,935L847,831Z" fill="#a7bdce" stroke="#a7bdce" stroke-width="1.51"/><path d="M1176,339L1122,244L1124,327Z" fill="#d1cdb4" stroke="#d1cdb4" stroke-width="1.51"/><path d="M1262,393L1209,413L1291,474Z" fill="#becfc3" stroke="#becfc3" stroke-width="1.51"/><path d="M1187,497L1209,413L1110,402Z" fill="#caddcc" stroke="#caddcc" stroke-width="1.51"/><path d="M416,234L511,333L519,248Z" fill="#ffcb7c" stroke="#ffcb7c" stroke-width="1.51"/><path d="M416,234L399,315L511,333Z" fill="#ffca7a" stroke="#ffca7a" stroke-width="1.51"/><path d="M430,405L334,476L397,507Z" fill="#ffd894" stroke="#ffd894" stroke-width="1.51"/><path d="M407,681L421,758L495,684Z" fill="#dbcaad" stroke="#dbcaad" stroke-width="1.51"/><path d="M952,162L947,81L861,137Z" fill="#f3baa0" stroke="#f3baa0" stroke-width="1.51"/><path d="M861,137L832,54L762,154Z" fill="#fbbc93" stroke="#fbbc93" stroke-width="1.51"/><path d="M1089,140L1020,134L1009,213Z" fill="#e3baa0" stroke="#e3baa0" stroke-width="1.51"/><path d="M828,935L949,924L847,831Z" fill="#a0bbd8" stroke="#a0bbd8" stroke-width="1.51"/><path d="M1016,835L1109,835L1035,735Z" fill="#94c6de" stroke="#94c6de" stroke-width="1.51"/><path d="M490,854L585,908L585,823Z" fill="#babaae" stroke="#babaae" stroke-width="1.51"/><path d="M742,1025L828,935L759,928Z" fill="#a3adc1" stroke="#a3adc1" stroke-width="1.51"/><path d="M397,507L339,560L438,565Z" fill="#f8d4a8" stroke="#f8d4a8" stroke-width="1.51"/><path d="M320,771L412,824L421,758Z" fill="#ccb49f" stroke="#ccb49f" stroke-width="1.51"/><path d="M334,476L339,560L397,507Z" fill="#fbd19d" stroke="#fbd19d" stroke-width="1.51"/><path d="M421,758L490,854L522,756Z" fill="#cac0ab" stroke="#cac0ab" stroke-width="1.51"/><path d="M326,409L334,476L430,405Z" fill="#ffd28a" stroke="#ffd28a" stroke-width="1.51"/><path d="M1097,918L1109,835L1016,835Z" fill="#86b5d7" stroke="#86b5d7" stroke-width="1.51"/><path d="M1127,767L1204,739L1108,680Z" fill="#97c7e0" stroke="#97c7e0" stroke-width="1.51"/><path d="M1020,134L947,81L952,162Z" fill="#ecb69d" stroke="#ecb69d" stroke-width="1.51"/><path d="M947,81L832,54L861,137Z" fill="#f7b399" stroke="#f7b399" stroke-width="1.51"/><path d="M949,924L1009,914L1016,835Z" fill="#8fb5d7" stroke="#8fb5d7" stroke-width="1.51"/><path d="M342,338L326,409L430,405Z" fill="#ffcd82" stroke="#ffcd82" stroke-width="1.51"/><path d="M489,152L416,234L519,248Z" fill="#febd6f" stroke="#febd6f" stroke-width="1.51"/><path d="M600,138L489,152L596,237Z" fill="#fec076" stroke="#fec076" stroke-width="1.51"/><path d="M511,81L489,152L600,138Z" fill="#fdb06b" stroke="#fdb06b" stroke-width="1.51"/><path d="M832,54L773,41L762,154Z" fill="#fcb58a" stroke="#fcb58a" stroke-width="1.51"/><path d="M247,564L323,686L339,560Z" fill="#f0c0a3" stroke="#f0c0a3" stroke-width="1.51"/><path d="M342,338L430,405L399,315Z" fill="#ffcd7f" stroke="#ffcd7f" stroke-width="1.51"/><path d="M773,41L696,45L762,154Z" fill="#feb682" stroke="#feb682" stroke-width="1.51"/><path d="M1197,846L1204,739L1127,767Z" fill="#85bad9" stroke="#85bad9" stroke-width="1.51"/><path d="M1179,652L1266,587L1192,579Z" fill="#a8cfe4" stroke="#a8cfe4" stroke-width="1.51"/><path d="M1192,579L1266,587L1187,497Z" fill="#b2d3e2" stroke="#b2d3e2" stroke-width="1.51"/><path d="M339,214L342,338L399,315Z" fill="#ffbd6f" stroke="#ffbd6f" stroke-width="1.51"/><path d="M1122,244L1089,140L1009,213Z" fill="#dfc0a4" stroke="#dfc0a4" stroke-width="1.51"/><path d="M1020,134L1005,74L947,81Z" fill="#eaad99" stroke="#eaad99" stroke-width="1.51"/><path d="M1182,163L1089,140L1122,244Z" fill="#d7b59e" stroke="#d7b59e" stroke-width="1.51"/><path d="M1181,225L1122,244L1176,339Z" fill="#d0c4ac" stroke="#d0c4ac" stroke-width="1.51"/><path d="M1268,666L1266,587L1179,652Z" fill="#9dc9e0" stroke="#9dc9e0" stroke-width="1.51"/><path d="M1262,393L1176,339L1209,413Z" fill="#c5cfbd" stroke="#c5cfbd" stroke-width="1.51"/><path d="M1288,335L1181,225L1176,339Z" fill="#c7c3ae" stroke="#c7c3ae" stroke-width="1.51"/><path d="M947,81L858,-9L832,54Z" fill="#f3aa93" stroke="#f3aa93" stroke-width="1.51"/><path d="M832,54L858,-9L773,41Z" fill="#f5a988" stroke="#f5a988" stroke-width="1.51"/><path d="M1089,140L1005,74L1020,134Z" fill="#e4af99" stroke="#e4af99" stroke-width="1.51"/><path d="M421,758L412,824L490,854Z" fill="#c6b7a4" stroke="#c6b7a4" stroke-width="1.51"/><path d="M490,854L513,945L585,908Z" fill="#b4ada6" stroke="#b4ada6" stroke-width="1.51"/><path d="M323,686L421,758L407,681Z" fill="#dcc2a5" stroke="#dcc2a5" stroke-width="1.51"/><path d="M1291,474L1209,413L1187,497Z" fill="#bfd6cc" stroke="#bfd6cc" stroke-width="1.51"/><path d="M247,564L339,560L334,476Z" fill="#fac79d" stroke="#fac79d" stroke-width="1.51"/><path d="M339,560L323,686L407,681Z" fill="#e9c6a6" stroke="#e9c6a6" stroke-width="1.51"/><path d="M489,152L428,165L416,234Z" fill="#fdb267" stroke="#fdb267" stroke-width="1.51"/><path d="M416,234L339,214L399,315Z" fill="#feb96b" stroke="#feb96b" stroke-width="1.51"/><path d="M400,53L428,165L489,152Z" fill="#fba25f" stroke="#fba25f" stroke-width="1.51"/><path d="M696,45L572,57L600,138Z" fill="#fdae71" stroke="#fdae71" stroke-width="1.51"/><path d="M1266,587L1291,474L1187,497Z" fill="#b4d0d8" stroke="#b4d0d8" stroke-width="1.51"/><path d="M1266,587L1349,588L1291,474Z" fill="#a8c5da" stroke="#a8c5da" stroke-width="1.51"/><path d="M1204,739L1268,666L1179,652Z" fill="#95c6df" stroke="#95c6df" stroke-width="1.51"/><path d="M828,935L845,1015L949,924Z" fill="#97abd0" stroke="#97abd0" stroke-width="1.51"/><path d="M949,924L1041,1004L1009,914Z" fill="#85a6d0" stroke="#85a6d0" stroke-width="1.51"/><path d="M742,1025L845,1015L828,935Z" fill="#9ea4c1" stroke="#9ea4c1" stroke-width="1.51"/><path d="M742,1025L759,928L673,918Z" fill="#a9b0ba" stroke="#a9b0ba" stroke-width="1.51"/><path d="M572,57L511,81L600,138Z" fill="#fdab6b" stroke="#fdab6b" stroke-width="1.51"/><path d="M1204,739L1262,772L1268,666Z" fill="#87bcd9" stroke="#87bcd9" stroke-width="1.51"/><path d="M1109,835L1197,846L1127,767Z" fill="#83b8d7" stroke="#83b8d7" stroke-width="1.51"/><path d="M1009,914L1097,918L1016,835Z" fill="#87b2d5" stroke="#87b2d5" stroke-width="1.51"/><path d="M1041,1004L1097,918L1009,914Z" fill="#7da3ce" stroke="#7da3ce" stroke-width="1.51"/><path d="M670,1023L742,1025L673,918Z" fill="#a8a5b2" stroke="#a8a5b2" stroke-width="1.51"/><path d="M427,914L513,945L490,854Z" fill="#b6a69f" stroke="#b6a69f" stroke-width="1.51"/><path d="M670,1023L673,918L585,908Z" fill="#abacb0" stroke="#abacb0" stroke-width="1.51"/><path d="M753,-35L679,-15L696,45Z" fill="#f8a572" stroke="#f8a572" stroke-width="1.51"/><path d="M696,45L583,-5L572,57Z" fill="#f9a46a" stroke="#f9a46a" stroke-width="1.51"/><path d="M941,-47L858,-9L947,81Z" fill="#eca18f" stroke="#eca18f" stroke-width="1.51"/><path d="M572,1027L670,1023L585,908Z" fill="#aa9fa7" stroke="#aa9fa7" stroke-width="1.51"/><path d="M1089,140L1123,72L1005,74Z" fill="#dfa795" stroke="#dfa795" stroke-width="1.51"/><path d="M1005,74L941,-47L947,81Z" fill="#e8a391" stroke="#e8a391" stroke-width="1.51"/><path d="M1181,225L1182,163L1122,244Z" fill="#d2b8a0" stroke="#d2b8a0" stroke-width="1.51"/><path d="M1266,130L1182,163L1181,225Z" fill="#cca998" stroke="#cca998" stroke-width="1.51"/><path d="M1288,335L1176,339L1262,393Z" fill="#c2c9b7" stroke="#c2c9b7" stroke-width="1.51"/><path d="M1097,918L1197,846L1109,835Z" fill="#7cadd2" stroke="#7cadd2" stroke-width="1.51"/><path d="M1358,403L1288,335L1262,393Z" fill="#bac1b6" stroke="#bac1b6" stroke-width="1.51"/><path d="M412,824L427,914L490,854Z" fill="#bdab9e" stroke="#bdab9e" stroke-width="1.51"/><path d="M323,686L320,771L421,758Z" fill="#d6b89f" stroke="#d6b89f" stroke-width="1.51"/><path d="M233,741L320,771L323,686Z" fill="#d8ae99" stroke="#d8ae99" stroke-width="1.51"/><path d="M326,409L261,410L334,476Z" fill="#ffc886" stroke="#ffc886" stroke-width="1.51"/><path d="M342,338L261,410L326,409Z" fill="#ffc37d" stroke="#ffc37d" stroke-width="1.51"/><path d="M240,310L261,410L342,338Z" fill="#ffba74" stroke="#ffba74" stroke-width="1.51"/><path d="M753,-35L696,45L773,41Z" fill="#f8a979" stroke="#f8a979" stroke-width="1.51"/><path d="M572,57L486,-39L511,81Z" fill="#f69a5e" stroke="#f69a5e" stroke-width="1.51"/><path d="M428,165L339,214L416,234Z" fill="#fdb063" stroke="#fdb063" stroke-width="1.51"/><path d="M345,128L339,214L428,165Z" fill="#fca45b" stroke="#fca45b" stroke-width="1.51"/><path d="M513,945L572,1027L585,908Z" fill="#aca1a3" stroke="#aca1a3" stroke-width="1.51"/><path d="M333,846L427,914L412,824Z" fill="#bea497" stroke="#bea497" stroke-width="1.51"/><path d="M845,1015L931,1032L949,924Z" fill="#90a1cf" stroke="#90a1cf" stroke-width="1.51"/><path d="M742,1025L931,1032L845,1015Z" fill="#979ac3" stroke="#979ac3" stroke-width="1.51"/><path d="M492,1033L931,1032L742,1025Z" fill="#a49bb0" stroke="#a49bb0" stroke-width="1.51"/><path d="M1197,846L1262,772L1204,739Z" fill="#7eb4d5" stroke="#7eb4d5" stroke-width="1.51"/><path d="M1268,666L1349,588L1266,587Z" fill="#9cc1de" stroke="#9cc1de" stroke-width="1.51"/><path d="M233,497L247,564L334,476Z" fill="#fcc194" stroke="#fcc194" stroke-width="1.51"/><path d="M858,-9L753,-35L773,41Z" fill="#f4a47f" stroke="#f4a47f" stroke-width="1.51"/><path d="M1182,163L1123,72L1089,140Z" fill="#d7a796" stroke="#d7a796" stroke-width="1.51"/><path d="M261,410L233,497L334,476Z" fill="#ffc589" stroke="#ffc589" stroke-width="1.51"/><path d="M931,1032L1041,1004L949,924Z" fill="#879dcc" stroke="#879dcc" stroke-width="1.51"/><path d="M1186,937L1260,841L1197,846Z" fill="#6da1cb" stroke="#6da1cb" stroke-width="1.51"/><path d="M679,-15L583,-5L696,45Z" fill="#f7a26c" stroke="#f7a26c" stroke-width="1.51"/><path d="M400,53L345,128L428,165Z" fill="#fb9957" stroke="#fb9957" stroke-width="1.51"/><path d="M611,-108L583,-5L679,-15Z" fill="#f09663" stroke="#f09663" stroke-width="1.51"/><path d="M670,1023L572,1027L742,1025Z" fill="#a698a9" stroke="#a698a9" stroke-width="1.51"/><path d="M492,1033L572,1027L513,945Z" fill="#a9929b" stroke="#a9929b" stroke-width="1.51"/><path d="M320,771L333,846L412,824Z" fill="#c7ab99" stroke="#c7ab99" stroke-width="1.51"/><path d="M437,1008L492,1033L513,945Z" fill="#ab8d95" stroke="#ab8d95" stroke-width="1.51"/><path d="M261,826L333,846L320,771Z" fill="#c7a294" stroke="#c7a294" stroke-width="1.51"/><path d="M1386,651L1349,588L1268,666Z" fill="#91b8d9" stroke="#91b8d9" stroke-width="1.51"/><path d="M1291,474L1358,403L1262,393Z" fill="#b8c6bf" stroke="#b8c6bf" stroke-width="1.51"/><path d="M1349,588L1360,471L1291,474Z" fill="#abc2cf" stroke="#abc2cf" stroke-width="1.51"/><path d="M1370,745L1386,651L1268,666Z" fill="#84b2d5" stroke="#84b2d5" stroke-width="1.51"/><path d="M1197,846L1260,841L1262,772Z" fill="#73abd0" stroke="#73abd0" stroke-width="1.51"/><path d="M1186,937L1197,846L1097,918Z" fill="#72a2cc" stroke="#72a2cc" stroke-width="1.51"/><path d="M1288,335L1297,240L1181,225Z" fill="#c3b6a5" stroke="#c3b6a5" stroke-width="1.51"/><path d="M1182,163L1208,82L1123,72Z" fill="#d29e90" stroke="#d29e90" stroke-width="1.51"/><path d="M1382,317L1297,240L1288,335Z" fill="#bab1a6" stroke="#bab1a6" stroke-width="1.51"/><path d="M1039,-38L941,-47L1005,74Z" fill="#e1998b" stroke="#e1998b" stroke-width="1.51"/><path d="M858,-9L779,-101L753,-35Z" fill="#ee9b7b" stroke="#ee9b7b" stroke-width="1.51"/><path d="M1360,471L1358,403L1291,474Z" fill="#b4c4c2" stroke="#b4c4c2" stroke-width="1.51"/><path d="M339,214L240,310L342,338Z" fill="#fdb36a" stroke="#fdb36a" stroke-width="1.51"/><path d="M261,410L164,421L233,497Z" fill="#ffba7f" stroke="#ffba7f" stroke-width="1.51"/><path d="M177,599L231,686L247,564Z" fill="#eeb09a" stroke="#eeb09a" stroke-width="1.51"/><path d="M247,564L231,686L323,686Z" fill="#e9b69d" stroke="#e9b69d" stroke-width="1.51"/><path d="M1109,1013L1186,937L1097,918Z" fill="#6f97c7" stroke="#6f97c7" stroke-width="1.51"/><path d="M339,214L233,252L240,310Z" fill="#fca661" stroke="#fca661" stroke-width="1.51"/><path d="M400,53L489,152L511,81Z" fill="#fb9f5f" stroke="#fb9f5f" stroke-width="1.51"/><path d="M1041,1004L1109,1013L1097,918Z" fill="#7697c8" stroke="#7697c8" stroke-width="1.51"/><path d="M931,1032L1109,1013L1041,1004Z" fill="#7c91c6" stroke="#7c91c6" stroke-width="1.51"/><path d="M437,1008L513,945L427,914Z" fill="#af9697" stroke="#af9697" stroke-width="1.51"/><path d="M572,1027L492,1033L742,1025Z" fill="#a692a1" stroke="#a692a1" stroke-width="1.51"/><path d="M486,-39L400,53L511,81Z" fill="#f59257" stroke="#f59257" stroke-width="1.51"/><path d="M352,937L437,1008L427,914Z" fill="#b08f90" stroke="#b08f90" stroke-width="1.51"/><path d="M231,686L233,741L323,686Z" fill="#deae99" stroke="#deae99" stroke-width="1.51"/><path d="M1108,-4L1039,-38L1005,74Z" fill="#db988a" stroke="#db988a" stroke-width="1.51"/><path d="M1266,130L1208,82L1182,163Z" fill="#cb9c90" stroke="#cb9c90" stroke-width="1.51"/><path d="M1108,-4L1005,74L1123,72Z" fill="#db9d8e" stroke="#db9d8e" stroke-width="1.51"/><path d="M1204,-27L1108,-4L1123,72Z" fill="#cf8e86" stroke="#cf8e86" stroke-width="1.51"/><path d="M352,937L427,914L333,846Z" fill="#b99891" stroke="#b99891" stroke-width="1.51"/><path d="M244,927L352,937L333,846Z" fill="#b88d8b" stroke="#b88d8b" stroke-width="1.51"/><path d="M258,128L233,252L339,214Z" fill="#fb9a57" stroke="#fb9a57" stroke-width="1.51"/><path d="M143,485L177,599L233,497Z" fill="#f9b28f" stroke="#f9b28f" stroke-width="1.51"/><path d="M233,497L177,599L247,564Z" fill="#f8b699" stroke="#f8b699" stroke-width="1.51"/><path d="M258,128L339,214L345,128Z" fill="#fb9655" stroke="#fb9655" stroke-width="1.51"/><path d="M1208,82L1204,-27L1123,72Z" fill="#cd8f87" stroke="#cd8f87" stroke-width="1.51"/><path d="M1297,240L1266,130L1181,225Z" fill="#c7aa98" stroke="#c7aa98" stroke-width="1.51"/><path d="M1351,165L1266,130L1297,240Z" fill="#c09b92" stroke="#c09b92" stroke-width="1.51"/><path d="M753,-35L673,-120L679,-15Z" fill="#ef9b6c" stroke="#ef9b6c" stroke-width="1.51"/><path d="M583,-5L486,-39L572,57Z" fill="#f4985e" stroke="#f4985e" stroke-width="1.51"/><path d="M838,-107L779,-101L858,-9Z" fill="#e7977f" stroke="#e7977f" stroke-width="1.51"/><path d="M838,-107L858,-9L920,-112Z" fill="#e39586" stroke="#e39586" stroke-width="1.51"/><path d="M233,741L261,826L320,771Z" fill="#cfa294" stroke="#cfa294" stroke-width="1.51"/><path d="M1451,474L1446,423L1360,471Z" fill="#aab5bd" stroke="#aab5bd" stroke-width="1.51"/><path d="M1446,423L1382,317L1358,403Z" fill="#afb1b0" stroke="#afb1b0" stroke-width="1.51"/><path d="M1370,745L1268,666L1262,772Z" fill="#80b2d5" stroke="#80b2d5" stroke-width="1.51"/><path d="M164,421L261,410L240,310Z" fill="#feb374" stroke="#feb374" stroke-width="1.51"/><path d="M231,686L146,747L233,741Z" fill="#d9a192" stroke="#d9a192" stroke-width="1.51"/><path d="M233,741L158,843L261,826Z" fill="#ca958c" stroke="#ca958c" stroke-width="1.51"/><path d="M920,-112L858,-9L941,-47Z" fill="#e59689" stroke="#e59689" stroke-width="1.51"/><path d="M1358,403L1382,317L1288,335Z" fill="#b6b7af" stroke="#b6b7af" stroke-width="1.51"/><path d="M1446,423L1358,403L1360,471Z" fill="#aeb8ba" stroke="#aeb8ba" stroke-width="1.51"/><path d="M1366,821L1370,745L1262,772Z" fill="#70a3cd" stroke="#70a3cd" stroke-width="1.51"/><path d="M1186,937L1289,930L1260,841Z" fill="#6297c6" stroke="#6297c6" stroke-width="1.51"/><path d="M1109,1013L1191,990L1186,937Z" fill="#688dc2" stroke="#688dc2" stroke-width="1.51"/><path d="M515,-94L486,-39L583,-5Z" fill="#ed8b56" stroke="#ed8b56" stroke-width="1.51"/><path d="M1366,821L1262,772L1260,841Z" fill="#6da4cc" stroke="#6da4cc" stroke-width="1.51"/><path d="M147,328L164,421L240,310Z" fill="#fca96b" stroke="#fca96b" stroke-width="1.51"/><path d="M1009,-92L941,-47L1039,-38Z" fill="#d98f86" stroke="#d98f86" stroke-width="1.51"/><path d="M1009,-92L920,-112L941,-47Z" fill="#d88f87" stroke="#d88f87" stroke-width="1.51"/><path d="M920,-112L673,-120L838,-107Z" fill="#de927c" stroke="#de927c" stroke-width="1.51"/><path d="M838,-107L673,-120L779,-101Z" fill="#e29475" stroke="#e29475" stroke-width="1.51"/><path d="M779,-101L673,-120L753,-35Z" fill="#e89871" stroke="#e89871" stroke-width="1.51"/><path d="M1094,-98L1009,-92L1039,-38Z" fill="#ce8a84" stroke="#ce8a84" stroke-width="1.51"/><path d="M1094,-98L1039,-38L1108,-4Z" fill="#d18b83" stroke="#d18b83" stroke-width="1.51"/><path d="M177,599L163,665L231,686Z" fill="#e7a995" stroke="#e7a995" stroke-width="1.51"/><path d="M79,559L163,665L177,599Z" fill="#eca693" stroke="#eca693" stroke-width="1.51"/><path d="M673,-120L611,-108L679,-15Z" fill="#e99466" stroke="#e99466" stroke-width="1.51"/><path d="M412,-29L346,41L400,53Z" fill="#f3834b" stroke="#f3834b" stroke-width="1.51"/><path d="M400,53L346,41L345,128Z" fill="#f88a4f" stroke="#f88a4f" stroke-width="1.51"/><path d="M164,421L143,485L233,497Z" fill="#fdb481" stroke="#fdb481" stroke-width="1.51"/><path d="M1266,130L1264,71L1208,82Z" fill="#c7918b" stroke="#c7918b" stroke-width="1.51"/><path d="M1352,67L1264,71L1266,130Z" fill="#c18886" stroke="#c18886" stroke-width="1.51"/><path d="M176,236L147,328L240,310Z" fill="#fb9f60" stroke="#fb9f60" stroke-width="1.51"/><path d="M76,398L70,476L143,485Z" fill="#f9aa76" stroke="#f9aa76" stroke-width="1.51"/><path d="M346,41L258,128L345,128Z" fill="#f8874e" stroke="#f8874e" stroke-width="1.51"/><path d="M1191,990L1289,930L1186,937Z" fill="#5f8dc1" stroke="#5f8dc1" stroke-width="1.51"/><path d="M352,937L347,996L437,1008Z" fill="#ae8489" stroke="#ae8489" stroke-width="1.51"/><path d="M437,1008L347,996L492,1033Z" fill="#aa818c" stroke="#aa818c" stroke-width="1.51"/><path d="M244,927L347,996L352,937Z" fill="#b18186" stroke="#b18186" stroke-width="1.51"/><path d="M244,927L333,846L261,826Z" fill="#bf918c" stroke="#bf918c" stroke-width="1.51"/><path d="M1370,745L1449,647L1386,651Z" fill="#7fa8d0" stroke="#7fa8d0" stroke-width="1.51"/><path d="M1289,930L1366,821L1260,841Z" fill="#6296c6" stroke="#6296c6" stroke-width="1.51"/><path d="M346,41L242,42L258,128Z" fill="#f57a48" stroke="#f57a48" stroke-width="1.51"/><path d="M486,-39L412,-29L400,53Z" fill="#f1854e" stroke="#f1854e" stroke-width="1.51"/><path d="M428,-97L412,-29L486,-39Z" fill="#e97e4b" stroke="#e97e4b" stroke-width="1.51"/><path d="M1380,217L1351,165L1297,240Z" fill="#bb9c93" stroke="#bb9c93" stroke-width="1.51"/><path d="M1382,317L1380,217L1297,240Z" fill="#b8a49c" stroke="#b8a49c" stroke-width="1.51"/><path d="M428,-97L515,-94L611,-108Z" fill="#e28455" stroke="#e28455" stroke-width="1.51"/><path d="M611,-108L515,-94L583,-5Z" fill="#e98e5b" stroke="#e98e5b" stroke-width="1.51"/><path d="M1382,317L1448,228L1380,217Z" fill="#b29a97" stroke="#b29a97" stroke-width="1.51"/><path d="M1451,474L1360,471L1349,588Z" fill="#a4b9cb" stroke="#a4b9cb" stroke-width="1.51"/><path d="M1451,474L1349,588L1458,601Z" fill="#99b1d2" stroke="#99b1d2" stroke-width="1.51"/><path d="M1458,601L1349,588L1386,651Z" fill="#8fb0d5" stroke="#8fb0d5" stroke-width="1.51"/><path d="M176,236L240,310L233,252Z" fill="#fb9e5d" stroke="#fb9e5d" stroke-width="1.51"/><path d="M164,168L176,236L233,252Z" fill="#f98f53" stroke="#f98f53" stroke-width="1.51"/><path d="M1467,770L1449,647L1370,745Z" fill="#739dca" stroke="#739dca" stroke-width="1.51"/><path d="M1449,647L1458,601L1386,651Z" fill="#88a8d0" stroke="#88a8d0" stroke-width="1.51"/><path d="M1290,-19L1204,-27L1264,71Z" fill="#bf7f7e" stroke="#bf7f7e" stroke-width="1.51"/><path d="M1264,71L1204,-27L1208,82Z" fill="#c68984" stroke="#c68984" stroke-width="1.51"/><path d="M1009,-92L1094,-98L920,-112Z" fill="#ce8984" stroke="#ce8984" stroke-width="1.51"/><path d="M1204,-27L1094,-98L1108,-4Z" fill="#ca847f" stroke="#ca847f" stroke-width="1.51"/><path d="M163,665L146,747L231,686Z" fill="#dda192" stroke="#dda192" stroke-width="1.51"/><path d="M55,681L146,747L163,665Z" fill="#da9a8c" stroke="#da9a8c" stroke-width="1.51"/><path d="M158,843L244,927L261,826Z" fill="#bf8786" stroke="#bf8786" stroke-width="1.51"/><path d="M1446,423L1459,318L1382,317Z" fill="#ada7a8" stroke="#ada7a8" stroke-width="1.51"/><path d="M1466,147L1352,67L1351,165Z" fill="#b68084" stroke="#b68084" stroke-width="1.51"/><path d="M1557,397L1459,318L1446,423Z" fill="#a99fa8" stroke="#a99fa8" stroke-width="1.51"/><path d="M1531,493L1446,423L1451,474Z" fill="#a6a9b9" stroke="#a6a9b9" stroke-width="1.51"/><path d="M428,-97L333,-26L412,-29Z" fill="#e97644" stroke="#e97644" stroke-width="1.51"/><path d="M412,-29L333,-26L346,41Z" fill="#ef7945" stroke="#ef7945" stroke-width="1.51"/><path d="M258,128L164,168L233,252Z" fill="#f98b50" stroke="#f98b50" stroke-width="1.51"/><path d="M515,-94L428,-97L486,-39Z" fill="#e68050" stroke="#e68050" stroke-width="1.51"/><path d="M673,-120L428,-97L611,-108Z" fill="#e1885b" stroke="#e1885b" stroke-width="1.51"/><path d="M143,485L79,559L177,599Z" fill="#f4a98f" stroke="#f4a98f" stroke-width="1.51"/><path d="M70,476L79,559L143,485Z" fill="#f5a682" stroke="#f5a682" stroke-width="1.51"/><path d="M169,40L164,168L258,128Z" fill="#f57445" stroke="#f57445" stroke-width="1.51"/><path d="M78,220L55,321L147,328Z" fill="#f49157" stroke="#f49157" stroke-width="1.51"/><path d="M76,398L143,485L164,421Z" fill="#fbac75" stroke="#fbac75" stroke-width="1.51"/><path d="M146,747L158,843L233,741Z" fill="#ce948b" stroke="#ce948b" stroke-width="1.51"/><path d="M68,768L158,843L146,747Z" fill="#c98b85" stroke="#c98b85" stroke-width="1.51"/><path d="M76,398L164,421L147,328Z" fill="#f9a66c" stroke="#f9a66c" stroke-width="1.51"/><path d="M1204,-27L1204,-92L1094,-98Z" fill="#bf7d7d" stroke="#bf7d7d" stroke-width="1.51"/><path d="M1351,165L1352,67L1266,130Z" fill="#be8a88" stroke="#be8a88" stroke-width="1.51"/><path d="M1466,147L1351,165L1380,217Z" fill="#b48b8a" stroke="#b48b8a" stroke-width="1.51"/><path d="M169,40L242,42L174,-47Z" fill="#eb5b39" stroke="#eb5b39" stroke-width="1.51"/><path d="M333,-26L242,42L346,41Z" fill="#f07444" stroke="#f07444" stroke-width="1.51"/><path d="M1459,318L1448,228L1382,317Z" fill="#af9c9c" stroke="#af9c9c" stroke-width="1.51"/><path d="M55,321L76,398L147,328Z" fill="#f59c62" stroke="#f59c62" stroke-width="1.51"/><path d="M1289,930L1387,942L1366,821Z" fill="#5687be" stroke="#5687be" stroke-width="1.51"/><path d="M1366,821L1467,770L1370,745Z" fill="#6798c7" stroke="#6798c7" stroke-width="1.51"/><path d="M1191,990L1295,1026L1289,930Z" fill="#5980bb" stroke="#5980bb" stroke-width="1.51"/><path d="M1109,1013L1295,1026L1191,990Z" fill="#6180bc" stroke="#6180bc" stroke-width="1.51"/><path d="M931,1032L1295,1026L1109,1013Z" fill="#6f87c0" stroke="#6f87c0" stroke-width="1.51"/><path d="M1458,601L1531,493L1451,474Z" fill="#9ca6c6" stroke="#9ca6c6" stroke-width="1.51"/><path d="M1541,589L1531,493L1458,601Z" fill="#949ecb" stroke="#949ecb" stroke-width="1.51"/><path d="M1458,826L1467,770L1366,821Z" fill="#5f8ec2" stroke="#5f8ec2" stroke-width="1.51"/><path d="M1352,67L1290,-19L1264,71Z" fill="#bc7c7f" stroke="#bc7c7f" stroke-width="1.51"/><path d="M1094,-98L1262,-111L920,-112Z" fill="#c28280" stroke="#c28280" stroke-width="1.51"/><path d="M1262,-111L1204,-92L1204,-27Z" fill="#b67679" stroke="#b67679" stroke-width="1.51"/><path d="M1379,993L1387,942L1289,930Z" fill="#4d79b7" stroke="#4d79b7" stroke-width="1.51"/><path d="M1464,904L1458,826L1366,821Z" fill="#5684bd" stroke="#5684bd" stroke-width="1.51"/><path d="M1458,601L1449,647L1542,657Z" fill="#859dcc" stroke="#859dcc" stroke-width="1.51"/><path d="M1541,589L1458,601L1542,657Z" fill="#8899ca" stroke="#8899ca" stroke-width="1.51"/><path d="M1522,154L1466,147L1448,228Z" fill="#ae7b84" stroke="#ae7b84" stroke-width="1.51"/><path d="M165,935L226,1001L244,927Z" fill="#b16f7c" stroke="#b16f7c" stroke-width="1.51"/><path d="M244,927L226,1001L347,996Z" fill="#ae7480" stroke="#ae7480" stroke-width="1.51"/><path d="M347,996L226,1001L492,1033Z" fill="#ab7784" stroke="#ab7784" stroke-width="1.51"/><path d="M79,559L55,681L163,665Z" fill="#e49d8d" stroke="#e49d8d" stroke-width="1.51"/><path d="M158,843L165,935L244,927Z" fill="#b77980" stroke="#b77980" stroke-width="1.51"/><path d="M-6,656L55,681L79,559Z" fill="#e19688" stroke="#e19688" stroke-width="1.51"/><path d="M82,915L165,935L158,843Z" fill="#b5737b" stroke="#b5737b" stroke-width="1.51"/><path d="M70,476L-12,505L79,559Z" fill="#f19f7f" stroke="#f19f7f" stroke-width="1.51"/><path d="M-17,388L-12,505L70,476Z" fill="#f29e70" stroke="#f29e70" stroke-width="1.51"/><path d="M78,220L147,328L176,236Z" fill="#f69055" stroke="#f69055" stroke-width="1.51"/><path d="M78,220L176,236L164,168Z" fill="#f5864c" stroke="#f5864c" stroke-width="1.51"/><path d="M1542,657L1449,647L1530,742Z" fill="#7994c7" stroke="#7994c7" stroke-width="1.51"/><path d="M1387,942L1464,904L1366,821Z" fill="#5080ba" stroke="#5080ba" stroke-width="1.51"/><path d="M1295,1026L1379,993L1289,930Z" fill="#5076b5" stroke="#5076b5" stroke-width="1.51"/><path d="M55,681L68,768L146,747Z" fill="#d18f86" stroke="#d18f86" stroke-width="1.51"/><path d="M65,136L78,220L164,168Z" fill="#f07745" stroke="#f07745" stroke-width="1.51"/><path d="M1530,742L1449,647L1467,770Z" fill="#7293c5" stroke="#7293c5" stroke-width="1.51"/><path d="M1530,742L1467,770L1533,843Z" fill="#6183bd" stroke="#6183bd" stroke-width="1.51"/><path d="M1542,229L1448,228L1459,318Z" fill="#ad8c92" stroke="#ad8c92" stroke-width="1.51"/><path d="M1448,228L1466,147L1380,217Z" fill="#b18a8b" stroke="#b18a8b" stroke-width="1.51"/><path d="M1355,-40L1262,-111L1290,-19Z" fill="#b16b74" stroke="#b16b74" stroke-width="1.51"/><path d="M242,42L169,40L258,128Z" fill="#f36e43" stroke="#f36e43" stroke-width="1.51"/><path d="M244,-47L242,42L333,-26Z" fill="#ec663d" stroke="#ec663d" stroke-width="1.51"/><path d="M1533,843L1467,770L1458,826Z" fill="#5b83bc" stroke="#5b83bc" stroke-width="1.51"/><path d="M1542,657L1557,397L1541,589Z" fill="#9598c5" stroke="#9598c5" stroke-width="1.51"/><path d="M1541,589L1557,397L1531,493Z" fill="#9e9bba" stroke="#9e9bba" stroke-width="1.51"/><path d="M1531,493L1557,397L1446,423Z" fill="#a7a1b1" stroke="#a7a1b1" stroke-width="1.51"/><path d="M310,-108L244,-47L333,-26Z" fill="#e4633c" stroke="#e4633c" stroke-width="1.51"/><path d="M428,-97L310,-108L333,-26Z" fill="#e26d41" stroke="#e26d41" stroke-width="1.51"/><path d="M673,-120L310,-108L428,-97Z" fill="#df7b4f" stroke="#df7b4f" stroke-width="1.51"/><path d="M1290,-19L1262,-111L1204,-27Z" fill="#b87478" stroke="#b87478" stroke-width="1.51"/><path d="M1204,-92L1262,-111L1094,-98Z" fill="#b6777b" stroke="#b6777b" stroke-width="1.51"/><path d="M920,-112L1453,-129L673,-120Z" fill="#c98684" stroke="#c98684" stroke-width="1.51"/><path d="M1355,-40L1290,-19L1352,67Z" fill="#b57077" stroke="#b57077" stroke-width="1.51"/><path d="M1434,1010L1464,904L1387,942Z" fill="#446db0" stroke="#446db0" stroke-width="1.51"/><path d="M79,990L171,1001L165,935Z" fill="#aa5e73" stroke="#aa5e73" stroke-width="1.51"/><path d="M165,935L171,1001L226,1001Z" fill="#ad6477" stroke="#ad6477" stroke-width="1.51"/><path d="M226,1001L171,1001L492,1033Z" fill="#ab6c7e" stroke="#ab6c7e" stroke-width="1.51"/><path d="M1452,46L1355,-40L1352,67Z" fill="#b06b77" stroke="#b06b77" stroke-width="1.51"/><path d="M1557,397L1558,320L1459,318Z" fill="#a8939f" stroke="#a8939f" stroke-width="1.51"/><path d="M-17,388L70,476L76,398Z" fill="#f49e6b" stroke="#f49e6b" stroke-width="1.51"/><path d="M4,752L57,844L68,768Z" fill="#c37f7d" stroke="#c37f7d" stroke-width="1.51"/><path d="M-17,388L76,398L55,321Z" fill="#f39760" stroke="#f39760" stroke-width="1.51"/><path d="M68,768L57,844L158,843Z" fill="#c1807f" stroke="#c1807f" stroke-width="1.51"/><path d="M4,752L68,768L55,681Z" fill="#ce8982" stroke="#ce8982" stroke-width="1.51"/><path d="M1558,320L1542,229L1459,318Z" fill="#aa8a95" stroke="#aa8a95" stroke-width="1.51"/><path d="M1466,147L1452,46L1352,67Z" fill="#b2717c" stroke="#b2717c" stroke-width="1.51"/><path d="M-28,590L-6,656L79,559Z" fill="#e49588" stroke="#e49588" stroke-width="1.51"/><path d="M1541,70L1452,46L1466,147Z" fill="#ad6478" stroke="#ad6478" stroke-width="1.51"/><path d="M310,-108L256,-103L244,-47Z" fill="#dd5a3a" stroke="#dd5a3a" stroke-width="1.51"/><path d="M244,-47L174,-47L242,42Z" fill="#e85938" stroke="#e85938" stroke-width="1.51"/><path d="M57,844L82,915L158,843Z" fill="#b8757b" stroke="#b8757b" stroke-width="1.51"/><path d="M-12,505L-28,590L79,559Z" fill="#ea9986" stroke="#ea9986" stroke-width="1.51"/><path d="M-36,338L-17,388L55,321Z" fill="#ed905c" stroke="#ed905c" stroke-width="1.51"/><path d="M-36,338L55,321L-22,216Z" fill="#eb8652" stroke="#eb8652" stroke-width="1.51"/><path d="M169,40L65,136L164,168Z" fill="#f06b41" stroke="#f06b41" stroke-width="1.51"/><path d="M73,46L65,136L169,40Z" fill="#eb5a39" stroke="#eb5a39" stroke-width="1.51"/><path d="M1542,657L1561,992L1557,397Z" fill="#778bc3" stroke="#778bc3" stroke-width="1.51"/><path d="M1530,742L1533,843L1542,657Z" fill="#6984be" stroke="#6984be" stroke-width="1.51"/><path d="M1464,904L1533,843L1458,826Z" fill="#5378b7" stroke="#5378b7" stroke-width="1.51"/><path d="M1527,905L1533,843L1464,904Z" fill="#4c6fb2" stroke="#4c6fb2" stroke-width="1.51"/><path d="M1379,993L1434,1010L1387,942Z" fill="#446aaf" stroke="#446aaf" stroke-width="1.51"/><path d="M1295,1026L1434,1010L1379,993Z" fill="#4767ae" stroke="#4767ae" stroke-width="1.51"/><path d="M1542,229L1522,154L1448,228Z" fill="#ac7d86" stroke="#ac7d86" stroke-width="1.51"/><path d="M-95,560L-28,590L-12,505Z" fill="#e19485" stroke="#e19485" stroke-width="1.51"/><path d="M-24,906L79,990L82,915Z" fill="#a95d6f" stroke="#a95d6f" stroke-width="1.51"/><path d="M-6,656L4,752L55,681Z" fill="#d38c83" stroke="#d38c83" stroke-width="1.51"/><path d="M-99,766L4,752L-6,656Z" fill="#c68380" stroke="#c68380" stroke-width="1.51"/><path d="M256,-103L174,-47L244,-47Z" fill="#e05236" stroke="#e05236" stroke-width="1.51"/><path d="M1561,992L1527,905L1464,904Z" fill="#4161ab" stroke="#4161ab" stroke-width="1.51"/><path d="M-113,409L-95,508L-12,505Z" fill="#e39574" stroke="#e39574" stroke-width="1.51"/><path d="M-22,216L55,321L78,220Z" fill="#ee814b" stroke="#ee814b" stroke-width="1.51"/><path d="M1452,46L1439,-35L1355,-40Z" fill="#aa5f70" stroke="#aa5f70" stroke-width="1.51"/><path d="M1355,-40L1387,-106L1262,-111Z" fill="#a66271" stroke="#a66271" stroke-width="1.51"/><path d="M1559,-21L1439,-35L1452,46Z" fill="#a5526c" stroke="#a5526c" stroke-width="1.51"/><path d="M65,136L-22,216L78,220Z" fill="#ec7242" stroke="#ec7242" stroke-width="1.51"/><path d="M73,-14L73,46L169,40Z" fill="#e54f33" stroke="#e54f33" stroke-width="1.51"/><path d="M-5,857L82,915L57,844Z" fill="#b46d75" stroke="#b46d75" stroke-width="1.51"/><path d="M82,915L79,990L165,935Z" fill="#ac6274" stroke="#ac6274" stroke-width="1.51"/><path d="M1439,-35L1387,-106L1355,-40Z" fill="#a45b6e" stroke="#a45b6e" stroke-width="1.51"/><path d="M-20,128L-22,216L65,136Z" fill="#e7663d" stroke="#e7663d" stroke-width="1.51"/><path d="M4,752L-5,857L57,844Z" fill="#bb7779" stroke="#bb7779" stroke-width="1.51"/><path d="M-24,906L-5,857L-92,817Z" fill="#ab6874" stroke="#ab6874" stroke-width="1.51"/><path d="M1439,-35L1453,-129L1387,-106Z" fill="#9b516b" stroke="#9b516b" stroke-width="1.51"/><path d="M1522,154L1541,70L1466,147Z" fill="#ab687b" stroke="#ab687b" stroke-width="1.51"/><path d="M1542,229L1541,70L1522,154Z" fill="#aa697d" stroke="#aa697d" stroke-width="1.51"/><path d="M1559,-21L1541,70L1542,229Z" fill="#a85774" stroke="#a85774" stroke-width="1.51"/><path d="M-113,409L-12,505L-17,388Z" fill="#e9976b" stroke="#e9976b" stroke-width="1.51"/><path d="M-28,590L-123,676L-6,656Z" fill="#d28c85" stroke="#d28c85" stroke-width="1.51"/><path d="M-113,409L-17,388L-36,338Z" fill="#e58f61" stroke="#e58f61" stroke-width="1.51"/><path d="M-95,508L-95,560L-12,505Z" fill="#e0937e" stroke="#e0937e" stroke-width="1.51"/><path d="M51,-98L73,-14L174,-47Z" fill="#d93c2c" stroke="#d93c2c" stroke-width="1.51"/><path d="M174,-47L73,-14L169,40Z" fill="#e44d32" stroke="#e44d32" stroke-width="1.51"/><path d="M73,46L-20,128L65,136Z" fill="#e85838" stroke="#e85838" stroke-width="1.51"/><path d="M256,-103L156,-120L174,-47Z" fill="#da4934" stroke="#da4934" stroke-width="1.51"/><path d="M310,-108L156,-120L256,-103Z" fill="#d75038" stroke="#d75038" stroke-width="1.51"/><path d="M673,-120L156,-120L310,-108Z" fill="#db6c43" stroke="#db6c43" stroke-width="1.51"/><path d="M-31,61L-20,128L73,46Z" fill="#e24d34" stroke="#e24d34" stroke-width="1.51"/><path d="M-117,301L-113,409L-36,338Z" fill="#df885c" stroke="#df885c" stroke-width="1.51"/><path d="M-5,857L-24,906L82,915Z" fill="#ae6571" stroke="#ae6571" stroke-width="1.51"/><path d="M-92,817L-5,857L4,752Z" fill="#b57479" stroke="#b57479" stroke-width="1.51"/><path d="M-95,508L-123,676L-95,560Z" fill="#d58c87" stroke="#d58c87" stroke-width="1.51"/><path d="M-117,301L-36,338L-22,216Z" fill="#e27f50" stroke="#e27f50" stroke-width="1.51"/><path d="M1434,1010L1561,992L1464,904Z" fill="#405ea9" stroke="#405ea9" stroke-width="1.51"/><path d="M1527,905L1561,992L1533,843Z" fill="#4462ab" stroke="#4462ab" stroke-width="1.51"/><path d="M1533,843L1561,992L1542,657Z" fill="#5673b5" stroke="#5673b5" stroke-width="1.51"/><path d="M1557,397L1561,992L1558,320Z" fill="#9094c9" stroke="#9094c9" stroke-width="1.51"/><path d="M-123,676L-99,766L-6,656Z" fill="#c48382" stroke="#c48382" stroke-width="1.51"/><path d="M-123,676L-28,590L-95,560Z" fill="#d38c86" stroke="#d38c86" stroke-width="1.51"/><path d="M1524,-101L1453,-129L1439,-35Z" fill="#974867" stroke="#974867" stroke-width="1.51"/><path d="M1387,-106L1453,-129L1262,-111Z" fill="#9c596e" stroke="#9c596e" stroke-width="1.51"/><path d="M1262,-111L1453,-129L920,-112Z" fill="#af7279" stroke="#af7279" stroke-width="1.51"/><path d="M673,-120L-2,-122L156,-120Z" fill="#d6573b" stroke="#d6573b" stroke-width="1.51"/><path d="M-113,409L-123,676L-95,508Z" fill="#d98f7f" stroke="#d98f7f" stroke-width="1.51"/><path d="M-113,409L-122,249L-123,676Z" fill="#de926c" stroke="#de926c" stroke-width="1.51"/><path d="M-122,249L-117,301L-22,216Z" fill="#dc764b" stroke="#dc764b" stroke-width="1.51"/><path d="M-97,909L-92,817L-99,766Z" fill="#a86a76" stroke="#a86a76" stroke-width="1.51"/><path d="M-99,766L-92,817L4,752Z" fill="#b6777b" stroke="#b6777b" stroke-width="1.51"/><path d="M-111,149L-122,249L-22,216Z" fill="#db6a42" stroke="#db6a42" stroke-width="1.51"/><path d="M-1,-21L-31,61L73,46Z" fill="#dd412e" stroke="#dd412e" stroke-width="1.51"/><path d="M-1,-21L73,46L73,-14Z" fill="#dd3f2c" stroke="#dd3f2c" stroke-width="1.51"/><path d="M1541,70L1559,-21L1452,46Z" fill="#a5526e" stroke="#a5526e" stroke-width="1.51"/><path d="M1558,320L1559,-21L1542,229Z" fill="#a96c7f" stroke="#a96c7f" stroke-width="1.51"/><path d="M1561,992L1559,-21L1558,320Z" fill="#a497ab" stroke="#a497ab" stroke-width="1.51"/><path d="M-117,301L-122,249L-113,409Z" fill="#da8156" stroke="#da8156" stroke-width="1.51"/><path d="M-111,149L-22,216L-20,128Z" fill="#de623d" stroke="#de623d" stroke-width="1.51"/><path d="M-112,73L-111,149L-20,128Z" fill="#d75138" stroke="#d75138" stroke-width="1.51"/><path d="M51,-98L-1,-21L73,-14Z" fill="#d63128" stroke="#d63128" stroke-width="1.51"/><path d="M156,-120L51,-98L174,-47Z" fill="#d43d2f" stroke="#d43d2f" stroke-width="1.51"/><path d="M1559,-21L1524,-101L1439,-35Z" fill="#9c4466" stroke="#9c4466" stroke-width="1.51"/><path d="M-97,909L-31,1014L-24,906Z" fill="#9b526b" stroke="#9b526b" stroke-width="1.51"/><path d="M-24,906L-31,1014L79,990Z" fill="#a14f69" stroke="#a14f69" stroke-width="1.51"/><path d="M79,990L-31,1014L171,1001Z" fill="#a34d6a" stroke="#a34d6a" stroke-width="1.51"/><path d="M171,1001L-108,1030L492,1033Z" fill="#a75672" stroke="#a75672" stroke-width="1.51"/><path d="M-112,73L-20,128L-31,61Z" fill="#da4a35" stroke="#da4a35" stroke-width="1.51"/><path d="M-92,817L-97,909L-24,906Z" fill="#a36171" stroke="#a36171" stroke-width="1.51"/><path d="M-123,676L-97,909L-99,766Z" fill="#af727a" stroke="#af727a" stroke-width="1.51"/><path d="M-119,-30L-112,73L-31,61Z" fill="#ce392f" stroke="#ce392f" stroke-width="1.51"/><path d="M-111,149L-112,73L-122,249Z" fill="#d45a3c" stroke="#d45a3c" stroke-width="1.51"/><path d="M-119,-30L-31,61L-1,-21Z" fill="#d0332b" stroke="#d0332b" stroke-width="1.51"/><path d="M51,-98L-2,-122L-1,-21Z" fill="#cb2727" stroke="#cb2727" stroke-width="1.51"/><path d="M156,-120L-2,-122L51,-98Z" fill="#ca2d2a" stroke="#ca2d2a" stroke-width="1.51"/><path d="M1453,-129L-2,-122L673,-120Z" fill="#e1936c" stroke="#e1936c" stroke-width="1.51"/><path d="M-97,909L-108,1030L-31,1014Z" fill="#924366" stroke="#924366" stroke-width="1.51"/><path d="M-31,1014L-108,1030L171,1001Z" fill="#9c4064" stroke="#9c4064" stroke-width="1.51"/><path d="M-123,676L-108,1030L-97,909Z" fill="#9e5f71" stroke="#9e5f71" stroke-width="1.51"/><path d="M-81,-100L-119,-30L-1,-21Z" fill="#c52327" stroke="#c52327" stroke-width="1.51"/><path d="M-112,73L-119,-30L-122,249Z" fill="#d04735" stroke="#d04735" stroke-width="1.51"/><path d="M-2,-122L-81,-100L-1,-21Z" fill="#c42327" stroke="#c42327" stroke-width="1.51"/></svg>