<svg xmlns="http://www.w3.org/2000/svg" width="1440" height="900"><path d="M751,474L768,559L829,481Z" fill="#e8f0f4" stroke="#e8f0f4" stroke-width="1.51"/><path d="M768,559L853,595L829,481Z" fill="#deebf3" stroke="#deebf3" stroke-width="1.51"/><path d="M751,474L667,514L768,559Z" fill="#ecf1f5" stroke="#ecf1f5" stroke-width="1.51"/><path d="M829,481L755,394L751,474Z" fill="#f1f4f6" stroke="#f1f4f6" stroke-width="1.51"/><path d="M751,474L686,388L667,514Z" fill="#f6f5f4" stroke="#f6f5f4" stroke-width="1.51"/><path d="M768,559L776,644L853,595Z" fill="#d5e6f0" stroke="#d5e6f0" stroke-width="1.51"/><path d="M670,598L776,644L768,559Z" fill="#dbe9f1" stroke="#dbe9f1" stroke-width="1.51"/><path d="M829,481L871,403L755,394Z" fill="#eeeff0" stroke="#eeeff0" stroke-width="1.51"/><path d="M932,481L871,403L829,481Z" fill="#e5eef4" stroke="#e5eef4" stroke-width="1.51"/><path d="M667,514L670,598L768,559Z" fill="#e7edf2" stroke="#e7edf2" stroke-width="1.51"/><path d="M853,595L932,481L829,481Z" fill="#dceaf2" stroke="#dceaf2" stroke-width="1.51"/><path d="M755,394L686,388L751,474Z" fill="#f7f3f0" stroke="#f7f3f0" stroke-width="1.51"/><path d="M680,332L686,388L755,394Z" fill="#faede5" stroke="#faede5" stroke-width="1.51"/><path d="M776,644L854,662L853,595Z" fill="#c8e0ed" stroke="#c8e0ed" stroke-width="1.51"/><path d="M853,595L953,578L932,481Z" fill="#d1e4f0" stroke="#d1e4f0" stroke-width="1.51"/><path d="M933,684L953,578L853,595Z" fill="#c2dcec" stroke="#c2dcec" stroke-width="1.51"/><path d="M670,598L675,651L776,644Z" fill="#d6e5ed" stroke="#d6e5ed" stroke-width="1.51"/><path d="M776,644L851,750L854,662Z" fill="#bcd9e9" stroke="#bcd9e9" stroke-width="1.51"/><path d="M932,481L952,422L871,403Z" fill="#e0eaef" stroke="#e0eaef" stroke-width="1.51"/><path d="M1025,477L952,422L932,481Z" fill="#d5e6ef" stroke="#d5e6ef" stroke-width="1.51"/><path d="M850,304L766,315L755,394Z" fill="#f3e7df" stroke="#f3e7df" stroke-width="1.51"/><path d="M850,304L755,394L871,403Z" fill="#efe8e4" stroke="#efe8e4" stroke-width="1.51"/><path d="M670,598L597,590L675,651Z" fill="#dce3e7" stroke="#dce3e7" stroke-width="1.51"/><path d="M667,514L597,590L670,598Z" fill="#e7e9e9" stroke="#e7e9e9" stroke-width="1.51"/><path d="M574,482L597,590L667,514Z" fill="#ede9e5" stroke="#ede9e5" stroke-width="1.51"/><path d="M569,421L574,482L667,514Z" fill="#f6ece6" stroke="#f6ece6" stroke-width="1.51"/><path d="M766,315L680,332L755,394Z" fill="#f9eae2" stroke="#f9eae2" stroke-width="1.51"/><path d="M569,421L667,514L686,388Z" fill="#faefea" stroke="#faefea" stroke-width="1.51"/><path d="M944,337L850,304L871,403Z" fill="#e8e2df" stroke="#e8e2df" stroke-width="1.51"/><path d="M854,662L933,684L853,595Z" fill="#bfdbeb" stroke="#bfdbeb" stroke-width="1.51"/><path d="M851,750L933,684L854,662Z" fill="#b2d4e6" stroke="#b2d4e6" stroke-width="1.51"/><path d="M953,578L1025,477L932,481Z" fill="#cde2ee" stroke="#cde2ee" stroke-width="1.51"/><path d="M933,684L1006,582L953,578Z" fill="#bad8e9" stroke="#bad8e9" stroke-width="1.51"/><path d="M952,422L944,337L871,403Z" fill="#e2e4e6" stroke="#e2e4e6" stroke-width="1.51"/><path d="M1042,399L944,337L952,422Z" fill="#d8dfe2" stroke="#d8dfe2" stroke-width="1.51"/><path d="M610,314L569,421L686,388Z" fill="#fbe6da" stroke="#fbe6da" stroke-width="1.51"/><path d="M1006,582L1025,477L953,578Z" fill="#c3ddeb" stroke="#c3ddeb" stroke-width="1.51"/><path d="M675,651L743,751L776,644Z" fill="#c7dfeb" stroke="#c7dfeb" stroke-width="1.51"/><path d="M664,771L743,751L675,651Z" fill="#bed5e4" stroke="#bed5e4" stroke-width="1.51"/><path d="M743,751L851,750L776,644Z" fill="#b8d5e7" stroke="#b8d5e7" stroke-width="1.51"/><path d="M597,590L572,660L675,651Z" fill="#d8dde1" stroke="#d8dde1" stroke-width="1.51"/><path d="M515,587L572,660L597,590Z" fill="#dfdcdb" stroke="#dfdcdb" stroke-width="1.51"/><path d="M515,587L597,590L574,482Z" fill="#ebe3de" stroke="#ebe3de" stroke-width="1.51"/><path d="M680,332L610,314L686,388Z" fill="#fce6d9" stroke="#fce6d9" stroke-width="1.51"/><path d="M693,225L610,314L680,332Z" fill="#fbdbcb" stroke="#fbdbcb" stroke-width="1.51"/><path d="M693,225L680,332L766,315Z" fill="#fae0d3" stroke="#fae0d3" stroke-width="1.51"/><path d="M850,304L837,249L766,315Z" fill="#f1dbd1" stroke="#f1dbd1" stroke-width="1.51"/><path d="M927,213L837,249L850,304Z" fill="#ebd1c7" stroke="#ebd1c7" stroke-width="1.51"/><path d="M837,249L776,243L766,315Z" fill="#f3d8cc" stroke="#f3d8cc" stroke-width="1.51"/><path d="M1025,477L1042,399L952,422Z" fill="#d1e1ea" stroke="#d1e1ea" stroke-width="1.51"/><path d="M944,337L927,213L850,304Z" fill="#e7d5ce" stroke="#e7d5ce" stroke-width="1.51"/><path d="M1088,475L1042,399L1025,477Z" fill="#c8dfeb" stroke="#c8dfeb" stroke-width="1.51"/><path d="M500,484L515,587L574,482Z" fill="#f1e2d9" stroke="#f1e2d9" stroke-width="1.51"/><path d="M582,751L664,771L675,651Z" fill="#c1d0dc" stroke="#c1d0dc" stroke-width="1.51"/><path d="M743,751L742,823L851,750Z" fill="#a8c9e1" stroke="#a8c9e1" stroke-width="1.51"/><path d="M569,421L500,484L574,482Z" fill="#f9e8de" stroke="#f9e8de" stroke-width="1.51"/><path d="M490,414L500,484L569,421Z" fill="#fbe3d7" stroke="#fbe3d7" stroke-width="1.51"/><path d="M933,684L1037,662L1006,582Z" fill="#add2e5" stroke="#add2e5" stroke-width="1.51"/><path d="M1006,582L1088,475L1025,477Z" fill="#c1dcea" stroke="#c1dcea" stroke-width="1.51"/><path d="M1035,735L1037,662L933,684Z" fill="#9ecae2" stroke="#9ecae2" stroke-width="1.51"/><path d="M851,750L940,765L933,684Z" fill="#a4cbe2" stroke="#a4cbe2" stroke-width="1.51"/><path d="M916,824L940,765L851,750Z" fill="#98c1dd" stroke="#98c1dd" stroke-width="1.51"/><path d="M762,154L693,225L776,243Z" fill="#f7cdbb" stroke="#f7cdbb" stroke-width="1.51"/><path d="M776,243L693,225L766,315Z" fill="#f8d8ca" stroke="#f8d8ca" stroke-width="1.51"/><path d="M1127,579L1088,475L1006,582Z" fill="#b5d6e7" stroke="#b5d6e7" stroke-width="1.51"/><path d="M511,333L490,414L569,421Z" fill="#fcdece" stroke="#fcdece" stroke-width="1.51"/><path d="M511,333L569,421L610,314Z" fill="#fddfce" stroke="#fddfce" stroke-width="1.51"/><path d="M664,771L742,823L743,751Z" fill="#aecae0" stroke="#aecae0" stroke-width="1.51"/><path d="M664,771L688,860L742,823Z" fill="#a6c1da" stroke="#a6c1da" stroke-width="1.51"/><path d="M572,660L582,751L675,651Z" fill="#ccd6dc" stroke="#ccd6dc" stroke-width="1.51"/><path d="M522,756L582,751L572,660Z" fill="#c4cad1" stroke="#c4cad1" stroke-width="1.51"/><path d="M742,823L847,831L851,750Z" fill="#9dc2dd" stroke="#9dc2dd" stroke-width="1.51"/><path d="M1042,399L1043,307L944,337Z" fill="#d4d7d9" stroke="#d4d7d9" stroke-width="1.51"/><path d="M1124,327L1043,307L1042,399Z" fill="#cbd2d5" stroke="#cbd2d5" stroke-width="1.51"/><path d="M519,248L511,333L610,314Z" fill="#fdd4be" stroke="#fdd4be" stroke-width="1.51"/><path d="M1009,213L927,213L944,337Z" fill="#dec9c2" stroke="#dec9c2" stroke-width="1.51"/><path d="M837,249L762,154L776,243Z" fill="#f2ccbc" stroke="#f2ccbc" stroke-width="1.51"/><path d="M693,225L596,237L610,314Z" fill="#fbd2be" stroke="#fbd2be" stroke-width="1.51"/><path d="M1037,662L1127,579L1006,582Z" fill="#aad1e5" stroke="#aad1e5" stroke-width="1.51"/><path d="M940,765L1035,735L933,684Z" fill="#9ac6df" stroke="#9ac6df" stroke-width="1.51"/><path d="M1016,835L1035,735L940,765Z" fill="#87b9d8" stroke="#87b9d8" stroke-width="1.51"/><path d="M847,831L916,824L851,750Z" fill="#96bfdc" stroke="#96bfdc" stroke-width="1.51"/><path d="M515,587L495,684L572,660Z" fill="#d8d4d2" stroke="#d8d4d2" stroke-width="1.51"/><path d="M438,565L495,684L515,587Z" fill="#dfd1cb" stroke="#dfd1cb" stroke-width="1.51"/><path d="M438,565L515,587L500,484Z" fill="#edd8cf" stroke="#edd8cf" stroke-width="1.51"/><path d="M1088,475L1110,402L1042,399Z" fill="#c5d9e5" stroke="#c5d9e5" stroke-width="1.51"/><path d="M1187,497L1110,402L1088,475Z" fill="#b9d4e6" stroke="#b9d4e6" stroke-width="1.51"/><path d="M1108,680L1127,579L1037,662Z" fill="#9bc8e0" stroke="#9bc8e0" stroke-width="1.51"/><path d="M397,507L438,565L500,484Z" fill="#f1d4c8" stroke="#f1d4c8" stroke-width="1.51"/><path d="M430,405L500,484L490,414Z" fill="#fbdbcd" stroke="#fbdbcd" stroke-width="1.51"/><path d="M693,225L668,159L596,237Z" fill="#fac8b2" stroke="#fac8b2" stroke-width="1.51"/><path d="M861,137L762,154L837,249Z" fill="#eec1b3" stroke="#eec1b3" stroke-width="1.51"/><path d="M585,823L688,860L664,771Z" fill="#a8bdd2" stroke="#a8bdd2" stroke-width="1.51"/><path d="M495,684L522,756L572,660Z" fill="#caccce" stroke="#caccce" stroke-width="1.51"/><path d="M421,758L522,756L495,684Z" fill="#c3bdc0" stroke="#c3bdc0" stroke-width="1.51"/><path d="M742,823L759,928L847,831Z" fill="#99b7d7" stroke="#99b7d7" stroke-width="1.51"/><path d="M949,924L1016,835L916,824Z" fill="#7eabd2" stroke="#7eabd2" stroke-width="1.51"/><path d="M585,823L664,771L582,751Z" fill="#b3c2d1" stroke="#b3c2d1" stroke-width="1.51"/><path d="M1035,735L1108,680L1037,662Z" fill="#93c5de" stroke="#93c5de" stroke-width="1.51"/><path d="M762,154L668,159L693,225Z" fill="#f7c5b3" stroke="#f7c5b3" stroke-width="1.51"/><path d="M1043,307L1009,213L944,337Z" fill="#d8cdca" stroke="#d8cdca" stroke-width="1.51"/><path d="M927,213L861,137L837,249Z" fill="#eac4b6" stroke="#eac4b6" stroke-width="1.51"/><path d="M1122,244L1009,213L1043,307Z" fill="#cfc1be" stroke="#cfc1be" stroke-width="1.51"/><path d="M522,756L585,823L582,751Z" fill="#b6c0cc" stroke="#b6c0cc" stroke-width="1.51"/><path d="M511,333L430,405L490,414Z" fill="#fcd6c4" stroke="#fcd6c4" stroke-width="1.51"/><path d="M399,315L430,405L511,333Z" fill="#fbceb7" stroke="#fbceb7" stroke-width="1.51"/><path d="M519,248L610,314L596,237Z" fill="#fccfb9" stroke="#fccfb9" stroke-width="1.51"/><path d="M489,152L519,248L596,237Z" fill="#f9bfa3" stroke="#f9bfa3" stroke-width="1.51"/><path d="M952,162L861,137L927,213Z" fill="#e2b9ae" stroke="#e2b9ae" stroke-width="1.51"/><path d="M696,45L600,138L668,159Z" fill="#f1ae9c" stroke="#f1ae9c" stroke-width="1.51"/><path d="M1176,339L1124,327L1110,402Z" fill="#bec8d3" stroke="#bec8d3" stroke-width="1.51"/><path d="M1110,402L1124,327L1042,399Z" fill="#c5d1da" stroke="#c5d1da" stroke-width="1.51"/><path d="M1009,213L952,162L927,213Z" fill="#dcbcb2" stroke="#dcbcb2" stroke-width="1.51"/><path d="M430,405L397,507L500,484Z" fill="#f8d7c9" stroke="#f8d7c9" stroke-width="1.51"/><path d="M438,565L407,681L495,684Z" fill="#d8c7c1" stroke="#d8c7c1" stroke-width="1.51"/><path d="M1035,735L1127,767L1108,680Z" fill="#83bad8" stroke="#83bad8" stroke-width="1.51"/><path d="M916,824L1016,835L940,765Z" fill="#85b6d7" stroke="#85b6d7" stroke-width="1.51"/><path d="M949,924L916,824L847,831Z" fill="#8ab1d5" stroke="#8ab1d5" stroke-width="1.51"/><path d="M1127,579L1187,497L1088,475Z" fill="#aecfe3" stroke="#aecfe3" stroke-width="1.51"/><path d="M1192,579L1187,497L1127,579Z" fill="#a1c7e0" stroke="#a1c7e0" stroke-width="1.51"/><path d="M1179,652L1192,579L1127,579Z" fill="#96c2dd" stroke="#96c2dd" stroke-width="1.51"/><path d="M1179,652L1127,579L1108,680Z" fill="#92c1dd" stroke="#92c1dd" stroke-width="1.51"/><path d="M339,560L407,681L438,565Z" fill="#e2c4ba" stroke="#e2c4ba" stroke-width="1.51"/><path d="M522,756L490,854L585,823Z" fill="#aeb5c3" stroke="#aeb5c3" stroke-width="1.51"/><path d="M1204,739L1179,652L1108,680Z" fill="#7fb6d7" stroke="#7fb6d7" stroke-width="1.51"/><path d="M696,45L668,159L762,154Z" fill="#f2b4a5" stroke="#f2b4a5" stroke-width="1.51"/><path d="M668,159L600,138L596,237Z" fill="#f7bda6" stroke="#f7bda6" stroke-width="1.51"/><path d="M688,860L759,928L742,823Z" fill="#9eb7d8" stroke="#9eb7d8" stroke-width="1.51"/><path d="M673,918L759,928L688,860Z" fill="#9db1d3" stroke="#9db1d3" stroke-width="1.51"/><path d="M585,908L688,860L585,823Z" fill="#a4b2cb" stroke="#a4b2cb" stroke-width="1.51"/><path d="M585,908L673,918L688,860Z" fill="#a0adcc" stroke="#a0adcc" stroke-width="1.51"/><path d="M1209,413L1176,339L1110,402Z" fill="#b7c8d6" stroke="#b7c8d6" stroke-width="1.51"/><path d="M1124,327L1122,244L1043,307Z" fill="#c7c4c6" stroke="#c7c4c6" stroke-width="1.51"/><path d="M1009,213L1020,134L952,162Z" fill="#d5b2aa" stroke="#d5b2aa" stroke-width="1.51"/><path d="M1109,835L1127,767L1035,735Z" fill="#73afd3" stroke="#73afd3" stroke-width="1.51"/><path d="M759,928L828,935L847,831Z" fill="#92aed3" stroke="#92aed3" stroke-width="1.51"/><path d="M1176,339L1122,244L1124,327Z" fill="#bfbfc5" stroke="#bfbfc5" stroke-width="1.51"/><path d="M1262,393L1209,413L1291,474Z" fill="#a6bfd8" stroke="#a6bfd8" stroke-width="1.51"/><path d="M1187,497L1209,413L1110,402Z" fill="#b3cde0" stroke="#b3cde0" stroke-width="1.51"/><path d="M416,234L511,333L519,248Z" fill="#fbc4a9" stroke="#fbc4a9" stroke-width="1.51"/><path d="M416,234L399,315L511,333Z" fill="#fac2a8" stroke="#fac2a8" stroke-width="1.51"/><path d="M430,405L334,476L397,507Z" fill="#f8cfbd" stroke="#f8cfbd" stroke-width="1.51"/><path d="M407,681L421,758L495,684Z" fill="#c9bdbb" stroke="#c9bdbb" stroke-width="1.51"/><path d="M952,162L947,81L861,137Z" fill="#ddaca3" stroke="#ddaca3" stroke-width="1.51"/><path d="M861,137L832,54L762,154Z" fill="#e8afa3" stroke="#e8afa3" stroke-width="1.51"/><path d="M1089,140L1020,134L1009,213Z" fill="#ceaca6" stroke="#ceaca6" stroke-width="1.51"/><path d="M828,935L949,924L847,831Z" fill="#8aabd2" stroke="#8aabd2" stroke-width="1.51"/><path d="M1016,835L1109,835L1035,735Z" fill="#74afd3" stroke="#74afd3" stroke-width="1.51"/><path d="M490,854L585,908L585,823Z" fill="#a7adc2" stroke="#a7adc2" stroke-width="1.51"/><path d="M742,1025L828,935L759,928Z" fill="#8da1c7" stroke="#8da1c7" stroke-width="1.51"/><path d="M397,507L339,560L438,565Z" fill="#eccabd" stroke="#eccabd" stroke-width="1.51"/><path d="M320,771L412,824L421,758Z" fill="#b6a4a8" stroke="#b6a4a8" stroke-width="1.51"/><path d="M334,476L339,560L397,507Z" fill="#efc6b6" stroke="#efc6b6" stroke-width="1.51"/><path d="M421,758L490,854L522,756Z" fill="#b4b1ba" stroke="#b4b1ba" stroke-width="1.51"/><path d="M326,409L334,476L430,405Z" fill="#f9c9b5" stroke="#f9c9b5" stroke-width="1.51"/><path d="M1097,918L1109,835L1016,835Z" fill="#67a1cc" stroke="#67a1cc" stroke-width="1.51"/><path d="M1127,767L1204,739L1108,680Z" fill="#76b1d3" stroke="#76b1d3" stroke-width="1.51"/><path d="M1020,134L947,81L952,162Z" fill="#d5a8a1" stroke="#d5a8a1" stroke-width="1.51"/><path d="M947,81L832,54L861,137Z" fill="#e0a59c" stroke="#e0a59c" stroke-width="1.51"/><path d="M949,924L1009,914L1016,835Z" fill="#75a3cd" stroke="#75a3cd" stroke-width="1.51"/><path d="M342,338L326,409L430,405Z" fill="#f9c5ad" stroke="#f9c5ad" stroke-width="1.51"/><path d="M489,152L416,234L519,248Z" fill="#f7b597" stroke="#f7b597" stroke-width="1.51"/><path d="M600,138L489,152L596,237Z" fill="#f7b89e" stroke="#f7b89e" stroke-width="1.51"/><path d="M511,81L489,152L600,138Z" fill="#f1a68e" stroke="#f1a68e" stroke-width="1.51"/><path d="M832,54L773,41L762,154Z" fill="#e8a89c" stroke="#e8a89c" stroke-width="1.51"/><path d="M247,564L323,686L339,560Z" fill="#ddb3aa" stroke="#ddb3aa" stroke-width="1.51"/><path d="M342,338L430,405L399,315Z" fill="#fac5ac" stroke="#fac5ac" stroke-width="1.51"/><path d="M773,41L696,45L762,154Z" fill="#ebaa9d" stroke="#ebaa9d" stroke-width="1.51"/><path d="M1197,846L1204,739L1127,767Z" fill="#5ea2cb" stroke="#5ea2cb" stroke-width="1.51"/><path d="M1179,652L1266,587L1192,579Z" fill="#8cbad9" stroke="#8cbad9" stroke-width="1.51"/><path d="M1192,579L1266,587L1187,497Z" fill="#98c0dc" stroke="#98c0dc" stroke-width="1.51"/><path d="M339,214L342,338L399,315Z" fill="#f7b496" stroke="#f7b496" stroke-width="1.51"/><path d="M1122,244L1089,140L1009,213Z" fill="#cbb2ad" stroke="#cbb2ad" stroke-width="1.51"/><path d="M1020,134L1005,74L947,81Z" fill="#d09e99" stroke="#d09e99" stroke-width="1.51"/><path d="M1182,163L1089,140L1122,244Z" fill="#c0a6a5" stroke="#c0a6a5" stroke-width="1.51"/><path d="M1181,225L1122,244L1176,339Z" fill="#bcb5ba" stroke="#bcb5ba" stroke-width="1.51"/><path d="M1268,666L1266,587L1179,652Z" fill="#7eb3d5" stroke="#7eb3d5" stroke-width="1.51"/><path d="M1262,393L1176,339L1209,413Z" fill="#aebfd2" stroke="#aebfd2" stroke-width="1.51"/><path d="M1288,335L1181,225L1176,339Z" fill="#b2b4bf" stroke="#b2b4bf" stroke-width="1.51"/><path d="M947,81L858,-9L832,54Z" fill="#da9a94" stroke="#da9a94" stroke-width="1.51"/><path d="M832,54L858,-9L773,41Z" fill="#de9a93" stroke="#de9a93" stroke-width="1.51"/><path d="M1089,140L1005,74L1020,134Z" fill="#cb9f9b" stroke="#cb9f9b" stroke-width="1.51"/><path d="M421,758L412,824L490,854Z" fill="#afa7b0" stroke="#afa7b0" stroke-width="1.51"/><path d="M490,854L513,945L585,908Z" fill="#a4a1ba" stroke="#a4a1ba" stroke-width="1.51"/><path d="M323,686L421,758L407,681Z" fill="#c9b4b0" stroke="#c9b4b0" stroke-width="1.51"/><path d="M1291,474L1209,413L1187,497Z" fill="#a5c4dd" stroke="#a5c4dd" stroke-width="1.51"/><path d="M247,564L339,560L334,476Z" fill="#eabbae" stroke="#eabbae" stroke-width="1.51"/><path d="M339,560L323,686L407,681Z" fill="#d7b9b0" stroke="#d7b9b0" stroke-width="1.51"/><path d="M489,152L428,165L416,234Z" fill="#f4a98a" stroke="#f4a98a" stroke-width="1.51"/><path d="M416,234L339,214L399,315Z" fill="#f7b191" stroke="#f7b191" stroke-width="1.51"/><path d="M400,53L428,165L489,152Z" fill="#ee977b" stroke="#ee977b" stroke-width="1.51"/><path d="M696,45L572,57L600,138Z" fill="#eda391" stroke="#eda391" stroke-width="1.51"/><path d="M1266,587L1291,474L1187,497Z" fill="#98bddb" stroke="#98bddb" stroke-width="1.51"/><path d="M1266,587L1349,588L1291,474Z" fill="#90b3d6" stroke="#90b3d6" stroke-width="1.51"/><path d="M1204,739L1268,666L1179,652Z" fill="#74b0d3" stroke="#74b0d3" stroke-width="1.51"/><path d="M828,935L845,1015L949,924Z" fill="#829ec6" stroke="#829ec6" stroke-width="1.51"/><path d="M949,924L1041,1004L1009,914Z" fill="#6d96c4" stroke="#6d96c4" stroke-width="1.51"/><path d="M742,1025L845,1015L828,935Z" fill="#8598bd" stroke="#8598bd" stroke-width="1.51"/><path d="M742,1025L759,928L673,918Z" fill="#94a5ca" stroke="#94a5ca" stroke-width="1.51"/><path d="M572,57L511,81L600,138Z" fill="#eea18b" stroke="#eea18b" stroke-width="1.51"/><path d="M1204,739L1262,772L1268,666Z" fill="#62a4cc" stroke="#62a4cc" stroke-width="1.51"/><path d="M1109,835L1197,846L1127,767Z" fill="#5ba0ca" stroke="#5ba0ca" stroke-width="1.51"/><path d="M1009,914L1097,918L1016,835Z" fill="#6c9fcb" stroke="#6c9fcb" stroke-width="1.51"/><path d="M1041,1004L1097,918L1009,914Z" fill="#6393c2" stroke="#6393c2" stroke-width="1.51"/><path d="M670,1023L742,1025L673,918Z" fill="#909bbc" stroke="#909bbc" stroke-width="1.51"/><path d="M427,914L513,945L490,854Z" fill="#a59aaf" stroke="#a59aaf" stroke-width="1.51"/><path d="M670,1023L673,918L585,908Z" fill="#99a1c2" stroke="#99a1c2" stroke-width="1.51"/><path d="M753,-35L679,-15L696,45Z" fill="#e4978e" stroke="#e4978e" stroke-width="1.51"/><path d="M696,45L583,-5L572,57Z" fill="#e79788" stroke="#e79788" stroke-width="1.51"/><path d="M941,-47L858,-9L947,81Z" fill="#d2908d" stroke="#d2908d" stroke-width="1.51"/><path d="M572,1027L670,1023L585,908Z" fill="#9595b2" stroke="#9595b2" stroke-width="1.51"/><path d="M1089,140L1123,72L1005,74Z" fill="#c39795" stroke="#c39795" stroke-width="1.51"/><path d="M1005,74L941,-47L947,81Z" fill="#ce9290" stroke="#ce9290" stroke-width="1.51"/><path d="M1181,225L1182,163L1122,244Z" fill="#bca8a9" stroke="#bca8a9" stroke-width="1.51"/><path d="M1266,130L1182,163L1181,225Z" fill="#b2979d" stroke="#b2979d" stroke-width="1.51"/><path d="M1288,335L1176,339L1262,393Z" fill="#abb9cb" stroke="#abb9cb" stroke-width="1.51"/><path d="M1097,918L1197,846L1109,835Z" fill="#5898c6" stroke="#5898c6" stroke-width="1.51"/><path d="M1358,403L1288,335L1262,393Z" fill="#a5b2cb" stroke="#a5b2cb" stroke-width="1.51"/><path d="M412,824L427,914L490,854Z" fill="#a99cac" stroke="#a99cac" stroke-width="1.51"/><path d="M323,686L320,771L421,758Z" fill="#c1a8a8" stroke="#c1a8a8" stroke-width="1.51"/><path d="M233,741L320,771L323,686Z" fill="#bf9e9e" stroke="#bf9e9e" stroke-width="1.51"/><path d="M326,409L261,410L334,476Z" fill="#f5bfad" stroke="#f5bfad" stroke-width="1.51"/><path d="M342,338L261,410L326,409Z" fill="#f5baa4" stroke="#f5baa4" stroke-width="1.51"/><path d="M240,310L261,410L342,338Z" fill="#f4b099" stroke="#f4b099" stroke-width="1.51"/><path d="M753,-35L696,45L773,41Z" fill="#e49b92" stroke="#e49b92" stroke-width="1.51"/><path d="M572,57L486,-39L511,81Z" fill="#e58e7a" stroke="#e58e7a" stroke-width="1.51"/><path d="M428,165L339,214L416,234Z" fill="#f5a785" stroke="#f5a785" stroke-width="1.51"/><path d="M345,128L339,214L428,165Z" fill="#ef9a78" stroke="#ef9a78" stroke-width="1.51"/><path d="M513,945L572,1027L585,908Z" fill="#9b98b3" stroke="#9b98b3" stroke-width="1.51"/><path d="M333,846L427,914L412,824Z" fill="#aa95a2" stroke="#aa95a2" stroke-width="1.51"/><path d="M845,1015L931,1032L949,924Z" fill="#7993ba" stroke="#7993ba" stroke-width="1.51"/><path d="M742,1025L931,1032L845,1015Z" fill="#7c8fb1" stroke="#7c8fb1" stroke-width="1.51"/><path d="M492,1033L931,1032L742,1025Z" fill="#8893b2" stroke="#8893b2" stroke-width="1.51"/><path d="M1197,846L1262,772L1204,739Z" fill="#539bc8" stroke="#539bc8" stroke-width="1.51"/><path d="M1268,666L1349,588L1266,587Z" fill="#81aed3" stroke="#81aed3" stroke-width="1.51"/><path d="M233,497L247,564L334,476Z" fill="#ebb5a8" stroke="#ebb5a8" stroke-width="1.51"/><path d="M858,-9L753,-35L773,41Z" fill="#dd948e" stroke="#dd948e" stroke-width="1.51"/><path d="M1182,163L1123,72L1089,140Z" fill="#bc9698" stroke="#bc9698" stroke-width="1.51"/><path d="M261,410L233,497L334,476Z" fill="#f2baaa" stroke="#f2baaa" stroke-width="1.51"/><path d="M931,1032L1041,1004L949,924Z" fill="#6d8fb8" stroke="#6d8fb8" stroke-width="1.51"/><path d="M1186,937L1260,841L1197,846Z" fill="#438bbf" stroke="#438bbf" stroke-width="1.51"/><path d="M679,-15L583,-5L696,45Z" fill="#e59588" stroke="#e59588" stroke-width="1.51"/><path d="M400,53L345,128L428,165Z" fill="#ea8e70" stroke="#ea8e70" stroke-width="1.51"/><path d="M611,-108L583,-5L679,-15Z" fill="#dc877d" stroke="#dc877d" stroke-width="1.51"/><path d="M670,1023L572,1027L742,1025Z" fill="#8c8fac" stroke="#8c8fac" stroke-width="1.51"/><path d="M492,1033L572,1027L513,945Z" fill="#9489a0" stroke="#9489a0" stroke-width="1.51"/><path d="M320,771L333,846L412,824Z" fill="#ae99a0" stroke="#ae99a0" stroke-width="1.51"/><path d="M437,1008L492,1033L513,945Z" fill="#96859a" stroke="#96859a" stroke-width="1.51"/><path d="M261,826L333,846L320,771Z" fill="#ac8f98" stroke="#ac8f98" stroke-width="1.51"/><path d="M1386,651L1349,588L1268,666Z" fill="#78a6ce" stroke="#78a6ce" stroke-width="1.51"/><path d="M1291,474L1358,403L1262,393Z" fill="#a2b8d3" stroke="#a2b8d3" stroke-width="1.51"/><path d="M1349,588L1360,471L1291,474Z" fill="#94b2d5" stroke="#94b2d5" stroke-width="1.51"/><path d="M1370,745L1386,651L1268,666Z" fill="#689eca" stroke="#689eca" stroke-width="1.51"/><path d="M1197,846L1260,841L1262,772Z" fill="#4291c3" stroke="#4291c3" stroke-width="1.51"/><path d="M1186,937L1197,846L1097,918Z" fill="#4e8dc1" stroke="#4e8dc1" stroke-width="1.51"/><path d="M1288,335L1297,240L1181,225Z" fill="#ada6b3" stroke="#ada6b3" stroke-width="1.51"/><path d="M1182,163L1208,82L1123,72Z" fill="#b48b91" stroke="#b48b91" stroke-width="1.51"/><path d="M1382,317L1297,240L1288,335Z" fill="#a8a4b8" stroke="#a8a4b8" stroke-width="1.51"/><path d="M1039,-38L941,-47L1005,74Z" fill="#c48787" stroke="#c48787" stroke-width="1.51"/><path d="M858,-9L779,-101L753,-35Z" fill="#d48b88" stroke="#d48b88" stroke-width="1.51"/><path d="M1360,471L1358,403L1291,474Z" fill="#9eb6d7" stroke="#9eb6d7" stroke-width="1.51"/><path d="M339,214L240,310L342,338Z" fill="#f3aa8d" stroke="#f3aa8d" stroke-width="1.51"/><path d="M261,410L164,421L233,497Z" fill="#f0aea0" stroke="#f0aea0" stroke-width="1.51"/><path d="M177,599L231,686L247,564Z" fill="#d5a29b" stroke="#d5a29b" stroke-width="1.51"/><path d="M247,564L231,686L323,686Z" fill="#d2a7a1" stroke="#d2a7a1" stroke-width="1.51"/><path d="M1109,1013L1186,937L1097,918Z" fill="#4f86b9" stroke="#4f86b9" stroke-width="1.51"/><path d="M339,214L233,252L240,310Z" fill="#ef9c7f" stroke="#ef9c7f" stroke-width="1.51"/><path d="M400,53L489,152L511,81Z" fill="#eb947a" stroke="#eb947a" stroke-width="1.51"/><path d="M1041,1004L1109,1013L1097,918Z" fill="#5886b5" stroke="#5886b5" stroke-width="1.51"/><path d="M931,1032L1109,1013L1041,1004Z" fill="#5e82ac" stroke="#5e82ac" stroke-width="1.51"/><path d="M437,1008L513,945L427,914Z" fill="#9e8ba2" stroke="#9e8ba2" stroke-width="1.51"/><path d="M572,1027L492,1033L742,1025Z" fill="#8d8aa3" stroke="#8d8aa3" stroke-width="1.51"/><path d="M486,-39L400,53L511,81Z" fill="#e3846f" stroke="#e3846f" stroke-width="1.51"/><path d="M352,937L437,1008L427,914Z" fill="#9e8499" stroke="#9e8499" stroke-width="1.51"/><path d="M231,686L233,741L323,686Z" fill="#c49e9c" stroke="#c49e9c" stroke-width="1.51"/><path d="M1108,-4L1039,-38L1005,74Z" fill="#be8687" stroke="#be8687" stroke-width="1.51"/><path d="M1266,130L1208,82L1182,163Z" fill="#ad8a91" stroke="#ad8a91" stroke-width="1.51"/><path d="M1108,-4L1005,74L1123,72Z" fill="#bd8a8c" stroke="#bd8a8c" stroke-width="1.51"/><path d="M1204,-27L1108,-4L1123,72Z" fill="#ae7a82" stroke="#ae7a82" stroke-width="1.51"/><path d="M352,937L427,914L333,846Z" fill="#a58b9c" stroke="#a58b9c" stroke-width="1.51"/><path d="M244,927L352,937L333,846Z" fill="#a27f91" stroke="#a27f91" stroke-width="1.51"/><path d="M258,128L233,252L339,214Z" fill="#eb8f70" stroke="#eb8f70" stroke-width="1.51"/><path d="M143,485L177,599L233,497Z" fill="#e3a49a" stroke="#e3a49a" stroke-width="1.51"/><path d="M233,497L177,599L247,564Z" fill="#e2a99f" stroke="#e2a99f" stroke-width="1.51"/><path d="M258,128L339,214L345,128Z" fill="#e98b6d" stroke="#e98b6d" stroke-width="1.51"/><path d="M1208,82L1204,-27L1123,72Z" fill="#ac7b84" stroke="#ac7b84" stroke-width="1.51"/><path d="M1297,240L1266,130L1181,225Z" fill="#ae99a1" stroke="#ae99a1" stroke-width="1.51"/><path d="M1351,165L1266,130L1297,240Z" fill="#a88b99" stroke="#a88b99" stroke-width="1.51"/><path d="M753,-35L673,-120L679,-15Z" fill="#d78c86" stroke="#d78c86" stroke-width="1.51"/><path d="M583,-5L486,-39L572,57Z" fill="#e38b7a" stroke="#e38b7a" stroke-width="1.51"/><path d="M838,-107L779,-101L858,-9Z" fill="#c88686" stroke="#c88686" stroke-width="1.51"/><path d="M838,-107L858,-9L920,-112Z" fill="#c38385" stroke="#c38385" stroke-width="1.51"/><path d="M233,741L261,826L320,771Z" fill="#b39196" stroke="#b39196" stroke-width="1.51"/><path d="M1451,474L1446,423L1360,471Z" fill="#96a9d0" stroke="#96a9d0" stroke-width="1.51"/><path d="M1446,423L1382,317L1358,403Z" fill="#9ea6c5" stroke="#9ea6c5" stroke-width="1.51"/><path d="M1370,745L1268,666L1262,772Z" fill="#5e9cc9" stroke="#5e9cc9" stroke-width="1.51"/><path d="M164,421L261,410L240,310Z" fill="#f0a895" stroke="#f0a895" stroke-width="1.51"/><path d="M231,686L146,747L233,741Z" fill="#bc8f91" stroke="#bc8f91" stroke-width="1.51"/><path d="M233,741L158,843L261,826Z" fill="#aa828b" stroke="#aa828b" stroke-width="1.51"/><path d="M920,-112L858,-9L941,-47Z" fill="#c68485" stroke="#c68485" stroke-width="1.51"/><path d="M1358,403L1382,317L1288,335Z" fill="#a4aac3" stroke="#a4aac3" stroke-width="1.51"/><path d="M1446,423L1358,403L1360,471Z" fill="#9badd0" stroke="#9badd0" stroke-width="1.51"/><path d="M1366,821L1370,745L1262,772Z" fill="#498dc0" stroke="#498dc0" stroke-width="1.51"/><path d="M1186,937L1289,930L1260,841Z" fill="#3881ba" stroke="#3881ba" stroke-width="1.51"/><path d="M1109,1013L1191,990L1186,937Z" fill="#447cae" stroke="#447cae" stroke-width="1.51"/><path d="M515,-94L486,-39L583,-5Z" fill="#d97e70" stroke="#d97e70" stroke-width="1.51"/><path d="M1366,821L1262,772L1260,841Z" fill="#3f8cbf" stroke="#3f8cbf" stroke-width="1.51"/><path d="M147,328L164,421L240,310Z" fill="#ec9e8a" stroke="#ec9e8a" stroke-width="1.51"/><path d="M1009,-92L941,-47L1039,-38Z" fill="#b87d81" stroke="#b87d81" stroke-width="1.51"/><path d="M1009,-92L920,-112L941,-47Z" fill="#b47c81" stroke="#b47c81" stroke-width="1.51"/><path d="M920,-112L673,-120L838,-107Z" fill="#bb8183" stroke="#bb8183" stroke-width="1.51"/><path d="M838,-107L673,-120L779,-101Z" fill="#c18384" stroke="#c18384" stroke-width="1.51"/><path d="M779,-101L673,-120L753,-35Z" fill="#cc8886" stroke="#cc8886" stroke-width="1.51"/><path d="M1094,-98L1009,-92L1039,-38Z" fill="#aa767d" stroke="#aa767d" stroke-width="1.51"/><path d="M1094,-98L1039,-38L1108,-4Z" fill="#b0777e" stroke="#b0777e" stroke-width="1.51"/><path d="M177,599L163,665L231,686Z" fill="#cc9995" stroke="#cc9995" stroke-width="1.51"/><path d="M79,559L163,665L177,599Z" fill="#d19592" stroke="#d19592" stroke-width="1.51"/><path d="M673,-120L611,-108L679,-15Z" fill="#cf847f" stroke="#cf847f" stroke-width="1.51"/><path d="M412,-29L346,41L400,53Z" fill="#de765f" stroke="#de765f" stroke-width="1.51"/><path d="M400,53L346,41L345,128Z" fill="#e37e63" stroke="#e37e63" stroke-width="1.51"/><path d="M164,421L143,485L233,497Z" fill="#eba79c" stroke="#eba79c" stroke-width="1.51"/><path d="M1266,130L1264,71L1208,82Z" fill="#a77e88" stroke="#a77e88" stroke-width="1.51"/><path d="M1352,67L1264,71L1266,130Z" fill="#a37585" stroke="#a37585" stroke-width="1.51"/><path d="M176,236L147,328L240,310Z" fill="#ea937c" stroke="#ea937c" stroke-width="1.51"/><path d="M76,398L70,476L143,485Z" fill="#e59b92" stroke="#e59b92" stroke-width="1.51"/><path d="M346,41L258,128L345,128Z" fill="#e27b61" stroke="#e27b61" stroke-width="1.51"/><path d="M1191,990L1289,930L1186,937Z" fill="#377ab3" stroke="#377ab3" stroke-width="1.51"/><path d="M352,937L347,996L437,1008Z" fill="#98798b" stroke="#98798b" stroke-width="1.51"/><path d="M437,1008L347,996L492,1033Z" fill="#93788a" stroke="#93788a" stroke-width="1.51"/><path d="M244,927L347,996L352,937Z" fill="#9b7489" stroke="#9b7489" stroke-width="1.51"/><path d="M244,927L333,846L261,826Z" fill="#a5818f" stroke="#a5818f" stroke-width="1.51"/><path d="M1370,745L1449,647L1386,651Z" fill="#6696c7" stroke="#6696c7" stroke-width="1.51"/><path d="M1289,930L1366,821L1260,841Z" fill="#3880b9" stroke="#3880b9" stroke-width="1.51"/><path d="M346,41L242,42L258,128Z" fill="#db6d56" stroke="#db6d56" stroke-width="1.51"/><path d="M486,-39L412,-29L400,53Z" fill="#dc7764" stroke="#dc7764" stroke-width="1.51"/><path d="M428,-97L412,-29L486,-39Z" fill="#d16f60" stroke="#d16f60" stroke-width="1.51"/><path d="M1380,217L1351,165L1297,240Z" fill="#a78e9d" stroke="#a78e9d" stroke-width="1.51"/><path d="M1382,317L1380,217L1297,240Z" fill="#a697aa" stroke="#a697aa" stroke-width="1.51"/><path d="M428,-97L515,-94L611,-108Z" fill="#c5756b" stroke="#c5756b" stroke-width="1.51"/><path d="M611,-108L515,-94L583,-5Z" fill="#d27f75" stroke="#d27f75" stroke-width="1.51"/><path d="M1382,317L1448,228L1380,217Z" fill="#a28fa6" stroke="#a28fa6" stroke-width="1.51"/><path d="M1451,474L1360,471L1349,588Z" fill="#90aad1" stroke="#90aad1" stroke-width="1.51"/><path d="M1451,474L1349,588L1458,601Z" fill="#86a2cd" stroke="#86a2cd" stroke-width="1.51"/><path d="M1458,601L1349,588L1386,651Z" fill="#7a9fcc" stroke="#7a9fcc" stroke-width="1.51"/><path d="M176,236L240,310L233,252Z" fill="#eb9379" stroke="#eb9379" stroke-width="1.51"/><path d="M164,168L176,236L233,252Z" fill="#e68469" stroke="#e68469" stroke-width="1.51"/><path d="M1467,770L1449,647L1370,745Z" fill="#568bbe" stroke="#568bbe" stroke-width="1.51"/><path d="M1449,647L1458,601L1386,651Z" fill="#7197c5" stroke="#7197c5" stroke-width="1.51"/><path d="M1290,-19L1204,-27L1264,71Z" fill="#9d6a79" stroke="#9d6a79" stroke-width="1.51"/><path d="M1264,71L1204,-27L1208,82Z" fill="#a47581" stroke="#a47581" stroke-width="1.51"/><path d="M1009,-92L1094,-98L920,-112Z" fill="#a7767e" stroke="#a7767e" stroke-width="1.51"/><path d="M1204,-27L1094,-98L1108,-4Z" fill="#a76f7a" stroke="#a76f7a" stroke-width="1.51"/><path d="M163,665L146,747L231,686Z" fill="#c19190" stroke="#c19190" stroke-width="1.51"/><path d="M55,681L146,747L163,665Z" fill="#bd888a" stroke="#bd888a" stroke-width="1.51"/><path d="M158,843L244,927L261,826Z" fill="#a27686" stroke="#a27686" stroke-width="1.51"/><path d="M1446,423L1459,318L1382,317Z" fill="#9c9dbb" stroke="#9c9dbb" stroke-width="1.51"/><path d="M1466,147L1352,67L1351,165Z" fill="#9d7288" stroke="#9d7288" stroke-width="1.51"/><path d="M1557,397L1459,318L1446,423Z" fill="#9496b3" stroke="#9496b3" stroke-width="1.51"/><path d="M1531,493L1446,423L1451,474Z" fill="#8f9fc2" stroke="#8f9fc2" stroke-width="1.51"/><path d="M428,-97L333,-26L412,-29Z" fill="#d06756" stroke="#d06756" stroke-width="1.51"/><path d="M412,-29L333,-26L346,41Z" fill="#d86c57" stroke="#d86c57" stroke-width="1.51"/><path d="M258,128L164,168L233,252Z" fill="#e47f64" stroke="#e47f64" stroke-width="1.51"/><path d="M515,-94L428,-97L486,-39Z" fill="#cc7164" stroke="#cc7164" stroke-width="1.51"/><path d="M673,-120L428,-97L611,-108Z" fill="#c47a72" stroke="#c47a72" stroke-width="1.51"/><path d="M143,485L79,559L177,599Z" fill="#db9a94" stroke="#db9a94" stroke-width="1.51"/><path d="M70,476L79,559L143,485Z" fill="#de9891" stroke="#de9891" stroke-width="1.51"/><path d="M169,40L164,168L258,128Z" fill="#d96752" stroke="#d96752" stroke-width="1.51"/><path d="M78,220L55,321L147,328Z" fill="#e18471" stroke="#e18471" stroke-width="1.51"/><path d="M76,398L143,485L164,421Z" fill="#e89e93" stroke="#e89e93" stroke-width="1.51"/><path d="M146,747L158,843L233,741Z" fill="#ae8188" stroke="#ae8188" stroke-width="1.51"/><path d="M68,768L158,843L146,747Z" fill="#a77681" stroke="#a77681" stroke-width="1.51"/><path d="M76,398L164,421L147,328Z" fill="#e89889" stroke="#e89889" stroke-width="1.51"/><path d="M1204,-27L1204,-92L1094,-98Z" fill="#986776" stroke="#986776" stroke-width="1.51"/><path d="M1351,165L1352,67L1266,130Z" fill="#a37a8a" stroke="#a37a8a" stroke-width="1.51"/><path d="M1466,147L1351,165L1380,217Z" fill="#a17e93" stroke="#a17e93" stroke-width="1.51"/><path d="M169,40L242,42L174,-47Z" fill="#cb4c41" stroke="#cb4c41" stroke-width="1.51"/><path d="M333,-26L242,42L346,41Z" fill="#d66652" stroke="#d66652" stroke-width="1.51"/><path d="M1459,318L1448,228L1382,317Z" fill="#9f92ab" stroke="#9f92ab" stroke-width="1.51"/><path d="M55,321L76,398L147,328Z" fill="#e48f7f" stroke="#e48f7f" stroke-width="1.51"/><path d="M1289,930L1387,942L1366,821Z" fill="#2f74b4" stroke="#2f74b4" stroke-width="1.51"/><path d="M1366,821L1467,770L1370,745Z" fill="#4484bc" stroke="#4484bc" stroke-width="1.51"/><path d="M1191,990L1295,1026L1289,930Z" fill="#2d6ea6" stroke="#2d6ea6" stroke-width="1.51"/><path d="M1109,1013L1295,1026L1191,990Z" fill="#376fa2" stroke="#376fa2" stroke-width="1.51"/><path d="M931,1032L1295,1026L1109,1013Z" fill="#4b77a4" stroke="#4b77a4" stroke-width="1.51"/><path d="M1458,601L1531,493L1451,474Z" fill="#849abf" stroke="#849abf" stroke-width="1.51"/><path d="M1541,589L1531,493L1458,601Z" fill="#7b92b8" stroke="#7b92b8" stroke-width="1.51"/><path d="M1458,826L1467,770L1366,821Z" fill="#367ab4" stroke="#367ab4" stroke-width="1.51"/><path d="M1352,67L1290,-19L1264,71Z" fill="#9c6a7c" stroke="#9c6a7c" stroke-width="1.51"/><path d="M1094,-98L1262,-111L920,-112Z" fill="#986d79" stroke="#986d79" stroke-width="1.51"/><path d="M1262,-111L1204,-92L1204,-27Z" fill="#8d5f72" stroke="#8d5f72" stroke-width="1.51"/><path d="M1379,993L1387,942L1289,930Z" fill="#2668a9" stroke="#2668a9" stroke-width="1.51"/><path d="M1464,904L1458,826L1366,821Z" fill="#2d72b0" stroke="#2d72b0" stroke-width="1.51"/><path d="M1458,601L1449,647L1542,657Z" fill="#6b8eb8" stroke="#6b8eb8" stroke-width="1.51"/><path d="M1541,589L1458,601L1542,657Z" fill="#6d8bb3" stroke="#6d8bb3" stroke-width="1.51"/><path d="M1522,154L1466,147L1448,228Z" fill="#977083" stroke="#977083" stroke-width="1.51"/><path d="M165,935L226,1001L244,927Z" fill="#956179" stroke="#956179" stroke-width="1.51"/><path d="M244,927L226,1001L347,996Z" fill="#95687c" stroke="#95687c" stroke-width="1.51"/><path d="M347,996L226,1001L492,1033Z" fill="#926e7e" stroke="#926e7e" stroke-width="1.51"/><path d="M79,559L55,681L163,665Z" fill="#c88c8b" stroke="#c88c8b" stroke-width="1.51"/><path d="M158,843L165,935L244,927Z" fill="#9b697e" stroke="#9b697e" stroke-width="1.51"/><path d="M-6,656L55,681L79,559Z" fill="#c48485" stroke="#c48485" stroke-width="1.51"/><path d="M82,915L165,935L158,843Z" fill="#986278" stroke="#986278" stroke-width="1.51"/><path d="M70,476L-12,505L79,559Z" fill="#d98f8a" stroke="#d98f8a" stroke-width="1.51"/><path d="M-17,388L-12,505L70,476Z" fill="#db8e8a" stroke="#db8e8a" stroke-width="1.51"/><path d="M78,220L147,328L176,236Z" fill="#e3846e" stroke="#e3846e" stroke-width="1.51"/><path d="M78,220L176,236L164,168Z" fill="#e07960" stroke="#e07960" stroke-width="1.51"/><path d="M1542,657L1449,647L1530,742Z" fill="#5b84af" stroke="#5b84af" stroke-width="1.51"/><path d="M1387,942L1464,904L1366,821Z" fill="#296eb1" stroke="#296eb1" stroke-width="1.51"/><path d="M1295,1026L1379,993L1289,930Z" fill="#2766a2" stroke="#2766a2" stroke-width="1.51"/><path d="M55,681L68,768L146,747Z" fill="#b17c83" stroke="#b17c83" stroke-width="1.51"/><path d="M65,136L78,220L164,168Z" fill="#d86955" stroke="#d86955" stroke-width="1.51"/><path d="M1530,742L1449,647L1467,770Z" fill="#5282b2" stroke="#5282b2" stroke-width="1.51"/><path d="M1530,742L1467,770L1533,843Z" fill="#3870a4" stroke="#3870a4" stroke-width="1.51"/><path d="M1542,229L1448,228L1459,318Z" fill="#988297" stroke="#988297" stroke-width="1.51"/><path d="M1448,228L1466,147L1380,217Z" fill="#9f7e92" stroke="#9f7e92" stroke-width="1.51"/><path d="M1355,-40L1262,-111L1290,-19Z" fill="#8c576f" stroke="#8c576f" stroke-width="1.51"/><path d="M242,42L169,40L258,128Z" fill="#d6614d" stroke="#d6614d" stroke-width="1.51"/><path d="M244,-47L242,42L333,-26Z" fill="#cf5749" stroke="#cf5749" stroke-width="1.51"/><path d="M1533,843L1467,770L1458,826Z" fill="#2e70a7" stroke="#2e70a7" stroke-width="1.51"/><path d="M1542,657L1557,397L1541,589Z" fill="#798caf" stroke="#798caf" stroke-width="1.51"/><path d="M1541,589L1557,397L1531,493Z" fill="#8291b2" stroke="#8291b2" stroke-width="1.51"/><path d="M1531,493L1557,397L1446,423Z" fill="#8e98b8" stroke="#8e98b8" stroke-width="1.51"/><path d="M310,-108L244,-47L333,-26Z" fill="#c55347" stroke="#c55347" stroke-width="1.51"/><path d="M428,-97L310,-108L333,-26Z" fill="#c55d4f" stroke="#c55d4f" stroke-width="1.51"/><path d="M673,-120L310,-108L428,-97Z" fill="#c16c62" stroke="#c16c62" stroke-width="1.51"/><path d="M1290,-19L1262,-111L1204,-27Z" fill="#925e71" stroke="#925e71" stroke-width="1.51"/><path d="M1204,-92L1262,-111L1094,-98Z" fill="#8b6173" stroke="#8b6173" stroke-width="1.51"/><path d="M920,-112L1453,-129L673,-120Z" fill="#9f727c" stroke="#9f727c" stroke-width="1.51"/><path d="M1355,-40L1290,-19L1352,67Z" fill="#965d74" stroke="#965d74" stroke-width="1.51"/><path d="M1434,1010L1464,904L1387,942Z" fill="#1e5ea2" stroke="#1e5ea2" stroke-width="1.51"/><path d="M79,990L171,1001L165,935Z" fill="#8b5169" stroke="#8b5169" stroke-width="1.51"/><path d="M165,935L171,1001L226,1001Z" fill="#8e586e" stroke="#8e586e" stroke-width="1.51"/><path d="M226,1001L171,1001L492,1033Z" fill="#8e6374" stroke="#8e6374" stroke-width="1.51"/><path d="M1452,46L1355,-40L1352,67Z" fill="#945b74" stroke="#945b74" stroke-width="1.51"/><path d="M1557,397L1558,320L1459,318Z" fill="#918ca4" stroke="#918ca4" stroke-width="1.51"/><path d="M-17,388L70,476L76,398Z" fill="#e18f87" stroke="#e18f87" stroke-width="1.51"/><path d="M4,752L57,844L68,768Z" fill="#a16a78" stroke="#a16a78" stroke-width="1.51"/><path d="M-17,388L76,398L55,321Z" fill="#e0887d" stroke="#e0887d" stroke-width="1.51"/><path d="M68,768L57,844L158,843Z" fill="#9e6c7a" stroke="#9e6c7a" stroke-width="1.51"/><path d="M4,752L68,768L55,681Z" fill="#ad747d" stroke="#ad747d" stroke-width="1.51"/><path d="M1558,320L1542,229L1459,318Z" fill="#938297" stroke="#938297" stroke-width="1.51"/><path d="M1466,147L1452,46L1352,67Z" fill="#97637a" stroke="#97637a" stroke-width="1.51"/><path d="M-28,590L-6,656L79,559Z" fill="#c68484" stroke="#c68484" stroke-width="1.51"/><path d="M1541,70L1452,46L1466,147Z" fill="#8e586d" stroke="#8e586d" stroke-width="1.51"/><path d="M310,-108L256,-103L244,-47Z" fill="#ba4b42" stroke="#ba4b42" stroke-width="1.51"/><path d="M244,-47L174,-47L242,42Z" fill="#c84a40" stroke="#c84a40" stroke-width="1.51"/><path d="M57,844L82,915L158,843Z" fill="#996277" stroke="#996277" stroke-width="1.51"/><path d="M-12,505L-28,590L79,559Z" fill="#ce8887" stroke="#ce8887" stroke-width="1.51"/><path d="M-36,338L-17,388L55,321Z" fill="#d78277" stroke="#d78277" stroke-width="1.51"/><path d="M-36,338L55,321L-22,216Z" fill="#d47769" stroke="#d47769" stroke-width="1.51"/><path d="M169,40L65,136L164,168Z" fill="#d35d4c" stroke="#d35d4c" stroke-width="1.51"/><path d="M73,46L65,136L169,40Z" fill="#ca4c41" stroke="#ca4c41" stroke-width="1.51"/><path d="M1542,657L1561,992L1557,397Z" fill="#577da5" stroke="#577da5" stroke-width="1.51"/><path d="M1530,742L1533,843L1542,657Z" fill="#4474a2" stroke="#4474a2" stroke-width="1.51"/><path d="M1464,904L1533,843L1458,826Z" fill="#2867a2" stroke="#2867a2" stroke-width="1.51"/><path d="M1527,905L1533,843L1464,904Z" fill="#225f9b" stroke="#225f9b" stroke-width="1.51"/><path d="M1379,993L1434,1010L1387,942Z" fill="#1d5c9d" stroke="#1d5c9d" stroke-width="1.51"/><path d="M1295,1026L1434,1010L1379,993Z" fill="#1e5997" stroke="#1e5997" stroke-width="1.51"/><path d="M1542,229L1522,154L1448,228Z" fill="#957384" stroke="#957384" stroke-width="1.51"/><path d="M-95,560L-28,590L-12,505Z" fill="#c08284" stroke="#c08284" stroke-width="1.51"/><path d="M-24,906L79,990L82,915Z" fill="#8c4d6b" stroke="#8c4d6b" stroke-width="1.51"/><path d="M-6,656L4,752L55,681Z" fill="#b2787e" stroke="#b2787e" stroke-width="1.51"/><path d="M-99,766L4,752L-6,656Z" fill="#9f6e79" stroke="#9f6e79" stroke-width="1.51"/><path d="M256,-103L174,-47L244,-47Z" fill="#bc433d" stroke="#bc433d" stroke-width="1.51"/><path d="M1561,992L1527,905L1464,904Z" fill="#195594" stroke="#195594" stroke-width="1.51"/><path d="M-113,409L-95,508L-12,505Z" fill="#c38485" stroke="#c38485" stroke-width="1.51"/><path d="M-22,216L55,321L78,220Z" fill="#d97261" stroke="#d97261" stroke-width="1.51"/><path d="M1452,46L1439,-35L1355,-40Z" fill="#8d4f6c" stroke="#8d4f6c" stroke-width="1.51"/><path d="M1355,-40L1387,-106L1262,-111Z" fill="#804f6a" stroke="#804f6a" stroke-width="1.51"/><path d="M1559,-21L1439,-35L1452,46Z" fill="#844560" stroke="#844560" stroke-width="1.51"/><path d="M65,136L-22,216L78,220Z" fill="#d46352" stroke="#d46352" stroke-width="1.51"/><path d="M73,-14L73,46L169,40Z" fill="#c33f3a" stroke="#c33f3a" stroke-width="1.51"/><path d="M-5,857L82,915L57,844Z" fill="#945971" stroke="#945971" stroke-width="1.51"/><path d="M82,915L79,990L165,935Z" fill="#8f536f" stroke="#8f536f" stroke-width="1.51"/><path d="M1439,-35L1387,-106L1355,-40Z" fill="#844968" stroke="#844968" stroke-width="1.51"/><path d="M-20,128L-22,216L65,136Z" fill="#c9574a" stroke="#c9574a" stroke-width="1.51"/><path d="M4,752L-5,857L57,844Z" fill="#966173" stroke="#966173" stroke-width="1.51"/><path d="M-24,906L-5,857L-92,817Z" fill="#83536c" stroke="#83536c" stroke-width="1.51"/><path d="M1439,-35L1453,-129L1387,-106Z" fill="#764163" stroke="#764163" stroke-width="1.51"/><path d="M1522,154L1541,70L1466,147Z" fill="#8e5d70" stroke="#8e5d70" stroke-width="1.51"/><path d="M1542,229L1541,70L1522,154Z" fill="#8d6171" stroke="#8d6171" stroke-width="1.51"/><path d="M1559,-21L1541,70L1542,229Z" fill="#864f61" stroke="#864f61" stroke-width="1.51"/><path d="M-113,409L-12,505L-17,388Z" fill="#cc8784" stroke="#cc8784" stroke-width="1.51"/><path d="M-28,590L-123,676L-6,656Z" fill="#ad787f" stroke="#ad787f" stroke-width="1.51"/><path d="M-113,409L-17,388L-36,338Z" fill="#ca8079" stroke="#ca8079" stroke-width="1.51"/><path d="M-95,508L-95,560L-12,505Z" fill="#be8284" stroke="#be8284" stroke-width="1.51"/><path d="M51,-98L73,-14L174,-47Z" fill="#b32a30" stroke="#b32a30" stroke-width="1.51"/><path d="M174,-47L73,-14L169,40Z" fill="#c23c39" stroke="#c23c39" stroke-width="1.51"/><path d="M73,46L-20,128L65,136Z" fill="#c74940" stroke="#c74940" stroke-width="1.51"/><path d="M256,-103L156,-120L174,-47Z" fill="#b13a38" stroke="#b13a38" stroke-width="1.51"/><path d="M310,-108L156,-120L256,-103Z" fill="#af413d" stroke="#af413d" stroke-width="1.51"/><path d="M673,-120L156,-120L310,-108Z" fill="#b95d51" stroke="#b95d51" stroke-width="1.51"/><path d="M-31,61L-20,128L73,46Z" fill="#be3d3a" stroke="#be3d3a" stroke-width="1.51"/><path d="M-117,301L-113,409L-36,338Z" fill="#c17a73" stroke="#c17a73" stroke-width="1.51"/><path d="M-5,857L-24,906L82,915Z" fill="#8e526c" stroke="#8e526c" stroke-width="1.51"/><path d="M-92,817L-5,857L4,752Z" fill="#8c5e71" stroke="#8c5e71" stroke-width="1.51"/><path d="M-95,508L-123,676L-95,560Z" fill="#ad7a80" stroke="#ad7a80" stroke-width="1.51"/><path d="M-117,301L-36,338L-22,216Z" fill="#c67065" stroke="#c67065" stroke-width="1.51"/><path d="M1434,1010L1561,992L1464,904Z" fill="#175290" stroke="#175290" stroke-width="1.51"/><path d="M1527,905L1561,992L1533,843Z" fill="#1a5491" stroke="#1a5491" stroke-width="1.51"/><path d="M1533,843L1561,992L1542,657Z" fill="#276298" stroke="#276298" stroke-width="1.51"/><path d="M1557,397L1561,992L1558,320Z" fill="#7488ac" stroke="#7488ac" stroke-width="1.51"/><path d="M-123,676L-99,766L-6,656Z" fill="#9b6f7a" stroke="#9b6f7a" stroke-width="1.51"/><path d="M-123,676L-28,590L-95,560Z" fill="#ac797f" stroke="#ac797f" stroke-width="1.51"/><path d="M1524,-101L1453,-129L1439,-35Z" fill="#703a5a" stroke="#703a5a" stroke-width="1.51"/><path d="M1387,-106L1453,-129L1262,-111Z" fill="#744767" stroke="#744767" stroke-width="1.51"/><path d="M1262,-111L1453,-129L920,-112Z" fill="#815b70" stroke="#815b70" stroke-width="1.51"/><path d="M673,-120L-2,-122L156,-120Z" fill="#af4842" stroke="#af4842" stroke-width="1.51"/><path d="M-113,409L-123,676L-95,508Z" fill="#b37d81" stroke="#b37d81" stroke-width="1.51"/><path d="M-113,409L-122,249L-123,676Z" fill="#ba8182" stroke="#ba8182" stroke-width="1.51"/><path d="M-122,249L-117,301L-22,216Z" fill="#bd675c" stroke="#bd675c" stroke-width="1.51"/><path d="M-97,909L-92,817L-99,766Z" fill="#79546c" stroke="#79546c" stroke-width="1.51"/><path d="M-99,766L-92,817L4,752Z" fill="#8c6173" stroke="#8c6173" stroke-width="1.51"/><path d="M-111,149L-122,249L-22,216Z" fill="#ba5c4f" stroke="#ba5c4f" stroke-width="1.51"/><path d="M-1,-21L-31,61L73,46Z" fill="#b82f33" stroke="#b82f33" stroke-width="1.51"/><path d="M-1,-21L73,46L73,-14Z" fill="#ba2c32" stroke="#ba2c32" stroke-width="1.51"/><path d="M1541,70L1559,-21L1452,46Z" fill="#83475e" stroke="#83475e" stroke-width="1.51"/><path d="M1558,320L1559,-21L1542,229Z" fill="#8c6473" stroke="#8c6473" stroke-width="1.51"/><path d="M1561,992L1559,-21L1558,320Z" fill="#888eac" stroke="#888eac" stroke-width="1.51"/><path d="M-117,301L-122,249L-113,409Z" fill="#ba726c" stroke="#ba726c" stroke-width="1.51"/><path d="M-111,149L-22,216L-20,128Z" fill="#bd5348" stroke="#bd5348" stroke-width="1.51"/><path d="M-112,73L-111,149L-20,128Z" fill="#b0423d" stroke="#b0423d" stroke-width="1.51"/><path d="M51,-98L-1,-21L73,-14Z" fill="#b01b2b" stroke="#b01b2b" stroke-width="1.51"/><path d="M156,-120L51,-98L174,-47Z" fill="#ab2c32" stroke="#ab2c32" stroke-width="1.51"/><path d="M1559,-21L1524,-101L1439,-35Z" fill="#773855" stroke="#773855" stroke-width="1.51"/><path d="M-97,909L-31,1014L-24,906Z" fill="#774263" stroke="#774263" stroke-width="1.51"/><path d="M-24,906L-31,1014L79,990Z" fill="#7f405e" stroke="#7f405e" stroke-width="1.51"/><path d="M79,990L-31,1014L171,1001Z" fill="#80415b" stroke="#80415b" stroke-width="1.51"/><path d="M171,1001L-108,1030L492,1033Z" fill="#864d61" stroke="#864d61" stroke-width="1.51"/><path d="M-112,73L-20,128L-31,61Z" fill="#b13b38" stroke="#b13b38" stroke-width="1.51"/><path d="M-92,817L-97,909L-24,906Z" fill="#7a4d69" stroke="#7a4d69" stroke-width="1.51"/><path d="M-123,676L-97,909L-99,766Z" fill="#805c70" stroke="#805c70" stroke-width="1.51"/><path d="M-119,-30L-112,73L-31,61Z" fill="#a22930" stroke="#a22930" stroke-width="1.51"/><path d="M-111,149L-112,73L-122,249Z" fill="#ad4b44" stroke="#ad4b44" stroke-width="1.51"/><path d="M-119,-30L-31,61L-1,-21Z" fill="#a6222d" stroke="#a6222d" stroke-width="1.51"/><path d="M51,-98L-2,-122L-1,-21Z" fill="#a01229" stroke="#a01229" stroke-width="1.51"/><path d="M156,-120L-2,-122L51,-98Z" fill="#9d1c2a" stroke="#9d1c2a" stroke-width="1.51"/><path d="M1453,-129L-2,-122L673,-120Z" fill="#c08383" stroke="#c08383" stroke-width="1.51"/><path d="M-97,909L-108,1030L-31,1014Z" fill="#683656" stroke="#683656" stroke-width="1.51"/><path d="M-31,1014L-108,1030L171,1001Z" fill="#763651" stroke="#763651" stroke-width="1.51"/><path d="M-123,676L-108,1030L-97,909Z" fill="#724b68" stroke="#724b68" stroke-width="1.51"/><path d="M-81,-100L-119,-30L-1,-21Z" fill="#970f27" stroke="#970f27" stroke-width="1.51"/><path d="M-112,73L-119,-30L-122,249Z" fill="#a43938" stroke="#a43938" stroke-width="1.51"/><path d="M-2,-122L-81,-100L-1,-21Z" fill="#960e27" stroke="#960e27" stroke-width="1.51"/></svg>