<svg xmlns="http://www.w3.org/2000/svg" width="1440" height="900"><path d="M751,474L768,559L829,481Z" fill="#f98c22" stroke="#f98c22" stroke-width="1.51"/><path d="M768,559L853,595L829,481Z" fill="#f5841e" stroke="#f5841e" stroke-width="1.51"/><path d="M751,474L667,514L768,559Z" fill="#fa8f24" stroke="#fa8f24" stroke-width="1.51"/><path d="M829,481L755,394L751,474Z" fill="#fc9426" stroke="#fc9426" stroke-width="1.51"/><path d="M751,474L686,388L667,514Z" fill="#fe9a2b" stroke="#fe9a2b" stroke-width="1.51"/><path d="M768,559L776,644L853,595Z" fill="#f27e1b" stroke="#f27e1b" stroke-width="1.51"/><path d="M670,598L776,644L768,559Z" fill="#f5831e" stroke="#f5831e" stroke-width="1.51"/><path d="M829,481L871,403L755,394Z" fill="#fa9428" stroke="#fa9428" stroke-width="1.51"/><path d="M932,481L871,403L829,481Z" fill="#f78a21" stroke="#f78a21" stroke-width="1.51"/><path d="M667,514L670,598L768,559Z" fill="#f88d23" stroke="#f88d23" stroke-width="1.51"/><path d="M853,595L932,481L829,481Z" fill="#f4821d" stroke="#f4821d" stroke-width="1.51"/><path d="M755,394L686,388L751,474Z" fill="#fe9d2d" stroke="#fe9d2d" stroke-width="1.51"/><path d="M680,332L686,388L755,394Z" fill="#ffa634" stroke="#ffa634" stroke-width="1.51"/><path d="M776,644L854,662L853,595Z" fill="#ed7718" stroke="#ed7718" stroke-width="1.51"/><path d="M853,595L953,578L932,481Z" fill="#f07a19" stroke="#f07a19" stroke-width="1.51"/><path d="M933,684L953,578L853,595Z" fill="#eb7014" stroke="#eb7014" stroke-width="1.51"/><path d="M670,598L675,651L776,644Z" fill="#f2831e" stroke="#f2831e" stroke-width="1.51"/><path d="M776,644L851,750L854,662Z" fill="#e87115" stroke="#e87115" stroke-width="1.51"/><path d="M932,481L952,422L871,403Z" fill="#f68822" stroke="#f68822" stroke-width="1.51"/><path d="M1025,477L952,422L932,481Z" fill="#f2801d" stroke="#f2801d" stroke-width="1.51"/><path d="M850,304L766,315L755,394Z" fill="#fca335" stroke="#fca335" stroke-width="1.51"/><path d="M850,304L755,394L871,403Z" fill="#fa9b2f" stroke="#fa9b2f" stroke-width="1.51"/><path d="M670,598L597,590L675,651Z" fill="#f48b25" stroke="#f48b25" stroke-width="1.51"/><path d="M667,514L597,590L670,598Z" fill="#f89128" stroke="#f89128" stroke-width="1.51"/><path d="M574,482L597,590L667,514Z" fill="#fa9a2d" stroke="#fa9a2d" stroke-width="1.51"/><path d="M569,421L574,482L667,514Z" fill="#fda232" stroke="#fda232" stroke-width="1.51"/><path d="M766,315L680,332L755,394Z" fill="#fea736" stroke="#fea736" stroke-width="1.51"/><path d="M569,421L667,514L686,388Z" fill="#ffa332" stroke="#ffa332" stroke-width="1.51"/><path d="M944,337L850,304L871,403Z" fill="#f8982f" stroke="#f8982f" stroke-width="1.51"/><path d="M854,662L933,684L853,595Z" fill="#ea7014" stroke="#ea7014" stroke-width="1.51"/><path d="M851,750L933,684L854,662Z" fill="#e46a11" stroke="#e46a11" stroke-width="1.51"/><path d="M953,578L1025,477L932,481Z" fill="#ef7919" stroke="#ef7919" stroke-width="1.51"/><path d="M933,684L1006,582L953,578Z" fill="#e96c12" stroke="#e96c12" stroke-width="1.51"/><path d="M952,422L944,337L871,403Z" fill="#f79028" stroke="#f79028" stroke-width="1.51"/><path d="M1042,399L944,337L952,422Z" fill="#f38b26" stroke="#f38b26" stroke-width="1.51"/><path d="M610,314L569,421L686,388Z" fill="#ffae3c" stroke="#ffae3c" stroke-width="1.51"/><path d="M1006,582L1025,477L953,578Z" fill="#eb7316" stroke="#eb7316" stroke-width="1.51"/><path d="M675,651L743,751L776,644Z" fill="#ec7a1a" stroke="#ec7a1a" stroke-width="1.51"/><path d="M664,771L743,751L675,651Z" fill="#e8791b" stroke="#e8791b" stroke-width="1.51"/><path d="M743,751L851,750L776,644Z" fill="#e67115" stroke="#e67115" stroke-width="1.51"/><path d="M597,590L572,660L675,651Z" fill="#f38c27" stroke="#f38c27" stroke-width="1.51"/><path d="M515,587L572,660L597,590Z" fill="#f5942d" stroke="#f5942d" stroke-width="1.51"/><path d="M515,587L597,590L574,482Z" fill="#f99c31" stroke="#f99c31" stroke-width="1.51"/><path d="M680,332L610,314L686,388Z" fill="#ffae3c" stroke="#ffae3c" stroke-width="1.51"/><path d="M693,225L610,314L680,332Z" fill="#feb644" stroke="#feb644" stroke-width="1.51"/><path d="M693,225L680,332L766,315Z" fill="#ffb03f" stroke="#ffb03f" stroke-width="1.51"/><path d="M850,304L837,249L766,315Z" fill="#fba73a" stroke="#fba73a" stroke-width="1.51"/><path d="M927,213L837,249L850,304Z" fill="#faa640" stroke="#faa640" stroke-width="1.51"/><path d="M837,249L776,243L766,315Z" fill="#fdab41" stroke="#fdab41" stroke-width="1.51"/><path d="M1025,477L1042,399L952,422Z" fill="#f0821f" stroke="#f0821f" stroke-width="1.51"/><path d="M944,337L927,213L850,304Z" fill="#f89f38" stroke="#f89f38" stroke-width="1.51"/><path d="M1088,475L1042,399L1025,477Z" fill="#ed7b1a" stroke="#ed7b1a" stroke-width="1.51"/><path d="M500,484L515,587L574,482Z" fill="#fba336" stroke="#fba336" stroke-width="1.51"/><path d="M582,751L664,771L675,651Z" fill="#e97f20" stroke="#e97f20" stroke-width="1.51"/><path d="M743,751L742,823L851,750Z" fill="#df6c13" stroke="#df6c13" stroke-width="1.51"/><path d="M569,421L500,484L574,482Z" fill="#fea938" stroke="#fea938" stroke-width="1.51"/><path d="M490,414L500,484L569,421Z" fill="#feaf3c" stroke="#feaf3c" stroke-width="1.51"/><path d="M933,684L1037,662L1006,582Z" fill="#e3670f" stroke="#e3670f" stroke-width="1.51"/><path d="M1006,582L1088,475L1025,477Z" fill="#ea7416" stroke="#ea7416" stroke-width="1.51"/><path d="M1035,735L1037,662L933,684Z" fill="#dd600b" stroke="#dd600b" stroke-width="1.51"/><path d="M851,750L940,765L933,684Z" fill="#df630e" stroke="#df630e" stroke-width="1.51"/><path d="M916,824L940,765L851,750Z" fill="#d9600d" stroke="#d9600d" stroke-width="1.51"/><path d="M762,154L693,225L776,243Z" fill="#ffb651" stroke="#ffb651" stroke-width="1.51"/><path d="M776,243L693,225L766,315Z" fill="#ffb045" stroke="#ffb045" stroke-width="1.51"/><path d="M1127,579L1088,475L1006,582Z" fill="#e66c12" stroke="#e66c12" stroke-width="1.51"/><path d="M511,333L490,414L569,421Z" fill="#ffb643" stroke="#ffb643" stroke-width="1.51"/><path d="M511,333L569,421L610,314Z" fill="#ffb643" stroke="#ffb643" stroke-width="1.51"/><path d="M664,771L742,823L743,751Z" fill="#e07117" stroke="#e07117" stroke-width="1.51"/><path d="M664,771L688,860L742,823Z" fill="#da7018" stroke="#da7018" stroke-width="1.51"/><path d="M572,660L582,751L675,651Z" fill="#ed8625" stroke="#ed8625" stroke-width="1.51"/><path d="M522,756L582,751L572,660Z" fill="#e98728" stroke="#e98728" stroke-width="1.51"/><path d="M742,823L847,831L851,750Z" fill="#d86611" stroke="#d86611" stroke-width="1.51"/><path d="M1042,399L1043,307L944,337Z" fill="#f18e2a" stroke="#f18e2a" stroke-width="1.51"/><path d="M1124,327L1043,307L1042,399Z" fill="#ed8a28" stroke="#ed8a28" stroke-width="1.51"/><path d="M519,248L511,333L610,314Z" fill="#fec04c" stroke="#fec04c" stroke-width="1.51"/><path d="M1009,213L927,213L944,337Z" fill="#f69e3d" stroke="#f69e3d" stroke-width="1.51"/><path d="M837,249L762,154L776,243Z" fill="#fdb14d" stroke="#fdb14d" stroke-width="1.51"/><path d="M693,225L596,237L610,314Z" fill="#ffbc4e" stroke="#ffbc4e" stroke-width="1.51"/><path d="M1037,662L1127,579L1006,582Z" fill="#e2650e" stroke="#e2650e" stroke-width="1.51"/><path d="M940,765L1035,735L933,684Z" fill="#dc5f0a" stroke="#dc5f0a" stroke-width="1.51"/><path d="M1016,835L1035,735L940,765Z" fill="#d35708" stroke="#d35708" stroke-width="1.51"/><path d="M847,831L916,824L851,750Z" fill="#d6610e" stroke="#d6610e" stroke-width="1.51"/><path d="M515,587L495,684L572,660Z" fill="#f2942e" stroke="#f2942e" stroke-width="1.51"/><path d="M438,565L495,684L515,587Z" fill="#f69b36" stroke="#f69b36" stroke-width="1.51"/><path d="M438,565L515,587L500,484Z" fill="#faa43a" stroke="#faa43a" stroke-width="1.51"/><path d="M1088,475L1110,402L1042,399Z" fill="#eb7d1d" stroke="#eb7d1d" stroke-width="1.51"/><path d="M1187,497L1110,402L1088,475Z" fill="#e67417" stroke="#e67417" stroke-width="1.51"/><path d="M1108,680L1127,579L1037,662Z" fill="#dc5f0a" stroke="#dc5f0a" stroke-width="1.51"/><path d="M397,507L438,565L500,484Z" fill="#fcaa42" stroke="#fcaa42" stroke-width="1.51"/><path d="M430,405L500,484L490,414Z" fill="#ffb344" stroke="#ffb344" stroke-width="1.51"/><path d="M693,225L668,159L596,237Z" fill="#ffbf58" stroke="#ffbf58" stroke-width="1.51"/><path d="M861,137L762,154L837,249Z" fill="#fdb253" stroke="#fdb253" stroke-width="1.51"/><path d="M585,823L688,860L664,771Z" fill="#db751d" stroke="#db751d" stroke-width="1.51"/><path d="M495,684L522,756L572,660Z" fill="#ec8d2b" stroke="#ec8d2b" stroke-width="1.51"/><path d="M421,758L522,756L495,684Z" fill="#e98e30" stroke="#e98e30" stroke-width="1.51"/><path d="M742,823L759,928L847,831Z" fill="#d06413" stroke="#d06413" stroke-width="1.51"/><path d="M949,924L1016,835L916,824Z" fill="#c7530a" stroke="#c7530a" stroke-width="1.51"/><path d="M585,823L664,771L582,751Z" fill="#e17c21" stroke="#e17c21" stroke-width="1.51"/><path d="M1035,735L1108,680L1037,662Z" fill="#da5b09" stroke="#da5b09" stroke-width="1.51"/><path d="M762,154L668,159L693,225Z" fill="#ffbc5a" stroke="#ffbc5a" stroke-width="1.51"/><path d="M1043,307L1009,213L944,337Z" fill="#f29834" stroke="#f29834" stroke-width="1.51"/><path d="M927,213L861,137L837,249Z" fill="#fbab4d" stroke="#fbab4d" stroke-width="1.51"/><path d="M1122,244L1009,213L1043,307Z" fill="#ef9639" stroke="#ef9639" stroke-width="1.51"/><path d="M522,756L585,823L582,751Z" fill="#e28125" stroke="#e28125" stroke-width="1.51"/><path d="M511,333L430,405L490,414Z" fill="#ffba49" stroke="#ffba49" stroke-width="1.51"/><path d="M399,315L430,405L511,333Z" fill="#ffc152" stroke="#ffc152" stroke-width="1.51"/><path d="M519,248L610,314L596,237Z" fill="#ffc151" stroke="#ffc151" stroke-width="1.51"/><path d="M489,152L519,248L596,237Z" fill="#ffca61" stroke="#ffca61" stroke-width="1.51"/><path d="M952,162L861,137L927,213Z" fill="#faaa51" stroke="#faaa51" stroke-width="1.51"/><path d="M696,45L600,138L668,159Z" fill="#ffc76a" stroke="#ffc76a" stroke-width="1.51"/><path d="M1176,339L1124,327L1110,402Z" fill="#e88324" stroke="#e88324" stroke-width="1.51"/><path d="M1110,402L1124,327L1042,399Z" fill="#eb8323" stroke="#eb8323" stroke-width="1.51"/><path d="M1009,213L952,162L927,213Z" fill="#f7a44a" stroke="#f7a44a" stroke-width="1.51"/><path d="M430,405L397,507L500,484Z" fill="#ffb146" stroke="#ffb146" stroke-width="1.51"/><path d="M438,565L407,681L495,684Z" fill="#f39a3a" stroke="#f39a3a" stroke-width="1.51"/><path d="M1035,735L1127,767L1108,680Z" fill="#d35505" stroke="#d35505" stroke-width="1.51"/><path d="M916,824L1016,835L940,765Z" fill="#d1580a" stroke="#d1580a" stroke-width="1.51"/><path d="M949,924L916,824L847,831Z" fill="#cb580d" stroke="#cb580d" stroke-width="1.51"/><path d="M1127,579L1187,497L1088,475Z" fill="#e36b12" stroke="#e36b12" stroke-width="1.51"/><path d="M1192,579L1187,497L1127,579Z" fill="#dd640e" stroke="#dd640e" stroke-width="1.51"/><path d="M1179,652L1192,579L1127,579Z" fill="#da5d0b" stroke="#da5d0b" stroke-width="1.51"/><path d="M1179,652L1127,579L1108,680Z" fill="#d95b09" stroke="#d95b09" stroke-width="1.51"/><path d="M339,560L407,681L438,565Z" fill="#f8a345" stroke="#f8a345" stroke-width="1.51"/><path d="M522,756L490,854L585,823Z" fill="#dc8227" stroke="#dc8227" stroke-width="1.51"/><path d="M1204,739L1179,652L1108,680Z" fill="#d15305" stroke="#d15305" stroke-width="1.51"/><path d="M696,45L668,159L762,154Z" fill="#ffc164" stroke="#ffc164" stroke-width="1.51"/><path d="M668,159L600,138L596,237Z" fill="#ffc561" stroke="#ffc561" stroke-width="1.51"/><path d="M688,860L759,928L742,823Z" fill="#d06815" stroke="#d06815" stroke-width="1.51"/><path d="M673,918L759,928L688,860Z" fill="#cb6817" stroke="#cb6817" stroke-width="1.51"/><path d="M585,908L688,860L585,823Z" fill="#d3741f" stroke="#d3741f" stroke-width="1.51"/><path d="M585,908L673,918L688,860Z" fill="#cd6e1c" stroke="#cd6e1c" stroke-width="1.51"/><path d="M1209,413L1176,339L1110,402Z" fill="#e57d1f" stroke="#e57d1f" stroke-width="1.51"/><path d="M1124,327L1122,244L1043,307Z" fill="#eb8f2e" stroke="#eb8f2e" stroke-width="1.51"/><path d="M1009,213L1020,134L952,162Z" fill="#f4a44f" stroke="#f4a44f" stroke-width="1.51"/><path d="M1109,835L1127,767L1035,735Z" fill="#cc4f04" stroke="#cc4f04" stroke-width="1.51"/><path d="M759,928L828,935L847,831Z" fill="#c85e11" stroke="#c85e11" stroke-width="1.51"/><path d="M1176,339L1122,244L1124,327Z" fill="#e88a2b" stroke="#e88a2b" stroke-width="1.51"/><path d="M1262,393L1209,413L1291,474Z" fill="#d97119" stroke="#d97119" stroke-width="1.51"/><path d="M1187,497L1209,413L1110,402Z" fill="#e37418" stroke="#e37418" stroke-width="1.51"/><path d="M416,234L511,333L519,248Z" fill="#ffc859" stroke="#ffc859" stroke-width="1.51"/><path d="M416,234L399,315L511,333Z" fill="#ffc95a" stroke="#ffc95a" stroke-width="1.51"/><path d="M430,405L334,476L397,507Z" fill="#ffb64f" stroke="#ffb64f" stroke-width="1.51"/><path d="M407,681L421,758L495,684Z" fill="#ec9438" stroke="#ec9438" stroke-width="1.51"/><path d="M952,162L947,81L861,137Z" fill="#faae59" stroke="#faae59" stroke-width="1.51"/><path d="M861,137L832,54L762,154Z" fill="#feb860" stroke="#feb860" stroke-width="1.51"/><path d="M1089,140L1020,134L1009,213Z" fill="#f2a14e" stroke="#f2a14e" stroke-width="1.51"/><path d="M828,935L949,924L847,831Z" fill="#c5580e" stroke="#c5580e" stroke-width="1.51"/><path d="M1016,835L1109,835L1035,735Z" fill="#cb5006" stroke="#cb5006" stroke-width="1.51"/><path d="M490,854L585,908L585,823Z" fill="#d37b25" stroke="#d37b25" stroke-width="1.51"/><path d="M742,1025L828,935L759,928Z" fill="#be5d14" stroke="#be5d14" stroke-width="1.51"/><path d="M397,507L339,560L438,565Z" fill="#fbab49" stroke="#fbab49" stroke-width="1.51"/><path d="M320,771L412,824L421,758Z" fill="#e3903e" stroke="#e3903e" stroke-width="1.51"/><path d="M334,476L339,560L397,507Z" fill="#fdb151" stroke="#fdb151" stroke-width="1.51"/><path d="M421,758L490,854L522,756Z" fill="#e1882f" stroke="#e1882f" stroke-width="1.51"/><path d="M326,409L334,476L430,405Z" fill="#ffbc56" stroke="#ffbc56" stroke-width="1.51"/><path d="M1097,918L1109,835L1016,835Z" fill="#bf4906" stroke="#bf4906" stroke-width="1.51"/><path d="M1127,767L1204,739L1108,680Z" fill="#cf5003" stroke="#cf5003" stroke-width="1.51"/><path d="M1020,134L947,81L952,162Z" fill="#f7a957" stroke="#f7a957" stroke-width="1.51"/><path d="M947,81L832,54L861,137Z" fill="#fdb360" stroke="#fdb360" stroke-width="1.51"/><path d="M949,924L1009,914L1016,835Z" fill="#c04e09" stroke="#c04e09" stroke-width="1.51"/><path d="M342,338L326,409L430,405Z" fill="#ffc25b" stroke="#ffc25b" stroke-width="1.51"/><path d="M489,152L416,234L519,248Z" fill="#ffcf68" stroke="#ffcf68" stroke-width="1.51"/><path d="M600,138L489,152L596,237Z" fill="#ffcb66" stroke="#ffcb66" stroke-width="1.51"/><path d="M511,81L489,152L600,138Z" fill="#ffd272" stroke="#ffd272" stroke-width="1.51"/><path d="M832,54L773,41L762,154Z" fill="#ffbc65" stroke="#ffbc65" stroke-width="1.51"/><path d="M247,564L323,686L339,560Z" fill="#f9a953" stroke="#f9a953" stroke-width="1.51"/><path d="M342,338L430,405L399,315Z" fill="#ffc55b" stroke="#ffc55b" stroke-width="1.51"/><path d="M773,41L696,45L762,154Z" fill="#ffc168" stroke="#ffc168" stroke-width="1.51"/><path d="M1197,846L1204,739L1127,767Z" fill="#c34803" stroke="#c34803" stroke-width="1.51"/><path d="M1179,652L1266,587L1192,579Z" fill="#d45a0a" stroke="#d45a0a" stroke-width="1.51"/><path d="M1192,579L1266,587L1187,497Z" fill="#d7610f" stroke="#d7610f" stroke-width="1.51"/><path d="M339,214L342,338L399,315Z" fill="#ffcf68" stroke="#ffcf68" stroke-width="1.51"/><path d="M1122,244L1089,140L1009,213Z" fill="#ef9a45" stroke="#ef9a45" stroke-width="1.51"/><path d="M1020,134L1005,74L947,81Z" fill="#f7aa5b" stroke="#f7aa5b" stroke-width="1.51"/><path d="M1182,163L1089,140L1122,244Z" fill="#eb9846" stroke="#eb9846" stroke-width="1.51"/><path d="M1181,225L1122,244L1176,339Z" fill="#e78c32" stroke="#e78c32" stroke-width="1.51"/><path d="M1268,666L1266,587L1179,652Z" fill="#ce5509" stroke="#ce5509" stroke-width="1.51"/><path d="M1262,393L1176,339L1209,413Z" fill="#df7a20" stroke="#df7a20" stroke-width="1.51"/><path d="M1288,335L1181,225L1176,339Z" fill="#df862a" stroke="#df862a" stroke-width="1.51"/><path d="M947,81L858,-9L832,54Z" fill="#feb767" stroke="#feb767" stroke-width="1.51"/><path d="M832,54L858,-9L773,41Z" fill="#ffbd6c" stroke="#ffbd6c" stroke-width="1.51"/><path d="M1089,140L1005,74L1020,134Z" fill="#f3a456" stroke="#f3a456" stroke-width="1.51"/><path d="M421,758L412,824L490,854Z" fill="#de8934" stroke="#de8934" stroke-width="1.51"/><path d="M490,854L513,945L585,908Z" fill="#cc7a27" stroke="#cc7a27" stroke-width="1.51"/><path d="M323,686L421,758L407,681Z" fill="#ed9841" stroke="#ed9841" stroke-width="1.51"/><path d="M1291,474L1209,413L1187,497Z" fill="#dc6d15" stroke="#dc6d15" stroke-width="1.51"/><path d="M247,564L339,560L334,476Z" fill="#fcb257" stroke="#fcb257" stroke-width="1.51"/><path d="M339,560L323,686L407,681Z" fill="#f4a149" stroke="#f4a149" stroke-width="1.51"/><path d="M489,152L428,165L416,234Z" fill="#ffd472" stroke="#ffd472" stroke-width="1.51"/><path d="M416,234L339,214L399,315Z" fill="#ffd16c" stroke="#ffd16c" stroke-width="1.51"/><path d="M400,53L428,165L489,152Z" fill="#ffd97e" stroke="#ffd97e" stroke-width="1.51"/><path d="M696,45L572,57L600,138Z" fill="#ffcd71" stroke="#ffcd71" stroke-width="1.51"/><path d="M1266,587L1291,474L1187,497Z" fill="#d56411" stroke="#d56411" stroke-width="1.51"/><path d="M1266,587L1349,588L1291,474Z" fill="#cd5c0f" stroke="#cd5c0f" stroke-width="1.51"/><path d="M1204,739L1268,666L1179,652Z" fill="#cb5006" stroke="#cb5006" stroke-width="1.51"/><path d="M828,935L845,1015L949,924Z" fill="#ba550f" stroke="#ba550f" stroke-width="1.51"/><path d="M949,924L1041,1004L1009,914Z" fill="#b64a09" stroke="#b64a09" stroke-width="1.51"/><path d="M742,1025L845,1015L828,935Z" fill="#b75913" stroke="#b75913" stroke-width="1.51"/><path d="M742,1025L759,928L673,918Z" fill="#c16316" stroke="#c16316" stroke-width="1.51"/><path d="M572,57L511,81L600,138Z" fill="#ffd174" stroke="#ffd174" stroke-width="1.51"/><path d="M1204,739L1262,772L1268,666Z" fill="#c44a04" stroke="#c44a04" stroke-width="1.51"/><path d="M1109,835L1197,846L1127,767Z" fill="#c14703" stroke="#c14703" stroke-width="1.51"/><path d="M1009,914L1097,918L1016,835Z" fill="#bd4a07" stroke="#bd4a07" stroke-width="1.51"/><path d="M1041,1004L1097,918L1009,914Z" fill="#b24607" stroke="#b24607" stroke-width="1.51"/><path d="M670,1023L742,1025L673,918Z" fill="#bb6419" stroke="#bb6419" stroke-width="1.51"/><path d="M427,914L513,945L490,854Z" fill="#cd7e2d" stroke="#cd7e2d" stroke-width="1.51"/><path d="M670,1023L673,918L585,908Z" fill="#c36b1d" stroke="#c36b1d" stroke-width="1.51"/><path d="M753,-35L679,-15L696,45Z" fill="#ffc976" stroke="#ffc976" stroke-width="1.51"/><path d="M696,45L583,-5L572,57Z" fill="#ffd079" stroke="#ffd079" stroke-width="1.51"/><path d="M941,-47L858,-9L947,81Z" fill="#fdb56b" stroke="#fdb56b" stroke-width="1.51"/><path d="M572,1027L670,1023L585,908Z" fill="#bd6c20" stroke="#bd6c20" stroke-width="1.51"/><path d="M1089,140L1123,72L1005,74Z" fill="#f1a358" stroke="#f1a358" stroke-width="1.51"/><path d="M1005,74L941,-47L947,81Z" fill="#fab064" stroke="#fab064" stroke-width="1.51"/><path d="M1181,225L1182,163L1122,244Z" fill="#e8923f" stroke="#e8923f" stroke-width="1.51"/><path d="M1266,130L1182,163L1181,225Z" fill="#e39347" stroke="#e39347" stroke-width="1.51"/><path d="M1288,335L1176,339L1262,393Z" fill="#db7c23" stroke="#db7c23" stroke-width="1.51"/><path d="M1097,918L1197,846L1109,835Z" fill="#ba4404" stroke="#ba4404" stroke-width="1.51"/><path d="M1358,403L1288,335L1262,393Z" fill="#d47520" stroke="#d47520" stroke-width="1.51"/><path d="M412,824L427,914L490,854Z" fill="#d48433" stroke="#d48433" stroke-width="1.51"/><path d="M323,686L320,771L421,758Z" fill="#eb9644" stroke="#eb9644" stroke-width="1.51"/><path d="M233,741L320,771L323,686Z" fill="#ec9b4e" stroke="#ec9b4e" stroke-width="1.51"/><path d="M326,409L261,410L334,476Z" fill="#ffbf5e" stroke="#ffbf5e" stroke-width="1.51"/><path d="M342,338L261,410L326,409Z" fill="#ffc664" stroke="#ffc664" stroke-width="1.51"/><path d="M240,310L261,410L342,338Z" fill="#ffcd6b" stroke="#ffcd6b" stroke-width="1.51"/><path d="M753,-35L696,45L773,41Z" fill="#ffc571" stroke="#ffc571" stroke-width="1.51"/><path d="M572,57L486,-39L511,81Z" fill="#ffd980" stroke="#ffd980" stroke-width="1.51"/><path d="M428,165L339,214L416,234Z" fill="#ffd575" stroke="#ffd575" stroke-width="1.51"/><path d="M345,128L339,214L428,165Z" fill="#ffdb80" stroke="#ffdb80" stroke-width="1.51"/><path d="M513,945L572,1027L585,908Z" fill="#c27324" stroke="#c27324" stroke-width="1.51"/><path d="M333,846L427,914L412,824Z" fill="#d5883b" stroke="#d5883b" stroke-width="1.51"/><path d="M845,1015L931,1032L949,924Z" fill="#b34f0e" stroke="#b34f0e" stroke-width="1.51"/><path d="M742,1025L931,1032L845,1015Z" fill="#b05412" stroke="#b05412" stroke-width="1.51"/><path d="M492,1033L931,1032L742,1025Z" fill="#b45e17" stroke="#b45e17" stroke-width="1.51"/><path d="M1197,846L1262,772L1204,739Z" fill="#be4503" stroke="#be4503" stroke-width="1.51"/><path d="M1268,666L1349,588L1266,587Z" fill="#c9540b" stroke="#c9540b" stroke-width="1.51"/><path d="M233,497L247,564L334,476Z" fill="#feb75d" stroke="#feb75d" stroke-width="1.51"/><path d="M858,-9L753,-35L773,41Z" fill="#ffc171" stroke="#ffc171" stroke-width="1.51"/><path d="M1182,163L1123,72L1089,140Z" fill="#ec9d51" stroke="#ec9d51" stroke-width="1.51"/><path d="M261,410L233,497L334,476Z" fill="#ffbd60" stroke="#ffbd60" stroke-width="1.51"/><path d="M931,1032L1041,1004L949,924Z" fill="#b04a0b" stroke="#b04a0b" stroke-width="1.51"/><path d="M1186,937L1260,841L1197,846Z" fill="#b03e04" stroke="#b03e04" stroke-width="1.51"/><path d="M679,-15L583,-5L696,45Z" fill="#ffce79" stroke="#ffce79" stroke-width="1.51"/><path d="M400,53L345,128L428,165Z" fill="#ffdd86" stroke="#ffdd86" stroke-width="1.51"/><path d="M611,-108L583,-5L679,-15Z" fill="#ffd282" stroke="#ffd282" stroke-width="1.51"/><path d="M670,1023L572,1027L742,1025Z" fill="#b5651c" stroke="#b5651c" stroke-width="1.51"/><path d="M492,1033L572,1027L513,945Z" fill="#ba7327" stroke="#ba7327" stroke-width="1.51"/><path d="M320,771L333,846L412,824Z" fill="#de8f42" stroke="#de8f42" stroke-width="1.51"/><path d="M437,1008L492,1033L513,945Z" fill="#bc772c" stroke="#bc772c" stroke-width="1.51"/><path d="M261,826L333,846L320,771Z" fill="#df9349" stroke="#df9349" stroke-width="1.51"/><path d="M1386,651L1349,588L1268,666Z" fill="#c35009" stroke="#c35009" stroke-width="1.51"/><path d="M1291,474L1358,403L1262,393Z" fill="#d36e19" stroke="#d36e19" stroke-width="1.51"/><path d="M1349,588L1360,471L1291,474Z" fill="#cb6012" stroke="#cb6012" stroke-width="1.51"/><path d="M1370,745L1386,651L1268,666Z" fill="#bc4906" stroke="#bc4906" stroke-width="1.51"/><path d="M1197,846L1260,841L1262,772Z" fill="#b64103" stroke="#b64103" stroke-width="1.51"/><path d="M1186,937L1197,846L1097,918Z" fill="#b24003" stroke="#b24003" stroke-width="1.51"/><path d="M1288,335L1297,240L1181,225Z" fill="#db8731" stroke="#db8731" stroke-width="1.51"/><path d="M1182,163L1208,82L1123,72Z" fill="#e99b53" stroke="#e99b53" stroke-width="1.51"/><path d="M1382,317L1297,240L1288,335Z" fill="#d27f2a" stroke="#d27f2a" stroke-width="1.51"/><path d="M1039,-38L941,-47L1005,74Z" fill="#f8b069" stroke="#f8b069" stroke-width="1.51"/><path d="M858,-9L779,-101L753,-35Z" fill="#ffc278" stroke="#ffc278" stroke-width="1.51"/><path d="M1360,471L1358,403L1291,474Z" fill="#cf6816" stroke="#cf6816" stroke-width="1.51"/><path d="M339,214L240,310L342,338Z" fill="#ffd370" stroke="#ffd370" stroke-width="1.51"/><path d="M261,410L164,421L233,497Z" fill="#ffc267" stroke="#ffc267" stroke-width="1.51"/><path d="M177,599L231,686L247,564Z" fill="#f9ac5c" stroke="#f9ac5c" stroke-width="1.51"/><path d="M247,564L231,686L323,686Z" fill="#f5a755" stroke="#f5a755" stroke-width="1.51"/><path d="M1109,1013L1186,937L1097,918Z" fill="#aa3f05" stroke="#aa3f05" stroke-width="1.51"/><path d="M339,214L233,252L240,310Z" fill="#ffd87b" stroke="#ffd87b" stroke-width="1.51"/><path d="M400,53L489,152L511,81Z" fill="#ffd97e" stroke="#ffd97e" stroke-width="1.51"/><path d="M1041,1004L1109,1013L1097,918Z" fill="#a94207" stroke="#a94207" stroke-width="1.51"/><path d="M931,1032L1109,1013L1041,1004Z" fill="#a7440a" stroke="#a7440a" stroke-width="1.51"/><path d="M437,1008L513,945L427,914Z" fill="#c37b30" stroke="#c37b30" stroke-width="1.51"/><path d="M572,1027L492,1033L742,1025Z" fill="#b56a20" stroke="#b56a20" stroke-width="1.51"/><path d="M486,-39L400,53L511,81Z" fill="#ffdd87" stroke="#ffdd87" stroke-width="1.51"/><path d="M352,937L437,1008L427,914Z" fill="#c57f38" stroke="#c57f38" stroke-width="1.51"/><path d="M231,686L233,741L323,686Z" fill="#efa052" stroke="#efa052" stroke-width="1.51"/><path d="M1108,-4L1039,-38L1005,74Z" fill="#f4aa64" stroke="#f4aa64" stroke-width="1.51"/><path d="M1266,130L1208,82L1182,163Z" fill="#e2964f" stroke="#e2964f" stroke-width="1.51"/><path d="M1108,-4L1005,74L1123,72Z" fill="#f2a55e" stroke="#f2a55e" stroke-width="1.51"/><path d="M1204,-27L1108,-4L1123,72Z" fill="#eea360" stroke="#eea360" stroke-width="1.51"/><path d="M352,937L427,914L333,846Z" fill="#cf863d" stroke="#cf863d" stroke-width="1.51"/><path d="M244,927L352,937L333,846Z" fill="#cf8a46" stroke="#cf8a46" stroke-width="1.51"/><path d="M258,128L233,252L339,214Z" fill="#ffde88" stroke="#ffde88" stroke-width="1.51"/><path d="M143,485L177,599L233,497Z" fill="#ffb965" stroke="#ffb965" stroke-width="1.51"/><path d="M233,497L177,599L247,564Z" fill="#fdb460" stroke="#fdb460" stroke-width="1.51"/><path d="M258,128L339,214L345,128Z" fill="#fee08b" stroke="#fee08b" stroke-width="1.51"/><path d="M1208,82L1204,-27L1123,72Z" fill="#e99f5b" stroke="#e99f5b" stroke-width="1.51"/><path d="M1297,240L1266,130L1181,225Z" fill="#dd8e41" stroke="#dd8e41" stroke-width="1.51"/><path d="M1351,165L1266,130L1297,240Z" fill="#d78d44" stroke="#d78d44" stroke-width="1.51"/><path d="M753,-35L673,-120L679,-15Z" fill="#ffcb7e" stroke="#ffcb7e" stroke-width="1.51"/><path d="M583,-5L486,-39L572,57Z" fill="#ffd982" stroke="#ffd982" stroke-width="1.51"/><path d="M838,-107L779,-101L858,-9Z" fill="#ffc07a" stroke="#ffc07a" stroke-width="1.51"/><path d="M838,-107L858,-9L920,-112Z" fill="#ffbc78" stroke="#ffbc78" stroke-width="1.51"/><path d="M233,741L261,826L320,771Z" fill="#e6984e" stroke="#e6984e" stroke-width="1.51"/><path d="M1451,474L1446,423L1360,471Z" fill="#c46315" stroke="#c46315" stroke-width="1.51"/><path d="M1446,423L1382,317L1358,403Z" fill="#c86f1f" stroke="#c86f1f" stroke-width="1.51"/><path d="M1370,745L1268,666L1262,772Z" fill="#bd4604" stroke="#bd4604" stroke-width="1.51"/><path d="M164,421L261,410L240,310Z" fill="#ffcb6e" stroke="#ffcb6e" stroke-width="1.51"/><path d="M231,686L146,747L233,741Z" fill="#efa157" stroke="#efa157" stroke-width="1.51"/><path d="M233,741L158,843L261,826Z" fill="#e39853" stroke="#e39853" stroke-width="1.51"/><path d="M920,-112L858,-9L941,-47Z" fill="#ffb973" stroke="#ffb973" stroke-width="1.51"/><path d="M1358,403L1382,317L1288,335Z" fill="#cf7622" stroke="#cf7622" stroke-width="1.51"/><path d="M1446,423L1358,403L1360,471Z" fill="#c86818" stroke="#c86818" stroke-width="1.51"/><path d="M1366,821L1370,745L1262,772Z" fill="#b24004" stroke="#b24004" stroke-width="1.51"/><path d="M1186,937L1289,930L1260,841Z" fill="#a73b04" stroke="#a73b04" stroke-width="1.51"/><path d="M1109,1013L1191,990L1186,937Z" fill="#a43b05" stroke="#a43b05" stroke-width="1.51"/><path d="M515,-94L486,-39L583,-5Z" fill="#ffdc8b" stroke="#ffdc8b" stroke-width="1.51"/><path d="M1366,821L1262,772L1260,841Z" fill="#b13f04" stroke="#b13f04" stroke-width="1.51"/><path d="M147,328L164,421L240,310Z" fill="#ffd175" stroke="#ffd175" stroke-width="1.51"/><path d="M1009,-92L941,-47L1039,-38Z" fill="#f9b170" stroke="#f9b170" stroke-width="1.51"/><path d="M1009,-92L920,-112L941,-47Z" fill="#fdb575" stroke="#fdb575" stroke-width="1.51"/><path d="M920,-112L673,-120L838,-107Z" fill="#ffc380" stroke="#ffc380" stroke-width="1.51"/><path d="M838,-107L673,-120L779,-101Z" fill="#ffc782" stroke="#ffc782" stroke-width="1.51"/><path d="M779,-101L673,-120L753,-35Z" fill="#ffc980" stroke="#ffc980" stroke-width="1.51"/><path d="M1094,-98L1009,-92L1039,-38Z" fill="#f6ad70" stroke="#f6ad70" stroke-width="1.51"/><path d="M1094,-98L1039,-38L1108,-4Z" fill="#f4aa6b" stroke="#f4aa6b" stroke-width="1.51"/><path d="M177,599L163,665L231,686Z" fill="#f6aa5c" stroke="#f6aa5c" stroke-width="1.51"/><path d="M79,559L163,665L177,599Z" fill="#fbb164" stroke="#fbb164" stroke-width="1.51"/><path d="M673,-120L611,-108L679,-15Z" fill="#ffd085" stroke="#ffd085" stroke-width="1.51"/><path d="M412,-29L346,41L400,53Z" fill="#ffe495" stroke="#ffe495" stroke-width="1.51"/><path d="M400,53L346,41L345,128Z" fill="#ffe291" stroke="#ffe291" stroke-width="1.51"/><path d="M164,421L143,485L233,497Z" fill="#ffc16a" stroke="#ffc16a" stroke-width="1.51"/><path d="M1266,130L1264,71L1208,82Z" fill="#df9653" stroke="#df9653" stroke-width="1.51"/><path d="M1352,67L1264,71L1266,130Z" fill="#da9453" stroke="#da9453" stroke-width="1.51"/><path d="M176,236L147,328L240,310Z" fill="#ffd97c" stroke="#ffd97c" stroke-width="1.51"/><path d="M76,398L70,476L143,485Z" fill="#ffc773" stroke="#ffc773" stroke-width="1.51"/><path d="M346,41L258,128L345,128Z" fill="#ffe494" stroke="#ffe494" stroke-width="1.51"/><path d="M1191,990L1289,930L1186,937Z" fill="#a13904" stroke="#a13904" stroke-width="1.51"/><path d="M352,937L347,996L437,1008Z" fill="#c07f3c" stroke="#c07f3c" stroke-width="1.51"/><path d="M437,1008L347,996L492,1033Z" fill="#b97a35" stroke="#b97a35" stroke-width="1.51"/><path d="M244,927L347,996L352,937Z" fill="#c58645" stroke="#c58645" stroke-width="1.51"/><path d="M244,927L333,846L261,826Z" fill="#d68f4b" stroke="#d68f4b" stroke-width="1.51"/><path d="M1370,745L1449,647L1386,651Z" fill="#b54707" stroke="#b54707" stroke-width="1.51"/><path d="M1289,930L1366,821L1260,841Z" fill="#a73a04" stroke="#a73a04" stroke-width="1.51"/><path d="M346,41L242,42L258,128Z" fill="#ffe89d" stroke="#ffe89d" stroke-width="1.51"/><path d="M486,-39L412,-29L400,53Z" fill="#ffe291" stroke="#ffe291" stroke-width="1.51"/><path d="M428,-97L412,-29L486,-39Z" fill="#ffe397" stroke="#ffe397" stroke-width="1.51"/><path d="M1380,217L1351,165L1297,240Z" fill="#d2873e" stroke="#d2873e" stroke-width="1.51"/><path d="M1382,317L1380,217L1297,240Z" fill="#cf8132" stroke="#cf8132" stroke-width="1.51"/><path d="M428,-97L515,-94L611,-108Z" fill="#ffde93" stroke="#ffde93" stroke-width="1.51"/><path d="M611,-108L515,-94L583,-5Z" fill="#ffd88b" stroke="#ffd88b" stroke-width="1.51"/><path d="M1382,317L1448,228L1380,217Z" fill="#c97f33" stroke="#c97f33" stroke-width="1.51"/><path d="M1451,474L1360,471L1349,588Z" fill="#c55e11" stroke="#c55e11" stroke-width="1.51"/><path d="M1451,474L1349,588L1458,601Z" fill="#be560f" stroke="#be560f" stroke-width="1.51"/><path d="M1458,601L1349,588L1386,651Z" fill="#bd4f0b" stroke="#bd4f0b" stroke-width="1.51"/><path d="M176,236L240,310L233,252Z" fill="#ffda7f" stroke="#ffda7f" stroke-width="1.51"/><path d="M164,168L176,236L233,252Z" fill="#ffe08c" stroke="#ffe08c" stroke-width="1.51"/><path d="M1467,770L1449,647L1370,745Z" fill="#ae4205" stroke="#ae4205" stroke-width="1.51"/><path d="M1449,647L1458,601L1386,651Z" fill="#b64c0a" stroke="#b64c0a" stroke-width="1.51"/><path d="M1290,-19L1204,-27L1264,71Z" fill="#e19c5f" stroke="#e19c5f" stroke-width="1.51"/><path d="M1264,71L1204,-27L1208,82Z" fill="#e39b5a" stroke="#e39b5a" stroke-width="1.51"/><path d="M1009,-92L1094,-98L920,-112Z" fill="#f9b175" stroke="#f9b175" stroke-width="1.51"/><path d="M1204,-27L1094,-98L1108,-4Z" fill="#efa568" stroke="#efa568" stroke-width="1.51"/><path d="M163,665L146,747L231,686Z" fill="#f1a45b" stroke="#f1a45b" stroke-width="1.51"/><path d="M55,681L146,747L163,665Z" fill="#f3a761" stroke="#f3a761" stroke-width="1.51"/><path d="M158,843L244,927L261,826Z" fill="#d79251" stroke="#d79251" stroke-width="1.51"/><path d="M1446,423L1459,318L1382,317Z" fill="#c47222" stroke="#c47222" stroke-width="1.51"/><path d="M1466,147L1352,67L1351,165Z" fill="#cd8c4c" stroke="#cd8c4c" stroke-width="1.51"/><path d="M1557,397L1459,318L1446,423Z" fill="#bc6b1f" stroke="#bc6b1f" stroke-width="1.51"/><path d="M1531,493L1446,423L1451,474Z" fill="#bc5f15" stroke="#bc5f15" stroke-width="1.51"/><path d="M428,-97L333,-26L412,-29Z" fill="#ffe69e" stroke="#ffe69e" stroke-width="1.51"/><path d="M412,-29L333,-26L346,41Z" fill="#ffe79c" stroke="#ffe79c" stroke-width="1.51"/><path d="M258,128L164,168L233,252Z" fill="#ffe291" stroke="#ffe291" stroke-width="1.51"/><path d="M515,-94L428,-97L486,-39Z" fill="#ffe195" stroke="#ffe195" stroke-width="1.51"/><path d="M673,-120L428,-97L611,-108Z" fill="#ffda90" stroke="#ffda90" stroke-width="1.51"/><path d="M143,485L79,559L177,599Z" fill="#ffb969" stroke="#ffb969" stroke-width="1.51"/><path d="M70,476L79,559L143,485Z" fill="#ffc06f" stroke="#ffc06f" stroke-width="1.51"/><path d="M169,40L164,168L258,128Z" fill="#ffe99f" stroke="#ffe99f" stroke-width="1.51"/><path d="M78,220L55,321L147,328Z" fill="#ffdd86" stroke="#ffdd86" stroke-width="1.51"/><path d="M76,398L143,485L164,421Z" fill="#ffc871" stroke="#ffc871" stroke-width="1.51"/><path d="M146,747L158,843L233,741Z" fill="#e89c57" stroke="#e89c57" stroke-width="1.51"/><path d="M68,768L158,843L146,747Z" fill="#e69e5d" stroke="#e69e5d" stroke-width="1.51"/><path d="M76,398L164,421L147,328Z" fill="#ffcf78" stroke="#ffcf78" stroke-width="1.51"/><path d="M1204,-27L1204,-92L1094,-98Z" fill="#eda46b" stroke="#eda46b" stroke-width="1.51"/><path d="M1351,165L1352,67L1266,130Z" fill="#d5904e" stroke="#d5904e" stroke-width="1.51"/><path d="M1466,147L1351,165L1380,217Z" fill="#ca8743" stroke="#ca8743" stroke-width="1.51"/><path d="M169,40L242,42L174,-47Z" fill="#fff0ae" stroke="#fff0ae" stroke-width="1.51"/><path d="M333,-26L242,42L346,41Z" fill="#ffeaa1" stroke="#ffeaa1" stroke-width="1.51"/><path d="M1459,318L1448,228L1382,317Z" fill="#c47a2b" stroke="#c47a2b" stroke-width="1.51"/><path d="M55,321L76,398L147,328Z" fill="#ffd57f" stroke="#ffd57f" stroke-width="1.51"/><path d="M1289,930L1387,942L1366,821Z" fill="#9c3504" stroke="#9c3504" stroke-width="1.51"/><path d="M1366,821L1467,770L1370,745Z" fill="#aa3d04" stroke="#aa3d04" stroke-width="1.51"/><path d="M1191,990L1295,1026L1289,930Z" fill="#983605" stroke="#983605" stroke-width="1.51"/><path d="M1109,1013L1295,1026L1191,990Z" fill="#9a3806" stroke="#9a3806" stroke-width="1.51"/><path d="M931,1032L1295,1026L1109,1013Z" fill="#a03d07" stroke="#a03d07" stroke-width="1.51"/><path d="M1458,601L1531,493L1451,474Z" fill="#b85812" stroke="#b85812" stroke-width="1.51"/><path d="M1541,589L1531,493L1458,601Z" fill="#b2510f" stroke="#b2510f" stroke-width="1.51"/><path d="M1458,826L1467,770L1366,821Z" fill="#a23904" stroke="#a23904" stroke-width="1.51"/><path d="M1352,67L1290,-19L1264,71Z" fill="#da965a" stroke="#da965a" stroke-width="1.51"/><path d="M1094,-98L1262,-111L920,-112Z" fill="#f4aa72" stroke="#f4aa72" stroke-width="1.51"/><path d="M1262,-111L1204,-92L1204,-27Z" fill="#e6a06a" stroke="#e6a06a" stroke-width="1.51"/><path d="M1379,993L1387,942L1289,930Z" fill="#923205" stroke="#923205" stroke-width="1.51"/><path d="M1464,904L1458,826L1366,821Z" fill="#9a3605" stroke="#9a3605" stroke-width="1.51"/><path d="M1458,601L1449,647L1542,657Z" fill="#b0490b" stroke="#b0490b" stroke-width="1.51"/><path d="M1541,589L1458,601L1542,657Z" fill="#ae4a0c" stroke="#ae4a0c" stroke-width="1.51"/><path d="M1522,154L1466,147L1448,228Z" fill="#c08343" stroke="#c08343" stroke-width="1.51"/><path d="M165,935L226,1001L244,927Z" fill="#c68b50" stroke="#c68b50" stroke-width="1.51"/><path d="M244,927L226,1001L347,996Z" fill="#c2874a" stroke="#c2874a" stroke-width="1.51"/><path d="M347,996L226,1001L492,1033Z" fill="#ba7f3f" stroke="#ba7f3f" stroke-width="1.51"/><path d="M79,559L55,681L163,665Z" fill="#f9af67" stroke="#f9af67" stroke-width="1.51"/><path d="M158,843L165,935L244,927Z" fill="#d19053" stroke="#d19053" stroke-width="1.51"/><path d="M-6,656L55,681L79,559Z" fill="#fab16c" stroke="#fab16c" stroke-width="1.51"/><path d="M82,915L165,935L158,843Z" fill="#d29358" stroke="#d29358" stroke-width="1.51"/><path d="M70,476L-12,505L79,559Z" fill="#ffc073" stroke="#ffc073" stroke-width="1.51"/><path d="M-17,388L-12,505L70,476Z" fill="#ffc87a" stroke="#ffc87a" stroke-width="1.51"/><path d="M78,220L147,328L176,236Z" fill="#ffde89" stroke="#ffde89" stroke-width="1.51"/><path d="M78,220L176,236L164,168Z" fill="#ffe493" stroke="#ffe493" stroke-width="1.51"/><path d="M1542,657L1449,647L1530,742Z" fill="#a84309" stroke="#a84309" stroke-width="1.51"/><path d="M1387,942L1464,904L1366,821Z" fill="#973305" stroke="#973305" stroke-width="1.51"/><path d="M1295,1026L1379,993L1289,930Z" fill="#913205" stroke="#913205" stroke-width="1.51"/><path d="M55,681L68,768L146,747Z" fill="#efa461" stroke="#efa461" stroke-width="1.51"/><path d="M65,136L78,220L164,168Z" fill="#ffe89e" stroke="#ffe89e" stroke-width="1.51"/><path d="M1530,742L1449,647L1467,770Z" fill="#a84006" stroke="#a84006" stroke-width="1.51"/><path d="M1530,742L1467,770L1533,843Z" fill="#9b3806" stroke="#9b3806" stroke-width="1.51"/><path d="M1542,229L1448,228L1459,318Z" fill="#be7a31" stroke="#be7a31" stroke-width="1.51"/><path d="M1448,228L1466,147L1380,217Z" fill="#c6833f" stroke="#c6833f" stroke-width="1.51"/><path d="M1355,-40L1262,-111L1290,-19Z" fill="#db9a66" stroke="#db9a66" stroke-width="1.51"/><path d="M242,42L169,40L258,128Z" fill="#ffeba3" stroke="#ffeba3" stroke-width="1.51"/><path d="M244,-47L242,42L333,-26Z" fill="#ffeda9" stroke="#ffeda9" stroke-width="1.51"/><path d="M1533,843L1467,770L1458,826Z" fill="#993705" stroke="#993705" stroke-width="1.51"/><path d="M1542,657L1557,397L1541,589Z" fill="#af5211" stroke="#af5211" stroke-width="1.51"/><path d="M1541,589L1557,397L1531,493Z" fill="#b25914" stroke="#b25914" stroke-width="1.51"/><path d="M1531,493L1557,397L1446,423Z" fill="#b96218" stroke="#b96218" stroke-width="1.51"/><path d="M310,-108L244,-47L333,-26Z" fill="#ffeead" stroke="#ffeead" stroke-width="1.51"/><path d="M428,-97L310,-108L333,-26Z" fill="#ffeaa7" stroke="#ffeaa7" stroke-width="1.51"/><path d="M673,-120L310,-108L428,-97Z" fill="#ffe39a" stroke="#ffe39a" stroke-width="1.51"/><path d="M1290,-19L1262,-111L1204,-27Z" fill="#e29e66" stroke="#e29e66" stroke-width="1.51"/><path d="M1204,-92L1262,-111L1094,-98Z" fill="#eba36e" stroke="#eba36e" stroke-width="1.51"/><path d="M920,-112L1453,-129L673,-120Z" fill="#f9b178" stroke="#f9b178" stroke-width="1.51"/><path d="M1355,-40L1290,-19L1352,67Z" fill="#d6975e" stroke="#d6975e" stroke-width="1.51"/><path d="M1434,1010L1464,904L1387,942Z" fill="#892f05" stroke="#892f05" stroke-width="1.51"/><path d="M79,990L171,1001L165,935Z" fill="#c38d57" stroke="#c38d57" stroke-width="1.51"/><path d="M165,935L171,1001L226,1001Z" fill="#c28a52" stroke="#c28a52" stroke-width="1.51"/><path d="M226,1001L171,1001L492,1033Z" fill="#ba8347" stroke="#ba8347" stroke-width="1.51"/><path d="M1452,46L1355,-40L1352,67Z" fill="#cf925a" stroke="#cf925a" stroke-width="1.51"/><path d="M1557,397L1558,320L1459,318Z" fill="#b86e23" stroke="#b86e23" stroke-width="1.51"/><path d="M-17,388L70,476L76,398Z" fill="#ffcd7c" stroke="#ffcd7c" stroke-width="1.51"/><path d="M4,752L57,844L68,768Z" fill="#e8a064" stroke="#e8a064" stroke-width="1.51"/><path d="M-17,388L76,398L55,321Z" fill="#ffd482" stroke="#ffd482" stroke-width="1.51"/><path d="M68,768L57,844L158,843Z" fill="#e19c5e" stroke="#e19c5e" stroke-width="1.51"/><path d="M4,752L68,768L55,681Z" fill="#f0a666" stroke="#f0a666" stroke-width="1.51"/><path d="M1558,320L1542,229L1459,318Z" fill="#b9762b" stroke="#b9762b" stroke-width="1.51"/><path d="M1466,147L1452,46L1352,67Z" fill="#c98c51" stroke="#c98c51" stroke-width="1.51"/><path d="M-28,590L-6,656L79,559Z" fill="#fdb571" stroke="#fdb571" stroke-width="1.51"/><path d="M1541,70L1452,46L1466,147Z" fill="#c18950" stroke="#c18950" stroke-width="1.51"/><path d="M310,-108L256,-103L244,-47Z" fill="#fff0b4" stroke="#fff0b4" stroke-width="1.51"/><path d="M244,-47L174,-47L242,42Z" fill="#fff0af" stroke="#fff0af" stroke-width="1.51"/><path d="M57,844L82,915L158,843Z" fill="#d8975d" stroke="#d8975d" stroke-width="1.51"/><path d="M-12,505L-28,590L79,559Z" fill="#ffbc74" stroke="#ffbc74" stroke-width="1.51"/><path d="M-36,338L-17,388L55,321Z" fill="#ffd888" stroke="#ffd888" stroke-width="1.51"/><path d="M-36,338L55,321L-22,216Z" fill="#ffdf8f" stroke="#ffdf8f" stroke-width="1.51"/><path d="M169,40L65,136L164,168Z" fill="#ffeca5" stroke="#ffeca5" stroke-width="1.51"/><path d="M73,46L65,136L169,40Z" fill="#fff0ae" stroke="#fff0ae" stroke-width="1.51"/><path d="M1542,657L1561,992L1557,397Z" fill="#a24109" stroke="#a24109" stroke-width="1.51"/><path d="M1530,742L1533,843L1542,657Z" fill="#9e3a06" stroke="#9e3a06" stroke-width="1.51"/><path d="M1464,904L1533,843L1458,826Z" fill="#923305" stroke="#923305" stroke-width="1.51"/><path d="M1527,905L1533,843L1464,904Z" fill="#8b3005" stroke="#8b3005" stroke-width="1.51"/><path d="M1379,993L1434,1010L1387,942Z" fill="#872f06" stroke="#872f06" stroke-width="1.51"/><path d="M1295,1026L1434,1010L1379,993Z" fill="#872e05" stroke="#872e05" stroke-width="1.51"/><path d="M1542,229L1522,154L1448,228Z" fill="#bc7f3d" stroke="#bc7f3d" stroke-width="1.51"/><path d="M-95,560L-28,590L-12,505Z" fill="#ffbd79" stroke="#ffbd79" stroke-width="1.51"/><path d="M-24,906L79,990L82,915Z" fill="#cc9360" stroke="#cc9360" stroke-width="1.51"/><path d="M-6,656L4,752L55,681Z" fill="#f4ab6a" stroke="#f4ab6a" stroke-width="1.51"/><path d="M-99,766L4,752L-6,656Z" fill="#f2a86e" stroke="#f2a86e" stroke-width="1.51"/><path d="M256,-103L174,-47L244,-47Z" fill="#fff1b6" stroke="#fff1b6" stroke-width="1.51"/><path d="M1561,992L1527,905L1464,904Z" fill="#822e06" stroke="#822e06" stroke-width="1.51"/><path d="M-113,409L-95,508L-12,505Z" fill="#ffc782" stroke="#ffc782" stroke-width="1.51"/><path d="M-22,216L55,321L78,220Z" fill="#ffe294" stroke="#ffe294" stroke-width="1.51"/><path d="M1452,46L1439,-35L1355,-40Z" fill="#cc925e" stroke="#cc925e" stroke-width="1.51"/><path d="M1355,-40L1387,-106L1262,-111Z" fill="#d89969" stroke="#d89969" stroke-width="1.51"/><path d="M1559,-21L1439,-35L1452,46Z" fill="#c28f5d" stroke="#c28f5d" stroke-width="1.51"/><path d="M65,136L-22,216L78,220Z" fill="#ffe9a1" stroke="#ffe9a1" stroke-width="1.51"/><path d="M73,-14L73,46L169,40Z" fill="#fff3b4" stroke="#fff3b4" stroke-width="1.51"/><path d="M-5,857L82,915L57,844Z" fill="#d89861" stroke="#d89861" stroke-width="1.51"/><path d="M82,915L79,990L165,935Z" fill="#c9905a" stroke="#c9905a" stroke-width="1.51"/><path d="M1439,-35L1387,-106L1355,-40Z" fill="#d09565" stroke="#d09565" stroke-width="1.51"/><path d="M-20,128L-22,216L65,136Z" fill="#ffecaa" stroke="#ffecaa" stroke-width="1.51"/><path d="M4,752L-5,857L57,844Z" fill="#e39e65" stroke="#e39e65" stroke-width="1.51"/><path d="M-24,906L-5,857L-92,817Z" fill="#db9b69" stroke="#db9b69" stroke-width="1.51"/><path d="M1439,-35L1453,-129L1387,-106Z" fill="#cc9468" stroke="#cc9468" stroke-width="1.51"/><path d="M1522,154L1541,70L1466,147Z" fill="#bc854b" stroke="#bc854b" stroke-width="1.51"/><path d="M1542,229L1541,70L1522,154Z" fill="#b98247" stroke="#b98247" stroke-width="1.51"/><path d="M1559,-21L1541,70L1542,229Z" fill="#b8854f" stroke="#b8854f" stroke-width="1.51"/><path d="M-113,409L-12,505L-17,388Z" fill="#ffcc83" stroke="#ffcc83" stroke-width="1.51"/><path d="M-28,590L-123,676L-6,656Z" fill="#fbb275" stroke="#fbb275" stroke-width="1.51"/><path d="M-113,409L-17,388L-36,338Z" fill="#ffd58a" stroke="#ffd58a" stroke-width="1.51"/><path d="M-95,508L-95,560L-12,505Z" fill="#ffc17d" stroke="#ffc17d" stroke-width="1.51"/><path d="M51,-98L73,-14L174,-47Z" fill="#fff7c0" stroke="#fff7c0" stroke-width="1.51"/><path d="M174,-47L73,-14L169,40Z" fill="#fff4b6" stroke="#fff4b6" stroke-width="1.51"/><path d="M73,46L-20,128L65,136Z" fill="#fff0b0" stroke="#fff0b0" stroke-width="1.51"/><path d="M256,-103L156,-120L174,-47Z" fill="#fff4bb" stroke="#fff4bb" stroke-width="1.51"/><path d="M310,-108L156,-120L256,-103Z" fill="#fff2ba" stroke="#fff2ba" stroke-width="1.51"/><path d="M673,-120L156,-120L310,-108Z" fill="#ffe9a8" stroke="#ffe9a8" stroke-width="1.51"/><path d="M-31,61L-20,128L73,46Z" fill="#fff2b6" stroke="#fff2b6" stroke-width="1.51"/><path d="M-117,301L-113,409L-36,338Z" fill="#ffd991" stroke="#ffd991" stroke-width="1.51"/><path d="M-5,857L-24,906L82,915Z" fill="#d59763" stroke="#d59763" stroke-width="1.51"/><path d="M-92,817L-5,857L4,752Z" fill="#e5a06a" stroke="#e5a06a" stroke-width="1.51"/><path d="M-95,508L-123,676L-95,560Z" fill="#ffba7d" stroke="#ffba7d" stroke-width="1.51"/><path d="M-117,301L-36,338L-22,216Z" fill="#ffe196" stroke="#ffe196" stroke-width="1.51"/><path d="M1434,1010L1561,992L1464,904Z" fill="#802d06" stroke="#802d06" stroke-width="1.51"/><path d="M1527,905L1561,992L1533,843Z" fill="#832d06" stroke="#832d06" stroke-width="1.51"/><path d="M1533,843L1561,992L1542,657Z" fill="#8f3306" stroke="#8f3306" stroke-width="1.51"/><path d="M1557,397L1561,992L1558,320Z" fill="#ac4e10" stroke="#ac4e10" stroke-width="1.51"/><path d="M-123,676L-99,766L-6,656Z" fill="#f5ab73" stroke="#f5ab73" stroke-width="1.51"/><path d="M-123,676L-28,590L-95,560Z" fill="#feb679" stroke="#feb679" stroke-width="1.51"/><path d="M1524,-101L1453,-129L1439,-35Z" fill="#c59167" stroke="#c59167" stroke-width="1.51"/><path d="M1387,-106L1453,-129L1262,-111Z" fill="#d4976c" stroke="#d4976c" stroke-width="1.51"/><path d="M1262,-111L1453,-129L920,-112Z" fill="#e8a270" stroke="#e8a270" stroke-width="1.51"/><path d="M673,-120L-2,-122L156,-120Z" fill="#fff0b8" stroke="#fff0b8" stroke-width="1.51"/><path d="M-113,409L-123,676L-95,508Z" fill="#ffc181" stroke="#ffc181" stroke-width="1.51"/><path d="M-113,409L-122,249L-123,676Z" fill="#ffcc88" stroke="#ffcc88" stroke-width="1.51"/><path d="M-122,249L-117,301L-22,216Z" fill="#ffe59f" stroke="#ffe59f" stroke-width="1.51"/><path d="M-97,909L-92,817L-99,766Z" fill="#e19e6f" stroke="#e19e6f" stroke-width="1.51"/><path d="M-99,766L-92,817L4,752Z" fill="#eba36e" stroke="#eba36e" stroke-width="1.51"/><path d="M-111,149L-122,249L-22,216Z" fill="#ffeaaa" stroke="#ffeaaa" stroke-width="1.51"/><path d="M-1,-21L-31,61L73,46Z" fill="#fff6bd" stroke="#fff6bd" stroke-width="1.51"/><path d="M-1,-21L73,46L73,-14Z" fill="#fff7be" stroke="#fff7be" stroke-width="1.51"/><path d="M1541,70L1559,-21L1452,46Z" fill="#bd8b58" stroke="#bd8b58" stroke-width="1.51"/><path d="M1558,320L1559,-21L1542,229Z" fill="#b67f42" stroke="#b67f42" stroke-width="1.51"/><path d="M1561,992L1559,-21L1558,320Z" fill="#b36119" stroke="#b36119" stroke-width="1.51"/><path d="M-117,301L-122,249L-113,409Z" fill="#ffde96" stroke="#ffde96" stroke-width="1.51"/><path d="M-111,149L-22,216L-20,128Z" fill="#ffeeaf" stroke="#ffeeaf" stroke-width="1.51"/><path d="M-112,73L-111,149L-20,128Z" fill="#fff2ba" stroke="#fff2ba" stroke-width="1.51"/><path d="M51,-98L-1,-21L73,-14Z" fill="#fff8c5" stroke="#fff8c5" stroke-width="1.51"/><path d="M156,-120L51,-98L174,-47Z" fill="#fff6c2" stroke="#fff6c2" stroke-width="1.51"/><path d="M1559,-21L1524,-101L1439,-35Z" fill="#c08f62" stroke="#c08f62" stroke-width="1.51"/><path d="M-97,909L-31,1014L-24,906Z" fill="#cc9468" stroke="#cc9468" stroke-width="1.51"/><path d="M-24,906L-31,1014L79,990Z" fill="#c69162" stroke="#c69162" stroke-width="1.51"/><path d="M79,990L-31,1014L171,1001Z" fill="#bf8d5c" stroke="#bf8d5c" stroke-width="1.51"/><path d="M171,1001L-108,1030L492,1033Z" fill="#ba8752" stroke="#ba8752" stroke-width="1.51"/><path d="M-112,73L-20,128L-31,61Z" fill="#fff3bb" stroke="#fff3bb" stroke-width="1.51"/><path d="M-92,817L-97,909L-24,906Z" fill="#d9996b" stroke="#d9996b" stroke-width="1.51"/><path d="M-123,676L-97,909L-99,766Z" fill="#eaa372" stroke="#eaa372" stroke-width="1.51"/><path d="M-119,-30L-112,73L-31,61Z" fill="#fff7c6" stroke="#fff7c6" stroke-width="1.51"/><path d="M-111,149L-112,73L-122,249Z" fill="#ffefb6" stroke="#ffefb6" stroke-width="1.51"/><path d="M-119,-30L-31,61L-1,-21Z" fill="#fff9c7" stroke="#fff9c7" stroke-width="1.51"/><path d="M51,-98L-2,-122L-1,-21Z" fill="#fffacc" stroke="#fffacc" stroke-width="1.51"/><path d="M156,-120L-2,-122L51,-98Z" fill="#fffacc" stroke="#fffacc" stroke-width="1.51"/><path d="M1453,-129L-2,-122L673,-120Z" fill="#ffcc87" stroke="#ffcc87" stroke-width="1.51"/><path d="M-97,909L-108,1030L-31,1014Z" fill="#c4916a" stroke="#c4916a" stroke-width="1.51"/><path d="M-31,1014L-108,1030L171,1001Z" fill="#bd8d62" stroke="#bd8d62" stroke-width="1.51"/><path d="M-123,676L-108,1030L-97,909Z" fill="#da9b6f" stroke="#da9b6f" stroke-width="1.51"/><path d="M-81,-100L-119,-30L-1,-21Z" fill="#fffad0" stroke="#fffad0" stroke-width="1.51"/><path d="M-112,73L-119,-30L-122,249Z" fill="#fff4c0" stroke="#fff4c0" stroke-width="1.51"/><path d="M-2,-122L-81,-100L-1,-21Z" fill="#fffbd0" stroke="#fffbd0" stroke-width="1.51"/></svg>