<svg xmlns="http://www.w3.org/2000/svg" width="1440" height="900"><path d="M751,474L768,559L829,481Z" fill="#5bbc95" stroke="#5bbc95" stroke-width="1.51"/><path d="M768,559L853,595L829,481Z" fill="#53b78b" stroke="#53b78b" stroke-width="1.51"/><path d="M751,474L667,514L768,559Z" fill="#5ebd99" stroke="#5ebd99" stroke-width="1.51"/><path d="M829,481L755,394L751,474Z" fill="#62c09d" stroke="#62c09d" stroke-width="1.51"/><path d="M751,474L686,388L667,514Z" fill="#68c3a4" stroke="#68c3a4" stroke-width="1.51"/><path d="M768,559L776,644L853,595Z" fill="#4eb485" stroke="#4eb485" stroke-width="1.51"/><path d="M670,598L776,644L768,559Z" fill="#53b78b" stroke="#53b78b" stroke-width="1.51"/><path d="M829,481L871,403L755,394Z" fill="#63c09c" stroke="#63c09c" stroke-width="1.51"/><path d="M932,481L871,403L829,481Z" fill="#59ba92" stroke="#59ba92" stroke-width="1.51"/><path d="M667,514L670,598L768,559Z" fill="#5dbc95" stroke="#5dbc95" stroke-width="1.51"/><path d="M853,595L932,481L829,481Z" fill="#52b789" stroke="#52b789" stroke-width="1.51"/><path d="M755,394L686,388L751,474Z" fill="#6bc4a7" stroke="#6bc4a7" stroke-width="1.51"/><path d="M680,332L686,388L755,394Z" fill="#75c8ae" stroke="#75c8ae" stroke-width="1.51"/><path d="M776,644L854,662L853,595Z" fill="#49af7c" stroke="#49af7c" stroke-width="1.51"/><path d="M853,595L953,578L932,481Z" fill="#4ab280" stroke="#4ab280" stroke-width="1.51"/><path d="M933,684L953,578L853,595Z" fill="#42ad75" stroke="#42ad75" stroke-width="1.51"/><path d="M670,598L675,651L776,644Z" fill="#54b589" stroke="#54b589" stroke-width="1.51"/><path d="M776,644L851,750L854,662Z" fill="#44a974" stroke="#44a974" stroke-width="1.51"/><path d="M932,481L952,422L871,403Z" fill="#59ba91" stroke="#59ba91" stroke-width="1.51"/><path d="M1025,477L952,422L932,481Z" fill="#52b487" stroke="#52b487" stroke-width="1.51"/><path d="M850,304L766,315L755,394Z" fill="#74c7aa" stroke="#74c7aa" stroke-width="1.51"/><path d="M850,304L755,394L871,403Z" fill="#6dc3a2" stroke="#6dc3a2" stroke-width="1.51"/><path d="M670,598L597,590L675,651Z" fill="#5dba91" stroke="#5dba91" stroke-width="1.51"/><path d="M667,514L597,590L670,598Z" fill="#63be98" stroke="#63be98" stroke-width="1.51"/><path d="M574,482L597,590L667,514Z" fill="#6bc3a1" stroke="#6bc3a1" stroke-width="1.51"/><path d="M569,421L574,482L667,514Z" fill="#72c7aa" stroke="#72c7aa" stroke-width="1.51"/><path d="M766,315L680,332L755,394Z" fill="#77c9af" stroke="#77c9af" stroke-width="1.51"/><path d="M569,421L667,514L686,388Z" fill="#71c7ab" stroke="#71c7ab" stroke-width="1.51"/><path d="M944,337L850,304L871,403Z" fill="#6bc29e" stroke="#6bc29e" stroke-width="1.51"/><path d="M854,662L933,684L853,595Z" fill="#43ab74" stroke="#43ab74" stroke-width="1.51"/><path d="M851,750L933,684L854,662Z" fill="#3ea56c" stroke="#3ea56c" stroke-width="1.51"/><path d="M953,578L1025,477L932,481Z" fill="#4bb17f" stroke="#4bb17f" stroke-width="1.51"/><path d="M933,684L1006,582L953,578Z" fill="#3eaa71" stroke="#3eaa71" stroke-width="1.51"/><path d="M952,422L944,337L871,403Z" fill="#62bd96" stroke="#62bd96" stroke-width="1.51"/><path d="M1042,399L944,337L952,422Z" fill="#5eb990" stroke="#5eb990" stroke-width="1.51"/><path d="M610,314L569,421L686,388Z" fill="#7fccb5" stroke="#7fccb5" stroke-width="1.51"/><path d="M1006,582L1025,477L953,578Z" fill="#45ac78" stroke="#45ac78" stroke-width="1.51"/><path d="M675,651L743,751L776,644Z" fill="#4dae7f" stroke="#4dae7f" stroke-width="1.51"/><path d="M664,771L743,751L675,651Z" fill="#4eab7a" stroke="#4eab7a" stroke-width="1.51"/><path d="M743,751L851,750L776,644Z" fill="#45a873" stroke="#45a873" stroke-width="1.51"/><path d="M597,590L572,660L675,651Z" fill="#60b990" stroke="#60b990" stroke-width="1.51"/><path d="M515,587L572,660L597,590Z" fill="#68bf98" stroke="#68bf98" stroke-width="1.51"/><path d="M515,587L597,590L574,482Z" fill="#6ec3a2" stroke="#6ec3a2" stroke-width="1.51"/><path d="M680,332L610,314L686,388Z" fill="#80cdb6" stroke="#80cdb6" stroke-width="1.51"/><path d="M693,225L610,314L680,332Z" fill="#89d1bc" stroke="#89d1bc" stroke-width="1.51"/><path d="M693,225L680,332L766,315Z" fill="#83ceb8" stroke="#83ceb8" stroke-width="1.51"/><path d="M850,304L837,249L766,315Z" fill="#7ac9ad" stroke="#7ac9ad" stroke-width="1.51"/><path d="M927,213L837,249L850,304Z" fill="#7dc9aa" stroke="#7dc9aa" stroke-width="1.51"/><path d="M837,249L776,243L766,315Z" fill="#80ccb1" stroke="#80ccb1" stroke-width="1.51"/><path d="M1025,477L1042,399L952,422Z" fill="#54b387" stroke="#54b387" stroke-width="1.51"/><path d="M944,337L927,213L850,304Z" fill="#75c6a3" stroke="#75c6a3" stroke-width="1.51"/><path d="M1088,475L1042,399L1025,477Z" fill="#4eae80" stroke="#4eae80" stroke-width="1.51"/><path d="M500,484L515,587L574,482Z" fill="#76c7aa" stroke="#76c7aa" stroke-width="1.51"/><path d="M582,751L664,771L675,651Z" fill="#55ad7f" stroke="#55ad7f" stroke-width="1.51"/><path d="M743,751L742,823L851,750Z" fill="#41a26b" stroke="#41a26b" stroke-width="1.51"/><path d="M569,421L500,484L574,482Z" fill="#7acab0" stroke="#7acab0" stroke-width="1.51"/><path d="M490,414L500,484L569,421Z" fill="#80cdb6" stroke="#80cdb6" stroke-width="1.51"/><path d="M933,684L1037,662L1006,582Z" fill="#3aa468" stroke="#3aa468" stroke-width="1.51"/><path d="M1006,582L1088,475L1025,477Z" fill="#47ab77" stroke="#47ab77" stroke-width="1.51"/><path d="M1035,735L1037,662L933,684Z" fill="#359d5f" stroke="#359d5f" stroke-width="1.51"/><path d="M851,750L940,765L933,684Z" fill="#37a063" stroke="#37a063" stroke-width="1.51"/><path d="M916,824L940,765L851,750Z" fill="#349b5e" stroke="#349b5e" stroke-width="1.51"/><path d="M762,154L693,225L776,243Z" fill="#8fd2bc" stroke="#8fd2bc" stroke-width="1.51"/><path d="M776,243L693,225L766,315Z" fill="#85cfb7" stroke="#85cfb7" stroke-width="1.51"/><path d="M1127,579L1088,475L1006,582Z" fill="#40a66f" stroke="#40a66f" stroke-width="1.51"/><path d="M511,333L490,414L569,421Z" fill="#88d1bc" stroke="#88d1bc" stroke-width="1.51"/><path d="M511,333L569,421L610,314Z" fill="#89d1bd" stroke="#89d1bd" stroke-width="1.51"/><path d="M664,771L742,823L743,751Z" fill="#46a372" stroke="#46a372" stroke-width="1.51"/><path d="M664,771L688,860L742,823Z" fill="#46a070" stroke="#46a070" stroke-width="1.51"/><path d="M572,660L582,751L675,651Z" fill="#5cb388" stroke="#5cb388" stroke-width="1.51"/><path d="M522,756L582,751L572,660Z" fill="#60b286" stroke="#60b286" stroke-width="1.51"/><path d="M742,823L847,831L851,750Z" fill="#3c9d66" stroke="#3c9d66" stroke-width="1.51"/><path d="M1042,399L1043,307L944,337Z" fill="#63b990" stroke="#63b990" stroke-width="1.51"/><path d="M1124,327L1043,307L1042,399Z" fill="#60b48a" stroke="#60b48a" stroke-width="1.51"/><path d="M519,248L511,333L610,314Z" fill="#94d6c5" stroke="#94d6c5" stroke-width="1.51"/><path d="M1009,213L927,213L944,337Z" fill="#77c4a0" stroke="#77c4a0" stroke-width="1.51"/><path d="M837,249L762,154L776,243Z" fill="#8acfb7" stroke="#8acfb7" stroke-width="1.51"/><path d="M693,225L596,237L610,314Z" fill="#91d4c2" stroke="#91d4c2" stroke-width="1.51"/><path d="M1037,662L1127,579L1006,582Z" fill="#39a367" stroke="#39a367" stroke-width="1.51"/><path d="M940,765L1035,735L933,684Z" fill="#339d5d" stroke="#339d5d" stroke-width="1.51"/><path d="M1016,835L1035,735L940,765Z" fill="#2c9554" stroke="#2c9554" stroke-width="1.51"/><path d="M847,831L916,824L851,750Z" fill="#369a60" stroke="#369a60" stroke-width="1.51"/><path d="M515,587L495,684L572,660Z" fill="#6abd96" stroke="#6abd96" stroke-width="1.51"/><path d="M438,565L495,684L515,587Z" fill="#72c39e" stroke="#72c39e" stroke-width="1.51"/><path d="M438,565L515,587L500,484Z" fill="#79c8a9" stroke="#79c8a9" stroke-width="1.51"/><path d="M1088,475L1110,402L1042,399Z" fill="#51ae7f" stroke="#51ae7f" stroke-width="1.51"/><path d="M1187,497L1110,402L1088,475Z" fill="#48a875" stroke="#48a875" stroke-width="1.51"/><path d="M1108,680L1127,579L1037,662Z" fill="#339d5e" stroke="#339d5e" stroke-width="1.51"/><path d="M397,507L438,565L500,484Z" fill="#80ccb0" stroke="#80ccb0" stroke-width="1.51"/><path d="M430,405L500,484L490,414Z" fill="#87d0ba" stroke="#87d0ba" stroke-width="1.51"/><path d="M693,225L668,159L596,237Z" fill="#98d7c5" stroke="#98d7c5" stroke-width="1.51"/><path d="M861,137L762,154L837,249Z" fill="#8ed1b7" stroke="#8ed1b7" stroke-width="1.51"/><path d="M585,823L688,860L664,771Z" fill="#4da374" stroke="#4da374" stroke-width="1.51"/><path d="M495,684L522,756L572,660Z" fill="#65b68c" stroke="#65b68c" stroke-width="1.51"/><path d="M421,758L522,756L495,684Z" fill="#68b48a" stroke="#68b48a" stroke-width="1.51"/><path d="M742,823L759,928L847,831Z" fill="#3a9864" stroke="#3a9864" stroke-width="1.51"/><path d="M949,924L1016,835L916,824Z" fill="#288f51" stroke="#288f51" stroke-width="1.51"/><path d="M585,823L664,771L582,751Z" fill="#55a97a" stroke="#55a97a" stroke-width="1.51"/><path d="M1035,735L1108,680L1037,662Z" fill="#319959" stroke="#319959" stroke-width="1.51"/><path d="M762,154L668,159L693,225Z" fill="#97d6c3" stroke="#97d6c3" stroke-width="1.51"/><path d="M1043,307L1009,213L944,337Z" fill="#6fbf99" stroke="#6fbf99" stroke-width="1.51"/><path d="M927,213L861,137L837,249Z" fill="#87cdaf" stroke="#87cdaf" stroke-width="1.51"/><path d="M1122,244L1009,213L1043,307Z" fill="#71bc94" stroke="#71bc94" stroke-width="1.51"/><path d="M522,756L585,823L582,751Z" fill="#5bac7f" stroke="#5bac7f" stroke-width="1.51"/><path d="M511,333L430,405L490,414Z" fill="#8fd4c0" stroke="#8fd4c0" stroke-width="1.51"/><path d="M399,315L430,405L511,333Z" fill="#98d7c6" stroke="#98d7c6" stroke-width="1.51"/><path d="M519,248L610,314L596,237Z" fill="#97d7c6" stroke="#97d7c6" stroke-width="1.51"/><path d="M489,152L519,248L596,237Z" fill="#a4dcce" stroke="#a4dcce" stroke-width="1.51"/><path d="M952,162L861,137L927,213Z" fill="#89cdad" stroke="#89cdad" stroke-width="1.51"/><path d="M696,45L600,138L668,159Z" fill="#a5dccc" stroke="#a5dccc" stroke-width="1.51"/><path d="M1176,339L1124,327L1110,402Z" fill="#5aae80" stroke="#5aae80" stroke-width="1.51"/><path d="M1110,402L1124,327L1042,399Z" fill="#5ab183" stroke="#5ab183" stroke-width="1.51"/><path d="M1009,213L952,162L927,213Z" fill="#81c8a5" stroke="#81c8a5" stroke-width="1.51"/><path d="M430,405L397,507L500,484Z" fill="#87cfb8" stroke="#87cfb8" stroke-width="1.51"/><path d="M438,565L407,681L495,684Z" fill="#74c19b" stroke="#74c19b" stroke-width="1.51"/><path d="M1035,735L1127,767L1108,680Z" fill="#2b9350" stroke="#2b9350" stroke-width="1.51"/><path d="M916,824L1016,835L940,765Z" fill="#2d9556" stroke="#2d9556" stroke-width="1.51"/><path d="M949,924L916,824L847,831Z" fill="#2e9357" stroke="#2e9357" stroke-width="1.51"/><path d="M1127,579L1187,497L1088,475Z" fill="#41a36c" stroke="#41a36c" stroke-width="1.51"/><path d="M1192,579L1187,497L1127,579Z" fill="#399f64" stroke="#399f64" stroke-width="1.51"/><path d="M1179,652L1192,579L1127,579Z" fill="#329b5c" stroke="#329b5c" stroke-width="1.51"/><path d="M1179,652L1127,579L1108,680Z" fill="#309959" stroke="#309959" stroke-width="1.51"/><path d="M339,560L407,681L438,565Z" fill="#7ec8a6" stroke="#7ec8a6" stroke-width="1.51"/><path d="M522,756L490,854L585,823Z" fill="#5ca97e" stroke="#5ca97e" stroke-width="1.51"/><path d="M1204,739L1179,652L1108,680Z" fill="#29914e" stroke="#29914e" stroke-width="1.51"/><path d="M696,45L668,159L762,154Z" fill="#9fd9c7" stroke="#9fd9c7" stroke-width="1.51"/><path d="M668,159L600,138L596,237Z" fill="#a1daca" stroke="#a1daca" stroke-width="1.51"/><path d="M688,860L759,928L742,823Z" fill="#3e9968" stroke="#3e9968" stroke-width="1.51"/><path d="M673,918L759,928L688,860Z" fill="#3e9767" stroke="#3e9767" stroke-width="1.51"/><path d="M585,908L688,860L585,823Z" fill="#4da072" stroke="#4da072" stroke-width="1.51"/><path d="M585,908L673,918L688,860Z" fill="#479b6d" stroke="#479b6d" stroke-width="1.51"/><path d="M1209,413L1176,339L1110,402Z" fill="#54aa7a" stroke="#54aa7a" stroke-width="1.51"/><path d="M1124,327L1122,244L1043,307Z" fill="#68b68d" stroke="#68b68d" stroke-width="1.51"/><path d="M1009,213L1020,134L952,162Z" fill="#84c7a4" stroke="#84c7a4" stroke-width="1.51"/><path d="M1109,835L1127,767L1035,735Z" fill="#258d4a" stroke="#258d4a" stroke-width="1.51"/><path d="M759,928L828,935L847,831Z" fill="#34935d" stroke="#34935d" stroke-width="1.51"/><path d="M1176,339L1122,244L1124,327Z" fill="#64b286" stroke="#64b286" stroke-width="1.51"/><path d="M1262,393L1209,413L1291,474Z" fill="#47a070" stroke="#47a070" stroke-width="1.51"/><path d="M1187,497L1209,413L1110,402Z" fill="#4aa674" stroke="#4aa674" stroke-width="1.51"/><path d="M416,234L511,333L519,248Z" fill="#a0dbcd" stroke="#a0dbcd" stroke-width="1.51"/><path d="M416,234L399,315L511,333Z" fill="#a2dccd" stroke="#a2dccd" stroke-width="1.51"/><path d="M430,405L334,476L397,507Z" fill="#8ed2bc" stroke="#8ed2bc" stroke-width="1.51"/><path d="M407,681L421,758L495,684Z" fill="#6fb990" stroke="#6fb990" stroke-width="1.51"/><path d="M952,162L947,81L861,137Z" fill="#8eceb0" stroke="#8eceb0" stroke-width="1.51"/><path d="M861,137L832,54L762,154Z" fill="#96d4bc" stroke="#96d4bc" stroke-width="1.51"/><path d="M1089,140L1020,134L1009,213Z" fill="#82c49f" stroke="#82c49f" stroke-width="1.51"/><path d="M828,935L949,924L847,831Z" fill="#2e9057" stroke="#2e9057" stroke-width="1.51"/><path d="M1016,835L1109,835L1035,735Z" fill="#278e4c" stroke="#278e4c" stroke-width="1.51"/><path d="M490,854L585,908L585,823Z" fill="#55a377" stroke="#55a377" stroke-width="1.51"/><path d="M742,1025L828,935L759,928Z" fill="#358c5d" stroke="#358c5d" stroke-width="1.51"/><path d="M397,507L339,560L438,565Z" fill="#85ccaf" stroke="#85ccaf" stroke-width="1.51"/><path d="M320,771L412,824L421,758Z" fill="#70b48a" stroke="#70b48a" stroke-width="1.51"/><path d="M334,476L339,560L397,507Z" fill="#8cd0b6" stroke="#8cd0b6" stroke-width="1.51"/><path d="M421,758L490,854L522,756Z" fill="#64af84" stroke="#64af84" stroke-width="1.51"/><path d="M326,409L334,476L430,405Z" fill="#95d5c2" stroke="#95d5c2" stroke-width="1.51"/><path d="M1097,918L1109,835L1016,835Z" fill="#1f8645" stroke="#1f8645" stroke-width="1.51"/><path d="M1127,767L1204,739L1108,680Z" fill="#268e4a" stroke="#268e4a" stroke-width="1.51"/><path d="M1020,134L947,81L952,162Z" fill="#8bcba9" stroke="#8bcba9" stroke-width="1.51"/><path d="M947,81L832,54L861,137Z" fill="#94d1b6" stroke="#94d1b6" stroke-width="1.51"/><path d="M949,924L1009,914L1016,835Z" fill="#238a4b" stroke="#238a4b" stroke-width="1.51"/><path d="M342,338L326,409L430,405Z" fill="#9cd9c7" stroke="#9cd9c7" stroke-width="1.51"/><path d="M489,152L416,234L519,248Z" fill="#ace0d3" stroke="#ace0d3" stroke-width="1.51"/><path d="M600,138L489,152L596,237Z" fill="#a8ddd0" stroke="#a8ddd0" stroke-width="1.51"/><path d="M511,81L489,152L600,138Z" fill="#b1e1d6" stroke="#b1e1d6" stroke-width="1.51"/><path d="M832,54L773,41L762,154Z" fill="#9cd6c1" stroke="#9cd6c1" stroke-width="1.51"/><path d="M247,564L323,686L339,560Z" fill="#89ccab" stroke="#89ccab" stroke-width="1.51"/><path d="M342,338L430,405L399,315Z" fill="#9edaca" stroke="#9edaca" stroke-width="1.51"/><path d="M773,41L696,45L762,154Z" fill="#9fd8c6" stroke="#9fd8c6" stroke-width="1.51"/><path d="M1197,846L1204,739L1127,767Z" fill="#1f8641" stroke="#1f8641" stroke-width="1.51"/><path d="M1179,652L1266,587L1192,579Z" fill="#2f9759" stroke="#2f9759" stroke-width="1.51"/><path d="M1192,579L1266,587L1187,497Z" fill="#369b61" stroke="#369b61" stroke-width="1.51"/><path d="M339,214L342,338L399,315Z" fill="#acdfd3" stroke="#acdfd3" stroke-width="1.51"/><path d="M1122,244L1089,140L1009,213Z" fill="#7abe98" stroke="#7abe98" stroke-width="1.51"/><path d="M1020,134L1005,74L947,81Z" fill="#8dcaa9" stroke="#8dcaa9" stroke-width="1.51"/><path d="M1182,163L1089,140L1122,244Z" fill="#79ba92" stroke="#79ba92" stroke-width="1.51"/><path d="M1181,225L1122,244L1176,339Z" fill="#68b388" stroke="#68b388" stroke-width="1.51"/><path d="M1268,666L1266,587L1179,652Z" fill="#2a9253" stroke="#2a9253" stroke-width="1.51"/><path d="M1262,393L1176,339L1209,413Z" fill="#52a778" stroke="#52a778" stroke-width="1.51"/><path d="M1288,335L1181,225L1176,339Z" fill="#60ac82" stroke="#60ac82" stroke-width="1.51"/><path d="M947,81L858,-9L832,54Z" fill="#98d3b9" stroke="#98d3b9" stroke-width="1.51"/><path d="M832,54L858,-9L773,41Z" fill="#9ed6c0" stroke="#9ed6c0" stroke-width="1.51"/><path d="M1089,140L1005,74L1020,134Z" fill="#88c6a3" stroke="#88c6a3" stroke-width="1.51"/><path d="M421,758L412,824L490,854Z" fill="#67ae84" stroke="#67ae84" stroke-width="1.51"/><path d="M490,854L513,945L585,908Z" fill="#55a076" stroke="#55a076" stroke-width="1.51"/><path d="M323,686L421,758L407,681Z" fill="#77bc94" stroke="#77bc94" stroke-width="1.51"/><path d="M1291,474L1209,413L1187,497Z" fill="#42a06e" stroke="#42a06e" stroke-width="1.51"/><path d="M247,564L339,560L334,476Z" fill="#90d1b6" stroke="#90d1b6" stroke-width="1.51"/><path d="M339,560L323,686L407,681Z" fill="#7fc5a2" stroke="#7fc5a2" stroke-width="1.51"/><path d="M489,152L428,165L416,234Z" fill="#b4e3d8" stroke="#b4e3d8" stroke-width="1.51"/><path d="M416,234L339,214L399,315Z" fill="#afe1d5" stroke="#afe1d5" stroke-width="1.51"/><path d="M400,53L428,165L489,152Z" fill="#bde6dd" stroke="#bde6dd" stroke-width="1.51"/><path d="M696,45L572,57L600,138Z" fill="#acded1" stroke="#acded1" stroke-width="1.51"/><path d="M1266,587L1291,474L1187,497Z" fill="#3a9b64" stroke="#3a9b64" stroke-width="1.51"/><path d="M1266,587L1349,588L1291,474Z" fill="#33955c" stroke="#33955c" stroke-width="1.51"/><path d="M1204,739L1268,666L1179,652Z" fill="#268e4b" stroke="#268e4b" stroke-width="1.51"/><path d="M828,935L845,1015L949,924Z" fill="#2c8853" stroke="#2c8853" stroke-width="1.51"/><path d="M949,924L1041,1004L1009,914Z" fill="#208246" stroke="#208246" stroke-width="1.51"/><path d="M742,1025L845,1015L828,935Z" fill="#318658" stroke="#318658" stroke-width="1.51"/><path d="M742,1025L759,928L673,918Z" fill="#398f62" stroke="#398f62" stroke-width="1.51"/><path d="M572,57L511,81L600,138Z" fill="#b1e1d6" stroke="#b1e1d6" stroke-width="1.51"/><path d="M1204,739L1262,772L1268,666Z" fill="#208744" stroke="#208744" stroke-width="1.51"/><path d="M1109,835L1197,846L1127,767Z" fill="#1e8540" stroke="#1e8540" stroke-width="1.51"/><path d="M1009,914L1097,918L1016,835Z" fill="#1f8646" stroke="#1f8646" stroke-width="1.51"/><path d="M1041,1004L1097,918L1009,914Z" fill="#1c7e41" stroke="#1c7e41" stroke-width="1.51"/><path d="M670,1023L742,1025L673,918Z" fill="#3c8c62" stroke="#3c8c62" stroke-width="1.51"/><path d="M427,914L513,945L490,854Z" fill="#5ca37a" stroke="#5ca37a" stroke-width="1.51"/><path d="M670,1023L673,918L585,908Z" fill="#459469" stroke="#459469" stroke-width="1.51"/><path d="M753,-35L679,-15L696,45Z" fill="#a9dccf" stroke="#a9dccf" stroke-width="1.51"/><path d="M696,45L583,-5L572,57Z" fill="#b0e0d4" stroke="#b0e0d4" stroke-width="1.51"/><path d="M941,-47L858,-9L947,81Z" fill="#99d2b7" stroke="#99d2b7" stroke-width="1.51"/><path d="M572,1027L670,1023L585,908Z" fill="#47906a" stroke="#47906a" stroke-width="1.51"/><path d="M1089,140L1123,72L1005,74Z" fill="#88c4a0" stroke="#88c4a0" stroke-width="1.51"/><path d="M1005,74L941,-47L947,81Z" fill="#93ceb0" stroke="#93ceb0" stroke-width="1.51"/><path d="M1181,225L1182,163L1122,244Z" fill="#73b78d" stroke="#73b78d" stroke-width="1.51"/><path d="M1266,130L1182,163L1181,225Z" fill="#77b68d" stroke="#77b68d" stroke-width="1.51"/><path d="M1288,335L1176,339L1262,393Z" fill="#55a679" stroke="#55a679" stroke-width="1.51"/><path d="M1097,918L1197,846L1109,835Z" fill="#1a813d" stroke="#1a813d" stroke-width="1.51"/><path d="M1358,403L1288,335L1262,393Z" fill="#4ea173" stroke="#4ea173" stroke-width="1.51"/><path d="M412,824L427,914L490,854Z" fill="#63a97f" stroke="#63a97f" stroke-width="1.51"/><path d="M323,686L320,771L421,758Z" fill="#77ba91" stroke="#77ba91" stroke-width="1.51"/><path d="M233,741L320,771L323,686Z" fill="#7fbd96" stroke="#7fbd96" stroke-width="1.51"/><path d="M326,409L261,410L334,476Z" fill="#9cd8c5" stroke="#9cd8c5" stroke-width="1.51"/><path d="M342,338L261,410L326,409Z" fill="#a2dbcb" stroke="#a2dbcb" stroke-width="1.51"/><path d="M240,310L261,410L342,338Z" fill="#abded1" stroke="#abded1" stroke-width="1.51"/><path d="M753,-35L696,45L773,41Z" fill="#a5daca" stroke="#a5daca" stroke-width="1.51"/><path d="M572,57L486,-39L511,81Z" fill="#bbe5dd" stroke="#bbe5dd" stroke-width="1.51"/><path d="M428,165L339,214L416,234Z" fill="#b6e3d9" stroke="#b6e3d9" stroke-width="1.51"/><path d="M345,128L339,214L428,165Z" fill="#bfe7de" stroke="#bfe7de" stroke-width="1.51"/><path d="M513,945L572,1027L585,908Z" fill="#4f9670" stroke="#4f9670" stroke-width="1.51"/><path d="M333,846L427,914L412,824Z" fill="#69ab82" stroke="#69ab82" stroke-width="1.51"/><path d="M845,1015L931,1032L949,924Z" fill="#26824d" stroke="#26824d" stroke-width="1.51"/><path d="M742,1025L931,1032L845,1015Z" fill="#2c8052" stroke="#2c8052" stroke-width="1.51"/><path d="M492,1033L931,1032L742,1025Z" fill="#36845e" stroke="#36845e" stroke-width="1.51"/><path d="M1197,846L1262,772L1204,739Z" fill="#1c823e" stroke="#1c823e" stroke-width="1.51"/><path d="M1268,666L1349,588L1266,587Z" fill="#299153" stroke="#299153" stroke-width="1.51"/><path d="M233,497L247,564L334,476Z" fill="#96d4bb" stroke="#96d4bb" stroke-width="1.51"/><path d="M858,-9L753,-35L773,41Z" fill="#a3d8c5" stroke="#a3d8c5" stroke-width="1.51"/><path d="M1182,163L1123,72L1089,140Z" fill="#81bd97" stroke="#81bd97" stroke-width="1.51"/><path d="M261,410L233,497L334,476Z" fill="#9bd7c3" stroke="#9bd7c3" stroke-width="1.51"/><path d="M931,1032L1041,1004L949,924Z" fill="#217e47" stroke="#217e47" stroke-width="1.51"/><path d="M1186,937L1260,841L1197,846Z" fill="#137a37" stroke="#137a37" stroke-width="1.51"/><path d="M679,-15L583,-5L696,45Z" fill="#aedfd2" stroke="#aedfd2" stroke-width="1.51"/><path d="M400,53L345,128L428,165Z" fill="#c3e9e1" stroke="#c3e9e1" stroke-width="1.51"/><path d="M611,-108L583,-5L679,-15Z" fill="#b5e2d6" stroke="#b5e2d6" stroke-width="1.51"/><path d="M670,1023L572,1027L742,1025Z" fill="#3f8862" stroke="#3f8862" stroke-width="1.51"/><path d="M492,1033L572,1027L513,945Z" fill="#50926f" stroke="#50926f" stroke-width="1.51"/><path d="M320,771L333,846L412,824Z" fill="#71b289" stroke="#71b289" stroke-width="1.51"/><path d="M437,1008L492,1033L513,945Z" fill="#569573" stroke="#569573" stroke-width="1.51"/><path d="M261,826L333,846L320,771Z" fill="#77b48c" stroke="#77b48c" stroke-width="1.51"/><path d="M1386,651L1349,588L1268,666Z" fill="#258c4d" stroke="#258c4d" stroke-width="1.51"/><path d="M1291,474L1358,403L1262,393Z" fill="#469d6d" stroke="#469d6d" stroke-width="1.51"/><path d="M1349,588L1360,471L1291,474Z" fill="#36955f" stroke="#36955f" stroke-width="1.51"/><path d="M1370,745L1386,651L1268,666Z" fill="#1f8544" stroke="#1f8544" stroke-width="1.51"/><path d="M1197,846L1260,841L1262,772Z" fill="#177e3a" stroke="#177e3a" stroke-width="1.51"/><path d="M1186,937L1197,846L1097,918Z" fill="#147c38" stroke="#147c38" stroke-width="1.51"/><path d="M1288,335L1297,240L1181,225Z" fill="#64ab82" stroke="#64ab82" stroke-width="1.51"/><path d="M1182,163L1208,82L1123,72Z" fill="#81bb94" stroke="#81bb94" stroke-width="1.51"/><path d="M1382,317L1297,240L1288,335Z" fill="#5ba57a" stroke="#5ba57a" stroke-width="1.51"/><path d="M1039,-38L941,-47L1005,74Z" fill="#94cdae" stroke="#94cdae" stroke-width="1.51"/><path d="M858,-9L779,-101L753,-35Z" fill="#a5d9c6" stroke="#a5d9c6" stroke-width="1.51"/><path d="M1360,471L1358,403L1291,474Z" fill="#3e9969" stroke="#3e9969" stroke-width="1.51"/><path d="M339,214L240,310L342,338Z" fill="#b3e2d7" stroke="#b3e2d7" stroke-width="1.51"/><path d="M261,410L164,421L233,497Z" fill="#a0d9c8" stroke="#a0d9c8" stroke-width="1.51"/><path d="M177,599L231,686L247,564Z" fill="#8ecdad" stroke="#8ecdad" stroke-width="1.51"/><path d="M247,564L231,686L323,686Z" fill="#88c9a6" stroke="#88c9a6" stroke-width="1.51"/><path d="M1109,1013L1186,937L1097,918Z" fill="#157638" stroke="#157638" stroke-width="1.51"/><path d="M339,214L233,252L240,310Z" fill="#bbe5dc" stroke="#bbe5dc" stroke-width="1.51"/><path d="M400,53L489,152L511,81Z" fill="#bce5dd" stroke="#bce5dd" stroke-width="1.51"/><path d="M1041,1004L1109,1013L1097,918Z" fill="#19763b" stroke="#19763b" stroke-width="1.51"/><path d="M931,1032L1109,1013L1041,1004Z" fill="#1c753f" stroke="#1c753f" stroke-width="1.51"/><path d="M437,1008L513,945L427,914Z" fill="#5b9c77" stroke="#5b9c77" stroke-width="1.51"/><path d="M572,1027L492,1033L742,1025Z" fill="#468a67" stroke="#468a67" stroke-width="1.51"/><path d="M486,-39L400,53L511,81Z" fill="#c1e8e1" stroke="#c1e8e1" stroke-width="1.51"/><path d="M352,937L437,1008L427,914Z" fill="#629e7a" stroke="#629e7a" stroke-width="1.51"/><path d="M231,686L233,741L323,686Z" fill="#84c29c" stroke="#84c29c" stroke-width="1.51"/><path d="M1108,-4L1039,-38L1005,74Z" fill="#90c8a7" stroke="#90c8a7" stroke-width="1.51"/><path d="M1266,130L1208,82L1182,163Z" fill="#7db790" stroke="#7db790" stroke-width="1.51"/><path d="M1108,-4L1005,74L1123,72Z" fill="#8bc5a2" stroke="#8bc5a2" stroke-width="1.51"/><path d="M1204,-27L1108,-4L1123,72Z" fill="#8ac09c" stroke="#8ac09c" stroke-width="1.51"/><path d="M352,937L427,914L333,846Z" fill="#69a881" stroke="#69a881" stroke-width="1.51"/><path d="M244,927L352,937L333,846Z" fill="#70aa84" stroke="#70aa84" stroke-width="1.51"/><path d="M258,128L233,252L339,214Z" fill="#c4e9e1" stroke="#c4e9e1" stroke-width="1.51"/><path d="M143,485L177,599L233,497Z" fill="#99d4bc" stroke="#99d4bc" stroke-width="1.51"/><path d="M233,497L177,599L247,564Z" fill="#94d2b7" stroke="#94d2b7" stroke-width="1.51"/><path d="M258,128L339,214L345,128Z" fill="#c8ebe3" stroke="#c8ebe3" stroke-width="1.51"/><path d="M1208,82L1204,-27L1123,72Z" fill="#85bc97" stroke="#85bc97" stroke-width="1.51"/><path d="M1297,240L1266,130L1181,225Z" fill="#70b188" stroke="#70b188" stroke-width="1.51"/><path d="M1351,165L1266,130L1297,240Z" fill="#71ae86" stroke="#71ae86" stroke-width="1.51"/><path d="M753,-35L673,-120L679,-15Z" fill="#added0" stroke="#added0" stroke-width="1.51"/><path d="M583,-5L486,-39L572,57Z" fill="#bae5dd" stroke="#bae5dd" stroke-width="1.51"/><path d="M838,-107L779,-101L858,-9Z" fill="#a4d8c3" stroke="#a4d8c3" stroke-width="1.51"/><path d="M838,-107L858,-9L920,-112Z" fill="#a2d6be" stroke="#a2d6be" stroke-width="1.51"/><path d="M233,741L261,826L320,771Z" fill="#7db991" stroke="#7db991" stroke-width="1.51"/><path d="M1451,474L1446,423L1360,471Z" fill="#3a9163" stroke="#3a9163" stroke-width="1.51"/><path d="M1446,423L1382,317L1358,403Z" fill="#49996d" stroke="#49996d" stroke-width="1.51"/><path d="M1370,745L1268,666L1262,772Z" fill="#1c8340" stroke="#1c8340" stroke-width="1.51"/><path d="M164,421L261,410L240,310Z" fill="#aaded0" stroke="#aaded0" stroke-width="1.51"/><path d="M231,686L146,747L233,741Z" fill="#85c09b" stroke="#85c09b" stroke-width="1.51"/><path d="M233,741L158,843L261,826Z" fill="#7eb891" stroke="#7eb891" stroke-width="1.51"/><path d="M920,-112L858,-9L941,-47Z" fill="#9ed5b9" stroke="#9ed5b9" stroke-width="1.51"/><path d="M1358,403L1382,317L1288,335Z" fill="#509f73" stroke="#509f73" stroke-width="1.51"/><path d="M1446,423L1358,403L1360,471Z" fill="#3f9667" stroke="#3f9667" stroke-width="1.51"/><path d="M1366,821L1370,745L1262,772Z" fill="#147c38" stroke="#147c38" stroke-width="1.51"/><path d="M1186,937L1289,930L1260,841Z" fill="#0c7533" stroke="#0c7533" stroke-width="1.51"/><path d="M1109,1013L1191,990L1186,937Z" fill="#127133" stroke="#127133" stroke-width="1.51"/><path d="M515,-94L486,-39L583,-5Z" fill="#c0e7df" stroke="#c0e7df" stroke-width="1.51"/><path d="M1366,821L1262,772L1260,841Z" fill="#137b37" stroke="#137b37" stroke-width="1.51"/><path d="M147,328L164,421L240,310Z" fill="#b0e0d5" stroke="#b0e0d5" stroke-width="1.51"/><path d="M1009,-92L941,-47L1039,-38Z" fill="#98ceaf" stroke="#98ceaf" stroke-width="1.51"/><path d="M1009,-92L920,-112L941,-47Z" fill="#9cd3b4" stroke="#9cd3b4" stroke-width="1.51"/><path d="M920,-112L673,-120L838,-107Z" fill="#a8dac5" stroke="#a8dac5" stroke-width="1.51"/><path d="M838,-107L673,-120L779,-101Z" fill="#acdccb" stroke="#acdccb" stroke-width="1.51"/><path d="M779,-101L673,-120L753,-35Z" fill="#acddcd" stroke="#acddcd" stroke-width="1.51"/><path d="M1094,-98L1009,-92L1039,-38Z" fill="#96caa9" stroke="#96caa9" stroke-width="1.51"/><path d="M1094,-98L1039,-38L1108,-4Z" fill="#92c7a5" stroke="#92c7a5" stroke-width="1.51"/><path d="M177,599L163,665L231,686Z" fill="#8dcaa9" stroke="#8dcaa9" stroke-width="1.51"/><path d="M79,559L163,665L177,599Z" fill="#94cfb2" stroke="#94cfb2" stroke-width="1.51"/><path d="M673,-120L611,-108L679,-15Z" fill="#b4e1d4" stroke="#b4e1d4" stroke-width="1.51"/><path d="M412,-29L346,41L400,53Z" fill="#cbece7" stroke="#cbece7" stroke-width="1.51"/><path d="M400,53L346,41L345,128Z" fill="#c9ebe5" stroke="#c9ebe5" stroke-width="1.51"/><path d="M164,421L143,485L233,497Z" fill="#a0d9c6" stroke="#a0d9c6" stroke-width="1.51"/><path d="M1266,130L1264,71L1208,82Z" fill="#7eb690" stroke="#7eb690" stroke-width="1.51"/><path d="M1352,67L1264,71L1266,130Z" fill="#7cb28d" stroke="#7cb28d" stroke-width="1.51"/><path d="M176,236L147,328L240,310Z" fill="#bae5dc" stroke="#bae5dc" stroke-width="1.51"/><path d="M76,398L70,476L143,485Z" fill="#a6dbcc" stroke="#a6dbcc" stroke-width="1.51"/><path d="M346,41L258,128L345,128Z" fill="#cdece7" stroke="#cdece7" stroke-width="1.51"/><path d="M1191,990L1289,930L1186,937Z" fill="#0d7031" stroke="#0d7031" stroke-width="1.51"/><path d="M352,937L347,996L437,1008Z" fill="#639c7a" stroke="#639c7a" stroke-width="1.51"/><path d="M437,1008L347,996L492,1033Z" fill="#5b9474" stroke="#5b9474" stroke-width="1.51"/><path d="M244,927L347,996L352,937Z" fill="#6ca37f" stroke="#6ca37f" stroke-width="1.51"/><path d="M244,927L333,846L261,826Z" fill="#76af89" stroke="#76af89" stroke-width="1.51"/><path d="M1370,745L1449,647L1386,651Z" fill="#1d8042" stroke="#1d8042" stroke-width="1.51"/><path d="M1289,930L1366,821L1260,841Z" fill="#0c7532" stroke="#0c7532" stroke-width="1.51"/><path d="M346,41L242,42L258,128Z" fill="#d3efeb" stroke="#d3efeb" stroke-width="1.51"/><path d="M486,-39L412,-29L400,53Z" fill="#c8eae5" stroke="#c8eae5" stroke-width="1.51"/><path d="M428,-97L412,-29L486,-39Z" fill="#caebe5" stroke="#caebe5" stroke-width="1.51"/><path d="M1380,217L1351,165L1297,240Z" fill="#6aa981" stroke="#6aa981" stroke-width="1.51"/><path d="M1382,317L1380,217L1297,240Z" fill="#60a57c" stroke="#60a57c" stroke-width="1.51"/><path d="M428,-97L515,-94L611,-108Z" fill="#c4e8e1" stroke="#c4e8e1" stroke-width="1.51"/><path d="M611,-108L515,-94L583,-5Z" fill="#bce5dc" stroke="#bce5dc" stroke-width="1.51"/><path d="M1382,317L1448,228L1380,217Z" fill="#5fa17a" stroke="#5fa17a" stroke-width="1.51"/><path d="M1451,474L1360,471L1349,588Z" fill="#34915c" stroke="#34915c" stroke-width="1.51"/><path d="M1451,474L1349,588L1458,601Z" fill="#2c8a55" stroke="#2c8a55" stroke-width="1.51"/><path d="M1458,601L1349,588L1386,651Z" fill="#24884d" stroke="#24884d" stroke-width="1.51"/><path d="M176,236L240,310L233,252Z" fill="#bce6dd" stroke="#bce6dd" stroke-width="1.51"/><path d="M164,168L176,236L233,252Z" fill="#c6eae3" stroke="#c6eae3" stroke-width="1.51"/><path d="M1467,770L1449,647L1370,745Z" fill="#17793b" stroke="#17793b" stroke-width="1.51"/><path d="M1449,647L1458,601L1386,651Z" fill="#218349" stroke="#218349" stroke-width="1.51"/><path d="M1290,-19L1204,-27L1264,71Z" fill="#84b894" stroke="#84b894" stroke-width="1.51"/><path d="M1264,71L1204,-27L1208,82Z" fill="#83b994" stroke="#83b994" stroke-width="1.51"/><path d="M1009,-92L1094,-98L920,-112Z" fill="#9aceaf" stroke="#9aceaf" stroke-width="1.51"/><path d="M1204,-27L1094,-98L1108,-4Z" fill="#8fc29e" stroke="#8fc29e" stroke-width="1.51"/><path d="M163,665L146,747L231,686Z" fill="#89c4a0" stroke="#89c4a0" stroke-width="1.51"/><path d="M55,681L146,747L163,665Z" fill="#8dc6a4" stroke="#8dc6a4" stroke-width="1.51"/><path d="M158,843L244,927L261,826Z" fill="#79b18b" stroke="#79b18b" stroke-width="1.51"/><path d="M1446,423L1459,318L1382,317Z" fill="#4c976f" stroke="#4c976f" stroke-width="1.51"/><path d="M1466,147L1352,67L1351,165Z" fill="#74aa85" stroke="#74aa85" stroke-width="1.51"/><path d="M1557,397L1459,318L1446,423Z" fill="#468f68" stroke="#468f68" stroke-width="1.51"/><path d="M1531,493L1446,423L1451,474Z" fill="#378a5f" stroke="#378a5f" stroke-width="1.51"/><path d="M428,-97L333,-26L412,-29Z" fill="#d0ede9" stroke="#d0ede9" stroke-width="1.51"/><path d="M412,-29L333,-26L346,41Z" fill="#d0edea" stroke="#d0edea" stroke-width="1.51"/><path d="M258,128L164,168L233,252Z" fill="#caebe5" stroke="#caebe5" stroke-width="1.51"/><path d="M515,-94L428,-97L486,-39Z" fill="#c8eae4" stroke="#c8eae4" stroke-width="1.51"/><path d="M673,-120L428,-97L611,-108Z" fill="#bfe6dc" stroke="#bfe6dc" stroke-width="1.51"/><path d="M143,485L79,559L177,599Z" fill="#9ad4bc" stroke="#9ad4bc" stroke-width="1.51"/><path d="M70,476L79,559L143,485Z" fill="#a1d8c4" stroke="#a1d8c4" stroke-width="1.51"/><path d="M169,40L164,168L258,128Z" fill="#d5efec" stroke="#d5efec" stroke-width="1.51"/><path d="M78,220L55,321L147,328Z" fill="#c0e7e1" stroke="#c0e7e1" stroke-width="1.51"/><path d="M76,398L143,485L164,421Z" fill="#a7dccd" stroke="#a7dccd" stroke-width="1.51"/><path d="M146,747L158,843L233,741Z" fill="#83bb95" stroke="#83bb95" stroke-width="1.51"/><path d="M68,768L158,843L146,747Z" fill="#85bb96" stroke="#85bb96" stroke-width="1.51"/><path d="M76,398L164,421L147,328Z" fill="#afe0d4" stroke="#afe0d4" stroke-width="1.51"/><path d="M1204,-27L1204,-92L1094,-98Z" fill="#8ec09c" stroke="#8ec09c" stroke-width="1.51"/><path d="M1351,165L1352,67L1266,130Z" fill="#77b089" stroke="#77b089" stroke-width="1.51"/><path d="M1466,147L1351,165L1380,217Z" fill="#6ca680" stroke="#6ca680" stroke-width="1.51"/><path d="M169,40L242,42L174,-47Z" fill="#ddf2f2" stroke="#ddf2f2" stroke-width="1.51"/><path d="M333,-26L242,42L346,41Z" fill="#d5efec" stroke="#d5efec" stroke-width="1.51"/><path d="M1459,318L1448,228L1382,317Z" fill="#589b75" stroke="#589b75" stroke-width="1.51"/><path d="M55,321L76,398L147,328Z" fill="#b7e3da" stroke="#b7e3da" stroke-width="1.51"/><path d="M1289,930L1387,942L1366,821Z" fill="#036f2d" stroke="#036f2d" stroke-width="1.51"/><path d="M1366,821L1467,770L1370,745Z" fill="#107635" stroke="#107635" stroke-width="1.51"/><path d="M1191,990L1295,1026L1289,930Z" fill="#09692e" stroke="#09692e" stroke-width="1.51"/><path d="M1109,1013L1295,1026L1191,990Z" fill="#0e6930" stroke="#0e6930" stroke-width="1.51"/><path d="M931,1032L1295,1026L1109,1013Z" fill="#156e35" stroke="#156e35" stroke-width="1.51"/><path d="M1458,601L1531,493L1451,474Z" fill="#2f8657" stroke="#2f8657" stroke-width="1.51"/><path d="M1541,589L1531,493L1458,601Z" fill="#298150" stroke="#298150" stroke-width="1.51"/><path d="M1458,826L1467,770L1366,821Z" fill="#0d7031" stroke="#0d7031" stroke-width="1.51"/><path d="M1352,67L1290,-19L1264,71Z" fill="#7fb390" stroke="#7fb390" stroke-width="1.51"/><path d="M1094,-98L1262,-111L920,-112Z" fill="#95c8a4" stroke="#95c8a4" stroke-width="1.51"/><path d="M1262,-111L1204,-92L1204,-27Z" fill="#8cbc98" stroke="#8cbc98" stroke-width="1.51"/><path d="M1379,993L1387,942L1289,930Z" fill="#01672a" stroke="#01672a" stroke-width="1.51"/><path d="M1464,904L1458,826L1366,821Z" fill="#076c2e" stroke="#076c2e" stroke-width="1.51"/><path d="M1458,601L1449,647L1542,657Z" fill="#207d46" stroke="#207d46" stroke-width="1.51"/><path d="M1541,589L1458,601L1542,657Z" fill="#217d47" stroke="#217d47" stroke-width="1.51"/><path d="M1522,154L1466,147L1448,228Z" fill="#689e7c" stroke="#689e7c" stroke-width="1.51"/><path d="M165,935L226,1001L244,927Z" fill="#74a584" stroke="#74a584" stroke-width="1.51"/><path d="M244,927L226,1001L347,996Z" fill="#6fa180" stroke="#6fa180" stroke-width="1.51"/><path d="M347,996L226,1001L492,1033Z" fill="#649879" stroke="#649879" stroke-width="1.51"/><path d="M79,559L55,681L163,665Z" fill="#94cdaf" stroke="#94cdaf" stroke-width="1.51"/><path d="M158,843L165,935L244,927Z" fill="#78ad89" stroke="#78ad89" stroke-width="1.51"/><path d="M-6,656L55,681L79,559Z" fill="#97cfb1" stroke="#97cfb1" stroke-width="1.51"/><path d="M82,915L165,935L158,843Z" fill="#7caf8c" stroke="#7caf8c" stroke-width="1.51"/><path d="M70,476L-12,505L79,559Z" fill="#a2d8c4" stroke="#a2d8c4" stroke-width="1.51"/><path d="M-17,388L-12,505L70,476Z" fill="#aadccd" stroke="#aadccd" stroke-width="1.51"/><path d="M78,220L147,328L176,236Z" fill="#c2e8e2" stroke="#c2e8e2" stroke-width="1.51"/><path d="M78,220L176,236L164,168Z" fill="#cbebe6" stroke="#cbebe6" stroke-width="1.51"/><path d="M1542,657L1449,647L1530,742Z" fill="#1a763e" stroke="#1a763e" stroke-width="1.51"/><path d="M1387,942L1464,904L1366,821Z" fill="#026b2b" stroke="#026b2b" stroke-width="1.51"/><path d="M1295,1026L1379,993L1289,930Z" fill="#04652a" stroke="#04652a" stroke-width="1.51"/><path d="M55,681L68,768L146,747Z" fill="#8cc29f" stroke="#8cc29f" stroke-width="1.51"/><path d="M65,136L78,220L164,168Z" fill="#d3eeeb" stroke="#d3eeeb" stroke-width="1.51"/><path d="M1530,742L1449,647L1467,770Z" fill="#167438" stroke="#167438" stroke-width="1.51"/><path d="M1530,742L1467,770L1533,843Z" fill="#0e6a30" stroke="#0e6a30" stroke-width="1.51"/><path d="M1542,229L1448,228L1459,318Z" fill="#5b9876" stroke="#5b9876" stroke-width="1.51"/><path d="M1448,228L1466,147L1380,217Z" fill="#67a17d" stroke="#67a17d" stroke-width="1.51"/><path d="M1355,-40L1262,-111L1290,-19Z" fill="#86b692" stroke="#86b692" stroke-width="1.51"/><path d="M242,42L169,40L258,128Z" fill="#d7f0ee" stroke="#d7f0ee" stroke-width="1.51"/><path d="M244,-47L242,42L333,-26Z" fill="#daf1f0" stroke="#daf1f0" stroke-width="1.51"/><path d="M1533,843L1467,770L1458,826Z" fill="#0b6a2f" stroke="#0b6a2f" stroke-width="1.51"/><path d="M1542,657L1557,397L1541,589Z" fill="#2a7e50" stroke="#2a7e50" stroke-width="1.51"/><path d="M1541,589L1557,397L1531,493Z" fill="#318258" stroke="#318258" stroke-width="1.51"/><path d="M1531,493L1557,397L1446,423Z" fill="#3a8861" stroke="#3a8861" stroke-width="1.51"/><path d="M310,-108L244,-47L333,-26Z" fill="#dbf2f0" stroke="#dbf2f0" stroke-width="1.51"/><path d="M428,-97L310,-108L333,-26Z" fill="#d5efec" stroke="#d5efec" stroke-width="1.51"/><path d="M673,-120L310,-108L428,-97Z" fill="#caebe4" stroke="#caebe4" stroke-width="1.51"/><path d="M1290,-19L1262,-111L1204,-27Z" fill="#88ba96" stroke="#88ba96" stroke-width="1.51"/><path d="M1204,-92L1262,-111L1094,-98Z" fill="#8fbf9b" stroke="#8fbf9b" stroke-width="1.51"/><path d="M920,-112L1453,-129L673,-120Z" fill="#9bceae" stroke="#9bceae" stroke-width="1.51"/><path d="M1355,-40L1290,-19L1352,67Z" fill="#81b390" stroke="#81b390" stroke-width="1.51"/><path d="M1434,1010L1464,904L1387,942Z" fill="#006026" stroke="#006026" stroke-width="1.51"/><path d="M79,990L171,1001L165,935Z" fill="#76a386" stroke="#76a386" stroke-width="1.51"/><path d="M165,935L171,1001L226,1001Z" fill="#73a283" stroke="#73a283" stroke-width="1.51"/><path d="M226,1001L171,1001L492,1033Z" fill="#6a9a7d" stroke="#6a9a7d" stroke-width="1.51"/><path d="M1452,46L1355,-40L1352,67Z" fill="#7cad8b" stroke="#7cad8b" stroke-width="1.51"/><path d="M1557,397L1558,320L1459,318Z" fill="#4a8e6b" stroke="#4a8e6b" stroke-width="1.51"/><path d="M-17,388L70,476L76,398Z" fill="#added2" stroke="#added2" stroke-width="1.51"/><path d="M4,752L57,844L68,768Z" fill="#89bd99" stroke="#89bd99" stroke-width="1.51"/><path d="M-17,388L76,398L55,321Z" fill="#b6e2d9" stroke="#b6e2d9" stroke-width="1.51"/><path d="M68,768L57,844L158,843Z" fill="#84b995" stroke="#84b995" stroke-width="1.51"/><path d="M4,752L68,768L55,681Z" fill="#8dc29f" stroke="#8dc29f" stroke-width="1.51"/><path d="M1558,320L1542,229L1459,318Z" fill="#549271" stroke="#549271" stroke-width="1.51"/><path d="M1466,147L1452,46L1352,67Z" fill="#75a786" stroke="#75a786" stroke-width="1.51"/><path d="M-28,590L-6,656L79,559Z" fill="#9bd3b6" stroke="#9bd3b6" stroke-width="1.51"/><path d="M1541,70L1452,46L1466,147Z" fill="#72a183" stroke="#72a183" stroke-width="1.51"/><path d="M310,-108L256,-103L244,-47Z" fill="#dff3f1" stroke="#dff3f1" stroke-width="1.51"/><path d="M244,-47L174,-47L242,42Z" fill="#def3f2" stroke="#def3f2" stroke-width="1.51"/><path d="M57,844L82,915L158,843Z" fill="#80b390" stroke="#80b390" stroke-width="1.51"/><path d="M-12,505L-28,590L79,559Z" fill="#a0d6be" stroke="#a0d6be" stroke-width="1.51"/><path d="M-36,338L-17,388L55,321Z" fill="#bbe4db" stroke="#bbe4db" stroke-width="1.51"/><path d="M-36,338L55,321L-22,216Z" fill="#c4e8e2" stroke="#c4e8e2" stroke-width="1.51"/><path d="M169,40L65,136L164,168Z" fill="#d8f0ef" stroke="#d8f0ef" stroke-width="1.51"/><path d="M73,46L65,136L169,40Z" fill="#ddf2f2" stroke="#ddf2f2" stroke-width="1.51"/><path d="M1542,657L1561,992L1557,397Z" fill="#1a713b" stroke="#1a713b" stroke-width="1.51"/><path d="M1530,742L1533,843L1542,657Z" fill="#126c32" stroke="#126c32" stroke-width="1.51"/><path d="M1464,904L1533,843L1458,826Z" fill="#05662b" stroke="#05662b" stroke-width="1.51"/><path d="M1527,905L1533,843L1464,904Z" fill="#026128" stroke="#026128" stroke-width="1.51"/><path d="M1379,993L1434,1010L1387,942Z" fill="#005f26" stroke="#005f26" stroke-width="1.51"/><path d="M1295,1026L1434,1010L1379,993Z" fill="#005e26" stroke="#005e26" stroke-width="1.51"/><path d="M1542,229L1522,154L1448,228Z" fill="#639979" stroke="#639979" stroke-width="1.51"/><path d="M-95,560L-28,590L-12,505Z" fill="#a3d7bf" stroke="#a3d7bf" stroke-width="1.51"/><path d="M-24,906L79,990L82,915Z" fill="#7eab8b" stroke="#7eab8b" stroke-width="1.51"/><path d="M-6,656L4,752L55,681Z" fill="#92c8a6" stroke="#92c8a6" stroke-width="1.51"/><path d="M-99,766L4,752L-6,656Z" fill="#92c5a1" stroke="#92c5a1" stroke-width="1.51"/><path d="M256,-103L174,-47L244,-47Z" fill="#e0f4f3" stroke="#e0f4f3" stroke-width="1.51"/><path d="M1561,992L1527,905L1464,904Z" fill="#005a24" stroke="#005a24" stroke-width="1.51"/><path d="M-113,409L-95,508L-12,505Z" fill="#acddcc" stroke="#acddcc" stroke-width="1.51"/><path d="M-22,216L55,321L78,220Z" fill="#c9eae6" stroke="#c9eae6" stroke-width="1.51"/><path d="M1452,46L1439,-35L1355,-40Z" fill="#7dab8b" stroke="#7dab8b" stroke-width="1.51"/><path d="M1355,-40L1387,-106L1262,-111Z" fill="#86b591" stroke="#86b591" stroke-width="1.51"/><path d="M1559,-21L1439,-35L1452,46Z" fill="#7aa488" stroke="#7aa488" stroke-width="1.51"/><path d="M65,136L-22,216L78,220Z" fill="#d3eeec" stroke="#d3eeec" stroke-width="1.51"/><path d="M73,-14L73,46L169,40Z" fill="#e1f3f6" stroke="#e1f3f6" stroke-width="1.51"/><path d="M-5,857L82,915L57,844Z" fill="#83b491" stroke="#83b491" stroke-width="1.51"/><path d="M82,915L79,990L165,935Z" fill="#7aa889" stroke="#7aa889" stroke-width="1.51"/><path d="M1439,-35L1387,-106L1355,-40Z" fill="#81af8d" stroke="#81af8d" stroke-width="1.51"/><path d="M-20,128L-22,216L65,136Z" fill="#d9f1ef" stroke="#d9f1ef" stroke-width="1.51"/><path d="M4,752L-5,857L57,844Z" fill="#88ba96" stroke="#88ba96" stroke-width="1.51"/><path d="M-24,906L-5,857L-92,817Z" fill="#87b793" stroke="#87b793" stroke-width="1.51"/><path d="M1439,-35L1453,-129L1387,-106Z" fill="#81ac8b" stroke="#81ac8b" stroke-width="1.51"/><path d="M1522,154L1541,70L1466,147Z" fill="#6e9d7f" stroke="#6e9d7f" stroke-width="1.51"/><path d="M1542,229L1541,70L1522,154Z" fill="#6a997c" stroke="#6a997c" stroke-width="1.51"/><path d="M1559,-21L1541,70L1542,229Z" fill="#6f9a7f" stroke="#6f9a7f" stroke-width="1.51"/><path d="M-113,409L-12,505L-17,388Z" fill="#b0dfd1" stroke="#b0dfd1" stroke-width="1.51"/><path d="M-28,590L-123,676L-6,656Z" fill="#9acfb0" stroke="#9acfb0" stroke-width="1.51"/><path d="M-113,409L-17,388L-36,338Z" fill="#b9e3d7" stroke="#b9e3d7" stroke-width="1.51"/><path d="M-95,508L-95,560L-12,505Z" fill="#a7d9c3" stroke="#a7d9c3" stroke-width="1.51"/><path d="M51,-98L73,-14L174,-47Z" fill="#e7f6f8" stroke="#e7f6f8" stroke-width="1.51"/><path d="M174,-47L73,-14L169,40Z" fill="#e1f4f6" stroke="#e1f4f6" stroke-width="1.51"/><path d="M73,46L-20,128L65,136Z" fill="#def3f3" stroke="#def3f3" stroke-width="1.51"/><path d="M256,-103L156,-120L174,-47Z" fill="#e3f5f4" stroke="#e3f5f4" stroke-width="1.51"/><path d="M310,-108L156,-120L256,-103Z" fill="#e2f4f3" stroke="#e2f4f3" stroke-width="1.51"/><path d="M673,-120L156,-120L310,-108Z" fill="#d5efeb" stroke="#d5efeb" stroke-width="1.51"/><path d="M-31,61L-20,128L73,46Z" fill="#e1f4f4" stroke="#e1f4f4" stroke-width="1.51"/><path d="M-117,301L-113,409L-36,338Z" fill="#bfe6dc" stroke="#bfe6dc" stroke-width="1.51"/><path d="M-5,857L-24,906L82,915Z" fill="#82b28f" stroke="#82b28f" stroke-width="1.51"/><path d="M-92,817L-5,857L4,752Z" fill="#8bbc98" stroke="#8bbc98" stroke-width="1.51"/><path d="M-95,508L-123,676L-95,560Z" fill="#a2d7ba" stroke="#a2d7ba" stroke-width="1.51"/><path d="M-117,301L-36,338L-22,216Z" fill="#c8eae3" stroke="#c8eae3" stroke-width="1.51"/><path d="M1434,1010L1561,992L1464,904Z" fill="#005824" stroke="#005824" stroke-width="1.51"/><path d="M1527,905L1561,992L1533,843Z" fill="#005b24" stroke="#005b24" stroke-width="1.51"/><path d="M1533,843L1561,992L1542,657Z" fill="#08622b" stroke="#08622b" stroke-width="1.51"/><path d="M1557,397L1561,992L1558,320Z" fill="#277c4c" stroke="#277c4c" stroke-width="1.51"/><path d="M-123,676L-99,766L-6,656Z" fill="#96c9a6" stroke="#96c9a6" stroke-width="1.51"/><path d="M-123,676L-28,590L-95,560Z" fill="#9ed4b6" stroke="#9ed4b6" stroke-width="1.51"/><path d="M1524,-101L1453,-129L1439,-35Z" fill="#7fa789" stroke="#7fa789" stroke-width="1.51"/><path d="M1387,-106L1453,-129L1262,-111Z" fill="#86b28f" stroke="#86b28f" stroke-width="1.51"/><path d="M1262,-111L1453,-129L920,-112Z" fill="#8fbe99" stroke="#8fbe99" stroke-width="1.51"/><path d="M673,-120L-2,-122L156,-120Z" fill="#e0f4f1" stroke="#e0f4f1" stroke-width="1.51"/><path d="M-113,409L-123,676L-95,508Z" fill="#a7d9c2" stroke="#a7d9c2" stroke-width="1.51"/><path d="M-113,409L-122,249L-123,676Z" fill="#b1dfd0" stroke="#b1dfd0" stroke-width="1.51"/><path d="M-122,249L-117,301L-22,216Z" fill="#cdece6" stroke="#cdece6" stroke-width="1.51"/><path d="M-97,909L-92,817L-99,766Z" fill="#8cba96" stroke="#8cba96" stroke-width="1.51"/><path d="M-99,766L-92,817L4,752Z" fill="#8ebf9a" stroke="#8ebf9a" stroke-width="1.51"/><path d="M-111,149L-122,249L-22,216Z" fill="#d6efeb" stroke="#d6efeb" stroke-width="1.51"/><path d="M-1,-21L-31,61L73,46Z" fill="#e5f5f7" stroke="#e5f5f7" stroke-width="1.51"/><path d="M-1,-21L73,46L73,-14Z" fill="#e6f6f8" stroke="#e6f6f8" stroke-width="1.51"/><path d="M1541,70L1559,-21L1452,46Z" fill="#759f84" stroke="#759f84" stroke-width="1.51"/><path d="M1558,320L1559,-21L1542,229Z" fill="#669678" stroke="#669678" stroke-width="1.51"/><path d="M1561,992L1559,-21L1558,320Z" fill="#3a855f" stroke="#3a855f" stroke-width="1.51"/><path d="M-117,301L-122,249L-113,409Z" fill="#c4e8e0" stroke="#c4e8e0" stroke-width="1.51"/><path d="M-111,149L-22,216L-20,128Z" fill="#dbf2ef" stroke="#dbf2ef" stroke-width="1.51"/><path d="M-112,73L-111,149L-20,128Z" fill="#e2f4f3" stroke="#e2f4f3" stroke-width="1.51"/><path d="M51,-98L-1,-21L73,-14Z" fill="#e9f6fa" stroke="#e9f6fa" stroke-width="1.51"/><path d="M156,-120L51,-98L174,-47Z" fill="#e7f6f7" stroke="#e7f6f7" stroke-width="1.51"/><path d="M1559,-21L1524,-101L1439,-35Z" fill="#7ba287" stroke="#7ba287" stroke-width="1.51"/><path d="M-97,909L-31,1014L-24,906Z" fill="#81ac8b" stroke="#81ac8b" stroke-width="1.51"/><path d="M-24,906L-31,1014L79,990Z" fill="#7da789" stroke="#7da789" stroke-width="1.51"/><path d="M79,990L-31,1014L171,1001Z" fill="#78a186" stroke="#78a186" stroke-width="1.51"/><path d="M171,1001L-108,1030L492,1033Z" fill="#719b80" stroke="#719b80" stroke-width="1.51"/><path d="M-112,73L-20,128L-31,61Z" fill="#e3f5f4" stroke="#e3f5f4" stroke-width="1.51"/><path d="M-92,817L-97,909L-24,906Z" fill="#87b591" stroke="#87b591" stroke-width="1.51"/><path d="M-123,676L-97,909L-99,766Z" fill="#90c09a" stroke="#90c09a" stroke-width="1.51"/><path d="M-119,-30L-112,73L-31,61Z" fill="#e9f7f8" stroke="#e9f7f8" stroke-width="1.51"/><path d="M-111,149L-112,73L-122,249Z" fill="#dff3f0" stroke="#dff3f0" stroke-width="1.51"/><path d="M-119,-30L-31,61L-1,-21Z" fill="#eaf7f9" stroke="#eaf7f9" stroke-width="1.51"/><path d="M51,-98L-2,-122L-1,-21Z" fill="#ecf8fb" stroke="#ecf8fb" stroke-width="1.51"/><path d="M156,-120L-2,-122L51,-98Z" fill="#ecf8fa" stroke="#ecf8fa" stroke-width="1.51"/><path d="M1453,-129L-2,-122L673,-120Z" fill="#b0dfd0" stroke="#b0dfd0" stroke-width="1.51"/><path d="M-97,909L-108,1030L-31,1014Z" fill="#80a689" stroke="#80a689" stroke-width="1.51"/><path d="M-31,1014L-108,1030L171,1001Z" fill="#7a9f85" stroke="#7a9f85" stroke-width="1.51"/><path d="M-123,676L-108,1030L-97,909Z" fill="#89b692" stroke="#89b692" stroke-width="1.51"/><path d="M-81,-100L-119,-30L-1,-21Z" fill="#eef8fb" stroke="#eef8fb" stroke-width="1.51"/><path d="M-112,73L-119,-30L-122,249Z" fill="#e5f5f4" stroke="#e5f5f4" stroke-width="1.51"/><path d="M-2,-122L-81,-100L-1,-21Z" fill="#eef8fb" stroke="#eef8fb" stroke-width="1.51"/></svg>