<svg xmlns="http://www.w3.org/2000/svg" width="1440" height="900"><path d="M751,474L768,559L829,481Z" fill="#8d89bf" stroke="#8d89bf" stroke-width="1.51"/><path d="M768,559L853,595L829,481Z" fill="#8d7fbb" stroke="#8d7fbb" stroke-width="1.51"/><path d="M751,474L667,514L768,559Z" fill="#8d8cc1" stroke="#8d8cc1" stroke-width="1.51"/><path d="M829,481L755,394L751,474Z" fill="#8d91c3" stroke="#8d91c3" stroke-width="1.51"/><path d="M751,474L686,388L667,514Z" fill="#8d96c6" stroke="#8d96c6" stroke-width="1.51"/><path d="M768,559L776,644L853,595Z" fill="#8d79b7" stroke="#8d79b7" stroke-width="1.51"/><path d="M670,598L776,644L768,559Z" fill="#8d7fba" stroke="#8d7fba" stroke-width="1.51"/><path d="M829,481L871,403L755,394Z" fill="#8e90c2" stroke="#8e90c2" stroke-width="1.51"/><path d="M932,481L871,403L829,481Z" fill="#8d86be" stroke="#8d86be" stroke-width="1.51"/><path d="M667,514L670,598L768,559Z" fill="#8e89bf" stroke="#8e89bf" stroke-width="1.51"/><path d="M853,595L932,481L829,481Z" fill="#8d7eb9" stroke="#8d7eb9" stroke-width="1.51"/><path d="M755,394L686,388L751,474Z" fill="#8e99c7" stroke="#8e99c7" stroke-width="1.51"/><path d="M680,332L686,388L755,394Z" fill="#91a1cb" stroke="#91a1cb" stroke-width="1.51"/><path d="M776,644L854,662L853,595Z" fill="#8c72b4" stroke="#8c72b4" stroke-width="1.51"/><path d="M853,595L953,578L932,481Z" fill="#8d75b5" stroke="#8d75b5" stroke-width="1.51"/><path d="M933,684L953,578L853,595Z" fill="#8c6bb1" stroke="#8c6bb1" stroke-width="1.51"/><path d="M670,598L675,651L776,644Z" fill="#8e7eba" stroke="#8e7eba" stroke-width="1.51"/><path d="M776,644L851,750L854,662Z" fill="#8c6bb1" stroke="#8c6bb1" stroke-width="1.51"/><path d="M932,481L952,422L871,403Z" fill="#8e85bd" stroke="#8e85bd" stroke-width="1.51"/><path d="M1025,477L952,422L932,481Z" fill="#8d7cb9" stroke="#8d7cb9" stroke-width="1.51"/><path d="M850,304L766,315L755,394Z" fill="#939dca" stroke="#939dca" stroke-width="1.51"/><path d="M850,304L755,394L871,403Z" fill="#9296c6" stroke="#9296c6" stroke-width="1.51"/><path d="M670,598L597,590L675,651Z" fill="#9086be" stroke="#9086be" stroke-width="1.51"/><path d="M667,514L597,590L670,598Z" fill="#908cc1" stroke="#908cc1" stroke-width="1.51"/><path d="M574,482L597,590L667,514Z" fill="#9194c5" stroke="#9194c5" stroke-width="1.51"/><path d="M569,421L574,482L667,514Z" fill="#919dca" stroke="#919dca" stroke-width="1.51"/><path d="M766,315L680,332L755,394Z" fill="#92a1cc" stroke="#92a1cc" stroke-width="1.51"/><path d="M569,421L667,514L686,388Z" fill="#909eca" stroke="#909eca" stroke-width="1.51"/><path d="M944,337L850,304L871,403Z" fill="#9392c4" stroke="#9392c4" stroke-width="1.51"/><path d="M854,662L933,684L853,595Z" fill="#8c6bb0" stroke="#8c6bb0" stroke-width="1.51"/><path d="M851,750L933,684L854,662Z" fill="#8c64ad" stroke="#8c64ad" stroke-width="1.51"/><path d="M953,578L1025,477L932,481Z" fill="#8d75b5" stroke="#8d75b5" stroke-width="1.51"/><path d="M933,684L1006,582L953,578Z" fill="#8c67ae" stroke="#8c67ae" stroke-width="1.51"/><path d="M952,422L944,337L871,403Z" fill="#918ac0" stroke="#918ac0" stroke-width="1.51"/><path d="M1042,399L944,337L952,422Z" fill="#9185bd" stroke="#9185bd" stroke-width="1.51"/><path d="M610,314L569,421L686,388Z" fill="#95a8cf" stroke="#95a8cf" stroke-width="1.51"/><path d="M1006,582L1025,477L953,578Z" fill="#8c6eb2" stroke="#8c6eb2" stroke-width="1.51"/><path d="M675,651L743,751L776,644Z" fill="#8c75b5" stroke="#8c75b5" stroke-width="1.51"/><path d="M664,771L743,751L675,651Z" fill="#8e73b4" stroke="#8e73b4" stroke-width="1.51"/><path d="M743,751L851,750L776,644Z" fill="#8c6bb0" stroke="#8c6bb0" stroke-width="1.51"/><path d="M597,590L572,660L675,651Z" fill="#9185be" stroke="#9185be" stroke-width="1.51"/><path d="M515,587L572,660L597,590Z" fill="#948dc2" stroke="#948dc2" stroke-width="1.51"/><path d="M515,587L597,590L574,482Z" fill="#9495c6" stroke="#9495c6" stroke-width="1.51"/><path d="M680,332L610,314L686,388Z" fill="#95a8d0" stroke="#95a8d0" stroke-width="1.51"/><path d="M693,225L610,314L680,332Z" fill="#99aed3" stroke="#99aed3" stroke-width="1.51"/><path d="M693,225L680,332L766,315Z" fill="#97aad1" stroke="#97aad1" stroke-width="1.51"/><path d="M850,304L837,249L766,315Z" fill="#97a0cb" stroke="#97a0cb" stroke-width="1.51"/><path d="M927,213L837,249L850,304Z" fill="#9b9dca" stroke="#9b9dca" stroke-width="1.51"/><path d="M837,249L776,243L766,315Z" fill="#99a4cd" stroke="#99a4cd" stroke-width="1.51"/><path d="M1025,477L1042,399L952,422Z" fill="#8e7cb9" stroke="#8e7cb9" stroke-width="1.51"/><path d="M944,337L927,213L850,304Z" fill="#9897c7" stroke="#9897c7" stroke-width="1.51"/><path d="M1088,475L1042,399L1025,477Z" fill="#8d76b6" stroke="#8d76b6" stroke-width="1.51"/><path d="M500,484L515,587L574,482Z" fill="#959dca" stroke="#959dca" stroke-width="1.51"/><path d="M582,751L664,771L675,651Z" fill="#9178b7" stroke="#9178b7" stroke-width="1.51"/><path d="M743,751L742,823L851,750Z" fill="#8c64ac" stroke="#8c64ac" stroke-width="1.51"/><path d="M569,421L500,484L574,482Z" fill="#93a3cd" stroke="#93a3cd" stroke-width="1.51"/><path d="M490,414L500,484L569,421Z" fill="#95a9d0" stroke="#95a9d0" stroke-width="1.51"/><path d="M933,684L1037,662L1006,582Z" fill="#8b61ab" stroke="#8b61ab" stroke-width="1.51"/><path d="M1006,582L1088,475L1025,477Z" fill="#8d6fb2" stroke="#8d6fb2" stroke-width="1.51"/><path d="M1035,735L1037,662L933,684Z" fill="#8b59a8" stroke="#8b59a8" stroke-width="1.51"/><path d="M851,750L940,765L933,684Z" fill="#8b5daa" stroke="#8b5daa" stroke-width="1.51"/><path d="M916,824L940,765L851,750Z" fill="#8a57a5" stroke="#8a57a5" stroke-width="1.51"/><path d="M762,154L693,225L776,243Z" fill="#9fadd3" stroke="#9fadd3" stroke-width="1.51"/><path d="M776,243L693,225L766,315Z" fill="#99a9d0" stroke="#99a9d0" stroke-width="1.51"/><path d="M1127,579L1088,475L1006,582Z" fill="#8c66ae" stroke="#8c66ae" stroke-width="1.51"/><path d="M511,333L490,414L569,421Z" fill="#98afd3" stroke="#98afd3" stroke-width="1.51"/><path d="M511,333L569,421L610,314Z" fill="#98afd3" stroke="#98afd3" stroke-width="1.51"/><path d="M664,771L742,823L743,751Z" fill="#8d6aae" stroke="#8d6aae" stroke-width="1.51"/><path d="M664,771L688,860L742,823Z" fill="#8d68ab" stroke="#8d68ab" stroke-width="1.51"/><path d="M572,660L582,751L675,651Z" fill="#927fbb" stroke="#927fbb" stroke-width="1.51"/><path d="M522,756L582,751L572,660Z" fill="#947fbb" stroke="#947fbb" stroke-width="1.51"/><path d="M742,823L847,831L851,750Z" fill="#8b5ea7" stroke="#8b5ea7" stroke-width="1.51"/><path d="M1042,399L1043,307L944,337Z" fill="#9387bf" stroke="#9387bf" stroke-width="1.51"/><path d="M1124,327L1043,307L1042,399Z" fill="#9482bc" stroke="#9482bc" stroke-width="1.51"/><path d="M519,248L511,333L610,314Z" fill="#9db8d8" stroke="#9db8d8" stroke-width="1.51"/><path d="M1009,213L927,213L944,337Z" fill="#9c95c6" stroke="#9c95c6" stroke-width="1.51"/><path d="M837,249L762,154L776,243Z" fill="#9fa8d0" stroke="#9fa8d0" stroke-width="1.51"/><path d="M693,225L596,237L610,314Z" fill="#9db3d5" stroke="#9db3d5" stroke-width="1.51"/><path d="M1037,662L1127,579L1006,582Z" fill="#8b5fab" stroke="#8b5fab" stroke-width="1.51"/><path d="M940,765L1035,735L933,684Z" fill="#8b57a7" stroke="#8b57a7" stroke-width="1.51"/><path d="M1016,835L1035,735L940,765Z" fill="#894ea1" stroke="#894ea1" stroke-width="1.51"/><path d="M847,831L916,824L851,750Z" fill="#8b58a4" stroke="#8b58a4" stroke-width="1.51"/><path d="M515,587L495,684L572,660Z" fill="#958cc1" stroke="#958cc1" stroke-width="1.51"/><path d="M438,565L495,684L515,587Z" fill="#9893c5" stroke="#9893c5" stroke-width="1.51"/><path d="M438,565L515,587L500,484Z" fill="#989cca" stroke="#989cca" stroke-width="1.51"/><path d="M1088,475L1110,402L1042,399Z" fill="#8e77b6" stroke="#8e77b6" stroke-width="1.51"/><path d="M1187,497L1110,402L1088,475Z" fill="#8d6eb2" stroke="#8d6eb2" stroke-width="1.51"/><path d="M1108,680L1127,579L1037,662Z" fill="#8b58a7" stroke="#8b58a7" stroke-width="1.51"/><path d="M397,507L438,565L500,484Z" fill="#9aa2cc" stroke="#9aa2cc" stroke-width="1.51"/><path d="M430,405L500,484L490,414Z" fill="#99acd2" stroke="#99acd2" stroke-width="1.51"/><path d="M693,225L668,159L596,237Z" fill="#a2b6d6" stroke="#a2b6d6" stroke-width="1.51"/><path d="M861,137L762,154L837,249Z" fill="#a3a7cf" stroke="#a3a7cf" stroke-width="1.51"/><path d="M585,823L688,860L664,771Z" fill="#8f6cae" stroke="#8f6cae" stroke-width="1.51"/><path d="M495,684L522,756L572,660Z" fill="#9684be" stroke="#9684be" stroke-width="1.51"/><path d="M421,758L522,756L495,684Z" fill="#9984bd" stroke="#9984bd" stroke-width="1.51"/><path d="M742,823L759,928L847,831Z" fill="#8b5ba2" stroke="#8b5ba2" stroke-width="1.51"/><path d="M949,924L1016,835L916,824Z" fill="#89489a" stroke="#89489a" stroke-width="1.51"/><path d="M585,823L664,771L582,751Z" fill="#9273b3" stroke="#9273b3" stroke-width="1.51"/><path d="M1035,735L1108,680L1037,662Z" fill="#8a53a5" stroke="#8a53a5" stroke-width="1.51"/><path d="M762,154L668,159L693,225Z" fill="#a3b3d5" stroke="#a3b3d5" stroke-width="1.51"/><path d="M1043,307L1009,213L944,337Z" fill="#988fc3" stroke="#988fc3" stroke-width="1.51"/><path d="M927,213L861,137L837,249Z" fill="#a1a1cc" stroke="#a1a1cc" stroke-width="1.51"/><path d="M1122,244L1009,213L1043,307Z" fill="#9b8cc2" stroke="#9b8cc2" stroke-width="1.51"/><path d="M522,756L585,823L582,751Z" fill="#9479b6" stroke="#9479b6" stroke-width="1.51"/><path d="M511,333L430,405L490,414Z" fill="#9bb2d5" stroke="#9bb2d5" stroke-width="1.51"/><path d="M399,315L430,405L511,333Z" fill="#a0b8d8" stroke="#a0b8d8" stroke-width="1.51"/><path d="M519,248L610,314L596,237Z" fill="#9fb8d8" stroke="#9fb8d8" stroke-width="1.51"/><path d="M489,152L519,248L596,237Z" fill="#a7c0dc" stroke="#a7c0dc" stroke-width="1.51"/><path d="M952,162L861,137L927,213Z" fill="#a49fcb" stroke="#a49fcb" stroke-width="1.51"/><path d="M696,45L600,138L668,159Z" fill="#acbddb" stroke="#acbddb" stroke-width="1.51"/><path d="M1176,339L1124,327L1110,402Z" fill="#937ab8" stroke="#937ab8" stroke-width="1.51"/><path d="M1110,402L1124,327L1042,399Z" fill="#927bb9" stroke="#927bb9" stroke-width="1.51"/><path d="M1009,213L952,162L927,213Z" fill="#a299c8" stroke="#a299c8" stroke-width="1.51"/><path d="M430,405L397,507L500,484Z" fill="#9aaad0" stroke="#9aaad0" stroke-width="1.51"/><path d="M438,565L407,681L495,684Z" fill="#9b91c4" stroke="#9b91c4" stroke-width="1.51"/><path d="M1035,735L1127,767L1108,680Z" fill="#8a4ba1" stroke="#8a4ba1" stroke-width="1.51"/><path d="M916,824L1016,835L940,765Z" fill="#8a4ea0" stroke="#8a4ea0" stroke-width="1.51"/><path d="M949,924L916,824L847,831Z" fill="#894d9c" stroke="#894d9c" stroke-width="1.51"/><path d="M1127,579L1187,497L1088,475Z" fill="#8c65ae" stroke="#8c65ae" stroke-width="1.51"/><path d="M1192,579L1187,497L1127,579Z" fill="#8c5da9" stroke="#8c5da9" stroke-width="1.51"/><path d="M1179,652L1192,579L1127,579Z" fill="#8b55a6" stroke="#8b55a6" stroke-width="1.51"/><path d="M1179,652L1127,579L1108,680Z" fill="#8a53a5" stroke="#8a53a5" stroke-width="1.51"/><path d="M339,560L407,681L438,565Z" fill="#9f99c8" stroke="#9f99c8" stroke-width="1.51"/><path d="M522,756L490,854L585,823Z" fill="#9677b3" stroke="#9677b3" stroke-width="1.51"/><path d="M1204,739L1179,652L1108,680Z" fill="#8949a0" stroke="#8949a0" stroke-width="1.51"/><path d="M696,45L668,159L762,154Z" fill="#a9b7d8" stroke="#a9b7d8" stroke-width="1.51"/><path d="M668,159L600,138L596,237Z" fill="#a6bad9" stroke="#a6bad9" stroke-width="1.51"/><path d="M688,860L759,928L742,823Z" fill="#8c5fa4" stroke="#8c5fa4" stroke-width="1.51"/><path d="M673,918L759,928L688,860Z" fill="#8c5ea1" stroke="#8c5ea1" stroke-width="1.51"/><path d="M585,908L688,860L585,823Z" fill="#916aa9" stroke="#916aa9" stroke-width="1.51"/><path d="M585,908L673,918L688,860Z" fill="#8f63a5" stroke="#8f63a5" stroke-width="1.51"/><path d="M1209,413L1176,339L1110,402Z" fill="#9174b5" stroke="#9174b5" stroke-width="1.51"/><path d="M1124,327L1122,244L1043,307Z" fill="#9786be" stroke="#9786be" stroke-width="1.51"/><path d="M1009,213L1020,134L952,162Z" fill="#a498c8" stroke="#a498c8" stroke-width="1.51"/><path d="M1109,835L1127,767L1035,735Z" fill="#89449d" stroke="#89449d" stroke-width="1.51"/><path d="M759,928L828,935L847,831Z" fill="#8a539c" stroke="#8a539c" stroke-width="1.51"/><path d="M1176,339L1122,244L1124,327Z" fill="#9680bb" stroke="#9680bb" stroke-width="1.51"/><path d="M1262,393L1209,413L1291,474Z" fill="#8e68ab" stroke="#8e68ab" stroke-width="1.51"/><path d="M1187,497L1209,413L1110,402Z" fill="#8e6db1" stroke="#8e6db1" stroke-width="1.51"/><path d="M416,234L511,333L519,248Z" fill="#a3bfdc" stroke="#a3bfdc" stroke-width="1.51"/><path d="M416,234L399,315L511,333Z" fill="#a4c0dc" stroke="#a4c0dc" stroke-width="1.51"/><path d="M430,405L334,476L397,507Z" fill="#9eadd2" stroke="#9eadd2" stroke-width="1.51"/><path d="M407,681L421,758L495,684Z" fill="#9c89c0" stroke="#9c89c0" stroke-width="1.51"/><path d="M952,162L947,81L861,137Z" fill="#a9a1cd" stroke="#a9a1cd" stroke-width="1.51"/><path d="M861,137L832,54L762,154Z" fill="#aaadd2" stroke="#aaadd2" stroke-width="1.51"/><path d="M1089,140L1020,134L1009,213Z" fill="#a594c6" stroke="#a594c6" stroke-width="1.51"/><path d="M828,935L949,924L847,831Z" fill="#894c9a" stroke="#894c9a" stroke-width="1.51"/><path d="M1016,835L1109,835L1035,735Z" fill="#88459c" stroke="#88459c" stroke-width="1.51"/><path d="M490,854L585,908L585,823Z" fill="#946fac" stroke="#946fac" stroke-width="1.51"/><path d="M742,1025L828,935L759,928Z" fill="#805293" stroke="#805293" stroke-width="1.51"/><path d="M397,507L339,560L438,565Z" fill="#9fa1cc" stroke="#9fa1cc" stroke-width="1.51"/><path d="M320,771L412,824L421,758Z" fill="#9f83bb" stroke="#9f83bb" stroke-width="1.51"/><path d="M334,476L339,560L397,507Z" fill="#a1a8cf" stroke="#a1a8cf" stroke-width="1.51"/><path d="M421,758L490,854L522,756Z" fill="#997db8" stroke="#997db8" stroke-width="1.51"/><path d="M326,409L334,476L430,405Z" fill="#a1b3d5" stroke="#a1b3d5" stroke-width="1.51"/><path d="M1097,918L1109,835L1016,835Z" fill="#873b94" stroke="#873b94" stroke-width="1.51"/><path d="M1127,767L1204,739L1108,680Z" fill="#89459f" stroke="#89459f" stroke-width="1.51"/><path d="M1020,134L947,81L952,162Z" fill="#a99dcb" stroke="#a99dcb" stroke-width="1.51"/><path d="M947,81L832,54L861,137Z" fill="#ada8d0" stroke="#ada8d0" stroke-width="1.51"/><path d="M949,924L1009,914L1016,835Z" fill="#884195" stroke="#884195" stroke-width="1.51"/><path d="M342,338L326,409L430,405Z" fill="#a4b8d9" stroke="#a4b8d9" stroke-width="1.51"/><path d="M489,152L416,234L519,248Z" fill="#aac4df" stroke="#aac4df" stroke-width="1.51"/><path d="M600,138L489,152L596,237Z" fill="#a9c0dd" stroke="#a9c0dd" stroke-width="1.51"/><path d="M511,81L489,152L600,138Z" fill="#b0c7e0" stroke="#b0c7e0" stroke-width="1.51"/><path d="M832,54L773,41L762,154Z" fill="#adb2d5" stroke="#adb2d5" stroke-width="1.51"/><path d="M247,564L323,686L339,560Z" fill="#a69dcb" stroke="#a69dcb" stroke-width="1.51"/><path d="M342,338L430,405L399,315Z" fill="#a4bbda" stroke="#a4bbda" stroke-width="1.51"/><path d="M773,41L696,45L762,154Z" fill="#adb7d8" stroke="#adb7d8" stroke-width="1.51"/><path d="M1197,846L1204,739L1127,767Z" fill="#873b97" stroke="#873b97" stroke-width="1.51"/><path d="M1179,652L1266,587L1192,579Z" fill="#8a51a2" stroke="#8a51a2" stroke-width="1.51"/><path d="M1192,579L1266,587L1187,497Z" fill="#8b59a5" stroke="#8b59a5" stroke-width="1.51"/><path d="M339,214L342,338L399,315Z" fill="#aac4df" stroke="#aac4df" stroke-width="1.51"/><path d="M1122,244L1089,140L1009,213Z" fill="#a18ec3" stroke="#a18ec3" stroke-width="1.51"/><path d="M1020,134L1005,74L947,81Z" fill="#ac9dcb" stroke="#ac9dcb" stroke-width="1.51"/><path d="M1182,163L1089,140L1122,244Z" fill="#a38ac1" stroke="#a38ac1" stroke-width="1.51"/><path d="M1181,225L1122,244L1176,339Z" fill="#9a81bc" stroke="#9a81bc" stroke-width="1.51"/><path d="M1268,666L1266,587L1179,652Z" fill="#894b9e" stroke="#894b9e" stroke-width="1.51"/><path d="M1262,393L1176,339L1209,413Z" fill="#9171b1" stroke="#9171b1" stroke-width="1.51"/><path d="M1288,335L1181,225L1176,339Z" fill="#977bb6" stroke="#977bb6" stroke-width="1.51"/><path d="M947,81L858,-9L832,54Z" fill="#b2acd3" stroke="#b2acd3" stroke-width="1.51"/><path d="M832,54L858,-9L773,41Z" fill="#b3b3d6" stroke="#b3b3d6" stroke-width="1.51"/><path d="M1089,140L1005,74L1020,134Z" fill="#aa97c8" stroke="#aa97c8" stroke-width="1.51"/><path d="M421,758L412,824L490,854Z" fill="#9b7db7" stroke="#9b7db7" stroke-width="1.51"/><path d="M490,854L513,945L585,908Z" fill="#956da9" stroke="#956da9" stroke-width="1.51"/><path d="M323,686L421,758L407,681Z" fill="#a08cc2" stroke="#a08cc2" stroke-width="1.51"/><path d="M1291,474L1209,413L1187,497Z" fill="#8c66aa" stroke="#8c66aa" stroke-width="1.51"/><path d="M247,564L339,560L334,476Z" fill="#a5a7cf" stroke="#a5a7cf" stroke-width="1.51"/><path d="M339,560L323,686L407,681Z" fill="#a296c7" stroke="#a296c7" stroke-width="1.51"/><path d="M489,152L428,165L416,234Z" fill="#afc7e0" stroke="#afc7e0" stroke-width="1.51"/><path d="M416,234L339,214L399,315Z" fill="#acc6e0" stroke="#acc6e0" stroke-width="1.51"/><path d="M400,53L428,165L489,152Z" fill="#b6cde3" stroke="#b6cde3" stroke-width="1.51"/><path d="M696,45L572,57L600,138Z" fill="#b1c2de" stroke="#b1c2de" stroke-width="1.51"/><path d="M1266,587L1291,474L1187,497Z" fill="#8b5ba5" stroke="#8b5ba5" stroke-width="1.51"/><path d="M1266,587L1349,588L1291,474Z" fill="#8b539f" stroke="#8b539f" stroke-width="1.51"/><path d="M1204,739L1268,666L1179,652Z" fill="#88459c" stroke="#88459c" stroke-width="1.51"/><path d="M828,935L845,1015L949,924Z" fill="#804890" stroke="#804890" stroke-width="1.51"/><path d="M949,924L1041,1004L1009,914Z" fill="#7f3b8b" stroke="#7f3b8b" stroke-width="1.51"/><path d="M742,1025L845,1015L828,935Z" fill="#7a4c8d" stroke="#7a4c8d" stroke-width="1.51"/><path d="M742,1025L759,928L673,918Z" fill="#815797" stroke="#815797" stroke-width="1.51"/><path d="M572,57L511,81L600,138Z" fill="#b2c7e0" stroke="#b2c7e0" stroke-width="1.51"/><path d="M1204,739L1262,772L1268,666Z" fill="#873d98" stroke="#873d98" stroke-width="1.51"/><path d="M1109,835L1197,846L1127,767Z" fill="#873a96" stroke="#873a96" stroke-width="1.51"/><path d="M1009,914L1097,918L1016,835Z" fill="#873b93" stroke="#873b93" stroke-width="1.51"/><path d="M1041,1004L1097,918L1009,914Z" fill="#7f368a" stroke="#7f368a" stroke-width="1.51"/><path d="M670,1023L742,1025L673,918Z" fill="#7d5792" stroke="#7d5792" stroke-width="1.51"/><path d="M427,914L513,945L490,854Z" fill="#9871ab" stroke="#9871ab" stroke-width="1.51"/><path d="M670,1023L673,918L585,908Z" fill="#875f9c" stroke="#875f9c" stroke-width="1.51"/><path d="M753,-35L679,-15L696,45Z" fill="#b7c1dd" stroke="#b7c1dd" stroke-width="1.51"/><path d="M696,45L583,-5L572,57Z" fill="#b7c7e0" stroke="#b7c7e0" stroke-width="1.51"/><path d="M941,-47L858,-9L947,81Z" fill="#b5abd3" stroke="#b5abd3" stroke-width="1.51"/><path d="M572,1027L670,1023L585,908Z" fill="#815f97" stroke="#815f97" stroke-width="1.51"/><path d="M1089,140L1123,72L1005,74Z" fill="#ac96c7" stroke="#ac96c7" stroke-width="1.51"/><path d="M1005,74L941,-47L947,81Z" fill="#b2a4cf" stroke="#b2a4cf" stroke-width="1.51"/><path d="M1181,225L1182,163L1122,244Z" fill="#a085be" stroke="#a085be" stroke-width="1.51"/><path d="M1266,130L1182,163L1181,225Z" fill="#a484bc" stroke="#a484bc" stroke-width="1.51"/><path d="M1288,335L1176,339L1262,393Z" fill="#9372b0" stroke="#9372b0" stroke-width="1.51"/><path d="M1097,918L1197,846L1109,835Z" fill="#863491" stroke="#863491" stroke-width="1.51"/><path d="M1358,403L1288,335L1262,393Z" fill="#916baa" stroke="#916baa" stroke-width="1.51"/><path d="M412,824L427,914L490,854Z" fill="#9a77b0" stroke="#9a77b0" stroke-width="1.51"/><path d="M323,686L320,771L421,758Z" fill="#a289c0" stroke="#a289c0" stroke-width="1.51"/><path d="M233,741L320,771L323,686Z" fill="#a68dc3" stroke="#a68dc3" stroke-width="1.51"/><path d="M326,409L261,410L334,476Z" fill="#a5b6d6" stroke="#a5b6d6" stroke-width="1.51"/><path d="M342,338L261,410L326,409Z" fill="#a8bbda" stroke="#a8bbda" stroke-width="1.51"/><path d="M240,310L261,410L342,338Z" fill="#acc1dd" stroke="#acc1dd" stroke-width="1.51"/><path d="M753,-35L696,45L773,41Z" fill="#b4bddb" stroke="#b4bddb" stroke-width="1.51"/><path d="M572,57L486,-39L511,81Z" fill="#bacfe4" stroke="#bacfe4" stroke-width="1.51"/><path d="M428,165L339,214L416,234Z" fill="#b1c9e1" stroke="#b1c9e1" stroke-width="1.51"/><path d="M345,128L339,214L428,165Z" fill="#b6cde3" stroke="#b6cde3" stroke-width="1.51"/><path d="M513,945L572,1027L585,908Z" fill="#89669e" stroke="#89669e" stroke-width="1.51"/><path d="M333,846L427,914L412,824Z" fill="#9e7ab2" stroke="#9e7ab2" stroke-width="1.51"/><path d="M845,1015L931,1032L949,924Z" fill="#794288" stroke="#794288" stroke-width="1.51"/><path d="M742,1025L931,1032L845,1015Z" fill="#744686" stroke="#744686" stroke-width="1.51"/><path d="M492,1033L931,1032L742,1025Z" fill="#74528a" stroke="#74528a" stroke-width="1.51"/><path d="M1197,846L1262,772L1204,739Z" fill="#873694" stroke="#873694" stroke-width="1.51"/><path d="M1268,666L1349,588L1266,587Z" fill="#894a9b" stroke="#894a9b" stroke-width="1.51"/><path d="M233,497L247,564L334,476Z" fill="#a8acd2" stroke="#a8acd2" stroke-width="1.51"/><path d="M858,-9L753,-35L773,41Z" fill="#b6b8d9" stroke="#b6b8d9" stroke-width="1.51"/><path d="M1182,163L1123,72L1089,140Z" fill="#a98ec3" stroke="#a98ec3" stroke-width="1.51"/><path d="M261,410L233,497L334,476Z" fill="#a7b3d5" stroke="#a7b3d5" stroke-width="1.51"/><path d="M931,1032L1041,1004L949,924Z" fill="#793b86" stroke="#793b86" stroke-width="1.51"/><path d="M1186,937L1260,841L1197,846Z" fill="#852b8a" stroke="#852b8a" stroke-width="1.51"/><path d="M679,-15L583,-5L696,45Z" fill="#b8c5df" stroke="#b8c5df" stroke-width="1.51"/><path d="M400,53L345,128L428,165Z" fill="#bbd0e4" stroke="#bbd0e4" stroke-width="1.51"/><path d="M611,-108L583,-5L679,-15Z" fill="#bdcbe2" stroke="#bdcbe2" stroke-width="1.51"/><path d="M670,1023L572,1027L742,1025Z" fill="#78578d" stroke="#78578d" stroke-width="1.51"/><path d="M492,1033L572,1027L513,945Z" fill="#836598" stroke="#836598" stroke-width="1.51"/><path d="M320,771L333,846L412,824Z" fill="#a281b8" stroke="#a281b8" stroke-width="1.51"/><path d="M437,1008L492,1033L513,945Z" fill="#87689a" stroke="#87689a" stroke-width="1.51"/><path d="M261,826L333,846L320,771Z" fill="#a583ba" stroke="#a583ba" stroke-width="1.51"/><path d="M1386,651L1349,588L1268,666Z" fill="#884397" stroke="#884397" stroke-width="1.51"/><path d="M1291,474L1358,403L1262,393Z" fill="#8d65a8" stroke="#8d65a8" stroke-width="1.51"/><path d="M1349,588L1360,471L1291,474Z" fill="#8b569f" stroke="#8b569f" stroke-width="1.51"/><path d="M1370,745L1386,651L1268,666Z" fill="#873a93" stroke="#873a93" stroke-width="1.51"/><path d="M1197,846L1260,841L1262,772Z" fill="#86308e" stroke="#86308e" stroke-width="1.51"/><path d="M1186,937L1197,846L1097,918Z" fill="#852c8c" stroke="#852c8c" stroke-width="1.51"/><path d="M1288,335L1297,240L1181,225Z" fill="#9a7ab5" stroke="#9a7ab5" stroke-width="1.51"/><path d="M1182,163L1208,82L1123,72Z" fill="#ab8dc2" stroke="#ab8dc2" stroke-width="1.51"/><path d="M1382,317L1297,240L1288,335Z" fill="#9673ae" stroke="#9673ae" stroke-width="1.51"/><path d="M1039,-38L941,-47L1005,74Z" fill="#b6a5d0" stroke="#b6a5d0" stroke-width="1.51"/><path d="M858,-9L779,-101L753,-35Z" fill="#babbdb" stroke="#babbdb" stroke-width="1.51"/><path d="M1360,471L1358,403L1291,474Z" fill="#8c5fa3" stroke="#8c5fa3" stroke-width="1.51"/><path d="M339,214L240,310L342,338Z" fill="#afc7e0" stroke="#afc7e0" stroke-width="1.51"/><path d="M261,410L164,421L233,497Z" fill="#acb9d9" stroke="#acb9d9" stroke-width="1.51"/><path d="M177,599L231,686L247,564Z" fill="#aca0cd" stroke="#aca0cd" stroke-width="1.51"/><path d="M247,564L231,686L323,686Z" fill="#a899c9" stroke="#a899c9" stroke-width="1.51"/><path d="M1109,1013L1186,937L1097,918Z" fill="#7c2c85" stroke="#7c2c85" stroke-width="1.51"/><path d="M339,214L233,252L240,310Z" fill="#b5cbe2" stroke="#b5cbe2" stroke-width="1.51"/><path d="M400,53L489,152L511,81Z" fill="#b7cee4" stroke="#b7cee4" stroke-width="1.51"/><path d="M1041,1004L1109,1013L1097,918Z" fill="#793082" stroke="#793082" stroke-width="1.51"/><path d="M931,1032L1109,1013L1041,1004Z" fill="#73337f" stroke="#73337f" stroke-width="1.51"/><path d="M437,1008L513,945L427,914Z" fill="#906da2" stroke="#906da2" stroke-width="1.51"/><path d="M572,1027L492,1033L742,1025Z" fill="#7a5c90" stroke="#7a5c90" stroke-width="1.51"/><path d="M486,-39L400,53L511,81Z" fill="#bed3e6" stroke="#bed3e6" stroke-width="1.51"/><path d="M352,937L437,1008L427,914Z" fill="#9470a4" stroke="#9470a4" stroke-width="1.51"/><path d="M231,686L233,741L323,686Z" fill="#a992c5" stroke="#a992c5" stroke-width="1.51"/><path d="M1108,-4L1039,-38L1005,74Z" fill="#b59fcc" stroke="#b59fcc" stroke-width="1.51"/><path d="M1266,130L1208,82L1182,163Z" fill="#a887bd" stroke="#a887bd" stroke-width="1.51"/><path d="M1108,-4L1005,74L1123,72Z" fill="#b199c9" stroke="#b199c9" stroke-width="1.51"/><path d="M1204,-27L1108,-4L1123,72Z" fill="#b495c8" stroke="#b495c8" stroke-width="1.51"/><path d="M352,937L427,914L333,846Z" fill="#9f76ae" stroke="#9f76ae" stroke-width="1.51"/><path d="M244,927L352,937L333,846Z" fill="#a479b0" stroke="#a479b0" stroke-width="1.51"/><path d="M258,128L233,252L339,214Z" fill="#bbcfe4" stroke="#bbcfe4" stroke-width="1.51"/><path d="M143,485L177,599L233,497Z" fill="#aeafd4" stroke="#aeafd4" stroke-width="1.51"/><path d="M233,497L177,599L247,564Z" fill="#aca9d1" stroke="#aca9d1" stroke-width="1.51"/><path d="M258,128L339,214L345,128Z" fill="#bcd1e5" stroke="#bcd1e5" stroke-width="1.51"/><path d="M1208,82L1204,-27L1123,72Z" fill="#b190c4" stroke="#b190c4" stroke-width="1.51"/><path d="M1297,240L1266,130L1181,225Z" fill="#a17fb8" stroke="#a17fb8" stroke-width="1.51"/><path d="M1351,165L1266,130L1297,240Z" fill="#a27cb4" stroke="#a27cb4" stroke-width="1.51"/><path d="M753,-35L673,-120L679,-15Z" fill="#bbc5df" stroke="#bbc5df" stroke-width="1.51"/><path d="M583,-5L486,-39L572,57Z" fill="#bdcfe5" stroke="#bdcfe5" stroke-width="1.51"/><path d="M838,-107L779,-101L858,-9Z" fill="#bcb9da" stroke="#bcb9da" stroke-width="1.51"/><path d="M838,-107L858,-9L920,-112Z" fill="#bcb4d7" stroke="#bcb4d7" stroke-width="1.51"/><path d="M233,741L261,826L320,771Z" fill="#a889bf" stroke="#a889bf" stroke-width="1.51"/><path d="M1451,474L1446,423L1360,471Z" fill="#85589a" stroke="#85589a" stroke-width="1.51"/><path d="M1446,423L1382,317L1358,403Z" fill="#8c63a2" stroke="#8c63a2" stroke-width="1.51"/><path d="M1370,745L1268,666L1262,772Z" fill="#873793" stroke="#873793" stroke-width="1.51"/><path d="M164,421L261,410L240,310Z" fill="#afc1dd" stroke="#afc1dd" stroke-width="1.51"/><path d="M231,686L146,747L233,741Z" fill="#ad93c6" stroke="#ad93c6" stroke-width="1.51"/><path d="M233,741L158,843L261,826Z" fill="#ab89be" stroke="#ab89be" stroke-width="1.51"/><path d="M920,-112L858,-9L941,-47Z" fill="#bab0d5" stroke="#bab0d5" stroke-width="1.51"/><path d="M1358,403L1382,317L1288,335Z" fill="#936ba9" stroke="#936ba9" stroke-width="1.51"/><path d="M1446,423L1358,403L1360,471Z" fill="#8a5d9f" stroke="#8a5d9f" stroke-width="1.51"/><path d="M1366,821L1370,745L1262,772Z" fill="#852c8c" stroke="#852c8c" stroke-width="1.51"/><path d="M1186,937L1289,930L1260,841Z" fill="#832285" stroke="#832285" stroke-width="1.51"/><path d="M1109,1013L1191,990L1186,937Z" fill="#77277e" stroke="#77277e" stroke-width="1.51"/><path d="M515,-94L486,-39L583,-5Z" fill="#c1d4e7" stroke="#c1d4e7" stroke-width="1.51"/><path d="M1366,821L1262,772L1260,841Z" fill="#852b8b" stroke="#852b8b" stroke-width="1.51"/><path d="M147,328L164,421L240,310Z" fill="#b4c6e0" stroke="#b4c6e0" stroke-width="1.51"/><path d="M1009,-92L941,-47L1039,-38Z" fill="#baa7d1" stroke="#baa7d1" stroke-width="1.51"/><path d="M1009,-92L920,-112L941,-47Z" fill="#bdacd4" stroke="#bdacd4" stroke-width="1.51"/><path d="M920,-112L673,-120L838,-107Z" fill="#bfbcdc" stroke="#bfbcdc" stroke-width="1.51"/><path d="M838,-107L673,-120L779,-101Z" fill="#bec1de" stroke="#bec1de" stroke-width="1.51"/><path d="M779,-101L673,-120L753,-35Z" fill="#bcc3df" stroke="#bcc3df" stroke-width="1.51"/><path d="M1094,-98L1009,-92L1039,-38Z" fill="#bca3cf" stroke="#bca3cf" stroke-width="1.51"/><path d="M1094,-98L1039,-38L1108,-4Z" fill="#ba9fcd" stroke="#ba9fcd" stroke-width="1.51"/><path d="M177,599L163,665L231,686Z" fill="#ae9dcb" stroke="#ae9dcb" stroke-width="1.51"/><path d="M79,559L163,665L177,599Z" fill="#b2a5d0" stroke="#b2a5d0" stroke-width="1.51"/><path d="M673,-120L611,-108L679,-15Z" fill="#bfcae2" stroke="#bfcae2" stroke-width="1.51"/><path d="M412,-29L346,41L400,53Z" fill="#c5d8ea" stroke="#c5d8ea" stroke-width="1.51"/><path d="M400,53L346,41L345,128Z" fill="#c2d5e7" stroke="#c2d5e7" stroke-width="1.51"/><path d="M164,421L143,485L233,497Z" fill="#aeb7d8" stroke="#aeb7d8" stroke-width="1.51"/><path d="M1266,130L1264,71L1208,82Z" fill="#ac87bc" stroke="#ac87bc" stroke-width="1.51"/><path d="M1352,67L1264,71L1266,130Z" fill="#ac84b8" stroke="#ac84b8" stroke-width="1.51"/><path d="M176,236L147,328L240,310Z" fill="#b7cee4" stroke="#b7cee4" stroke-width="1.51"/><path d="M76,398L70,476L143,485Z" fill="#b4bedc" stroke="#b4bedc" stroke-width="1.51"/><path d="M346,41L258,128L345,128Z" fill="#c3d5e7" stroke="#c3d5e7" stroke-width="1.51"/><path d="M1191,990L1289,930L1186,937Z" fill="#7b227f" stroke="#7b227f" stroke-width="1.51"/><path d="M352,937L347,996L437,1008Z" fill="#906fa0" stroke="#906fa0" stroke-width="1.51"/><path d="M437,1008L347,996L492,1033Z" fill="#876999" stroke="#876999" stroke-width="1.51"/><path d="M244,927L347,996L352,937Z" fill="#9a74a6" stroke="#9a74a6" stroke-width="1.51"/><path d="M244,927L333,846L261,826Z" fill="#a67eb5" stroke="#a67eb5" stroke-width="1.51"/><path d="M1370,745L1449,647L1386,651Z" fill="#82378d" stroke="#82378d" stroke-width="1.51"/><path d="M1289,930L1366,821L1260,841Z" fill="#832285" stroke="#832285" stroke-width="1.51"/><path d="M346,41L242,42L258,128Z" fill="#c8dae9" stroke="#c8dae9" stroke-width="1.51"/><path d="M486,-39L412,-29L400,53Z" fill="#c5d8e9" stroke="#c5d8e9" stroke-width="1.51"/><path d="M428,-97L412,-29L486,-39Z" fill="#c8daea" stroke="#c8daea" stroke-width="1.51"/><path d="M1380,217L1351,165L1297,240Z" fill="#9f78b0" stroke="#9f78b0" stroke-width="1.51"/><path d="M1382,317L1380,217L1297,240Z" fill="#9a73ad" stroke="#9a73ad" stroke-width="1.51"/><path d="M428,-97L515,-94L611,-108Z" fill="#c6d8e9" stroke="#c6d8e9" stroke-width="1.51"/><path d="M611,-108L515,-94L583,-5Z" fill="#c2d1e6" stroke="#c2d1e6" stroke-width="1.51"/><path d="M1382,317L1448,228L1380,217Z" fill="#9670a8" stroke="#9670a8" stroke-width="1.51"/><path d="M1451,474L1360,471L1349,588Z" fill="#88529a" stroke="#88529a" stroke-width="1.51"/><path d="M1451,474L1349,588L1458,601Z" fill="#834a93" stroke="#834a93" stroke-width="1.51"/><path d="M1458,601L1349,588L1386,651Z" fill="#854292" stroke="#854292" stroke-width="1.51"/><path d="M176,236L240,310L233,252Z" fill="#b8cee4" stroke="#b8cee4" stroke-width="1.51"/><path d="M164,168L176,236L233,252Z" fill="#bfd3e6" stroke="#bfd3e6" stroke-width="1.51"/><path d="M1467,770L1449,647L1370,745Z" fill="#7e2f87" stroke="#7e2f87" stroke-width="1.51"/><path d="M1449,647L1458,601L1386,651Z" fill="#803d8c" stroke="#803d8c" stroke-width="1.51"/><path d="M1290,-19L1204,-27L1264,71Z" fill="#b48dbf" stroke="#b48dbf" stroke-width="1.51"/><path d="M1264,71L1204,-27L1208,82Z" fill="#b18dc1" stroke="#b18dc1" stroke-width="1.51"/><path d="M1009,-92L1094,-98L920,-112Z" fill="#bea8d2" stroke="#bea8d2" stroke-width="1.51"/><path d="M1204,-27L1094,-98L1108,-4Z" fill="#b99aca" stroke="#b99aca" stroke-width="1.51"/><path d="M163,665L146,747L231,686Z" fill="#af97c8" stroke="#af97c8" stroke-width="1.51"/><path d="M55,681L146,747L163,665Z" fill="#b39bca" stroke="#b39bca" stroke-width="1.51"/><path d="M158,843L244,927L261,826Z" fill="#aa82b6" stroke="#aa82b6" stroke-width="1.51"/><path d="M1446,423L1459,318L1382,317Z" fill="#8a659f" stroke="#8a659f" stroke-width="1.51"/><path d="M1466,147L1352,67L1351,165Z" fill="#a57aae" stroke="#a57aae" stroke-width="1.51"/><path d="M1557,397L1459,318L1446,423Z" fill="#815e96" stroke="#815e96" stroke-width="1.51"/><path d="M1531,493L1446,423L1451,474Z" fill="#7d5492" stroke="#7d5492" stroke-width="1.51"/><path d="M428,-97L333,-26L412,-29Z" fill="#cbdceb" stroke="#cbdceb" stroke-width="1.51"/><path d="M412,-29L333,-26L346,41Z" fill="#cadbeb" stroke="#cadbeb" stroke-width="1.51"/><path d="M258,128L164,168L233,252Z" fill="#c1d4e7" stroke="#c1d4e7" stroke-width="1.51"/><path d="M515,-94L428,-97L486,-39Z" fill="#c7d9ea" stroke="#c7d9ea" stroke-width="1.51"/><path d="M673,-120L428,-97L611,-108Z" fill="#c5d3e7" stroke="#c5d3e7" stroke-width="1.51"/><path d="M143,485L79,559L177,599Z" fill="#b2aed4" stroke="#b2aed4" stroke-width="1.51"/><path d="M70,476L79,559L143,485Z" fill="#b5b6d8" stroke="#b5b6d8" stroke-width="1.51"/><path d="M169,40L164,168L258,128Z" fill="#cadbea" stroke="#cadbea" stroke-width="1.51"/><path d="M78,220L55,321L147,328Z" fill="#bfd3e7" stroke="#bfd3e7" stroke-width="1.51"/><path d="M76,398L143,485L164,421Z" fill="#b3bfdc" stroke="#b3bfdc" stroke-width="1.51"/><path d="M146,747L158,843L233,741Z" fill="#ae8ec2" stroke="#ae8ec2" stroke-width="1.51"/><path d="M68,768L158,843L146,747Z" fill="#b290c3" stroke="#b290c3" stroke-width="1.51"/><path d="M76,398L164,421L147,328Z" fill="#b6c6df" stroke="#b6c6df" stroke-width="1.51"/><path d="M1204,-27L1204,-92L1094,-98Z" fill="#bb98c9" stroke="#bb98c9" stroke-width="1.51"/><path d="M1351,165L1352,67L1266,130Z" fill="#a87fb5" stroke="#a87fb5" stroke-width="1.51"/><path d="M1466,147L1351,165L1380,217Z" fill="#9e76ab" stroke="#9e76ab" stroke-width="1.51"/><path d="M169,40L242,42L174,-47Z" fill="#d5e3ef" stroke="#d5e3ef" stroke-width="1.51"/><path d="M333,-26L242,42L346,41Z" fill="#ccdceb" stroke="#ccdceb" stroke-width="1.51"/><path d="M1459,318L1448,228L1382,317Z" fill="#8f6da3" stroke="#8f6da3" stroke-width="1.51"/><path d="M55,321L76,398L147,328Z" fill="#bbcce3" stroke="#bbcce3" stroke-width="1.51"/><path d="M1289,930L1387,942L1366,821Z" fill="#82157e" stroke="#82157e" stroke-width="1.51"/><path d="M1366,821L1467,770L1370,745Z" fill="#802785" stroke="#802785" stroke-width="1.51"/><path d="M1191,990L1295,1026L1289,930Z" fill="#751c77" stroke="#751c77" stroke-width="1.51"/><path d="M1109,1013L1295,1026L1191,990Z" fill="#712177" stroke="#712177" stroke-width="1.51"/><path d="M931,1032L1295,1026L1109,1013Z" fill="#70297a" stroke="#70297a" stroke-width="1.51"/><path d="M1458,601L1531,493L1451,474Z" fill="#7c4b8e" stroke="#7c4b8e" stroke-width="1.51"/><path d="M1541,589L1531,493L1458,601Z" fill="#774488" stroke="#774488" stroke-width="1.51"/><path d="M1458,826L1467,770L1366,821Z" fill="#7c217f" stroke="#7c217f" stroke-width="1.51"/><path d="M1352,67L1290,-19L1264,71Z" fill="#b187ba" stroke="#b187ba" stroke-width="1.51"/><path d="M1094,-98L1262,-111L920,-112Z" fill="#bea1ce" stroke="#bea1ce" stroke-width="1.51"/><path d="M1262,-111L1204,-92L1204,-27Z" fill="#bb94c5" stroke="#bb94c5" stroke-width="1.51"/><path d="M1379,993L1387,942L1289,930Z" fill="#780f74" stroke="#780f74" stroke-width="1.51"/><path d="M1464,904L1458,826L1366,821Z" fill="#7b197a" stroke="#7b197a" stroke-width="1.51"/><path d="M1458,601L1449,647L1542,657Z" fill="#793a86" stroke="#793a86" stroke-width="1.51"/><path d="M1541,589L1458,601L1542,657Z" fill="#763b83" stroke="#763b83" stroke-width="1.51"/><path d="M1522,154L1466,147L1448,228Z" fill="#9471a1" stroke="#9471a1" stroke-width="1.51"/><path d="M165,935L226,1001L244,927Z" fill="#a179a9" stroke="#a179a9" stroke-width="1.51"/><path d="M244,927L226,1001L347,996Z" fill="#9974a4" stroke="#9974a4" stroke-width="1.51"/><path d="M347,996L226,1001L492,1033Z" fill="#8c6d9b" stroke="#8c6d9b" stroke-width="1.51"/><path d="M79,559L55,681L163,665Z" fill="#b4a4cf" stroke="#b4a4cf" stroke-width="1.51"/><path d="M158,843L165,935L244,927Z" fill="#ac7fb3" stroke="#ac7fb3" stroke-width="1.51"/><path d="M-6,656L55,681L79,559Z" fill="#b8a7d1" stroke="#b8a7d1" stroke-width="1.51"/><path d="M82,915L165,935L158,843Z" fill="#b082b5" stroke="#b082b5" stroke-width="1.51"/><path d="M70,476L-12,505L79,559Z" fill="#b8b8d9" stroke="#b8b8d9" stroke-width="1.51"/><path d="M-17,388L-12,505L70,476Z" fill="#b9c1dd" stroke="#b9c1dd" stroke-width="1.51"/><path d="M78,220L147,328L176,236Z" fill="#bfd3e7" stroke="#bfd3e7" stroke-width="1.51"/><path d="M78,220L176,236L164,168Z" fill="#c4d7e8" stroke="#c4d7e8" stroke-width="1.51"/><path d="M1542,657L1449,647L1530,742Z" fill="#753280" stroke="#753280" stroke-width="1.51"/><path d="M1387,942L1464,904L1366,821Z" fill="#7d1279" stroke="#7d1279" stroke-width="1.51"/><path d="M1295,1026L1379,993L1289,930Z" fill="#741272" stroke="#741272" stroke-width="1.51"/><path d="M55,681L68,768L146,747Z" fill="#b598c9" stroke="#b598c9" stroke-width="1.51"/><path d="M65,136L78,220L164,168Z" fill="#cadbeb" stroke="#cadbeb" stroke-width="1.51"/><path d="M1530,742L1449,647L1467,770Z" fill="#772d81" stroke="#772d81" stroke-width="1.51"/><path d="M1530,742L1467,770L1533,843Z" fill="#722178" stroke="#722178" stroke-width="1.51"/><path d="M1542,229L1448,228L1459,318Z" fill="#8b6b9d" stroke="#8b6b9d" stroke-width="1.51"/><path d="M1448,228L1466,147L1380,217Z" fill="#9872a6" stroke="#9872a6" stroke-width="1.51"/><path d="M1355,-40L1262,-111L1290,-19Z" fill="#b98dbe" stroke="#b98dbe" stroke-width="1.51"/><path d="M242,42L169,40L258,128Z" fill="#cdddec" stroke="#cdddec" stroke-width="1.51"/><path d="M244,-47L242,42L333,-26Z" fill="#d1e1ed" stroke="#d1e1ed" stroke-width="1.51"/><path d="M1533,843L1467,770L1458,826Z" fill="#751e78" stroke="#751e78" stroke-width="1.51"/><path d="M1542,657L1557,397L1541,589Z" fill="#734484" stroke="#734484" stroke-width="1.51"/><path d="M1541,589L1557,397L1531,493Z" fill="#754c88" stroke="#754c88" stroke-width="1.51"/><path d="M1531,493L1557,397L1446,423Z" fill="#7a5690" stroke="#7a5690" stroke-width="1.51"/><path d="M310,-108L244,-47L333,-26Z" fill="#d4e2ef" stroke="#d4e2ef" stroke-width="1.51"/><path d="M428,-97L310,-108L333,-26Z" fill="#d0e0ed" stroke="#d0e0ed" stroke-width="1.51"/><path d="M673,-120L310,-108L428,-97Z" fill="#cadbeb" stroke="#cadbeb" stroke-width="1.51"/><path d="M1290,-19L1262,-111L1204,-27Z" fill="#b990c2" stroke="#b990c2" stroke-width="1.51"/><path d="M1204,-92L1262,-111L1094,-98Z" fill="#bd98c9" stroke="#bd98c9" stroke-width="1.51"/><path d="M920,-112L1453,-129L673,-120Z" fill="#bfa8d2" stroke="#bfa8d2" stroke-width="1.51"/><path d="M1355,-40L1290,-19L1352,67Z" fill="#b487b9" stroke="#b487b9" stroke-width="1.51"/><path d="M1434,1010L1464,904L1387,942Z" fill="#71096d" stroke="#71096d" stroke-width="1.51"/><path d="M79,990L171,1001L165,935Z" fill="#a27ba8" stroke="#a27ba8" stroke-width="1.51"/><path d="M165,935L171,1001L226,1001Z" fill="#9e78a6" stroke="#9e78a6" stroke-width="1.51"/><path d="M226,1001L171,1001L492,1033Z" fill="#90709d" stroke="#90709d" stroke-width="1.51"/><path d="M1452,46L1355,-40L1352,67Z" fill="#af82b3" stroke="#af82b3" stroke-width="1.51"/><path d="M1557,397L1558,320L1459,318Z" fill="#7f6094" stroke="#7f6094" stroke-width="1.51"/><path d="M-17,388L70,476L76,398Z" fill="#bac5df" stroke="#bac5df" stroke-width="1.51"/><path d="M4,752L57,844L68,768Z" fill="#b893c5" stroke="#b893c5" stroke-width="1.51"/><path d="M-17,388L76,398L55,321Z" fill="#bdcce3" stroke="#bdcce3" stroke-width="1.51"/><path d="M68,768L57,844L158,843Z" fill="#b48dc0" stroke="#b48dc0" stroke-width="1.51"/><path d="M4,752L68,768L55,681Z" fill="#b89aca" stroke="#b89aca" stroke-width="1.51"/><path d="M1558,320L1542,229L1459,318Z" fill="#836798" stroke="#836798" stroke-width="1.51"/><path d="M1466,147L1452,46L1352,67Z" fill="#a47bac" stroke="#a47bac" stroke-width="1.51"/><path d="M-28,590L-6,656L79,559Z" fill="#baacd3" stroke="#baacd3" stroke-width="1.51"/><path d="M1541,70L1452,46L1466,147Z" fill="#9b77a4" stroke="#9b77a4" stroke-width="1.51"/><path d="M310,-108L256,-103L244,-47Z" fill="#d8e5f0" stroke="#d8e5f0" stroke-width="1.51"/><path d="M244,-47L174,-47L242,42Z" fill="#d6e4ef" stroke="#d6e4ef" stroke-width="1.51"/><path d="M57,844L82,915L158,843Z" fill="#b388ba" stroke="#b388ba" stroke-width="1.51"/><path d="M-12,505L-28,590L79,559Z" fill="#bab3d7" stroke="#bab3d7" stroke-width="1.51"/><path d="M-36,338L-17,388L55,321Z" fill="#c0cfe5" stroke="#c0cfe5" stroke-width="1.51"/><path d="M-36,338L55,321L-22,216Z" fill="#c4d7e9" stroke="#c4d7e9" stroke-width="1.51"/><path d="M169,40L65,136L164,168Z" fill="#cfdeec" stroke="#cfdeec" stroke-width="1.51"/><path d="M73,46L65,136L169,40Z" fill="#d5e3ef" stroke="#d5e3ef" stroke-width="1.51"/><path d="M1542,657L1561,992L1557,397Z" fill="#6f307b" stroke="#6f307b" stroke-width="1.51"/><path d="M1530,742L1533,843L1542,657Z" fill="#702679" stroke="#702679" stroke-width="1.51"/><path d="M1464,904L1533,843L1458,826Z" fill="#741573" stroke="#741573" stroke-width="1.51"/><path d="M1527,905L1533,843L1464,904Z" fill="#700f6e" stroke="#700f6e" stroke-width="1.51"/><path d="M1379,993L1434,1010L1387,942Z" fill="#6f086b" stroke="#6f086b" stroke-width="1.51"/><path d="M1295,1026L1434,1010L1379,993Z" fill="#6e086a" stroke="#6e086a" stroke-width="1.51"/><path d="M1542,229L1522,154L1448,228Z" fill="#8e6d9d" stroke="#8e6d9d" stroke-width="1.51"/><path d="M-95,560L-28,590L-12,505Z" fill="#bdb5d8" stroke="#bdb5d8" stroke-width="1.51"/><path d="M-24,906L79,990L82,915Z" fill="#b083b1" stroke="#b083b1" stroke-width="1.51"/><path d="M-6,656L4,752L55,681Z" fill="#b99fcd" stroke="#b99fcd" stroke-width="1.51"/><path d="M-99,766L4,752L-6,656Z" fill="#bc9dcc" stroke="#bc9dcc" stroke-width="1.51"/><path d="M256,-103L174,-47L244,-47Z" fill="#d9e6f1" stroke="#d9e6f1" stroke-width="1.51"/><path d="M1561,992L1527,905L1464,904Z" fill="#690666" stroke="#690666" stroke-width="1.51"/><path d="M-113,409L-95,508L-12,505Z" fill="#bdc2de" stroke="#bdc2de" stroke-width="1.51"/><path d="M-22,216L55,321L78,220Z" fill="#c6d9ea" stroke="#c6d9ea" stroke-width="1.51"/><path d="M1452,46L1439,-35L1355,-40Z" fill="#af83b1" stroke="#af83b1" stroke-width="1.51"/><path d="M1355,-40L1387,-106L1262,-111Z" fill="#ba8cbc" stroke="#ba8cbc" stroke-width="1.51"/><path d="M1559,-21L1439,-35L1452,46Z" fill="#a57ea8" stroke="#a57ea8" stroke-width="1.51"/><path d="M65,136L-22,216L78,220Z" fill="#cdddec" stroke="#cdddec" stroke-width="1.51"/><path d="M73,-14L73,46L169,40Z" fill="#dae7f1" stroke="#dae7f1" stroke-width="1.51"/><path d="M-5,857L82,915L57,844Z" fill="#b78abb" stroke="#b78abb" stroke-width="1.51"/><path d="M82,915L79,990L165,935Z" fill="#aa7fae" stroke="#aa7fae" stroke-width="1.51"/><path d="M1439,-35L1387,-106L1355,-40Z" fill="#b686b5" stroke="#b686b5" stroke-width="1.51"/><path d="M-20,128L-22,216L65,136Z" fill="#d2e1ee" stroke="#d2e1ee" stroke-width="1.51"/><path d="M4,752L-5,857L57,844Z" fill="#b890c2" stroke="#b890c2" stroke-width="1.51"/><path d="M-24,906L-5,857L-92,817Z" fill="#bb8dbe" stroke="#bb8dbe" stroke-width="1.51"/><path d="M1439,-35L1453,-129L1387,-106Z" fill="#b385b2" stroke="#b385b2" stroke-width="1.51"/><path d="M1522,154L1541,70L1466,147Z" fill="#94739f" stroke="#94739f" stroke-width="1.51"/><path d="M1542,229L1541,70L1522,154Z" fill="#8e6f9b" stroke="#8e6f9b" stroke-width="1.51"/><path d="M1559,-21L1541,70L1542,229Z" fill="#93729c" stroke="#93729c" stroke-width="1.51"/><path d="M-113,409L-12,505L-17,388Z" fill="#bec6e0" stroke="#bec6e0" stroke-width="1.51"/><path d="M-28,590L-123,676L-6,656Z" fill="#bda9d2" stroke="#bda9d2" stroke-width="1.51"/><path d="M-113,409L-17,388L-36,338Z" fill="#c2cee4" stroke="#c2cee4" stroke-width="1.51"/><path d="M-95,508L-95,560L-12,505Z" fill="#bebadb" stroke="#bebadb" stroke-width="1.51"/><path d="M51,-98L73,-14L174,-47Z" fill="#e2edf4" stroke="#e2edf4" stroke-width="1.51"/><path d="M174,-47L73,-14L169,40Z" fill="#dce8f2" stroke="#dce8f2" stroke-width="1.51"/><path d="M73,46L-20,128L65,136Z" fill="#d6e4ef" stroke="#d6e4ef" stroke-width="1.51"/><path d="M256,-103L156,-120L174,-47Z" fill="#dde9f2" stroke="#dde9f2" stroke-width="1.51"/><path d="M310,-108L156,-120L256,-103Z" fill="#dbe7f1" stroke="#dbe7f1" stroke-width="1.51"/><path d="M673,-120L156,-120L310,-108Z" fill="#d1e0ee" stroke="#d1e0ee" stroke-width="1.51"/><path d="M-31,61L-20,128L73,46Z" fill="#dbe7f1" stroke="#dbe7f1" stroke-width="1.51"/><path d="M-117,301L-113,409L-36,338Z" fill="#c5d3e7" stroke="#c5d3e7" stroke-width="1.51"/><path d="M-5,857L-24,906L82,915Z" fill="#b888b9" stroke="#b888b9" stroke-width="1.51"/><path d="M-92,817L-5,857L4,752Z" fill="#bb93c4" stroke="#bb93c4" stroke-width="1.51"/><path d="M-95,508L-123,676L-95,560Z" fill="#c0b3d7" stroke="#c0b3d7" stroke-width="1.51"/><path d="M-117,301L-36,338L-22,216Z" fill="#c8daea" stroke="#c8daea" stroke-width="1.51"/><path d="M1434,1010L1561,992L1464,904Z" fill="#670663" stroke="#670663" stroke-width="1.51"/><path d="M1527,905L1561,992L1533,843Z" fill="#6a0767" stroke="#6a0767" stroke-width="1.51"/><path d="M1533,843L1561,992L1542,657Z" fill="#6d196f" stroke="#6d196f" stroke-width="1.51"/><path d="M1557,397L1561,992L1558,320Z" fill="#714081" stroke="#714081" stroke-width="1.51"/><path d="M-123,676L-99,766L-6,656Z" fill="#bea2cf" stroke="#bea2cf" stroke-width="1.51"/><path d="M-123,676L-28,590L-95,560Z" fill="#beaed5" stroke="#beaed5" stroke-width="1.51"/><path d="M1524,-101L1453,-129L1439,-35Z" fill="#ac82ac" stroke="#ac82ac" stroke-width="1.51"/><path d="M1387,-106L1453,-129L1262,-111Z" fill="#bd8aba" stroke="#bd8aba" stroke-width="1.51"/><path d="M1262,-111L1453,-129L920,-112Z" fill="#be97c7" stroke="#be97c7" stroke-width="1.51"/><path d="M673,-120L-2,-122L156,-120Z" fill="#dae6f1" stroke="#dae6f1" stroke-width="1.51"/><path d="M-113,409L-123,676L-95,508Z" fill="#c0badb" stroke="#c0badb" stroke-width="1.51"/><path d="M-113,409L-122,249L-123,676Z" fill="#c1c7e1" stroke="#c1c7e1" stroke-width="1.51"/><path d="M-122,249L-117,301L-22,216Z" fill="#cdddec" stroke="#cdddec" stroke-width="1.51"/><path d="M-97,909L-92,817L-99,766Z" fill="#be93c3" stroke="#be93c3" stroke-width="1.51"/><path d="M-99,766L-92,817L4,752Z" fill="#bd98c8" stroke="#bd98c8" stroke-width="1.51"/><path d="M-111,149L-122,249L-22,216Z" fill="#d2e1ee" stroke="#d2e1ee" stroke-width="1.51"/><path d="M-1,-21L-31,61L73,46Z" fill="#e0ebf3" stroke="#e0ebf3" stroke-width="1.51"/><path d="M-1,-21L73,46L73,-14Z" fill="#e1ecf4" stroke="#e1ecf4" stroke-width="1.51"/><path d="M1541,70L1559,-21L1452,46Z" fill="#9d79a3" stroke="#9d79a3" stroke-width="1.51"/><path d="M1558,320L1559,-21L1542,229Z" fill="#8a6c98" stroke="#8a6c98" stroke-width="1.51"/><path d="M1561,992L1559,-21L1558,320Z" fill="#74548a" stroke="#74548a" stroke-width="1.51"/><path d="M-117,301L-122,249L-113,409Z" fill="#c8d8e9" stroke="#c8d8e9" stroke-width="1.51"/><path d="M-111,149L-22,216L-20,128Z" fill="#d4e2ef" stroke="#d4e2ef" stroke-width="1.51"/><path d="M-112,73L-111,149L-20,128Z" fill="#dbe7f1" stroke="#dbe7f1" stroke-width="1.51"/><path d="M51,-98L-1,-21L73,-14Z" fill="#e5eff6" stroke="#e5eff6" stroke-width="1.51"/><path d="M156,-120L51,-98L174,-47Z" fill="#e3edf4" stroke="#e3edf4" stroke-width="1.51"/><path d="M1559,-21L1524,-101L1439,-35Z" fill="#a57ea7" stroke="#a57ea7" stroke-width="1.51"/><path d="M-97,909L-31,1014L-24,906Z" fill="#b385b2" stroke="#b385b2" stroke-width="1.51"/><path d="M-24,906L-31,1014L79,990Z" fill="#ab81ac" stroke="#ab81ac" stroke-width="1.51"/><path d="M79,990L-31,1014L171,1001Z" fill="#a27ca5" stroke="#a27ca5" stroke-width="1.51"/><path d="M171,1001L-108,1030L492,1033Z" fill="#96759e" stroke="#96759e" stroke-width="1.51"/><path d="M-112,73L-20,128L-31,61Z" fill="#dde9f2" stroke="#dde9f2" stroke-width="1.51"/><path d="M-92,817L-97,909L-24,906Z" fill="#bc8dbd" stroke="#bc8dbd" stroke-width="1.51"/><path d="M-123,676L-97,909L-99,766Z" fill="#bf99c8" stroke="#bf99c8" stroke-width="1.51"/><path d="M-119,-30L-112,73L-31,61Z" fill="#e4eff5" stroke="#e4eff5" stroke-width="1.51"/><path d="M-111,149L-112,73L-122,249Z" fill="#d9e6f0" stroke="#d9e6f0" stroke-width="1.51"/><path d="M-119,-30L-31,61L-1,-21Z" fill="#e6f0f6" stroke="#e6f0f6" stroke-width="1.51"/><path d="M51,-98L-2,-122L-1,-21Z" fill="#e9f2f7" stroke="#e9f2f7" stroke-width="1.51"/><path d="M156,-120L-2,-122L51,-98Z" fill="#e9f2f7" stroke="#e9f2f7" stroke-width="1.51"/><path d="M1453,-129L-2,-122L673,-120Z" fill="#c0c7e1" stroke="#c0c7e1" stroke-width="1.51"/><path d="M-97,909L-108,1030L-31,1014Z" fill="#ad83ab" stroke="#ad83ab" stroke-width="1.51"/><path d="M-31,1014L-108,1030L171,1001Z" fill="#a27da4" stroke="#a27da4" stroke-width="1.51"/><path d="M-123,676L-108,1030L-97,909Z" fill="#be8fbe" stroke="#be8fbe" stroke-width="1.51"/><path d="M-81,-100L-119,-30L-1,-21Z" fill="#ebf3f8" stroke="#ebf3f8" stroke-width="1.51"/><path d="M-112,73L-119,-30L-122,249Z" fill="#dfeaf3" stroke="#dfeaf3" stroke-width="1.51"/><path d="M-2,-122L-81,-100L-1,-21Z" fill="#ebf3f8" stroke="#ebf3f8" stroke-width="1.51"/></svg>